<svg width="532" height="532" viewBox="0 0 532 532" fill="none" xmlns="http://www.w3.org/2000/svg">
<circle cx="125" cy="125" r="125" fill="#F5F5F5"/>
<path d="M108 69.1556L121.724 82.88L142.311 52" stroke="#00A0E8" stroke-width="4.88" stroke-linecap="round" stroke-linejoin="round"/>
<path d="M36.4995 130.214H43.9875V131.722H35.4335L36.4995 130.214ZM43.3895 130.214H43.8055L44.1955 130.136L45.3395 130.812C43.0255 135.648 37.8255 138.014 32.1055 139.132C31.9235 138.664 31.4295 137.832 31.0915 137.442C36.6035 136.558 41.4915 134.53 43.3895 130.526V130.214ZM36.3175 131.254C38.2415 134.478 42.4275 136.636 47.4715 137.39C47.0295 137.806 46.5095 138.586 46.2495 139.106C41.0755 138.092 36.8895 135.622 34.6795 131.774L36.3175 131.254ZM35.9275 125.456V127.224H43.5195V125.456H35.9275ZM35.9275 122.466V124.182H43.5195V122.466H35.9275ZM34.1335 121.114H45.3655V128.55H34.1335V121.114ZM34.8875 117.786H46.9515V119.45H34.8875V117.786ZM35.4855 115.16L37.3575 115.472C36.3695 117.89 34.9915 120.646 32.8595 122.882C32.5215 122.492 31.8975 121.972 31.4555 121.764C33.4315 119.788 34.7835 117.188 35.4855 115.16ZM37.4875 127.978L39.4115 128.342C37.9295 130.63 35.6935 132.944 32.5215 134.764C32.2355 134.348 31.6375 133.776 31.2215 133.49C34.2115 131.93 36.3435 129.798 37.4875 127.978ZM26.8275 127.926L28.5955 125.794V139.106H26.8275V127.926ZM23.5255 120.126H30.5975V121.842H23.5255V120.126ZM26.7495 115.316H28.5175V121.062H26.7495V115.316ZM28.3615 125.924C29.0375 126.652 31.5075 129.694 32.0535 130.448L30.9095 131.774C30.2335 130.552 28.1795 127.744 27.3735 126.756L28.3615 125.924ZM29.9215 120.126H30.2855L30.6235 120.022L31.6375 120.672C30.0775 125.43 26.9055 130.032 23.9155 132.632C23.7075 132.164 23.2135 131.306 22.9015 130.968C25.7095 128.706 28.6475 124.494 29.9215 120.516V120.126ZM31.4035 124.858L32.5475 125.69C31.8455 126.808 31.0135 128.056 30.3375 128.862L29.4275 128.16C30.0515 127.276 30.9355 125.82 31.4035 124.858ZM49.1615 129.044H61.9275V130.682H49.1615V129.044ZM49.3175 119.97H61.8495V121.556H49.3175V119.97ZM53.9975 126.808L55.8175 127.198C54.6475 129.746 53.0095 132.918 51.8135 134.972L50.0975 134.374C51.2675 132.398 52.9055 129.2 53.9975 126.808ZM57.8975 130.006L59.7175 130.24C58.8335 135.31 56.1035 137.806 50.0975 139.08C49.9675 138.56 49.5775 137.858 49.2135 137.468C54.6475 136.558 57.0915 134.426 57.8975 130.006ZM59.5355 115.68L61.1995 116.408C60.4455 117.604 59.5875 118.904 58.8595 119.788L57.5595 119.138C58.2095 118.202 59.0675 116.694 59.5355 115.68ZM54.6995 115.16H56.4935V127.12H54.6995V115.16ZM50.2795 116.408L51.7615 115.784C52.4895 116.824 53.1915 118.202 53.4515 119.138L51.9175 119.84C51.6835 118.904 51.0075 117.474 50.2795 116.408ZM54.7255 120.672L56.0515 121.452C54.7775 123.636 52.3335 125.95 50.0975 127.172C49.8635 126.73 49.3955 126.08 49.0315 125.69C51.1895 124.754 53.5815 122.674 54.7255 120.672ZM56.2855 121.582C57.2215 122.076 60.3935 124.078 61.1475 124.624L60.0815 126.054C59.1455 125.17 56.4415 123.142 55.3495 122.414L56.2855 121.582ZM63.8255 119.97H73.0815V121.79H63.8255V119.97ZM64.4755 115.16L66.4515 115.446C65.5935 120.542 64.0595 125.196 61.7715 128.238C61.4595 127.874 60.6535 127.224 60.1855 126.912C62.3955 124.156 63.7475 119.762 64.4755 115.16ZM69.5975 121.01L71.5735 121.218C70.3255 130.188 67.5695 135.778 61.0175 139.158C60.8095 138.69 60.2375 137.832 59.8475 137.416C66.0355 134.504 68.5315 129.252 69.5975 121.01ZM64.8655 121.582C66.0095 128.732 68.5055 134.868 73.3415 137.416C72.8735 137.806 72.2495 138.56 71.9635 139.08C66.8675 136.09 64.3975 129.746 63.0975 121.868L64.8655 121.582ZM51.6575 134.01L52.6975 132.684C55.8175 133.88 59.0415 135.596 60.9135 137.026L59.5615 138.43C57.7675 136.974 54.6735 135.232 51.6575 134.01ZM88.7855 119.268C88.4475 121.972 87.9275 125.014 87.1215 127.796C85.5355 133.126 83.4555 135.882 81.0635 135.882C78.7235 135.882 76.4095 133.23 76.4095 128.914C76.4095 123.272 81.4275 118.358 87.7975 118.358C93.8815 118.358 97.7555 122.648 97.7555 127.926C97.7555 133.36 94.1675 137 87.9795 137.806L86.7835 135.882C87.6155 135.804 88.3955 135.7 89.0195 135.57C92.3475 134.816 95.6235 132.32 95.6235 127.822C95.6235 123.662 92.7375 120.23 87.7455 120.23C82.0255 120.23 78.4635 124.936 78.4635 128.758C78.4635 132.034 79.9455 133.49 81.1155 133.49C82.3375 133.49 83.7415 131.722 85.0675 127.328C85.8215 124.858 86.3675 121.92 86.6275 119.216L88.7855 119.268ZM120.479 118.878C120.479 119.84 121.259 120.594 122.195 120.594C123.131 120.594 123.911 119.84 123.911 118.878C123.911 117.942 123.131 117.162 122.195 117.162C121.259 117.162 120.479 117.942 120.479 118.878ZM119.283 118.878C119.283 117.266 120.583 115.966 122.195 115.966C123.807 115.966 125.107 117.266 125.107 118.878C125.107 120.49 123.807 121.79 122.195 121.79C120.583 121.79 119.283 120.49 119.283 118.878ZM105.789 129.2C106.933 126.496 107.999 122.544 108.363 119.554L110.677 120.022C110.495 120.594 110.313 121.374 110.183 121.92C109.845 123.532 108.935 127.38 107.843 130.058C106.881 132.424 105.451 135.102 103.995 137.208L101.785 136.272C103.423 134.088 104.905 131.358 105.789 129.2ZM118.607 128.212C117.567 125.534 115.955 121.92 114.837 119.97L116.943 119.268C117.957 121.166 119.621 124.754 120.739 127.484C121.779 130.058 123.157 134.036 123.859 136.402L121.545 137.13C120.895 134.504 119.673 130.968 118.607 128.212ZM136.937 125.092C140.265 127.042 144.529 130.032 147.103 132.112L145.569 133.932C143.177 131.748 138.731 128.55 135.507 126.548L136.937 125.092ZM148.819 120.36C148.611 120.724 148.351 121.322 148.221 121.738C147.441 124.39 145.803 127.848 143.515 130.656C141.149 133.568 137.769 136.35 132.829 138.17L130.983 136.532C135.819 135.076 139.355 132.32 141.695 129.538C143.697 127.146 145.335 123.844 145.933 121.426H136.313L137.145 119.554H145.413C146.115 119.554 146.687 119.476 147.103 119.32L148.819 120.36ZM140.057 116.59C139.615 117.266 139.147 118.15 138.887 118.644C137.353 121.504 134.415 125.43 130.255 128.29L128.539 126.964C132.985 124.182 135.663 120.282 136.859 117.89C137.119 117.448 137.535 116.512 137.691 115.836L140.057 116.59ZM154.773 125.742C155.579 125.82 156.931 125.898 158.413 125.898C160.311 125.898 170.737 125.898 172.661 125.898C173.961 125.898 174.871 125.794 175.469 125.742V128.29C174.923 128.264 173.831 128.186 172.687 128.186C170.711 128.186 160.337 128.186 158.413 128.186C156.983 128.186 155.605 128.238 154.773 128.29V125.742ZM182.755 117.968C184.575 119.19 187.929 121.894 189.359 123.324L187.747 124.988C186.421 123.636 183.197 120.828 181.247 119.554L182.755 117.968ZM180.519 135.388C185.043 134.712 188.423 133.126 190.893 131.592C194.923 129.07 198.069 125.222 199.577 121.998L200.825 124.234C199.057 127.458 196.041 130.994 192.115 133.464C189.489 135.102 186.213 136.714 181.871 137.52L180.519 135.388ZM213.877 116.824C213.773 117.292 213.669 117.864 213.565 118.358C213.383 119.294 213.045 121.426 212.681 123.038C211.797 126.704 209.951 133.178 207.013 137.91L204.881 137.078C207.845 133.1 209.925 126.158 210.627 122.986C211.121 120.906 211.459 118.566 211.459 116.564L213.877 116.824ZM222.821 119.814C224.433 121.92 226.695 126.652 227.579 129.044L225.551 130.006C224.797 127.354 222.743 122.83 220.923 120.672L222.821 119.814ZM204.517 122.518C205.323 122.57 205.999 122.544 206.831 122.518C208.781 122.466 214.059 121.894 215.827 121.894C218.141 121.894 220.039 122.778 220.039 126.288C220.039 129.382 219.623 133.516 218.531 135.674C217.725 137.416 216.425 137.858 214.735 137.858C213.747 137.858 212.499 137.676 211.693 137.468L211.329 135.31C212.421 135.648 213.799 135.83 214.527 135.83C215.489 135.83 216.269 135.622 216.789 134.504C217.621 132.736 218.037 129.356 218.037 126.548C218.037 124.156 216.945 123.714 215.281 123.714C213.539 123.714 208.651 124.312 207.065 124.468C206.467 124.546 205.401 124.676 204.725 124.78L204.517 122.518ZM223.107 116.044C223.757 116.98 224.693 118.566 225.239 119.632L223.835 120.256C223.315 119.19 222.431 117.63 221.703 116.642L223.107 116.044ZM225.967 115.004C226.669 115.966 227.657 117.604 228.177 118.566L226.747 119.19C226.201 118.046 225.343 116.564 224.589 115.602L225.967 115.004ZM55.482 165.478H57.51V179.466C57.51 180.688 57.822 180.922 59.278 180.922C60.006 180.922 63.386 180.922 64.322 180.922C65.83 180.922 66.064 180.064 66.272 175.93C66.766 176.294 67.598 176.658 68.17 176.788C67.858 181.468 67.26 182.872 64.426 182.872C63.75 182.872 59.772 182.872 59.122 182.872C56.288 182.872 55.482 182.144 55.482 179.414V165.478ZM55.534 160.616L56.808 159.238C59.044 160.694 61.878 162.826 63.386 164.048L62.086 165.634C60.578 164.308 57.718 162.124 55.534 160.616ZM51.322 167.038L53.142 167.506C52.57 170.392 51.608 174.136 50.152 176.424L48.306 175.67C49.788 173.408 50.802 169.872 51.322 167.038ZM66.688 168.728L68.43 167.922C70.25 170.522 71.992 173.928 72.72 176.216L70.848 177.152C70.198 174.838 68.43 171.328 66.688 168.728ZM68.066 160.72L69.99 161.526C65.726 169.638 58.862 177.126 49.606 181.546C49.32 181.104 48.748 180.402 48.332 180.012C57.302 175.93 64.296 168.416 68.066 160.72ZM74.67 173.382H98.33V175.02H74.67V173.382ZM75.294 160.304H97.68V162.02H75.294V160.304ZM83.692 170.652L85.59 171.172C83.9 173.876 81.508 177.282 79.844 179.414L77.998 178.79C79.662 176.684 82.08 173.2 83.692 170.652ZM91.492 173.954L93.364 174.5C91.076 180.22 85.538 182.352 75.788 183.08C75.658 182.508 75.346 181.806 75.034 181.364C84.316 180.87 89.412 179.024 91.492 173.954ZM79.402 178.53L80.39 177.1C86.812 178.244 93.494 179.986 97.524 181.572L96.354 183.158C92.376 181.52 86.006 179.752 79.402 178.53ZM82.392 160.954H84.238V170.028H82.392V160.954ZM88.45 160.954H90.296V170.028H88.45V160.954ZM78.414 165.842V169.378H94.638V165.842H78.414ZM76.594 164.256H96.588V170.99H76.594V164.256ZM111.33 163.45C114.164 163.944 119.442 163.84 122.016 163.45V165.556C119.234 165.868 114.19 165.868 111.356 165.556L111.33 163.45ZM112.344 174.058C112.11 174.994 111.98 175.722 111.98 176.424C111.98 177.62 112.812 178.79 116.374 178.79C118.688 178.79 120.716 178.582 122.796 178.088L122.848 180.272C121.236 180.61 119.052 180.818 116.348 180.818C112.006 180.818 110.056 179.362 110.056 176.918C110.056 176.06 110.186 175.124 110.472 173.876L112.344 174.058ZM106.39 161.448C106.234 161.89 106.026 162.722 105.922 163.19C105.428 165.608 104.622 170.236 104.622 173.174C104.622 174.422 104.7 175.514 104.856 176.788C105.298 175.618 105.896 174.058 106.338 172.992L107.43 173.85C106.78 175.696 105.818 178.426 105.584 179.674C105.506 180.038 105.454 180.532 105.454 180.844C105.48 181.104 105.506 181.468 105.532 181.754L103.686 181.884C103.166 180.038 102.724 177.048 102.724 173.512C102.724 169.69 103.582 165.244 103.894 163.086C103.972 162.488 104.05 161.838 104.076 161.266L106.39 161.448ZM127.996 164.62C128.958 164.724 130.076 164.776 131.194 164.776C134.002 164.776 137.278 164.438 140.268 163.45L140.32 165.374C137.772 166.076 134.366 166.648 131.194 166.622C130.232 166.622 129.114 166.596 128.152 166.57L127.996 164.62ZM137.226 160.382C136.888 161.656 136.342 164.1 135.718 165.946C134.47 169.69 132.078 174.422 129.92 177.334L127.918 176.294C130.232 173.59 132.65 168.962 133.716 165.894C134.288 164.256 134.86 161.968 134.938 160.148L137.226 160.382ZM143.362 168.416C143.284 169.482 143.284 170.262 143.31 171.198C143.362 172.888 143.596 176.84 143.596 178.556C143.596 180.636 142.27 182.326 139.046 182.326C136.186 182.326 133.872 181.182 133.872 178.582C133.872 176.19 136.134 174.682 139.046 174.682C143.414 174.682 146.768 176.866 148.9 178.712L147.808 180.48C145.806 178.66 142.816 176.346 138.994 176.346C137.07 176.346 135.77 177.23 135.77 178.426C135.77 179.622 136.784 180.454 138.812 180.454C140.97 180.454 141.698 179.31 141.698 177.906C141.698 175.93 141.412 171.276 141.308 168.416H143.362ZM148.562 169.092C147.158 167.896 144.324 166.31 142.608 165.504L143.648 163.944C145.546 164.75 148.484 166.44 149.732 167.376L148.562 169.092ZM155.66 170.626C156.414 170.496 157.272 170.262 158.078 170.002C159.924 169.43 164.214 167.87 167.256 167.87C170.948 167.87 173.626 170.08 173.626 173.616C173.626 178.634 168.79 181.182 161.796 181.598L160.938 179.596C166.58 179.44 171.52 177.828 171.52 173.59C171.52 171.38 169.778 169.742 167.1 169.742C163.902 169.742 158.208 172.108 156.544 172.784L155.66 170.626ZM188.992 160.564C188.836 161.136 188.654 162.124 188.55 162.618C188.16 164.49 187.614 167.428 186.886 170.028C185.95 173.72 184.208 179.102 182.83 181.936L180.568 181.182C182.128 178.478 183.948 173.2 184.936 169.534C185.56 167.142 186.236 163.866 186.418 162.514C186.522 161.786 186.574 160.902 186.522 160.356L188.992 160.564ZM183.246 164.906C186.106 164.906 189.928 164.438 193.152 163.632V165.66C189.928 166.388 186.002 166.83 183.194 166.83C182.05 166.83 181.14 166.804 180.178 166.726L180.126 164.698C181.348 164.854 182.284 164.906 183.246 164.906ZM191.462 168.468C192.814 168.338 194.556 168.26 196.22 168.26C197.728 168.26 199.314 168.312 200.718 168.468L200.666 170.444C199.314 170.288 197.806 170.132 196.272 170.132C194.66 170.132 193.048 170.236 191.462 170.418V168.468ZM191.982 174.786C191.774 175.644 191.618 176.45 191.618 177.126C191.618 178.348 192.32 179.544 196.012 179.544C197.728 179.544 199.496 179.362 201.108 179.05L201.03 181.13C199.626 181.338 197.884 181.494 195.986 181.494C191.904 181.494 189.668 180.246 189.668 177.672C189.668 176.684 189.824 175.696 190.058 174.604L191.982 174.786Z" fill="#333333"/>
<circle cx="407" cy="125" r="125" fill="#F5F5F5"/>
<path d="M389 69.1556L402.724 82.88L423.311 52" stroke="#00A0E8" stroke-width="4.88" stroke-linecap="round" stroke-linejoin="round"/>
<path d="M304.32 116.59C304.216 117.162 304.138 118.41 304.112 119.19C304.112 120.36 304.112 122.154 304.112 123.948C304.112 126.782 304.528 131.982 304.528 134.27C304.528 136.376 303.228 138.196 299.77 138.196C296.156 138.196 293.53 137.078 293.53 134.114C293.53 131.748 295.558 129.85 300.056 129.85C305.204 129.85 309.832 132.45 312.484 134.868L311.236 136.818C308.636 134.218 304.372 131.67 299.822 131.67C297.118 131.67 295.584 132.58 295.584 134.036C295.584 135.466 297.04 136.272 299.562 136.272C301.46 136.272 302.396 135.362 302.396 133.568C302.396 131.644 302.084 126.6 302.084 123.948C302.084 122.44 302.058 120.308 302.058 119.19C302.032 118.228 301.954 117.084 301.85 116.59H304.32ZM302.968 121.842C304.762 121.842 309 121.712 311.808 121.374L311.886 123.324C309.078 123.584 304.84 123.766 302.968 123.766V121.842ZM324.534 116.486C323.988 118.41 323.494 121.92 323.338 123.74C324.404 121.062 327.108 117.812 330.41 117.812C333.842 117.812 336.338 121.296 336.338 126.756C336.338 133.958 331.788 137.156 325.366 138.326L324.118 136.454C329.786 135.596 334.18 133.308 334.18 126.782C334.18 122.674 332.802 119.71 330.072 119.71C326.822 119.71 323.806 124.442 323.494 127.848C323.364 128.836 323.364 129.746 323.546 131.046L321.518 131.202C321.388 130.214 321.258 128.758 321.258 127.068C321.258 124.598 321.752 120.776 322.064 118.644C322.168 117.864 322.22 117.136 322.272 116.408L324.534 116.486ZM343.436 117.656H366.03V119.346H343.436V117.656ZM353.602 115.16H355.604V118.462H353.602V115.16ZM344.58 127.822H363.898V129.486H346.478V139.106H344.58V127.822ZM363.092 127.822H365.042V136.766C365.042 137.832 364.808 138.404 363.976 138.742C363.144 139.028 361.74 139.054 359.582 139.054C359.504 138.508 359.218 137.728 358.932 137.208C360.648 137.26 362.104 137.26 362.546 137.208C362.988 137.208 363.092 137.078 363.092 136.714V127.822ZM349.78 131.176H351.522V137.988H349.78V131.176ZM350.716 131.176H359.712V136.662H350.716V135.258H357.944V132.58H350.716V131.176ZM349.624 122.232V124.754H359.79V122.232H349.624ZM347.752 120.802H361.766V126.184H347.752V120.802ZM372.192 115.16H374.168V139.054H372.192V115.16ZM369.8 120.1L371.282 120.334C371.152 122.44 370.684 125.456 369.982 127.328L368.448 126.808C369.15 125.066 369.618 122.206 369.8 120.1ZM374.35 119.944L375.702 119.346C376.508 120.75 377.314 122.596 377.6 123.714L376.144 124.442C375.858 123.298 375.078 121.4 374.35 119.944ZM379.654 116.382L381.552 116.694C380.876 120.49 379.732 124.182 378.276 126.626C377.886 126.34 377.002 125.924 376.508 125.716C378.042 123.428 379.082 119.892 379.654 116.382ZM379.68 120.672H391.77V122.544H379.082L379.68 120.672ZM383.892 115.264H385.842V137.364H383.892V115.264ZM378.354 127.952H391.198V129.798H378.354V127.952ZM376.404 136.298H392.394V138.17H376.404V136.298ZM399.128 115.16L401.156 115.628C400.22 117.786 398.998 120.308 397.958 121.946L396.294 121.452C397.282 119.788 398.504 117.058 399.128 115.16ZM394.76 120.672C397.49 120.594 401.624 120.412 405.706 120.23L405.68 121.972C401.806 122.206 397.776 122.414 394.942 122.57L394.76 120.672ZM396.346 124.442H404.588V126.106H398.166V139.054H396.346V124.442ZM403.704 124.442H405.628V136.844C405.628 137.832 405.42 138.378 404.718 138.69C403.99 139.002 402.846 139.028 401.208 139.028C401.104 138.508 400.818 137.728 400.558 137.234C401.78 137.286 402.898 137.26 403.262 137.234C403.6 137.234 403.704 137.156 403.704 136.818V124.442ZM397.204 128.316H404.718V129.85H397.204V128.316ZM397.204 132.216H404.718V133.776H397.204V132.216ZM408.072 115.212H409.996V123.818C409.996 124.65 410.204 124.832 411.4 124.832C411.946 124.832 414.78 124.832 415.534 124.832C416.548 124.832 416.73 124.39 416.834 121.816C417.25 122.154 418.03 122.44 418.602 122.57C418.368 125.742 417.796 126.6 415.69 126.6C415.144 126.6 411.738 126.6 411.218 126.6C408.722 126.6 408.072 126.002 408.072 123.844V115.212ZM416.028 117.136L417.328 118.566C415.118 119.606 411.998 120.62 409.32 121.374C409.216 120.958 408.956 120.386 408.722 119.996C411.296 119.19 414.26 118.046 416.028 117.136ZM408.072 127.302H409.996V136.09C409.996 136.974 410.23 137.13 411.478 137.13C412.024 137.13 414.962 137.13 415.742 137.13C416.86 137.13 417.016 136.636 417.146 133.698C417.588 134.01 418.368 134.322 418.914 134.426C418.654 137.936 418.082 138.872 415.898 138.872C415.326 138.872 411.816 138.872 411.27 138.872C408.748 138.872 408.072 138.274 408.072 136.116V127.302ZM416.34 128.732L417.64 130.188C415.456 131.436 412.128 132.502 409.32 133.256C409.216 132.866 408.93 132.242 408.722 131.852C411.426 131.072 414.572 129.876 416.34 128.732ZM402.378 117.63L403.99 116.98C405.368 118.8 406.824 121.192 407.422 122.804L405.706 123.558C405.16 121.972 403.756 119.476 402.378 117.63ZM422.242 120.62C423.204 120.724 424.322 120.776 425.44 120.776C428.248 120.776 431.524 120.438 434.514 119.45L434.566 121.374C432.018 122.076 428.612 122.648 425.44 122.622C424.478 122.622 423.36 122.596 422.398 122.57L422.242 120.62ZM431.472 116.382C431.134 117.656 430.588 120.1 429.964 121.946C428.716 125.69 426.324 130.422 424.166 133.334L422.164 132.294C424.478 129.59 426.896 124.962 427.962 121.894C428.534 120.256 429.106 117.968 429.184 116.148L431.472 116.382ZM437.608 124.416C437.53 125.482 437.53 126.262 437.556 127.198C437.608 128.888 437.842 132.84 437.842 134.556C437.842 136.636 436.516 138.326 433.292 138.326C430.432 138.326 428.118 137.182 428.118 134.582C428.118 132.19 430.38 130.682 433.292 130.682C437.66 130.682 441.014 132.866 443.146 134.712L442.054 136.48C440.052 134.66 437.062 132.346 433.24 132.346C431.316 132.346 430.016 133.23 430.016 134.426C430.016 135.622 431.03 136.454 433.058 136.454C435.216 136.454 435.944 135.31 435.944 133.906C435.944 131.93 435.658 127.276 435.554 124.416H437.608ZM442.808 125.092C441.404 123.896 438.57 122.31 436.854 121.504L437.894 119.944C439.792 120.75 442.73 122.44 443.978 123.376L442.808 125.092ZM448.138 117.682H469.432V119.346H448.138V117.682ZM448.97 136.74H468.652V138.378H448.97V136.74ZM453.26 121.062H464.206V122.544H453.26V121.062ZM453.26 124.338H464.206V125.82H453.26V124.338ZM446.916 127.692H470.55V129.33H446.916V127.692ZM452.376 132.346H465.142V133.958H452.376V132.346ZM452.09 115.186H454.04V128.602H452.09V115.186ZM463.53 115.186H465.48V128.602H463.53V115.186ZM457.68 130.162H459.682V137.65H457.68V130.162ZM453.468 128.134L455.106 128.758C453.52 131.436 450.66 133.906 447.93 135.18C447.644 134.738 447.098 134.062 446.656 133.698C449.282 132.658 452.064 130.422 453.468 128.134ZM464.102 128.134C465.48 130.344 468.184 132.398 470.888 133.36C470.446 133.724 469.874 134.4 469.588 134.868C466.832 133.698 464.076 131.28 462.568 128.732L464.102 128.134ZM475.906 117.058H482.692V118.488H475.906V117.058ZM478.74 115.134L480.482 115.394C479.988 116.382 479.546 117.266 479.156 117.968L477.674 117.682C478.038 116.954 478.506 115.862 478.74 115.134ZM475.152 117.058H476.764V121.894C476.764 124.624 476.296 128.342 473.826 130.838C473.592 130.526 472.942 129.954 472.578 129.746C474.84 127.458 475.152 124.312 475.152 121.868V117.058ZM487.164 116.122H492.39V117.578H487.164V116.122ZM485.37 122.804H493.638V124.234H485.37V122.804ZM486.436 116.122H488.022V117.994C488.022 119.58 487.528 121.478 485.422 122.804C485.214 122.466 484.616 121.79 484.304 121.556C486.124 120.49 486.436 119.138 486.436 117.968V116.122ZM481.86 117.058H483.498V128.264C483.498 129.174 483.342 129.642 482.718 129.928C482.12 130.188 481.132 130.214 479.702 130.214C479.624 129.746 479.416 129.096 479.182 128.628C480.274 128.68 481.184 128.68 481.47 128.654C481.782 128.654 481.86 128.55 481.86 128.264V117.058ZM472.786 122.804C475.776 122.7 480.3 122.492 484.72 122.258L484.668 123.766C480.378 124 475.958 124.234 472.89 124.39L472.786 122.804ZM477.778 119.502L479 119.06C479.572 119.866 480.17 120.958 480.43 121.634L479.156 122.154C478.896 121.452 478.324 120.334 477.778 119.502ZM478.428 124.754H479.754V128.342H478.428V124.754ZM491.506 116.122H493.118V119.944C493.118 120.386 493.17 120.438 493.56 120.438C493.742 120.438 494.47 120.438 494.704 120.438C495.094 120.438 495.172 120.256 495.224 118.488C495.562 118.748 496.212 118.956 496.654 119.06C496.498 121.322 496.082 121.894 494.938 121.894C494.626 121.894 493.612 121.894 493.326 121.894C491.896 121.894 491.506 121.478 491.506 119.944V116.122ZM493.118 122.804H493.508L493.846 122.752L494.86 123.194C493.248 127.354 489.582 129.356 485.162 130.344C484.98 129.928 484.512 129.2 484.2 128.888C488.36 128.108 491.792 126.418 493.118 123.038V122.804ZM487.71 124.104C489.192 126.756 492.546 128.472 496.81 129.018C496.42 129.408 495.926 130.084 495.718 130.552C491.246 129.746 487.84 127.744 486.15 124.546L487.71 124.104ZM472.916 136.74H496.576V138.326H472.916V136.74ZM475.984 130.864H493.508V137.546H491.584V132.424H488.178V137.546H486.358V132.424H482.978V137.546H481.158V132.424H477.804V137.546H475.984V130.864ZM509.706 116.46C509.472 117.474 509.186 118.904 508.51 120.646C507.86 122.232 506.898 123.974 505.858 125.326C506.872 124.728 508.354 124.364 509.498 124.364C511.5 124.364 513.06 125.56 513.06 127.666C513.06 129.018 513.112 132.008 513.138 133.62H511.136C511.24 132.242 511.266 129.564 511.24 128.212C511.214 126.704 510.174 126.002 508.822 126.002C507.158 126.002 505.52 126.834 504.324 127.9C503.57 128.628 502.842 129.564 501.984 130.63L500.19 129.304C503.934 125.716 505.676 122.7 506.56 120.49C507.132 119.06 507.496 117.5 507.574 116.278L509.706 116.46ZM500.788 119.268C502.192 119.45 503.986 119.528 505.182 119.528C508.692 119.528 513.19 119.32 516.856 118.67V120.594C513.216 121.14 508.38 121.374 505.078 121.374C503.96 121.374 502.244 121.322 500.788 121.218V119.268ZM520.652 125.534C520.002 125.742 519.066 126.106 518.364 126.366C516.518 127.094 514.048 128.082 511.526 129.382C508.952 130.734 507.132 132.138 507.132 133.932C507.132 135.96 509.134 136.272 511.812 136.272C513.84 136.272 516.648 136.038 518.936 135.622L518.858 137.728C516.882 137.962 513.996 138.17 511.734 138.17C508.042 138.17 505.052 137.364 505.052 134.218C505.052 131.046 508.276 129.096 511.37 127.51C513.84 126.236 515.946 125.43 517.662 124.624C518.442 124.26 519.092 123.974 519.82 123.61L520.652 125.534ZM363.32 162.046H380.012V163.866H363.32V162.046ZM365.894 168.052V171.952H377.256V168.052H365.894ZM364.1 166.388H379.154V173.616H364.1V166.388ZM365.712 174.136C368.156 178.218 373.486 180.636 380.246 181.39C379.83 181.806 379.336 182.586 379.076 183.132C372.186 182.144 366.856 179.44 364.1 174.682L365.712 174.136ZM370.548 159.264H372.472V170.782C372.472 175.8 371.614 180.792 363.554 183.184C363.32 182.742 362.774 181.962 362.384 181.546C370.106 179.596 370.548 175.15 370.548 170.756V159.264ZM362.202 159.108L364.048 159.68C362.28 164.074 359.498 168.442 356.612 171.328C356.43 170.886 355.884 169.872 355.52 169.404C358.146 166.934 360.694 163.06 362.202 159.108ZM359.472 165.92L361.318 164.074L361.344 164.1V183.21H359.472V165.92ZM386.798 162.878C386.668 163.476 386.59 164.724 386.564 165.4C386.538 167.012 386.564 169.404 386.746 171.536C387.188 175.878 388.436 178.764 390.308 178.764C391.634 178.764 392.856 176.086 393.532 173.486L395.17 175.332C393.584 179.726 392.024 181.234 390.256 181.234C387.786 181.234 385.446 178.79 384.718 172.056C384.484 169.82 384.432 166.648 384.432 165.14C384.432 164.542 384.432 163.424 384.276 162.826L386.798 162.878ZM400.318 163.58C402.658 166.596 404.53 172.134 404.92 176.528L402.814 177.36C402.372 172.68 400.786 167.324 398.316 164.282L400.318 163.58ZM418.492 160.564C418.336 161.136 418.154 162.124 418.05 162.618C417.66 164.49 417.114 167.428 416.386 170.028C415.45 173.72 413.708 179.102 412.33 181.936L410.068 181.182C411.628 178.478 413.448 173.2 414.436 169.534C415.06 167.142 415.736 163.866 415.918 162.514C416.022 161.786 416.074 160.902 416.022 160.356L418.492 160.564ZM412.746 164.906C415.606 164.906 419.428 164.438 422.652 163.632V165.66C419.428 166.388 415.502 166.83 412.694 166.83C411.55 166.83 410.64 166.804 409.678 166.726L409.626 164.698C410.848 164.854 411.784 164.906 412.746 164.906ZM420.962 168.468C422.314 168.338 424.056 168.26 425.72 168.26C427.228 168.26 428.814 168.312 430.218 168.468L430.166 170.444C428.814 170.288 427.306 170.132 425.772 170.132C424.16 170.132 422.548 170.236 420.962 170.418V168.468ZM421.482 174.786C421.274 175.644 421.118 176.45 421.118 177.126C421.118 178.348 421.82 179.544 425.512 179.544C427.228 179.544 428.996 179.362 430.608 179.05L430.53 181.13C429.126 181.338 427.384 181.494 425.486 181.494C421.404 181.494 419.168 180.246 419.168 177.672C419.168 176.684 419.324 175.696 419.558 174.604L421.482 174.786ZM438.798 162.878C438.668 163.476 438.59 164.724 438.564 165.4C438.538 167.012 438.564 169.404 438.746 171.536C439.188 175.878 440.436 178.764 442.308 178.764C443.634 178.764 444.856 176.086 445.532 173.486L447.17 175.332C445.584 179.726 444.024 181.234 442.256 181.234C439.786 181.234 437.446 178.79 436.718 172.056C436.484 169.82 436.432 166.648 436.432 165.14C436.432 164.542 436.432 163.424 436.276 162.826L438.798 162.878ZM452.318 163.58C454.658 166.596 456.53 172.134 456.92 176.528L454.814 177.36C454.372 172.68 452.786 167.324 450.316 164.282L452.318 163.58Z" fill="#333333"/>
<circle cx="407" cy="407" r="125" fill="#F5F5F5"/>
<path d="M390 351.156L403.724 364.88L424.311 334" stroke="#00A0E8" stroke-width="4.88" stroke-linecap="round" stroke-linejoin="round"/>
<path d="M343.378 401.268H366.622V403.088H343.378V401.268ZM346.056 409.64H353.336V411.174H346.056V409.64ZM346.056 413.8H353.336V415.334H346.056V413.8ZM357.678 405.636H359.524V416.322H357.678V405.636ZM352.634 405.402H354.532V418.844C354.532 419.832 354.298 420.352 353.57 420.664C352.868 420.976 351.724 420.976 349.956 420.976C349.852 420.482 349.566 419.754 349.306 419.26C350.606 419.312 351.802 419.312 352.166 419.286C352.53 419.26 352.634 419.156 352.634 418.818V405.402ZM362.956 404.856H364.88V418.662C364.88 419.806 364.62 420.352 363.814 420.664C363.008 420.95 361.708 421.002 359.68 421.002C359.576 420.482 359.264 419.65 358.978 419.13C360.564 419.182 361.968 419.182 362.41 419.156C362.826 419.13 362.956 419.026 362.956 418.662V404.856ZM347.408 397.81L349.202 397.134C350.216 398.252 351.308 399.786 351.802 400.8L349.878 401.502C349.462 400.514 348.396 398.928 347.408 397.81ZM360.772 397.056L362.852 397.732C361.864 399.344 360.694 401.138 359.732 402.36L358.016 401.71C358.952 400.462 360.122 398.46 360.772 397.056ZM345.016 405.402H353.258V407.092H346.862V420.95H345.016V405.402ZM372.576 398.928H389.606V420.69H387.552V400.904H374.578V420.794H372.576V398.928ZM373.902 407.95H388.41V409.874H373.902V407.95ZM373.876 417.154H388.462V419.104H373.876V417.154ZM410.614 407.092L411.966 406C413.604 408.418 415.554 411.564 416.49 413.592L415.034 414.814C414.124 412.786 412.226 409.51 410.614 407.092ZM405.05 402.048H417.296V403.868H406.792V421.08H405.05V402.048ZM416.516 402.048H418.284V418.87C418.284 419.91 418.102 420.482 417.4 420.768C416.724 421.08 415.606 421.106 413.968 421.106C413.89 420.612 413.63 419.78 413.37 419.286C414.566 419.338 415.736 419.312 416.048 419.312C416.386 419.312 416.516 419.208 416.516 418.844V402.048ZM410.978 397.16H412.824C412.668 404.804 412.226 411.434 407.91 415.048C407.65 414.684 407.052 414.086 406.636 413.826C410.588 410.524 410.874 404.284 410.978 397.16ZM399.07 397.186L400.786 397.862C399.798 399.76 398.576 402.074 397.562 403.504L396.21 402.88C397.198 401.398 398.394 398.902 399.07 397.186ZM401.982 400.15L403.62 400.878C401.852 403.868 399.356 407.638 397.432 409.926L396.236 409.25C398.16 406.91 400.604 402.958 401.982 400.15ZM394.962 402.646L395.95 401.372C397.406 402.594 399.044 404.284 399.746 405.454L398.706 406.936C398.004 405.714 396.366 403.894 394.962 402.646ZM401.072 406.182L402.424 405.636C403.49 407.3 404.53 409.536 404.894 410.966L403.438 411.642C403.074 410.186 402.112 407.898 401.072 406.182ZM394.884 408.834C397.146 408.756 400.396 408.626 403.698 408.444L403.672 410.056C400.552 410.264 397.406 410.446 395.04 410.602L394.884 408.834ZM401.748 412.318L403.152 411.876C403.88 413.332 404.582 415.308 404.842 416.608L403.334 417.128C403.1 415.828 402.398 413.826 401.748 412.318ZM396.34 412.032L398.03 412.344C397.666 414.788 397.016 417.31 396.184 418.974C395.846 418.766 395.066 418.402 394.65 418.22C395.508 416.634 396.028 414.32 396.34 412.032ZM399.148 409.562H400.89V421.158H399.148V409.562ZM427.826 400.15V405.09H438.226V400.15H427.826ZM425.928 398.278H440.202V406.962H425.928V398.278ZM422.158 409.718H431.414V420.872H429.464V411.59H424.004V421.08H422.158V409.718ZM434.248 409.718H444.024V420.924H442.074V411.59H436.12V421.08H434.248V409.718ZM422.99 417.804H430.244V419.676H422.99V417.804ZM435.21 417.804H442.932V419.676H435.21V417.804ZM448.028 401.892C449.016 401.866 449.848 401.814 450.368 401.762C452.032 401.58 456.946 401.112 461.73 400.696C464.59 400.462 467.008 400.306 468.75 400.254L468.776 402.334C467.268 402.308 465.006 402.36 463.68 402.724C459.962 403.92 457.7 407.898 457.7 410.966C457.7 416.036 462.458 417.674 466.67 417.83L465.916 419.962C461.106 419.78 455.646 417.232 455.646 411.408C455.646 407.378 458.116 404.05 460.482 402.646C457.7 402.932 451.07 403.582 448.262 404.18L448.028 401.892ZM465.006 405.506C465.604 406.364 466.592 407.976 467.164 409.146L465.812 409.744C465.214 408.496 464.486 407.17 463.706 406.078L465.006 405.506ZM467.84 404.414C468.49 405.272 469.504 406.858 470.102 408.002L468.776 408.652C468.152 407.404 467.372 406.104 466.566 405.012L467.84 404.414ZM354.74 447.426H366.908V449.324H354.74V447.426ZM343.43 445.476H355.52V447.296H343.43V445.476ZM361.864 441.16H363.814V462.454C363.814 463.754 363.476 464.326 362.696 464.69C361.916 465.028 360.59 465.08 358.354 465.08C358.276 464.534 357.99 463.624 357.704 463.026C359.342 463.078 360.798 463.078 361.24 463.052C361.682 463.026 361.864 462.896 361.864 462.428V441.16ZM355.026 452.782L356.638 452.028C357.886 453.822 359.134 456.214 359.55 457.8L357.834 458.632C357.444 457.072 356.274 454.602 355.026 452.782ZM344.236 451.014L345.64 449.922C348.812 453.25 352.426 457.8 353.934 460.79L352.374 462.116C350.918 459.074 347.382 454.394 344.236 451.014ZM348.396 441.212H350.268V446.542H348.396V441.212ZM351.36 447.894L353.284 448.18C351.958 456.006 349.332 461.44 344.184 464.898C343.924 464.508 343.222 463.728 342.806 463.364C347.824 460.374 350.242 455.122 351.36 447.894ZM378.946 451.638H380.87V461.752C380.87 462.662 381.078 462.792 382.092 462.792C382.56 462.792 384.9 462.792 385.524 462.792C386.564 462.792 386.72 462.116 386.85 458.294C387.292 458.658 388.072 458.97 388.592 459.126C388.384 463.416 387.864 464.586 385.654 464.586C385.186 464.586 382.326 464.586 381.858 464.586C379.544 464.586 378.946 463.936 378.946 461.726V451.638ZM375.384 453.874L377.152 454.264C376.814 457.098 376.164 460.53 374.812 462.61L373.096 461.83C374.37 459.828 375.072 456.63 375.384 453.874ZM379.362 448.544L380.688 447.27C382.768 448.31 385.42 449.922 386.772 451.118L385.368 452.574C384.094 451.378 381.468 449.662 379.362 448.544ZM387.63 454.004L389.372 453.302C391.114 455.98 392.752 459.49 393.22 461.83L391.322 462.61C390.906 460.296 389.346 456.708 387.63 454.004ZM380.74 441.186H382.742V445.606H380.74V441.186ZM372.056 444.54H392.726V446.412H372.056V444.54ZM371.12 444.54H373.07V451.274C373.07 455.278 372.706 461.154 370.47 465.106C370.132 464.768 369.274 464.222 368.806 464.014C370.938 460.27 371.12 455.018 371.12 451.274V444.54ZM402.84 442.746C402.71 443.604 402.632 444.514 402.58 445.372C402.476 448.31 402.268 454.472 402.268 458.346C402.268 461.206 404.062 462.194 406.532 462.194C411.29 462.194 413.994 459.542 415.866 456.838L417.322 458.606C415.554 461.076 412.174 464.326 406.48 464.326C402.736 464.326 400.162 462.792 400.162 458.528C400.162 454.68 400.422 448.102 400.422 445.372C400.422 444.41 400.344 443.5 400.188 442.746H402.84ZM431.492 442.564C431.336 443.136 431.154 444.124 431.05 444.618C430.66 446.49 430.114 449.428 429.386 452.028C428.45 455.72 426.708 461.102 425.33 463.936L423.068 463.182C424.628 460.478 426.448 455.2 427.436 451.534C428.06 449.142 428.736 445.866 428.918 444.514C429.022 443.786 429.074 442.902 429.022 442.356L431.492 442.564ZM425.746 446.906C428.606 446.906 432.428 446.438 435.652 445.632V447.66C432.428 448.388 428.502 448.83 425.694 448.83C424.55 448.83 423.64 448.804 422.678 448.726L422.626 446.698C423.848 446.854 424.784 446.906 425.746 446.906ZM433.962 450.468C435.314 450.338 437.056 450.26 438.72 450.26C440.228 450.26 441.814 450.312 443.218 450.468L443.166 452.444C441.814 452.288 440.306 452.132 438.772 452.132C437.16 452.132 435.548 452.236 433.962 452.418V450.468ZM434.482 456.786C434.274 457.644 434.118 458.45 434.118 459.126C434.118 460.348 434.82 461.544 438.512 461.544C440.228 461.544 441.996 461.362 443.608 461.05L443.53 463.13C442.126 463.338 440.384 463.494 438.486 463.494C434.404 463.494 432.168 462.246 432.168 459.672C432.168 458.684 432.324 457.696 432.558 456.604L434.482 456.786ZM451.798 444.878C451.668 445.476 451.59 446.724 451.564 447.4C451.538 449.012 451.564 451.404 451.746 453.536C452.188 457.878 453.436 460.764 455.308 460.764C456.634 460.764 457.856 458.086 458.532 455.486L460.17 457.332C458.584 461.726 457.024 463.234 455.256 463.234C452.786 463.234 450.446 460.79 449.718 454.056C449.484 451.82 449.432 448.648 449.432 447.14C449.432 446.542 449.432 445.424 449.276 444.826L451.798 444.878ZM465.318 445.58C467.658 448.596 469.53 454.134 469.92 458.528L467.814 459.36C467.372 454.68 465.786 449.324 463.316 446.282L465.318 445.58Z" fill="#333333"/>
<circle cx="125" cy="407" r="125" fill="#F5F5F5"/>
<path d="M108 351.156L121.724 364.88L142.311 334" stroke="#00A0E8" stroke-width="4.88" stroke-linecap="round" stroke-linejoin="round"/>
<path d="M104.72 398.694L106.072 397.654C107.58 398.772 109.322 400.41 110.154 401.58L108.698 402.724C107.97 401.554 106.228 399.838 104.72 398.694ZM87.196 404.284H110.804V406.052H87.196V404.284ZM88.366 399.786H99.728V401.502H88.366V399.786ZM87.716 408.756H100.326V410.42H87.716V408.756ZM93.15 397.186H94.996V405.272H93.15V397.186ZM93.15 406.39H94.996V409.744H93.15V406.39ZM93.54 412.812L94.762 411.746C96.582 413.15 98.922 415.152 100.04 416.452L98.766 417.7C97.674 416.374 95.386 414.294 93.54 412.812ZM98.662 410.94L100.144 411.85C99.234 412.864 98.116 413.904 97.232 414.606L95.984 413.8C96.842 413.046 98.012 411.798 98.662 410.94ZM93.228 409.406L94.918 409.978C93.332 412.422 90.68 414.684 88.262 416.14C88.002 415.776 87.378 415.048 86.988 414.71C89.354 413.488 91.824 411.538 93.228 409.406ZM88.756 418.87C90.576 418.298 93.306 417.388 95.958 416.452L96.244 418.012C93.93 418.87 91.46 419.78 89.51 420.456L88.756 418.87ZM90.446 413.332L92.214 412.292V418.87H90.446V413.332ZM101.054 397.212H103.03C102.926 409.588 105.032 419.182 108.308 419.182C109.036 419.182 109.322 417.986 109.478 414.866C109.894 415.282 110.596 415.698 111.064 415.88C110.752 419.91 110.05 421.08 108.152 421.08C102.978 421.08 101.158 410.056 101.054 397.212ZM107.658 407.404L109.452 408.028C107.242 413.488 103.446 418.194 98.688 421.054C98.35 420.56 97.778 419.91 97.258 419.52C101.886 416.998 105.63 412.474 107.658 407.404ZM116.524 404.986H125.572V406.702H116.524V404.986ZM115.172 416.452H125.338V418.168H115.172V416.452ZM114.106 398.122H115.848V420.144H114.106V398.122ZM120.242 397.368H121.932V415.854H120.242V397.368ZM120.32 405.896L121.464 406.364C120.502 409.25 118.708 412.682 116.888 414.424C116.706 413.956 116.316 413.254 116.056 412.812C117.694 411.33 119.462 408.418 120.32 405.896ZM124.012 398.928L125.598 399.37C124.948 400.93 124.194 402.802 123.57 403.998L122.4 403.556C122.972 402.308 123.674 400.28 124.012 398.928ZM116.836 399.37L118.136 398.954C118.734 400.384 119.228 402.256 119.332 403.478L117.98 403.946C117.876 402.698 117.408 400.826 116.836 399.37ZM121.802 407.612C122.478 408.132 124.896 410.368 125.468 410.94L124.376 412.318C123.726 411.382 121.698 409.146 120.866 408.34L121.802 407.612ZM127.6 405.922H137.168V407.742H127.6V405.922ZM132.384 406.858H134.256V421.106H132.384V406.858ZM126.664 399.396L129.056 400.124C129.03 400.306 128.874 400.436 128.536 400.488V408.522C128.536 412.396 128.068 417.674 124.636 421.314C124.402 420.872 123.726 420.222 123.232 419.988C126.352 416.66 126.664 412.162 126.664 408.496V399.396ZM135.192 397.576L136.752 399.032C134.36 400.098 130.746 400.982 127.678 401.554C127.574 401.112 127.288 400.462 127.054 400.046C129.966 399.448 133.32 398.538 135.192 397.576ZM149.96 398.46C149.726 399.474 149.44 400.904 148.764 402.646C148.114 404.232 147.152 405.974 146.112 407.326C147.126 406.728 148.608 406.364 149.752 406.364C151.754 406.364 153.314 407.56 153.314 409.666C153.314 411.018 153.366 414.008 153.392 415.62H151.39C151.494 414.242 151.52 411.564 151.494 410.212C151.468 408.704 150.428 408.002 149.076 408.002C147.412 408.002 145.774 408.834 144.578 409.9C143.824 410.628 143.096 411.564 142.238 412.63L140.444 411.304C144.188 407.716 145.93 404.7 146.814 402.49C147.386 401.06 147.75 399.5 147.828 398.278L149.96 398.46ZM141.042 401.268C142.446 401.45 144.24 401.528 145.436 401.528C148.946 401.528 153.444 401.32 157.11 400.67V402.594C153.47 403.14 148.634 403.374 145.332 403.374C144.214 403.374 142.498 403.322 141.042 403.218V401.268ZM160.906 407.534C160.256 407.742 159.32 408.106 158.618 408.366C156.772 409.094 154.302 410.082 151.78 411.382C149.206 412.734 147.386 414.138 147.386 415.932C147.386 417.96 149.388 418.272 152.066 418.272C154.094 418.272 156.902 418.038 159.19 417.622L159.112 419.728C157.136 419.962 154.25 420.17 151.988 420.17C148.296 420.17 145.306 419.364 145.306 416.218C145.306 413.046 148.53 411.096 151.624 409.51C154.094 408.236 156.2 407.43 157.916 406.624C158.696 406.26 159.346 405.974 160.074 405.61L160.906 407.534ZM39.538 450.494H54.644V452.314H39.538V450.494ZM39.538 456.136H54.644V457.956H39.538V456.136ZM39.538 461.83H54.644V463.65H39.538V461.83ZM38.212 444.722H56.152V464.976H54.124V446.594H40.188V465.106H38.212V444.722ZM45.83 441.134L48.092 441.42C47.52 442.98 46.844 444.67 46.272 445.788L44.53 445.45C44.998 444.228 45.57 442.408 45.83 441.134ZM70.53 462.428H85.22V464.352H70.53V462.428ZM71.544 449.688H84.674V451.56H71.544V449.688ZM77.134 441.368H79.11V463.364H77.134V441.368ZM61.43 446.048H70.062V447.842H61.43V446.048ZM65.538 453.848L67.462 451.534V465.106H65.538V453.848ZM65.538 441.186H67.462V446.932H65.538V441.186ZM67.306 452.054C68.19 452.678 71.206 455.33 71.96 455.98L70.764 457.566C69.802 456.448 67.254 453.978 66.188 453.042L67.306 452.054ZM69.334 446.048H69.724L70.088 445.97L71.206 446.698C69.23 451.482 65.252 455.798 61.534 458.19C61.326 457.696 60.858 456.786 60.52 456.448C64.056 454.368 67.774 450.416 69.334 446.464V446.048ZM88.028 445.892C89.016 445.866 89.848 445.814 90.368 445.762C92.032 445.58 96.946 445.112 101.73 444.696C104.59 444.462 107.008 444.306 108.75 444.254L108.776 446.334C107.268 446.308 105.006 446.36 103.68 446.724C99.962 447.92 97.7 451.898 97.7 454.966C97.7 460.036 102.458 461.674 106.67 461.83L105.916 463.962C101.106 463.78 95.646 461.232 95.646 455.408C95.646 451.378 98.116 448.05 100.482 446.646C97.7 446.932 91.07 447.582 88.262 448.18L88.028 445.892ZM105.006 449.506C105.604 450.364 106.592 451.976 107.164 453.146L105.812 453.744C105.214 452.496 104.486 451.17 103.706 450.078L105.006 449.506ZM107.84 448.414C108.49 449.272 109.504 450.858 110.102 452.002L108.776 452.652C108.152 451.404 107.372 450.104 106.566 449.012L107.84 448.414ZM123.31 442.746H136.076V444.618H123.31V442.746ZM130.902 450.494H132.878V462.584C132.878 463.806 132.592 464.404 131.708 464.716C130.824 465.002 129.342 465.028 126.794 465.028C126.716 464.482 126.456 463.676 126.17 463.104C128.016 463.156 129.758 463.156 130.226 463.13C130.746 463.104 130.902 463 130.902 462.558V450.494ZM122.166 449.922H136.83V451.768H122.166V449.922ZM116.966 451.924L118.682 450.234L118.916 450.338V465.158H116.966V451.924ZM119.982 446.724L121.828 447.426C119.8 450.728 116.732 454.082 114.002 456.266C113.716 455.876 113.04 455.018 112.624 454.654C115.328 452.73 118.188 449.714 119.982 446.724ZM118.916 441.16L120.788 441.914C119.046 444.202 116.368 446.724 114.054 448.388C113.768 447.972 113.248 447.218 112.91 446.828C115.068 445.372 117.59 443.032 118.916 441.16ZM143.798 444.878C143.668 445.476 143.59 446.724 143.564 447.4C143.538 449.012 143.564 451.404 143.746 453.536C144.188 457.878 145.436 460.764 147.308 460.764C148.634 460.764 149.856 458.086 150.532 455.486L152.17 457.332C150.584 461.726 149.024 463.234 147.256 463.234C144.786 463.234 142.446 460.79 141.718 454.056C141.484 451.82 141.432 448.648 141.432 447.14C141.432 446.542 141.432 445.424 141.276 444.826L143.798 444.878ZM157.318 445.58C159.658 448.596 161.53 454.134 161.92 458.528L159.814 459.36C159.372 454.68 157.786 449.324 155.316 446.282L157.318 445.58ZM175.492 442.564C175.336 443.136 175.154 444.124 175.05 444.618C174.66 446.49 174.114 449.428 173.386 452.028C172.45 455.72 170.708 461.102 169.33 463.936L167.068 463.182C168.628 460.478 170.448 455.2 171.436 451.534C172.06 449.142 172.736 445.866 172.918 444.514C173.022 443.786 173.074 442.902 173.022 442.356L175.492 442.564ZM169.746 446.906C172.606 446.906 176.428 446.438 179.652 445.632V447.66C176.428 448.388 172.502 448.83 169.694 448.83C168.55 448.83 167.64 448.804 166.678 448.726L166.626 446.698C167.848 446.854 168.784 446.906 169.746 446.906ZM177.962 450.468C179.314 450.338 181.056 450.26 182.72 450.26C184.228 450.26 185.814 450.312 187.218 450.468L187.166 452.444C185.814 452.288 184.306 452.132 182.772 452.132C181.16 452.132 179.548 452.236 177.962 452.418V450.468ZM178.482 456.786C178.274 457.644 178.118 458.45 178.118 459.126C178.118 460.348 178.82 461.544 182.512 461.544C184.228 461.544 185.996 461.362 187.608 461.05L187.53 463.13C186.126 463.338 184.384 463.494 182.486 463.494C178.404 463.494 176.168 462.246 176.168 459.672C176.168 458.684 176.324 457.696 176.558 456.604L178.482 456.786ZM195.798 444.878C195.668 445.476 195.59 446.724 195.564 447.4C195.538 449.012 195.564 451.404 195.746 453.536C196.188 457.878 197.436 460.764 199.308 460.764C200.634 460.764 201.856 458.086 202.532 455.486L204.17 457.332C202.584 461.726 201.024 463.234 199.256 463.234C196.786 463.234 194.446 460.79 193.718 454.056C193.484 451.82 193.432 448.648 193.432 447.14C193.432 446.542 193.432 445.424 193.276 444.826L195.798 444.878ZM209.318 445.58C211.658 448.596 213.53 454.134 213.92 458.528L211.814 459.36C211.372 454.68 209.786 449.324 207.316 446.282L209.318 445.58Z" fill="#333333"/>
</svg>
