<svg width="901" height="220" viewBox="0 0 901 220" fill="none" xmlns="http://www.w3.org/2000/svg">
<circle cx="110" cy="110" r="110" fill="#F5F5F5"/>
<path d="M93 69.1556L106.724 82.88L127.311 52" stroke="#00A0E8" stroke-width="4.88" stroke-linecap="round" stroke-linejoin="round"/>
<path d="M35.1919 128.258H41.5279V129.534H34.2899L35.1919 128.258ZM41.0219 128.258H41.3739L41.7039 128.192L42.6719 128.764C40.7139 132.856 36.3139 134.858 31.4739 135.804C31.3199 135.408 30.9019 134.704 30.6159 134.374C35.2799 133.626 39.4159 131.91 41.0219 128.522V128.258ZM35.0379 129.138C36.6659 131.866 40.2079 133.692 44.4759 134.33C44.1019 134.682 43.6619 135.342 43.4419 135.782C39.0639 134.924 35.5219 132.834 33.6519 129.578L35.0379 129.138ZM34.7079 124.232V125.728H41.1319V124.232H34.7079ZM34.7079 121.702V123.154H41.1319V121.702H34.7079ZM33.1899 120.558H42.6939V126.85H33.1899V120.558ZM33.8279 117.742H44.0359V119.15H33.8279V117.742ZM34.3339 115.52L35.9179 115.784C35.0819 117.83 33.9159 120.162 32.1119 122.054C31.8259 121.724 31.2979 121.284 30.9239 121.108C32.5959 119.436 33.7399 117.236 34.3339 115.52ZM36.0279 126.366L37.6559 126.674C36.4019 128.61 34.5099 130.568 31.8259 132.108C31.5839 131.756 31.0779 131.272 30.7259 131.03C33.2559 129.71 35.0599 127.906 36.0279 126.366ZM27.0079 126.322L28.5039 124.518V135.782H27.0079V126.322ZM24.2139 119.722H30.1979V121.174H24.2139V119.722ZM26.9419 115.652H28.4379V120.514H26.9419V115.652ZM28.3059 124.628C28.8779 125.244 30.9679 127.818 31.4299 128.456L30.4619 129.578C29.8899 128.544 28.1519 126.168 27.4699 125.332L28.3059 124.628ZM29.6259 119.722H29.9339L30.2199 119.634L31.0779 120.184C29.7579 124.21 27.0739 128.104 24.5439 130.304C24.3679 129.908 23.9499 129.182 23.6859 128.896C26.0619 126.982 28.5479 123.418 29.6259 120.052V119.722ZM30.8799 123.726L31.8479 124.43C31.2539 125.376 30.5499 126.432 29.9779 127.114L29.2079 126.52C29.7359 125.772 30.4839 124.54 30.8799 123.726ZM45.9059 127.268H56.7079V128.654H45.9059V127.268ZM46.0379 119.59H56.6419V120.932H46.0379V119.59ZM49.9979 125.376L51.5379 125.706C50.5479 127.862 49.1619 130.546 48.1499 132.284L46.6979 131.778C47.6879 130.106 49.0739 127.4 49.9979 125.376ZM53.2979 128.082L54.8379 128.28C54.0899 132.57 51.7799 134.682 46.6979 135.76C46.5879 135.32 46.2579 134.726 45.9499 134.396C50.5479 133.626 52.6159 131.822 53.2979 128.082ZM54.6839 115.96L56.0919 116.576C55.4539 117.588 54.7279 118.688 54.1119 119.436L53.0119 118.886C53.5619 118.094 54.2879 116.818 54.6839 115.96ZM50.5919 115.52H52.1099V125.64H50.5919V115.52ZM46.8519 116.576L48.1059 116.048C48.7219 116.928 49.3159 118.094 49.5359 118.886L48.2379 119.48C48.0399 118.688 47.4679 117.478 46.8519 116.576ZM50.6139 120.184L51.7359 120.844C50.6579 122.692 48.5899 124.65 46.6979 125.684C46.4999 125.31 46.1039 124.76 45.7959 124.43C47.6219 123.638 49.6459 121.878 50.6139 120.184ZM51.9339 120.954C52.7259 121.372 55.4099 123.066 56.0479 123.528L55.1459 124.738C54.3539 123.99 52.0659 122.274 51.1419 121.658L51.9339 120.954ZM58.3139 119.59H66.1459V121.13H58.3139V119.59ZM58.8639 115.52L60.5359 115.762C59.8099 120.074 58.5119 124.012 56.5759 126.586C56.3119 126.278 55.6299 125.728 55.2339 125.464C57.1039 123.132 58.2479 119.414 58.8639 115.52ZM63.1979 120.47L64.8699 120.646C63.8139 128.236 61.4819 132.966 55.9379 135.826C55.7619 135.43 55.2779 134.704 54.9479 134.352C60.1839 131.888 62.2959 127.444 63.1979 120.47ZM59.1939 120.954C60.1619 127.004 62.2739 132.196 66.3659 134.352C65.9699 134.682 65.4419 135.32 65.1999 135.76C60.8879 133.23 58.7979 127.862 57.6979 121.196L59.1939 120.954ZM48.0179 131.47L48.8979 130.348C51.5379 131.36 54.2659 132.812 55.8499 134.022L54.7059 135.21C53.1879 133.978 50.5699 132.504 48.0179 131.47ZM79.4339 118.996C79.1479 121.284 78.7079 123.858 78.0259 126.212C76.6839 130.722 74.9239 133.054 72.8999 133.054C70.9199 133.054 68.9619 130.81 68.9619 127.158C68.9619 122.384 73.2079 118.226 78.5979 118.226C83.7459 118.226 87.0239 121.856 87.0239 126.322C87.0239 130.92 83.9879 134 78.7519 134.682L77.7399 133.054C78.4439 132.988 79.1039 132.9 79.6319 132.79C82.4479 132.152 85.2199 130.04 85.2199 126.234C85.2199 122.714 82.7779 119.81 78.5539 119.81C73.7139 119.81 70.6999 123.792 70.6999 127.026C70.6999 129.798 71.9539 131.03 72.9439 131.03C73.9779 131.03 75.1659 129.534 76.2879 125.816C76.9259 123.726 77.3879 121.24 77.6079 118.952L79.4339 118.996ZM106.252 118.666C106.252 119.48 106.912 120.118 107.704 120.118C108.496 120.118 109.156 119.48 109.156 118.666C109.156 117.874 108.496 117.214 107.704 117.214C106.912 117.214 106.252 117.874 106.252 118.666ZM105.24 118.666C105.24 117.302 106.34 116.202 107.704 116.202C109.068 116.202 110.168 117.302 110.168 118.666C110.168 120.03 109.068 121.13 107.704 121.13C106.34 121.13 105.24 120.03 105.24 118.666ZM93.8219 127.4C94.7899 125.112 95.6919 121.768 95.9999 119.238L97.9579 119.634C97.8039 120.118 97.6499 120.778 97.5399 121.24C97.2539 122.604 96.4839 125.86 95.5599 128.126C94.7459 130.128 93.5359 132.394 92.3039 134.176L90.4339 133.384C91.8199 131.536 93.0739 129.226 93.8219 127.4ZM104.668 126.564C103.788 124.298 102.424 121.24 101.478 119.59L103.26 118.996C104.118 120.602 105.526 123.638 106.472 125.948C107.352 128.126 108.518 131.492 109.112 133.494L107.154 134.11C106.604 131.888 105.57 128.896 104.668 126.564ZM120.178 123.924C122.994 125.574 126.602 128.104 128.78 129.864L127.482 131.404C125.458 129.556 121.696 126.85 118.968 125.156L120.178 123.924ZM130.232 119.92C130.056 120.228 129.836 120.734 129.726 121.086C129.066 123.33 127.68 126.256 125.744 128.632C123.742 131.096 120.882 133.45 116.702 134.99L115.14 133.604C119.232 132.372 122.224 130.04 124.204 127.686C125.898 125.662 127.284 122.868 127.79 120.822H119.65L120.354 119.238H127.35C127.944 119.238 128.428 119.172 128.78 119.04L130.232 119.92ZM122.818 116.73C122.444 117.302 122.048 118.05 121.828 118.468C120.53 120.888 118.044 124.21 114.524 126.63L113.072 125.508C116.834 123.154 119.1 119.854 120.112 117.83C120.332 117.456 120.684 116.664 120.816 116.092L122.818 116.73ZM135.27 124.474C135.952 124.54 137.096 124.606 138.35 124.606C139.956 124.606 148.778 124.606 150.406 124.606C151.506 124.606 152.276 124.518 152.782 124.474V126.63C152.32 126.608 151.396 126.542 150.428 126.542C148.756 126.542 139.978 126.542 138.35 126.542C137.14 126.542 135.974 126.586 135.27 126.63V124.474ZM158.946 117.896C160.486 118.93 163.324 121.218 164.534 122.428L163.17 123.836C162.048 122.692 159.32 120.316 157.67 119.238L158.946 117.896ZM157.054 132.636C160.882 132.064 163.742 130.722 165.832 129.424C169.242 127.29 171.904 124.034 173.18 121.306L174.236 123.198C172.74 125.926 170.188 128.918 166.866 131.008C164.644 132.394 161.872 133.758 158.198 134.44L157.054 132.636ZM185.28 116.928C185.192 117.324 185.104 117.808 185.016 118.226C184.862 119.018 184.576 120.822 184.268 122.186C183.52 125.288 181.958 130.766 179.472 134.77L177.668 134.066C180.176 130.7 181.936 124.826 182.53 122.142C182.948 120.382 183.234 118.402 183.234 116.708L185.28 116.928ZM192.848 119.458C194.212 121.24 196.126 125.244 196.874 127.268L195.158 128.082C194.52 125.838 192.782 122.01 191.242 120.184L192.848 119.458ZM177.36 121.746C178.042 121.79 178.614 121.768 179.318 121.746C180.968 121.702 185.434 121.218 186.93 121.218C188.888 121.218 190.494 121.966 190.494 124.936C190.494 127.554 190.142 131.052 189.218 132.878C188.536 134.352 187.436 134.726 186.006 134.726C185.17 134.726 184.114 134.572 183.432 134.396L183.124 132.57C184.048 132.856 185.214 133.01 185.83 133.01C186.644 133.01 187.304 132.834 187.744 131.888C188.448 130.392 188.8 127.532 188.8 125.156C188.8 123.132 187.876 122.758 186.468 122.758C184.994 122.758 180.858 123.264 179.516 123.396C179.01 123.462 178.108 123.572 177.536 123.66L177.36 121.746ZM193.09 116.268C193.64 117.06 194.432 118.402 194.894 119.304L193.706 119.832C193.266 118.93 192.518 117.61 191.902 116.774L193.09 116.268ZM195.51 115.388C196.104 116.202 196.94 117.588 197.38 118.402L196.17 118.93C195.708 117.962 194.982 116.708 194.344 115.894L195.51 115.388ZM51.254 153.866H52.97V165.702C52.97 166.736 53.234 166.934 54.466 166.934C55.082 166.934 57.942 166.934 58.734 166.934C60.01 166.934 60.208 166.208 60.384 162.71C60.802 163.018 61.506 163.326 61.99 163.436C61.726 167.396 61.22 168.584 58.822 168.584C58.25 168.584 54.884 168.584 54.334 168.584C51.936 168.584 51.254 167.968 51.254 165.658V153.866ZM51.298 149.752L52.376 148.586C54.268 149.818 56.666 151.622 57.942 152.656L56.842 153.998C55.566 152.876 53.146 151.028 51.298 149.752ZM47.734 155.186L49.274 155.582C48.79 158.024 47.976 161.192 46.744 163.128L45.182 162.49C46.436 160.576 47.294 157.584 47.734 155.186ZM60.736 156.616L62.21 155.934C63.75 158.134 65.224 161.016 65.84 162.952L64.256 163.744C63.706 161.786 62.21 158.816 60.736 156.616ZM61.902 149.84L63.53 150.522C59.922 157.386 54.114 163.722 46.282 167.462C46.04 167.088 45.556 166.494 45.204 166.164C52.794 162.71 58.712 156.352 61.902 149.84ZM67.49 160.554H87.51V161.94H67.49V160.554ZM68.018 149.488H86.96V150.94H68.018V149.488ZM75.124 158.244L76.73 158.684C75.3 160.972 73.276 163.854 71.868 165.658L70.306 165.13C71.714 163.348 73.76 160.4 75.124 158.244ZM81.724 161.038L83.308 161.5C81.372 166.34 76.686 168.144 68.436 168.76C68.326 168.276 68.062 167.682 67.798 167.308C75.652 166.89 79.964 165.328 81.724 161.038ZM71.494 164.91L72.33 163.7C77.764 164.668 83.418 166.142 86.828 167.484L85.838 168.826C82.472 167.44 77.082 165.944 71.494 164.91ZM74.024 150.038H75.586V157.716H74.024V150.038ZM79.15 150.038H80.712V157.716H79.15V150.038ZM70.658 154.174V157.166H84.386V154.174H70.658ZM69.118 152.832H86.036V158.53H69.118V152.832ZM98.51 152.15C100.908 152.568 105.374 152.48 107.552 152.15V153.932C105.198 154.196 100.93 154.196 98.532 153.932L98.51 152.15ZM99.368 161.126C99.17 161.918 99.06 162.534 99.06 163.128C99.06 164.14 99.764 165.13 102.778 165.13C104.736 165.13 106.452 164.954 108.212 164.536L108.256 166.384C106.892 166.67 105.044 166.846 102.756 166.846C99.082 166.846 97.432 165.614 97.432 163.546C97.432 162.82 97.542 162.028 97.784 160.972L99.368 161.126ZM94.33 150.456C94.198 150.83 94.022 151.534 93.934 151.93C93.516 153.976 92.834 157.892 92.834 160.378C92.834 161.434 92.9 162.358 93.032 163.436C93.406 162.446 93.912 161.126 94.286 160.224L95.21 160.95C94.66 162.512 93.846 164.822 93.648 165.878C93.582 166.186 93.538 166.604 93.538 166.868C93.56 167.088 93.582 167.396 93.604 167.638L92.042 167.748C91.602 166.186 91.228 163.656 91.228 160.664C91.228 157.43 91.954 153.668 92.218 151.842C92.284 151.336 92.35 150.786 92.372 150.302L94.33 150.456ZM112.612 153.14C113.426 153.228 114.372 153.272 115.318 153.272C117.694 153.272 120.466 152.986 122.996 152.15L123.04 153.778C120.884 154.372 118.002 154.856 115.318 154.834C114.504 154.834 113.558 154.812 112.744 154.79L112.612 153.14ZM120.422 149.554C120.136 150.632 119.674 152.7 119.146 154.262C118.09 157.43 116.066 161.434 114.24 163.898L112.546 163.018C114.504 160.73 116.55 156.814 117.452 154.218C117.936 152.832 118.42 150.896 118.486 149.356L120.422 149.554ZM125.614 156.352C125.548 157.254 125.548 157.914 125.57 158.706C125.614 160.136 125.812 163.48 125.812 164.932C125.812 166.692 124.69 168.122 121.962 168.122C119.542 168.122 117.584 167.154 117.584 164.954C117.584 162.93 119.498 161.654 121.962 161.654C125.658 161.654 128.496 163.502 130.3 165.064L129.376 166.56C127.682 165.02 125.152 163.062 121.918 163.062C120.29 163.062 119.19 163.81 119.19 164.822C119.19 165.834 120.048 166.538 121.764 166.538C123.59 166.538 124.206 165.57 124.206 164.382C124.206 162.71 123.964 158.772 123.876 156.352H125.614ZM130.014 156.924C128.826 155.912 126.428 154.57 124.976 153.888L125.856 152.568C127.462 153.25 129.948 154.68 131.004 155.472L130.014 156.924ZM136.02 158.222C136.658 158.112 137.384 157.914 138.066 157.694C139.628 157.21 143.258 155.89 145.832 155.89C148.956 155.89 151.222 157.76 151.222 160.752C151.222 164.998 147.13 167.154 141.212 167.506L140.486 165.812C145.26 165.68 149.44 164.316 149.44 160.73C149.44 158.86 147.966 157.474 145.7 157.474C142.994 157.474 138.176 159.476 136.768 160.048L136.02 158.222ZM164.224 149.708C164.092 150.192 163.938 151.028 163.85 151.446C163.52 153.03 163.058 155.516 162.442 157.716C161.65 160.84 160.176 165.394 159.01 167.792L157.096 167.154C158.416 164.866 159.956 160.4 160.792 157.298C161.32 155.274 161.892 152.502 162.046 151.358C162.134 150.742 162.178 149.994 162.134 149.532L164.224 149.708ZM159.362 153.382C161.782 153.382 165.016 152.986 167.744 152.304V154.02C165.016 154.636 161.694 155.01 159.318 155.01C158.35 155.01 157.58 154.988 156.766 154.922L156.722 153.206C157.756 153.338 158.548 153.382 159.362 153.382ZM166.314 156.396C167.458 156.286 168.932 156.22 170.34 156.22C171.616 156.22 172.958 156.264 174.146 156.396L174.102 158.068C172.958 157.936 171.682 157.804 170.384 157.804C169.02 157.804 167.656 157.892 166.314 158.046V156.396ZM166.754 161.742C166.578 162.468 166.446 163.15 166.446 163.722C166.446 164.756 167.04 165.768 170.164 165.768C171.616 165.768 173.112 165.614 174.476 165.35L174.41 167.11C173.222 167.286 171.748 167.418 170.142 167.418C166.688 167.418 164.796 166.362 164.796 164.184C164.796 163.348 164.928 162.512 165.126 161.588L166.754 161.742Z" fill="#333333"/>
<circle cx="791" cy="110" r="110" fill="#F5F5F5"/>
<path d="M774 69.1556L787.724 82.88L808.311 52" stroke="#00A0E8" stroke-width="4.88" stroke-linecap="round" stroke-linejoin="round"/>
<path d="M737.166 118.996H756.834V120.536H737.166V118.996ZM739.432 126.08H745.592V127.378H739.432V126.08ZM739.432 129.6H745.592V130.898H739.432V129.6ZM749.266 122.692H750.828V131.734H749.266V122.692ZM744.998 122.494H746.604V133.868C746.604 134.704 746.406 135.144 745.79 135.408C745.196 135.672 744.228 135.672 742.732 135.672C742.644 135.254 742.402 134.638 742.182 134.22C743.282 134.264 744.294 134.264 744.602 134.242C744.91 134.22 744.998 134.132 744.998 133.846V122.494ZM753.732 122.032H755.36V133.714C755.36 134.682 755.14 135.144 754.458 135.408C753.776 135.65 752.676 135.694 750.96 135.694C750.872 135.254 750.608 134.55 750.366 134.11C751.708 134.154 752.896 134.154 753.27 134.132C753.622 134.11 753.732 134.022 753.732 133.714V122.032ZM740.576 116.07L742.094 115.498C742.952 116.444 743.876 117.742 744.294 118.6L742.666 119.194C742.314 118.358 741.412 117.016 740.576 116.07ZM751.884 115.432L753.644 116.004C752.808 117.368 751.818 118.886 751.004 119.92L749.552 119.37C750.344 118.314 751.334 116.62 751.884 115.432ZM738.552 122.494H745.526V123.924H740.114V135.65H738.552V122.494ZM761.872 117.016H776.282V135.43H774.544V118.688H763.566V135.518H761.872V117.016ZM762.994 124.65H775.27V126.278H762.994V124.65ZM762.972 132.438H775.314V134.088H762.972V132.438ZM794.058 123.924L795.202 123C796.588 125.046 798.238 127.708 799.03 129.424L797.798 130.458C797.028 128.742 795.422 125.97 794.058 123.924ZM789.35 119.656H799.712V121.196H790.824V135.76H789.35V119.656ZM799.052 119.656H800.548V133.89C800.548 134.77 800.394 135.254 799.8 135.496C799.228 135.76 798.282 135.782 796.896 135.782C796.83 135.364 796.61 134.66 796.39 134.242C797.402 134.286 798.392 134.264 798.656 134.264C798.942 134.264 799.052 134.176 799.052 133.868V119.656ZM794.366 115.52H795.928C795.796 121.988 795.422 127.598 791.77 130.656C791.55 130.348 791.044 129.842 790.692 129.622C794.036 126.828 794.278 121.548 794.366 115.52ZM784.29 115.542L785.742 116.114C784.906 117.72 783.872 119.678 783.014 120.888L781.87 120.36C782.706 119.106 783.718 116.994 784.29 115.542ZM786.754 118.05L788.14 118.666C786.644 121.196 784.532 124.386 782.904 126.322L781.892 125.75C783.52 123.77 785.588 120.426 786.754 118.05ZM780.814 120.162L781.65 119.084C782.882 120.118 784.268 121.548 784.862 122.538L783.982 123.792C783.388 122.758 782.002 121.218 780.814 120.162ZM785.984 123.154L787.128 122.692C788.03 124.1 788.91 125.992 789.218 127.202L787.986 127.774C787.678 126.542 786.864 124.606 785.984 123.154ZM780.748 125.398C782.662 125.332 785.412 125.222 788.206 125.068L788.184 126.432C785.544 126.608 782.882 126.762 780.88 126.894L780.748 125.398ZM786.556 128.346L787.744 127.972C788.36 129.204 788.954 130.876 789.174 131.976L787.898 132.416C787.7 131.316 787.106 129.622 786.556 128.346ZM781.98 128.104L783.41 128.368C783.102 130.436 782.552 132.57 781.848 133.978C781.562 133.802 780.902 133.494 780.55 133.34C781.276 131.998 781.716 130.04 781.98 128.104ZM784.356 126.014H785.83V135.826H784.356V126.014ZM808.622 118.05V122.23H817.422V118.05H808.622ZM807.016 116.466H819.094V123.814H807.016V116.466ZM803.826 126.146H811.658V135.584H810.008V127.73H805.388V135.76H803.826V126.146ZM814.056 126.146H822.328V135.628H820.678V127.73H815.64V135.76H814.056V126.146ZM804.53 132.988H810.668V134.572H804.53V132.988ZM814.87 132.988H821.404V134.572H814.87V132.988ZM825.716 119.524C826.552 119.502 827.256 119.458 827.696 119.414C829.104 119.26 833.262 118.864 837.31 118.512C839.73 118.314 841.776 118.182 843.25 118.138L843.272 119.898C841.996 119.876 840.082 119.92 838.96 120.228C835.814 121.24 833.9 124.606 833.9 127.202C833.9 131.492 837.926 132.878 841.49 133.01L840.852 134.814C836.782 134.66 832.162 132.504 832.162 127.576C832.162 124.166 834.252 121.35 836.254 120.162C833.9 120.404 828.29 120.954 825.914 121.46L825.716 119.524ZM840.082 122.582C840.588 123.308 841.424 124.672 841.908 125.662L840.764 126.168C840.258 125.112 839.642 123.99 838.982 123.066L840.082 122.582ZM842.48 121.658C843.03 122.384 843.888 123.726 844.394 124.694L843.272 125.244C842.744 124.188 842.084 123.088 841.402 122.164L842.48 121.658ZM746.78 153.822H757.076V155.428H746.78V153.822ZM737.21 152.172H747.44V153.712H737.21V152.172ZM752.808 148.52H754.458V166.538C754.458 167.638 754.172 168.122 753.512 168.43C752.852 168.716 751.73 168.76 749.838 168.76C749.772 168.298 749.53 167.528 749.288 167.022C750.674 167.066 751.906 167.066 752.28 167.044C752.654 167.022 752.808 166.912 752.808 166.516V148.52ZM747.022 158.354L748.386 157.716C749.442 159.234 750.498 161.258 750.85 162.6L749.398 163.304C749.068 161.984 748.078 159.894 747.022 158.354ZM737.892 156.858L739.08 155.934C741.764 158.75 744.822 162.6 746.098 165.13L744.778 166.252C743.546 163.678 740.554 159.718 737.892 156.858ZM741.412 148.564H742.996V153.074H741.412V148.564ZM743.92 154.218L745.548 154.46C744.426 161.082 742.204 165.68 737.848 168.606C737.628 168.276 737.034 167.616 736.682 167.308C740.928 164.778 742.974 160.334 743.92 154.218ZM767.262 157.386H768.89V165.944C768.89 166.714 769.066 166.824 769.924 166.824C770.32 166.824 772.3 166.824 772.828 166.824C773.708 166.824 773.84 166.252 773.95 163.018C774.324 163.326 774.984 163.59 775.424 163.722C775.248 167.352 774.808 168.342 772.938 168.342C772.542 168.342 770.122 168.342 769.726 168.342C767.768 168.342 767.262 167.792 767.262 165.922V157.386ZM764.248 159.278L765.744 159.608C765.458 162.006 764.908 164.91 763.764 166.67L762.312 166.01C763.39 164.316 763.984 161.61 764.248 159.278ZM767.614 154.768L768.736 153.69C770.496 154.57 772.74 155.934 773.884 156.946L772.696 158.178C771.618 157.166 769.396 155.714 767.614 154.768ZM774.61 159.388L776.084 158.794C777.558 161.06 778.944 164.03 779.34 166.01L777.734 166.67C777.382 164.712 776.062 161.676 774.61 159.388ZM768.78 148.542H770.474V152.282H768.78V148.542ZM761.432 151.38H778.922V152.964H761.432V151.38ZM760.64 151.38H762.29V157.078C762.29 160.466 761.982 165.438 760.09 168.782C759.804 168.496 759.078 168.034 758.682 167.858C760.486 164.69 760.64 160.246 760.64 157.078V151.38ZM787.48 149.862C787.37 150.588 787.304 151.358 787.26 152.084C787.172 154.57 786.996 159.784 786.996 163.062C786.996 165.482 788.514 166.318 790.604 166.318C794.63 166.318 796.918 164.074 798.502 161.786L799.734 163.282C798.238 165.372 795.378 168.122 790.56 168.122C787.392 168.122 785.214 166.824 785.214 163.216C785.214 159.96 785.434 154.394 785.434 152.084C785.434 151.27 785.368 150.5 785.236 149.862H787.48ZM811.724 149.708C811.592 150.192 811.438 151.028 811.35 151.446C811.02 153.03 810.558 155.516 809.942 157.716C809.15 160.84 807.676 165.394 806.51 167.792L804.596 167.154C805.916 164.866 807.456 160.4 808.292 157.298C808.82 155.274 809.392 152.502 809.546 151.358C809.634 150.742 809.678 149.994 809.634 149.532L811.724 149.708ZM806.862 153.382C809.282 153.382 812.516 152.986 815.244 152.304V154.02C812.516 154.636 809.194 155.01 806.818 155.01C805.85 155.01 805.08 154.988 804.266 154.922L804.222 153.206C805.256 153.338 806.048 153.382 806.862 153.382ZM813.814 156.396C814.958 156.286 816.432 156.22 817.84 156.22C819.116 156.22 820.458 156.264 821.646 156.396L821.602 158.068C820.458 157.936 819.182 157.804 817.884 157.804C816.52 157.804 815.156 157.892 813.814 158.046V156.396ZM814.254 161.742C814.078 162.468 813.946 163.15 813.946 163.722C813.946 164.756 814.54 165.768 817.664 165.768C819.116 165.768 820.612 165.614 821.976 165.35L821.91 167.11C820.722 167.286 819.248 167.418 817.642 167.418C814.188 167.418 812.296 166.362 812.296 164.184C812.296 163.348 812.428 162.512 812.626 161.588L814.254 161.742ZM828.906 151.666C828.796 152.172 828.73 153.228 828.708 153.8C828.686 155.164 828.708 157.188 828.862 158.992C829.236 162.666 830.292 165.108 831.876 165.108C832.998 165.108 834.032 162.842 834.604 160.642L835.99 162.204C834.648 165.922 833.328 167.198 831.832 167.198C829.742 167.198 827.762 165.13 827.146 159.432C826.948 157.54 826.904 154.856 826.904 153.58C826.904 153.074 826.904 152.128 826.772 151.622L828.906 151.666ZM840.346 152.26C842.326 154.812 843.91 159.498 844.24 163.216L842.458 163.92C842.084 159.96 840.742 155.428 838.652 152.854L840.346 152.26Z" fill="#333333"/>
<circle cx="337" cy="110" r="110" fill="#F5F5F5"/>
<path d="M320 69.1556L333.724 82.88L354.311 52" stroke="#00A0E8" stroke-width="4.88" stroke-linecap="round" stroke-linejoin="round"/>
<path d="M250.117 116.73C250.029 117.214 249.963 118.27 249.941 118.93C249.941 119.92 249.941 121.438 249.941 122.956C249.941 125.354 250.293 129.754 250.293 131.69C250.293 133.472 249.193 135.012 246.267 135.012C243.209 135.012 240.987 134.066 240.987 131.558C240.987 129.556 242.703 127.95 246.509 127.95C250.865 127.95 254.781 130.15 257.025 132.196L255.969 133.846C253.769 131.646 250.161 129.49 246.311 129.49C244.023 129.49 242.725 130.26 242.725 131.492C242.725 132.702 243.957 133.384 246.091 133.384C247.697 133.384 248.489 132.614 248.489 131.096C248.489 129.468 248.225 125.2 248.225 122.956C248.225 121.68 248.203 119.876 248.203 118.93C248.181 118.116 248.115 117.148 248.027 116.73H250.117ZM248.973 121.174C250.491 121.174 254.077 121.064 256.453 120.778L256.519 122.428C254.143 122.648 250.557 122.802 248.973 122.802V121.174ZM267.221 116.642C266.759 118.27 266.341 121.24 266.209 122.78C267.111 120.514 269.399 117.764 272.193 117.764C275.097 117.764 277.209 120.712 277.209 125.332C277.209 131.426 273.359 134.132 267.925 135.122L266.869 133.538C271.665 132.812 275.383 130.876 275.383 125.354C275.383 121.878 274.217 119.37 271.907 119.37C269.157 119.37 266.605 123.374 266.341 126.256C266.231 127.092 266.231 127.862 266.385 128.962L264.669 129.094C264.559 128.258 264.449 127.026 264.449 125.596C264.449 123.506 264.867 120.272 265.131 118.468C265.219 117.808 265.263 117.192 265.307 116.576L267.221 116.642ZM283.215 117.632H302.333V119.062H283.215V117.632ZM291.817 115.52H293.511V118.314H291.817V115.52ZM284.183 126.234H300.529V127.642H285.789V135.782H284.183V126.234ZM299.847 126.234H301.497V133.802C301.497 134.704 301.299 135.188 300.595 135.474C299.891 135.716 298.703 135.738 296.877 135.738C296.811 135.276 296.569 134.616 296.327 134.176C297.779 134.22 299.011 134.22 299.385 134.176C299.759 134.176 299.847 134.066 299.847 133.758V126.234ZM288.583 129.072H290.057V134.836H288.583V129.072ZM289.375 129.072H296.987V133.714H289.375V132.526H295.491V130.26H289.375V129.072ZM288.451 121.504V123.638H297.053V121.504H288.451ZM286.867 120.294H298.725V124.848H286.867V120.294ZM307.547 115.52H309.219V135.738H307.547V115.52ZM305.523 119.7L306.777 119.898C306.667 121.68 306.271 124.232 305.677 125.816L304.379 125.376C304.973 123.902 305.369 121.482 305.523 119.7ZM309.373 119.568L310.517 119.062C311.199 120.25 311.881 121.812 312.123 122.758L310.891 123.374C310.649 122.406 309.989 120.8 309.373 119.568ZM313.861 116.554L315.467 116.818C314.895 120.03 313.927 123.154 312.695 125.222C312.365 124.98 311.617 124.628 311.199 124.452C312.497 122.516 313.377 119.524 313.861 116.554ZM313.883 120.184H324.113V121.768H313.377L313.883 120.184ZM317.447 115.608H319.097V134.308H317.447V115.608ZM312.761 126.344H323.629V127.906H312.761V126.344ZM311.111 133.406H324.641V134.99H311.111V133.406ZM330.339 115.52L332.055 115.916C331.263 117.742 330.229 119.876 329.349 121.262L327.941 120.844C328.777 119.436 329.811 117.126 330.339 115.52ZM326.643 120.184C328.953 120.118 332.451 119.964 335.905 119.81L335.883 121.284C332.605 121.482 329.195 121.658 326.797 121.79L326.643 120.184ZM327.985 123.374H334.959V124.782H329.525V135.738H327.985V123.374ZM334.211 123.374H335.839V133.868C335.839 134.704 335.663 135.166 335.069 135.43C334.453 135.694 333.485 135.716 332.099 135.716C332.011 135.276 331.769 134.616 331.549 134.198C332.583 134.242 333.529 134.22 333.837 134.198C334.123 134.198 334.211 134.132 334.211 133.846V123.374ZM328.711 126.652H335.069V127.95H328.711V126.652ZM328.711 129.952H335.069V131.272H328.711V129.952ZM337.907 115.564H339.535V122.846C339.535 123.55 339.711 123.704 340.723 123.704C341.185 123.704 343.583 123.704 344.221 123.704C345.079 123.704 345.233 123.33 345.321 121.152C345.673 121.438 346.333 121.68 346.817 121.79C346.619 124.474 346.135 125.2 344.353 125.2C343.891 125.2 341.009 125.2 340.569 125.2C338.457 125.2 337.907 124.694 337.907 122.868V115.564ZM344.639 117.192L345.739 118.402C343.869 119.282 341.229 120.14 338.963 120.778C338.875 120.426 338.655 119.942 338.457 119.612C340.635 118.93 343.143 117.962 344.639 117.192ZM337.907 125.794H339.535V133.23C339.535 133.978 339.733 134.11 340.789 134.11C341.251 134.11 343.737 134.11 344.397 134.11C345.343 134.11 345.475 133.692 345.585 131.206C345.959 131.47 346.619 131.734 347.081 131.822C346.861 134.792 346.377 135.584 344.529 135.584C344.045 135.584 341.075 135.584 340.613 135.584C338.479 135.584 337.907 135.078 337.907 133.252V125.794ZM344.903 127.004L346.003 128.236C344.155 129.292 341.339 130.194 338.963 130.832C338.875 130.502 338.633 129.974 338.457 129.644C340.745 128.984 343.407 127.972 344.903 127.004ZM333.089 117.61L334.453 117.06C335.619 118.6 336.851 120.624 337.357 121.988L335.905 122.626C335.443 121.284 334.255 119.172 333.089 117.61ZM349.897 120.14C350.711 120.228 351.657 120.272 352.603 120.272C354.979 120.272 357.751 119.986 360.281 119.15L360.325 120.778C358.169 121.372 355.287 121.856 352.603 121.834C351.789 121.834 350.843 121.812 350.029 121.79L349.897 120.14ZM357.707 116.554C357.421 117.632 356.959 119.7 356.431 121.262C355.375 124.43 353.351 128.434 351.525 130.898L349.831 130.018C351.789 127.73 353.835 123.814 354.737 121.218C355.221 119.832 355.705 117.896 355.771 116.356L357.707 116.554ZM362.899 123.352C362.833 124.254 362.833 124.914 362.855 125.706C362.899 127.136 363.097 130.48 363.097 131.932C363.097 133.692 361.975 135.122 359.247 135.122C356.827 135.122 354.869 134.154 354.869 131.954C354.869 129.93 356.783 128.654 359.247 128.654C362.943 128.654 365.781 130.502 367.585 132.064L366.661 133.56C364.967 132.02 362.437 130.062 359.203 130.062C357.575 130.062 356.475 130.81 356.475 131.822C356.475 132.834 357.333 133.538 359.049 133.538C360.875 133.538 361.491 132.57 361.491 131.382C361.491 129.71 361.249 125.772 361.161 123.352H362.899ZM367.299 123.924C366.111 122.912 363.713 121.57 362.261 120.888L363.141 119.568C364.747 120.25 367.233 121.68 368.289 122.472L367.299 123.924ZM371.809 117.654H389.827V119.062H371.809V117.654ZM372.513 133.78H389.167V135.166H372.513V133.78ZM376.143 120.514H385.405V121.768H376.143V120.514ZM376.143 123.286H385.405V124.54H376.143V123.286ZM370.775 126.124H390.773V127.51H370.775V126.124ZM375.395 130.062H386.197V131.426H375.395V130.062ZM375.153 115.542H376.803V126.894H375.153V115.542ZM384.833 115.542H386.483V126.894H384.833V115.542ZM379.883 128.214H381.577V134.55H379.883V128.214ZM376.319 126.498L377.705 127.026C376.363 129.292 373.943 131.382 371.633 132.46C371.391 132.086 370.929 131.514 370.555 131.206C372.777 130.326 375.131 128.434 376.319 126.498ZM385.317 126.498C386.483 128.368 388.771 130.106 391.059 130.92C390.685 131.228 390.201 131.8 389.959 132.196C387.627 131.206 385.295 129.16 384.019 127.004L385.317 126.498ZM395.305 117.126H401.047V118.336H395.305V117.126ZM397.703 115.498L399.177 115.718C398.759 116.554 398.385 117.302 398.055 117.896L396.801 117.654C397.109 117.038 397.505 116.114 397.703 115.498ZM394.667 117.126H396.031V121.218C396.031 123.528 395.635 126.674 393.545 128.786C393.347 128.522 392.797 128.038 392.489 127.862C394.403 125.926 394.667 123.264 394.667 121.196V117.126ZM404.831 116.334H409.253V117.566H404.831V116.334ZM403.313 121.988H410.309V123.198H403.313V121.988ZM404.215 116.334H405.557V117.918C405.557 119.26 405.139 120.866 403.357 121.988C403.181 121.702 402.675 121.13 402.411 120.932C403.951 120.03 404.215 118.886 404.215 117.896V116.334ZM400.343 117.126H401.729V126.608C401.729 127.378 401.597 127.774 401.069 128.016C400.563 128.236 399.727 128.258 398.517 128.258C398.451 127.862 398.275 127.312 398.077 126.916C399.001 126.96 399.771 126.96 400.013 126.938C400.277 126.938 400.343 126.85 400.343 126.608V117.126ZM392.665 121.988C395.195 121.9 399.023 121.724 402.763 121.526L402.719 122.802C399.089 123 395.349 123.198 392.753 123.33L392.665 121.988ZM396.889 119.194L397.923 118.82C398.407 119.502 398.913 120.426 399.133 120.998L398.055 121.438C397.835 120.844 397.351 119.898 396.889 119.194ZM397.439 123.638H398.561V126.674H397.439V123.638ZM408.505 116.334H409.869V119.568C409.869 119.942 409.913 119.986 410.243 119.986C410.397 119.986 411.013 119.986 411.211 119.986C411.541 119.986 411.607 119.832 411.651 118.336C411.937 118.556 412.487 118.732 412.861 118.82C412.729 120.734 412.377 121.218 411.409 121.218C411.145 121.218 410.287 121.218 410.045 121.218C408.835 121.218 408.505 120.866 408.505 119.568V116.334ZM409.869 121.988H410.199L410.485 121.944L411.343 122.318C409.979 125.838 406.877 127.532 403.137 128.368C402.983 128.016 402.587 127.4 402.323 127.136C405.843 126.476 408.747 125.046 409.869 122.186V121.988ZM405.293 123.088C406.547 125.332 409.385 126.784 412.993 127.246C412.663 127.576 412.245 128.148 412.069 128.544C408.285 127.862 405.403 126.168 403.973 123.462L405.293 123.088ZM392.775 133.78H412.795V135.122H392.775V133.78ZM395.371 128.808H410.199V134.462H408.571V130.128H405.689V134.462H404.149V130.128H401.289V134.462H399.749V130.128H396.911V134.462H395.371V128.808ZM423.905 116.62C423.707 117.478 423.465 118.688 422.893 120.162C422.343 121.504 421.529 122.978 420.649 124.122C421.507 123.616 422.761 123.308 423.729 123.308C425.423 123.308 426.743 124.32 426.743 126.102C426.743 127.246 426.787 129.776 426.809 131.14H425.115C425.203 129.974 425.225 127.708 425.203 126.564C425.181 125.288 424.301 124.694 423.157 124.694C421.749 124.694 420.363 125.398 419.351 126.3C418.713 126.916 418.097 127.708 417.371 128.61L415.853 127.488C419.021 124.452 420.495 121.9 421.243 120.03C421.727 118.82 422.035 117.5 422.101 116.466L423.905 116.62ZM416.359 118.996C417.547 119.15 419.065 119.216 420.077 119.216C423.047 119.216 426.853 119.04 429.955 118.49V120.118C426.875 120.58 422.783 120.778 419.989 120.778C419.043 120.778 417.591 120.734 416.359 120.646V118.996ZM433.167 124.298C432.617 124.474 431.825 124.782 431.231 125.002C429.669 125.618 427.579 126.454 425.445 127.554C423.267 128.698 421.727 129.886 421.727 131.404C421.727 133.12 423.421 133.384 425.687 133.384C427.403 133.384 429.779 133.186 431.715 132.834L431.649 134.616C429.977 134.814 427.535 134.99 425.621 134.99C422.497 134.99 419.967 134.308 419.967 131.646C419.967 128.962 422.695 127.312 425.313 125.97C427.403 124.892 429.185 124.21 430.637 123.528C431.297 123.22 431.847 122.978 432.463 122.67L433.167 124.298ZM300.04 150.962H314.164V152.502H300.04V150.962ZM302.218 156.044V159.344H311.832V156.044H302.218ZM300.7 154.636H313.438V160.752H300.7V154.636ZM302.064 161.192C304.132 164.646 308.642 166.692 314.362 167.33C314.01 167.682 313.592 168.342 313.372 168.804C307.542 167.968 303.032 165.68 300.7 161.654L302.064 161.192ZM306.156 148.608H307.784V158.354C307.784 162.6 307.058 166.824 300.238 168.848C300.04 168.474 299.578 167.814 299.248 167.462C305.782 165.812 306.156 162.05 306.156 158.332V148.608ZM299.094 148.476L300.656 148.96C299.16 152.678 296.806 156.374 294.364 158.816C294.21 158.442 293.748 157.584 293.44 157.188C295.662 155.098 297.818 151.82 299.094 148.476ZM296.784 154.24L298.346 152.678L298.368 152.7V168.87H296.784V154.24ZM319.906 151.666C319.796 152.172 319.73 153.228 319.708 153.8C319.686 155.164 319.708 157.188 319.862 158.992C320.236 162.666 321.292 165.108 322.876 165.108C323.998 165.108 325.032 162.842 325.604 160.642L326.99 162.204C325.648 165.922 324.328 167.198 322.832 167.198C320.742 167.198 318.762 165.13 318.146 159.432C317.948 157.54 317.904 154.856 317.904 153.58C317.904 153.074 317.904 152.128 317.772 151.622L319.906 151.666ZM331.346 152.26C333.326 154.812 334.91 159.498 335.24 163.216L333.458 163.92C333.084 159.96 331.742 155.428 329.652 152.854L331.346 152.26ZM346.724 149.708C346.592 150.192 346.438 151.028 346.35 151.446C346.02 153.03 345.558 155.516 344.942 157.716C344.15 160.84 342.676 165.394 341.51 167.792L339.596 167.154C340.916 164.866 342.456 160.4 343.292 157.298C343.82 155.274 344.392 152.502 344.546 151.358C344.634 150.742 344.678 149.994 344.634 149.532L346.724 149.708ZM341.862 153.382C344.282 153.382 347.516 152.986 350.244 152.304V154.02C347.516 154.636 344.194 155.01 341.818 155.01C340.85 155.01 340.08 154.988 339.266 154.922L339.222 153.206C340.256 153.338 341.048 153.382 341.862 153.382ZM348.814 156.396C349.958 156.286 351.432 156.22 352.84 156.22C354.116 156.22 355.458 156.264 356.646 156.396L356.602 158.068C355.458 157.936 354.182 157.804 352.884 157.804C351.52 157.804 350.156 157.892 348.814 158.046V156.396ZM349.254 161.742C349.078 162.468 348.946 163.15 348.946 163.722C348.946 164.756 349.54 165.768 352.664 165.768C354.116 165.768 355.612 165.614 356.976 165.35L356.91 167.11C355.722 167.286 354.248 167.418 352.642 167.418C349.188 167.418 347.296 166.362 347.296 164.184C347.296 163.348 347.428 162.512 347.626 161.588L349.254 161.742ZM363.906 151.666C363.796 152.172 363.73 153.228 363.708 153.8C363.686 155.164 363.708 157.188 363.862 158.992C364.236 162.666 365.292 165.108 366.876 165.108C367.998 165.108 369.032 162.842 369.604 160.642L370.99 162.204C369.648 165.922 368.328 167.198 366.832 167.198C364.742 167.198 362.762 165.13 362.146 159.432C361.948 157.54 361.904 154.856 361.904 153.58C361.904 153.074 361.904 152.128 361.772 151.622L363.906 151.666ZM375.346 152.26C377.326 154.812 378.91 159.498 379.24 163.216L377.458 163.92C377.084 159.96 375.742 155.428 373.652 152.854L375.346 152.26Z" fill="#333333"/>
<circle cx="564" cy="110" r="110" fill="#F5F5F5"/>
<path d="M547 69.1556L560.724 82.88L581.311 52" stroke="#00A0E8" stroke-width="4.88" stroke-linecap="round" stroke-linejoin="round"/>
<path d="M546.84 116.818L547.984 115.938C549.26 116.884 550.734 118.27 551.438 119.26L550.206 120.228C549.59 119.238 548.116 117.786 546.84 116.818ZM532.012 121.548H551.988V123.044H532.012V121.548ZM533.002 117.742H542.616V119.194H533.002V117.742ZM532.452 125.332H543.122V126.74H532.452V125.332ZM537.05 115.542H538.612V122.384H537.05V115.542ZM537.05 123.33H538.612V126.168H537.05V123.33ZM537.38 128.764L538.414 127.862C539.954 129.05 541.934 130.744 542.88 131.844L541.802 132.9C540.878 131.778 538.942 130.018 537.38 128.764ZM541.714 127.18L542.968 127.95C542.198 128.808 541.252 129.688 540.504 130.282L539.448 129.6C540.174 128.962 541.164 127.906 541.714 127.18ZM537.116 125.882L538.546 126.366C537.204 128.434 534.96 130.348 532.914 131.58C532.694 131.272 532.166 130.656 531.836 130.37C533.838 129.336 535.928 127.686 537.116 125.882ZM533.332 133.89C534.872 133.406 537.182 132.636 539.426 131.844L539.668 133.164C537.71 133.89 535.62 134.66 533.97 135.232L533.332 133.89ZM534.762 129.204L536.258 128.324V133.89H534.762V129.204ZM543.738 115.564H545.41C545.322 126.036 547.104 134.154 549.876 134.154C550.492 134.154 550.734 133.142 550.866 130.502C551.218 130.854 551.812 131.206 552.208 131.36C551.944 134.77 551.35 135.76 549.744 135.76C545.366 135.76 543.826 126.432 543.738 115.564ZM549.326 124.188L550.844 124.716C548.974 129.336 545.762 133.318 541.736 135.738C541.45 135.32 540.966 134.77 540.526 134.44C544.442 132.306 547.61 128.478 549.326 124.188ZM556.828 122.142H564.484V123.594H556.828V122.142ZM555.684 131.844H564.286V133.296H555.684V131.844ZM554.782 116.334H556.256V134.968H554.782V116.334ZM559.974 115.696H561.404V131.338H559.974V115.696ZM560.04 122.912L561.008 123.308C560.194 125.75 558.676 128.654 557.136 130.128C556.982 129.732 556.652 129.138 556.432 128.764C557.818 127.51 559.314 125.046 560.04 122.912ZM563.164 117.016L564.506 117.39C563.956 118.71 563.318 120.294 562.79 121.306L561.8 120.932C562.284 119.876 562.878 118.16 563.164 117.016ZM557.092 117.39L558.192 117.038C558.698 118.248 559.116 119.832 559.204 120.866L558.06 121.262C557.972 120.206 557.576 118.622 557.092 117.39ZM561.294 124.364C561.866 124.804 563.912 126.696 564.396 127.18L563.472 128.346C562.922 127.554 561.206 125.662 560.502 124.98L561.294 124.364ZM566.2 122.934H574.296V124.474H566.2V122.934ZM570.248 123.726H571.832V135.782H570.248V123.726ZM565.408 117.412L567.432 118.028C567.41 118.182 567.278 118.292 566.992 118.336V125.134C566.992 128.412 566.596 132.878 563.692 135.958C563.494 135.584 562.922 135.034 562.504 134.836C565.144 132.02 565.408 128.214 565.408 125.112V117.412ZM572.624 115.872L573.944 117.104C571.92 118.006 568.862 118.754 566.266 119.238C566.178 118.864 565.936 118.314 565.738 117.962C568.202 117.456 571.04 116.686 572.624 115.872ZM585.12 116.62C584.922 117.478 584.68 118.688 584.108 120.162C583.558 121.504 582.744 122.978 581.864 124.122C582.722 123.616 583.976 123.308 584.944 123.308C586.638 123.308 587.958 124.32 587.958 126.102C587.958 127.246 588.002 129.776 588.024 131.14H586.33C586.418 129.974 586.44 127.708 586.418 126.564C586.396 125.288 585.516 124.694 584.372 124.694C582.964 124.694 581.578 125.398 580.566 126.3C579.928 126.916 579.312 127.708 578.586 128.61L577.068 127.488C580.236 124.452 581.71 121.9 582.458 120.03C582.942 118.82 583.25 117.5 583.316 116.466L585.12 116.62ZM577.574 118.996C578.762 119.15 580.28 119.216 581.292 119.216C584.262 119.216 588.068 119.04 591.17 118.49V120.118C588.09 120.58 583.998 120.778 581.204 120.778C580.258 120.778 578.806 120.734 577.574 120.646V118.996ZM594.382 124.298C593.832 124.474 593.04 124.782 592.446 125.002C590.884 125.618 588.794 126.454 586.66 127.554C584.482 128.698 582.942 129.886 582.942 131.404C582.942 133.12 584.636 133.384 586.902 133.384C588.618 133.384 590.994 133.186 592.93 132.834L592.864 134.616C591.192 134.814 588.75 134.99 586.836 134.99C583.712 134.99 581.182 134.308 581.182 131.646C581.182 128.962 583.91 127.312 586.528 125.97C588.618 124.892 590.4 124.21 591.852 123.528C592.512 123.22 593.062 122.978 593.678 122.67L594.382 124.298ZM491.686 156.418H504.468V157.958H491.686V156.418ZM491.686 161.192H504.468V162.732H491.686V161.192ZM491.686 166.01H504.468V167.55H491.686V166.01ZM490.564 151.534H505.744V168.672H504.028V153.118H492.236V168.782H490.564V151.534ZM497.01 148.498L498.924 148.74C498.44 150.06 497.868 151.49 497.384 152.436L495.91 152.15C496.306 151.116 496.79 149.576 497.01 148.498ZM517.91 166.516H530.34V168.144H517.91V166.516ZM518.768 155.736H529.878V157.32H518.768V155.736ZM523.498 148.696H525.17V167.308H523.498V148.696ZM510.21 152.656H517.514V154.174H510.21V152.656ZM513.686 159.256L515.314 157.298V168.782H513.686V159.256ZM513.686 148.542H515.314V153.404H513.686V148.542ZM515.182 157.738C515.93 158.266 518.482 160.51 519.12 161.06L518.108 162.402C517.294 161.456 515.138 159.366 514.236 158.574L515.182 157.738ZM516.898 152.656H517.228L517.536 152.59L518.482 153.206C516.81 157.254 513.444 160.906 510.298 162.93C510.122 162.512 509.726 161.742 509.44 161.456C512.432 159.696 515.578 156.352 516.898 153.008V152.656ZM532.716 152.524C533.552 152.502 534.256 152.458 534.696 152.414C536.104 152.26 540.262 151.864 544.31 151.512C546.73 151.314 548.776 151.182 550.25 151.138L550.272 152.898C548.996 152.876 547.082 152.92 545.96 153.228C542.814 154.24 540.9 157.606 540.9 160.202C540.9 164.492 544.926 165.878 548.49 166.01L547.852 167.814C543.782 167.66 539.162 165.504 539.162 160.576C539.162 157.166 541.252 154.35 543.254 153.162C540.9 153.404 535.29 153.954 532.914 154.46L532.716 152.524ZM547.082 155.582C547.588 156.308 548.424 157.672 548.908 158.662L547.764 159.168C547.258 158.112 546.642 156.99 545.982 156.066L547.082 155.582ZM549.48 154.658C550.03 155.384 550.888 156.726 551.394 157.694L550.272 158.244C549.744 157.188 549.084 156.088 548.402 155.164L549.48 154.658ZM562.57 149.862H573.372V151.446H562.57V149.862ZM568.994 156.418H570.666V166.648C570.666 167.682 570.424 168.188 569.676 168.452C568.928 168.694 567.674 168.716 565.518 168.716C565.452 168.254 565.232 167.572 564.99 167.088C566.552 167.132 568.026 167.132 568.422 167.11C568.862 167.088 568.994 167 568.994 166.626V156.418ZM561.602 155.934H574.01V157.496H561.602V155.934ZM557.202 157.628L558.654 156.198L558.852 156.286V168.826H557.202V157.628ZM559.754 153.228L561.316 153.822C559.6 156.616 557.004 159.454 554.694 161.302C554.452 160.972 553.88 160.246 553.528 159.938C555.816 158.31 558.236 155.758 559.754 153.228ZM558.852 148.52L560.436 149.158C558.962 151.094 556.696 153.228 554.738 154.636C554.496 154.284 554.056 153.646 553.77 153.316C555.596 152.084 557.73 150.104 558.852 148.52ZM579.906 151.666C579.796 152.172 579.73 153.228 579.708 153.8C579.686 155.164 579.708 157.188 579.862 158.992C580.236 162.666 581.292 165.108 582.876 165.108C583.998 165.108 585.032 162.842 585.604 160.642L586.99 162.204C585.648 165.922 584.328 167.198 582.832 167.198C580.742 167.198 578.762 165.13 578.146 159.432C577.948 157.54 577.904 154.856 577.904 153.58C577.904 153.074 577.904 152.128 577.772 151.622L579.906 151.666ZM591.346 152.26C593.326 154.812 594.91 159.498 595.24 163.216L593.458 163.92C593.084 159.96 591.742 155.428 589.652 152.854L591.346 152.26ZM606.724 149.708C606.592 150.192 606.438 151.028 606.35 151.446C606.02 153.03 605.558 155.516 604.942 157.716C604.15 160.84 602.676 165.394 601.51 167.792L599.596 167.154C600.916 164.866 602.456 160.4 603.292 157.298C603.82 155.274 604.392 152.502 604.546 151.358C604.634 150.742 604.678 149.994 604.634 149.532L606.724 149.708ZM601.862 153.382C604.282 153.382 607.516 152.986 610.244 152.304V154.02C607.516 154.636 604.194 155.01 601.818 155.01C600.85 155.01 600.08 154.988 599.266 154.922L599.222 153.206C600.256 153.338 601.048 153.382 601.862 153.382ZM608.814 156.396C609.958 156.286 611.432 156.22 612.84 156.22C614.116 156.22 615.458 156.264 616.646 156.396L616.602 158.068C615.458 157.936 614.182 157.804 612.884 157.804C611.52 157.804 610.156 157.892 608.814 158.046V156.396ZM609.254 161.742C609.078 162.468 608.946 163.15 608.946 163.722C608.946 164.756 609.54 165.768 612.664 165.768C614.116 165.768 615.612 165.614 616.976 165.35L616.91 167.11C615.722 167.286 614.248 167.418 612.642 167.418C609.188 167.418 607.296 166.362 607.296 164.184C607.296 163.348 607.428 162.512 607.626 161.588L609.254 161.742ZM623.906 151.666C623.796 152.172 623.73 153.228 623.708 153.8C623.686 155.164 623.708 157.188 623.862 158.992C624.236 162.666 625.292 165.108 626.876 165.108C627.998 165.108 629.032 162.842 629.604 160.642L630.99 162.204C629.648 165.922 628.328 167.198 626.832 167.198C624.742 167.198 622.762 165.13 622.146 159.432C621.948 157.54 621.904 154.856 621.904 153.58C621.904 153.074 621.904 152.128 621.772 151.622L623.906 151.666ZM635.346 152.26C637.326 154.812 638.91 159.498 639.24 163.216L637.458 163.92C637.084 159.96 635.742 155.428 633.652 152.854L635.346 152.26Z" fill="#333333"/>
</svg>
