<?xml version="1.0" encoding="utf-8"?>
<!-- Generator: Adobe Illustrator 23.0.3, SVG Export Plug-In . SVG Version: 6.00 Build 0)  -->
<svg version="1.1" id="Layer_2" xmlns="http://www.w3.org/2000/svg" xmlns:xlink="http://www.w3.org/1999/xlink" x="0px" y="0px"
	 viewBox="0 0 138 53" style="enable-background:new 0 0 138 53;" xml:space="preserve">
<style type="text/css">
	.st0{fill:#00A0E8;}
	.st1{fill:#E4007E;}
	.st2{fill:#FEF300;}
</style>
<g>
	<path d="M61.7,19.2l-22.3,0c-0.3,0-0.6,0.3-0.6,0.6v4.3c0,0.3,0.3,0.6,0.6,0.6h13.8L46,37c-0.2,0.4,0.1,0.9,0.5,0.9h5
		c0.2,0,0.4-0.1,0.5-0.3l10.1-17.6C62.4,19.7,62.1,19.2,61.7,19.2z"/>
	<path d="M137.2,32.5h-13.2l7.2-12.4c0.2-0.4-0.1-0.9-0.5-0.9h-5c-0.2,0-0.4,0.1-0.5,0.3L115.1,37c-0.2,0.4,0.1,0.9,0.5,0.9h21.6
		c0.3,0,0.6-0.3,0.6-0.6v-4.3C137.8,32.7,137.6,32.5,137.2,32.5z"/>
	<path d="M86.8,19.2H68.3c-0.2,0-0.4,0.1-0.5,0.3L57.7,37c-0.2,0.4,0.1,0.9,0.5,0.9h5c0.2,0,0.4-0.1,0.5-0.3l7.5-13h7.2L65.5,46.9
		c-0.2,0.4,0.1,0.9,0.5,0.9h5c0.2,0,0.4-0.1,0.5-0.3l15.8-27.4C87.5,19.7,87.2,19.2,86.8,19.2z"/>
	<path d="M39.3,15.5h22.3c0.3,0,0.6-0.3,0.6-0.6v-4.3c0-0.3-0.3-0.6-0.6-0.6H39.3c-0.3,0-0.6,0.3-0.6,0.6v4.3
		C38.8,15.2,39,15.5,39.3,15.5z"/>
	<path d="M120.7,19.2h-5c-0.2,0-0.4,0.1-0.5,0.3l-9.7,16.9l-6.7-11.6l8-13.9c0.2-0.4-0.1-0.9-0.5-0.9l-21.5,0
		c-0.3,0-0.6,0.3-0.6,0.6v4.3c0,0.3,0.3,0.6,0.6,0.6h13L85.1,37.7c-0.2,0.4,0.1,0.9,0.5,0.9h5c0.2,0,0.4-0.1,0.5-0.3l4.6-8l4.6,8
		c0.1,0.2,0.3,0.3,0.5,0.3h3.4l-4.8,8.3c-0.2,0.4,0.1,0.9,0.5,0.9h5c0.2,0,0.4-0.1,0.5-0.3l15.8-27.4
		C121.5,19.7,121.2,19.2,120.7,19.2z"/>
</g>
<g>
	<path d="M17.4,13.2c-8.7,0-15.7,7-15.7,15.7c0,8.7,7,15.7,15.7,15.7c8.7,0,15.7-7,15.7-15.7C33.1,20.2,26.1,13.2,17.4,13.2z"/>
	<g id="XMLID_12_">
		<path class="st0" d="M25.4,19.6c-0.2-0.1-0.3-0.2-0.5-0.2c-2.6-1.1-4.3-1.5-4.9-1.5c-1.1,0.1-2.3,0.5-3.6,1.2
			c-0.9,0.5-1.6,0.8-2.2,1.2c-0.6,0.3-1.1,0.6-1.5,0.8c-0.2,0.1-1.2,0.5-1.3,0.6c-1.4,0.5-2.1,0.9-2.2,0.9c0,0-0.2,0-0.7,0.1
			c-0.4,0.1-0.9,0.2-1.6,0.4c1.7-3.1,4.8-5.5,8.6-6.1C19.1,16.1,22.7,17.3,25.4,19.6z"/>
	</g>
	<g id="XMLID_11_">
		<path class="st0" d="M10.7,35.2c0.2,0.5,0.2,1,0,1.4c-0.1,0.1-0.2,0.3-0.3,0.4c-0.2,0.2-0.4,0.4-0.6,0.6c-0.2,0.1-0.4,0.3-0.5,0.4
			c-2-1.8-3.4-4.2-3.9-7c-0.4-2.1-0.2-4.2,0.5-6.1c0.6,0,1.1,0,1.3,0c0.2,0.1,0.4,0.3,0.5,0.7C8.3,27.4,10.3,34.2,10.7,35.2z"/>
	</g>
	<path class="st1" d="M24.9,35.4c-0.5-1.1-1.1-2.2-1.7-3.2c-0.6-1-1.3-2-2-3.1c-0.2,0-0.6,0.2-0.9,0.6c-0.4,0.4-0.8,1-1.2,1.9
		c-0.9,1.7-1.3,2.7-1.4,2.7c-0.1,0-0.2,0-0.3,0c-0.3-0.1-0.5-0.3-0.6-0.9c0-0.7-0.1-1.3-0.2-2c0,0,0,0,0-0.1
		c-0.1-0.6-0.9-7.2-0.9-7.4c0-0.1,0-1.4-0.3-2.1c-0.2-0.6-0.6-0.6-0.7-0.6c-0.1,0-1,0.6-1.1,0.6c-0.7,0.4-1,0.8-1,1.4
		c0,0.7,0,1.6,0.1,2c0.7,2.8,1.4,5.6,2.1,8.4c0,0.1,0.1,0.2,0.2,0.3c0.1,0.1,0.6,0.6,0.9,0.7c0.1,0,0.9,0,1.5,0
		c0.3,0,0.6,0.1,0.8,0.1c0.3,0.1,0.7,0.1,1,0.2c0.4-0.1,0.6,0,0.9-0.5c0.3-0.4,1.3-2.2,1.5-2.1c0.2,0.1,0.3,0.3,0.3,0.4
		c0,0.1-0.1,0.4-0.4,0.9c-0.3,0.5-0.7,1.3-1.3,2.3c-1,1.9-1.4,2.8-1.6,2.9c-0.1,0-0.5-0.1-1.2-0.4c-2.5-0.7-5.2,0.4-5.4,0.5
		c0,0-0.1,0-0.2,0.1c-0.1,0-0.2,0.1-0.3,0.2c2.4,1.4,5.3,2,8.2,1.4c2.5-0.4,4.6-1.6,6.3-3.2C25.7,37.2,25.4,36.4,24.9,35.4z"/>
	<g id="XMLID_10_">
		<path class="st2" d="M22.8,22.2c1,0.6,1.4,1,1.4,1.3c0,0.2-0.1,0.4-0.3,0.7c-0.2,0.3-0.6,0.7-1.1,1.1c-0.5,0.5-0.9,0.9-1.2,1.3
			c-0.3,0.3-0.5,0.7-0.8,0.6c-0.3-0.4-0.5-0.8-0.5-1.2c0-0.3,0-0.9,0-2c0-0.1,0-0.2,0-0.3c0-0.6,0-1.1,0.1-1.5
			c0-0.4,0.1-0.7,0.1-0.8C21.1,21.2,21.9,21.5,22.8,22.2z"/>
	</g>
	<g id="XMLID_9_">
		<path class="st2" d="M29.5,26.8c0.5,2.8,0,5.5-1.2,7.8c-0.3-0.9-0.9-2-1.6-3.6c-0.6-1.4-1.4-2.7-2-3.7c-0.5-0.9-0.7-1.5-0.7-1.8
			c0-0.2,0.5-0.8,1.6-1.7c0.5-0.4,1-0.8,1.3-1c0.3-0.2,0.5-0.4,0.6-0.4c0.1,0,0.1,0,0.1-0.1C28.6,23.5,29.2,25.1,29.5,26.8z"/>
	</g>
	<path d="M17.4,46.3C7.8,46.3,0,38.5,0,28.9c0-9.6,7.8-17.4,17.4-17.4c9.6,0,17.4,7.8,17.4,17.4C34.9,38.5,27.1,46.3,17.4,46.3z
		 M17.4,11.8c-9.4,0-17,7.6-17,17c0,9.4,7.6,17,17,17c9.4,0,17-7.6,17-17C34.5,19.5,26.8,11.8,17.4,11.8z"/>
</g>
</svg>
