<svg width="512" height="512" viewBox="0 0 512 512" fill="none" xmlns="http://www.w3.org/2000/svg">
<path d="M412.969 165.211C394.281 137.414 377.656 104.414 356.063 77.6019C345.235 64.2109 333.063 52.305 318.469 43.68C303.906 35.039 286.891 29.852 267.406 29.883C264.484 29.883 261.531 29.992 258.515 30.227C226.593 32.586 202.437 47.665 186.859 66.774C179.093 76.29 173.328 86.727 169.484 97.258H120.656V118.992V139.992C50.609 163.039 0 228.867 0 306.633C0 403.555 78.563 482.117 175.5 482.117C272.406 482.117 350.969 403.554 350.969 306.633C350.969 228.867 300.344 163.039 230.313 139.992V118.992V97.258H189.625C192.594 90.789 196.469 84.4139 201.281 78.5859C214.156 62.9609 233.125 50.883 259.937 48.805C262.484 48.617 264.984 48.5079 267.406 48.5079C289.031 48.5859 305.594 55.774 320.562 67.805C342.937 85.836 360.609 115.555 378.765 145.743C397.015 175.837 415.765 206.524 443.39 225.774L454 210.445C438.609 199.836 425.375 183.742 412.969 165.211ZM273.328 306.633C273.328 360.68 229.531 404.477 175.5 404.477C121.437 404.477 77.656 360.68 77.656 306.633C77.656 252.586 121.437 208.789 175.5 208.789C229.531 208.789 273.328 252.586 273.328 306.633Z" fill="#00A0E8"/>
<path d="M511.781 209.32L511.234 209.102L475.531 210.055L474.797 210.758L474.641 214.883L475.313 215.648L510.875 219.258L511.438 219.086L511.688 218.555L512 209.867L511.781 209.32Z" fill="#00A0E8"/>
<path d="M402.313 212.18L402.469 208.055L401.797 207.289L366.25 203.68L365.672 203.852L365.422 204.398L365.109 213.086L365.313 213.633L365.875 213.836L401.594 212.898L402.313 212.18Z" fill="#00A0E8"/>
<path d="M467.484 188.445L495.188 165.852L495.469 165.32L495.25 164.758L489.344 158.398L488.813 158.164L488.266 158.398L463.688 184.32V185.352L466.469 188.352L467.484 188.445Z" fill="#00A0E8"/>
<path d="M409.609 234.508L381.906 257.086L381.641 257.617L381.844 258.195L387.734 264.539L388.281 264.789L388.828 264.555L413.406 238.602V237.602L410.609 234.586L409.609 234.508Z" fill="#00A0E8"/>
<path d="M437.844 175.242L441.969 175.398L442.719 174.711L446.328 139.18L446.156 138.602L445.625 138.352L436.938 138.023L436.406 138.242L436.172 138.805L437.125 174.508L437.844 175.242Z" fill="#00A0E8"/>
<path d="M439.234 247.727L435.125 247.555L434.375 248.242L430.766 283.789L430.938 284.352L431.469 284.602L440.156 284.93L440.703 284.711L440.938 284.148L439.969 248.445L439.234 247.727Z" fill="#00A0E8"/>
<path d="M465.688 236.617H464.688L461.656 239.414L461.594 240.414L484.172 268.102L484.688 268.383L485.25 268.195L491.625 262.289L491.844 261.742L491.625 261.195L465.688 236.617Z" fill="#00A0E8"/>
<path d="M163.172 262.68V324.789C163.172 329.93 167.344 334.102 172.485 334.102H234.594C239.75 334.102 243.922 329.93 243.922 324.789C243.922 319.648 239.75 315.476 234.594 315.476H181.813V262.68C181.813 257.539 177.625 253.352 172.485 253.352C167.345 253.352 163.172 257.539 163.172 262.68Z" fill="#00A0E8"/>
</svg>
