<svg width="901" height="220" fill="none" xmlns="http://www.w3.org/2000/svg"><circle cx="110" cy="110" r="110" fill="#F5F5F5"/><path d="M93 69.156l13.724 13.724L127.311 52" stroke="#00A0E8" stroke-width="4.88" stroke-linecap="round" stroke-linejoin="round"/><path d="M35.192 128.258h6.336v1.276H34.29l.902-1.276zm5.83 0h.352l.33-.066.968.572c-1.958 4.092-6.358 6.094-11.198 7.04-.154-.396-.572-1.1-.858-1.43 4.664-.748 8.8-2.464 10.406-5.852v-.264zm-5.984.88c1.628 2.728 5.17 4.554 9.438 5.192-.374.352-.814 1.012-1.034 1.452-4.378-.858-7.92-2.948-9.79-6.204l1.386-.44zm-.33-4.906v1.496h6.424v-1.496h-6.424zm0-2.53v1.452h6.424v-1.452h-6.424zm-1.518-1.144h9.504v6.292H33.19v-6.292zm.638-2.816h10.208v1.408H33.828v-1.408zm.506-2.222l1.584.264c-.836 2.046-2.002 4.378-3.806 6.27-.286-.33-.814-.77-1.188-.946 1.672-1.672 2.816-3.872 3.41-5.588zm1.694 10.846l1.628.308c-1.254 1.936-3.146 3.894-5.83 5.434-.242-.352-.748-.836-1.1-1.078 2.53-1.32 4.334-3.124 5.302-4.664zm-9.02-.044l1.496-1.804v11.264h-1.496v-9.46zm-2.794-6.6h5.984v1.452h-5.984v-1.452zm2.728-4.07h1.496v4.862h-1.496v-4.862zm1.364 8.976c.572.616 2.662 3.19 3.124 3.828l-.968 1.122c-.572-1.034-2.31-3.41-2.992-4.246l.836-.704zm1.32-4.906h.308l.286-.088.858.55c-1.32 4.026-4.004 7.92-6.534 10.12-.176-.396-.594-1.122-.858-1.408 2.376-1.914 4.862-5.478 5.94-8.844v-.33zm1.254 4.004l.968.704c-.594.946-1.298 2.002-1.87 2.684l-.77-.594c.528-.748 1.276-1.98 1.672-2.794zm15.026 3.542h10.802v1.386H45.906v-1.386zm.132-7.678h10.604v1.342H46.038v-1.342zm3.96 5.786l1.54.33c-.99 2.156-2.376 4.84-3.388 6.578l-1.452-.506c.99-1.672 2.376-4.378 3.3-6.402zm3.3 2.706l1.54.198c-.748 4.29-3.058 6.402-8.14 7.48-.11-.44-.44-1.034-.748-1.364 4.598-.77 6.666-2.574 7.348-6.314zm1.386-12.122l1.408.616c-.638 1.012-1.364 2.112-1.98 2.86l-1.1-.55a22.774 22.774 0 001.672-2.926zm-4.092-.44h1.518v10.12h-1.518v-10.12zm-3.74 1.056l1.254-.528c.616.88 1.21 2.046 1.43 2.838l-1.298.594c-.198-.792-.77-2.002-1.386-2.904zm3.762 3.608l1.122.66c-1.078 1.848-3.146 3.806-5.038 4.84a6.937 6.937 0 00-.902-1.254c1.826-.792 3.85-2.552 4.818-4.246zm1.32.77c.792.418 3.476 2.112 4.114 2.574l-.902 1.21c-.792-.748-3.08-2.464-4.004-3.08l.792-.704zm6.38-1.364h7.832v1.54h-7.832v-1.54zm.55-4.07l1.672.242c-.726 4.312-2.024 8.25-3.96 10.824-.264-.308-.946-.858-1.342-1.122 1.87-2.332 3.014-6.05 3.63-9.944zm4.334 4.95l1.672.176c-1.056 7.59-3.388 12.32-8.932 15.18-.176-.396-.66-1.122-.99-1.474 5.236-2.464 7.348-6.908 8.25-13.882zm-4.004.484c.968 6.05 3.08 11.242 7.172 13.398-.396.33-.924.968-1.166 1.408-4.312-2.53-6.402-7.898-7.502-14.564l1.496-.242zM48.018 131.47l.88-1.122c2.64 1.012 5.368 2.464 6.952 3.674l-1.144 1.188c-1.518-1.232-4.136-2.706-6.688-3.74zm31.416-12.474c-.286 2.288-.726 4.862-1.408 7.216-1.342 4.51-3.102 6.842-5.126 6.842-1.98 0-3.938-2.244-3.938-5.896 0-4.774 4.246-8.932 9.636-8.932 5.148 0 8.426 3.63 8.426 8.096 0 4.598-3.036 7.678-8.272 8.36l-1.012-1.628a17.85 17.85 0 001.892-.264c2.816-.638 5.588-2.75 5.588-6.556 0-3.52-2.442-6.424-6.666-6.424-4.84 0-7.854 3.982-7.854 7.216 0 2.772 1.254 4.004 2.244 4.004 1.034 0 2.222-1.496 3.344-5.214.638-2.09 1.1-4.576 1.32-6.864l1.826.044zm26.818-.33c0 .814.66 1.452 1.452 1.452a1.45 1.45 0 001.452-1.452c0-.792-.66-1.452-1.452-1.452-.792 0-1.452.66-1.452 1.452zm-1.012 0a2.46 2.46 0 012.464-2.464 2.46 2.46 0 012.464 2.464 2.46 2.46 0 01-2.464 2.464 2.46 2.46 0 01-2.464-2.464zM93.822 127.4c.968-2.288 1.87-5.632 2.178-8.162l1.958.396c-.154.484-.308 1.144-.418 1.606-.286 1.364-1.056 4.62-1.98 6.886-.814 2.002-2.024 4.268-3.256 6.05l-1.87-.792c1.386-1.848 2.64-4.158 3.388-5.984zm10.846-.836c-.88-2.266-2.244-5.324-3.19-6.974l1.782-.594c.858 1.606 2.266 4.642 3.212 6.952.88 2.178 2.046 5.544 2.64 7.546l-1.958.616c-.55-2.222-1.584-5.214-2.486-7.546zm15.51-2.64c2.816 1.65 6.424 4.18 8.602 5.94l-1.298 1.54c-2.024-1.848-5.786-4.554-8.514-6.248l1.21-1.232zm10.054-4.004a6.913 6.913 0 00-.506 1.166c-.66 2.244-2.046 5.17-3.982 7.546-2.002 2.464-4.862 4.818-9.042 6.358l-1.562-1.386c4.092-1.232 7.084-3.564 9.064-5.918 1.694-2.024 3.08-4.818 3.586-6.864h-8.14l.704-1.584h6.996c.594 0 1.078-.066 1.43-.198l1.452.88zm-7.414-3.19c-.374.572-.77 1.32-.99 1.738-1.298 2.42-3.784 5.742-7.304 8.162l-1.452-1.122c3.762-2.354 6.028-5.654 7.04-7.678.22-.374.572-1.166.704-1.738l2.002.638zm12.452 7.744c.682.066 1.826.132 3.08.132h12.056c1.1 0 1.87-.088 2.376-.132v2.156c-.462-.022-1.386-.088-2.354-.088H138.35c-1.21 0-2.376.044-3.08.088v-2.156zm23.676-6.578c1.54 1.034 4.378 3.322 5.588 4.532l-1.364 1.408c-1.122-1.144-3.85-3.52-5.5-4.598l1.276-1.342zm-1.892 14.74c3.828-.572 6.688-1.914 8.778-3.212 3.41-2.134 6.072-5.39 7.348-8.118l1.056 1.892c-1.496 2.728-4.048 5.72-7.37 7.81-2.222 1.386-4.994 2.75-8.668 3.432l-1.144-1.804zm28.226-15.708c-.088.396-.176.88-.264 1.298-.154.792-.44 2.596-.748 3.96-.748 3.102-2.31 8.58-4.796 12.584l-1.804-.704c2.508-3.366 4.268-9.24 4.862-11.924.418-1.76.704-3.74.704-5.434l2.046.22zm7.568 2.53c1.364 1.782 3.278 5.786 4.026 7.81l-1.716.814c-.638-2.244-2.376-6.072-3.916-7.898l1.606-.726zm-15.488 2.288c.682.044 1.254.022 1.958 0 1.65-.044 6.116-.528 7.612-.528 1.958 0 3.564.748 3.564 3.718 0 2.618-.352 6.116-1.276 7.942-.682 1.474-1.782 1.848-3.212 1.848-.836 0-1.892-.154-2.574-.33l-.308-1.826c.924.286 2.09.44 2.706.44.814 0 1.474-.176 1.914-1.122.704-1.496 1.056-4.356 1.056-6.732 0-2.024-.924-2.398-2.332-2.398-1.474 0-5.61.506-6.952.638-.506.066-1.408.176-1.98.264l-.176-1.914zm15.73-5.478c.55.792 1.342 2.134 1.804 3.036l-1.188.528c-.44-.902-1.188-2.222-1.804-3.058l1.188-.506zm2.42-.88c.594.814 1.43 2.2 1.87 3.014l-1.21.528c-.462-.968-1.188-2.222-1.826-3.036l1.166-.506zM51.254 153.866h1.716v11.836c0 1.034.264 1.232 1.496 1.232h4.268c1.276 0 1.474-.726 1.65-4.224.418.308 1.122.616 1.606.726-.264 3.96-.77 5.148-3.168 5.148h-4.488c-2.398 0-3.08-.616-3.08-2.926v-11.792zm.044-4.114l1.078-1.166c1.892 1.232 4.29 3.036 5.566 4.07l-1.1 1.342c-1.276-1.122-3.696-2.97-5.544-4.246zm-3.564 5.434l1.54.396c-.484 2.442-1.298 5.61-2.53 7.546l-1.562-.638c1.254-1.914 2.112-4.906 2.552-7.304zm13.002 1.43l1.474-.682c1.54 2.2 3.014 5.082 3.63 7.018l-1.584.792c-.55-1.958-2.046-4.928-3.52-7.128zm1.166-6.776l1.628.682c-3.608 6.864-9.416 13.2-17.248 16.94a8.437 8.437 0 00-1.078-1.298c7.59-3.454 13.508-9.812 16.698-16.324zm5.588 10.714h20.02v1.386H67.49v-1.386zm.528-11.066H86.96v1.452H68.018v-1.452zm7.106 8.756l1.606.44c-1.43 2.288-3.454 5.17-4.862 6.974l-1.562-.528c1.408-1.782 3.454-4.73 4.818-6.886zm6.6 2.794l1.584.462c-1.936 4.84-6.622 6.644-14.872 7.26a4.56 4.56 0 00-.638-1.452c7.854-.418 12.166-1.98 13.926-6.27zm-10.23 3.872l.836-1.21c5.434.968 11.088 2.442 14.498 3.784l-.99 1.342c-3.366-1.386-8.756-2.882-14.344-3.916zm2.53-14.872h1.562v7.678h-1.562v-7.678zm5.126 0h1.562v7.678H79.15v-7.678zm-8.492 4.136v2.992h13.728v-2.992H70.658zm-1.54-1.342h16.918v5.698H69.118v-5.698zm29.392-.682c2.398.418 6.864.33 9.042 0v1.782c-2.354.264-6.622.264-9.02 0l-.022-1.782zm.858 8.976c-.198.792-.308 1.408-.308 2.002 0 1.012.704 2.002 3.718 2.002 1.958 0 3.674-.176 5.434-.594l.044 1.848c-1.364.286-3.212.462-5.5.462-3.674 0-5.324-1.232-5.324-3.3 0-.726.11-1.518.352-2.574l1.584.154zm-5.038-10.67c-.132.374-.308 1.078-.396 1.474-.418 2.046-1.1 5.962-1.1 8.448 0 1.056.066 1.98.198 3.058.374-.99.88-2.31 1.254-3.212l.924.726c-.55 1.562-1.364 3.872-1.562 4.928-.066.308-.11.726-.11.99.022.22.044.528.066.77l-1.562.11c-.44-1.562-.814-4.092-.814-7.084 0-3.234.726-6.996.99-8.822.066-.506.132-1.056.154-1.54l1.958.154zm18.282 2.684c.814.088 1.76.132 2.706.132 2.376 0 5.148-.286 7.678-1.122l.044 1.628c-2.156.594-5.038 1.078-7.722 1.056-.814 0-1.76-.022-2.574-.044l-.132-1.65zm7.81-3.586c-.286 1.078-.748 3.146-1.276 4.708-1.056 3.168-3.08 7.172-4.906 9.636l-1.694-.88c1.958-2.288 4.004-6.204 4.906-8.8.484-1.386.968-3.322 1.034-4.862l1.936.198zm5.192 6.798a21.492 21.492 0 00-.044 2.354c.044 1.43.242 4.774.242 6.226 0 1.76-1.122 3.19-3.85 3.19-2.42 0-4.378-.968-4.378-3.168 0-2.024 1.914-3.3 4.378-3.3 3.696 0 6.534 1.848 8.338 3.41l-.924 1.496c-1.694-1.54-4.224-3.498-7.458-3.498-1.628 0-2.728.748-2.728 1.76s.858 1.716 2.574 1.716c1.826 0 2.442-.968 2.442-2.156 0-1.672-.242-5.61-.33-8.03h1.738zm4.4.572c-1.188-1.012-3.586-2.354-5.038-3.036l.88-1.32c1.606.682 4.092 2.112 5.148 2.904l-.99 1.452zm6.006 1.298a15.59 15.59 0 002.046-.528c1.562-.484 5.192-1.804 7.766-1.804 3.124 0 5.39 1.87 5.39 4.862 0 4.246-4.092 6.402-10.01 6.754l-.726-1.694c4.774-.132 8.954-1.496 8.954-5.082 0-1.87-1.474-3.256-3.74-3.256-2.706 0-7.524 2.002-8.932 2.574l-.748-1.826zm28.204-8.514c-.132.484-.286 1.32-.374 1.738-.33 1.584-.792 4.07-1.408 6.27-.792 3.124-2.266 7.678-3.432 10.076l-1.914-.638c1.32-2.288 2.86-6.754 3.696-9.856.528-2.024 1.1-4.796 1.254-5.94.088-.616.132-1.364.088-1.826l2.09.176zm-4.862 3.674c2.42 0 5.654-.396 8.382-1.078v1.716c-2.728.616-6.05.99-8.426.99a30.45 30.45 0 01-2.552-.088l-.044-1.716a19.87 19.87 0 002.64.176zm6.952 3.014a44.5 44.5 0 014.026-.176c1.276 0 2.618.044 3.806.176l-.044 1.672c-1.144-.132-2.42-.264-3.718-.264a35.77 35.77 0 00-4.07.242v-1.65zm.44 5.346c-.176.726-.308 1.408-.308 1.98 0 1.034.594 2.046 3.718 2.046 1.452 0 2.948-.154 4.312-.418l-.066 1.76a29.572 29.572 0 01-4.268.308c-3.454 0-5.346-1.056-5.346-3.234 0-.836.132-1.672.33-2.596l1.628.154z" fill="#333"/><circle cx="791" cy="110" r="110" fill="#F5F5F5"/><path d="M774 69.156l13.724 13.724L808.311 52" stroke="#00A0E8" stroke-width="4.88" stroke-linecap="round" stroke-linejoin="round"/><path d="M737.166 118.996h19.668v1.54h-19.668v-1.54zm2.266 7.084h6.16v1.298h-6.16v-1.298zm0 3.52h6.16v1.298h-6.16V129.6zm9.834-6.908h1.562v9.042h-1.562v-9.042zm-4.268-.198h1.606v11.374c0 .836-.198 1.276-.814 1.54-.594.264-1.562.264-3.058.264-.088-.418-.33-1.034-.55-1.452 1.1.044 2.112.044 2.42.022.308-.022.396-.11.396-.396v-11.352zm8.734-.462h1.628v11.682c0 .968-.22 1.43-.902 1.694-.682.242-1.782.286-3.498.286-.088-.44-.352-1.144-.594-1.584 1.342.044 2.53.044 2.904.022.352-.022.462-.11.462-.418v-11.682zm-13.156-5.962l1.518-.572c.858.946 1.782 2.244 2.2 3.102l-1.628.594c-.352-.836-1.254-2.178-2.09-3.124zm11.308-.638l1.76.572c-.836 1.364-1.826 2.882-2.64 3.916l-1.452-.55c.792-1.056 1.782-2.75 2.332-3.938zm-13.332 7.062h6.974v1.43h-5.412v11.726h-1.562v-13.156zm23.32-5.478h14.41v18.414h-1.738v-16.742h-10.978v16.83h-1.694v-18.502zm1.122 7.634h12.276v1.628h-12.276v-1.628zm-.022 7.788h12.342v1.65h-12.342v-1.65zm31.086-8.514l1.144-.924c1.386 2.046 3.036 4.708 3.828 6.424l-1.232 1.034c-.77-1.716-2.376-4.488-3.74-6.534zm-4.708-4.268h10.362v1.54h-8.888v14.564h-1.474v-16.104zm9.702 0h1.496v14.234c0 .88-.154 1.364-.748 1.606-.572.264-1.518.286-2.904.286a6.011 6.011 0 00-.506-1.54c1.012.044 2.002.022 2.266.022.286 0 .396-.088.396-.396v-14.212zm-4.686-4.136h1.562c-.132 6.468-.506 12.078-4.158 15.136-.22-.308-.726-.814-1.078-1.034 3.344-2.794 3.586-8.074 3.674-14.102zm-10.076.022l1.452.572c-.836 1.606-1.87 3.564-2.728 4.774l-1.144-.528c.836-1.254 1.848-3.366 2.42-4.818zm2.464 2.508l1.386.616c-1.496 2.53-3.608 5.72-5.236 7.656l-1.012-.572c1.628-1.98 3.696-5.324 4.862-7.7zm-5.94 2.112l.836-1.078c1.232 1.034 2.618 2.464 3.212 3.454l-.88 1.254c-.594-1.034-1.98-2.574-3.168-3.63zm5.17 2.992l1.144-.462c.902 1.408 1.782 3.3 2.09 4.51l-1.232.572c-.308-1.232-1.122-3.168-2.002-4.62zm-5.236 2.244c1.914-.066 4.664-.176 7.458-.33l-.022 1.364c-2.64.176-5.302.33-7.304.462l-.132-1.496zm5.808 2.948l1.188-.374c.616 1.232 1.21 2.904 1.43 4.004l-1.276.44c-.198-1.1-.792-2.794-1.342-4.07zm-4.576-.242l1.43.264c-.308 2.068-.858 4.202-1.562 5.61-.286-.176-.946-.484-1.298-.638.726-1.342 1.166-3.3 1.43-5.236zm2.376-2.09h1.474v9.812h-1.474v-9.812zm24.266-7.964v4.18h8.8v-4.18h-8.8zm-1.606-1.584h12.078v7.348h-12.078v-7.348zm-3.19 9.68h7.832v9.438h-1.65v-7.854h-4.62v8.03h-1.562v-9.614zm10.23 0h8.272v9.482h-1.65v-7.898h-5.038v8.03h-1.584v-9.614zm-9.526 6.842h6.138v1.584h-6.138v-1.584zm10.34 0h6.534v1.584h-6.534v-1.584zm10.846-13.464c.836-.022 1.54-.066 1.98-.11 1.408-.154 5.566-.55 9.614-.902 2.42-.198 4.466-.33 5.94-.374l.022 1.76c-1.276-.022-3.19.022-4.312.33-3.146 1.012-5.06 4.378-5.06 6.974 0 4.29 4.026 5.676 7.59 5.808l-.638 1.804c-4.07-.154-8.69-2.31-8.69-7.238 0-3.41 2.09-6.226 4.092-7.414-2.354.242-7.964.792-10.34 1.298l-.198-1.936zm14.366 3.058c.506.726 1.342 2.09 1.826 3.08l-1.144.506c-.506-1.056-1.122-2.178-1.782-3.102l1.1-.484zm2.398-.924c.55.726 1.408 2.068 1.914 3.036l-1.122.55a21.66 21.66 0 00-1.87-3.08l1.078-.506zm-95.7 32.164h10.296v1.606H746.78v-1.606zm-9.57-1.65h10.23v1.54h-10.23v-1.54zm15.598-3.652h1.65v18.018c0 1.1-.286 1.584-.946 1.892-.66.286-1.782.33-3.674.33-.066-.462-.308-1.232-.55-1.738 1.386.044 2.618.044 2.992.022.374-.022.528-.132.528-.528V148.52zm-5.786 9.834l1.364-.638c1.056 1.518 2.112 3.542 2.464 4.884l-1.452.704c-.33-1.32-1.32-3.41-2.376-4.95zm-9.13-1.496l1.188-.924c2.684 2.816 5.742 6.666 7.018 9.196l-1.32 1.122c-1.232-2.574-4.224-6.534-6.886-9.394zm3.52-8.294h1.584v4.51h-1.584v-4.51zm2.508 5.654l1.628.242c-1.122 6.622-3.344 11.22-7.7 14.146-.22-.33-.814-.99-1.166-1.298 4.246-2.53 6.292-6.974 7.238-13.09zm23.342 3.168h1.628v8.558c0 .77.176.88 1.034.88h2.904c.88 0 1.012-.572 1.122-3.806.374.308 1.034.572 1.474.704-.176 3.63-.616 4.62-2.486 4.62h-3.212c-1.958 0-2.464-.55-2.464-2.42v-8.536zm-3.014 1.892l1.496.33c-.286 2.398-.836 5.302-1.98 7.062l-1.452-.66c1.078-1.694 1.672-4.4 1.936-6.732zm3.366-4.51l1.122-1.078c1.76.88 4.004 2.244 5.148 3.256l-1.188 1.232c-1.078-1.012-3.3-2.464-5.082-3.41zm6.996 4.62l1.474-.594c1.474 2.266 2.86 5.236 3.256 7.216l-1.606.66c-.352-1.958-1.672-4.994-3.124-7.282zm-5.83-10.846h1.694v3.74h-1.694v-3.74zm-7.348 2.838h17.49v1.584h-17.49v-1.584zm-.792 0h1.65v5.698c0 3.388-.308 8.36-2.2 11.704-.286-.286-1.012-.748-1.408-.924 1.804-3.168 1.958-7.612 1.958-10.78v-5.698zm26.84-1.518c-.11.726-.176 1.496-.22 2.222-.088 2.486-.264 7.7-.264 10.978 0 2.42 1.518 3.256 3.608 3.256 4.026 0 6.314-2.244 7.898-4.532l1.232 1.496c-1.496 2.09-4.356 4.84-9.174 4.84-3.168 0-5.346-1.298-5.346-4.906 0-3.256.22-8.822.22-11.132 0-.814-.066-1.584-.198-2.222h2.244zm24.244-.154c-.132.484-.286 1.32-.374 1.738-.33 1.584-.792 4.07-1.408 6.27-.792 3.124-2.266 7.678-3.432 10.076l-1.914-.638c1.32-2.288 2.86-6.754 3.696-9.856.528-2.024 1.1-4.796 1.254-5.94.088-.616.132-1.364.088-1.826l2.09.176zm-4.862 3.674c2.42 0 5.654-.396 8.382-1.078v1.716c-2.728.616-6.05.99-8.426.99a30.45 30.45 0 01-2.552-.088l-.044-1.716a19.87 19.87 0 002.64.176zm6.952 3.014a44.5 44.5 0 014.026-.176c1.276 0 2.618.044 3.806.176l-.044 1.672c-1.144-.132-2.42-.264-3.718-.264a35.77 35.77 0 00-4.07.242v-1.65zm.44 5.346c-.176.726-.308 1.408-.308 1.98 0 1.034.594 2.046 3.718 2.046 1.452 0 2.948-.154 4.312-.418l-.066 1.76a29.572 29.572 0 01-4.268.308c-3.454 0-5.346-1.056-5.346-3.234 0-.836.132-1.672.33-2.596l1.628.154zm14.652-10.076c-.11.506-.176 1.562-.198 2.134-.022 1.364 0 3.388.154 5.192.374 3.674 1.43 6.116 3.014 6.116 1.122 0 2.156-2.266 2.728-4.466l1.386 1.562c-1.342 3.718-2.662 4.994-4.158 4.994-2.09 0-4.07-2.068-4.686-7.766-.198-1.892-.242-4.576-.242-5.852 0-.506 0-1.452-.132-1.958l2.134.044zm11.44.594c1.98 2.552 3.564 7.238 3.894 10.956l-1.782.704c-.374-3.96-1.716-8.492-3.806-11.066l1.694-.594z" fill="#333"/><circle cx="337" cy="110" r="110" fill="#F5F5F5"/><path d="M320 69.156l13.724 13.724L354.311 52" stroke="#00A0E8" stroke-width="4.88" stroke-linecap="round" stroke-linejoin="round"/><path d="M250.117 116.73c-.088.484-.154 1.54-.176 2.2v4.026c0 2.398.352 6.798.352 8.734 0 1.782-1.1 3.322-4.026 3.322-3.058 0-5.28-.946-5.28-3.454 0-2.002 1.716-3.608 5.522-3.608 4.356 0 8.272 2.2 10.516 4.246l-1.056 1.65c-2.2-2.2-5.808-4.356-9.658-4.356-2.288 0-3.586.77-3.586 2.002 0 1.21 1.232 1.892 3.366 1.892 1.606 0 2.398-.77 2.398-2.288 0-1.628-.264-5.896-.264-8.14 0-1.276-.022-3.08-.022-4.026-.022-.814-.088-1.782-.176-2.2h2.09zm-1.144 4.444c1.518 0 5.104-.11 7.48-.396l.066 1.65c-2.376.22-5.962.374-7.546.374v-1.628zm18.248-4.532c-.462 1.628-.88 4.598-1.012 6.138.902-2.266 3.19-5.016 5.984-5.016 2.904 0 5.016 2.948 5.016 7.568 0 6.094-3.85 8.8-9.284 9.79l-1.056-1.584c4.796-.726 8.514-2.662 8.514-8.184 0-3.476-1.166-5.984-3.476-5.984-2.75 0-5.302 4.004-5.566 6.886-.11.836-.11 1.606.044 2.706l-1.716.132c-.11-.836-.22-2.068-.22-3.498 0-2.09.418-5.324.682-7.128.088-.66.132-1.276.176-1.892l1.914.066zm15.994.99h19.118v1.43h-19.118v-1.43zm8.602-2.112h1.694v2.794h-1.694v-2.794zm-7.634 10.714h16.346v1.408h-14.74v8.14h-1.606v-9.548zm15.664 0h1.65v7.568c0 .902-.198 1.386-.902 1.672-.704.242-1.892.264-3.718.264-.066-.462-.308-1.122-.55-1.562 1.452.044 2.684.044 3.058 0 .374 0 .462-.11.462-.418v-7.524zm-11.264 2.838h1.474v5.764h-1.474v-5.764zm.792 0h7.612v4.642h-7.612v-1.188h6.116v-2.266h-6.116v-1.188zm-.924-7.568v2.134h8.602v-2.134h-8.602zm-1.584-1.21h11.858v4.554h-11.858v-4.554zm20.68-4.774h1.672v20.218h-1.672V115.52zm-2.024 4.18l1.254.198c-.11 1.782-.506 4.334-1.1 5.918l-1.298-.44c.594-1.474.99-3.894 1.144-5.676zm3.85-.132l1.144-.506c.682 1.188 1.364 2.75 1.606 3.696l-1.232.616c-.242-.968-.902-2.574-1.518-3.806zm4.488-3.014l1.606.264c-.572 3.212-1.54 6.336-2.772 8.404-.33-.242-1.078-.594-1.496-.77 1.298-1.936 2.178-4.928 2.662-7.898zm.022 3.63h10.23v1.584h-10.736l.506-1.584zm3.564-4.576h1.65v18.7h-1.65v-18.7zm-4.686 10.736h10.868v1.562h-10.868v-1.562zm-1.65 7.062h13.53v1.584h-13.53v-1.584zm19.228-17.886l1.716.396c-.792 1.826-1.826 3.96-2.706 5.346l-1.408-.418c.836-1.408 1.87-3.718 2.398-5.324zm-3.696 4.664c2.31-.066 5.808-.22 9.262-.374l-.022 1.474c-3.278.198-6.688.374-9.086.506l-.154-1.606zm1.342 3.19h6.974v1.408h-5.434v10.956h-1.54v-12.364zm6.226 0h1.628v10.494c0 .836-.176 1.298-.77 1.562-.616.264-1.584.286-2.97.286-.088-.44-.33-1.1-.55-1.518 1.034.044 1.98.022 2.288 0 .286 0 .374-.066.374-.352v-10.472zm-5.5 3.278h6.358v1.298h-6.358v-1.298zm0 3.3h6.358v1.32h-6.358v-1.32zm9.196-14.388h1.628v7.282c0 .704.176.858 1.188.858h3.498c.858 0 1.012-.374 1.1-2.552.352.286 1.012.528 1.496.638-.198 2.684-.682 3.41-2.464 3.41h-3.784c-2.112 0-2.662-.506-2.662-2.332v-7.304zm6.732 1.628l1.1 1.21c-1.87.88-4.51 1.738-6.776 2.376-.088-.352-.308-.836-.506-1.166 2.178-.682 4.686-1.65 6.182-2.42zm-6.732 8.602h1.628v7.436c0 .748.198.88 1.254.88h3.608c.946 0 1.078-.418 1.188-2.904.374.264 1.034.528 1.496.616-.22 2.97-.704 3.762-2.552 3.762h-3.916c-2.134 0-2.706-.506-2.706-2.332v-7.458zm6.996 1.21l1.1 1.232c-1.848 1.056-4.664 1.958-7.04 2.596-.088-.33-.33-.858-.506-1.188 2.288-.66 4.95-1.672 6.446-2.64zm-11.814-9.394l1.364-.55c1.166 1.54 2.398 3.564 2.904 4.928l-1.452.638c-.462-1.342-1.65-3.454-2.816-5.016zm16.808 2.53c.814.088 1.76.132 2.706.132 2.376 0 5.148-.286 7.678-1.122l.044 1.628c-2.156.594-5.038 1.078-7.722 1.056-.814 0-1.76-.022-2.574-.044l-.132-1.65zm7.81-3.586c-.286 1.078-.748 3.146-1.276 4.708-1.056 3.168-3.08 7.172-4.906 9.636l-1.694-.88c1.958-2.288 4.004-6.204 4.906-8.8.484-1.386.968-3.322 1.034-4.862l1.936.198zm5.192 6.798a21.492 21.492 0 00-.044 2.354c.044 1.43.242 4.774.242 6.226 0 1.76-1.122 3.19-3.85 3.19-2.42 0-4.378-.968-4.378-3.168 0-2.024 1.914-3.3 4.378-3.3 3.696 0 6.534 1.848 8.338 3.41l-.924 1.496c-1.694-1.54-4.224-3.498-7.458-3.498-1.628 0-2.728.748-2.728 1.76s.858 1.716 2.574 1.716c1.826 0 2.442-.968 2.442-2.156 0-1.672-.242-5.61-.33-8.03h1.738zm4.4.572c-1.188-1.012-3.586-2.354-5.038-3.036l.88-1.32c1.606.682 4.092 2.112 5.148 2.904l-.99 1.452zm4.51-6.27h18.018v1.408h-18.018v-1.408zm.704 16.126h16.654v1.386h-16.654v-1.386zm3.63-13.266h9.262v1.254h-9.262v-1.254zm0 2.772h9.262v1.254h-9.262v-1.254zm-5.368 2.838h19.998v1.386h-19.998v-1.386zm4.62 3.938h10.802v1.364h-10.802v-1.364zm-.242-14.52h1.65v11.352h-1.65v-11.352zm9.68 0h1.65v11.352h-1.65v-11.352zm-4.95 12.672h1.694v6.336h-1.694v-6.336zm-3.564-1.716l1.386.528c-1.342 2.266-3.762 4.356-6.072 5.434-.242-.374-.704-.946-1.078-1.254 2.222-.88 4.576-2.772 5.764-4.708zm8.998 0c1.166 1.87 3.454 3.608 5.742 4.422-.374.308-.858.88-1.1 1.276-2.332-.99-4.664-3.036-5.94-5.192l1.298-.506zm9.988-9.372h5.742v1.21h-5.742v-1.21zm2.398-1.628l1.474.22a61.015 61.015 0 01-1.122 2.178l-1.254-.242c.308-.616.704-1.54.902-2.156zm-3.036 1.628h1.364v4.092c0 2.31-.396 5.456-2.486 7.568-.198-.264-.748-.748-1.056-.924 1.914-1.936 2.178-4.598 2.178-6.666v-4.07zm10.164-.792h4.422v1.232h-4.422v-1.232zm-1.518 5.654h6.996v1.21h-6.996v-1.21zm.902-5.654h1.342v1.584c0 1.342-.418 2.948-2.2 4.07-.176-.286-.682-.858-.946-1.056 1.54-.902 1.804-2.046 1.804-3.036v-1.562zm-3.872.792h1.386v9.482c0 .77-.132 1.166-.66 1.408-.506.22-1.342.242-2.552.242a5.322 5.322 0 00-.44-1.342c.924.044 1.694.044 1.936.022.264 0 .33-.088.33-.33v-9.482zm-7.678 4.862c2.53-.088 6.358-.264 10.098-.462l-.044 1.276c-3.63.198-7.37.396-9.966.528l-.088-1.342zm4.224-2.794l1.034-.374c.484.682.99 1.606 1.21 2.178l-1.078.44c-.22-.594-.704-1.54-1.166-2.244zm.55 4.444h1.122v3.036h-1.122v-3.036zm11.066-7.304h1.364v3.234c0 .374.044.418.374.418h.968c.33 0 .396-.154.44-1.65.286.22.836.396 1.21.484-.132 1.914-.484 2.398-1.452 2.398h-1.364c-1.21 0-1.54-.352-1.54-1.65v-3.234zm1.364 5.654h.33l.286-.044.858.374c-1.364 3.52-4.466 5.214-8.206 6.05-.154-.352-.55-.968-.814-1.232 3.52-.66 6.424-2.09 7.546-4.95v-.198zm-4.576 1.1c1.254 2.244 4.092 3.696 7.7 4.158-.33.33-.748.902-.924 1.298-3.784-.682-6.666-2.376-8.096-5.082l1.32-.374zm-12.518 10.692h20.02v1.342h-20.02v-1.342zm2.596-4.972h14.828v5.654h-1.628v-4.334h-2.882v4.334h-1.54v-4.334h-2.86v4.334h-1.54v-4.334h-2.838v4.334h-1.54v-5.654zm28.534-12.188c-.198.858-.44 2.068-1.012 3.542-.55 1.342-1.364 2.816-2.244 3.96.858-.506 2.112-.814 3.08-.814 1.694 0 3.014 1.012 3.014 2.794 0 1.144.044 3.674.066 5.038h-1.694c.088-1.166.11-3.432.088-4.576-.022-1.276-.902-1.87-2.046-1.87-1.408 0-2.794.704-3.806 1.606-.638.616-1.254 1.408-1.98 2.31l-1.518-1.122c3.168-3.036 4.642-5.588 5.39-7.458.484-1.21.792-2.53.858-3.564l1.804.154zm-7.546 2.376c1.188.154 2.706.22 3.718.22 2.97 0 6.776-.176 9.878-.726v1.628c-3.08.462-7.172.66-9.966.66-.946 0-2.398-.044-3.63-.132v-1.65zm16.808 5.302c-.55.176-1.342.484-1.936.704-1.562.616-3.652 1.452-5.786 2.552-2.178 1.144-3.718 2.332-3.718 3.85 0 1.716 1.694 1.98 3.96 1.98 1.716 0 4.092-.198 6.028-.55l-.066 1.782c-1.672.198-4.114.374-6.028.374-3.124 0-5.654-.682-5.654-3.344 0-2.684 2.728-4.334 5.346-5.676 2.09-1.078 3.872-1.76 5.324-2.442.66-.308 1.21-.55 1.826-.858l.704 1.628zM300.04 150.962h14.124v1.54H300.04v-1.54zm2.178 5.082v3.3h9.614v-3.3h-9.614zm-1.518-1.408h12.738v6.116H300.7v-6.116zm1.364 6.556c2.068 3.454 6.578 5.5 12.298 6.138-.352.352-.77 1.012-.99 1.474-5.83-.836-10.34-3.124-12.672-7.15l1.364-.462zm4.092-12.584h1.628v9.746c0 4.246-.726 8.47-7.546 10.494a8.062 8.062 0 00-.99-1.386c6.534-1.65 6.908-5.412 6.908-9.13v-9.724zm-7.062-.132l1.562.484c-1.496 3.718-3.85 7.414-6.292 9.856-.154-.374-.616-1.232-.924-1.628 2.222-2.09 4.378-5.368 5.654-8.712zm-2.31 5.764l1.562-1.562.022.022v16.17h-1.584v-14.63zm23.122-2.574c-.11.506-.176 1.562-.198 2.134-.022 1.364 0 3.388.154 5.192.374 3.674 1.43 6.116 3.014 6.116 1.122 0 2.156-2.266 2.728-4.466l1.386 1.562c-1.342 3.718-2.662 4.994-4.158 4.994-2.09 0-4.07-2.068-4.686-7.766-.198-1.892-.242-4.576-.242-5.852 0-.506 0-1.452-.132-1.958l2.134.044zm11.44.594c1.98 2.552 3.564 7.238 3.894 10.956l-1.782.704c-.374-3.96-1.716-8.492-3.806-11.066l1.694-.594zm15.378-2.552c-.132.484-.286 1.32-.374 1.738-.33 1.584-.792 4.07-1.408 6.27-.792 3.124-2.266 7.678-3.432 10.076l-1.914-.638c1.32-2.288 2.86-6.754 3.696-9.856.528-2.024 1.1-4.796 1.254-5.94.088-.616.132-1.364.088-1.826l2.09.176zm-4.862 3.674c2.42 0 5.654-.396 8.382-1.078v1.716c-2.728.616-6.05.99-8.426.99a30.45 30.45 0 01-2.552-.088l-.044-1.716a19.87 19.87 0 002.64.176zm6.952 3.014a44.5 44.5 0 014.026-.176c1.276 0 2.618.044 3.806.176l-.044 1.672c-1.144-.132-2.42-.264-3.718-.264a35.77 35.77 0 00-4.07.242v-1.65zm.44 5.346c-.176.726-.308 1.408-.308 1.98 0 1.034.594 2.046 3.718 2.046 1.452 0 2.948-.154 4.312-.418l-.066 1.76a29.572 29.572 0 01-4.268.308c-3.454 0-5.346-1.056-5.346-3.234 0-.836.132-1.672.33-2.596l1.628.154zm14.652-10.076c-.11.506-.176 1.562-.198 2.134-.022 1.364 0 3.388.154 5.192.374 3.674 1.43 6.116 3.014 6.116 1.122 0 2.156-2.266 2.728-4.466l1.386 1.562c-1.342 3.718-2.662 4.994-4.158 4.994-2.09 0-4.07-2.068-4.686-7.766-.198-1.892-.242-4.576-.242-5.852 0-.506 0-1.452-.132-1.958l2.134.044zm11.44.594c1.98 2.552 3.564 7.238 3.894 10.956l-1.782.704c-.374-3.96-1.716-8.492-3.806-11.066l1.694-.594z" fill="#333"/><circle cx="564" cy="110" r="110" fill="#F5F5F5"/><path d="M547 69.156l13.724 13.724L581.311 52" stroke="#00A0E8" stroke-width="4.88" stroke-linecap="round" stroke-linejoin="round"/><path d="M546.84 116.818l1.144-.88c1.276.946 2.75 2.332 3.454 3.322l-1.232.968c-.616-.99-2.09-2.442-3.366-3.41zm-14.828 4.73h19.976v1.496h-19.976v-1.496zm.99-3.806h9.614v1.452h-9.614v-1.452zm-.55 7.59h10.67v1.408h-10.67v-1.408zm4.598-9.79h1.562v6.842h-1.562v-6.842zm0 7.788h1.562v2.838h-1.562v-2.838zm.33 5.434l1.034-.902c1.54 1.188 3.52 2.882 4.466 3.982l-1.078 1.056c-.924-1.122-2.86-2.882-4.422-4.136zm4.334-1.584l1.254.77a21.714 21.714 0 01-2.464 2.332l-1.056-.682c.726-.638 1.716-1.694 2.266-2.42zm-4.598-1.298l1.43.484c-1.342 2.068-3.586 3.982-5.632 5.214-.22-.308-.748-.924-1.078-1.21 2.002-1.034 4.092-2.684 5.28-4.488zm-3.784 8.008c1.54-.484 3.85-1.254 6.094-2.046l.242 1.32a308.096 308.096 0 01-5.698 2.068l-.638-1.342zm1.43-4.686l1.496-.88v5.566h-1.496v-4.686zm8.976-13.64h1.672c-.088 10.472 1.694 18.59 4.466 18.59.616 0 .858-1.012.99-3.652.352.352.946.704 1.342.858-.264 3.41-.858 4.4-2.464 4.4-4.378 0-5.918-9.328-6.006-20.196zm5.588 8.624l1.518.528c-1.87 4.62-5.082 8.602-9.108 11.022-.286-.418-.77-.968-1.21-1.298 3.916-2.134 7.084-5.962 8.8-10.252zm7.502-2.046h7.656v1.452h-7.656v-1.452zm-1.144 9.702h8.602v1.452h-8.602v-1.452zm-.902-15.51h1.474v18.634h-1.474v-18.634zm5.192-.638h1.43v15.642h-1.43v-15.642zm.066 7.216l.968.396c-.814 2.442-2.332 5.346-3.872 6.82-.154-.396-.484-.99-.704-1.364 1.386-1.254 2.882-3.718 3.608-5.852zm3.124-5.896l1.342.374c-.55 1.32-1.188 2.904-1.716 3.916l-.99-.374c.484-1.056 1.078-2.772 1.364-3.916zm-6.072.374l1.1-.352c.506 1.21.924 2.794 1.012 3.828l-1.144.396c-.088-1.056-.484-2.64-.968-3.872zm4.202 6.974c.572.44 2.618 2.332 3.102 2.816l-.924 1.166c-.55-.792-2.266-2.684-2.97-3.366l.792-.616zm4.906-1.43h8.096v1.54H566.2v-1.54zm4.048.792h1.584v12.056h-1.584v-12.056zm-4.84-6.314l2.024.616c-.022.154-.154.264-.44.308v6.798c0 3.278-.396 7.744-3.3 10.824-.198-.374-.77-.924-1.188-1.122 2.64-2.816 2.904-6.622 2.904-9.724v-7.7zm7.216-1.54l1.32 1.232c-2.024.902-5.082 1.65-7.678 2.134-.088-.374-.33-.924-.528-1.276 2.464-.506 5.302-1.276 6.886-2.09zm12.496.748c-.198.858-.44 2.068-1.012 3.542-.55 1.342-1.364 2.816-2.244 3.96.858-.506 2.112-.814 3.08-.814 1.694 0 3.014 1.012 3.014 2.794 0 1.144.044 3.674.066 5.038h-1.694c.088-1.166.11-3.432.088-4.576-.022-1.276-.902-1.87-2.046-1.87-1.408 0-2.794.704-3.806 1.606-.638.616-1.254 1.408-1.98 2.31l-1.518-1.122c3.168-3.036 4.642-5.588 5.39-7.458.484-1.21.792-2.53.858-3.564l1.804.154zm-7.546 2.376c1.188.154 2.706.22 3.718.22 2.97 0 6.776-.176 9.878-.726v1.628c-3.08.462-7.172.66-9.966.66-.946 0-2.398-.044-3.63-.132v-1.65zm16.808 5.302c-.55.176-1.342.484-1.936.704-1.562.616-3.652 1.452-5.786 2.552-2.178 1.144-3.718 2.332-3.718 3.85 0 1.716 1.694 1.98 3.96 1.98 1.716 0 4.092-.198 6.028-.55l-.066 1.782c-1.672.198-4.114.374-6.028.374-3.124 0-5.654-.682-5.654-3.344 0-2.684 2.728-4.334 5.346-5.676 2.09-1.078 3.872-1.76 5.324-2.442.66-.308 1.21-.55 1.826-.858l.704 1.628zm-102.696 32.12h12.782v1.54h-12.782v-1.54zm0 4.774h12.782v1.54h-12.782v-1.54zm0 4.818h12.782v1.54h-12.782v-1.54zm-1.122-14.476h15.18v17.138h-1.716v-15.554h-11.792v15.664h-1.672v-17.248zm6.446-3.036l1.914.242c-.484 1.32-1.056 2.75-1.54 3.696l-1.474-.286c.396-1.034.88-2.574 1.1-3.652zm20.9 18.018h12.43v1.628h-12.43v-1.628zm.858-10.78h11.11v1.584h-11.11v-1.584zm4.73-7.04h1.672v18.612h-1.672v-18.612zm-13.288 3.96h7.304v1.518h-7.304v-1.518zm3.476 6.6l1.628-1.958v11.484h-1.628v-9.526zm0-10.714h1.628v4.862h-1.628v-4.862zm1.496 9.196c.748.528 3.3 2.772 3.938 3.322l-1.012 1.342c-.814-.946-2.97-3.036-3.872-3.828l.946-.836zm1.716-5.082h.33l.308-.066.946.616c-1.672 4.048-5.038 7.7-8.184 9.724-.176-.418-.572-1.188-.858-1.474 2.992-1.76 6.138-5.104 7.458-8.448v-.352zm15.818-.132c.836-.022 1.54-.066 1.98-.11 1.408-.154 5.566-.55 9.614-.902 2.42-.198 4.466-.33 5.94-.374l.022 1.76c-1.276-.022-3.19.022-4.312.33-3.146 1.012-5.06 4.378-5.06 6.974 0 4.29 4.026 5.676 7.59 5.808l-.638 1.804c-4.07-.154-8.69-2.31-8.69-7.238 0-3.41 2.09-6.226 4.092-7.414-2.354.242-7.964.792-10.34 1.298l-.198-1.936zm14.366 3.058c.506.726 1.342 2.09 1.826 3.08l-1.144.506c-.506-1.056-1.122-2.178-1.782-3.102l1.1-.484zm2.398-.924c.55.726 1.408 2.068 1.914 3.036l-1.122.55a21.66 21.66 0 00-1.87-3.08l1.078-.506zm13.09-4.796h10.802v1.584H562.57v-1.584zm6.424 6.556h1.672v10.23c0 1.034-.242 1.54-.99 1.804-.748.242-2.002.264-4.158.264-.066-.462-.286-1.144-.528-1.628 1.562.044 3.036.044 3.432.022.44-.022.572-.11.572-.484v-10.208zm-7.392-.484h12.408v1.562h-12.408v-1.562zm-4.4 1.694l1.452-1.43.198.088v12.54h-1.65v-11.198zm2.552-4.4l1.562.594c-1.716 2.794-4.312 5.632-6.622 7.48-.242-.33-.814-1.056-1.166-1.364 2.288-1.628 4.708-4.18 6.226-6.71zm-.902-4.708l1.584.638c-1.474 1.936-3.74 4.07-5.698 5.478-.242-.352-.682-.99-.968-1.32 1.826-1.232 3.96-3.212 5.082-4.796zm21.054 3.146c-.11.506-.176 1.562-.198 2.134-.022 1.364 0 3.388.154 5.192.374 3.674 1.43 6.116 3.014 6.116 1.122 0 2.156-2.266 2.728-4.466l1.386 1.562c-1.342 3.718-2.662 4.994-4.158 4.994-2.09 0-4.07-2.068-4.686-7.766-.198-1.892-.242-4.576-.242-5.852 0-.506 0-1.452-.132-1.958l2.134.044zm11.44.594c1.98 2.552 3.564 7.238 3.894 10.956l-1.782.704c-.374-3.96-1.716-8.492-3.806-11.066l1.694-.594zm15.378-2.552c-.132.484-.286 1.32-.374 1.738-.33 1.584-.792 4.07-1.408 6.27-.792 3.124-2.266 7.678-3.432 10.076l-1.914-.638c1.32-2.288 2.86-6.754 3.696-9.856.528-2.024 1.1-4.796 1.254-5.94.088-.616.132-1.364.088-1.826l2.09.176zm-4.862 3.674c2.42 0 5.654-.396 8.382-1.078v1.716c-2.728.616-6.05.99-8.426.99a30.45 30.45 0 01-2.552-.088l-.044-1.716a19.87 19.87 0 002.64.176zm6.952 3.014a44.5 44.5 0 014.026-.176c1.276 0 2.618.044 3.806.176l-.044 1.672c-1.144-.132-2.42-.264-3.718-.264a35.77 35.77 0 00-4.07.242v-1.65zm.44 5.346c-.176.726-.308 1.408-.308 1.98 0 1.034.594 2.046 3.718 2.046 1.452 0 2.948-.154 4.312-.418l-.066 1.76a29.572 29.572 0 01-4.268.308c-3.454 0-5.346-1.056-5.346-3.234 0-.836.132-1.672.33-2.596l1.628.154zm14.652-10.076c-.11.506-.176 1.562-.198 2.134-.022 1.364 0 3.388.154 5.192.374 3.674 1.43 6.116 3.014 6.116 1.122 0 2.156-2.266 2.728-4.466l1.386 1.562c-1.342 3.718-2.662 4.994-4.158 4.994-2.09 0-4.07-2.068-4.686-7.766-.198-1.892-.242-4.576-.242-5.852 0-.506 0-1.452-.132-1.958l2.134.044zm11.44.594c1.98 2.552 3.564 7.238 3.894 10.956l-1.782.704c-.374-3.96-1.716-8.492-3.806-11.066l1.694-.594z" fill="#333"/></svg>