<svg width="532" height="532" fill="none" xmlns="http://www.w3.org/2000/svg"><circle cx="125" cy="125" r="125" fill="#F5F5F5"/><path d="M108 69.156l13.724 13.724L142.311 52" stroke="#00A0E8" stroke-width="4.88" stroke-linecap="round" stroke-linejoin="round"/><path d="M36.5 130.214h7.487v1.508h-8.553l1.066-1.508zm6.89 0h.416l.39-.078 1.144.676c-2.315 4.836-7.515 7.202-13.235 8.32-.181-.468-.675-1.3-1.013-1.69 5.511-.884 10.4-2.912 12.297-6.916v-.312zm-7.072 1.04c1.924 3.224 6.11 5.382 11.154 6.136-.443.416-.962 1.196-1.223 1.716-5.174-1.014-9.36-3.484-11.57-7.332l1.639-.52zm-.39-5.798v1.768h7.592v-1.768h-7.593zm0-2.99v1.716h7.592v-1.716h-7.593zm-1.794-1.352h11.231v7.436H34.133v-7.436zm.754-3.328h12.064v1.664H34.888v-1.664zm.598-2.626l1.872.312c-.988 2.418-2.366 5.174-4.498 7.41-.338-.39-.962-.91-1.404-1.118 1.976-1.976 3.327-4.576 4.03-6.604zm2.002 12.818l1.923.364c-1.482 2.288-3.718 4.602-6.89 6.422-.285-.416-.884-.988-1.3-1.274 2.99-1.56 5.122-3.692 6.266-5.512zm-10.66-.052l1.768-2.132v13.312h-1.768v-11.18zm-3.302-7.8h7.072v1.716h-7.072v-1.716zm3.224-4.81h1.767v5.746H26.75v-5.746zm1.611 10.608c.677.728 3.146 3.77 3.692 4.524l-1.143 1.326c-.677-1.222-2.73-4.03-3.537-5.018l.988-.832zm1.56-5.798h.364l.338-.104 1.014.65c-1.56 4.758-4.732 9.36-7.721 11.96-.209-.468-.703-1.326-1.015-1.664 2.808-2.262 5.747-6.474 7.02-10.452v-.39zm1.483 4.732l1.143.832c-.701 1.118-1.533 2.366-2.21 3.172l-.91-.702c.625-.884 1.509-2.34 1.977-3.302zm17.757 4.186h12.767v1.638H49.16v-1.638zm.157-9.074H61.85v1.586H49.317v-1.586zm4.68 6.838l1.82.39c-1.17 2.548-2.808 5.72-4.005 7.774l-1.716-.598c1.17-1.976 2.809-5.174 3.9-7.566zm3.9 3.198l1.82.234c-.885 5.07-3.615 7.566-9.62 8.84-.13-.52-.52-1.222-.884-1.612 5.434-.91 7.878-3.042 8.684-7.462zm1.637-14.326l1.665.728c-.755 1.196-1.613 2.496-2.34 3.38l-1.3-.65a26.915 26.915 0 001.975-3.458zm-4.835-.52h1.793v11.96H54.7v-11.96zm-4.42 1.248l1.481-.624c.728 1.04 1.43 2.418 1.69 3.354l-1.534.702c-.233-.936-.91-2.366-1.638-3.432zm4.445 4.264l1.326.78c-1.273 2.184-3.718 4.498-5.954 5.72a8.198 8.198 0 00-1.066-1.482c2.159-.936 4.55-3.016 5.694-5.018zm1.56.91c.937.494 4.109 2.496 4.863 3.042l-1.067 1.43c-.936-.884-3.64-2.912-4.732-3.64l.937-.832zm7.54-1.612h9.257v1.82h-9.256v-1.82zm.65-4.81l1.977.286c-.858 5.096-2.392 9.75-4.68 12.792-.313-.364-1.118-1.014-1.587-1.326 2.21-2.756 3.563-7.15 4.29-11.752zm5.123 5.85l1.975.208c-1.247 8.97-4.003 14.56-10.555 17.94-.209-.468-.78-1.326-1.17-1.742 6.188-2.912 8.683-8.164 9.75-16.406zm-4.733.572c1.145 7.15 3.64 13.286 8.477 15.834-.468.39-1.093 1.144-1.379 1.664-5.095-2.99-7.566-9.334-8.865-17.212l1.767-.286zM51.658 134.01l1.04-1.326c3.12 1.196 6.343 2.912 8.215 4.342l-1.351 1.404c-1.794-1.456-4.889-3.198-7.904-4.42zm37.127-14.742c-.337 2.704-.858 5.746-1.663 8.528-1.587 5.33-3.666 8.086-6.058 8.086-2.34 0-4.654-2.652-4.654-6.968 0-5.642 5.017-10.556 11.388-10.556 6.084 0 9.957 4.29 9.957 9.568 0 5.434-3.587 9.074-9.775 9.88l-1.197-1.924a21.095 21.095 0 002.236-.312c3.328-.754 6.605-3.25 6.605-7.748 0-4.16-2.886-7.592-7.878-7.592-5.72 0-9.282 4.706-9.282 8.528 0 3.276 1.481 4.732 2.651 4.732 1.223 0 2.627-1.768 3.953-6.162.754-2.47 1.3-5.408 1.56-8.112l2.157.052zm31.694-.39c0 .962.78 1.716 1.716 1.716.936 0 1.716-.754 1.716-1.716 0-.936-.78-1.716-1.716-1.716-.936 0-1.716.78-1.716 1.716zm-1.196 0c0-1.612 1.3-2.912 2.912-2.912 1.612 0 2.912 1.3 2.912 2.912 0 1.612-1.3 2.912-2.912 2.912a2.907 2.907 0 01-2.912-2.912zM105.789 129.2c1.144-2.704 2.21-6.656 2.574-9.646l2.314.468c-.182.572-.364 1.352-.494 1.898-.338 1.612-1.248 5.46-2.34 8.138-.962 2.366-2.392 5.044-3.848 7.15l-2.21-.936c1.638-2.184 3.12-4.914 4.004-7.072zm12.818-.988c-1.04-2.678-2.652-6.292-3.77-8.242l2.106-.702c1.014 1.898 2.678 5.486 3.796 8.216 1.04 2.574 2.418 6.552 3.12 8.918l-2.314.728c-.65-2.626-1.872-6.162-2.938-8.918zm18.33-3.12c3.328 1.95 7.592 4.94 10.166 7.02l-1.534 1.82c-2.392-2.184-6.838-5.382-10.062-7.384l1.43-1.456zm11.882-4.732a8.17 8.17 0 00-.598 1.378c-.78 2.652-2.418 6.11-4.706 8.918-2.366 2.912-5.746 5.694-10.686 7.514l-1.846-1.638c4.836-1.456 8.372-4.212 10.712-6.994 2.002-2.392 3.64-5.694 4.238-8.112h-9.62l.832-1.872h8.268c.702 0 1.274-.078 1.69-.234l1.716 1.04zm-8.762-3.77c-.442.676-.91 1.56-1.17 2.054-1.534 2.86-4.472 6.786-8.632 9.646l-1.716-1.326c4.446-2.782 7.124-6.682 8.32-9.074.26-.442.676-1.378.832-2.054l2.366.754zm14.716 9.152a40.63 40.63 0 003.64.156h14.248c1.3 0 2.21-.104 2.808-.156v2.548c-.546-.026-1.638-.104-2.782-.104h-14.274c-1.43 0-2.808.052-3.64.104v-2.548zm27.982-7.774c1.82 1.222 5.174 3.926 6.604 5.356l-1.612 1.664c-1.326-1.352-4.55-4.16-6.5-5.434l1.508-1.586zm-2.236 17.42c4.524-.676 7.904-2.262 10.374-3.796 4.03-2.522 7.176-6.37 8.684-9.594l1.248 2.236c-1.768 3.224-4.784 6.76-8.71 9.23-2.626 1.638-5.902 3.25-10.244 4.056l-1.352-2.132zm33.358-18.564c-.104.468-.208 1.04-.312 1.534-.182.936-.52 3.068-.884 4.68-.884 3.666-2.73 10.14-5.668 14.872l-2.132-.832c2.964-3.978 5.044-10.92 5.746-14.092.494-2.08.832-4.42.832-6.422l2.418.26zm8.944 2.99c1.612 2.106 3.874 6.838 4.758 9.23l-2.028.962c-.754-2.652-2.808-7.176-4.628-9.334l1.898-.858zm-18.304 2.704c.806.052 1.482.026 2.314 0 1.95-.052 7.228-.624 8.996-.624 2.314 0 4.212.884 4.212 4.394 0 3.094-.416 7.228-1.508 9.386-.806 1.742-2.106 2.184-3.796 2.184-.988 0-2.236-.182-3.042-.39l-.364-2.158c1.092.338 2.47.52 3.198.52.962 0 1.742-.208 2.262-1.326.832-1.768 1.248-5.148 1.248-7.956 0-2.392-1.092-2.834-2.756-2.834-1.742 0-6.63.598-8.216.754-.598.078-1.664.208-2.34.312l-.208-2.262zm18.59-6.474c.65.936 1.586 2.522 2.132 3.588l-1.404.624c-.52-1.066-1.404-2.626-2.132-3.614l1.404-.598zm2.86-1.04c.702.962 1.69 2.6 2.21 3.562l-1.43.624c-.546-1.144-1.404-2.626-2.158-3.588l1.378-.598zM55.482 165.478h2.028v13.988c0 1.222.312 1.456 1.768 1.456h5.044c1.508 0 1.742-.858 1.95-4.992.494.364 1.326.728 1.898.858-.312 4.68-.91 6.084-3.744 6.084h-5.304c-2.834 0-3.64-.728-3.64-3.458v-13.936zm.052-4.862l1.274-1.378c2.236 1.456 5.07 3.588 6.578 4.81l-1.3 1.586c-1.508-1.326-4.368-3.51-6.552-5.018zm-4.212 6.422l1.82.468c-.572 2.886-1.534 6.63-2.99 8.918l-1.846-.754c1.482-2.262 2.496-5.798 3.016-8.632zm15.366 1.69l1.742-.806c1.82 2.6 3.562 6.006 4.29 8.294l-1.872.936c-.65-2.314-2.418-5.824-4.16-8.424zm1.378-8.008l1.924.806c-4.264 8.112-11.128 15.6-20.384 20.02a9.97 9.97 0 00-1.274-1.534c8.97-4.082 15.964-11.596 19.734-19.292zm6.604 12.662h23.66v1.638H74.67v-1.638zm.624-13.078H97.68v1.716H75.294v-1.716zm8.398 10.348l1.898.52c-1.69 2.704-4.082 6.11-5.746 8.242l-1.846-.624c1.664-2.106 4.082-5.59 5.694-8.138zm7.8 3.302l1.872.546c-2.288 5.72-7.826 7.852-17.576 8.58a5.389 5.389 0 00-.754-1.716c9.282-.494 14.378-2.34 16.458-7.41zm-12.09 4.576l.988-1.43c6.422 1.144 13.104 2.886 17.134 4.472l-1.17 1.586c-3.978-1.638-10.348-3.406-16.952-4.628zm2.99-17.576h1.846v9.074h-1.846v-9.074zm6.058 0h1.846v9.074H88.45v-9.074zm-10.036 4.888v3.536h16.224v-3.536H78.414zm-1.82-1.586h19.994v6.734H76.594v-6.734zm34.736-.806c2.834.494 8.112.39 10.686 0v2.106c-2.782.312-7.826.312-10.66 0l-.026-2.106zm1.014 10.608c-.234.936-.364 1.664-.364 2.366 0 1.196.832 2.366 4.394 2.366 2.314 0 4.342-.208 6.422-.702l.052 2.184c-1.612.338-3.796.546-6.5.546-4.342 0-6.292-1.456-6.292-3.9 0-.858.13-1.794.416-3.042l1.872.182zm-5.954-12.61c-.156.442-.364 1.274-.468 1.742-.494 2.418-1.3 7.046-1.3 9.984 0 1.248.078 2.34.234 3.614.442-1.17 1.04-2.73 1.482-3.796l1.092.858c-.65 1.846-1.612 4.576-1.846 5.824a6.44 6.44 0 00-.13 1.17c.026.26.052.624.078.91l-1.846.13c-.52-1.846-.962-4.836-.962-8.372 0-3.822.858-8.268 1.17-10.426.078-.598.156-1.248.182-1.82l2.314.182zm21.606 3.172c.962.104 2.08.156 3.198.156 2.808 0 6.084-.338 9.074-1.326l.052 1.924c-2.548.702-5.954 1.274-9.126 1.248-.962 0-2.08-.026-3.042-.052l-.156-1.95zm9.23-4.238c-.338 1.274-.884 3.718-1.508 5.564-1.248 3.744-3.64 8.476-5.798 11.388l-2.002-1.04c2.314-2.704 4.732-7.332 5.798-10.4.572-1.638 1.144-3.926 1.222-5.746l2.288.234zm6.136 8.034a25.4 25.4 0 00-.052 2.782c.052 1.69.286 5.642.286 7.358 0 2.08-1.326 3.77-4.55 3.77-2.86 0-5.174-1.144-5.174-3.744 0-2.392 2.262-3.9 5.174-3.9 4.368 0 7.722 2.184 9.854 4.03l-1.092 1.768c-2.002-1.82-4.992-4.134-8.814-4.134-1.924 0-3.224.884-3.224 2.08 0 1.196 1.014 2.028 3.042 2.028 2.158 0 2.886-1.144 2.886-2.548 0-1.976-.286-6.63-.39-9.49h2.054zm5.2.676c-1.404-1.196-4.238-2.782-5.954-3.588l1.04-1.56c1.898.806 4.836 2.496 6.084 3.432l-1.17 1.716zm7.098 1.534c.754-.13 1.612-.364 2.418-.624 1.846-.572 6.136-2.132 9.178-2.132 3.692 0 6.37 2.21 6.37 5.746 0 5.018-4.836 7.566-11.83 7.982l-.858-2.002c5.642-.156 10.582-1.768 10.582-6.006 0-2.21-1.742-3.848-4.42-3.848-3.198 0-8.892 2.366-10.556 3.042l-.884-2.158zm33.332-10.062c-.156.572-.338 1.56-.442 2.054-.39 1.872-.936 4.81-1.664 7.41-.936 3.692-2.678 9.074-4.056 11.908l-2.262-.754c1.56-2.704 3.38-7.982 4.368-11.648.624-2.392 1.3-5.668 1.482-7.02.104-.728.156-1.612.104-2.158l2.47.208zm-5.746 4.342c2.86 0 6.682-.468 9.906-1.274v2.028c-3.224.728-7.15 1.17-9.958 1.17-1.144 0-2.054-.026-3.016-.104l-.052-2.028c1.222.156 2.158.208 3.12.208zm8.216 3.562a52.591 52.591 0 014.758-.208c1.508 0 3.094.052 4.498.208l-.052 1.976c-1.352-.156-2.86-.312-4.394-.312-1.612 0-3.224.104-4.81.286v-1.95zm.52 6.318c-.208.858-.364 1.664-.364 2.34 0 1.222.702 2.418 4.394 2.418 1.716 0 3.484-.182 5.096-.494l-.078 2.08a34.949 34.949 0 01-5.044.364c-4.082 0-6.318-1.248-6.318-3.822 0-.988.156-1.976.39-3.068l1.924.182z" fill="#333"/><circle cx="407" cy="125" r="125" fill="#F5F5F5"/><path d="M389 69.156l13.724 13.724L423.311 52" stroke="#00A0E8" stroke-width="4.88" stroke-linecap="round" stroke-linejoin="round"/><path d="M304.32 116.59c-.104.572-.182 1.82-.208 2.6v4.758c0 2.834.416 8.034.416 10.322 0 2.106-1.3 3.926-4.758 3.926-3.614 0-6.24-1.118-6.24-4.082 0-2.366 2.028-4.264 6.526-4.264 5.148 0 9.776 2.6 12.428 5.018l-1.248 1.95c-2.6-2.6-6.864-5.148-11.414-5.148-2.704 0-4.238.91-4.238 2.366 0 1.43 1.456 2.236 3.978 2.236 1.898 0 2.834-.91 2.834-2.704 0-1.924-.312-6.968-.312-9.62 0-1.508-.026-3.64-.026-4.758-.026-.962-.104-2.106-.208-2.6h2.47zm-1.352 5.252c1.794 0 6.032-.13 8.84-.468l.078 1.95c-2.808.26-7.046.442-8.918.442v-1.924zm21.566-5.356c-.546 1.924-1.04 5.434-1.196 7.254 1.066-2.678 3.77-5.928 7.072-5.928 3.432 0 5.928 3.484 5.928 8.944 0 7.202-4.55 10.4-10.972 11.57l-1.248-1.872c5.668-.858 10.062-3.146 10.062-9.672 0-4.108-1.378-7.072-4.108-7.072-3.25 0-6.266 4.732-6.578 8.138-.13.988-.13 1.898.052 3.198l-2.028.156c-.13-.988-.26-2.444-.26-4.134 0-2.47.494-6.292.806-8.424.104-.78.156-1.508.208-2.236l2.262.078zm18.902 1.17h22.594v1.69h-22.594v-1.69zm10.166-2.496h2.002v3.302h-2.002v-3.302zm-9.022 12.662h19.318v1.664h-17.42v9.62h-1.898v-11.284zm18.512 0h1.95v8.944c0 1.066-.234 1.638-1.066 1.976-.832.286-2.236.312-4.394.312-.078-.546-.364-1.326-.65-1.846 1.716.052 3.172.052 3.614 0 .442 0 .546-.13.546-.494v-8.892zm-13.312 3.354h1.742v6.812h-1.742v-6.812zm.936 0h8.996v5.486h-8.996v-1.404h7.228v-2.678h-7.228v-1.404zm-1.092-8.944v2.522h10.166v-2.522h-10.166zm-1.872-1.43h14.014v5.382h-14.014v-5.382zm24.44-5.642h1.976v23.894h-1.976V115.16zm-2.392 4.94l1.482.234c-.13 2.106-.598 5.122-1.3 6.994l-1.534-.52c.702-1.742 1.17-4.602 1.352-6.708zm4.55-.156l1.352-.598c.806 1.404 1.612 3.25 1.898 4.368l-1.456.728c-.286-1.144-1.066-3.042-1.794-4.498zm5.304-3.562l1.898.312c-.676 3.796-1.82 7.488-3.276 9.932-.39-.286-1.274-.702-1.768-.91 1.534-2.288 2.574-5.824 3.146-9.334zm.026 4.29h12.09v1.872h-12.688l.598-1.872zm4.212-5.408h1.95v22.1h-1.95v-22.1zm-5.538 12.688h12.844v1.846h-12.844v-1.846zm-1.95 8.346h15.99v1.872h-15.99v-1.872zm22.724-21.138l2.028.468c-.936 2.158-2.158 4.68-3.198 6.318l-1.664-.494c.988-1.664 2.21-4.394 2.834-6.292zm-4.368 5.512c2.73-.078 6.864-.26 10.946-.442l-.026 1.742c-3.874.234-7.904.442-10.738.598l-.182-1.898zm1.586 3.77h8.242v1.664h-6.422v12.948h-1.82v-14.612zm7.358 0h1.924v12.402c0 .988-.208 1.534-.91 1.846-.728.312-1.872.338-3.51.338-.104-.52-.39-1.3-.65-1.794 1.222.052 2.34.026 2.704 0 .338 0 .442-.078.442-.416v-12.376zm-6.5 3.874h7.514v1.534h-7.514v-1.534zm0 3.9h7.514v1.56h-7.514v-1.56zm10.868-17.004h1.924v8.606c0 .832.208 1.014 1.404 1.014h4.134c1.014 0 1.196-.442 1.3-3.016.416.338 1.196.624 1.768.754-.234 3.172-.806 4.03-2.912 4.03h-4.472c-2.496 0-3.146-.598-3.146-2.756v-8.632zm7.956 1.924l1.3 1.43c-2.21 1.04-5.33 2.054-8.008 2.808-.104-.416-.364-.988-.598-1.378 2.574-.806 5.538-1.95 7.306-2.86zm-7.956 10.166h1.924v8.788c0 .884.234 1.04 1.482 1.04h4.264c1.118 0 1.274-.494 1.404-3.432.442.312 1.222.624 1.768.728-.26 3.51-.832 4.446-3.016 4.446h-4.628c-2.522 0-3.198-.598-3.198-2.756v-8.814zm8.268 1.43l1.3 1.456c-2.184 1.248-5.512 2.314-8.32 3.068-.104-.39-.39-1.014-.598-1.404 2.704-.78 5.85-1.976 7.618-3.12zm-13.962-11.102l1.612-.65c1.378 1.82 2.834 4.212 3.432 5.824l-1.716.754c-.546-1.586-1.95-4.082-3.328-5.928zm19.864 2.99c.962.104 2.08.156 3.198.156 2.808 0 6.084-.338 9.074-1.326l.052 1.924c-2.548.702-5.954 1.274-9.126 1.248-.962 0-2.08-.026-3.042-.052l-.156-1.95zm9.23-4.238c-.338 1.274-.884 3.718-1.508 5.564-1.248 3.744-3.64 8.476-5.798 11.388l-2.002-1.04c2.314-2.704 4.732-7.332 5.798-10.4.572-1.638 1.144-3.926 1.222-5.746l2.288.234zm6.136 8.034a25.4 25.4 0 00-.052 2.782c.052 1.69.286 5.642.286 7.358 0 2.08-1.326 3.77-4.55 3.77-2.86 0-5.174-1.144-5.174-3.744 0-2.392 2.262-3.9 5.174-3.9 4.368 0 7.722 2.184 9.854 4.03l-1.092 1.768c-2.002-1.82-4.992-4.134-8.814-4.134-1.924 0-3.224.884-3.224 2.08 0 1.196 1.014 2.028 3.042 2.028 2.158 0 2.886-1.144 2.886-2.548 0-1.976-.286-6.63-.39-9.49h2.054zm5.2.676c-1.404-1.196-4.238-2.782-5.954-3.588l1.04-1.56c1.898.806 4.836 2.496 6.084 3.432l-1.17 1.716zm5.33-7.41h21.294v1.664h-21.294v-1.664zm.832 19.058h19.682v1.638H448.97v-1.638zm4.29-15.678h10.946v1.482H453.26v-1.482zm0 3.276h10.946v1.482H453.26v-1.482zm-6.344 3.354h23.634v1.638h-23.634v-1.638zm5.46 4.654h12.766v1.612h-12.766v-1.612zm-.286-17.16h1.95v13.416h-1.95v-13.416zm11.44 0h1.95v13.416h-1.95v-13.416zm-5.85 14.976h2.002v7.488h-2.002v-7.488zm-4.212-2.028l1.638.624c-1.586 2.678-4.446 5.148-7.176 6.422-.286-.442-.832-1.118-1.274-1.482 2.626-1.04 5.408-3.276 6.812-5.564zm10.634 0c1.378 2.21 4.082 4.264 6.786 5.226-.442.364-1.014 1.04-1.3 1.508-2.756-1.17-5.512-3.588-7.02-6.136l1.534-.598zm11.804-11.076h6.786v1.43h-6.786v-1.43zm2.834-1.924l1.742.26c-.494.988-.936 1.872-1.326 2.574l-1.482-.286c.364-.728.832-1.82 1.066-2.548zm-3.588 1.924h1.612v4.836c0 2.73-.468 6.448-2.938 8.944-.234-.312-.884-.884-1.248-1.092 2.262-2.288 2.574-5.434 2.574-7.878v-4.81zm12.012-.936h5.226v1.456h-5.226v-1.456zm-1.794 6.682h8.268v1.43h-8.268v-1.43zm1.066-6.682h1.586v1.872c0 1.586-.494 3.484-2.6 4.81-.208-.338-.806-1.014-1.118-1.248 1.82-1.066 2.132-2.418 2.132-3.588v-1.846zm-4.576.936h1.638v11.206c0 .91-.156 1.378-.78 1.664-.598.26-1.586.286-3.016.286a6.29 6.29 0 00-.52-1.586c1.092.052 2.002.052 2.288.026.312 0 .39-.104.39-.39v-11.206zm-9.074 5.746c2.99-.104 7.514-.312 11.934-.546l-.052 1.508c-4.29.234-8.71.468-11.778.624l-.104-1.586zm4.992-3.302l1.222-.442c.572.806 1.17 1.898 1.43 2.574l-1.274.52c-.26-.702-.832-1.82-1.378-2.652zm.65 5.252h1.326v3.588h-1.326v-3.588zm13.078-8.632h1.612v3.822c0 .442.052.494.442.494h1.144c.39 0 .468-.182.52-1.95.338.26.988.468 1.43.572-.156 2.262-.572 2.834-1.716 2.834h-1.612c-1.43 0-1.82-.416-1.82-1.95v-3.822zm1.612 6.682h.39l.338-.052 1.014.442c-1.612 4.16-5.278 6.162-9.698 7.15-.182-.416-.65-1.144-.962-1.456 4.16-.78 7.592-2.47 8.918-5.85v-.234zm-5.408 1.3c1.482 2.652 4.836 4.368 9.1 4.914-.39.39-.884 1.066-1.092 1.534-4.472-.806-7.878-2.808-9.568-6.006l1.56-.442zm-14.794 12.636h23.66v1.586h-23.66v-1.586zm3.068-5.876h17.524v6.682h-1.924v-5.122h-3.406v5.122h-1.82v-5.122h-3.38v5.122h-1.82v-5.122h-3.354v5.122h-1.82v-6.682zm33.722-14.404c-.234 1.014-.52 2.444-1.196 4.186-.65 1.586-1.612 3.328-2.652 4.68 1.014-.598 2.496-.962 3.64-.962 2.002 0 3.562 1.196 3.562 3.302 0 1.352.052 4.342.078 5.954h-2.002c.104-1.378.13-4.056.104-5.408-.026-1.508-1.066-2.21-2.418-2.21-1.664 0-3.302.832-4.498 1.898-.754.728-1.482 1.664-2.34 2.73l-1.794-1.326c3.744-3.588 5.486-6.604 6.37-8.814.572-1.43.936-2.99 1.014-4.212l2.132.182zm-8.918 2.808c1.404.182 3.198.26 4.394.26 3.51 0 8.008-.208 11.674-.858v1.924c-3.64.546-8.476.78-11.778.78-1.118 0-2.834-.052-4.29-.156v-1.95zm19.864 6.266c-.65.208-1.586.572-2.288.832-1.846.728-4.316 1.716-6.838 3.016-2.574 1.352-4.394 2.756-4.394 4.55 0 2.028 2.002 2.34 4.68 2.34 2.028 0 4.836-.234 7.124-.65l-.078 2.106c-1.976.234-4.862.442-7.124.442-3.692 0-6.682-.806-6.682-3.952 0-3.172 3.224-5.122 6.318-6.708 2.47-1.274 4.576-2.08 6.292-2.886.78-.364 1.43-.65 2.158-1.014l.832 1.924zM363.32 162.046h16.692v1.82H363.32v-1.82zm2.574 6.006v3.9h11.362v-3.9h-11.362zm-1.794-1.664h15.054v7.228H364.1v-7.228zm1.612 7.748c2.444 4.082 7.774 6.5 14.534 7.254-.416.416-.91 1.196-1.17 1.742-6.89-.988-12.22-3.692-14.976-8.45l1.612-.546zm4.836-14.872h1.924v11.518c0 5.018-.858 10.01-8.918 12.402a9.528 9.528 0 00-1.17-1.638c7.722-1.95 8.164-6.396 8.164-10.79v-11.492zm-8.346-.156l1.846.572c-1.768 4.394-4.55 8.762-7.436 11.648-.182-.442-.728-1.456-1.092-1.924 2.626-2.47 5.174-6.344 6.682-10.296zm-2.73 6.812l1.846-1.846.026.026v19.11h-1.872v-17.29zm27.326-3.042c-.13.598-.208 1.846-.234 2.522-.026 1.612 0 4.004.182 6.136.442 4.342 1.69 7.228 3.562 7.228 1.326 0 2.548-2.678 3.224-5.278l1.638 1.846c-1.586 4.394-3.146 5.902-4.914 5.902-2.47 0-4.81-2.444-5.538-9.178-.234-2.236-.286-5.408-.286-6.916 0-.598 0-1.716-.156-2.314l2.522.052zm13.52.702c2.34 3.016 4.212 8.554 4.602 12.948l-2.106.832c-.442-4.68-2.028-10.036-4.498-13.078l2.002-.702zm18.174-3.016c-.156.572-.338 1.56-.442 2.054-.39 1.872-.936 4.81-1.664 7.41-.936 3.692-2.678 9.074-4.056 11.908l-2.262-.754c1.56-2.704 3.38-7.982 4.368-11.648.624-2.392 1.3-5.668 1.482-7.02.104-.728.156-1.612.104-2.158l2.47.208zm-5.746 4.342c2.86 0 6.682-.468 9.906-1.274v2.028c-3.224.728-7.15 1.17-9.958 1.17-1.144 0-2.054-.026-3.016-.104l-.052-2.028c1.222.156 2.158.208 3.12.208zm8.216 3.562a52.591 52.591 0 014.758-.208c1.508 0 3.094.052 4.498.208l-.052 1.976c-1.352-.156-2.86-.312-4.394-.312-1.612 0-3.224.104-4.81.286v-1.95zm.52 6.318c-.208.858-.364 1.664-.364 2.34 0 1.222.702 2.418 4.394 2.418 1.716 0 3.484-.182 5.096-.494l-.078 2.08a34.949 34.949 0 01-5.044.364c-4.082 0-6.318-1.248-6.318-3.822 0-.988.156-1.976.39-3.068l1.924.182zm17.316-11.908c-.13.598-.208 1.846-.234 2.522-.026 1.612 0 4.004.182 6.136.442 4.342 1.69 7.228 3.562 7.228 1.326 0 2.548-2.678 3.224-5.278l1.638 1.846c-1.586 4.394-3.146 5.902-4.914 5.902-2.47 0-4.81-2.444-5.538-9.178-.234-2.236-.286-5.408-.286-6.916 0-.598 0-1.716-.156-2.314l2.522.052zm13.52.702c2.34 3.016 4.212 8.554 4.602 12.948l-2.106.832c-.442-4.68-2.028-10.036-4.498-13.078l2.002-.702z" fill="#333"/><circle cx="407" cy="407" r="125" fill="#F5F5F5"/><path d="M390 351.156l13.724 13.724L424.311 334" stroke="#00A0E8" stroke-width="4.88" stroke-linecap="round" stroke-linejoin="round"/><path d="M343.378 401.268h23.244v1.82h-23.244v-1.82zm2.678 8.372h7.28v1.534h-7.28v-1.534zm0 4.16h7.28v1.534h-7.28V413.8zm11.622-8.164h1.846v10.686h-1.846v-10.686zm-5.044-.234h1.898v13.442c0 .988-.234 1.508-.962 1.82-.702.312-1.846.312-3.614.312-.104-.494-.39-1.222-.65-1.716 1.3.052 2.496.052 2.86.026.364-.026.468-.13.468-.468v-13.416zm10.322-.546h1.924v13.806c0 1.144-.26 1.69-1.066 2.002-.806.286-2.106.338-4.134.338-.104-.52-.416-1.352-.702-1.872 1.586.052 2.99.052 3.432.026.416-.026.546-.13.546-.494v-13.806zm-15.548-7.046l1.794-.676c1.014 1.118 2.106 2.652 2.6 3.666l-1.924.702c-.416-.988-1.482-2.574-2.47-3.692zm13.364-.754l2.08.676c-.988 1.612-2.158 3.406-3.12 4.628l-1.716-.65c.936-1.248 2.106-3.25 2.756-4.654zm-15.756 8.346h8.242v1.69h-6.396v13.858h-1.846v-15.548zm27.56-6.474h17.03v21.762h-2.054v-19.786h-12.974v19.89h-2.002v-21.866zm1.326 9.022h14.508v1.924h-14.508v-1.924zm-.026 9.204h14.586v1.95h-14.586v-1.95zm36.738-10.062l1.352-1.092c1.638 2.418 3.588 5.564 4.524 7.592l-1.456 1.222c-.91-2.028-2.808-5.304-4.42-7.722zm-5.564-5.044h12.246v1.82h-10.504v17.212h-1.742v-19.032zm11.466 0h1.768v16.822c0 1.04-.182 1.612-.884 1.898-.676.312-1.794.338-3.432.338-.078-.494-.338-1.326-.598-1.82 1.196.052 2.366.026 2.678.026.338 0 .468-.104.468-.468v-16.796zm-5.538-4.888h1.846c-.156 7.644-.598 14.274-4.914 17.888-.26-.364-.858-.962-1.274-1.222 3.952-3.302 4.238-9.542 4.342-16.666zm-11.908.026l1.716.676c-.988 1.898-2.21 4.212-3.224 5.642l-1.352-.624c.988-1.482 2.184-3.978 2.86-5.694zm2.912 2.964l1.638.728c-1.768 2.99-4.264 6.76-6.188 9.048l-1.196-.676c1.924-2.34 4.368-6.292 5.746-9.1zm-7.02 2.496l.988-1.274c1.456 1.222 3.094 2.912 3.796 4.082l-1.04 1.482c-.702-1.222-2.34-3.042-3.744-4.29zm6.11 3.536l1.352-.546c1.066 1.664 2.106 3.9 2.47 5.33l-1.456.676c-.364-1.456-1.326-3.744-2.366-5.46zm-6.188 2.652a444.41 444.41 0 008.814-.39l-.026 1.612c-3.12.208-6.266.39-8.632.546l-.156-1.768zm6.864 3.484l1.404-.442c.728 1.456 1.43 3.432 1.69 4.732l-1.508.52c-.234-1.3-.936-3.302-1.586-4.81zm-5.408-.286l1.69.312c-.364 2.444-1.014 4.966-1.846 6.63-.338-.208-1.118-.572-1.534-.754.858-1.586 1.378-3.9 1.69-6.188zm2.808-2.47h1.742v11.596h-1.742v-11.596zm28.678-9.412v4.94h10.4v-4.94h-10.4zm-1.898-1.872h14.274v8.684h-14.274v-8.684zm-3.77 11.44h9.256v11.154h-1.95v-9.282h-5.46v9.49h-1.846v-11.362zm12.09 0h9.776v11.206h-1.95v-9.334h-5.954v9.49h-1.872v-11.362zm-11.258 8.086h7.254v1.872h-7.254v-1.872zm12.22 0h7.722v1.872h-7.722v-1.872zm12.818-15.912a34.49 34.49 0 002.34-.13c1.664-.182 6.578-.65 11.362-1.066 2.86-.234 5.278-.39 7.02-.442l.026 2.08c-1.508-.026-3.77.026-5.096.39-3.718 1.196-5.98 5.174-5.98 8.242 0 5.07 4.758 6.708 8.97 6.864l-.754 2.132c-4.81-.182-10.27-2.73-10.27-8.554 0-4.03 2.47-7.358 4.836-8.762-2.782.286-9.412.936-12.22 1.534l-.234-2.288zm16.978 3.614c.598.858 1.586 2.47 2.158 3.64l-1.352.598c-.598-1.248-1.326-2.574-2.106-3.666l1.3-.572zm2.834-1.092c.65.858 1.664 2.444 2.262 3.588l-1.326.65a25.598 25.598 0 00-2.21-3.64l1.274-.598zm-113.1 43.012h12.168v1.898H354.74v-1.898zm-11.31-1.95h12.09v1.82h-12.09v-1.82zm18.434-4.316h1.95v21.294c0 1.3-.338 1.872-1.118 2.236-.78.338-2.106.39-4.342.39-.078-.546-.364-1.456-.65-2.054 1.638.052 3.094.052 3.536.026.442-.026.624-.156.624-.624V441.16zm-6.838 11.622l1.612-.754c1.248 1.794 2.496 4.186 2.912 5.772l-1.716.832c-.39-1.56-1.56-4.03-2.808-5.85zm-10.79-1.768l1.404-1.092c3.172 3.328 6.786 7.878 8.294 10.868l-1.56 1.326c-1.456-3.042-4.992-7.722-8.138-11.102zm4.16-9.802h1.872v5.33h-1.872v-5.33zm2.964 6.682l1.924.286c-1.326 7.826-3.952 13.26-9.1 16.718-.26-.39-.962-1.17-1.378-1.534 5.018-2.99 7.436-8.242 8.554-15.47zm27.586 3.744h1.924v10.114c0 .91.208 1.04 1.222 1.04h3.432c1.04 0 1.196-.676 1.326-4.498.442.364 1.222.676 1.742.832-.208 4.29-.728 5.46-2.938 5.46h-3.796c-2.314 0-2.912-.65-2.912-2.86v-10.088zm-3.562 2.236l1.768.39c-.338 2.834-.988 6.266-2.34 8.346l-1.716-.78c1.274-2.002 1.976-5.2 2.288-7.956zm3.978-5.33l1.326-1.274c2.08 1.04 4.732 2.652 6.084 3.848l-1.404 1.456c-1.274-1.196-3.9-2.912-6.006-4.03zm8.268 5.46l1.742-.702c1.742 2.678 3.38 6.188 3.848 8.528l-1.898.78c-.416-2.314-1.976-5.902-3.692-8.606zm-6.89-12.818h2.002v4.42h-2.002v-4.42zm-8.684 3.354h20.67v1.872h-20.67v-1.872zm-.936 0h1.95v6.734c0 4.004-.364 9.88-2.6 13.832-.338-.338-1.196-.884-1.664-1.092 2.132-3.744 2.314-8.996 2.314-12.74v-6.734zm31.72-1.794c-.13.858-.208 1.768-.26 2.626-.104 2.938-.312 9.1-.312 12.974 0 2.86 1.794 3.848 4.264 3.848 4.758 0 7.462-2.652 9.334-5.356l1.456 1.768c-1.768 2.47-5.148 5.72-10.842 5.72-3.744 0-6.318-1.534-6.318-5.798 0-3.848.26-10.426.26-13.156 0-.962-.078-1.872-.234-2.626h2.652zm28.652-.182c-.156.572-.338 1.56-.442 2.054-.39 1.872-.936 4.81-1.664 7.41-.936 3.692-2.678 9.074-4.056 11.908l-2.262-.754c1.56-2.704 3.38-7.982 4.368-11.648.624-2.392 1.3-5.668 1.482-7.02.104-.728.156-1.612.104-2.158l2.47.208zm-5.746 4.342c2.86 0 6.682-.468 9.906-1.274v2.028c-3.224.728-7.15 1.17-9.958 1.17-1.144 0-2.054-.026-3.016-.104l-.052-2.028c1.222.156 2.158.208 3.12.208zm8.216 3.562a52.591 52.591 0 014.758-.208c1.508 0 3.094.052 4.498.208l-.052 1.976c-1.352-.156-2.86-.312-4.394-.312-1.612 0-3.224.104-4.81.286v-1.95zm.52 6.318c-.208.858-.364 1.664-.364 2.34 0 1.222.702 2.418 4.394 2.418 1.716 0 3.484-.182 5.096-.494l-.078 2.08a34.949 34.949 0 01-5.044.364c-4.082 0-6.318-1.248-6.318-3.822 0-.988.156-1.976.39-3.068l1.924.182zm17.316-11.908c-.13.598-.208 1.846-.234 2.522-.026 1.612 0 4.004.182 6.136.442 4.342 1.69 7.228 3.562 7.228 1.326 0 2.548-2.678 3.224-5.278l1.638 1.846c-1.586 4.394-3.146 5.902-4.914 5.902-2.47 0-4.81-2.444-5.538-9.178-.234-2.236-.286-5.408-.286-6.916 0-.598 0-1.716-.156-2.314l2.522.052zm13.52.702c2.34 3.016 4.212 8.554 4.602 12.948l-2.106.832c-.442-4.68-2.028-10.036-4.498-13.078l2.002-.702z" fill="#333"/><circle cx="125" cy="407" r="125" fill="#F5F5F5"/><path d="M108 351.156l13.724 13.724L142.311 334" stroke="#00A0E8" stroke-width="4.88" stroke-linecap="round" stroke-linejoin="round"/><path d="M104.72 398.694l1.352-1.04c1.508 1.118 3.25 2.756 4.082 3.926l-1.456 1.144c-.728-1.17-2.47-2.886-3.978-4.03zm-17.524 5.59h23.608v1.768H87.196v-1.768zm1.17-4.498h11.362v1.716H88.366v-1.716zm-.65 8.97h12.61v1.664h-12.61v-1.664zm5.434-11.57h1.846v8.086H93.15v-8.086zm0 9.204h1.846v3.354H93.15v-3.354zm.39 6.422l1.222-1.066c1.82 1.404 4.16 3.406 5.278 4.706l-1.274 1.248c-1.092-1.326-3.38-3.406-5.226-4.888zm5.122-1.872l1.482.91a25.662 25.662 0 01-2.912 2.756l-1.248-.806c.858-.754 2.028-2.002 2.678-2.86zm-5.434-1.534l1.69.572c-1.586 2.444-4.238 4.706-6.656 6.162-.26-.364-.884-1.092-1.274-1.43 2.366-1.222 4.836-3.172 6.24-5.304zm-4.472 9.464c1.82-.572 4.55-1.482 7.202-2.418l.286 1.56c-2.314.858-4.784 1.768-6.734 2.444l-.754-1.586zm1.69-5.538l1.768-1.04v6.578h-1.768v-5.538zm10.608-16.12h1.976c-.104 12.376 2.002 21.97 5.278 21.97.728 0 1.014-1.196 1.17-4.316.416.416 1.118.832 1.586 1.014-.312 4.03-1.014 5.2-2.912 5.2-5.174 0-6.994-11.024-7.098-23.868zm6.604 10.192l1.794.624c-2.21 5.46-6.006 10.166-10.764 13.026-.338-.494-.91-1.144-1.43-1.534 4.628-2.522 8.372-7.046 10.4-12.116zm8.866-2.418h9.048v1.716h-9.048v-1.716zm-1.352 11.466h10.166v1.716h-10.166v-1.716zm-1.066-18.33h1.742v22.022h-1.742v-22.022zm6.136-.754h1.69v18.486h-1.69v-18.486zm.078 8.528l1.144.468c-.962 2.886-2.756 6.318-4.576 8.06-.182-.468-.572-1.17-.832-1.612 1.638-1.482 3.406-4.394 4.264-6.916zm3.692-6.968l1.586.442c-.65 1.56-1.404 3.432-2.028 4.628l-1.17-.442c.572-1.248 1.274-3.276 1.612-4.628zm-7.176.442l1.3-.416c.598 1.43 1.092 3.302 1.196 4.524l-1.352.468c-.104-1.248-.572-3.12-1.144-4.576zm4.966 8.242c.676.52 3.094 2.756 3.666 3.328l-1.092 1.378c-.65-.936-2.678-3.172-3.51-3.978l.936-.728zm5.798-1.69h9.568v1.82H127.6v-1.82zm4.784.936h1.872v14.248h-1.872v-14.248zm-5.72-7.462l2.392.728c-.026.182-.182.312-.52.364v8.034c0 3.874-.468 9.152-3.9 12.792-.234-.442-.91-1.092-1.404-1.326 3.12-3.328 3.432-7.826 3.432-11.492v-9.1zm8.528-1.82l1.56 1.456c-2.392 1.066-6.006 1.95-9.074 2.522-.104-.442-.39-1.092-.624-1.508 2.912-.598 6.266-1.508 8.138-2.47zm14.768.884c-.234 1.014-.52 2.444-1.196 4.186-.65 1.586-1.612 3.328-2.652 4.68 1.014-.598 2.496-.962 3.64-.962 2.002 0 3.562 1.196 3.562 3.302 0 1.352.052 4.342.078 5.954h-2.002c.104-1.378.13-4.056.104-5.408-.026-1.508-1.066-2.21-2.418-2.21-1.664 0-3.302.832-4.498 1.898-.754.728-1.482 1.664-2.34 2.73l-1.794-1.326c3.744-3.588 5.486-6.604 6.37-8.814.572-1.43.936-2.99 1.014-4.212l2.132.182zm-8.918 2.808c1.404.182 3.198.26 4.394.26 3.51 0 8.008-.208 11.674-.858v1.924c-3.64.546-8.476.78-11.778.78-1.118 0-2.834-.052-4.29-.156v-1.95zm19.864 6.266c-.65.208-1.586.572-2.288.832-1.846.728-4.316 1.716-6.838 3.016-2.574 1.352-4.394 2.756-4.394 4.55 0 2.028 2.002 2.34 4.68 2.34 2.028 0 4.836-.234 7.124-.65l-.078 2.106c-1.976.234-4.862.442-7.124.442-3.692 0-6.682-.806-6.682-3.952 0-3.172 3.224-5.122 6.318-6.708 2.47-1.274 4.576-2.08 6.292-2.886.78-.364 1.43-.65 2.158-1.014l.832 1.924zm-121.368 42.96h15.106v1.82H39.538v-1.82zm0 5.642h15.106v1.82H39.538v-1.82zm0 5.694h15.106v1.82H39.538v-1.82zm-1.326-17.108h17.94v20.254h-2.028v-18.382H40.188v18.512h-1.976v-20.384zm7.618-3.588l2.262.286c-.572 1.56-1.248 3.25-1.82 4.368l-1.742-.338c.468-1.222 1.04-3.042 1.3-4.316zm24.7 21.294h14.69v1.924H70.53v-1.924zm1.014-12.74h13.13v1.872h-13.13v-1.872zm5.59-8.32h1.976v21.996h-1.976v-21.996zm-15.704 4.68h8.632v1.794H61.43v-1.794zm4.108 7.8l1.924-2.314v13.572h-1.924v-11.258zm0-12.662h1.924v5.746h-1.924v-5.746zm1.768 10.868c.884.624 3.9 3.276 4.654 3.926l-1.196 1.586c-.962-1.118-3.51-3.588-4.576-4.524l1.118-.988zm2.028-6.006h.39l.364-.078 1.118.728c-1.976 4.784-5.954 9.1-9.672 11.492-.208-.494-.676-1.404-1.014-1.742 3.536-2.08 7.254-6.032 8.814-9.984v-.416zm18.694-.156a34.49 34.49 0 002.34-.13c1.664-.182 6.578-.65 11.362-1.066 2.86-.234 5.278-.39 7.02-.442l.026 2.08c-1.508-.026-3.77.026-5.096.39-3.718 1.196-5.98 5.174-5.98 8.242 0 5.07 4.758 6.708 8.97 6.864l-.754 2.132c-4.81-.182-10.27-2.73-10.27-8.554 0-4.03 2.47-7.358 4.836-8.762-2.782.286-9.412.936-12.22 1.534l-.234-2.288zm16.978 3.614c.598.858 1.586 2.47 2.158 3.64l-1.352.598c-.598-1.248-1.326-2.574-2.106-3.666l1.3-.572zm2.834-1.092c.65.858 1.664 2.444 2.262 3.588l-1.326.65a25.598 25.598 0 00-2.21-3.64l1.274-.598zm15.47-5.668h12.766v1.872H123.31v-1.872zm7.592 7.748h1.976v12.09c0 1.222-.286 1.82-1.17 2.132-.884.286-2.366.312-4.914.312-.078-.546-.338-1.352-.624-1.924 1.846.052 3.588.052 4.056.026.52-.026.676-.13.676-.572v-12.064zm-8.736-.572h14.664v1.846h-14.664v-1.846zm-5.2 2.002l1.716-1.69.234.104v14.82h-1.95v-13.234zm3.016-5.2l1.846.702c-2.028 3.302-5.096 6.656-7.826 8.84-.286-.39-.962-1.248-1.378-1.612 2.704-1.924 5.564-4.94 7.358-7.93zm-1.066-5.564l1.872.754c-1.742 2.288-4.42 4.81-6.734 6.474-.286-.416-.806-1.17-1.144-1.56 2.158-1.456 4.68-3.796 6.006-5.668zm24.882 3.718c-.13.598-.208 1.846-.234 2.522-.026 1.612 0 4.004.182 6.136.442 4.342 1.69 7.228 3.562 7.228 1.326 0 2.548-2.678 3.224-5.278l1.638 1.846c-1.586 4.394-3.146 5.902-4.914 5.902-2.47 0-4.81-2.444-5.538-9.178-.234-2.236-.286-5.408-.286-6.916 0-.598 0-1.716-.156-2.314l2.522.052zm13.52.702c2.34 3.016 4.212 8.554 4.602 12.948l-2.106.832c-.442-4.68-2.028-10.036-4.498-13.078l2.002-.702zm18.174-3.016c-.156.572-.338 1.56-.442 2.054-.39 1.872-.936 4.81-1.664 7.41-.936 3.692-2.678 9.074-4.056 11.908l-2.262-.754c1.56-2.704 3.38-7.982 4.368-11.648.624-2.392 1.3-5.668 1.482-7.02.104-.728.156-1.612.104-2.158l2.47.208zm-5.746 4.342c2.86 0 6.682-.468 9.906-1.274v2.028c-3.224.728-7.15 1.17-9.958 1.17-1.144 0-2.054-.026-3.016-.104l-.052-2.028c1.222.156 2.158.208 3.12.208zm8.216 3.562a52.591 52.591 0 014.758-.208c1.508 0 3.094.052 4.498.208l-.052 1.976c-1.352-.156-2.86-.312-4.394-.312-1.612 0-3.224.104-4.81.286v-1.95zm.52 6.318c-.208.858-.364 1.664-.364 2.34 0 1.222.702 2.418 4.394 2.418 1.716 0 3.484-.182 5.096-.494l-.078 2.08a34.949 34.949 0 01-5.044.364c-4.082 0-6.318-1.248-6.318-3.822 0-.988.156-1.976.39-3.068l1.924.182zm17.316-11.908c-.13.598-.208 1.846-.234 2.522-.026 1.612 0 4.004.182 6.136.442 4.342 1.69 7.228 3.562 7.228 1.326 0 2.548-2.678 3.224-5.278l1.638 1.846c-1.586 4.394-3.146 5.902-4.914 5.902-2.47 0-4.81-2.444-5.538-9.178-.234-2.236-.286-5.408-.286-6.916 0-.598 0-1.716-.156-2.314l2.522.052zm13.52.702c2.34 3.016 4.212 8.554 4.602 12.948l-2.106.832c-.442-4.68-2.028-10.036-4.498-13.078l2.002-.702z" fill="#333"/></svg>