<svg version="1.1" id="Layer_2" xmlns="http://www.w3.org/2000/svg" x="0" y="0" viewBox="0 0 138 53" xml:space="preserve"><style>.st0{fill:#00a0e8}.st2{fill:#fef300}</style><path d="M61.7 19.2H39.4c-.3 0-.6.3-.6.6v4.3c0 .3.3.6.6.6h13.8L46 37c-.2.4.1.9.5.9h5c.2 0 .4-.1.5-.3L62.1 20c.3-.3 0-.8-.4-.8zm75.5 13.3H124l7.2-12.4c.2-.4-.1-.9-.5-.9h-5c-.2 0-.4.1-.5.3L115.1 37c-.2.4.1.9.5.9h21.6c.3 0 .6-.3.6-.6V33c0-.3-.2-.5-.6-.5zM86.8 19.2H68.3c-.2 0-.4.1-.5.3L57.7 37c-.2.4.1.9.5.9h5c.2 0 .4-.1.5-.3l7.5-13h7.2L65.5 46.9c-.2.4.1.9.5.9h5c.2 0 .4-.1.5-.3l15.8-27.4c.2-.4-.1-.9-.5-.9zm-47.5-3.7h22.3c.3 0 .6-.3.6-.6v-4.3c0-.3-.3-.6-.6-.6H39.3c-.3 0-.6.3-.6.6v4.3c.1.3.3.6.6.6z"/><path d="M120.7 19.2h-5c-.2 0-.4.1-.5.3l-9.7 16.9-6.7-11.6 8-13.9c.2-.4-.1-.9-.5-.9H84.8c-.3 0-.6.3-.6.6v4.3c0 .3.3.6.6.6h13L85.1 37.7c-.2.4.1.9.5.9h5c.2 0 .4-.1.5-.3l4.6-8 4.6 8c.1.2.3.3.5.3h3.4l-4.8 8.3c-.2.4.1.9.5.9h5c.2 0 .4-.1.5-.3l15.8-27.4c.3-.4 0-.9-.5-.9zm-103.3-6c-8.7 0-15.7 7-15.7 15.7s7 15.7 15.7 15.7 15.7-7 15.7-15.7-7-15.7-15.7-15.7z"/><path class="st0" d="M25.4 19.6c-.2-.1-.3-.2-.5-.2-2.6-1.1-4.3-1.5-4.9-1.5-1.1.1-2.3.5-3.6 1.2-.9.5-1.6.8-2.2 1.2-.6.3-1.1.6-1.5.8-.2.1-1.2.5-1.3.6-1.4.5-2.1.9-2.2.9 0 0-.2 0-.7.1-.4.1-.9.2-1.6.4 1.7-3.1 4.8-5.5 8.6-6.1 3.6-.9 7.2.3 9.9 2.6z" id="XMLID_12_"/><path class="st0" d="M10.7 35.2c.2.5.2 1 0 1.4-.1.1-.2.3-.3.4l-.6.6c-.2.1-.4.3-.5.4-2-1.8-3.4-4.2-3.9-7-.4-2.1-.2-4.2.5-6.1h1.3c.2.1.4.3.5.7.6 1.8 2.6 8.6 3 9.6z" id="XMLID_11_"/><path d="M24.9 35.4c-.5-1.1-1.1-2.2-1.7-3.2-.6-1-1.3-2-2-3.1-.2 0-.6.2-.9.6-.4.4-.8 1-1.2 1.9-.9 1.7-1.3 2.7-1.4 2.7h-.3c-.3-.1-.5-.3-.6-.9 0-.7-.1-1.3-.2-2v-.1c-.1-.6-.9-7.2-.9-7.4 0-.1 0-1.4-.3-2.1-.2-.6-.6-.6-.7-.6-.1 0-1 .6-1.1.6-.7.4-1 .8-1 1.4 0 .7 0 1.6.1 2l2.1 8.4c0 .1.1.2.2.3.1.1.6.6.9.7h1.5c.3 0 .6.1.8.1.3.1.7.1 1 .2.4-.1.6 0 .9-.5.3-.4 1.3-2.2 1.5-2.1.2.1.3.3.3.4 0 .1-.1.4-.4.9-.3.5-.7 1.3-1.3 2.3-1 1.9-1.4 2.8-1.6 2.9-.1 0-.5-.1-1.2-.4-2.5-.7-5.2.4-5.4.5 0 0-.1 0-.2.1-.1 0-.2.1-.3.2 2.4 1.4 5.3 2 8.2 1.4 2.5-.4 4.6-1.6 6.3-3.2-.3-.2-.6-1-1.1-2z" fill="#e4007e"/><path class="st2" d="M22.8 22.2c1 .6 1.4 1 1.4 1.3 0 .2-.1.4-.3.7-.2.3-.6.7-1.1 1.1-.5.5-.9.9-1.2 1.3-.3.3-.5.7-.8.6-.3-.4-.5-.8-.5-1.2v-2.3c0-.6 0-1.1.1-1.5 0-.4.1-.7.1-.8.6-.2 1.4.1 2.3.8z" id="XMLID_10_"/><path class="st2" d="M29.5 26.8c.5 2.8 0 5.5-1.2 7.8-.3-.9-.9-2-1.6-3.6-.6-1.4-1.4-2.7-2-3.7-.5-.9-.7-1.5-.7-1.8 0-.2.5-.8 1.6-1.7.5-.4 1-.8 1.3-1 .3-.2.5-.4.6-.4.1 0 .1 0 .1-.1 1 1.2 1.6 2.8 1.9 4.5z" id="XMLID_9_"/><path d="M17.4 46.3C7.8 46.3 0 38.5 0 28.9c0-9.6 7.8-17.4 17.4-17.4 9.6 0 17.4 7.8 17.4 17.4.1 9.6-7.7 17.4-17.4 17.4zm0-34.5c-9.4 0-17 7.6-17 17s7.6 17 17 17 17-7.6 17-17c.1-9.3-7.6-17-17-17z"/></svg>