<svg width="512" height="512" fill="none" xmlns="http://www.w3.org/2000/svg"><path d="M412.969 165.211c-18.688-27.797-35.313-60.797-56.906-87.61-10.828-13.39-23-25.296-37.594-33.921-14.563-8.641-31.578-13.828-51.063-13.797-2.922 0-5.875.109-8.891.344-31.922 2.359-56.078 17.438-71.656 36.547-7.766 9.516-13.531 19.953-17.375 30.484h-48.828v42.734C50.609 163.039 0 228.867 0 306.633c0 96.922 78.563 175.484 175.5 175.484 96.906 0 175.469-78.563 175.469-175.484 0-77.766-50.625-143.594-120.656-166.641V97.258h-40.688c2.969-6.469 6.844-12.844 11.656-18.672 12.875-15.625 31.844-27.703 58.656-29.781 2.547-.188 5.047-.297 7.469-.297 21.625.078 38.188 7.266 53.156 19.297 22.375 18.031 40.047 47.75 58.203 77.938 18.25 30.094 37 60.781 64.625 80.031L454 210.445c-15.391-10.609-28.625-26.703-41.031-45.234zM273.328 306.633c0 54.047-43.797 97.844-97.828 97.844-54.063 0-97.844-43.797-97.844-97.844s43.781-97.844 97.844-97.844c54.031 0 97.828 43.797 97.828 97.844zm238.453-97.313l-.547-.218-35.703.953-.734.703-.156 4.125.672.765 35.562 3.61.563-.172.25-.531.312-8.688-.219-.547z" fill="#00A0E8"/><path d="M402.313 212.18l.156-4.125-.672-.766-35.547-3.609-.578.172-.25.546-.313 8.688.204.547.562.203 35.719-.938.719-.718zm65.171-23.735l27.704-22.593.281-.532-.219-.562-5.906-6.36-.531-.234-.547.234-24.578 25.922v1.032l2.781 3 1.015.093zm-57.875 46.063l-27.703 22.578-.265.531.203.578 5.89 6.344.547.25.547-.234 24.578-25.953v-1l-2.797-3.016-1-.078zm28.235-59.266l4.125.156.75-.687 3.609-35.531-.172-.578-.531-.25-8.687-.329-.532.219-.234.563.953 35.703.719.734zm1.39 72.485l-4.109-.172-.75.687-3.609 35.547.172.563.531.25 8.687.328.547-.219.235-.563-.969-35.703-.735-.718zm26.454-11.11h-1l-3.032 2.797-.062 1 22.578 27.688.516.281.562-.188 6.375-5.906.219-.547-.219-.547-25.937-24.578zM163.172 262.68v62.109c0 5.141 4.172 9.313 9.313 9.313h62.109c5.156 0 9.328-4.172 9.328-9.313 0-5.141-4.172-9.313-9.328-9.313h-52.781V262.68c0-5.141-4.188-9.328-9.328-9.328s-9.313 4.187-9.313 9.328z" fill="#00A0E8"/></svg>