<svg width="398" height="452" fill="none" xmlns="http://www.w3.org/2000/svg"><path d="M395.014 233.358l-44.602-87.144c-6.148-22.748-14.396-43.772-24.864-62.368l18.373 6.013-19.77-38.638h19.77S281.912 7.058 208.286 1.206c-.032 0-.064 0-.104-.008C201.124.328 193.81 0 186.217 0 85.22 0 0 61.49 0 162.487c0 156.849 109.389 173.185 109.389 232V452h153.664v-76.876c0-22.876 27.762-17.917 48.075-17.702 27.555.296 43.133-18.652 40.29-56.091-.982-12.879-.2-27.292 1.262-41.185h25.958c16.544 0 23.921-12.057 16.376-26.788zm-215.983 38.15c-63.502 0-114.979-51.476-114.979-114.978 0-63.502 51.477-114.978 114.979-114.978 63.501 0 114.978 51.476 114.978 114.978 0 63.502-51.485 114.978-114.978 114.978z" fill="#00A0E8"/><path d="M252.8 118.603h-23.387v11.976H252.8v-11.976zm-123.705 0H104.79v11.976h24.305v-11.976zm.008 31.938h-23.85v11.977h23.85v-11.977zm124.161 0h-23.85v11.977h23.85v-11.977zm-124.169 31.938H104.79v11.977h24.305v-11.977zm123.705 0h-23.387v11.977H252.8v-11.977zM153.304 82.53h-11.977v23.849h11.977v-23.85zm0 124.159h-11.977v23.85h11.977v-23.85zM185.243 82.53h-11.977v23.849h11.977v-23.85zm0 124.159h-11.977v23.85h11.977v-23.85zM217.181 82.53h-11.977v23.849h11.977v-23.85zm0 124.159h-11.977v23.85h11.977v-23.85zm-75.854-88.085v75.853h75.854v-75.853h-75.854zm57.489 57.489h-39.124v-39.125h39.124v39.125z" fill="#00A0E8"/></svg>