<svg width="960" height="311" fill="none" xmlns="http://www.w3.org/2000/svg"><path d="M132.855 27.687l19.215-1.485.107 1.382-19.215 1.485-.107-1.382zm-.656-9.636l19.039-1.472.108 1.404-19.039 1.472-.108-1.404zm1.167 3.683l17.372-1.343.105 1.36-17.372 1.343-.105-1.36zm1.347 2.875l15.179-1.174.098 1.273-15.178 1.173-.099-1.272zm6.467-2.839l1.623-.125.919 11.888-1.623.125-.919-11.888zm-2.661-8.157l1.558-.12.354 4.584-1.557.12-.355-4.584zm4.146-.32l1.579-.123.349 4.519-1.579.122-.349-4.519zM141.101 27.6l1.364.513c-1.864 2.439-5.423 4.634-8.62 5.808a8.284 8.284 0 00-1.184-1.321c3.191-.975 6.723-2.947 8.44-5zm2.673-.25c2.017 1.83 5.832 3.234 9.221 3.678-.346.38-.8 1.077-1.005 1.556-3.406-.663-7.223-2.376-9.468-4.586l1.252-.648zm4-14.189l1.725.33c-.543 1.256-1.233 2.611-1.781 3.514l-1.372-.335c.521-.967 1.133-2.471 1.428-3.509zm-2.58 4.877l1.743.285c-.472 1.03-.964 2.082-1.392 2.822l-1.414-.31c.379-.802.861-1.986 1.063-2.796zm-11.466-3.328l1.365-.613c.822.93 1.74 2.249 2.117 3.124l-1.428.662c-.375-.853-1.273-2.196-2.054-3.173zm3.219 4.54l1.534-.428c.56.685 1.141 1.633 1.389 2.276l-1.596.476c-.226-.644-.788-1.638-1.327-2.324zm21.895-.57l-.194 2.39 11.753.954.194-2.39-11.753-.954zm.297-3.662l-.19 2.346 11.753.954.191-2.346-11.754-.954zm-1.532-1.515l15.086 1.225-.714 8.793-15.086-1.225.714-8.793zm9.314 8.702c1.363 2.252 4.31 4.28 7.314 5.34-.399.298-.933.895-1.21 1.314-3.054-1.263-6.02-3.6-7.55-6.241l1.446-.413zm-4.736-.384l1.377.708c-1.952 2.291-5.346 4.135-8.437 4.965-.23-.438-.662-1.09-1.008-1.45 3.029-.615 6.318-2.246 8.068-4.223zm-2.133 3.711l1.666.136-.11 1.36c-.171 2.104-.913 4.715-5.306 6.08-.207-.436-.687-1.05-1.033-1.408 3.977-1.134 4.544-3.23 4.676-4.852l.107-1.316zm4.162-10.764l1.667.135-.606 7.456-1.666-.136.605-7.455zm2.811 11.33l1.688.137-.621 7.653-1.689-.137.622-7.652zm14.854-5.946l-.368 1.518 10.732 2.605.368-1.518-10.732-2.605zm.622-2.565l-.358 1.475 10.733 2.604.358-1.475-10.733-2.604zm-1.28-1.533l13.875 3.367-1.546 6.37-13.875-3.366 1.546-6.371zm-4.381 6.95l18.836 4.571-.322 1.326-18.835-4.57.321-1.326zm8.844 4.976l7.611 1.847-.316 1.304-7.611-1.846.316-1.305zm-6.744-1.5l5.281 1.281-.291 1.197-5.281-1.28.291-1.198zm-.654 2.694l5.281 1.281-.29 1.197-5.281-1.281.29-1.197zm9.353.548c.498 3.359 2.669 6.353 6.086 8.133-.415.216-.983.69-1.29 1.023-3.493-2.025-5.634-5.239-6.194-9.087l1.398-.069zm5.165-.014l.299.073.294.003.884.645c-2.464 3.997-6.554 5.835-10.586 6.215-.077-.427-.343-1.102-.57-1.474 3.67-.197 7.569-1.899 9.616-5.206l.063-.256zm-18.283 2.016c2.137.337 5.32.747 8.417 1.137l-.322 1.325c-2.969-.358-6.029-.716-8.293-.994l.198-1.468zm9.42-6.544l1.54.374-2.667 10.99-1.539-.374 2.666-10.99zm-5.371-1.28l1.496.363-2.111 8.701-1.496-.363 2.111-8.701zM201 22.577l17.635 7.381-.552 1.32-17.635-7.382.552-1.32zm8.75 1.373l1.563.654-1.079 2.577-1.563-.654 1.079-2.577zm-11.179 6.935l15.079 6.312-.544 1.298-13.597-5.69-3.143 7.508-1.481-.62 3.686-8.808zm14.45 6.048l1.522.638-2.922 6.98c-.349.833-.718 1.203-1.478 1.195-.743-.049-1.847-.487-3.532-1.192.118-.452.15-1.154.096-1.654 1.323.602 2.459 1.077 2.821 1.181.345.144.469.077.588-.207l2.905-6.94zm-11.487-1.73l1.36.568-2.225 5.317-1.36-.569 2.225-5.317zm.731.305l7.022 2.939-1.793 4.282-7.021-2.939.458-1.096 5.642 2.362.875-2.09-5.642-2.362.459-1.096zm2.07-7.338l-.824 1.969 7.935 3.32.824-1.968-7.935-3.32zm-.994-1.728l10.938 4.579-1.758 4.2-10.939-4.578 1.759-4.2zm23.53 8.653l-2.205 3.55 7.476 4.643 2.205-3.551-7.476-4.642zm-.529-2.193l10.261 6.37-3.876 6.244-10.261-6.372 3.876-6.242zm-7.816 6.54l6.653 4.132-4.978 8.018-1.402-.87 4.143-6.672-3.925-2.438-4.236 6.822-1.327-.823 5.072-8.168zm8.691 5.397l7.027 4.364-5.002 8.055-1.401-.87 4.166-6.71-4.28-2.658-4.236 6.822-1.346-.835 5.072-8.168zm-11.702.788l5.214 3.238-.835 1.345-5.215-3.237.836-1.346zm8.784 5.454l5.551 3.447-.835 1.346-5.552-3.447.836-1.346zm25.227-2.991l.187 1.498c-1.71-.78-3.954-2.254-5.736-3.59.137-.26.32-.741.374-1.073 1.742 1.215 3.884 2.572 5.175 3.164zm7.143 6.201l.156 1.502c-1.793-.852-4.156-2.458-6.04-3.912.151-.276.306-.724.39-1.058 1.828 1.318 4.089 2.806 5.494 3.468zM244.32 44.288l1.103 1.651c-.117.102-.258.097-.503-.057l-.95 1.099c-1.05 1.215-2.86 2.703-5.332 2.806.047-.425-.022-1.153-.159-1.533 2.148-.063 3.482-1.236 4.403-2.301l1.438-1.665zm6.781 5.948l1.13 1.587c-.117.102-.258.096-.503-.057l-.835.965c-.949 1.099-2.593 2.295-5.126 1.996.08-.396.059-1.112-.063-1.509 2.127.298 3.297-.552 4.117-1.5l1.28-1.482zm-7.962-3.538l5.626 4.862-.849.982-5.626-4.862.849-.982zm6.808 5.884l6.341 5.48-.848.983-6.342-5.481.849-.982zm-4.578-3.317l1.132.978-2.331 2.697-1.132-.978 2.331-2.697zm6.991 6.042l1.132.978-2.374 2.747-1.132-.978 2.374-2.747zm-13.037-1.031l-1.007 1.165 8.423 7.279 1.007-1.165-8.423-7.28zm-1.697 1.964l-1.036 1.198 8.422 7.28 1.036-1.2-8.422-7.278zm3.409-3.945l-1.007 1.165 8.422 7.279 1.007-1.165-8.422-7.28zm-.496-1.883l10.886 9.409-5.898 6.824-10.886-9.408 5.898-6.825zm.11 13.5l1.562.245c1.342 2.148 2.723 4.621 3.432 6.223l-1.928-.561c-.574-1.456-1.77-3.74-3.066-5.907zm-3.336-4.047l.686 1.495c-2.039-.367-4.815-1.428-6.882-2.4.016-.423 0-1.28-.096-1.74 2.031 1.115 4.532 2.259 6.292 2.645zm26.736 7.635c1.229 2.101 4.18 5.455 5.838 6.905l-1.361 1.15c-1.722-1.627-4.477-4.886-5.823-6.888l1.346-1.167zm-6.301 6.45c-.732.36-1.274.674-1.727 1.057-.773.653-1.075 1.83.871 4.132 1.264 1.495 2.506 2.692 3.962 3.766l-1.383 1.227c-1.099-.857-2.427-2.155-3.904-3.902-2.372-2.806-2.496-4.861-.917-6.196.555-.469 1.231-.896 2.193-1.393l.905 1.309zm4.896-10.736c-.37.14-1.022.46-1.381.65-1.832 1-5.263 3.008-7.162 4.613a24.081 24.081 0 00-2.207 2.126c.997-.354 2.332-.82 3.262-1.116l.042 1.174c-1.548.588-3.837 1.458-4.771 1.988a5.47 5.47 0 00-.828.556c-.153.158-.374.374-.545.547l-1.092-1.122c.908-1.344 2.599-3.263 4.884-5.195 2.47-2.088 5.812-3.962 7.376-4.94.43-.275.892-.58 1.276-.876l1.146 1.595zm12.78 15.146l9.05 14.942-1.393.843-9.05-14.94 1.393-.844zm-6.115 4.81l8.161 13.474-1.374.832-8.161-13.473 1.374-.832zm-8.279 2.597l10.225 16.879-1.374.832-10.224-16.879 1.373-.832zm18.094-.49l.9 1.486-14.338 8.685-.901-1.486 14.339-8.686zm14.932 26.437l-.774 1.649c-2.589-3.243-5.608-9.043-7.839-13.906.37-.2.906-.633 1.193-.918 2.21 4.754 5.195 10.473 7.42 13.175zm-11.422-11.511l6.507 15.879-1.465.6-6.507-15.878 1.465-.601zm-5.343.597l7.534 18.382-1.486.609-7.534-18.382 1.486-.609zm11.813 4.978l.65 1.588-14.412 5.907c-1.079.442-1.681.308-2.242-.365-.562-.674-1.145-1.98-2.008-4.147.385-.276.961-.845 1.268-1.256a63.875 63.875 0 001.523 3.774c.192.468.401.573.828.398l14.393-5.899z" fill="#00A0E8"/><circle cx="144" cy="174" r="130" fill="#F5F5F5"/><path d="M83 208.784v1.704h12.048v-1.704H83zm0-2.88v1.656h12.048v-1.656H83zm-1.752-1.296h15.576v7.152H81.248v-7.152zm-2.856 8.496h21.144v1.488H78.392v-1.488zm10.656 3h8.544v1.464h-8.544v-1.464zm-7.536.144h5.928v1.344h-5.928v-1.344zm0 3.024h5.928v1.344h-5.928v-1.344zm10.056-1.824c1.392 3.432 4.464 6.048 8.544 7.056-.384.336-.864.984-1.104 1.416-4.224-1.248-7.32-4.104-8.904-8.04l1.464-.432zm5.472-1.344h.336l.312-.072 1.104.456c-1.584 4.872-5.448 7.872-9.624 9.312-.192-.432-.648-1.08-.984-1.416 3.84-1.152 7.536-3.96 8.856-7.992v-.288zm-18.864 6.84c2.352-.192 5.832-.576 9.216-.96v1.488c-3.24.384-6.576.792-9.048 1.08l-.168-1.608zm8.304-9.36h1.728v12.336H86.48v-12.336zm-6.024.024h1.68v9.768h-1.68v-9.768zm22.104-7.464h20.856v1.56H102.56v-1.56zm9.384-2.304h1.848v3.048h-1.848v-3.048zm-8.328 11.688h17.832v1.536h-16.08v8.88h-1.752v-10.416zm17.088 0h1.8v8.256c0 .984-.216 1.512-.984 1.824-.768.264-2.064.288-4.056.288-.072-.504-.336-1.224-.6-1.704 1.584.048 2.928.048 3.336 0 .408 0 .504-.12.504-.456v-8.208zm-12.288 3.096h1.608v6.288h-1.608v-6.288zm.864 0h8.304v5.064h-8.304v-1.296h6.672v-2.472h-6.672v-1.296zm-1.008-8.256v2.328h9.384v-2.328h-9.384zm-1.728-1.32h12.936v4.968h-12.936v-4.968zm25.68-2.448v4.56h9.6v-4.56h-9.6zm-1.752-1.728h13.176v8.016h-13.176v-8.016zm-3.48 10.56h8.544v10.296h-1.8v-8.568h-5.04v8.76h-1.704v-10.488zm11.16 0h9.024v10.344h-1.8v-8.616h-5.496v8.76h-1.728v-10.488zm-10.392 7.464h6.696v1.728h-6.696v-1.728zm11.28 0h7.128v1.728h-7.128v-1.728zm19.992-18.984l1.224 1.104c-1.968.576-4.872.96-7.296 1.128-.072-.312-.264-.84-.456-1.152 2.304-.24 5.04-.648 6.528-1.08zm10.32.024l1.2 1.128c-2.088.576-5.184.936-7.776 1.08-.072-.336-.264-.816-.432-1.152 2.448-.216 5.376-.6 7.008-1.056zm-17.328.552l2.088.576c-.024.168-.144.264-.456.312v1.584c0 1.752-.432 4.272-2.4 6.12-.264-.384-.84-.936-1.224-1.152 1.728-1.584 1.992-3.504 1.992-5.04v-2.4zm9.84.072l2.064.504c-.024.168-.144.264-.456.312v1.392c0 1.584-.504 3.744-2.808 5.304-.216-.384-.744-.96-1.128-1.2 1.968-1.272 2.328-2.808 2.328-4.176v-2.136zm-9.096 2.76h8.112v1.416h-8.112v-1.416zm9.816 0h9.144v1.416h-9.144v-1.416zm-6.144.528h1.632v3.888h-1.632v-3.888zm10.08 0h1.632v3.96h-1.632v-3.96zm-11.496 8.448v1.68h12.144v-1.68h-12.144zm0 2.832v1.728h12.144v-1.728h-12.144zm0-5.688v1.68h12.144v-1.68h-12.144zm-1.752-1.2h15.696v9.84h-15.696v-9.84zm9.72 11.064l1.464-.912c2.64.816 5.544 1.872 7.272 2.688l-1.992.912c-1.512-.792-4.128-1.824-6.744-2.688zm-5.64-.96l1.632.744c-1.944 1.152-4.992 2.256-7.392 2.928-.288-.36-.912-1.056-1.32-1.368 2.472-.528 5.352-1.368 7.08-2.304zm17.136-11.592h21.096v1.824h-21.096v-1.824zm11.688.72c1.56 5.808 4.824 10.656 9.816 12.72-.456.408-1.056 1.176-1.368 1.68-5.184-2.448-8.448-7.512-10.248-13.968l1.8-.432zm-2.112-7.608h1.944c-.096 6.288-.144 17.232-10.632 22.032-.288-.48-.864-1.128-1.368-1.488 10.2-4.44 10.008-14.784 10.056-20.544zm23.976-.024h1.8v3.672h-1.8v-3.672zm-8.928 2.736h19.992v4.224h-1.752v-2.88h-16.536v2.88h-1.704v-4.224zm5.376 3.768V212h9.264v-1.656h-9.264zm-1.704-1.152h12.744v3.936h-12.744v-3.936zm-1.344-4.68l1.584-.504c.744.696 1.536 1.656 1.944 2.328l-1.656.648c-.36-.696-1.176-1.728-1.872-2.472zm13.68-.6l1.824.528a20.316 20.316 0 01-2.328 2.52l-1.44-.48c.648-.72 1.512-1.824 1.944-2.568zm-11.928 13.872v1.32h12v-1.32h-12zm0 2.4v1.368h12v-1.368h-12zm0-4.776v1.296h12v-1.296h-12zm-1.728-1.128h15.504v8.376h-15.504v-8.376zm3.936 8.592l1.704.648c-1.824 1.104-4.896 1.992-7.32 2.52-.288-.36-.936-1.056-1.32-1.368 2.472-.36 5.352-.984 6.936-1.8zm5.496.96l1.368-1.032c2.616.624 5.568 1.464 7.296 2.136l-1.8 1.032c-1.56-.624-4.2-1.464-6.864-2.136zm-108.929-90.88h5.928v8.4a17.47 17.47 0 01-2.808.672c-.944.144-2.016.216-3.216.216-1.776 0-3.272-.352-4.488-1.056-1.216-.72-2.144-1.736-2.784-3.048-.624-1.328-.936-2.896-.936-4.704 0-1.792.352-3.344 1.056-4.656a7.4 7.4 0 013.024-3.048c1.328-.736 2.928-1.104 4.8-1.104.96 0 1.864.088 2.712.264.864.176 1.664.424 2.4.744l-.816 1.872a12.46 12.46 0 00-2.064-.696 9.471 9.471 0 00-2.352-.288c-1.36 0-2.528.28-3.504.84-.976.56-1.72 1.36-2.232 2.4-.512 1.024-.768 2.248-.768 3.672 0 1.36.216 2.568.648 3.624a5.29 5.29 0 002.088 2.448c.944.576 2.184.864 3.72.864.512 0 .96-.016 1.344-.048.4-.048.76-.104 1.08-.168.336-.064.648-.128.936-.192v-5.088h-3.768v-1.92zM121.564 142h-9.576v-17.136h9.576v1.896h-7.416v5.352h6.984v1.872h-6.984v6.12h7.416V142zm17.344 0h-2.52l-9.168-14.232h-.096c.016.288.032.608.048.96.032.352.056.736.072 1.152l.048 1.248c.016.432.024.864.024 1.296V142h-1.992v-17.136h2.496l9.144 14.184h.096a23.647 23.647 0 01-.048-.792c-.016-.352-.032-.736-.048-1.152l-.048-1.32a35.122 35.122 0 01-.024-1.248v-9.672h2.016V142zm12.21 0l-5.64-15.024h-.096c.032.32.056.728.072 1.224.032.496.056 1.04.072 1.632.016.576.024 1.168.024 1.776V142h-1.992v-17.136h3.192l5.28 14.04h.096l5.376-14.04h3.168V142h-2.136v-10.536c0-.56.008-1.112.024-1.656.016-.56.04-1.08.072-1.56.032-.496.056-.912.072-1.248h-.096l-5.712 15h-1.776zm24.966 0l-2.064-5.304h-6.792l-2.04 5.304h-2.184l6.696-17.208h1.944L178.316 142h-2.232zm-4.632-12.408c-.048-.128-.128-.36-.24-.696a79.26 79.26 0 01-.336-1.032 14.135 14.135 0 00-.24-.84c-.08.32-.168.648-.264.984-.08.32-.168.616-.264.888-.08.272-.152.504-.216.696l-1.944 5.184h5.424l-1.92-5.184zM190.812 142h-11.328v-1.752l4.488-4.536a51.138 51.138 0 002.184-2.304c.592-.672 1.04-1.328 1.344-1.968a5.018 5.018 0 00.456-2.136c0-.944-.28-1.656-.84-2.136-.56-.496-1.288-.744-2.184-.744-.832 0-1.568.144-2.208.432a9.887 9.887 0 00-1.92 1.2l-1.128-1.416a9.613 9.613 0 011.464-1.032 8.064 8.064 0 011.752-.72 7.663 7.663 0 012.04-.264c1.072 0 1.992.184 2.76.552.768.368 1.36.896 1.776 1.584.432.672.648 1.48.648 2.424a5.89 5.89 0 01-.312 1.92 7.857 7.857 0 01-.888 1.752c-.384.576-.848 1.16-1.392 1.752a47.42 47.42 0 01-1.8 1.848l-3.576 3.528v.096h8.664V142zm9.774 0h-2.064v-13.152c.016-.32.032-.616.048-.888l.048-.888a11.61 11.61 0 01-.696.648l-.792.672-1.824 1.488-1.104-1.416 4.632-3.6h1.752V142zM64.507 180h-7.552v-1.168l2.992-3.024a34.111 34.111 0 001.456-1.536c.395-.448.694-.885.897-1.312.202-.437.303-.912.303-1.424 0-.629-.186-1.104-.56-1.424-.373-.331-.858-.496-1.456-.496-.554 0-1.045.096-1.472.288a6.607 6.607 0 00-1.28.8l-.752-.944c.3-.256.625-.485.977-.688a5.344 5.344 0 011.167-.48c.427-.117.88-.176 1.36-.176.715 0 1.328.123 1.84.368.513.245.907.597 1.184 1.056.289.448.432.987.432 1.616 0 .448-.069.875-.208 1.28a5.232 5.232 0 01-.592 1.168 9.672 9.672 0 01-.928 1.168c-.362.395-.762.805-1.2 1.232l-2.384 2.352v.064h5.776V180zm9.205-5.728c0 .928-.07 1.755-.208 2.48-.139.725-.363 1.344-.672 1.856a3.073 3.073 0 01-1.184 1.152c-.48.267-1.062.4-1.744.4-.854 0-1.563-.235-2.128-.704-.555-.469-.97-1.141-1.248-2.016-.267-.885-.4-1.941-.4-3.168 0-1.237.122-2.293.368-3.168.256-.875.661-1.541 1.216-2 .554-.469 1.285-.704 2.192-.704.853 0 1.562.235 2.128.704.565.459.986 1.125 1.264 2 .277.875.416 1.931.416 3.168zm-6.176 0c0 1.045.074 1.915.224 2.608.16.693.41 1.216.752 1.568.352.341.816.512 1.392.512s1.034-.171 1.376-.512c.352-.341.608-.859.768-1.552.16-.704.24-1.579.24-2.624 0-1.045-.08-1.909-.24-2.592-.16-.693-.416-1.211-.768-1.552-.342-.352-.8-.528-1.376-.528-.576 0-1.04.176-1.392.528-.342.341-.592.859-.752 1.552-.15.683-.224 1.547-.224 2.592zM82.82 180h-7.552v-1.168l2.992-3.024a34.111 34.111 0 001.456-1.536c.395-.448.693-.885.896-1.312.203-.437.304-.912.304-1.424 0-.629-.187-1.104-.56-1.424-.373-.331-.859-.496-1.456-.496-.555 0-1.045.096-1.472.288a6.607 6.607 0 00-1.28.8l-.752-.944a6.45 6.45 0 01.976-.688 5.344 5.344 0 011.168-.48c.427-.117.88-.176 1.36-.176.715 0 1.328.123 1.84.368s.907.597 1.184 1.056c.288.448.432.987.432 1.616 0 .448-.07.875-.208 1.28a5.232 5.232 0 01-.592 1.168 9.672 9.672 0 01-.928 1.168c-.363.395-.763.805-1.2 1.232l-2.384 2.352v.064h5.776V180zm9.156 0h-7.552v-1.168l2.992-3.024a34.111 34.111 0 001.456-1.536c.395-.448.694-.885.896-1.312.203-.437.304-.912.304-1.424 0-.629-.186-1.104-.56-1.424-.373-.331-.858-.496-1.456-.496-.554 0-1.045.096-1.472.288a6.607 6.607 0 00-1.28.8l-.752-.944a6.43 6.43 0 01.976-.688 5.342 5.342 0 011.168-.48c.427-.117.88-.176 1.36-.176.715 0 1.328.123 1.84.368s.907.597 1.184 1.056c.288.448.432.987.432 1.616 0 .448-.07.875-.208 1.28a5.232 5.232 0 01-.592 1.168 9.682 9.682 0 01-.928 1.168c-.362.395-.762.805-1.2 1.232l-2.384 2.352v.064h5.776V180zm5.269-13.488l1.2.304c-.88 2.368-2.304 4.592-3.792 6.032-.24-.208-.737-.608-1.04-.768 1.52-1.328 2.847-3.408 3.632-5.568zm-.257 1.984h10.321v1.168H96.412l.576-1.168zm-.784 3.632h10.753v1.12h-9.552v3.792h-1.2v-4.912zm-2.64 4.304h14.497v1.168H93.564v-1.168zm7.441-7.328h1.232v12.192h-1.232v-12.192zm29.979-5.016h10.632v1.584h-10.632v-1.584zm.912 12.936h11.136v1.632h-11.136v-1.632zm-1.56 5.568h13.752v1.632h-13.752v-1.632zm10.776-18.504h.36l.336-.072 1.224.552c-1.944 5.52-6.456 8.616-11.544 10.248-.216-.456-.672-1.128-1.032-1.488 4.704-1.32 9.024-4.32 10.656-8.928v-.312zm-7.008 1.416c1.704 3.888 5.4 6.696 10.272 7.776-.384.336-.864 1.032-1.128 1.488-5.016-1.32-8.76-4.32-10.752-8.736l1.608-.528zm2.4 8.064h1.752v10.056h-1.752v-10.056zm-10.824-10.704l1.584.624c-.912 1.752-2.04 3.888-2.976 5.208l-1.248-.576c.912-1.368 2.016-3.672 2.64-5.256zm2.688 2.736l1.512.672c-1.632 2.76-3.936 6.24-5.712 8.352l-1.104-.624c1.776-2.16 4.032-5.808 5.304-8.4zm-6.48 2.304l.912-1.176c1.344 1.128 2.856 2.688 3.504 3.768l-.96 1.368c-.648-1.128-2.16-2.808-3.456-3.96zm5.64 3.264l1.248-.504c.984 1.536 1.944 3.6 2.28 4.92l-1.344.624c-.336-1.344-1.224-3.456-2.184-5.04zm-5.712 2.448c2.088-.072 5.088-.192 8.136-.36l-.024 1.488c-2.88.192-5.784.36-7.968.504l-.144-1.632zm6.336 3.216l1.296-.408c.672 1.344 1.32 3.168 1.56 4.368l-1.392.48c-.216-1.2-.864-3.048-1.464-4.44zm-4.992-.264l1.56.288c-.336 2.256-.936 4.584-1.704 6.12-.312-.192-1.032-.528-1.416-.696.792-1.464 1.272-3.6 1.56-5.712zm2.592-2.28h1.608v10.704h-1.608v-10.704zm26.952-8.928h15.12v1.608h-15.12v-1.608zm3.048 9.6h9.144v1.56h-9.144v-1.56zm-.096 3.864h9.264v1.56h-9.264v-1.56zm3.648-15.96h1.848v3.264h-1.848v-3.264zm4.704 10.704h1.776v11.352h-1.776v-11.352zm-.48-7.344l1.704.48c-2.232 4.056-7.032 6.096-12.336 7.224-.168-.408-.6-1.176-.912-1.56 5.136-.84 9.696-2.64 11.544-6.144zm-16.368-1.872l1.008-1.296c1.512.648 3.408 1.728 4.32 2.568l-1.032 1.464c-.912-.864-2.76-2.016-4.296-2.736zm-1.272 6.528l.984-1.344c1.536.576 3.48 1.608 4.44 2.4l-1.032 1.488c-.936-.816-2.832-1.896-4.392-2.544zm.72 12.552c1.224-1.848 2.976-5.04 4.272-7.776l1.368 1.104c-1.176 2.544-2.76 5.592-4.08 7.824l-1.56-1.152zm8.16-9.888h1.728v3.144c0 2.592-.432 6.072-3.432 8.472-.336-.312-1.008-.768-1.44-1.008 2.784-2.16 3.144-5.256 3.144-7.488v-3.12zm1.728-7.392c2.736 3.72 6.672 5.016 11.784 5.952a4.675 4.675 0 00-1.008 1.608c-5.232-1.128-9.312-2.712-12.24-6.936l1.464-.624zm20.4 8.232h13.296v1.44h-13.296v-1.44zm-.384 3.984h13.032v1.44h-13.032v-1.44zm-2.064 4.488h17.184v1.56h-17.184v-1.56zm7.536-10.632h1.776v11.616h-1.776v-11.616zm-4.56-.048l1.608.384c-.744 2.112-2.016 4.176-3.288 5.52-.336-.24-1.032-.696-1.44-.888 1.32-1.248 2.472-3.12 3.12-5.016zm-4.488-2.16h18.816v1.584h-18.816v-1.584zM171.64 165h18.888v1.584H171.64V165zm8.448-2.16h1.8v3.144h-1.8v-3.144zm-8.112 7.176h1.728v3.744c0 3.192-.384 7.92-2.52 11.136-.288-.312-1.032-.912-1.392-1.128 1.944-3 2.184-7.128 2.184-10.008v-3.744zm3.432-3.12l1.608-.432c.624 1.008 1.224 2.352 1.392 3.24l-1.728.48c-.168-.888-.696-2.256-1.272-3.288zm9.816-.6l1.992.48c-.648 1.224-1.368 2.544-1.92 3.432l-1.464-.48c.48-.96 1.08-2.424 1.392-3.432zm9.288 11.376h21.024v1.512h-21.024v-1.512zm.096-10.536h20.832v1.536h-20.832v-1.536zm.96 4.104h19.008v1.488h-19.008v-1.488zm1.224 3.24H213.4v1.392h-16.608v-1.392zm7.272-2.544h1.776v13.008h-1.776v-13.008zm-2.208-9.096h1.704v5.016h-1.704v-5.016zm4.536 0h1.728v4.944h-1.728v-4.944zm-2.904 15.432l1.44.672c-2.232 2.496-6.288 4.584-9.864 5.592a8.997 8.997 0 00-1.176-1.536c3.552-.792 7.56-2.64 9.6-4.728zm2.928-.048c2.04 2.16 6.072 4.008 9.72 4.776-.408.384-.96 1.104-1.224 1.608-3.648-1.008-7.656-3.192-9.912-5.784l1.416-.6zm5.544-15.096l1.848.504c-.696 1.32-1.56 2.736-2.232 3.672l-1.464-.48c.648-1.008 1.44-2.592 1.848-3.696zm-3.216 5.088l1.872.456c-.6 1.08-1.224 2.184-1.752 2.952l-1.512-.456c.48-.84 1.104-2.088 1.392-2.952zm-12.192-4.584l1.536-.552c.816 1.08 1.704 2.592 2.04 3.576l-1.608.6c-.336-.96-1.2-2.496-1.968-3.624zm3.12 5.208l1.704-.336c.552.792 1.104 1.872 1.32 2.592l-1.776.384c-.192-.72-.72-1.848-1.248-2.64zm28.392-6h1.8v5.688c0 .936-.24 1.392-.984 1.632-.768.264-1.92.264-3.624.264-.12-.48-.456-1.128-.744-1.584 1.392.072 2.688.072 3.072.024.36 0 .48-.072.48-.384v-5.64zm5.808 4.44l1.728.768c-3.432 3.936-10.152 5.856-16.56 6.888-.216-.432-.768-1.224-1.128-1.608 6.504-.816 12.984-2.592 15.96-6.048zm-10.392-3.168l1.752.552c-1.392 2.088-3.552 4.104-5.544 5.376-.312-.312-1.008-.96-1.416-1.248 1.992-1.128 3.984-2.856 5.208-4.68zm9.648.744l1.416-.888c1.92 1.296 4.248 3.216 5.4 4.56l-1.536 1.008c-1.056-1.32-3.36-3.312-5.28-4.68zm-10.344 7.872h14.088v12.12h-1.824v-10.68h-10.512v10.8h-1.752v-12.24zm.864 3.36h12.216v1.32h-12.216v-1.32zm0 3.312h12.216v1.32h-12.216v-1.32zm0 3.288h12.216v1.416h-12.216v-1.416zM32 41.856v1.136h8.032v-1.136H32zm0-1.92v1.104h8.032v-1.104H32zm-1.168-.864h10.384v4.768H30.832v-4.768zm-1.904 5.664h14.096v.992H28.928v-.992zm7.104 2h5.696v.976h-5.696v-.976zm-5.024.096h3.952v.896h-3.952v-.896zm0 2.016h3.952v.896h-3.952v-.896zm6.704-1.216c.928 2.288 2.976 4.032 5.696 4.704-.256.224-.576.656-.736.944-2.816-.832-4.88-2.736-5.936-5.36l.976-.288zm3.648-.896h.224l.208-.048.736.304c-1.056 3.248-3.632 5.248-6.416 6.208a3.84 3.84 0 00-.656-.944c2.56-.768 5.024-2.64 5.904-5.328v-.192zm-12.576 4.56c1.568-.128 3.888-.384 6.144-.64v.992c-2.16.256-4.384.528-6.032.72l-.112-1.072zm5.536-6.24h1.152v8.224H34.32v-8.224zm-4.016.016h1.12v6.512h-1.12v-6.512zm14.736-4.976h13.904v1.04H45.04v-1.04zm6.256-1.536h1.232v2.032h-1.232V38.56zm-5.552 7.792h11.888v1.024h-10.72v5.92h-1.168v-6.944zm11.392 0h1.2v5.504c0 .656-.144 1.008-.656 1.216-.512.176-1.376.192-2.704.192-.048-.336-.224-.816-.4-1.136 1.056.032 1.952.032 2.224 0 .272 0 .336-.08.336-.304v-5.472zm-8.192 2.064h1.072v4.192h-1.072v-4.192zm.576 0h5.536v3.376H49.52v-.864h4.448V49.28H49.52v-.864zm-.672-5.504v1.552h6.256v-1.552h-6.256zm-1.152-.88h8.624v3.312h-8.624v-3.312zm17.12-1.632v3.04h6.4V40.4h-6.4zm-1.168-1.152h8.784v5.344h-8.784v-5.344zm-2.32 7.04h5.696v6.864h-1.2V47.44h-3.36v5.84h-1.136v-6.992zm7.44 0h6.016v6.896h-1.2V47.44H69.92v5.84h-1.152v-6.992zm-6.928 4.976h4.464v1.152H61.84v-1.152zm7.52 0h4.752v1.152H69.36v-1.152zm13.328-12.656l.816.736c-1.312.384-3.248.64-4.864.752a3.069 3.069 0 00-.304-.768c1.536-.16 3.36-.432 4.352-.72zm6.88.016l.8.752c-1.392.384-3.456.624-5.184.72a3.752 3.752 0 00-.288-.768c1.632-.144 3.584-.4 4.672-.704zm-11.552.368l1.392.384c-.016.112-.096.176-.304.208v1.056c0 1.168-.288 2.848-1.6 4.08-.176-.256-.56-.624-.816-.768 1.152-1.056 1.328-2.336 1.328-3.36v-1.6zm6.56.048l1.376.336c-.016.112-.096.176-.304.208v.928c0 1.056-.336 2.496-1.872 3.536-.144-.256-.496-.64-.752-.8 1.312-.848 1.552-1.872 1.552-2.784V39.04zm-6.064 1.84h5.408v.944h-5.408v-.944zm6.544 0h6.096v.944h-6.096v-.944zm-4.096.352h1.088v2.592H80.96v-2.592zm6.72 0h1.088v2.64H87.68v-2.64zm-7.664 5.632v1.12h8.096v-1.12h-8.096zm0 1.888v1.152h8.096v-1.152h-8.096zm0-3.792v1.12h8.096v-1.12h-8.096zm-1.168-.8h10.464v6.56H78.848v-6.56zm6.48 7.376l.976-.608c1.76.544 3.696 1.248 4.848 1.792l-1.328.608c-1.008-.528-2.752-1.216-4.496-1.792zm-3.76-.64l1.088.496c-1.296.768-3.328 1.504-4.928 1.952-.192-.24-.608-.704-.88-.912 1.648-.352 3.568-.912 4.72-1.536zM44.992 65.168h14.064v1.216H44.992v-1.216zm7.792.48c1.04 3.872 3.216 7.104 6.544 8.48-.304.272-.704.784-.912 1.12-3.456-1.632-5.632-5.008-6.832-9.312l1.2-.288zm-1.408-5.072h1.296c-.064 4.192-.096 11.488-7.088 14.688a3.808 3.808 0 00-.912-.992c6.8-2.96 6.672-9.856 6.704-13.696zm15.984-.016h1.2v2.448h-1.2V60.56zm-5.952 1.824h13.328V65.2h-1.168v-1.92H62.544v1.92h-1.136v-2.816zm3.584 2.512V66h6.176v-1.104h-6.176zm-1.136-.768h8.496v2.624h-8.496v-2.624zm-.896-3.12l1.056-.336c.496.464 1.024 1.104 1.296 1.552l-1.104.432c-.24-.464-.784-1.152-1.248-1.648zm9.12-.4l1.216.352a13.544 13.544 0 01-1.552 1.68l-.96-.32c.432-.48 1.008-1.216 1.296-1.712zm-7.952 9.248v.88h8v-.88h-8zm0 1.6v.912h8v-.912h-8zm0-3.184v.864h8v-.864h-8zm-1.152-.752h10.336v5.584H62.976V67.52zm2.624 5.728l1.136.432c-1.216.736-3.264 1.328-4.88 1.68-.192-.24-.624-.704-.88-.912 1.648-.24 3.568-.656 4.624-1.2zm3.664.64l.912-.688c1.744.416 3.712.976 4.864 1.424l-1.2.688c-1.04-.416-2.8-.976-4.576-1.424z" fill="#000"/><path d="M115.365 68.302c-1.103.347-2.451.822-3.876 1.056-.608.102-1.227.158-1.847.153l.061-.202a54.24 54.24 0 00.991-3.943c.247-1.16.403-2.057.466-2.382.189-.947.317-1.632.533-2.114.219-.484.527-.767 1.047-.925 2.089-.509 4.003-1.873 5.343-3.929 1.342-2.041 2.094-4.764 1.882-7.681-.137-1.833-.536-2.63-1.07-2.783-.538-.153-1.227.331-2.078 1.02-.853.692-1.875 1.58-3.048 2.29-.502.306-1.033.578-1.587.795a54.749 54.749 0 00-.462-3.573c-.18-1.11-.349-1.957-.403-2.265-.319-1.806-.455-2.596.372-3.226 1.682-1.157 2.922-3.008 3.424-5.275.509-2.258.266-4.921-.884-7.432-.728-1.576-1.345-2.145-1.869-2.102-.529.04-.984.697-1.515 1.589-.532.896-1.146 2.024-1.954 3.044a9.97 9.97 0 01-1.148 1.231 58.576 58.576 0 00-1.369-2.636c-.516-.932-.941-1.635-1.086-1.893-.862-1.511-1.231-2.175-.691-3 1.142-1.566 1.671-3.608 1.423-5.785-.241-2.173-1.267-4.469-3.053-6.358-1.125-1.184-1.848-1.506-2.305-1.31-.464.2-.678.925-.887 1.889-.21.963-.423 2.163-.837 3.325-.176.493-.39.975-.646 1.434-.512-.514-1.011-1-1.46-1.418-.778-.73-1.395-1.27-1.613-1.47-1.284-1.174-1.84-1.691-1.579-2.641.608-1.842.486-3.95-.416-5.944-.894-1.994-2.578-3.868-4.859-5.117-1.436-.784-2.224-.872-2.6-.54-.38.33-.36 1.087-.263 2.068.092.937.248 2.08.227 3.256-.774-.905-1.832-1.605-3.021-2.155-1.391-.648-3.474-1.074-5.273-.934-1.803.13-3.287.806-3.634 2.053-.35 1.254.491 2.564 1.633 3.72 1.153 1.147 2.616 2.167 3.793 2.714 1.052.484 2.096.847 3.197.917l-.148.114c-.96.728-1.927 1.336-2.668 1.894-.74.554-1.256 1.053-1.34 1.53-.083.48.266.926 1.252 1.466 1.565.858 3.285 1.198 5.07 1.117a11.334 11.334 0 005.264-1.58c.842-.457 1.443-.059 2.62 1.028.2.185.739.719 1.405 1.441.38.412.8.887 1.227 1.39-.452.213-.916.398-1.378.56-1.134.396-2.242.678-3.118.98-.878.301-1.52.614-1.747 1.044-.225.432-.03.966.745 1.78 1.23 1.302 2.763 2.153 4.485 2.624 1.72.464 3.63.545 5.496.108.943-.178 1.391.385 2.177 1.78.135.24.484.913.896 1.802.34.736.72 1.625 1.073 2.53a14.33 14.33 0 01-1.695.108c-1.263.016-2.46-.074-3.436-.065-.972.009-1.72.11-2.089.46-.371.353-.36.943.129 2.003.772 1.684 1.997 3.03 3.539 4.078a12.124 12.124 0 005.412 1.996c.997.156 1.245.87 1.531 2.527.047.281.155 1.069.245 2.096.086.963.151 2.134.167 3.289a15.817 15.817 0 01-1.671-.509c-1.251-.45-2.402-.977-3.366-1.32-.961-.346-1.735-.517-2.228-.308-.496.21-.703.788-.613 2.002.14 1.925.844 3.701 1.977 5.295a12.86 12.86 0 004.579 3.971c.464.264.687.59.752 1.072.068.482-.02 1.112-.198 1.979-.059.295-.25 1.108-.554 2.146a44.488 44.488 0 01-1.175 3.498l-.07.178a17.18 17.18 0 01-1.418-1.139c-1.045-.93-1.963-1.889-2.771-2.596-.808-.71-1.498-1.175-2.06-1.166-.57.009-.993.489-1.374 1.686-.612 1.9-.614 3.868-.148 5.858a13.768 13.768 0 002.854 5.687c.682.885.338 1.646-.704 3.179-.178.261-.698.968-1.416 1.848a45.65 45.65 0 01-3.038 3.355 18.641 18.641 0 01-.875-1.68c-.615-1.337-1.095-2.645-1.579-3.667-.48-1.024-.952-1.76-1.497-1.992-.55-.23-1.157.045-2.022 1.029-1.382 1.553-2.208 3.431-2.602 5.536a14.74 14.74 0 00.308 6.675c.275 1.144-.385 1.722-2.048 2.736-.284.17-1.088.621-2.157 1.145a44.36 44.36 0 01-3.73 1.62c-1.325.508-3.13 1.285-4.091 1.622-12.525 4.402-27.6 6.302-36.934 13.162-1.455 1.069 1.436 5.185 2.713 4.865 1.276-.317 10.45-5.822 33.417-12.103.963-.34 5.626-1.86 7.051-2.542a55.59 55.59 0 003.998-2.118c1.14-.667 1.993-1.218 2.308-1.408.916-.562 1.572-.975 2.132-1.161.558-.189 1.022-.155 1.544.149a9.19 9.19 0 003.366 1.335c1.23.225 2.553.22 3.902-.032a12.89 12.89 0 004.032-1.513 14.698 14.698 0 003.656-2.992c1.374-1.556 1.7-2.506 1.407-3.046-.295-.547-1.217-.71-2.429-.842-1.213-.129-2.717-.239-4.189-.615a11.16 11.16 0 01-1.824-.626c.156-.182.308-.367.462-.554a57.252 57.252 0 002.596-3.408c.718-1.025 1.238-1.835 1.433-2.123 1.138-1.693 1.633-2.434 2.781-2.31 2.236.356 4.654-.2 6.795-1.675a12.257 12.257 0 002.906-2.85 13.958 13.958 0 002.02-3.976c.594-1.865.513-2.81.053-3.168-.466-.361-1.33-.156-2.434.19z" fill="#4B4B4B"/><path d="M46.106 103.554c2.889-1.117 5.94-2.064 9.03-2.945-3.32-.905-6.61-1.848-9.739-2.947-.961-.338-2.767-1.114-4.09-1.623a44.277 44.277 0 01-3.73-1.619 32.931 32.931 0 01-2.158-1.146c-1.663-1.013-2.323-1.592-2.048-2.735.646-2.256.693-4.582.308-6.676-.394-2.104-1.22-3.982-2.602-5.536-.865-.983-1.473-1.258-2.022-1.028-.545.231-1.017.967-1.497 1.992-.484 1.022-.966 2.33-1.578 3.667-.261.563-.55 1.13-.876 1.68-.15-.151-.304-.304-.455-.462a45.73 45.73 0 01-2.582-2.893 32.094 32.094 0 01-1.417-1.848c-1.042-1.533-1.389-2.294-.704-3.18A13.761 13.761 0 0022.8 70.57c.466-1.99.464-3.958-.148-5.858-.38-1.198-.804-1.677-1.374-1.686-.562-.01-1.251.457-2.06 1.166-.808.707-1.727 1.666-2.771 2.596-.448.394-.916.783-1.418 1.139a43.55 43.55 0 01-1.245-3.677 29.243 29.243 0 01-.554-2.145c-.178-.867-.266-1.498-.198-1.98.065-.481.288-.808.752-1.071a12.887 12.887 0 004.582-3.971c1.13-1.594 1.837-3.37 1.974-5.296.092-1.213-.117-1.792-.612-2.001-.493-.21-1.268-.038-2.23.308-.963.342-2.113.87-3.363 1.32-.54.193-1.098.37-1.672.509a46.58 46.58 0 01.166-3.29c.09-1.026.198-1.814.245-2.096.286-1.657.534-2.37 1.531-2.526a12.127 12.127 0 005.412-1.997c1.543-1.047 2.767-2.393 3.54-4.077.488-1.06.5-1.65.128-2.004-.37-.349-1.117-.45-2.09-.46-.974-.008-2.172.082-3.435.066a14.439 14.439 0 01-1.695-.108c.353-.905.734-1.794 1.074-2.53.412-.89.76-1.563.896-1.801.786-1.396 1.234-1.96 2.177-1.782 1.866.437 3.775.356 5.495-.108 1.723-.47 3.256-1.32 4.485-2.622.775-.815.97-1.349.745-1.781-.227-.43-.869-.743-1.747-1.045-.875-.302-1.983-.583-3.118-.98a14.502 14.502 0 01-1.378-.56c.428-.502.847-.977 1.23-1.39a29.521 29.521 0 011.402-1.44c1.177-1.087 1.779-1.486 2.62-1.029a11.334 11.334 0 005.264 1.58c1.786.082 3.506-.258 5.07-1.116.987-.54 1.335-.986 1.252-1.466-.083-.477-.599-.977-1.34-1.53-.74-.559-1.708-1.167-2.667-1.894l-.149-.115c1.101-.07 2.146-.432 3.197-.916 1.177-.547 2.641-1.567 3.794-2.715 1.141-1.155 1.983-2.465 1.634-3.72-.349-1.247-1.833-1.922-3.636-2.053-1.799-.14-3.881.286-5.273.935-1.188.55-2.246 1.25-3.02 2.154-.021-1.175.134-2.318.227-3.255.096-.982.117-1.738-.264-2.07-.376-.33-1.164-.242-2.6.541-2.28 1.25-3.965 3.123-4.859 5.118-.902 1.994-1.024 4.102-.416 5.943.26.95-.295 1.468-1.578 2.641-.219.2-.836.74-1.614 1.47-.448.42-.948.905-1.46 1.419a9.387 9.387 0 01-.645-1.434c-.415-1.162-.629-2.362-.838-3.326-.21-.964-.424-1.688-.887-1.889-.457-.196-1.18.127-2.306 1.31-1.785 1.89-2.812 4.186-3.052 6.358-.248 2.178.281 4.22 1.422 5.786.541.824.172 1.488-.69 3-.145.258-.57.96-1.086 1.892a57.365 57.365 0 00-1.369 2.637 9.884 9.884 0 01-1.148-1.232c-.808-1.02-1.423-2.148-1.954-3.044-.531-.891-.986-1.548-1.515-1.589-.525-.043-1.141.527-1.866 2.103-1.153 2.51-1.396 5.174-.887 7.431.502 2.268 1.742 4.118 3.424 5.275.826.63.691 1.421.37 3.227-.053.308-.221 1.155-.404 2.264a55.64 55.64 0 00-.459 3.574 10.242 10.242 0 01-1.59-.795c-1.17-.71-2.192-1.599-3.045-2.29-.851-.689-1.54-1.173-2.078-1.02-.534.153-.933.95-1.07 2.783-.211 2.917.54 5.64 1.882 7.681 1.34 2.056 3.254 3.42 5.343 3.929.52.157.828.44 1.047.925.216.482.344 1.166.533 2.114.063.324.218 1.223.466 2.382.246 1.162.59 2.58.99 3.942l.062.203a10.837 10.837 0 01-1.846-.153c-1.425-.234-2.774-.71-3.877-1.056-1.103-.347-1.968-.552-2.434-.191-.46.358-.54 1.303.054 3.167a13.957 13.957 0 002.02 3.976 12.263 12.263 0 002.906 2.85c2.141 1.475 4.56 2.031 6.795 1.676 1.148-.124 1.643.616 2.78 2.31.196.287.716 1.098 1.434 2.123a56.618 56.618 0 003.057 3.962 11.18 11.18 0 01-1.823.626c-1.472.376-2.976.486-4.19.614-1.21.133-2.134.296-2.43.843-.292.54.035 1.49 1.408 3.046a14.701 14.701 0 003.656 2.992 12.899 12.899 0 004.033 1.513 10.74 10.74 0 003.901.031 9.19 9.19 0 003.366-1.335c.522-.303.986-.337 1.544-.148.56.187 1.216.599 2.132 1.161.315.19 1.169.74 2.308 1.407a55.817 55.817 0 003.998 2.119c1.382.663 5.817 2.115 6.956 2.511zm27.658 2.688a253.297 253.297 0 00-9.786 2.909c10.182 3.667 14.766 6.319 15.64 6.537 1.276.32 4.167-3.795 2.71-4.864-2.494-1.835-5.403-3.312-8.564-4.582z" fill="#4B4B4B"/><circle cx="511" cy="172" r="130" fill="#F5F5F5"/><path d="M503.677 29.484l1.623-.126.4 5.177-1.623.125-.4-5.176zm-1.72-5.693l1.526.61c-1.09 1.034-2.443 2.087-3.491 2.808l-1.167-.55c1.042-.787 2.383-1.993 3.132-2.868zm4.991.343l1.487.68c-2.152 1.842-5.165 3.973-7.49 5.3l-1.11-.664c2.343-1.373 5.344-3.657 7.113-5.316zm-10.222 2.489l1.003-1.004c1.745.593 3.961 1.569 5.125 2.362l-1.081 1.142c-1.098-.797-3.297-1.841-5.047-2.5zm11.042.404l1.056-.898c1.981.796 4.397 2.087 5.648 3.138l-1.113 1.013c-1.183-1.034-3.607-2.413-5.591-3.253zm-.124 4.114l1.137-.993c1.895.538 4.31 1.52 5.632 2.345l-1.195 1.107c-1.21-.81-3.63-1.86-5.574-2.46zm-12.679-1.602c4.08-.315 10.783-.944 17.07-1.54l.007 1.235a1472.95 1472.95 0 01-16.903 1.704l-.174-1.399zm5.157 1.345l1.515.478c-1.396 1.344-3.564 2.703-5.393 3.595-.285-.265-.921-.79-1.314-1.024 1.903-.787 3.954-1.939 5.192-3.05zm3.882-15.437l7.523-.582.109 1.404-7.524.582-.108-1.404zm-9.087 8.05l9.037-.699.094 1.207-9.037.698-.094-1.206zm-.586-7.59l9.015-.696.093 1.206-7.458.577.548 7.084-1.557.12-.641-8.29zm1.094 2.454l7.743-.599.285 3.685-7.743.599-.083-1.075 6.207-.48-.12-1.557-6.208.48-.081-1.053zm3.045-2.288l1.382-.107.208 2.698-1.382.107-.208-2.698zm.396 5.133l1.382-.107.207 2.676-1.382.107-.207-2.676zm7.205-4.419c1.52 3.105 4.481 5.435 8.179 6.186a5.518 5.518 0 00-.929 1.396c-3.847-.96-6.847-3.509-8.579-7.082l1.329-.5zm5.084-1.893l.307-.024.28-.088 1.014.275c-.928 4.838-4.006 7.834-7.699 9.443-.204-.359-.621-.9-.952-1.184 3.384-1.32 6.277-4.148 7.068-8.18l-.018-.242zm8.509 4.072l14.319 1.163-.63 7.762-14.78-1.2.111-1.359L531.84 26.4l.408-5.021-12.696-1.031.112-1.381zm2.739-3.287l7.521.61-.11 1.36-7.522-.61.111-1.36zm-2.782 6.529l13.113 1.064-.105 1.294-13.113-1.065.105-1.293zm3.493-8.215l1.749.473c-1.562 2.39-3.865 4.918-7.102 6.73a5.061 5.061 0 00-1.088-1.28c3.041-1.564 5.239-3.901 6.441-5.923zm-1.409 14.63l1.601.13-.262 3.224c-.044.548.144.674 1.241.762l3.705.301c.899.073 1.078-.221 1.364-2.383.307.29.968.586 1.399.71-.415 2.659-.949 3.255-2.747 3.11l-3.969-.323c-2.236-.182-2.725-.685-2.595-2.285l.263-3.246zm1.566-.8l1.116-.968c1.403.665 3.037 1.747 3.826 2.628l-1.169 1.075c-.745-.878-2.374-2.025-3.773-2.735zm7.423 1.817l1.4-.659c1.454 1.398 3.059 3.383 3.719 4.76l-1.54.758c-.617-1.374-2.152-3.397-3.579-4.86zm-11.622-1.473l1.448.647c-.736 1.728-1.778 3.41-3.552 4.325l-1.279-1.097c1.63-.773 2.746-2.294 3.383-3.875zm10.479-11.907l.351.028.27-.066 1.082.816c-.834 1.3-2.15 2.827-3.153 3.761a7.971 7.971 0 00-1.187-.869c.931-.873 2.066-2.348 2.612-3.363l.025-.307zm20.342 6.51l5.794 1.406-.306 1.261-5.794-1.405.306-1.262zm-1.018 3.262l6.307 1.53-.306 1.262-6.307-1.53.306-1.262zm3.661-4.545l1.304.317-1.421 5.858-1.304-.317 1.421-5.858zm-3.53-2.803l9.342 2.267-.342 1.41-9.343-2.266.343-1.411zm.152 10.473l4.896 1.188-1.343 5.537-4.896-1.188.3-1.24 3.656.887.747-3.078-3.655-.887.295-1.219zm-.663-.16l1.219.295-1.546 6.371-1.218-.296 1.545-6.37zm9.255-8.192l1.496.364-4.067 16.761c-.228.94-.545 1.407-1.206 1.519-.666.132-1.74-.106-3.344-.495.04-.443.024-1.217-.102-1.723 1.16.35 2.277.598 2.646.665.32.078.427.013.51-.329l4.067-16.762zm-9.557-2.319l1.475.358-1.862 7.676c-.815 3.356-2.196 8.024-4.76 10.753-.189-.34-.721-.945-1.043-1.204 2.41-2.562 3.56-6.743 4.328-9.907l1.862-7.675zm-8.473 3.853l5.494 1.333-.311 1.283-5.494-1.333.311-1.283zm1.513-5.677l5.302 1.286-.311 1.283-5.302-1.286.311-1.283zm-2.208 8.542l5.494 1.333-.311 1.283-5.495-1.333.312-1.283zm.524-5.985l6.905 1.675-.321 1.326-6.906-1.676.322-1.325zm-.476 9.053l4.724 1.146-1.509 6.222-4.725-1.147.322-1.325 3.378.82.866-3.571-3.378-.82.322-1.325zm-.791-.192l1.325.322-1.753 7.226-1.326-.322 1.754-7.226zm25.831 3.094l-3.007 7.184-1.461-.612 2.412-5.764-2.577-1.078.594-1.42 4.039 1.69zm-2.752 6.575c.325 1.9 1.822 3.338 4.203 4.43 2.21 1.045 6.924 2.946 9.447 3.811-.327.269-.868.877-1.116 1.298-2.335-.858-6.695-2.635-8.926-3.688-2.636-1.223-4.185-2.706-4.773-4.836-1.258.499-2.557.98-3.945 1.449l-.171-1.813c1.164-.275 2.642-.73 3.962-1.203l1.319.552zm1.682-14.846l1.505-.348c.876 1.44 1.711 3.435 1.924 4.693l-1.658.427c-.143-1.253-.949-3.26-1.771-4.772zm5.615 7.383l1.435.219c.203.824.244 1.867.14 2.515l-1.554-.221c.145-.631.133-1.686-.021-2.513zm.47-4.598l10.573 4.426-.476 1.136-10.573-4.425.476-1.137zm-3.727 8.505l10.999 4.604-.475 1.137-11-4.604.476-1.137zm.282-2.84l12.582 5.267-.484 1.157-12.582-5.266.484-1.157zm.972-3.575l13.313 5.572-.493 1.177-13.313-5.572.493-1.177zm-3.382 8.649l12.948 5.42-.493 1.176-12.947-5.42.492-1.176zm10.933-10.45l1.522.638-2.081 4.972-1.522-.637 2.081-4.972zm-3.407 8.138l1.523.637-3.245 7.753-1.522-.637 3.244-7.753zm4.523-1.517l1.312 1.026c-.758.613-1.544 1.238-2.139 1.633l-1.044-.866c.588-.494 1.413-1.27 1.871-1.793zm15.847 6.218c1.816 1.62 5.657 3.901 7.681 4.77l-.94 1.514c-2.139-1.018-5.765-3.269-7.663-4.758l.922-1.526zm-4.006 8.079c-.586.568-1.004 1.033-1.318 1.538-.534.86-.458 2.072 2.103 3.662 1.663 1.033 3.214 1.788 4.93 2.362l-.938 1.593c-1.309-.477-2.972-1.302-4.916-2.509-3.121-1.938-3.873-3.855-2.782-5.612.383-.617.894-1.231 1.656-2l1.265.966zm1.348-11.723c-.309.248-.83.754-1.114 1.044-1.434 1.517-4.079 4.484-5.391 6.596a23.959 23.959 0 00-1.444 2.703c.84-.644 1.966-1.498 2.759-2.067l.402 1.104c-1.291 1.037-3.201 2.57-3.926 3.362a5.398 5.398 0 00-.616.783c-.097.199-.241.472-.35.69l-1.385-.731c.45-1.56 1.467-3.906 3.045-6.448 1.706-2.747 4.307-5.56 5.495-6.972.323-.395.669-.828.943-1.227l1.582 1.163zM609.3 54.086l7.79 6.733-1.05 1.215-7.79-6.733 1.05-1.215zm-6.161-7.506l7.74 6.69-1.007 1.165-7.74-6.69 1.007-1.165zm14.189 7.437l1.249 1.078-11.782 13.633c-.719.832-1.252 1.011-1.953.813-.686-.215-1.564-.916-2.996-2.153.253-.393.573-1.134.721-1.675 1.02.94 1.952 1.746 2.249 1.973.297.228.486.246.745-.054l11.767-13.616zm-10.808 3.656l1.449.41c-.193 1.839-.718 4.06-1.329 5.306l-1.559-.417c.614-1.214 1.231-3.443 1.439-5.299zm-5.929-7.101l1.503.077c.189 3.886-.015 8.798-.704 11.547l-1.732-.014c.751-2.753 1.077-7.706.933-11.61zm8.086-3.974l1.199 1.036-2.949 3.412-1.199-1.036 2.949-3.412zm-1.799 5.918l1.073 1.248c-5.179 4.276-9.866 6.302-15.075 5.667.049-.393.031-1.28-.034-1.744 4.867.862 9.321-1.162 14.036-5.171zm14.69 18.793l1.051 1.243-6.536 5.525c-.588.497-.558.703-.004 1.358.255.302 1.534 1.814 1.874 2.218.569.672 1.091.403 3.631-1.6.007.484.231 1.158.414 1.58-2.886 2.209-3.926 2.512-5.133 1.084l-2.073-2.453c-1.265-1.496-1.171-2.237.257-3.444l6.519-5.511zm-3.391-1.08l.714 1.355c-2.016 1.33-4.589 2.785-6.672 3.047l-.433-1.535c1.99-.27 4.44-1.564 6.391-2.867zm5.617-.341l1.548.16c.464 1.913.871 4.507.837 6.034l-1.708-.112c.077-1.477-.249-4.11-.677-6.082zm.989 8.325l1.405.742c-.779 2.589-2.152 5.565-3.409 7.145l-1.541-.8c1.268-1.533 2.735-4.501 3.545-7.087zm4.519-11.454l1.093 1.293-2.856 2.415-1.093-1.294 2.856-2.414zm-6.911-3.78l11.291 13.357-1.21 1.023-11.291-13.357 1.21-1.023zm-.512-.605l1.066 1.26-4.352 3.679c-2.587 2.187-6.583 5.162-10.358 5.876.033-.403-.082-1.256-.204-1.672 3.584-.667 7.078-3.419 9.497-5.464l4.351-3.679z" fill="#00A0E8"/><path d="M456.548 184h-2.752v-17.536c.021-.427.042-.821.064-1.184l.064-1.184c-.342.341-.651.629-.928.864-.278.235-.63.533-1.056.896l-2.432 1.984-1.472-1.888 6.176-4.8h2.336V184zm15.752-14.016c1.557 0 2.912.267 4.064.8 1.152.533 2.037 1.301 2.656 2.304.64.981.96 2.187.96 3.616 0 1.579-.341 2.944-1.024 4.096-.683 1.131-1.664 2.005-2.944 2.624-1.259.597-2.784.896-4.576.896-1.173 0-2.283-.107-3.328-.32-1.024-.213-1.888-.523-2.592-.928v-2.656c.768.469 1.696.843 2.784 1.12 1.109.256 2.165.384 3.168.384 1.131 0 2.112-.171 2.944-.512.853-.363 1.515-.907 1.984-1.632.469-.747.704-1.675.704-2.784 0-1.493-.459-2.635-1.376-3.424-.917-.811-2.368-1.216-4.352-1.216-.597 0-1.28.053-2.048.16-.768.107-1.387.213-1.856.32l-1.408-.896.864-10.784h11.456v2.56h-9.056l-.544 6.624c.363-.064.853-.139 1.472-.224a15.109 15.109 0 012.048-.128zm16.953 2.472v2.784h9.288v-2.784h-9.288zm-1.68-1.392h12.72v5.568h-12.72v-5.568zm5.064 4.896l2.016.192c-.432 1.2-.936 2.448-1.344 3.312l-1.56-.288c.336-.912.72-2.28.888-3.216zm-6.768 2.592h16.344v7.368h-1.8v-5.76h-12.816v5.784h-1.728v-7.392zm.912 4.896h14.424v1.584h-14.424v-1.584zm-2.76-15.792h19.872v4.728h-1.752v-3.168h-16.464v3.168h-1.656v-4.728zm16.56-3.6l1.872.648c-.984 1.32-2.136 2.784-3.072 3.744l-1.44-.624c.888-1.008 2.016-2.616 2.64-3.768zm-15.144.792l1.536-.672c.864.96 1.848 2.28 2.256 3.168l-1.608.744c-.408-.888-1.32-2.256-2.184-3.24zm6-.48l1.56-.552c.744 1.008 1.584 2.448 1.896 3.384l-1.632.624c-.312-.936-1.104-2.4-1.824-3.456zm15.888 14.304h21.024v1.512h-21.024v-1.512zm.096-10.536h20.832v1.536h-20.832v-1.536zm.96 4.104h19.008v1.488h-19.008v-1.488zm1.224 3.24h16.608v1.392h-16.608v-1.392zm7.272-2.544h1.776v13.008h-1.776v-13.008zm-2.208-9.096h1.704v5.016h-1.704v-5.016zm4.536 0h1.728v4.944h-1.728v-4.944zm-2.904 15.432l1.44.672c-2.232 2.496-6.288 4.584-9.864 5.592a8.997 8.997 0 00-1.176-1.536c3.552-.792 7.56-2.64 9.6-4.728zm2.928-.048c2.04 2.16 6.072 4.008 9.72 4.776-.408.384-.96 1.104-1.224 1.608-3.648-1.008-7.656-3.192-9.913-5.784l1.417-.6zm5.544-15.096l1.848.504c-.696 1.32-1.56 2.736-2.232 3.672l-1.464-.48c.648-1.008 1.44-2.592 1.848-3.696zm-3.216 5.088l1.872.456c-.6 1.08-1.224 2.184-1.752 2.952l-1.512-.456c.48-.84 1.104-2.088 1.392-2.952zm-12.192-4.584l1.536-.552c.816 1.08 1.704 2.592 2.04 3.576l-1.608.6c-.336-.96-1.2-2.496-1.968-3.624zm3.12 5.208l1.704-.336c.552.792 1.104 1.872 1.32 2.592l-1.776.384c-.192-.72-.72-1.848-1.248-2.64zm21.552-4.368h15.72v20.088h-1.896v-18.264h-11.976v18.36h-1.848v-20.184zm1.224 8.328h13.392v1.776h-13.392V173.8zm-.024 8.496h13.464v1.8h-13.464v-1.8zm20.448-14.088c.912-.024 1.68-.072 2.16-.12 1.536-.168 6.072-.6 10.488-.984 2.64-.216 4.872-.36 6.48-.408l.024 1.92c-1.392-.024-3.48.024-4.704.36-3.432 1.104-5.52 4.776-5.52 7.608 0 4.68 4.392 6.192 8.28 6.336l-.696 1.968c-4.44-.168-9.48-2.52-9.48-7.896 0-3.72 2.28-6.792 4.464-8.088-2.568.264-8.688.864-11.28 1.416l-.216-2.112zm15.672 3.336c.552.792 1.464 2.28 1.992 3.36l-1.248.552c-.552-1.152-1.224-2.376-1.944-3.384l1.2-.528zm2.616-1.008c.6.792 1.536 2.256 2.088 3.312l-1.224.6a23.629 23.629 0 00-2.04-3.36l1.176-.552zM493 121.784v1.704h12.048v-1.704H493zm0-2.88v1.656h12.048v-1.656H493zm-1.752-1.296h15.576v7.152h-15.576v-7.152zm-2.856 8.496h21.144v1.488h-21.144v-1.488zm10.656 3h8.544v1.464h-8.544v-1.464zm-7.536.144h5.928v1.344h-5.928v-1.344zm0 3.024h5.928v1.344h-5.928v-1.344zm10.056-1.824c1.392 3.432 4.464 6.048 8.544 7.056-.384.336-.864.984-1.104 1.416-4.224-1.248-7.32-4.104-8.904-8.04l1.464-.432zm5.472-1.344h.336l.312-.072 1.104.456c-1.584 4.872-5.448 7.872-9.624 9.312-.192-.432-.648-1.08-.984-1.416 3.84-1.152 7.536-3.96 8.856-7.992v-.288zm-18.864 6.84c2.352-.192 5.832-.576 9.216-.96v1.488c-3.24.384-6.576.792-9.048 1.08l-.168-1.608zm8.304-9.36h1.728v12.336h-1.728v-12.336zm-6.024.024h1.68v9.768h-1.68v-9.768zm31.104-8.712h12.24v1.68h-12.24v-1.68zm-1.056 18.84h13.512v1.68h-13.512v-1.68zM523.24 131l1.56-.36c.6 1.608 1.152 3.72 1.32 5.088l-1.656.432c-.12-1.392-.648-3.528-1.224-5.16zm6.984-.504l1.824.408c-.624 1.824-1.344 4.056-1.968 5.4l-1.512-.408c.6-1.392 1.32-3.768 1.656-5.4zm-6-6.672v4.224h6.816v-4.224h-6.816zm-1.704-1.608h10.272v7.44H522.52v-7.44zm-6.072-1.296h1.728v4.728c0 3.984-.72 9.552-5.064 13.2-.216-.384-.888-1.056-1.224-1.272 4.08-3.432 4.56-8.28 4.56-11.952v-4.704zm-2.184-.936h7.08v1.656h-7.08v-1.656zm-2.232 6.504h9.6v1.68h-9.6v-1.68zm5.616 3.12c.768.72 3.504 3.864 4.128 4.632l-1.176 1.488c-.816-1.296-3.096-4.104-4.032-5.136l1.08-.984zm-3.192-12.648l1.728.312c-.576 3.12-1.56 6.144-2.856 8.136-.336-.264-1.128-.696-1.56-.864 1.32-1.848 2.208-4.704 2.688-7.584zm-49.896 90.184h20.856v1.56H464.56v-1.56zm9.384-2.304h1.848v3.048h-1.848v-3.048zm-8.328 11.688h17.832v1.536h-16.08v8.88h-1.752v-10.416zm17.088 0h1.8v8.256c0 .984-.216 1.512-.984 1.824-.768.264-2.064.288-4.056.288-.072-.504-.336-1.224-.6-1.704 1.584.048 2.928.048 3.336 0 .408 0 .504-.12.504-.456v-8.208zm-12.288 3.096h1.608v6.288h-1.608v-6.288zm.864 0h8.304v5.064h-8.304v-1.296h6.672v-2.472h-6.672v-1.296zm-1.008-8.256v2.328h9.384v-2.328h-9.384zm-1.728-1.32h12.936v4.968h-12.936v-4.968zm24.72 4.272v8.496h-1.752V216h-3.36v-1.68h5.112zm0 7.704c1.128 1.776 3.264 2.592 6.024 2.712 2.616.096 8.016.024 10.848-.168-.192.432-.504 1.296-.576 1.848-2.64.096-7.608.144-10.272.048-3.12-.12-5.28-.96-6.816-2.856a103.233 103.233 0 01-3.672 3.12l-.96-1.848a44.81 44.81 0 003.792-2.856h1.632zm-4.848-15.504l1.32-1.08c1.584 1.008 3.384 2.568 4.224 3.744l-1.416 1.176c-.768-1.152-2.568-2.784-4.128-3.84zm8.88 5.832v3.048h9.528v-3.048h-9.528zm-1.68-1.464h12.96v5.976h-12.96v-5.976zm-.984-3.528h15.024v1.56h-15.024v-1.56zm6.456-2.472h1.728v18.936h-1.728v-18.936zm-.6 11.4l1.32.504c-1.416 2.568-4.032 5.064-6.456 6.336-.264-.432-.792-1.056-1.176-1.368 2.376-1.032 4.992-3.264 6.312-5.472zm2.76 0c1.44 2.112 4.176 4.32 6.552 5.352-.408.36-.96.96-1.224 1.416-2.352-1.272-5.088-3.816-6.6-6.192l1.272-.576zm23.088-2.28l1.248-1.008c1.512 2.232 3.312 5.136 4.176 7.008l-1.344 1.128c-.84-1.872-2.592-4.896-4.08-7.128zm-5.136-4.656h11.304v1.68h-9.696v15.888H521.2v-17.568zm10.584 0h1.632v15.528c0 .96-.168 1.488-.816 1.752-.624.288-1.656.312-3.168.312-.072-.456-.312-1.224-.552-1.68 1.104.048 2.184.024 2.472.024.312 0 .432-.096.432-.432v-15.504zm-5.112-4.512h1.704c-.144 7.056-.552 13.176-4.536 16.512-.24-.336-.792-.888-1.176-1.128 3.648-3.048 3.912-8.808 4.008-15.384zm-10.992.024l1.584.624c-.912 1.752-2.04 3.888-2.976 5.208l-1.248-.576c.912-1.368 2.016-3.672 2.64-5.256zm2.688 2.736l1.512.672c-1.632 2.76-3.936 6.24-5.712 8.352l-1.104-.624c1.776-2.16 4.032-5.808 5.304-8.4zm-6.48 2.304l.912-1.176c1.344 1.128 2.856 2.688 3.504 3.768l-.96 1.368c-.648-1.128-2.16-2.808-3.456-3.96zm5.64 3.264l1.248-.504c.984 1.536 1.944 3.6 2.28 4.92l-1.344.624c-.336-1.344-1.224-3.456-2.184-5.04zm-5.712 2.448c2.088-.072 5.088-.192 8.136-.36l-.024 1.488c-2.88.192-5.784.36-7.968.504l-.144-1.632zm6.336 3.216l1.296-.408c.672 1.344 1.32 3.168 1.56 4.368l-1.392.48c-.216-1.2-.864-3.048-1.464-4.44zm-4.992-.264l1.56.288c-.336 2.256-.936 4.584-1.704 6.12-.312-.192-1.032-.528-1.416-.696.792-1.464 1.272-3.6 1.56-5.712zm2.592-2.28h1.608v10.704h-1.608v-10.704zm26.472-8.688v4.56h9.6v-4.56h-9.6zm-1.752-1.728h13.176v8.016h-13.176v-8.016zm-3.48 10.56h8.544v10.296h-1.8v-8.568h-5.04v8.76h-1.704v-10.488zm11.16 0h9.024v10.344h-1.8v-8.616h-5.496v8.76h-1.728v-10.488zm-10.392 7.464h6.696v1.728h-6.696v-1.728zm11.28 0h7.128v1.728h-7.128v-1.728z" fill="#000"/><path d="M346.04 38.523l-9.482 26.662c-.944 2.247-1.558 5.89-1.558 7.622v10.514c0 2.853 2.335 5.196 5.195 5.196h6.22c.626 6.447 6.056 11.483 12.666 11.483s12.044-5.036 12.67-11.483h11.503v-54.56h-29.54c-2.856 0-6.311 2.056-7.674 4.566zm13.041 55.11a6.37 6.37 0 01-6.367-6.367 6.363 6.363 0 016.367-6.359 6.36 6.36 0 016.367 6.359 6.367 6.367 0 01-6.367 6.367zm18.196-52.903v20.276h-30.324l5.96-18.26c.522-.964 2.295-2.016 3.387-2.016h20.977zm13.26-13.53v61.317h37.511C428.666 94.964 434.1 100 440.71 100c6.614 0 12.041-5.036 12.674-11.483h12.173V27.2h-75.02zm50.174 66.433a6.37 6.37 0 01-6.367-6.367 6.363 6.363 0 016.367-6.359 6.36 6.36 0 016.367 6.359 6.367 6.367 0 01-6.367 6.367z" fill="#4B4B4B"/><circle cx="455.765" cy="27.199" fill="#fff" r="27.199"/><path d="M447.813 23.943l6.887 5.313.096.055.043.024c.596.332 1.384.156 1.91-.423l.046-.044 8.441-9.987c.481-.539.489-1.314.021-1.73-.468-.417-1.237-.317-1.715.222l-7.891 8.43-6.092-4.243c-.57-.42-1.424-.225-1.907.434-.482.656-.411 1.53.161 1.949zm-8.576 3.255c0-.365.008-.73.046-1.087h-4.323c-.027.358-.034.722-.034 1.087 0 .372.007.73.034 1.09h4.323a10.35 10.35 0 01-.046-1.09zm7.647-13.938c.409-.26.826-.503 1.25-.72l.165-.08-2.155-3.742a16.74 16.74 0 00-1.574.905l2.156 3.743.158-.107zm-9.599 4.317l3.743 2.155.906-1.572-3.745-2.156c-.331.51-.632 1.034-.904 1.573zm33.14 17.253c-.224.424-.461.84-.727 1.242l-.108.158 3.744 2.156c.332-.51.634-1.027.912-1.565l-3.734-2.163-.087.171zm-29.318-.008l-.087-.164-3.735 2.155c.265.539.573 1.063.904 1.573l3.745-2.156-.109-.157a13.42 13.42 0 01-.718-1.25zm5.777 6.309l-.158-.108-2.156 3.745c.51.33 1.035.64 1.574.912l2.155-3.743-.165-.08a13.77 13.77 0 01-1.25-.726zm16.341-28.677l1.573.912 2.155-3.743a16.727 16.727 0 00-1.565-.905l-2.163 3.736zm-8.547 31.226V48c.359.032.722.039 1.087.039s.73-.007 1.087-.039v-4.364h-2.174v.045zm2.174-32.962V6.4a12.198 12.198 0 00-1.087-.04c-.365 0-.728.008-1.087.04v4.363h2.174v-.045zm6.373 31.226l2.163 3.736c.537-.28 1.056-.581 1.565-.912l-2.155-3.745-1.573.92zm11.021-24.367c-.273-.54-.58-1.063-.912-1.573l-3.744 2.156.914 1.572 3.742-2.155zm2.325 8.533h-4.368v2.177h4.368c.027-.358.033-.722.033-1.089 0-.365-.006-.73-.033-1.087z" fill="#4B4B4B"/><path d="M455.764 0c-15.023.001-27.198 12.177-27.199 27.2.001 15.022 12.176 27.198 27.199 27.199 15.023-.001 27.198-12.177 27.199-27.2C482.962 12.177 470.787.001 455.764 0zm0 50.889a23.606 23.606 0 01-16.751-6.939c-4.29-4.293-6.937-10.204-6.938-16.75a23.603 23.603 0 016.938-16.75 23.602 23.602 0 0116.751-6.94 23.602 23.602 0 0116.751 6.94 23.592 23.592 0 016.938 16.75c0 6.546-2.648 12.457-6.938 16.75a23.605 23.605 0 01-16.751 6.939z" fill="#4B4B4B"/><circle cx="830" cy="181" r="130" fill="#F5F5F5"/><path d="M821.879 16.21l1.769.326c-.806 1.85-1.808 4.023-2.691 5.438l-1.396-.356c.836-1.454 1.804-3.78 2.318-5.408zm-3.909 5.09c2.733-.322 7.125-.882 11.298-1.425l.086 1.406c-3.948.592-8.117 1.179-11.021 1.58l-.363-1.561zm7.938-2.93l1.285-.784c1.465 1.255 3.143 2.979 3.921 4.198l-1.39.858c-.731-1.18-2.372-2.994-3.816-4.273zm-7.182 16.42c2.882-.4 7.398-1.057 11.692-1.742l.095 1.515c-4.118.671-8.478 1.361-11.464 1.835l-.323-1.608zm8.665-3.516l1.312-.72c1.433 1.412 3.018 3.364 3.675 4.725l-1.351.789c-.655-1.34-2.178-3.34-3.636-4.794zm-6.866-5.185l.24 3.115 8.182-.632-.241-3.115-8.181.632zm-1.622-1.287l11.274-.871.458 5.922-11.275.872-.457-5.923zm-2.731 2.352l1.535-.119s.039.505.036.748c.144 5.571.04 7.654-.517 8.447-.359.49-.744.653-1.375.768-.567.088-1.619.17-2.721.188-.059-.48-.308-1.123-.607-1.564a25.641 25.641 0 002.553-.087c.373-.028.567-.088.749-.3.424-.518.512-2.511.369-7.796l-.022-.285zm-4.617-4.056l1.47-.114c-.004 2.23-.069 5.103-.173 6.898l-1.488-.128c.131-1.731.221-4.562.191-6.656zm.625 4.365l4.606-.357.113 1.47-4.759.368.04-1.481zm11.318-5.73l1.579-.122.988 12.788-1.572.21-.995-12.876zm-11.504 1.33l3.751-.29-.26-3.355-4.584.354-.114-1.47 6.164-.476.49 6.34-5.33.411-.117-1.513zm22.659-2.613l17.016 1.381-.135 1.667-17.016-1.381.135-1.667zm16.38 1.33l1.711.139s-.072.612-.116.873c-1.241 9.037-1.966 12.267-3.02 13.285-.578.593-1.119.726-1.957.724-.775.026-2.175-.132-3.527-.33.017-.484-.143-1.226-.411-1.733a42.53 42.53 0 003.43.433c.482.039.751-.005 1.057-.245.899-.744 1.659-4.126 2.805-12.795l.028-.351zm-8.823-5.506l1.732.14-.31 3.816c-.406 5-1.57 11.725-9.62 15.73-.209-.415-.773-1.079-1.145-1.396 7.633-3.75 8.665-9.936 9.033-14.475l.31-3.815zm15.356 6.165c.77.277 1.679.543 2.598.766 2.309.56 5.071.936 7.726.72l-.341 1.593c-2.235.069-5.15-.14-7.753-.795a97.974 97.974 0 01-2.491-.65l.261-1.634zm8.435-1.643c-.532.98-1.469 2.88-2.35 4.274-1.773 2.83-4.684 6.244-7.04 8.208l-1.439-1.255c2.443-1.762 5.354-5.085 6.843-7.395.797-1.233 1.724-3 2.151-4.481l1.835.649zm3.443 7.83a21.36 21.36 0 00-.598 2.278c-.295 1.4-.891 4.696-1.233 6.107-.415 1.71-1.843 2.836-4.494 2.192-2.352-.57-4.026-1.973-3.507-4.11.477-1.968 2.638-2.756 5.032-2.175 3.592.871 5.914 3.336 7.299 5.28l-1.251 1.236c-1.283-1.896-3.28-4.396-6.422-5.158-1.583-.384-2.828.083-3.066 1.067-.239.983.429 1.87 2.096 2.274 1.775.43 2.602-.365 2.882-1.52.394-1.624 1.087-5.508 1.573-7.88l1.689.41zm4.141 1.594c-.916-1.264-2.93-3.133-4.18-4.139l1.166-1.075c1.4 1.042 3.479 3.017 4.318 4.036l-1.304 1.178zm15.105 4.909l1.542.645-4.901 11.71-1.543-.646 4.902-11.71zm-7.175.502l13.171 5.513-.586 1.4-13.171-5.512.586-1.4zm7.665 3.853c.198 2.945 1.545 6.394 3.247 8.538a9.418 9.418 0 00-1.576.747c-1.618-2.347-2.825-6.072-3.035-9.331l1.364.046zm-2.271-1.07l1.01.947c-2.531 2.232-6.186 3.898-9.187 4.288a10.773 10.773 0 00-.554-1.64c2.867-.183 6.416-1.654 8.731-3.595zm.763-9.173l-1.555 3.714 7.57 3.168 1.554-3.713-7.569-3.169zm-.872-1.963l10.512 4.4-2.701 6.454-10.512-4.4 2.701-6.454zm-1.728-1.796l1.254 1.05c-2.816 2.851-6.374 5.369-9.529 6.695-.018-.412-.112-1.382-.244-1.866 2.837-1.079 6.051-3.287 8.519-5.88zm-4.302 4.352l2.044-.838.011.03-6.175 14.753-1.461-.612 5.581-13.333zm28.232 8.806l9.569 5.942-.835 1.346-9.57-5.942.836-1.345zm-9.367 13.71l10.485 6.51-.824 1.327-10.485-6.51.824-1.327zm10.468-4.014l4.318 2.68-.836 1.346-4.317-2.68.835-1.346zm2.929-6.468l1.383.858-8.889 14.317-1.384-.858 8.89-14.317zm-6.158 1.951l1.327.824-6.209 10-1.327-.825 6.209-9.999zm-7.292-4.605l5.271 3.273-.685 1.102-5.27-3.272.684-1.103zm3.28-5.033l5.14 3.192-.696 1.12-5.14-3.19.696-1.122zm-4.858 7.575l5.271 3.272-.697 1.122-5.27-3.273.696-1.121zm2.313-5.685l6.803 4.224-.719 1.159-6.804-4.225.72-1.158zm-3.23 8.663l4.673 2.901-3.389 5.458-4.673-2.901.72-1.159 3.439 2.135 1.938-3.121-3.439-2.135.731-1.178zm-.692-.43l1.215.755-3.922 6.318-1.215-.755 3.922-6.317zm29.32 4.385l.88 1.37c-3.397 1.98-7.357 3.5-10.614 3.971.112-.398.306-1.363.332-1.864 2.891-.351 6.414-1.668 9.402-3.477zm-5.209 3l2.186-.175.002.03-10.458 12.102-1.182-1.022 9.452-10.935zm10.702 1.747l1.215 1.05-13.105 15.164-1.215-1.05 13.105-15.164zm-7.542-.76l10.902 9.422-1.036 1.198-10.902-9.422 1.036-1.199zm-4.728 9.406l6.658 5.754-.978 1.132-6.658-5.755.978-1.131zm10.704-3.166c-1.627 3.8-2.471 8.478-1.876 11.725-.487-.042-1.277.03-1.798.162-.408-3.464.674-8.315 2.497-12.41l1.177.523zm-2.273-2.08l.671 1.073c-3.909 2.438-8.572 4.165-12.168 4.255.09-.474.048-1.266-.063-1.71 3.314.101 7.945-1.422 11.56-3.619zm20.046 16.34l.994 1.176-9.308 7.869-.994-1.177 9.308-7.868zm3.889 1.84l1.036 1.227-13.524 11.433c-.841.71-1.381.821-2.056.5-.645-.32-1.459-1.216-2.51-2.46.312-.379.727-1.047.989-1.555a87.324 87.324 0 001.855 2.262c.244.255.382.282.668.04l13.542-11.447zm-7.907-9.592l1.008 1.193-15.39 13.01-1.008-1.193 15.39-13.01zm-5.166 10.417l.98 1.16-4.621 3.905c-.571.483-.961.669-1.518.42-.542-.234-1.099-.858-1.877-1.813.29-.303.616-.838.793-1.276.594.737 1.049 1.274 1.236 1.462.142.168.235.175.403.034l4.604-3.892zm-5.809-6.872l6.206 7.342-1.142.966-5.241-6.2-4.721 3.992-.966-1.143 5.864-4.957zm2.203-3.187l7.953 9.409-1.159.98-7.954-9.41 1.16-.98zm4.301-.842l6.007 7.107-1.159.98-6.207-7.342 1.359-.745zm2.047-1.701l.759 1.374c-2.088 1.074-4.423 1.925-6.162 2.185-.079-.366-.329-1.105-.484-1.493 1.782-.21 3.959-1.042 5.887-2.067z" fill="#00A0E8"/><path d="M688.576 23.194a3.181 3.181 0 00-4.501 0l-7.144 7.142a3.186 3.186 0 000 4.501l4.631 4.63 11.645-11.643-4.631-4.63zm51.739 63.382l-3.97-15.616L724.7 82.606l15.615 3.97zm-6.352-17.996l-38.639-38.64-11.645 11.646 38.638 38.639 11.646-11.645zM695.64 34.917l33.664 33.664-2.646 2.645-33.664-33.662 2.646-2.647zm30.886-7.65h-6.591v6.29h6.591v-6.29zm0 15.314h-6.591v6.29h6.591v-6.29zm45.971-15.314h-38.858v6.29h38.858v-6.29zm0 15.314h-38.858v6.29h38.858v-6.29zm0 15.314h-31.694v6.29h31.694v-6.29z" fill="#4B4B4B"/><path d="M772.513 0h-52.596c-10.176 0-18.454 8.276-18.454 18.453V25.8l6.833 6.834V18.453c0-6.419 5.204-11.62 11.621-11.62h52.596c6.421 0 11.622 5.201 11.622 11.62v57.044h-17.986c-5.349 0-9.683 4.337-9.683 9.685v17.986h-36.549c-6.417 0-11.621-5.202-11.621-11.62v-8.325l-1.4-.356 1.4-1.4V76.48l-6.833-6.832v21.898c0 10.175 8.278 18.453 18.454 18.453h39.378l2.002-2.001 27.669-27.67 2.001-2V18.452C790.967 8.276 782.69 0 772.513 0z" fill="#4B4B4B"/><path d="M751.832 149v-1.272c5.544-4.44 9.504-8.184 9.504-11.232 0-2.064-1.368-3.576-3.72-3.576-1.872 0-3.288 1.008-4.68 2.592l-1.392-1.272c1.656-1.896 3.672-3.144 6.168-3.144 3.48 0 5.808 2.016 5.808 5.328 0 3.576-3.624 7.176-8.136 10.848.96-.072 1.872-.12 2.784-.12h6.192V149h-12.528zm33.528-18.336h1.728v19.152h-1.728v-19.152zm-5.976 2.424h13.296v1.464h-13.296v-1.464zm-.648 15.864h14.4v1.488h-14.4v-1.488zm1.368-3.36h12.216v1.464h-12.216v-1.464zm11.448-16.44l1.08 1.344c-3.192.72-8.28 1.104-12.408 1.2-.024-.384-.24-1.008-.408-1.392 4.008-.144 9-.528 11.736-1.152zM782 140.6v1.944h8.544V140.6H782zm0-3.072v1.896h8.544v-1.896H782zm-1.608-1.344h11.832v7.704h-11.832v-7.704zm-5.304-5.352h1.752v20.04h-1.752v-20.04zm-3.936 4.776h8.712v1.704h-8.712v-1.704zm4.032.648l1.128.48c-.96 3.384-2.88 7.584-4.728 9.816-.168-.504-.6-1.248-.912-1.656 1.728-1.92 3.648-5.664 4.512-8.64zm3.456-7.056l1.272 1.392c-2.208.888-5.568 1.56-8.352 1.944-.096-.408-.336-.984-.552-1.392 2.712-.456 5.88-1.128 7.632-1.944zm-1.872 9.504c.6.528 2.856 2.808 3.336 3.408l-1.056 1.416c-.576-.984-2.376-3.264-3.12-4.104l.84-.72zm30.744-6.072c-.312 2.496-.792 5.304-1.536 7.872-1.464 4.92-3.384 7.464-5.592 7.464-2.16 0-4.296-2.448-4.296-6.432 0-5.208 4.632-9.744 10.512-9.744 5.616 0 9.192 3.96 9.192 8.832 0 5.016-3.312 8.376-9.024 9.12l-1.104-1.776a19.473 19.473 0 002.064-.288c3.072-.696 6.096-3 6.096-7.152 0-3.84-2.664-7.008-7.272-7.008-5.28 0-8.568 4.344-8.568 7.872 0 3.024 1.368 4.368 2.448 4.368 1.128 0 2.424-1.632 3.648-5.688.696-2.28 1.2-4.992 1.44-7.488l1.992.048zm22.92-1.608v2.496h7.224v-2.496h-7.224zm-1.656-1.32h10.632v5.16h-10.632v-5.16zm6.432 18.12l1.368-.984c1.704.96 3.576 2.232 4.656 3.168l-1.776.936c-.936-.912-2.664-2.16-4.248-3.12zm-4.392-1.056l1.632 1.032c-1.392 1.2-3.72 2.424-5.616 3.168a8.832 8.832 0 00-1.224-1.296c1.872-.648 4.152-1.872 5.208-2.904zm-.984-6.216v1.8h8.376v-1.8h-8.376zm0 3.096v1.8h8.376v-1.8h-8.376zm0-6.12v1.752h8.376v-1.752h-8.376zm-1.704-1.368h11.88v10.656h-11.88V136.16zm-9.456 5.424c2.112-.552 5.304-1.464 8.4-2.376l.216 1.656c-2.832.888-5.832 1.8-8.112 2.448l-.504-1.728zm.36-7.896H827v1.704h-7.968v-1.704zm3.432-4.824h1.776v19.944c0 1.008-.24 1.512-.864 1.776-.624.288-1.608.336-3.216.312-.048-.432-.312-1.176-.552-1.632 1.104.024 2.112.024 2.4 0 .336 0 .456-.096.456-.456v-19.944zm30.552 4.248h1.824v8.664h-1.824v-8.664zm-6.36 1.728h14.76v1.44h-14.76v-1.44zm-.864 3.048h16.584v1.44h-16.584v-1.44zm1.704 10.776H860.6v1.488h-13.104v-1.488zm-4.08-7.56h21.216v1.512h-21.216v-1.512zm3.384 2.952h14.64v6.792h-1.824v-5.304h-11.064v5.4H846.8v-6.888zm6.216-15.216h1.848v3.264h-1.848v-3.264zm-8.952 2.4h19.92v4.272h-1.824v-2.64h-16.32v2.64h-1.776v-4.272zm36.264 5.856h1.824v13.848h-1.824v-13.848zm-7.008 3.528h15.576v1.656H873.32v-1.656zm9.336.648c1.44 2.88 4.248 5.784 6.864 7.224-.384.336-.96.984-1.272 1.416-2.616-1.68-5.4-4.92-6.984-8.112l1.392-.528zm-2.736-.12l1.416.528c-1.608 3.312-4.584 6.528-7.44 8.184a11.705 11.705 0 00-1.248-1.416c2.808-1.392 5.76-4.368 7.272-7.296zm-3.096-9.552v4.392h8.952V131.6h-8.952zm-1.704-1.608h12.432v7.632H875.12v-7.632zm-2.496-1.08l1.704.528c-1.632 4.056-4.152 8.088-6.768 10.752-.192-.408-.696-1.344-1.032-1.776 2.4-2.28 4.704-5.856 6.096-9.504zm-2.496 6.192l1.704-1.704.024.024v17.448h-1.728v-15.768zm21.792-5.208h5.832v1.632h-4.2v19.416h-1.632v-21.048zm5.304 0h.312l.288-.072 1.2.72c-.744 1.992-1.728 4.56-2.616 6.576 1.896 1.92 2.376 3.552 2.4 5.016 0 1.296-.288 2.28-1.008 2.76-.36.24-.816.384-1.296.456-.528.048-1.176.048-1.8.024-.024-.456-.168-1.152-.432-1.608.576.048 1.128.048 1.536.024.312 0 .6-.072.816-.216.408-.264.552-.888.552-1.632-.024-1.272-.576-2.784-2.4-4.608.936-2.256 1.92-5.256 2.448-6.96v-.48zm3.816 4.728h9.48v1.512h-9.48v-1.512zm4.632-4.176c-1.392 1.992-3.984 4.248-6.744 5.64a7.516 7.516 0 00-.888-1.44c2.736-1.296 5.424-3.624 6.72-5.784h1.656c1.752 2.328 4.512 4.464 7.032 5.496-.312.408-.696 1.08-.936 1.56-2.496-1.224-5.256-3.384-6.84-5.472zm-4.464 9.24v3.24h9.096v-3.24h-9.096zm-1.584-1.44h12.336v6.144h-12.336v-6.144zm5.208-2.808h1.656v6.36c0 3.48-1.104 7.152-7.68 9.24-.192-.384-.672-1.056-.984-1.344 6.216-1.944 7.008-4.944 7.008-7.944v-6.312zm1.944 8.112c1.392 3.624 3.456 4.944 6.552 5.976-.408.384-.864.984-1.056 1.512-3.336-1.248-5.568-2.976-7.056-7.152l1.56-.336zM805.04 212.04c-.216.936-.48 2.256-1.104 3.864-.6 1.464-1.488 3.072-2.448 4.32.936-.552 2.304-.888 3.36-.888 1.848 0 3.288 1.104 3.288 3.048 0 1.248.048 4.008.072 5.496h-1.848c.096-1.272.12-3.744.096-4.992-.024-1.392-.984-2.04-2.232-2.04-1.536 0-3.048.768-4.152 1.752-.696.672-1.368 1.536-2.16 2.52l-1.656-1.224c3.456-3.312 5.064-6.096 5.88-8.136.528-1.32.864-2.76.936-3.888l1.968.168zm-8.232 2.592c1.296.168 2.952.24 4.056.24 3.24 0 7.392-.192 10.776-.792v1.776c-3.36.504-7.824.72-10.872.72-1.032 0-2.616-.048-3.96-.144v-1.8zm18.336 5.784c-.6.192-1.464.528-2.112.768-1.704.672-3.984 1.584-6.312 2.784-2.376 1.248-4.056 2.544-4.056 4.2 0 1.872 1.848 2.16 4.32 2.16 1.872 0 4.464-.216 6.576-.6l-.072 1.944c-1.824.216-4.488.408-6.576.408-3.408 0-6.168-.744-6.168-3.648 0-2.928 2.976-4.728 5.832-6.192 2.28-1.176 4.224-1.92 5.808-2.664.72-.336 1.32-.6 1.992-.936l.768 1.776zm11.112-4.224h14.64v1.824h-14.64v-1.824zm9.768-5.064h1.824v19.344c0 1.368-.384 1.92-1.296 2.184-.936.312-2.568.336-5.184.312-.096-.48-.432-1.296-.72-1.8 2.04.072 4.032.072 4.584.048.576-.048.792-.192.792-.744v-19.344zm-8.256 10.152l1.56-.744c1.248 1.872 2.856 4.368 3.624 5.832l-1.68.912c-.72-1.488-2.28-4.08-3.504-6zm-5.328-3.888l1.8-1.824.024.048v17.256h-1.824v-15.48zm2.616-6.384l1.752.528c-1.608 4.176-4.128 8.304-6.792 11.016a14.578 14.578 0 00-1.128-1.776c2.472-2.352 4.776-6.024 6.168-9.768zm23.184 8.568h11.472v1.68H848.24v-1.68zm1.176-5.304h12.816V216h-12.816v-1.728zm-6.144 10.488h21.48v1.728h-21.48v-1.728zm15.792-5.184h1.848s-.024.6-.072.864c-.696 7.512-1.368 10.512-2.496 11.616-.6.624-1.176.768-2.16.84-.864.072-2.568.024-4.32-.072-.024-.528-.264-1.296-.624-1.8 1.848.168 3.624.192 4.32.192.6 0 .912-.048 1.248-.312.96-.816 1.608-3.84 2.256-10.992v-.336zm-9.816-8.76l1.872.168c-.696 3.72-1.776 8.64-2.52 11.52l-1.872-.192c.84-2.904 1.92-7.896 2.52-11.496zM746.739 190h-2.064v-13.152c.016-.32.032-.616.048-.888l.048-.888a11.61 11.61 0 01-.696.648l-.792.672-1.824 1.488-1.104-1.416 4.632-3.6h1.752V190zm9.822-2.52c-.144.56-.328 1.168-.552 1.824a28.58 28.58 0 01-.744 1.944 43.455 43.455 0 01-.768 1.848h-1.56c.16-.608.312-1.264.456-1.968a45.52 45.52 0 00.744-3.912h2.256l.168.264zm14.366-6.072c0 1.392-.104 2.632-.312 3.72-.208 1.088-.544 2.016-1.008 2.784a4.601 4.601 0 01-1.776 1.728c-.72.4-1.592.6-2.616.6-1.28 0-2.344-.352-3.192-1.056-.832-.704-1.456-1.712-1.872-3.024-.4-1.328-.6-2.912-.6-4.752 0-1.856.184-3.44.552-4.752.384-1.312.992-2.312 1.824-3 .832-.704 1.928-1.056 3.288-1.056 1.28 0 2.344.352 3.192 1.056.848.688 1.48 1.688 1.896 3 .416 1.312.624 2.896.624 4.752zm-9.264 0c0 1.568.112 2.872.336 3.912.24 1.04.616 1.824 1.128 2.352.528.512 1.224.768 2.088.768.864 0 1.552-.256 2.064-.768.528-.512.912-1.288 1.152-2.328.24-1.056.36-2.368.36-3.936s-.12-2.864-.36-3.888c-.24-1.04-.624-1.816-1.152-2.328-.512-.528-1.2-.792-2.064-.792-.864 0-1.56.264-2.088.792-.512.512-.888 1.288-1.128 2.328-.224 1.024-.336 2.32-.336 3.888zm22.998 0c0 1.392-.104 2.632-.312 3.72-.208 1.088-.544 2.016-1.008 2.784a4.601 4.601 0 01-1.776 1.728c-.72.4-1.592.6-2.616.6-1.28 0-2.344-.352-3.192-1.056-.832-.704-1.456-1.712-1.872-3.024-.4-1.328-.6-2.912-.6-4.752 0-1.856.184-3.44.552-4.752.384-1.312.992-2.312 1.824-3 .832-.704 1.928-1.056 3.288-1.056 1.28 0 2.344.352 3.192 1.056.848.688 1.48 1.688 1.896 3 .416 1.312.624 2.896.624 4.752zm-9.264 0c0 1.568.112 2.872.336 3.912.24 1.04.616 1.824 1.128 2.352.528.512 1.224.768 2.088.768.864 0 1.552-.256 2.064-.768.528-.512.912-1.288 1.152-2.328.24-1.056.36-2.368.36-3.936s-.12-2.864-.36-3.888c-.24-1.04-.624-1.816-1.152-2.328-.512-.528-1.2-.792-2.064-.792-.864 0-1.56.264-2.088.792-.512.512-.888 1.288-1.128 2.328-.224 1.024-.336 2.32-.336 3.888zm22.999 0c0 1.392-.104 2.632-.312 3.72-.208 1.088-.544 2.016-1.008 2.784a4.601 4.601 0 01-1.776 1.728c-.72.4-1.592.6-2.616.6-1.28 0-2.344-.352-3.192-1.056-.832-.704-1.456-1.712-1.872-3.024-.4-1.328-.6-2.912-.6-4.752 0-1.856.184-3.44.552-4.752.384-1.312.992-2.312 1.824-3 .832-.704 1.928-1.056 3.288-1.056 1.28 0 2.344.352 3.192 1.056.848.688 1.48 1.688 1.896 3 .416 1.312.624 2.896.624 4.752zm-9.264 0c0 1.568.112 2.872.336 3.912.24 1.04.616 1.824 1.128 2.352.528.512 1.224.768 2.088.768.864 0 1.552-.256 2.064-.768.528-.512.912-1.288 1.152-2.328.24-1.056.36-2.368.36-3.936s-.12-2.864-.36-3.888c-.24-1.04-.624-1.816-1.152-2.328-.512-.528-1.2-.792-2.064-.792-.864 0-1.56.264-2.088.792-.512.512-.888 1.288-1.128 2.328-.224 1.024-.336 2.32-.336 3.888zm11.934-9.744h21.024v1.752h-21.024v-1.752zm7.488 6.672h10.104v1.752h-10.104v-1.752zm9.48 0h1.872s-.024.624-.048.888c-.408 7.752-.816 10.656-1.752 11.664-.552.624-1.152.792-2.088.864-.888.072-2.592.024-4.224-.072-.048-.528-.288-1.272-.648-1.776 1.8.192 3.552.192 4.2.192.552 0 .864-.048 1.128-.312.792-.696 1.2-3.696 1.56-11.136v-.312zm-10.464-5.256h1.848c-.192 6.816-.624 14.952-7.728 18.888-.288-.456-.84-1.032-1.32-1.392 6.816-3.6 7.032-11.256 7.2-17.496zm33.547 8.496c-1.272-1.224-2.328-1.992-4.08-1.992-1.872 0-3.528 1.296-4.536 3.192l-1.704-.912c1.536-2.76 3.744-4.2 6.264-4.2 2.184 0 3.744.888 5.423 2.544 1.273 1.248 2.328 1.992 4.081 1.992 1.872 0 3.528-1.296 4.536-3.192l1.704.912c-1.536 2.76-3.744 4.2-6.264 4.2-2.184 0-3.744-.888-5.424-2.544zm27.45 8.424h-2.064v-13.152c.016-.32.032-.616.048-.888l.048-.888a11.61 11.61 0 01-.696.648l-.792.672-1.824 1.488-1.104-1.416 4.632-3.6h1.752V190zm19.254-19.992h1.8v2.616h-1.8v-2.616zm-5.904 1.896h14.16v1.392h-14.16v-1.392zm-1.104 4.032h16.056v1.488h-16.056v-1.488zm3.264-2.28l1.512-.336c.48.744.984 1.752 1.176 2.448l-1.608.408c-.168-.672-.624-1.752-1.08-2.52zm7.8-.576l1.8.456c-.528.984-1.104 2.04-1.584 2.736l-1.392-.408c.408-.792.936-1.992 1.176-2.784zm-7.32 9.456v1.584h8.592v-1.584h-8.592zm0-2.616v1.512h8.592v-1.512h-8.592zm-1.728-1.248h12.12v6.648h-12.12v-6.648zm-.168 7.944l1.416.576c-.576 1.416-1.392 3.072-2.592 4.128l-1.344-.96c1.128-.888 2.016-2.448 2.52-3.744zm2.496-.048h1.656v3.216c0 .528.144.6 1.008.6h2.904c.672 0 .816-.192.864-1.8.36.264 1.008.504 1.488.6-.192 2.136-.672 2.664-2.136 2.664h-3.312c-1.992 0-2.472-.432-2.472-2.04v-3.24zm1.656-.768l1.128-.888c1.152.624 2.52 1.608 3.168 2.4l-1.176.984c-.624-.744-1.968-1.8-3.12-2.496zm5.568 1.368l1.368-.768c1.296 1.176 2.76 2.88 3.384 4.032l-1.464.888c-.576-1.176-1.992-2.904-3.288-4.152zm-12.144-17.256l1.68.528c-1.608 4.008-4.128 8.016-6.72 10.632-.192-.408-.696-1.344-1.032-1.776 2.424-2.256 4.704-5.784 6.072-9.384zm-2.592 6.216l1.68-1.704.048.024v17.448h-1.728v-15.768zm22.296-4.656h18.816v1.8h-17.016v18.672h-1.8v-20.472zm18 0h1.824v18.072c0 1.152-.288 1.728-1.104 2.04-.792.288-2.16.336-4.32.336-.096-.504-.408-1.32-.696-1.824 1.656.072 3.216.048 3.696.024.456 0 .6-.144.6-.576v-18.072zm-17.016 8.88h17.856v1.776h-17.856v-1.776zm7.872-7.968h1.8v8.832h-1.8v-8.832z" fill="#000"/></svg>