<svg version="1.1" id="レイヤー_1" xmlns="http://www.w3.org/2000/svg" x="0" y="0" viewBox="0 0 923 393" xml:space="preserve" enable-background="new 0 0 923 393"><style>.st0{fill:#f5f5f5}.st1{fill:none}.st2{fill:#4b4b4b}.st5{fill:#e6cd92}.st22{fill:#fff}</style><path class="st0" d="M371 143h184v250H371z"/><path class="st1" d="M438 186h50.29v50H438z"/><path d="M396.88 272.51c0 .59.46 1.06 1.06 1.06.58 0 1.06-.46 1.06-1.06 0-.58-.48-1.06-1.06-1.06-.6.01-1.06.49-1.06 1.06zm-.74 0c0-.99.8-1.79 1.79-1.79s1.79.8 1.79 1.79-.8 1.79-1.79 1.79-1.79-.8-1.79-1.79zm1.4 1.07c-.11.22-.18.5-.24.8-.35 1.68-1.12 4.27-2.4 5.9-1.46 1.89-3.36 3.36-6.29 4.29l-1.09-1.2c3.1-.78 4.9-2.14 6.24-3.86 1.14-1.44 1.87-3.68 2.1-5.22h-8.19c-.64 0-1.18.03-1.58.06v-1.42c.43.05 1.07.11 1.6.11h8.02c.26 0 .56-.02.86-.1l.97.64zm4.8-.54c.62.03 1.04.03 1.42.03h8.59c.34 0 .91 0 1.41-.02-.03.38-.03.83-.03 1.23v7.89c0 .51.02 1.76.03 1.94h-1.39c.02-.18.03-1.09.03-1.76v-8.02h-8.74v8.02c0 .53.02 1.55.02 1.76h-1.36c0-.21.03-1.38.03-1.94v-7.89c0-.36 0-.84-.01-1.24zm10.59 8.91v1.25h-9.9v-1.25h9.9zm8.45.64v-9.3c0-.46-.03-1.17-.11-1.68h1.57c-.06.5-.11 1.18-.11 1.68 0 2.48.02 8.54.02 9.3 0 .51.03 1.38.1 1.9h-1.55c.06-.51.08-1.31.08-1.9zm1.05-6.77c2.11.61 5.34 1.84 7.12 2.7l-.56 1.36c-1.82-.98-4.82-2.11-6.56-2.66v-1.4zm16.21.85c2.05 1.2 4.67 3.04 6.26 4.32l-.94 1.12c-1.47-1.34-4.21-3.31-6.19-4.54l.87-.9zm7.31-2.91c-.13.22-.29.59-.37.85-.48 1.63-1.49 3.76-2.9 5.49-1.46 1.79-3.54 3.5-6.58 4.62l-1.14-1.01c2.98-.9 5.15-2.59 6.59-4.3 1.23-1.47 2.24-3.5 2.61-4.99h-5.92l.51-1.15h5.09c.43 0 .78-.05 1.04-.14l1.07.63zm-5.39-2.32c-.27.42-.56.96-.72 1.26-.94 1.76-2.75 4.18-5.31 5.94l-1.06-.82c2.74-1.71 4.38-4.11 5.12-5.58.16-.27.42-.85.51-1.26l1.46.46zm8.82 6.78c2.77-.74 5.2-1.87 6.98-2.98 1.68-1.06 3.28-2.43 4.38-3.78l1.07 1.01c-1.38 1.42-3.06 2.77-4.93 3.94-1.76 1.09-4.3 2.26-6.88 3.06l-.62-1.25zm6.72-2.32l1.38-.42v7.31c0 .59.03 1.39.11 1.7H456c.05-.3.1-1.1.1-1.7v-6.89zm20.78-3.39c0 .59.46 1.06 1.06 1.06.58 0 1.06-.46 1.06-1.06 0-.58-.48-1.06-1.06-1.06-.6.01-1.06.49-1.06 1.06zm-.74 0c0-.99.8-1.79 1.79-1.79s1.79.8 1.79 1.79-.8 1.79-1.79 1.79-1.79-.8-1.79-1.79zm1.4 1.07c-.11.22-.18.5-.24.8-.35 1.68-1.12 4.27-2.4 5.9-1.46 1.89-3.36 3.36-6.29 4.29l-1.09-1.2c3.1-.78 4.9-2.14 6.24-3.86 1.14-1.44 1.87-3.68 2.1-5.22h-8.19c-.64 0-1.18.03-1.58.06v-1.42c.43.05 1.07.11 1.6.11h8.02c.26 0 .56-.02.86-.1l.97.64zm9.74-.38c1.74.3 4.99.24 6.58 0v1.3c-1.71.19-4.82.19-6.56 0l-.02-1.3zm.62 6.53c-.14.58-.22 1.02-.22 1.46 0 .74.51 1.46 2.7 1.46 1.42 0 2.67-.13 3.95-.43l.03 1.34c-.99.21-2.34.34-4 .34-2.67 0-3.87-.9-3.87-2.4 0-.53.08-1.1.26-1.87l1.15.1zm-3.66-7.76c-.1.27-.22.78-.29 1.07-.3 1.49-.8 4.34-.8 6.14 0 .77.05 1.44.14 2.22.27-.72.64-1.68.91-2.34l.67.53c-.4 1.14-.99 2.82-1.14 3.58-.05.22-.08.53-.08.72.02.16.03.38.05.56l-1.14.08c-.32-1.14-.59-2.98-.59-5.15 0-2.35.53-5.09.72-6.42.05-.37.1-.77.11-1.12l1.44.13zm20.42-.53c-.06.35-.11 1.12-.13 1.6v2.93c0 1.74.26 4.94.26 6.35 0 1.3-.8 2.42-2.93 2.42-2.22 0-3.84-.69-3.84-2.51 0-1.46 1.25-2.62 4.02-2.62 3.17 0 6.02 1.6 7.65 3.09l-.77 1.2c-1.6-1.6-4.22-3.17-7.02-3.17-1.66 0-2.61.56-2.61 1.46 0 .88.9 1.38 2.45 1.38 1.17 0 1.74-.56 1.74-1.66 0-1.18-.19-4.29-.19-5.92 0-.93-.02-2.24-.02-2.93-.02-.59-.06-1.3-.13-1.6h1.52zm-.84 3.23c1.1 0 3.71-.08 5.44-.29l.05 1.2c-1.73.16-4.34.27-5.49.27v-1.18zm11.5-2.45c.35.03.8.05 1.12.05.85 0 4.64-.11 5.49-.19.48-.05.7-.08.88-.14l.74.94c-.29.19-.61.4-.91.64-.78.61-2.96 2.48-4.21 3.5.74-.24 1.5-.32 2.22-.32 2.66 0 4.56 1.58 4.56 3.74 0 2.58-2.13 4.26-5.52 4.26-2.18 0-3.5-.94-3.5-2.29 0-1.09.99-2.08 2.46-2.08 2.13 0 3.2 1.5 3.31 3.12l-1.15.19c-.1-1.36-.88-2.34-2.16-2.34-.74 0-1.3.45-1.3 1.01 0 .78.88 1.25 2.14 1.25 2.72 0 4.43-1.12 4.43-3.12 0-1.58-1.5-2.75-3.6-2.75-2.66 0-4.1 1.12-6.11 3.18l-.93-.93c1.33-1.09 3.39-2.82 4.3-3.6.9-.74 2.91-2.42 3.71-3.14-.85.05-4.05.18-4.88.22-.37.03-.72.05-1.07.1l-.02-1.3zM388.8 293.71c.94.53 2.78 1.76 3.49 2.27l-.75 1.09c-.77-.59-2.51-1.74-3.44-2.27l.7-1.09zm-2.4 11.44c1.76-.3 3.74-.94 5.38-1.86 2.66-1.52 4.77-3.62 6.05-5.87l.78 1.33c-1.39 2.14-3.6 4.21-6.16 5.71-1.62.94-3.82 1.68-5.3 1.98l-.75-1.29zm0-7.84c.94.51 2.82 1.66 3.5 2.16l-.74 1.12c-.78-.58-2.51-1.68-3.49-2.19l.73-1.09zm25.38 1.09c-.05.14-.1.35-.1.5-.14 1.2-.72 5.04-.91 6.16h-1.34c.18-.86.77-4.78.82-5.81h-5.07c-.46 0-.9.02-1.3.05v-1.34c.38.05.88.08 1.28.08h4.86c.26 0 .66-.03.78-.11l.98.47zm-9.41 6.14c.38.05.85.08 1.33.08h8.74c.35 0 .93-.03 1.26-.06v1.3c-.3-.02-.88-.02-1.23-.02h-8.77c-.48 0-.85.02-1.33.03v-1.33zm18.22-10.65c2.08.27 6.37 1.17 8.38 1.87l-.51 1.23c-1.94-.72-6.13-1.63-8.34-1.92l.47-1.18zm-.73 4.22c2.19.38 6.08 1.2 8.06 1.92l-.5 1.23c-1.86-.72-5.78-1.6-8.05-1.95l.49-1.2zm-.87 4.66c2.67.43 7.33 1.52 9.52 2.4l-.56 1.23c-2.11-.93-6.88-2-9.46-2.4l.5-1.23zm16.56 2.73c.11-.26.14-.48.14-.78v-9.15c0-.43-.06-1.15-.13-1.46h1.57c-.05.38-.11.99-.11 1.44v9.09c3.07-.78 6.77-2.88 8.77-5.46l.72 1.12c-2.08 2.58-5.38 4.54-9.38 5.71-.16.05-.42.13-.67.27l-.91-.78zm14.07-6.43c.5.05 1.33.1 2.24.1h8.77c.8 0 1.36-.06 1.73-.1v1.57c-.34-.02-1.01-.06-1.71-.06h-8.78c-.88 0-1.73.03-2.24.06v-1.57zm19.76 5.52v-9.3c0-.46-.03-1.17-.11-1.68h1.57c-.06.5-.11 1.18-.11 1.68 0 2.48.02 8.54.02 9.3 0 .51.03 1.38.1 1.9h-1.55c.06-.51.08-1.31.08-1.9zm1.05-6.77c2.11.61 5.34 1.84 7.12 2.7l-.56 1.36c-1.82-.98-4.82-2.11-6.56-2.66v-1.4zm15.94-1.28c.91.1 1.78.14 2.72.14 1.92 0 3.89-.14 5.5-.48v1.23c-1.7.29-3.65.42-5.52.42-.93 0-1.76-.03-2.69-.1l-.01-1.21zm5.6-2.86c-.05.32-.08.66-.1.96-.03.59-.05 1.73-.05 2.67 0 2.46.24 4.96.24 6.61 0 1.31-.61 2.59-2.77 2.59-2.14 0-3.31-.86-3.31-2.3 0-1.34 1.18-2.4 3.3-2.4 2.69 0 4.56 1.36 5.9 2.58l-.69 1.06c-1.68-1.57-3.3-2.66-5.33-2.66-1.2 0-2.03.53-2.03 1.3 0 .83.78 1.26 1.95 1.26 1.34 0 1.73-.67 1.73-1.74 0-1.15-.21-4.14-.21-6.26 0-1.1-.02-2.11-.02-2.67 0-.29-.02-.7-.06-.99h1.45zm-7.89.11c-.1.26-.22.78-.29 1.07-.32 1.49-.8 4.66-.8 6.45 0 .78.05 1.46.16 2.24.26-.74.66-1.71.93-2.37l.66.51c-.4 1.12-.99 2.75-1.15 3.54-.05.22-.08.54-.06.72.02.16.03.4.05.56l-1.14.1c-.3-1.15-.61-2.91-.61-5.07 0-2.35.54-5.41.74-6.72.06-.38.1-.8.11-1.15l1.4.12zm-92.13 34.42c-2.16 0-3.57-.9-4.48-1.98l.78-.94c.88 1.04 2.05 1.71 3.62 1.71 1.5 0 2.72-.83 2.72-2.18 0-1.41-1.15-2.34-4.06-2.34v-1.12c2.62 0 3.74-1.04 3.74-2.19 0-1.1-.88-1.9-2.43-1.9-1.2 0-2.3.51-3.23 1.49l-.82-.91c1.12-1.07 2.46-1.78 4.1-1.78 2.34 0 3.79 1.2 3.79 2.96 0 1.41-.86 2.4-2.26 2.8v.06c1.49.27 2.58 1.38 2.58 3.01 0 2.04-1.82 3.31-4.05 3.31zm14.03-8.21v3.68h3.89V320h-3.89zm-1.13-1.07h6.22v5.81h-6.22v-5.81zm-3.54-3.71h13.38v14.05h-1.28v-12.83h-10.86v12.83h-1.23v-14.05zm.69 12.06h12.14v1.14H402v-1.14zm23.15-11.97c-.03.27-.06.59-.08 1.07-.03.64-.03 2.78-.03 4.13 0 2.11.24 4.91.24 5.98 0 1.12-.74 2.26-2.82 2.26-2.3 0-3.57-.82-3.57-2.37 0-1.46 1.39-2.43 3.7-2.43 3.38 0 6.02 1.82 7.25 2.83l-.74 1.14c-1.44-1.33-3.81-2.93-6.66-2.93-1.54 0-2.35.59-2.35 1.33 0 .75.62 1.3 2.21 1.3.93 0 1.71-.27 1.71-1.39 0-1.23-.16-4.3-.16-5.71v-4.24c0-.27-.02-.75-.06-.96h1.36zm-6.11 1.73c1.02.19 3.02.35 4.08.35 2.03 0 4.18-.14 6.26-.48v1.17c-1.81.21-4.1.42-6.24.42-1.1 0-3.07-.14-4.08-.27l-.02-1.19zm-.08 3.41c1.14.18 2.96.29 4.02.29 2.32 0 4.45-.16 6.53-.46v1.2c-2.18.27-4.13.38-6.53.38-1.1 0-2.86-.08-4-.21l-.02-1.2zm14.29-2.98c.61-.02 1.12-.05 1.44-.08 1.02-.11 4.05-.4 6.99-.66 1.76-.14 3.25-.24 4.32-.27l.02 1.28c-.93-.02-2.32.02-3.14.24-2.29.74-3.68 3.18-3.68 5.07 0 3.12 2.93 4.13 5.52 4.22l-.46 1.31c-2.96-.11-6.32-1.68-6.32-5.26 0-2.48 1.52-4.53 2.98-5.39-1.71.18-5.79.58-7.52.94l-.15-1.4zm10.45 2.23c.37.53.98 1.52 1.33 2.24l-.83.37c-.37-.77-.82-1.58-1.3-2.26l.8-.35zm1.74-.68c.4.53 1.02 1.5 1.39 2.21l-.82.4c-.38-.77-.86-1.57-1.36-2.24l.79-.37zm-57.98 19.92c1.15.14 2.64.21 4.24.21 1.54 0 3.15-.11 4.32-.22v1.31c-1.09.08-2.85.19-4.32.19-1.6 0-2.98-.08-4.24-.18v-1.31zm.65 6.45c-.21.64-.34 1.23-.34 1.82 0 1.23 1.23 2.06 3.81 2.06 2.21 0 4.26-.24 5.47-.62l.02 1.36c-1.15.32-3.18.56-5.46.56-3.26 0-5.14-1.07-5.14-3.07 0-.83.18-1.58.32-2.22l1.32.11zm8.35-8.22c.4.58.98 1.55 1.31 2.21l-.88.38c-.32-.66-.86-1.63-1.3-2.22l.87-.37zm1.76-.64c.42.59 1.04 1.58 1.34 2.18l-.86.4c-.35-.7-.88-1.62-1.33-2.21l.85-.37zm10.12 7.77h6.26v.93h-6.26v-.93zm0 2.63h6.26v.94h-6.26v-.94zm.01 2.64h6.99v1.02h-6.99v-1.02zm-1.82-11.36h8.74v2.74h-1.07v-1.7h-6.62v1.7h-1.04v-2.74zm4.41 4.19h1.12v7.71h-1.12v-7.71zm-2.17-.77h6.1v1.04h-6.1v8.61h-1.14v-8.56l1.04-1.09h.1zm1.5-5.07l1.15.22c-.91 3.25-2.5 5.9-4.66 7.62a8.85 8.85 0 00-.86-.88c2.12-1.54 3.59-4.02 4.37-6.96zm1.67 3.17l1.14.29c-.38.83-.82 1.73-1.15 2.34l-.93-.27c.33-.65.74-1.66.94-2.36zm-11.11-2.08h5.65v1.1h-5.65v-1.1zm1.62 4.67h3.62v7.01h-3.62v-1.06h2.56v-4.88h-2.56v-1.07zm.27-4.14l1.15.18c-.5 3.36-1.33 6.51-2.82 8.61-.13-.27-.46-.86-.69-1.14 1.29-1.81 1.98-4.65 2.36-7.65zm-.77 4.14h1.01v8.26h-1.01v-8.26zm23.97-4.64h1.1c-.34 2.59-1.12 5.18-3.92 6.58a2.89 2.89 0 00-.72-.85c2.61-1.2 3.27-3.54 3.54-5.73zm-2.94 2.29l.59-.83c1.66.56 3.66 1.55 4.72 2.29l-.58.94c-1.07-.79-3.07-1.84-4.73-2.4zm6.72-2.72h1.14s0 .35-.02.51c-.16 3.78-.32 5.2-.72 5.66-.26.3-.53.42-.96.46-.38.03-1.14.02-1.89-.02-.02-.34-.13-.8-.3-1.09.74.06 1.41.06 1.66.06.26.02.4-.03.51-.16.29-.34.45-1.62.58-5.23v-.19zm-4.92 8.53h1.12v3.86c0 .4.06.46.51.46h1.5c.43 0 .5-.22.54-1.82.22.19.7.35 1.02.45-.13 1.95-.43 2.45-1.44 2.45h-1.78c-1.22 0-1.49-.34-1.49-1.52v-3.88zm-1.52.54l.98.24c-.18 1.42-.51 2.98-1.36 3.87l-.9-.59c.77-.78 1.12-2.19 1.28-3.52zm1.8-2.02l.7-.7c1.06.56 2.29 1.42 2.88 2.1l-.75.82c-.58-.68-1.79-1.61-2.83-2.22zm3.72 2.13l.99-.4c.86 1.17 1.58 2.74 1.82 3.82l-1.07.45c-.2-1.08-.9-2.7-1.74-3.87zm-5.66-9.18h7.07v1.04h-7.07v-1.04zm-5.79 4.16h4.54v.96h-4.54v-.96zm.06-4.27h4.42v.96h-4.42v-.96zm-.06 6.41h4.54v.96h-4.54v-.96zm-.72-4.32h5.71v.99h-5.71v-.99zm1.25 6.48h4.02v4.67h-4.02v-1.01h2.98v-2.67h-2.98v-.99zm-.55 0h1.02v5.41h-1.02v-5.41zm18.26-6.86c-.08.37-.13 1.14-.14 1.55-.02.99 0 2.46.11 3.78.27 2.67 1.04 4.45 2.19 4.45.82 0 1.57-1.65 1.98-3.25l1.01 1.14c-.98 2.7-1.94 3.63-3.02 3.63-1.52 0-2.96-1.5-3.41-5.65-.14-1.38-.18-3.33-.18-4.26 0-.37 0-1.06-.1-1.42l1.56.03zm8.32.43c1.44 1.86 2.59 5.26 2.83 7.97l-1.3.51c-.27-2.88-1.25-6.18-2.77-8.05l1.24-.43zm11.18-1.86c-.1.35-.21.96-.27 1.26-.24 1.15-.58 2.96-1.02 4.56-.58 2.27-1.65 5.58-2.5 7.33l-1.39-.46c.96-1.66 2.08-4.91 2.69-7.17.38-1.47.8-3.49.91-4.32.06-.45.1-.99.06-1.33l1.52.13zm-3.53 2.68c1.76 0 4.11-.29 6.1-.78v1.25c-1.98.45-4.4.72-6.13.72-.7 0-1.26-.02-1.86-.06l-.03-1.25c.75.08 1.32.12 1.92.12zm5.05 2.19c.83-.08 1.9-.13 2.93-.13.93 0 1.9.03 2.77.13l-.03 1.22c-.83-.1-1.76-.19-2.7-.19-.99 0-1.98.06-2.96.18v-1.21zm.32 3.89c-.13.53-.22 1.02-.22 1.44 0 .75.43 1.49 2.7 1.49 1.06 0 2.14-.11 3.14-.3l-.05 1.28c-.86.13-1.94.22-3.1.22-2.51 0-3.89-.77-3.89-2.35 0-.61.1-1.22.24-1.89l1.18.11zm13.68-8.53c-.1.35-.22.96-.29 1.26-.22 1.15-.56 2.98-1.01 4.56-.58 2.27-1.65 5.58-2.5 7.33l-1.41-.46c.98-1.65 2.1-4.91 2.69-7.17.4-1.47.82-3.47.93-4.32.06-.45.1-.99.06-1.33l1.53.13zm-3.53 2.67c1.76 0 4.11-.27 6.1-.78v1.26c-1.98.45-4.4.7-6.13.7-.7 0-1.26-.02-1.86-.06l-.03-1.23c.75.09 1.32.11 1.92.11zm5.05 2.21c.83-.08 1.89-.14 2.93-.14.93 0 1.9.03 2.77.13l-.03 1.22c-.83-.1-1.76-.18-2.7-.18-1.01 0-1.98.05-2.96.16v-1.19zm.32 3.89c-.13.51-.22 1.02-.22 1.44 0 .75.43 1.49 2.7 1.49 1.04 0 2.14-.13 3.14-.32l-.05 1.3c-.86.11-1.94.22-3.1.22-2.51 0-3.89-.78-3.89-2.37 0-.61.1-1.2.24-1.89l1.18.13zm3.63-8.28c.42.56.99 1.55 1.33 2.19l-.86.38c-.32-.64-.88-1.62-1.31-2.22l.84-.35zm1.78-.65c.43.59 1.04 1.58 1.34 2.19l-.86.38c-.34-.7-.88-1.6-1.33-2.21l.85-.36zm14.34.05c-.05.26-.06.58-.06.94-.02.59.05 3.3.05 4.19 0 3.66 0 6.29-3.39 8.27l-1.17-.9c.5-.21 1.15-.61 1.55-1.01 1.71-1.49 1.79-3.31 1.79-6.38 0-1.02-.06-3.5-.11-4.18-.03-.35-.1-.7-.16-.94h1.5zm-5.86 3.31c.7.11 1.71.18 2.59.18 1.97 0 4.24-.13 5.84-.5v1.3c-1.55.26-3.79.4-5.82.4-.78 0-1.9-.05-2.61-.11v-1.27zm-2.24-3.07c-.1.29-.21.74-.27 1.04-.51 2.32-1.07 5.82-.45 8.45.21-.69.56-1.66.85-2.45l.69.42c-.38 1.1-.86 2.74-1.04 3.54-.05.22-.08.53-.06.72 0 .16.03.37.05.54l-1.1.13c-.32-.99-.83-3.07-.83-5.07 0-2.61.42-5.06.61-6.4.05-.35.06-.78.08-1.07l1.47.15zm21.07-.47c-.03.27-.06.59-.08 1.07-.03.64-.03 2.78-.03 4.13 0 2.11.24 4.91.24 5.98 0 1.12-.74 2.26-2.82 2.26-2.3 0-3.57-.82-3.57-2.37 0-1.46 1.39-2.43 3.7-2.43 3.38 0 6.02 1.82 7.25 2.83l-.74 1.14c-1.44-1.33-3.81-2.93-6.66-2.93-1.54 0-2.35.59-2.35 1.33 0 .75.62 1.3 2.21 1.3.93 0 1.71-.27 1.71-1.39 0-1.23-.16-4.3-.16-5.71v-4.24c0-.27-.02-.75-.06-.96h1.36zm-6.11 1.73c1.02.19 3.02.35 4.08.35 2.03 0 4.18-.14 6.26-.48v1.17c-1.81.21-4.1.42-6.24.42-1.1 0-3.07-.14-4.08-.27l-.02-1.19zm-.08 3.41c1.14.18 2.96.29 4.02.29 2.32 0 4.45-.16 6.53-.46v1.2c-2.18.27-4.13.38-6.53.38-1.1 0-2.86-.08-4-.21l-.02-1.2zm23.07-5.12c-.03.19-.08.82-.08 1.01-.05 1.04-.02 4.13 0 5.41l-1.22-.62c0-.7-.02-3.89-.06-4.77-.03-.43-.08-.88-.11-1.02h1.47zm-8.51 2.24c2.18-.03 6.18-.18 8.64-.18 1.95 0 3.94 0 4.69.02l-.02 1.18c-.9-.05-2.34-.08-4.69-.08-2.75 0-6.18.11-8.59.29l-.03-1.23zm8.4 4.64c0 2.14-.99 3.22-2.45 3.22-1.34 0-2.64-.94-2.64-2.69 0-1.58 1.31-2.77 2.83-2.77 1.86 0 2.8 1.38 2.8 3.22 0 2.18-1.06 4.58-4.77 5.68l-1.07-1.04c2.91-.69 4.61-2.11 4.61-4.75 0-1.44-.7-2.05-1.57-2.05-.85 0-1.63.66-1.63 1.7 0 1.01.75 1.58 1.63 1.58.99 0 1.63-.83 1.38-2.54l.88.44zm7.59 1.9c1.34 0 2.43 1.09 2.43 2.43s-1.09 2.43-2.43 2.43-2.45-1.09-2.45-2.43 1.11-2.43 2.45-2.43zm0 4.05c.9 0 1.62-.72 1.62-1.62s-.72-1.62-1.62-1.62-1.63.72-1.63 1.62.73 1.62 1.63 1.62z"/><path class="st0" d="M739 143h184v250H739z"/><path class="st2" d="M810.23 189.34l-3.63 10.21c-.36.86-.6 2.25-.6 2.92v4.03c0 1.09.89 1.99 1.99 1.99h2.38c.24 2.47 2.32 4.4 4.85 4.4s4.61-1.93 4.85-4.4h4.4v-20.9h-11.31c-1.09 0-2.41.79-2.93 1.75zm4.99 21.1c-1.34 0-2.44-1.09-2.44-2.44 0-1.35 1.09-2.43 2.44-2.43a2.435 2.435 0 110 4.87zm6.97-20.26v7.76h-11.61l2.28-6.99c.2-.37.88-.77 1.3-.77h8.03zm5.08-5.18v23.48h14.37c.24 2.47 2.32 4.4 4.85 4.4s4.61-1.93 4.85-4.4H856V185h-28.73zm19.21 25.44c-1.35 0-2.44-1.09-2.44-2.44 0-1.35 1.09-2.43 2.44-2.43a2.435 2.435 0 110 4.87z"/><path d="M774.94 281.63c0 .56-.14 1.02-.42 1.39-.28.37-.67.66-1.18.85-.51.19-1.12.29-1.82.29-.6 0-1.11-.05-1.55-.14-.43-.1-.8-.23-1.14-.4v-1.28c.34.17.75.33 1.23.48.49.14.99.21 1.49.21.72 0 1.23-.11 1.55-.34.32-.23.48-.54.48-.93 0-.21-.06-.4-.18-.58-.12-.17-.33-.34-.64-.51-.3-.17-.73-.36-1.3-.58-.55-.21-1.03-.43-1.42-.64-.39-.21-.7-.47-.91-.77-.21-.3-.32-.68-.32-1.15 0-.73.29-1.29.88-1.68.6-.39 1.38-.59 2.34-.59.52 0 1.01.05 1.46.16.46.1.89.23 1.28.42l-.48 1.12c-.24-.11-.49-.2-.75-.27-.26-.08-.52-.15-.78-.19a4.47 4.47 0 00-.82-.08c-.58 0-1.02.1-1.33.29-.3.18-.45.43-.45.75 0 .24.07.44.21.61.14.16.37.32.69.48.33.15.77.33 1.31.54.54.2 1.01.41 1.39.62.38.21.68.48.88.78.2.31.3.68.3 1.14zm4.94 1.38c.21 0 .43-.02.66-.05.22-.04.41-.08.54-.13v1.07c-.15.08-.36.13-.64.18-.28.05-.54.08-.8.08-.45 0-.86-.08-1.25-.22-.37-.16-.68-.43-.91-.82-.23-.38-.35-.92-.35-1.62v-4.99h-1.22v-.67l1.23-.56.56-1.82h.83v1.97h2.48v1.09h-2.48v4.96c0 .52.12.91.37 1.17.26.24.59.36.98.36zm6.23-7.75c.74 0 1.36.16 1.89.48.53.32.94.77 1.22 1.36.29.58.43 1.25.43 2.03v.85h-5.87c.02.97.27 1.71.74 2.22.48.5 1.15.75 2 .75.54 0 1.02-.05 1.44-.14.43-.11.86-.26 1.31-.45v1.23c-.44.19-.87.33-1.3.42-.43.1-.93.14-1.52.14-.81 0-1.53-.17-2.16-.5-.62-.33-1.1-.82-1.46-1.47-.34-.66-.51-1.47-.51-2.42 0-.94.15-1.74.46-2.42.32-.67.76-1.19 1.33-1.55.58-.34 1.24-.53 2-.53zm-.02 1.16c-.67 0-1.21.22-1.6.66-.38.43-.61 1.02-.69 1.79h4.37c0-.49-.08-.92-.22-1.28-.15-.36-.38-.65-.69-.85-.3-.22-.69-.32-1.17-.32zm9.82-1.16c1.06 0 1.9.37 2.54 1.1.65.74.98 1.85.98 3.33 0 .97-.15 1.79-.45 2.46-.29.66-.7 1.16-1.23 1.5-.52.33-1.14.5-1.86.5-.44 0-.83-.06-1.17-.18-.34-.12-.63-.27-.88-.45-.23-.19-.44-.4-.61-.62h-.1c.02.18.04.41.06.69.02.28.03.52.03.72v3.52h-1.41v-12.42h1.15l.19 1.17h.06c.17-.25.37-.47.61-.67.25-.2.53-.36.86-.48.37-.11.77-.17 1.23-.17zm-.26 1.19c-.58 0-1.04.11-1.39.34-.35.21-.61.54-.77.98-.16.44-.25.99-.26 1.66v.27c0 .7.07 1.3.22 1.79s.4.86.75 1.12c.36.26.85.38 1.47.38.52 0 .95-.14 1.28-.43.34-.29.59-.68.75-1.17.17-.5.26-1.07.26-1.71 0-.98-.19-1.76-.58-2.35-.36-.59-.94-.88-1.73-.88zm13.03 1.82c0 .93-.07 1.76-.21 2.48-.14.72-.36 1.34-.67 1.86-.3.5-.69.89-1.18 1.15-.48.27-1.06.4-1.74.4-.85 0-1.56-.24-2.13-.7-.55-.47-.97-1.14-1.25-2.02-.27-.89-.4-1.94-.4-3.17 0-1.24.12-2.29.37-3.17.26-.88.66-1.54 1.22-2 .55-.47 1.28-.7 2.19-.7.85 0 1.56.24 2.13.7.57.46.99 1.12 1.26 2 .27.88.41 1.94.41 3.17zm-6.17 0c0 1.04.07 1.92.22 2.61.16.69.41 1.22.75 1.57.35.34.82.51 1.39.51s1.03-.17 1.38-.51c.35-.34.61-.86.77-1.55.16-.7.24-1.58.24-2.62 0-1.05-.08-1.91-.24-2.59-.16-.69-.42-1.21-.77-1.55-.34-.35-.8-.53-1.38-.53s-1.04.18-1.39.53c-.34.34-.59.86-.75 1.55-.15.67-.22 1.54-.22 2.58zm15.79 3.14h-1.66V284h-1.36v-2.59h-5.47v-1.2l5.38-7.7h1.46v7.63h1.66v1.27zm-3.02-4.87v-.75l.03-.66c.01-.2.02-.39.02-.58l.03-.54h-.06c-.09.2-.19.42-.32.66-.13.24-.25.43-.37.59l-3.42 4.88h4.1v-3.6zm17.48-3.45l1.07-.53c1.07 1.17 2.1 2.75 2.56 3.84l-1.15.62c-.41-1.1-1.45-2.75-2.48-3.93zm-5.26 9.21c1.63-.64 4.19-1.73 6.59-2.78l.27 1.17c-2.22 1.02-4.66 2.1-6.43 2.86l-.43-1.25zm9.6-2.11l.93-.78c1.52 1.5 3.5 3.58 4.45 4.9l-1.02.94c-.91-1.33-2.83-3.49-4.36-5.06zm2.22-8.8l1.3.13c-.82 7.39-2.69 11.47-8.29 13.81-.18-.26-.66-.78-.96-1.04 5.54-2.02 7.23-5.94 7.95-12.9zm-9.87.05l1.23-.05.27 10.58-1.23.05-.27-10.58zm20.1 7.22h8.1v1.02h-8.1v-1.02zm-.8 3.16h9.36v1.04h-9.36v-1.04zm5.15-4.44h1.17v7.9h-1.17v-7.9zm-3.22 1.69h1.07v3.15h-1.07v-3.15zm-6.46-7.81H848v1.09h-2.69v12.94h-1.09v-14.03zm3.41 0h.21l.19-.05.77.46c-.46 1.31-1.06 2.96-1.6 4.24 1.18 1.33 1.44 2.45 1.44 3.44 0 .86-.18 1.54-.62 1.86a2.2 2.2 0 01-.83.29c-.32.03-.72.03-1.09.02-.02-.29-.11-.75-.29-1.06.37.03.67.05.93.02.19 0 .37-.05.5-.14.26-.18.34-.61.34-1.09 0-.86-.29-1.95-1.44-3.2.58-1.46 1.17-3.36 1.5-4.46v-.33zm4.09.69h4.5v.98h-4.5v-.98zm4.23 0h.22l.21-.05.74.37c-1.34 3.36-4.5 5.31-7.76 6.21-.14-.3-.42-.74-.62-.98 3.06-.7 6.1-2.54 7.22-5.36v-.19zm-4.13.85c1.14 2.21 3.6 3.87 6.67 4.45-.24.24-.56.67-.72.98-3.17-.72-5.63-2.54-6.91-5.1l.96-.33zm.51-2.24l1.15.19a11.92 11.92 0 01-3.95 4.51c-.16-.24-.53-.61-.8-.75 1.79-1.12 2.99-2.67 3.6-3.95zm10.98 14.34a28.327 28.327 0 00-3.55-3.55l1.04-.91c1.15.93 2.59 2.37 3.6 3.54l-1.09.92zM772 295.86V297h8.03v-1.14H772zm0-1.92v1.1h8.03v-1.1H772zm-1.17-.87h10.38v4.77h-10.38v-4.77zm-1.9 5.67h14.1v.99h-14.1v-.99zm7.1 2h5.7v.98h-5.7v-.98zm-5.02.09h3.95v.9h-3.95v-.9zm0 2.02h3.95v.9h-3.95v-.9zm6.7-1.22c.93 2.29 2.98 4.03 5.7 4.7-.26.22-.58.66-.74.94-2.82-.83-4.88-2.74-5.94-5.36l.98-.28zm3.65-.89h.22l.21-.05.74.3c-1.06 3.25-3.63 5.25-6.42 6.21-.13-.29-.43-.72-.66-.94 2.56-.77 5.02-2.64 5.9-5.33v-.19zm-12.58 4.56c1.57-.13 3.89-.38 6.14-.64v.99c-2.16.26-4.38.53-6.03.72l-.11-1.07zm5.54-6.24h1.15v8.22h-1.15v-8.22zm-4.02.01h1.12v6.51h-1.12v-6.51zm20.74-5.81h8.16v1.12h-8.16v-1.12zm-.7 12.56h9.01v1.12h-9.01v-1.12zm1.82-3.82l1.04-.24c.4 1.07.77 2.48.88 3.39l-1.1.29c-.08-.93-.44-2.35-.82-3.44zm4.66-.34l1.22.27c-.42 1.22-.9 2.7-1.31 3.6l-1.01-.27c.39-.92.87-2.51 1.1-3.6zm-4-4.44v2.82h4.54v-2.82h-4.54zm-1.14-1.08h6.85v4.96h-6.85v-4.96zm-4.05-.86h1.15v3.15c0 2.66-.48 6.37-3.38 8.8-.14-.26-.59-.7-.82-.85 2.72-2.29 3.04-5.52 3.04-7.97v-3.13zm-1.45-.62h4.72v1.1h-4.72v-1.1zm-1.49 4.33h6.4v1.12h-6.4v-1.12zm3.74 2.08c.51.48 2.34 2.58 2.75 3.09l-.78.99c-.54-.86-2.06-2.74-2.69-3.42l.72-.66zm-2.13-8.43l1.15.21c-.38 2.08-1.04 4.1-1.9 5.42-.22-.18-.75-.46-1.04-.58.88-1.23 1.47-3.13 1.79-5.05zM805.68 306h-1.38v-8.76l.03-.59.03-.59c-.17.17-.32.32-.46.43-.14.12-.32.27-.53.45l-1.22.99-.74-.94 3.09-2.4h1.17V306zm11.84-5.73c0 .93-.07 1.76-.21 2.48-.14.72-.36 1.34-.67 1.86-.3.5-.69.89-1.18 1.15-.48.27-1.06.4-1.74.4-.85 0-1.56-.24-2.13-.7-.55-.47-.97-1.14-1.25-2.02-.27-.89-.4-1.94-.4-3.17 0-1.24.12-2.29.37-3.17.26-.88.66-1.54 1.22-2 .55-.47 1.29-.7 2.19-.7.85 0 1.56.24 2.13.7.57.46.99 1.12 1.26 2 .28.88.41 1.94.41 3.17zm-6.17 0c0 1.04.07 1.92.22 2.61.16.69.41 1.22.75 1.57.35.34.82.51 1.39.51s1.03-.17 1.38-.51c.35-.34.61-.86.77-1.55.16-.7.24-1.58.24-2.62 0-1.05-.08-1.91-.24-2.59-.16-.69-.42-1.21-.77-1.55-.34-.35-.8-.53-1.38-.53s-1.04.18-1.39.53c-.34.34-.59.86-.75 1.55-.15.67-.22 1.54-.22 2.58zm9.78-6.62h10.48v13.39h-1.26v-12.18h-7.98v12.24h-1.23v-13.45zm.82 5.55h8.93v1.18h-8.93v-1.18zm-.02 5.66h8.98v1.2h-8.98v-1.2zm13.63-9.39c.61-.02 1.12-.05 1.44-.08 1.02-.11 4.05-.4 6.99-.66 1.76-.14 3.25-.24 4.32-.27l.02 1.28c-.93-.02-2.32.02-3.14.24-2.29.74-3.68 3.18-3.68 5.07 0 3.12 2.93 4.13 5.52 4.22l-.46 1.31c-2.96-.11-6.32-1.68-6.32-5.26 0-2.48 1.52-4.53 2.98-5.39-1.71.18-5.79.58-7.52.94l-.15-1.4zm10.45 2.23c.37.53.98 1.52 1.33 2.24l-.83.37c-.37-.77-.82-1.58-1.3-2.26l.8-.35zm1.74-.68c.4.53 1.02 1.5 1.39 2.21l-.82.4c-.38-.77-.86-1.57-1.36-2.24l.79-.37zm-69.53 23.65l.83-.67c1.01 1.49 2.21 3.42 2.78 4.67l-.9.75c-.55-1.24-1.71-3.26-2.71-4.75zm-3.42-3.1h7.54v1.12h-6.46v10.59h-1.07v-11.71zm7.06 0h1.09v10.35c0 .64-.11.99-.54 1.17-.42.19-1.1.21-2.11.21-.05-.3-.21-.82-.37-1.12.74.03 1.46.02 1.65.02.21 0 .29-.06.29-.29v-10.34zm-3.41-3.01h1.14c-.1 4.7-.37 8.78-3.02 11.01-.16-.22-.53-.59-.78-.75 2.42-2.04 2.59-5.88 2.66-10.26zm-7.33.02l1.06.42c-.61 1.17-1.36 2.59-1.98 3.47l-.83-.38c.6-.92 1.33-2.46 1.75-3.51zm1.79 1.82l1.01.45c-1.09 1.84-2.62 4.16-3.81 5.57l-.74-.42c1.19-1.44 2.69-3.87 3.54-5.6zm-4.32 1.54l.61-.78c.9.75 1.9 1.79 2.34 2.51l-.64.91c-.44-.76-1.44-1.88-2.31-2.64zm3.76 2.17l.83-.34c.66 1.02 1.3 2.4 1.52 3.28l-.9.42c-.22-.89-.81-2.3-1.45-3.36zm-3.81 1.63c1.39-.05 3.39-.13 5.42-.24l-.02.99c-1.92.13-3.86.24-5.31.34l-.09-1.09zm4.23 2.15l.86-.27c.45.9.88 2.11 1.04 2.91l-.93.32c-.14-.8-.57-2.03-.97-2.96zm-3.33-.18l1.04.19c-.22 1.5-.62 3.06-1.14 4.08-.21-.13-.69-.35-.94-.46.53-.98.85-2.4 1.04-3.81zm1.73-1.52h1.07v7.14h-1.07v-7.14zm17.65-5.79v3.04h6.4v-3.04h-6.4zm-1.17-1.15h8.78v5.34h-8.78v-5.34zm-2.32 7.04h5.7v6.86h-1.2v-5.71h-3.36v5.84h-1.14v-6.99zm7.44 0h6.02v6.9h-1.2v-5.74h-3.66v5.84h-1.15v-7zm-6.93 4.97h4.46v1.15h-4.46v-1.15zm7.52 0h4.75v1.15h-4.75v-1.15zm19.65-8.8c-.35.21-.75.43-1.23.67-1.07.56-3.3 1.62-4.86 2.64-1.49.98-2.38 2.03-2.38 3.23 0 1.33 1.28 2.16 3.81 2.16 1.73 0 3.87-.22 5.12-.54l-.02 1.44c-1.2.21-3.06.38-5.06.38-3.01 0-5.18-.9-5.18-3.3 0-1.73 1.17-3.09 3.06-4.34 1.63-1.09 3.87-2.16 4.91-2.75.46-.27.82-.48 1.15-.75l.68 1.16zm-8.1-2.91c.74 2.05 1.73 4.05 2.46 5.34l-1.09.66c-.82-1.31-1.78-3.47-2.64-5.46l1.27-.54zm12.14 2.37c.59.06 1.28.1 1.97.1 1.73 0 3.74-.21 5.58-.82l.03 1.18c-1.57.43-3.66.78-5.62.77-.59 0-1.28-.02-1.87-.03l-.09-1.2zm5.68-2.61c-.21.78-.54 2.29-.93 3.42-.77 2.3-2.24 5.22-3.57 7.01l-1.23-.64c1.42-1.66 2.91-4.51 3.57-6.4.35-1.01.7-2.42.75-3.54l1.41.15zm3.78 4.95c-.05.66-.05 1.14-.03 1.71.03 1.04.18 3.47.18 4.53 0 1.28-.82 2.32-2.8 2.32-1.76 0-3.18-.7-3.18-2.3 0-1.47 1.39-2.4 3.18-2.4 2.69 0 4.75 1.34 6.06 2.48l-.67 1.09c-1.23-1.12-3.07-2.54-5.42-2.54-1.18 0-1.98.54-1.98 1.28s.62 1.25 1.87 1.25c1.33 0 1.78-.7 1.78-1.57 0-1.22-.18-4.08-.24-5.84h1.25zm3.2.41c-.86-.74-2.61-1.71-3.66-2.21l.64-.96c1.17.5 2.98 1.54 3.74 2.11l-.72 1.06zm7.21-5.29c-.34 1.18-.64 3.34-.74 4.46.66-1.65 2.32-3.65 4.35-3.65 2.11 0 3.65 2.14 3.65 5.5 0 4.43-2.8 6.4-6.75 7.12l-.77-1.15c3.49-.53 6.19-1.94 6.19-5.95 0-2.53-.85-4.35-2.53-4.35-2 0-3.86 2.91-4.05 5.01-.08.61-.08 1.17.03 1.97l-1.25.1c-.08-.61-.16-1.5-.16-2.54 0-1.52.3-3.87.5-5.18.06-.48.1-.93.13-1.38l1.4.04zm19.75-.07c-.03.27-.06.59-.08 1.07-.03.64-.03 2.78-.03 4.13 0 2.11.24 4.91.24 5.98 0 1.12-.74 2.26-2.82 2.26-2.3 0-3.57-.82-3.57-2.37 0-1.46 1.39-2.43 3.7-2.43 3.38 0 6.02 1.82 7.25 2.83l-.74 1.14c-1.44-1.33-3.81-2.93-6.66-2.93-1.54 0-2.35.59-2.35 1.33 0 .75.62 1.3 2.21 1.3.93 0 1.71-.27 1.71-1.39 0-1.23-.16-4.3-.16-5.71v-4.24c0-.27-.02-.75-.06-.96h1.36zm-6.11 1.73c1.02.19 3.02.35 4.08.35 2.03 0 4.18-.14 6.26-.48v1.17c-1.81.21-4.1.42-6.24.42-1.1 0-3.07-.14-4.08-.27l-.02-1.19zm-.08 3.41c1.14.18 2.96.29 4.02.29 2.32 0 4.45-.16 6.53-.46v1.2c-2.18.27-4.13.38-6.53.38-1.1 0-2.86-.08-4-.21l-.02-1.2zm23.07-5.12c-.03.19-.08.82-.08 1.01-.05 1.04-.02 4.13 0 5.41l-1.22-.62c0-.7-.02-3.89-.06-4.77-.03-.43-.08-.88-.11-1.02h1.47zm-8.51 2.24c2.18-.03 6.18-.18 8.64-.18 1.95 0 3.94 0 4.69.02l-.02 1.18c-.9-.05-2.34-.08-4.69-.08-2.75 0-6.18.11-8.59.29l-.03-1.23zm8.4 4.64c0 2.14-.99 3.22-2.45 3.22-1.34 0-2.64-.94-2.64-2.69 0-1.58 1.31-2.77 2.83-2.77 1.86 0 2.8 1.38 2.8 3.22 0 2.18-1.06 4.58-4.77 5.68l-1.07-1.04c2.91-.69 4.61-2.11 4.61-4.75 0-1.44-.7-2.05-1.57-2.05-.85 0-1.63.66-1.63 1.7 0 1.01.75 1.58 1.63 1.58.99 0 1.63-.83 1.38-2.54l.88.44zm7.59 1.9c1.34 0 2.43 1.09 2.43 2.43s-1.09 2.43-2.43 2.43-2.45-1.09-2.45-2.43 1.1-2.43 2.45-2.43zm0 4.05c.9 0 1.62-.72 1.62-1.62s-.72-1.62-1.62-1.62-1.63.72-1.63 1.62.73 1.62 1.63 1.62z"/><defs><filter id="Adobe_OpacityMaskFilter" filterUnits="userSpaceOnUse" x="694.25" y="-21" width="212.13" height="101.82"><feColorMatrix values="1 0 0 0 0 0 1 0 0 0 0 0 1 0 0 0 0 0 1 0"/></filter></defs><mask maskUnits="userSpaceOnUse" x="694.25" y="-21" width="212.13" height="101.82" id="mask0_44_6921_00000132047750947129723440000002681138797522189247_"><path fill="#d9d9d9" filter="url(#Adobe_OpacityMaskFilter)" d="M738 0h125v60H738z"/></mask><g mask="url(#mask0_44_6921_00000132047750947129723440000002681138797522189247_)"><path d="M694.25 29.91L800.32-21l106.06 50.91-106.06 50.91z"/></g><path class="st5" d="M763.53 37.25c0 1.01-.25 1.89-.74 2.64-.5.75-1.22 1.34-2.16 1.75-.93.4-2.06.6-3.41.6a12.393 12.393 0 01-3.38-.46c-.51-.16-1-.35-1.46-.58v-3.38c.82.35 1.66.68 2.52.98.88.29 1.75.43 2.62.43.59 0 1.06-.08 1.42-.24.37-.16.63-.38.79-.65.18-.27.26-.58.26-.94 0-.43-.15-.8-.46-1.1-.29-.3-.68-.58-1.18-.84-.5-.27-1.06-.56-1.7-.86-.4-.19-.83-.42-1.3-.67-.46-.27-.91-.6-1.34-.98-.42-.4-.76-.88-1.03-1.44-.27-.56-.41-1.23-.41-2.02 0-1.02.23-1.9.7-2.62.48-.74 1.15-1.3 2.02-1.68.88-.38 1.91-.58 3.1-.58.9 0 1.74.1 2.54.31.82.21 1.66.5 2.54.89l-1.18 2.83c-.78-.32-1.49-.57-2.11-.74-.62-.18-1.26-.26-1.92-.26-.45 0-.83.07-1.15.22-.32.14-.57.34-.74.6-.16.26-.24.56-.24.91 0 .4.12.74.36 1.03.24.27.6.54 1.08.79.48.26 1.08.56 1.8.91.88.42 1.62.85 2.23 1.3a5 5 0 011.44 1.58c.32.62.49 1.37.49 2.27zm9.71 4.75h-3.62V27.89h-4.66v-3.02h12.94v3.02h-4.66V42zm17.16 0h-9.86V24.86h9.86v2.98h-6.24v3.77h5.81v2.98h-5.81V39h6.24v3zm9.04-17.14c2.21 0 3.82.48 4.82 1.44 1.02.94 1.54 2.25 1.54 3.91 0 .75-.11 1.47-.34 2.16-.22.67-.6 1.28-1.13 1.82-.51.53-1.19.94-2.04 1.25-.85.3-1.9.46-3.14.46h-1.56V42h-3.62V24.86h5.47zm-.19 2.98h-1.66v5.09h1.2c.69 0 1.28-.09 1.78-.26.5-.18.88-.46 1.15-.84.27-.38.41-.88.41-1.49 0-.85-.23-1.47-.7-1.87-.46-.42-1.19-.63-2.18-.63zm30.98 2.74c0 1.83-.15 3.48-.45 4.93-.28 1.45-.74 2.69-1.38 3.71-.62 1-1.44 1.77-2.46 2.3-1 .53-2.24.8-3.71.8-1.83 0-3.34-.47-4.51-1.41s-2.05-2.28-2.62-4.03c-.55-1.75-.83-3.85-.83-6.3 0-2.47.26-4.59.77-6.34s1.35-3.09 2.53-4.03c1.17-.94 2.73-1.41 4.67-1.41 1.84 0 3.34.47 4.51 1.41 1.17.92 2.05 2.26 2.62 4.03.58 1.75.86 3.86.86 6.34zm-11.16 0c0 1.73.1 3.18.29 4.35.19 1.15.51 2.03.96 2.62.47.58 1.11.86 1.92.86.81 0 1.44-.29 1.89-.86.47-.58.8-1.44.99-2.59.21-1.17.32-2.63.32-4.38s-.11-3.2-.32-4.35c-.19-1.17-.52-2.05-.99-2.62-.45-.6-1.08-.9-1.89-.9-.81 0-1.45.3-1.92.9-.45.58-.77 1.45-.96 2.62-.2 1.15-.29 2.6-.29 4.35zm21.96-3.17c1.39 0 2.62.27 3.71.8 1.09.53 1.94 1.31 2.56 2.34.64 1.02.96 2.29.96 3.81 0 1.64-.34 3.06-1.02 4.26-.68 1.19-1.71 2.11-3.07 2.75-1.34.64-3.02.96-5.02.96-1.2 0-2.33-.11-3.39-.32-1.05-.21-1.96-.52-2.75-.93v-4.16c.79.41 1.74.76 2.85 1.06 1.11.28 2.15.42 3.14.42.96 0 1.76-.13 2.4-.38.66-.26 1.16-.65 1.5-1.18.34-.53.51-1.22.51-2.05 0-1.13-.37-1.98-1.12-2.56-.75-.6-1.9-.9-3.46-.9-.6 0-1.22.06-1.86.19-.64.11-1.17.21-1.6.32l-1.92-1.02.86-11.65h12.38v4.1h-8.16l-.42 4.48c.36-.06.75-.13 1.15-.19.43-.11 1.02-.15 1.77-.15z"/><defs><filter id="Adobe_OpacityMaskFilter_00000069388390972420107530000014965630671774404008_" filterUnits="userSpaceOnUse" x="504.25" y="-21" width="212.13" height="101.82"><feColorMatrix values="1 0 0 0 0 0 1 0 0 0 0 0 1 0 0 0 0 0 1 0"/></filter></defs><mask maskUnits="userSpaceOnUse" x="504.25" y="-21" width="212.13" height="101.82" id="mask1_44_6921_00000113354413857123136170000006882351441398031753_"><path fill="#d9d9d9" filter="url(#Adobe_OpacityMaskFilter_00000069388390972420107530000014965630671774404008_)" d="M548 0h125v60H548z"/></mask><g mask="url(#mask1_44_6921_00000113354413857123136170000006882351441398031753_)"><path d="M504.25 29.91L610.32-21l106.06 50.91-106.06 50.91z"/></g><path class="st5" d="M573.53 37.25c0 1.01-.25 1.89-.74 2.64-.5.75-1.22 1.34-2.16 1.75-.93.4-2.06.6-3.41.6a12.393 12.393 0 01-3.38-.46c-.51-.16-1-.35-1.46-.58v-3.38c.82.35 1.66.68 2.52.98.88.29 1.75.43 2.62.43.59 0 1.06-.08 1.42-.24.37-.16.63-.38.79-.65.18-.27.26-.58.26-.94 0-.43-.15-.8-.46-1.1-.29-.3-.68-.58-1.18-.84-.5-.27-1.06-.56-1.7-.86-.4-.19-.83-.42-1.3-.67-.46-.27-.91-.6-1.34-.98-.42-.4-.76-.88-1.03-1.44-.27-.56-.41-1.23-.41-2.02 0-1.02.23-1.9.7-2.62.48-.74 1.15-1.3 2.02-1.68.88-.38 1.91-.58 3.1-.58.9 0 1.74.1 2.54.31.82.21 1.66.5 2.54.89l-1.18 2.83c-.78-.32-1.49-.57-2.11-.74-.62-.18-1.26-.26-1.92-.26-.45 0-.83.07-1.15.22-.32.14-.57.34-.74.6-.16.26-.24.56-.24.91 0 .4.12.74.36 1.03.24.27.6.54 1.08.79.48.26 1.08.56 1.8.91.88.42 1.62.85 2.23 1.3a5 5 0 011.44 1.58c.32.62.49 1.37.49 2.27zm9.71 4.75h-3.62V27.89h-4.66v-3.02h12.94v3.02h-4.66V42zm17.16 0h-9.86V24.86h9.86v2.98h-6.24v3.77h5.81v2.98h-5.81V39h6.24v3zm9.04-17.14c2.21 0 3.82.48 4.82 1.44 1.02.94 1.54 2.25 1.54 3.91 0 .75-.11 1.47-.34 2.16-.22.67-.6 1.28-1.13 1.82-.51.53-1.19.94-2.04 1.25-.85.3-1.9.46-3.14.46h-1.56V42h-3.62V24.86h5.47zm-.19 2.98h-1.66v5.09h1.2c.69 0 1.28-.09 1.78-.26.5-.18.88-.46 1.15-.84.27-.38.41-.88.41-1.49 0-.85-.23-1.47-.7-1.87-.46-.42-1.19-.63-2.18-.63zm30.98 2.74c0 1.83-.15 3.48-.45 4.93-.28 1.45-.74 2.69-1.38 3.71-.62 1-1.44 1.77-2.46 2.3-1 .53-2.24.8-3.71.8-1.83 0-3.34-.47-4.51-1.41s-2.05-2.28-2.62-4.03c-.55-1.75-.83-3.85-.83-6.3 0-2.47.26-4.59.77-6.34s1.35-3.09 2.53-4.03c1.17-.94 2.73-1.41 4.67-1.41 1.84 0 3.34.47 4.51 1.41 1.17.92 2.05 2.26 2.62 4.03.58 1.75.86 3.86.86 6.34zm-11.16 0c0 1.73.1 3.18.29 4.35.19 1.15.51 2.03.96 2.62.47.58 1.11.86 1.92.86.81 0 1.44-.29 1.89-.86.47-.58.8-1.44.99-2.59.21-1.17.32-2.63.32-4.38s-.11-3.2-.32-4.35c-.19-1.17-.52-2.05-.99-2.62-.45-.6-1.08-.9-1.89-.9-.81 0-1.45.3-1.92.9-.45.58-.77 1.45-.96 2.62-.2 1.15-.29 2.6-.29 4.35zm30.12 6.68h-2.75V42h-4.7v-4.74h-9.76V33.9L652 19.15h4.45v14.37h2.75v3.74zm-7.46-7.61v-1.28l.06-1.5c.02-.51.04-.96.06-1.34.02-.41.04-.68.06-.83h-.13c-.19.43-.4.84-.61 1.25-.21.41-.47.82-.77 1.25l-4.19 6.34h5.5v-3.89z"/><defs><filter id="Adobe_OpacityMaskFilter_00000030461173843737879850000016931138594698391445_" filterUnits="userSpaceOnUse" x="326.25" y="-21" width="212.13" height="101.82"><feColorMatrix values="1 0 0 0 0 0 1 0 0 0 0 0 1 0 0 0 0 0 1 0"/></filter></defs><mask maskUnits="userSpaceOnUse" x="326.25" y="-21" width="212.13" height="101.82" id="mask2_44_6921_00000041265089853477112620000005793527543575999673_"><path fill="#d9d9d9" filter="url(#Adobe_OpacityMaskFilter_00000030461173843737879850000016931138594698391445_)" d="M370 0h125v60H370z"/></mask><g mask="url(#mask2_44_6921_00000041265089853477112620000005793527543575999673_)"><path d="M326.25 29.91L432.32-21l106.06 50.91-106.06 50.91z"/></g><path class="st5" d="M395.53 37.25c0 1.01-.25 1.89-.74 2.64s-1.22 1.34-2.16 1.75c-.93.4-2.06.6-3.41.6a12.393 12.393 0 01-3.38-.46c-.51-.16-1-.35-1.46-.58v-3.38c.82.35 1.66.68 2.52.98.88.29 1.75.43 2.62.43.59 0 1.06-.08 1.42-.24.37-.16.63-.38.79-.65.18-.27.26-.58.26-.94 0-.43-.15-.8-.46-1.1-.29-.3-.68-.58-1.18-.84-.5-.27-1.06-.56-1.7-.86-.4-.19-.83-.42-1.3-.67-.46-.27-.91-.6-1.34-.98-.42-.4-.76-.88-1.03-1.44s-.41-1.23-.41-2.02c0-1.02.23-1.9.7-2.62.48-.74 1.15-1.3 2.02-1.68.88-.38 1.91-.58 3.1-.58.9 0 1.74.1 2.54.31.82.21 1.66.5 2.54.89l-1.18 2.83c-.78-.32-1.49-.57-2.11-.74-.62-.18-1.26-.26-1.92-.26-.45 0-.83.07-1.15.22-.32.14-.57.34-.74.6-.16.26-.24.56-.24.91 0 .4.12.74.36 1.03.24.27.6.54 1.08.79.48.26 1.08.56 1.8.91.88.42 1.62.85 2.23 1.3a5 5 0 011.44 1.58c.32.62.49 1.37.49 2.27zm9.71 4.75h-3.62V27.89h-4.66v-3.02h12.94v3.02h-4.66V42zm17.16 0h-9.86V24.86h9.86v2.98h-6.24v3.77h5.81v2.98h-5.81V39h6.24v3zm9.04-17.14c2.21 0 3.82.48 4.82 1.44 1.02.94 1.54 2.25 1.54 3.91 0 .75-.11 1.47-.34 2.16-.22.67-.6 1.28-1.13 1.82-.51.53-1.19.94-2.04 1.25-.85.3-1.9.46-3.14.46h-1.56V42h-3.62V24.86h5.47zm-.19 2.98h-1.66v5.09h1.2c.69 0 1.28-.09 1.78-.26.5-.18.88-.46 1.15-.84.27-.38.41-.88.41-1.49 0-.85-.23-1.47-.7-1.87-.46-.42-1.19-.63-2.18-.63zm30.98 2.74c0 1.83-.15 3.48-.45 4.93-.28 1.45-.74 2.69-1.38 3.71-.62 1-1.44 1.77-2.46 2.3-1 .53-2.24.8-3.71.8-1.83 0-3.34-.47-4.51-1.41s-2.05-2.28-2.62-4.03c-.55-1.75-.83-3.85-.83-6.3 0-2.47.26-4.59.77-6.34s1.36-3.09 2.53-4.03c1.17-.94 2.73-1.41 4.67-1.41 1.83 0 3.34.47 4.51 1.41 1.17.92 2.05 2.26 2.62 4.03.58 1.75.86 3.86.86 6.34zm-11.16 0c0 1.73.1 3.18.29 4.35.19 1.15.51 2.03.96 2.62.47.58 1.11.86 1.92.86.81 0 1.44-.29 1.89-.86.47-.58.8-1.44.99-2.59.21-1.17.32-2.63.32-4.38s-.11-3.2-.32-4.35c-.19-1.17-.52-2.05-.99-2.62-.45-.6-1.08-.9-1.89-.9-.81 0-1.45.3-1.92.9-.45.58-.77 1.45-.96 2.62-.2 1.15-.29 2.6-.29 4.35zm28.71-6.31c0 1.05-.22 1.95-.67 2.72a5.31 5.31 0 01-1.76 1.89c-.73.49-1.56.85-2.5 1.09v.1c1.83.21 3.22.77 4.16 1.66.96.9 1.44 2.1 1.44 3.62 0 1.32-.33 2.52-.99 3.58-.64 1.05-1.64 1.88-3.01 2.5-1.34.6-3.08.9-5.22.9-1.26 0-2.43-.11-3.52-.32a15.01 15.01 0 01-3.07-.93v-4.1c.98.49 2.01.86 3.07 1.12 1.09.26 2.09.38 3.01.38 1.73 0 2.93-.3 3.62-.9.7-.6 1.06-1.44 1.06-2.53 0-.64-.16-1.17-.48-1.6-.32-.45-.89-.78-1.7-.99-.79-.23-1.9-.35-3.33-.35h-1.73V28.4h1.76c1.41 0 2.47-.13 3.2-.38.75-.28 1.25-.64 1.5-1.09.28-.47.42-1 .42-1.6 0-.81-.26-1.44-.77-1.89-.49-.47-1.32-.7-2.5-.7-.73 0-1.39.1-1.98.29-.6.17-1.14.38-1.63.64-.47.26-.89.5-1.25.74l-2.24-3.33c.6-.43 1.26-.81 1.98-1.15.75-.34 1.57-.61 2.46-.8.9-.19 1.9-.29 3.01-.29 2.35 0 4.2.48 5.57 1.44 1.39.93 2.09 2.26 2.09 3.99z"/><defs><filter id="Adobe_OpacityMaskFilter_00000032641836697143683370000004902555272917671865_" filterUnits="userSpaceOnUse" x="141.25" y="-21" width="212.13" height="101.82"><feColorMatrix values="1 0 0 0 0 0 1 0 0 0 0 0 1 0 0 0 0 0 1 0"/></filter></defs><mask maskUnits="userSpaceOnUse" x="141.25" y="-21" width="212.13" height="101.82" id="mask3_44_6921_00000089574522321573819130000003091542653413684126_"><path fill="#d9d9d9" filter="url(#Adobe_OpacityMaskFilter_00000032641836697143683370000004902555272917671865_)" d="M185 0h125v60H185z"/></mask><g mask="url(#mask3_44_6921_00000089574522321573819130000003091542653413684126_)"><path d="M141.25 29.91L247.32-21l106.06 50.91-106.06 50.91z"/></g><path class="st5" d="M210.53 37.25c0 1.01-.25 1.89-.74 2.64s-1.22 1.34-2.16 1.75c-.93.4-2.06.6-3.41.6a12.393 12.393 0 01-3.38-.46c-.51-.16-1-.35-1.46-.58v-3.38c.82.35 1.66.68 2.52.98.88.29 1.75.43 2.62.43.59 0 1.06-.08 1.42-.24.37-.16.63-.38.79-.65.18-.27.26-.58.26-.94 0-.43-.15-.8-.46-1.1-.29-.3-.68-.58-1.18-.84-.5-.27-1.06-.56-1.7-.86-.4-.19-.83-.42-1.3-.67-.46-.27-.91-.6-1.34-.98-.42-.4-.76-.88-1.03-1.44s-.41-1.23-.41-2.02c0-1.02.23-1.9.7-2.62.48-.74 1.15-1.3 2.02-1.68.88-.38 1.91-.58 3.1-.58.9 0 1.74.1 2.54.31.82.21 1.66.5 2.54.89l-1.18 2.83c-.78-.32-1.49-.57-2.11-.74-.62-.18-1.26-.26-1.92-.26-.45 0-.83.07-1.15.22-.32.14-.57.34-.74.6-.16.26-.24.56-.24.91 0 .4.12.74.36 1.03.24.27.6.54 1.08.79.48.26 1.08.56 1.8.91.88.42 1.62.85 2.23 1.3a5 5 0 011.44 1.58c.32.62.49 1.37.49 2.27zm9.71 4.75h-3.62V27.89h-4.66v-3.02h12.94v3.02h-4.66V42zm17.16 0h-9.86V24.86h9.86v2.98h-6.24v3.77h5.81v2.98h-5.81V39h6.24v3zm9.04-17.14c2.21 0 3.82.48 4.82 1.44 1.02.94 1.54 2.25 1.54 3.91 0 .75-.11 1.47-.34 2.16-.22.67-.6 1.28-1.13 1.82-.51.53-1.19.94-2.04 1.25-.85.3-1.9.46-3.14.46h-1.56V42h-3.62V24.86h5.47zm-.19 2.98h-1.66v5.09h1.2c.69 0 1.28-.09 1.78-.26.5-.18.88-.46 1.15-.84.27-.38.41-.88.41-1.49 0-.85-.23-1.47-.7-1.87-.46-.42-1.19-.63-2.18-.63zm30.98 2.74c0 1.83-.15 3.48-.45 4.93-.28 1.45-.74 2.69-1.38 3.71-.62 1-1.44 1.77-2.46 2.3-1 .53-2.24.8-3.71.8-1.83 0-3.34-.47-4.51-1.41s-2.05-2.28-2.62-4.03c-.55-1.75-.83-3.85-.83-6.3 0-2.47.26-4.59.77-6.34s1.36-3.09 2.53-4.03c1.17-.94 2.73-1.41 4.67-1.41 1.83 0 3.34.47 4.51 1.41 1.17.92 2.05 2.26 2.62 4.03.58 1.75.86 3.86.86 6.34zm-11.16 0c0 1.73.1 3.18.29 4.35.19 1.15.51 2.03.96 2.62.47.58 1.11.86 1.92.86.81 0 1.44-.29 1.89-.86.47-.58.8-1.44.99-2.59.21-1.17.32-2.63.32-4.38s-.11-3.2-.32-4.35c-.19-1.17-.52-2.05-.99-2.62-.45-.6-1.08-.9-1.89-.9-.81 0-1.45.3-1.92.9-.45.58-.77 1.45-.96 2.62-.2 1.15-.29 2.6-.29 4.35zM295.67 42H279.7v-3.36l5.73-5.79c1.15-1.19 2.08-2.19 2.78-2.98.7-.81 1.22-1.54 1.54-2.18.32-.66.48-1.37.48-2.11 0-.92-.26-1.6-.77-2.05-.49-.45-1.16-.67-2.02-.67-.88 0-1.73.2-2.56.61-.83.41-1.71.98-2.62 1.73l-2.62-3.1c.66-.58 1.35-1.11 2.08-1.6.75-.49 1.6-.89 2.56-1.18.98-.32 2.15-.48 3.52-.48 1.49 0 2.77.28 3.84.83 1.09.53 1.92 1.27 2.5 2.21.6.92.9 1.96.9 3.14 0 .96-.15 1.85-.45 2.66-.28.81-.69 1.6-1.25 2.37-.53.75-1.2 1.53-1.98 2.34-.79.79-1.69 1.65-2.69 2.59l-2.94 2.75v.22h9.95V42z"/><defs><filter id="Adobe_OpacityMaskFilter_00000160883546907927607460000012865845603506202299_" filterUnits="userSpaceOnUse" x="-43.75" y="-21" width="212.13" height="101.82"><feColorMatrix values="1 0 0 0 0 0 1 0 0 0 0 0 1 0 0 0 0 0 1 0"/></filter></defs><mask maskUnits="userSpaceOnUse" x="-43.75" y="-21" width="212.13" height="101.82" id="mask4_44_6921_00000036235108462797419490000004068818642693587880_"><path fill="#d9d9d9" filter="url(#Adobe_OpacityMaskFilter_00000160883546907927607460000012865845603506202299_)" d="M0 0h125v60H0z"/></mask><g mask="url(#mask4_44_6921_00000036235108462797419490000004068818642693587880_)"><path d="M-43.75 29.91L62.32-21l106.06 50.91L62.32 80.82z"/></g><path class="st5" d="M25.53 37.25c0 1.01-.25 1.89-.74 2.64s-1.22 1.34-2.16 1.75c-.93.4-2.06.6-3.41.6a12.393 12.393 0 01-3.38-.46c-.51-.16-1-.35-1.46-.58v-3.38c.82.35 1.66.68 2.52.98.88.29 1.75.43 2.62.43.59 0 1.06-.08 1.42-.24.37-.16.63-.38.79-.65.18-.27.26-.58.26-.94 0-.43-.15-.8-.46-1.1-.29-.3-.68-.58-1.18-.84-.5-.27-1.06-.56-1.7-.86-.4-.19-.83-.42-1.3-.67-.46-.27-.91-.6-1.34-.98-.42-.4-.76-.88-1.03-1.44s-.41-1.23-.41-2.02c0-1.02.23-1.9.7-2.62.48-.74 1.15-1.3 2.02-1.68.88-.38 1.91-.58 3.1-.58.9 0 1.74.1 2.54.31.82.21 1.66.5 2.54.89l-1.18 2.83c-.78-.32-1.49-.57-2.11-.74-.62-.18-1.26-.26-1.92-.26-.45 0-.83.07-1.15.22-.32.14-.57.34-.74.6-.16.26-.24.56-.24.91 0 .4.12.74.36 1.03.24.27.6.54 1.08.79.48.26 1.08.56 1.8.91.88.42 1.62.85 2.23 1.3a5 5 0 011.44 1.58c.32.62.49 1.37.49 2.27zM35.24 42h-3.62V27.89h-4.66v-3.02H39.9v3.02h-4.66V42zm17.16 0h-9.86V24.86h9.86v2.98h-6.24v3.77h5.81v2.98h-5.81V39h6.24v3zm9.04-17.14c2.21 0 3.82.48 4.82 1.44 1.02.94 1.54 2.25 1.54 3.91 0 .75-.11 1.47-.34 2.16-.22.67-.6 1.28-1.13 1.82-.51.53-1.19.94-2.04 1.25-.85.3-1.9.46-3.14.46h-1.56V42h-3.62V24.86h5.47zm-.19 2.98h-1.66v5.09h1.2c.69 0 1.28-.09 1.78-.26.5-.18.88-.46 1.15-.84.27-.38.41-.88.41-1.49 0-.85-.23-1.47-.7-1.87-.46-.42-1.19-.63-2.18-.63zm30.98 2.74c0 1.83-.15 3.48-.45 4.93-.28 1.45-.74 2.69-1.38 3.71-.62 1-1.44 1.77-2.46 2.3-1 .53-2.24.8-3.71.8-1.83 0-3.34-.47-4.51-1.41s-2.05-2.28-2.62-4.03c-.55-1.75-.83-3.85-.83-6.3 0-2.47.26-4.59.77-6.34s1.35-3.09 2.53-4.03c1.17-.94 2.73-1.41 4.67-1.41 1.83 0 3.34.47 4.51 1.41 1.17.92 2.05 2.26 2.62 4.03.58 1.75.86 3.86.86 6.34zm-11.16 0c0 1.73.1 3.18.29 4.35.19 1.15.51 2.03.96 2.62.47.58 1.11.86 1.92.86.81 0 1.44-.29 1.89-.86.47-.58.8-1.44.99-2.59.21-1.17.32-2.63.32-4.38s-.11-3.2-.32-4.35c-.19-1.17-.52-2.05-.99-2.62-.45-.6-1.08-.9-1.89-.9-.81 0-1.45.3-1.92.9-.45.58-.77 1.45-.96 2.62-.2 1.15-.29 2.6-.29 4.35zM106.64 42h-4.83V27.44l.06-1.66c.02-.58.04-1.09.06-1.54-.11.13-.34.36-.7.7-.34.32-.66.61-.96.86l-2.62 2.11L95.31 25l7.36-5.86h3.97V42z"/><path d="M738 66h184v72H738zm-184 0h184v72H554z"/><path d="M701 102l37-37 37 37-37 37-37-37z"/><defs><filter id="Adobe_OpacityMaskFilter_00000039849828577787512640000009547116600523549076_" filterUnits="userSpaceOnUse" x="737.29" y="64.29" width="39.12" height="75.41"><feColorMatrix values="1 0 0 0 0 0 1 0 0 0 0 0 1 0 0 0 0 0 1 0"/></filter></defs><mask maskUnits="userSpaceOnUse" x="737.29" y="64.29" width="39.12" height="75.41" id="path-25-inside-1_44_6921_00000111174978831477343530000016891795581658293682_"><path d="M701 102l37-37 37 37-37 37-37-37z" fill="#fff" filter="url(#Adobe_OpacityMaskFilter_00000039849828577787512640000009547116600523549076_)"/></mask><path d="M775 102l.71.71.71-.71-.71-.71-.71.71zm-37.71-36.29l37 37 1.41-1.41-37-37-1.41 1.41zm37 35.58l-37 37 1.41 1.41 37-37-1.41-1.41z" mask="url(#path-25-inside-1_44_6921_00000111174978831477343530000016891795581658293682_)" fill="#fff"/><path d="M370 66h184v72H370z"/><path d="M517 102l37-37 37 37-37 37-37-37z"/><defs><filter id="Adobe_OpacityMaskFilter_00000057848736539180383270000016988787633954384009_" filterUnits="userSpaceOnUse" x="553.29" y="64.29" width="39.12" height="75.41"><feColorMatrix values="1 0 0 0 0 0 1 0 0 0 0 0 1 0 0 0 0 0 1 0"/></filter></defs><mask maskUnits="userSpaceOnUse" x="553.29" y="64.29" width="39.12" height="75.41" id="path-28-inside-2_44_6921_00000114788852045638547070000014748619750658462595_"><path d="M517 102l37-37 37 37-37 37-37-37z" fill="#fff" filter="url(#Adobe_OpacityMaskFilter_00000057848736539180383270000016988787633954384009_)"/></mask><path d="M591 102l.71.71.71-.71-.71-.71-.71.71zm-37.71-36.29l37 37 1.41-1.41-37-37-1.41 1.41zm37 35.58l-37 37 1.41 1.41 37-37-1.41-1.41z" mask="url(#path-28-inside-2_44_6921_00000114788852045638547070000014748619750658462595_)" fill="#fff"/><path d="M185 66h184v72H185z"/><path d="M332 102l37-37 37 37-37 37-37-37z"/><defs><filter id="Adobe_OpacityMaskFilter_00000162354303200405779280000015861438213235856273_" filterUnits="userSpaceOnUse" x="368.29" y="64.29" width="39.12" height="75.41"><feColorMatrix values="1 0 0 0 0 0 1 0 0 0 0 0 1 0 0 0 0 0 1 0"/></filter></defs><mask maskUnits="userSpaceOnUse" x="368.29" y="64.29" width="39.12" height="75.41" id="path-31-inside-3_44_6921_00000085218897811541643610000013541721741032481950_"><path d="M332 102l37-37 37 37-37 37-37-37z" fill="#fff" filter="url(#Adobe_OpacityMaskFilter_00000162354303200405779280000015861438213235856273_)"/></mask><path d="M406 102l.71.71.71-.71-.71-.71-.71.71zm-37.71-36.29l37 37 1.41-1.41-37-37-1.41 1.41zm37 35.58l-37 37 1.41 1.41 37-37-1.41-1.41z" mask="url(#path-31-inside-3_44_6921_00000085218897811541643610000013541721741032481950_)" fill="#fff"/><path d="M0 66h184v72H0z"/><path d="M147 102l37-37 37 37-37 37-37-37z"/><defs><filter id="Adobe_OpacityMaskFilter_00000009577646851585856430000002868703996068102320_" filterUnits="userSpaceOnUse" x="183.29" y="64.29" width="39.12" height="75.41"><feColorMatrix values="1 0 0 0 0 0 1 0 0 0 0 0 1 0 0 0 0 0 1 0"/></filter></defs><mask maskUnits="userSpaceOnUse" x="183.29" y="64.29" width="39.12" height="75.41" id="path-34-inside-4_44_6921_00000103980630063474952850000007129573594196982185_"><path d="M147 102l37-37 37 37-37 37-37-37z" fill="#fff" filter="url(#Adobe_OpacityMaskFilter_00000009577646851585856430000002868703996068102320_)"/></mask><path d="M221 102l.71.71.71-.71-.71-.71-.71.71zm-37.71-36.29l37 37 1.41-1.41-37-37-1.41 1.41zm37 35.58l-37 37 1.41 1.41 37-37-1.41-1.41z" mask="url(#path-34-inside-4_44_6921_00000103980630063474952850000007129573594196982185_)" fill="#fff"/><path class="st22" d="M22.71 82.24h2.05v2.2c0 1.69-.38 3.78-2.27 5.08-.31-.4-1.17-1.12-1.6-1.39 1.64-1.08 1.82-2.52 1.82-3.74v-2.15zm4.05 0h2.03v4.03c0 .5.02.56.22.56h.47c.22 0 .29-.23.32-1.8.38.31 1.22.63 1.76.76-.18 2.25-.68 2.88-1.87 2.88h-1.06c-1.44 0-1.87-.56-1.87-2.36v-4.07zm-2.34 9.18c1.22 2.56 3.8 4.5 7.18 5.33-.49.43-1.12 1.31-1.4 1.85-3.6-1.06-6.14-3.35-7.69-6.57l1.91-.61zm4.03-1.94h.4l.38-.07 1.4.5c-1.24 4.82-4.36 7.42-8.57 8.69-.22-.54-.76-1.44-1.15-1.89 3.74-.92 6.61-3.26 7.54-6.91v-.32zm-6.6 0h7.45v1.94h-7.45v-1.94zm1.69-7.24h4.32v1.89h-4.32v-1.89zm-8.14 5h5.56v1.62H15.4v-1.62zm.06-4.96h5.47v1.64h-5.47v-1.64zm-.06 7.41h5.56v1.64H15.4v-1.64zm-.88-4.98h7.09v1.71h-7.09v-1.71zm1.87 7.48h4.55v5.47h-4.55v-1.71h2.7V93.9h-2.7v-1.71zm-1.04 0h1.82v6.19h-1.82v-6.19zm24.5-4.42h9.76v2.14h-9.76v-2.14zm3.8-5.98h2.2v16.83h-2.2V81.79zM33.4 87.24h5.81v1.62H33.4v-1.62zm.11-4.96h5.74v1.64h-5.74v-1.64zm-.11 7.41h5.81v1.64H33.4v-1.64zm-.88-4.98h7.42v1.71h-7.42v-1.71zm1.87 7.48h4.77v5.47h-4.77v-1.71h2.88V93.9h-2.88v-1.71zm-1.04 0h1.87v6.19h-1.87v-6.19zm20.27-8.98c.58.07 1.31.13 1.93.13h7.24c.59 0 1.31-.05 1.93-.13v2.32c-.61-.04-1.31-.07-1.93-.07h-7.24c-.61 0-1.39.04-1.93.07v-2.32zm-2.11 4.59c.54.07 1.17.11 1.73.11h11.79c.38 0 1.17-.02 1.66-.11v2.34c-.47-.02-1.15-.04-1.66-.04H53.24c-.52 0-1.22.02-1.73.05V87.8zm9.22 1.26c0 2.36-.41 4.16-1.19 5.65-.61 1.26-2.02 2.65-3.6 3.47l-2.12-1.53c1.28-.5 2.56-1.53 3.26-2.59.9-1.37 1.15-3.06 1.15-4.99l2.5-.01zm11.61-5.74c1.24.85 3.58 2.72 4.64 3.82l-1.84 1.87c-.94-1.01-3.2-2.97-4.52-3.87l1.72-1.82zm-2.27 11.99c2.83-.4 5.15-1.31 6.89-2.34 3.08-1.84 5.42-4.57 6.57-7l1.39 2.52c-1.35 2.45-3.74 4.93-6.64 6.68-1.84 1.1-4.16 2.09-6.68 2.52l-1.53-2.38zm29.84-11.5a1.04 1.04 0 101.04-1.04c-.57-.01-1.04.46-1.04 1.04zm-1.12 0c0-1.19.97-2.16 2.16-2.16 1.19 0 2.16.97 2.16 2.16s-.97 2.16-2.16 2.16c-1.18 0-2.16-.98-2.16-2.16zm2.2 1.42c-.18.34-.31.86-.4 1.24-.41 1.76-1.21 4.57-2.72 6.57-1.62 2.16-4.01 3.94-7.24 4.97l-1.96-2.16c3.58-.83 5.62-2.39 7.06-4.21 1.21-1.49 1.89-3.55 2.12-5.09h-8.39c-.83 0-1.67.05-2.14.09v-2.56c.54.07 1.55.16 2.14.16h8.33c.36 0 .94-.02 1.4-.14l1.8 1.13zm5.97 11.07c.2-.45.23-.76.23-1.17v-9.77c0-.67-.11-1.53-.22-2.03h2.83c-.09.68-.16 1.35-.16 2.03v9.36c2.93-.83 6.95-3.13 9.25-5.96l1.28 2.05c-2.47 2.93-6.21 5.09-10.46 6.48-.23.07-.63.2-1.06.49l-1.69-1.48zm16.13-7.63c.67.05 1.96.13 2.9.13h9.67c.85 0 1.64-.09 2.12-.13v2.84c-.43-.02-1.35-.11-2.11-.11h-9.68c-1.01 0-2.21.05-2.9.11v-2.84zm22 6.62V84.94c0-.65-.05-1.53-.18-2.18h2.81c-.07.65-.16 1.42-.16 2.18 0 1.98.02 9.02.02 10.35 0 .5.07 1.76.16 2.5h-2.83c.13-.7.18-1.8.18-2.5zm1.94-7.87c2.39.67 6.28 2.09 8.05 2.95l-1.01 2.5c-2.05-1.06-5.08-2.21-7.04-2.86v-2.59zm19.17-4.86c-.14.67-.38 1.73-.88 3.02-.38.88-.9 1.91-1.4 2.63.49-.22 1.44-.34 2.05-.34 1.49 0 2.63.88 2.63 2.56 0 .97.05 2.93.07 4.07h-2.16c.07-.85.11-2.38.09-3.35 0-1.15-.72-1.53-1.48-1.53-.99 0-2.12.59-2.81 1.24-.54.54-1.04 1.19-1.66 1.98l-1.93-1.44c2.3-2.12 3.69-4.07 4.45-6.05.36-.97.59-2.07.65-2.99l2.38.2zm-6.78 1.68c.92.13 2.25.2 3.17.2 2.38 0 5.63-.13 8.24-.59l-.02 2.09c-2.54.36-6.16.52-8.35.52-.74 0-2.05-.04-3.04-.13v-2.09zm14.25 5.11c-.56.16-1.53.52-2.14.76-1.17.45-2.79 1.1-4.48 1.96-1.64.85-2.52 1.62-2.52 2.61s.86 1.26 2.61 1.26c1.53 0 3.55-.2 5.13-.52l-.07 2.32c-1.21.16-3.4.32-5.11.32-2.81 0-4.91-.7-4.91-3.02 0-2.5 2.57-3.98 4.73-5.06 1.66-.86 2.79-1.3 3.87-1.8.7-.31 1.33-.59 2.02-.94l.87 2.11zM28.02 106.22c.45.67 1.08 1.8 1.42 2.47l-1.44.61c-.38-.72-.94-1.8-1.42-2.48l1.44-.6zm2.13-.81c.47.67 1.13 1.82 1.46 2.45l-1.44.61c-.38-.76-.95-1.8-1.44-2.48l1.42-.58zm-8.88 7.6c2.21 1.28 5.56 3.58 7.22 4.91l-1.71 2.03c-1.58-1.48-4.99-3.98-7.09-5.31l1.58-1.63zm8.48-3.06c-.2.34-.43.85-.59 1.3-.56 1.66-1.66 3.96-3.26 5.96-1.69 2.11-4.01 4.12-7.45 5.42l-2.09-1.8c3.76-1.17 5.92-3.06 7.45-4.86 1.22-1.44 2.34-3.49 2.68-4.9h-6.1l.85-2.03h5.11c.56 0 1.17-.09 1.57-.22l1.83 1.13zm-5.96-2.77c-.43.63-.88 1.46-1.1 1.84-1.22 2.18-3.53 4.93-6.1 6.71l-1.94-1.49c3.15-1.94 4.82-4.43 5.72-5.98.27-.45.67-1.28.83-1.89l2.59.81zm18.51-.87c-.11.77-.13 1.13-.13 1.66v2.59h-2.52v-2.59c0-.52-.02-.88-.13-1.66h2.78zm6.04 3.8c-.13.4-.27 1.08-.34 1.42-.32 1.73-.79 3.47-1.69 5.11-1.42 2.65-4.14 4.55-7.34 5.4l-1.87-2.16c.83-.14 1.8-.41 2.56-.72 1.48-.56 3.06-1.62 4.09-3.06.9-1.33 1.37-3.04 1.58-4.64H36.4v2.65c0 .4.02.97.07 1.33h-2.48c.05-.45.07-1.03.07-1.51v-3.13c0-.4 0-1.12-.07-1.53.61.05 1.15.07 1.84.07h9.49c.74 0 1.17-.07 1.49-.18l1.53.95zm6-2.79c1.24.85 3.58 2.72 4.64 3.82l-1.84 1.87c-.94-1.01-3.2-2.97-4.52-3.87l1.72-1.82zm-2.27 11.99c2.83-.4 5.15-1.31 6.89-2.34 3.08-1.84 5.42-4.57 6.57-7l1.39 2.52c-1.35 2.45-3.74 4.93-6.64 6.68-1.84 1.1-4.16 2.09-6.68 2.52l-1.53-2.38zm18.2-11.07c.72.02 1.4.04 1.89.04h9.92c.45 0 1.12 0 1.78-.02-.04.54-.04 1.19-.04 1.75v8.82c0 .7.02 2.43.04 2.5h-2.5c0-.07.05-1.48.05-2.47v-8.28H72.7v8.28c0 .86.02 2.38.02 2.47h-2.47c0-.09.04-1.67.04-2.54v-8.78c0-.53 0-1.25-.02-1.77zm12.02 9.81v2.29H71.47v-2.29h10.82zm5.35-5.38c.67.05 1.96.13 2.9.13h9.67c.85 0 1.64-.09 2.12-.13v2.84c-.43-.02-1.35-.11-2.11-.11h-9.68c-1.01 0-2.21.05-2.9.11v-2.84zm28.62-5.06c.5.76 1.24 1.91 1.64 2.74l-1.55.68c-.54-1.13-.94-1.85-1.6-2.77l1.51-.65zm2.36-.97c.54.72 1.3 1.84 1.69 2.65l-1.51.76c-.58-1.15-1.01-1.82-1.67-2.7l1.49-.71zm-9.53 12.9v-10.35c0-.65-.07-1.53-.2-2.16h2.83c-.07.63-.16 1.42-.16 2.16v10.35c0 .52.09 1.78.16 2.5h-2.81c.11-.7.18-1.78.18-2.5zm1.93-7.86c2.41.67 6.28 2.09 8.06 2.97l-1.03 2.48c-2.03-1.06-5.08-2.21-7.04-2.86v-2.59zm132.13-28.76h15.7v2.21h-15.7v-2.21zm8.7 6.03l1.67-1.4c1.93 1.4 4.7 3.47 6.01 4.91l-1.84 1.66c-1.18-1.42-3.85-3.64-5.84-5.17zm-.72-5.22l2.41.85c-2.05 3.8-5.33 7.47-9.47 9.63-.34-.58-1.03-1.48-1.48-1.96 3.86-1.82 7.04-5.31 8.54-8.52zm-1.32 4.36l2.38-2.36v12.85h-2.38V88.09zM269 91.28h7.15v2.02H269v-2.02zm-3.71 1.02c1.31 3.44 4.28 4.09 7.76 4.09.79.02 3.46 0 4.46-.04-.31.5-.63 1.49-.74 2.11h-3.85c-4.39 0-7.6-.97-9.4-5.49l1.77-.67zm2.74-3.76h2.23v8.87l-2.23-.7v-8.17zm-3.06-4v2.47h8.32v-2.47h-8.32zm-2.14-2.05h12.74v6.57h-12.74v-6.57zm.77 7.65l2.27.27c-.5 2.99-1.51 6.35-3.73 8.15-.36-.43-1.08-1.13-1.53-1.46 1.93-1.54 2.74-4.47 2.99-6.96zm17.77-6.71c.58.07 1.33.13 1.93.13h5.9c.61 0 1.31-.05 1.93-.13v2.32c-.61-.04-1.31-.07-1.93-.07h-5.89c-.63 0-1.39.04-1.94.07v-2.32zm-2.07 4.59c.52.07 1.15.13 1.71.13h11.79c.38 0 1.17-.04 1.66-.13v2.36c-.45-.04-1.15-.05-1.66-.05h-11.79c-.52 0-1.22.02-1.71.05v-2.36zm9.19 1.26c0 2.36-.41 4.16-1.17 5.67-.63 1.24-2.02 2.65-3.62 3.46l-2.12-1.53c1.28-.5 2.56-1.53 3.28-2.59.9-1.35 1.13-3.06 1.13-4.99l2.5-.02zm3.71-7.09c.45.65 1.1 1.8 1.42 2.47l-1.44.61c-.36-.74-.92-1.8-1.4-2.5l1.42-.58zm2.13-.81c.47.67 1.13 1.82 1.46 2.45l-1.42.61c-.38-.76-.95-1.8-1.46-2.48l1.42-.58zm3.31 7.29c.67.05 1.96.13 2.9.13h9.67c.85 0 1.64-.09 2.12-.13v2.84c-.43-.02-1.35-.11-2.11-.11h-9.68c-1.01 0-2.21.05-2.9.11v-2.84zm24.06-.09c2.21 1.28 5.54 3.58 7.22 4.91l-1.73 2.05c-1.57-1.48-4.99-4-7.09-5.33l1.6-1.63zm8.48-3.06c-.22.34-.45.85-.61 1.3-.54 1.66-1.64 3.96-3.26 5.96-1.69 2.11-4 4.12-7.43 5.42l-2.09-1.8c3.76-1.17 5.9-3.06 7.45-4.86 1.21-1.42 2.32-3.49 2.66-4.9h-6.08l.83-2.03h5.13c.56 0 1.15-.09 1.57-.22l1.83 1.13zm-5.96-2.78c-.43.63-.9 1.46-1.12 1.84-1.21 2.18-3.51 4.93-6.1 6.71l-1.93-1.49c3.15-1.94 4.81-4.41 5.72-5.98.27-.43.65-1.26.81-1.89l2.62.81zm18.42 1.93c-.25 1.84-.61 3.94-1.24 6.07-1.08 3.64-2.63 5.87-4.59 5.87-2.02 0-3.67-2.21-3.67-5.26 0-4.14 3.62-7.7 8.28-7.7 4.45 0 7.27 3.1 7.27 7.04 0 3.78-2.32 6.46-6.86 7.16l-1.37-2.12c.7-.09 1.21-.18 1.69-.29 2.29-.56 4.09-2.2 4.09-4.84 0-2.83-1.76-4.84-4.88-4.84-3.82 0-5.9 3.11-5.9 5.38 0 1.82.72 2.7 1.4 2.7.77 0 1.46-1.15 2.21-3.58.52-1.69.92-3.76 1.1-5.65l2.47.06zm-92.27 21.71h2.02v1.89c0 1.75-.47 3.85-2.61 5.17-.25-.41-1.03-1.28-1.42-1.57 1.78-1.04 2.02-2.45 2.02-3.65v-1.84zm1.01 0h4.36v2h-4.36v-2zm3.33 0h2.05v3.92c0 .49.05.54.27.54h.52c.25 0 .31-.25.34-1.82.4.32 1.24.63 1.78.77-.18 2.21-.67 2.83-1.89 2.83h-1.15c-1.49 0-1.93-.52-1.93-2.3v-3.94zm-5.31 7.06h7.49v1.94h-7.49v-1.94zm6.82 0h.41l.4-.07 1.4.54c-1.39 5.02-4.88 7.54-9.56 8.73-.22-.58-.72-1.49-1.12-1.96 4.21-.83 7.4-3.08 8.46-6.91v-.33zm-4.43 1.82c1.31 2.74 4.05 4.64 7.9 5.4-.47.45-1.1 1.37-1.4 1.94-4.1-.97-6.8-3.28-8.44-6.75l1.94-.59zm-9.41-.29c1.53-.31 3.91-.9 6.19-1.46l.23 1.87c-2.02.65-4.12 1.33-5.81 1.84l-.61-2.25zm.29-5.9h6.21v2h-6.21v-2zm2.28-3.35h2.12v14.58c0 1.04-.2 1.58-.81 1.91-.59.32-1.46.4-2.74.38-.07-.54-.34-1.42-.59-1.96.68.02 1.44.02 1.67.02.23-.02.34-.09.34-.34v-14.59zm19.17 1.01h5.09v2.2h-5.09v-2.2zm4.03 0h2.23c0 3.42.49 10.04 7.16 13.95-.5.4-1.37 1.35-1.75 1.89-6.84-4.13-7.64-12.17-7.64-15.84zm-.77 3.94l2.48.45c-1.26 5.35-3.65 9.22-7.42 11.48-.4-.47-1.4-1.37-1.96-1.76 3.77-1.91 5.93-5.4 6.9-10.17zm25.61-.16c-.56.32-1.13.65-1.8.97-1.12.56-3.37 1.62-5.02 2.68-1.49.97-2.5 2.02-2.5 3.26 0 1.3 1.26 2 3.76 2 1.84 0 4.27-.29 5.87-.67l-.02 2.59c-1.55.25-3.44.45-5.78.45-3.6 0-6.32-1.01-6.32-4.1 0-2.29 1.67-3.89 3.82-5.29 1.71-1.13 3.98-2.25 5.08-2.88.68-.4 1.19-.7 1.66-1.08l1.25 2.07zm-9.05-3.86c.86 2.39 2 4.55 2.84 6.07l-2.05 1.19c-.99-1.64-2.07-4-3.06-6.32l2.27-.94zm21.92 7.82h6.75v1.57h-6.75v-1.57zm0 2.84h6.75v1.58h-6.75v-1.58zm-.03 2.84h7.61v1.78h-7.61v-1.78zm-2.65-12.76h10.17v3.29h-1.91v-1.48h-6.43v1.48h-1.84v-3.29zm5.13 5.56h1.98V121h-1.98v-8.05zm-1.78-1.49h6.48v1.8h-6.48v9.38h-2.02v-9.31l1.82-1.87h.2zm.95-5.76l2.05.38c-.97 3.91-2.77 7.02-5.42 8.96-.29-.41-1.03-1.26-1.46-1.62 2.48-1.62 4.08-4.35 4.83-7.72zm1.93 3.94l2 .41c-.47.99-.95 1.96-1.35 2.63l-1.62-.41c.36-.74.77-1.84.97-2.63zm-12.56-2.86h6.5v1.96h-6.5v-1.96zm2.03 5.29h4.18v8.39h-4.18v-1.85h2.36v-4.66h-2.36v-1.88zm-.18-4.25l2.03.32c-.54 3.89-1.51 7.7-3.35 10.15-.2-.5-.77-1.6-1.15-2.09 1.41-1.97 2.11-5.08 2.47-8.38zm-.67 4.25h1.75v9.77h-1.75v-9.77zm26.73-4.91h1.94c-.34 2.93-1.13 5.9-4.45 7.65-.23-.49-.79-1.19-1.22-1.53 2.92-1.39 3.46-3.87 3.73-6.12zm-3.11 3.08l1.01-1.49c1.78.54 3.89 1.53 5.09 2.3l-1.03 1.66c-1.16-.85-3.31-1.92-5.07-2.47zm7.22-3.82h2.02s0 .54-.02.79c-.18 4.1-.36 5.8-.85 6.37-.34.45-.68.61-1.21.68-.43.07-1.17.07-1.96.05-.02-.59-.23-1.4-.52-1.93.61.05 1.15.05 1.42.05.23.02.4-.04.54-.22.29-.34.45-1.71.58-5.49v-.3zm-5.24 9.7h1.98v3.94c0 .5.04.56.38.56h.94c.34 0 .41-.22.47-1.89.38.32 1.22.63 1.76.77-.2 2.38-.72 2.99-2.02 2.99h-1.49c-1.67 0-2.02-.59-2.02-2.39v-3.98zm-1.84.7l1.69.45c-.16 1.62-.5 3.33-1.37 4.39l-1.58-.97c.74-.9 1.1-2.39 1.26-3.87zm2.24-1.94l1.24-1.24c1.15.58 2.57 1.51 3.24 2.27l-1.33 1.4c-.63-.74-2-1.76-3.15-2.43zm3.97 2.23l1.75-.7c.94 1.37 1.73 3.2 1.96 4.48l-1.89.77c-.2-1.25-.93-3.16-1.82-4.55zm-6.12-10.69h7.9v1.8h-7.9v-1.8zm-6.53 4.82h5.27v1.62h-5.27v-1.62zm.05-4.96h5.17v1.64h-5.17v-1.64zm-.05 7.41h5.27v1.64h-5.27v-1.64zm-.83-4.98h6.59v1.71h-6.59v-1.71zm1.77 7.48h4.36v5.47h-4.36v-1.71h2.56v-2.05h-2.56v-1.71zm-.98 0h1.76v6.19h-1.76v-6.19zm121.14-32.38a1.04 1.04 0 101.04-1.04c-.57-.01-1.04.46-1.04 1.04zm-1.11 0c0-1.19.97-2.16 2.16-2.16 1.19 0 2.16.97 2.16 2.16s-.97 2.16-2.16 2.16a2.17 2.17 0 01-2.16-2.16zm2.19 1.42c-.18.34-.31.86-.4 1.24-.41 1.76-1.21 4.57-2.72 6.57-1.62 2.16-4.01 3.94-7.24 4.97l-1.96-2.16c3.58-.83 5.62-2.39 7.06-4.21 1.21-1.49 1.89-3.55 2.12-5.09H426c-.83 0-1.67.05-2.14.09v-2.56c.54.07 1.55.16 2.14.16h8.33c.36 0 .94-.02 1.4-.14l1.8 1.13zm4.74-.99c.72.02 1.4.04 1.89.04h9.92c.45 0 1.12 0 1.78-.02-.04.54-.04 1.19-.04 1.75v8.82c0 .7.02 2.43.04 2.5h-2.5c0-.07.05-1.48.05-2.47v-8.28h-8.71v8.28c0 .86.02 2.38.02 2.47h-2.47c0-.09.04-1.67.04-2.54v-8.78c0-.53 0-1.25-.02-1.77zm12.02 9.81v2.29h-10.82v-2.29h10.82zm9.34 1.24V84.94c0-.65-.05-1.53-.18-2.18h2.81c-.07.65-.16 1.42-.16 2.18 0 1.98.02 9.02.02 10.35 0 .5.07 1.76.16 2.5h-2.83c.13-.7.18-1.8.18-2.5zm1.95-7.87c2.39.67 6.28 2.09 8.05 2.95l-1.01 2.5c-2.05-1.06-5.08-2.21-7.04-2.86v-2.59zm18.12 1.16c2.21 1.28 5.54 3.58 7.22 4.91l-1.73 2.05c-1.57-1.48-4.99-4-7.09-5.33l1.6-1.63zm8.48-3.06c-.22.34-.45.85-.61 1.3-.54 1.66-1.64 3.96-3.26 5.96-1.69 2.11-4 4.12-7.43 5.42l-2.09-1.8c3.76-1.17 5.9-3.06 7.45-4.86 1.21-1.42 2.32-3.49 2.66-4.9h-6.08l.83-2.03h5.13c.56 0 1.15-.09 1.57-.22l1.83 1.13zm-5.96-2.78c-.43.63-.9 1.46-1.12 1.84-1.21 2.18-3.51 4.93-6.1 6.71l-1.93-1.49c3.15-1.94 4.81-4.41 5.72-5.98.27-.43.65-1.26.81-1.89l2.62.81zm8.9 7.28c3.22-.83 5.85-2 7.87-3.24 1.84-1.13 3.89-2.93 5.06-4.36l1.94 1.84c-1.64 1.66-3.83 3.35-5.96 4.63-2.03 1.21-4.95 2.56-7.79 3.4l-1.12-2.27zm7.48-2.07l2.56-.61v8.12c0 .79.04 1.91.16 2.36h-2.86c.07-.43.14-1.57.14-2.36v-7.51zm23.85-4.14a1.04 1.04 0 102.078.002 1.04 1.04 0 00-2.078-.002zm-1.11 0c0-1.19.97-2.16 2.16-2.16s2.16.97 2.16 2.16-.97 2.16-2.16 2.16-2.16-.98-2.16-2.16zm2.19 1.42c-.18.34-.31.86-.4 1.24-.41 1.76-1.21 4.57-2.72 6.57-1.62 2.16-4.01 3.94-7.24 4.97l-1.96-2.16c3.58-.83 5.62-2.39 7.06-4.21 1.21-1.49 1.89-3.55 2.12-5.09H516c-.83 0-1.67.05-2.14.09v-2.56c.54.07 1.55.16 2.14.16h8.33c.36 0 .94-.02 1.4-.14l1.8 1.13zm13.11-.56c-.25 1.84-.61 3.94-1.24 6.07-1.08 3.64-2.63 5.87-4.59 5.87-2.02 0-3.67-2.21-3.67-5.26 0-4.14 3.62-7.7 8.28-7.7 4.45 0 7.27 3.1 7.27 7.04 0 3.78-2.32 6.46-6.86 7.16l-1.37-2.12c.7-.09 1.21-.18 1.69-.29 2.29-.56 4.09-2.2 4.09-4.84 0-2.83-1.76-4.84-4.88-4.84-3.82 0-5.9 3.11-5.9 5.38 0 1.82.72 2.7 1.4 2.7.77 0 1.46-1.15 2.21-3.58.52-1.69.92-3.76 1.1-5.65l2.47.06zm-109.78 23.98h8.64v2.05h-9.65l1.01-2.05zm2.37 3.96h5.8v1.96h-5.8v-1.96zm-.02 3.98h6.05v2.02h-6.05v-2.02zm-1.08-7.25h2.21v13.28h-2.21v-13.28zm-.86-3.46l2.09.56c-1.01 2.92-2.63 5.9-4.28 7.78-.34-.4-1.17-1.17-1.64-1.51 1.58-1.63 3-4.22 3.83-6.83zm-4.75-.09l2.09.67c-1.17 3.06-3.06 6.35-5.04 8.41-.2-.54-.81-1.76-1.19-2.3 1.65-1.65 3.22-4.21 4.14-6.78zm-1.82 4.97l2.16-2.18.02.02v14h-2.18v-11.84zm18.56 1.73h4.16v1.98h-4.16v-1.98zm3.33 0h2.11s-.02.54-.02.79c-.07 3.82-.16 5.42-.58 5.98-.36.45-.72.61-1.24.7-.49.07-1.26.07-2.11.05-.04-.63-.27-1.48-.59-2.02.65.07 1.26.07 1.55.07.25 0 .41-.04.56-.22.22-.29.29-1.55.32-5.04v-.31zm5.42-5.64l1.3-1.31c.99.52 2.32 1.35 2.97 1.94l-1.39 1.46c-.6-.63-1.88-1.51-2.88-2.09zm2.12 4.63l2.18.52c-1.51 4.7-4.16 8.35-7.72 10.55-.32-.45-1.12-1.35-1.57-1.78 3.46-1.86 5.87-5.12 7.11-9.29zm-10.75-3.06h13.88v2.12h-13.88v-2.12zm-1.44 0h2.27v5.29c0 2.7-.31 6.7-1.94 9.13-.36-.43-1.33-1.22-1.84-1.48 1.39-2.16 1.51-5.31 1.51-7.67v-5.27zm7.31-2.68h2.27c-.13 7.34 1.53 14.56 3.35 14.56.41 0 .63-.92.74-3.19.49.5 1.26 1.01 1.84 1.22-.34 3.35-1.06 4.16-2.75 4.16-3.94 0-5.39-8.55-5.45-16.75zm23.74 4.77c-.56.32-1.13.65-1.8.97-1.12.56-3.37 1.62-5.02 2.68-1.49.97-2.5 2.02-2.5 3.26 0 1.3 1.26 2 3.76 2 1.84 0 4.27-.29 5.87-.67l-.02 2.59c-1.55.25-3.44.45-5.78.45-3.6 0-6.32-1.01-6.32-4.1 0-2.29 1.67-3.89 3.82-5.29 1.71-1.13 3.98-2.25 5.08-2.88.68-.4 1.19-.7 1.66-1.08l1.25 2.07zm-9.05-3.86c.86 2.39 2 4.55 2.84 6.07l-2.05 1.19c-.99-1.64-2.07-4-3.06-6.32l2.27-.94zm21.92 7.82h6.75v1.57h-6.75v-1.57zm0 2.84h6.75v1.58h-6.75v-1.58zm-.03 2.84h7.61v1.78h-7.61v-1.78zm-2.65-12.76h10.17v3.29h-1.91v-1.48h-6.43v1.48h-1.84v-3.29zm5.13 5.56h1.98V121h-1.98v-8.05zm-1.78-1.49h6.48v1.8h-6.48v9.38h-2.02v-9.31l1.82-1.87h.2zm.95-5.76l2.05.38c-.97 3.91-2.77 7.02-5.42 8.96-.29-.41-1.03-1.26-1.46-1.62 2.48-1.62 4.08-4.35 4.83-7.72zm1.93 3.94l2 .41c-.47.99-.95 1.96-1.35 2.63l-1.62-.41c.36-.74.77-1.84.97-2.63zm-12.56-2.86h6.5v1.96h-6.5v-1.96zm2.03 5.29h4.18v8.39h-4.18v-1.85h2.36v-4.66h-2.36v-1.88zm-.18-4.25l2.03.32c-.54 3.89-1.51 7.7-3.35 10.15-.2-.5-.77-1.6-1.15-2.09 1.41-1.97 2.11-5.08 2.47-8.38zm-.67 4.25h1.75v9.77h-1.75v-9.77zm26.73-4.91h1.94c-.34 2.93-1.13 5.9-4.45 7.65-.23-.49-.79-1.19-1.22-1.53 2.92-1.39 3.46-3.87 3.73-6.12zm-3.11 3.08l1.01-1.49c1.78.54 3.89 1.53 5.09 2.3l-1.03 1.66c-1.16-.85-3.31-1.92-5.07-2.47zm7.22-3.82h2.02s0 .54-.02.79c-.18 4.1-.36 5.8-.85 6.37-.34.45-.68.61-1.21.68-.43.07-1.17.07-1.96.05-.02-.59-.23-1.4-.52-1.93.61.05 1.15.05 1.42.05.23.02.4-.04.54-.22.29-.34.45-1.71.58-5.49v-.3zm-5.24 9.7h1.98v3.94c0 .5.04.56.38.56h.94c.34 0 .41-.22.47-1.89.38.32 1.22.63 1.76.77-.2 2.38-.72 2.99-2.02 2.99h-1.49c-1.67 0-2.02-.59-2.02-2.39v-3.98zm-1.84.7l1.69.45c-.16 1.62-.5 3.33-1.37 4.39l-1.58-.97c.74-.9 1.1-2.39 1.26-3.87zm2.24-1.94l1.24-1.24c1.15.58 2.57 1.51 3.24 2.27l-1.33 1.4c-.63-.74-2-1.76-3.15-2.43zm3.97 2.23l1.75-.7c.94 1.37 1.73 3.2 1.96 4.48l-1.89.77c-.2-1.25-.93-3.16-1.82-4.55zm-6.12-10.69h7.9v1.8h-7.9v-1.8zm-6.53 4.82h5.27v1.62h-5.27v-1.62zm.05-4.96h5.17v1.64h-5.17v-1.64zm-.05 7.41h5.27v1.64h-5.27v-1.64zm-.83-4.98h6.59v1.71h-6.59v-1.71zm1.77 7.48h4.36v5.47h-4.36v-1.71h2.56v-2.05h-2.56v-1.71zm-.98 0h1.76v6.19h-1.76v-6.19zm132.81-21.46h5.09v2.2h-5.09v-2.2zm4.03 0h2.23c0 3.42.49 10.04 7.16 13.95-.5.4-1.37 1.35-1.75 1.89-6.84-4.13-7.64-12.17-7.64-15.84zm-.77 3.94l2.48.45c-1.26 5.35-3.65 9.22-7.42 11.48-.4-.47-1.4-1.37-1.96-1.76 3.77-1.91 5.93-5.4 6.9-10.17zm19.55-2.9c-1.49 2.11-4.25 4.46-7.2 6.03-.27-.5-.88-1.3-1.35-1.75 3.1-1.51 5.99-4.21 7.33-6.39h2.25c1.94 2.74 4.84 5 7.7 6.17-.52.54-1.03 1.28-1.42 1.94-2.76-1.45-5.76-3.88-7.31-6zm-4.52 3.35h9.07v1.89h-9.07v-1.89zm-2.14 3.67h13.34v1.85h-13.34v-1.85zm-.92 5.47h15.3v1.85h-15.3v-1.85zm6.39-8.39h2.3v9.31h-2.3v-9.31zm-4.36 5.46l1.75-.72c.68.92 1.4 2.16 1.67 3.01l-1.87.81c-.23-.83-.9-2.15-1.55-3.1zm9.17-.7l2.05.77c-.74 1.1-1.53 2.27-2.16 3.02l-1.62-.67c.57-.84 1.33-2.15 1.73-3.12zM669 99.87a2.296 2.296 0 11-.012 4.592A2.296 2.296 0 01669 99.87zm16.9 2.63h2.18v1.93h-2.18v-1.93zm-.05 1.62l1.67.72c-1.8 1.66-4.82 2.86-7.81 3.4-.23-.47-.76-1.17-1.15-1.57 2.86-.37 5.81-1.29 7.29-2.55zm2.39-.11c1.06 2.72 3.4 4.37 7.22 4.93-.41.4-.92 1.19-1.17 1.71-4.16-.79-6.5-2.79-7.81-6.26l1.76-.38zm4.74.92l1.53 1.13c-1.13.77-2.54 1.49-3.64 1.96l-1.3-1.06c1.08-.48 2.54-1.36 3.41-2.03zm-12.06 3.76c1.89-.22 4.75-.58 7.47-.95l.07 1.67c-2.56.38-5.26.76-7.24 1.03l-.3-1.75zm-2.06-5.23h16.25v1.69h-16.25v-1.69zm9.76-9.02h1.93v6.03h-1.93v-6.03zm3.89-.58h1.96v7.22c0 .94-.18 1.39-.83 1.66-.65.27-1.53.29-2.79.29-.09-.5-.38-1.22-.63-1.71.81.04 1.69.04 1.94.02.27 0 .34-.07.34-.29v-7.19zm-9.96-.14h1.85v9.31h-1.85v-9.31zm3.3 5.33h1.73v2.05c0 .68-.11 1.01-.58 1.22-.45.22-1.03.22-1.8.22-.09-.41-.34-.9-.52-1.24.41.02.83.02.97 0 .14 0 .2-.04.2-.18v-2.07zm-6.28 0h7v1.31h-5.36v2.25h-1.64v-3.56zm-.74-2.07h9.04v1.44h-9.04v-1.44zm1.98-2.09h6.57v1.37h-7.13l.56-1.37zm-.58-1.14l1.58.38c-.38 1.1-.99 2.29-1.58 3.02-.34-.25-1.03-.63-1.42-.83.61-.66 1.12-1.65 1.42-2.57zm2.49 13.22l1.12-1.12.95.31v3.49h-2.07v-2.68zm21.2-11.22h8.55v1.84h-8.55v-1.84zm-2.36 3.35h11.65v1.8h-11.65v-1.8zm2.11-5.2l2 .45c-.61 1.85-1.67 3.64-2.75 4.79-.41-.32-1.31-.81-1.82-1.04 1.13-1.02 2.05-2.62 2.57-4.2zm2.72-.18h2.14v6.59h-2.14v-6.59zm-5.4 7.02v6.62h-2.11v-4.63h-2.11v-2h4.22zm0 5.69c.72 1.19 2.09 1.71 3.96 1.78 2.11.09 6.19.04 8.62-.16-.23.5-.59 1.55-.68 2.2-2.18.11-5.81.14-7.97.05-2.21-.09-3.71-.61-4.88-2.02-.79.7-1.6 1.39-2.57 2.18l-1.06-2.25c.81-.5 1.78-1.13 2.61-1.78h1.97zm-4.18-11l1.6-1.3c1.08.76 2.39 1.89 3.02 2.74l-1.73 1.42c-.53-.85-1.83-2.05-2.89-2.86zm8.32 8.17v1.84h4.75v-1.84h-4.75zm-2.11-1.71h9.11v5.27h-9.11v-5.27zm122.83-7.51c-.07.34-.14 1.12-.16 1.57-.09 1.42-.14 3.37-.14 5.04 0 1.96.11 5.08.11 6.12 0 2.21-.79 2.83-1.98 2.83-1.75 0-4.23-1.51-4.23-3.42 0-1.75 2.25-3.58 4.75-4.46 1.6-.58 3.42-.86 4.79-.86 2.77 0 4.97 1.44 4.97 3.92 0 2.14-1.12 3.74-3.98 4.45-.83.18-1.64.23-2.38.31l-.81-2.34c.79 0 1.58 0 2.2-.13 1.46-.25 2.63-.99 2.63-2.29 0-1.24-1.08-1.94-2.65-1.94-1.53 0-3.11.32-4.52.88-1.62.61-2.77 1.58-2.77 2.36 0 .58.85 1.06 1.31 1.06.32 0 .56-.14.56-.77 0-.94-.09-3.44-.09-5.62 0-2.05.02-4.28.02-5.11 0-.36-.05-1.26-.11-1.58h2.48zm5.13 1.97c1.37.67 3.46 1.84 4.43 2.52l-1.1 1.84c-.86-.72-3.2-2.07-4.32-2.61l.99-1.75zm-11.05.99c1.06.13 1.84.13 2.48.13 1.87 0 4.68-.34 6.53-.88l.05 2.23c-2.03.47-4.93.79-6.52.79-1.19 0-1.89-.02-2.5-.09l-.04-2.18zm18.39-2.79h2.18v5.31c0 3.13-.29 7.81-2.2 10.76-.41-.36-1.37-.9-1.93-1.12 1.82-2.74 1.94-6.8 1.94-9.65v-5.3zm1.35 0h12.49V100h-12.49v-1.96h10.31v-1.53h-10.31v-1.96zm2.47 10.44h9.25v1.71h-9.25v-1.71zm0 3.16h9.25v1.91h-9.25v-1.91zm3.47-8.19h2.09v9.16h-2.09v-9.16zm-4.46 1.79h11.29v8.86h-2.12v-6.97h-7.15v6.97h-2.02v-8.86zM868 94.69c-.07.4-.09.83-.09 1.24-.04.83 0 4.23 0 5.29 0 4.23-.32 6.86-3.91 9.13l-2.09-1.62c.7-.31 1.6-.88 2.11-1.44 1.37-1.44 1.67-3.06 1.67-6.08 0-1.35-.04-4.27-.13-5.27-.04-.43-.13-.95-.2-1.24H868zm-7.11 3.53c.88.13 1.76.18 2.74.18 2.32 0 5.2-.16 6.97-.49v2.34c-1.71.2-4.48.34-6.91.34-.79 0-1.89-.05-2.79-.11v-2.26zM859.04 95c-.14.45-.32 1.1-.41 1.48-.45 2-1.1 5.78-.61 8.01.23-.56.58-1.44.86-2.09l1.13.72c-.54 1.55-1.01 3.35-1.22 4.37-.07.29-.13.68-.11.88 0 .2.02.5.04.76l-2.02.2c-.4-1.1-1.03-3.6-1.03-5.83 0-2.95.36-5.72.59-7.2.07-.49.09-1.1.11-1.55l2.67.25z"/><path class="st0" d="M0 143h184v250H0z"/><path d="M21.32 284h-7.55v-1.17l2.99-3.02c.58-.58 1.06-1.09 1.46-1.54.39-.45.69-.89.9-1.31.2-.44.3-.91.3-1.42 0-.63-.19-1.1-.56-1.42-.37-.33-.86-.5-1.46-.5-.55 0-1.05.1-1.47.29-.42.19-.84.46-1.28.8l-.75-.94a5.525 5.525 0 012.15-1.17c.43-.12.88-.18 1.36-.18.71 0 1.33.12 1.84.37.51.24.91.6 1.18 1.06.29.45.43.99.43 1.62 0 .45-.07.88-.21 1.28-.14.4-.34.78-.59 1.17s-.57.77-.93 1.17c-.36.4-.76.81-1.2 1.23l-2.38 2.35v.06h5.78V284zm9.2-5.73c0 .93-.07 1.76-.21 2.48-.14.72-.36 1.34-.67 1.86-.3.5-.69.89-1.18 1.15-.48.27-1.06.4-1.74.4-.85 0-1.56-.24-2.13-.7-.55-.47-.97-1.14-1.25-2.02-.27-.89-.4-1.94-.4-3.17 0-1.24.12-2.29.37-3.17.26-.88.66-1.54 1.22-2 .55-.47 1.29-.7 2.19-.7.85 0 1.56.24 2.13.7.57.46.99 1.12 1.26 2 .28.88.41 1.94.41 3.17zm-6.17 0c0 1.04.07 1.92.22 2.61.16.69.41 1.22.75 1.57.35.34.82.51 1.39.51.58 0 1.03-.17 1.38-.51.35-.34.61-.86.77-1.55.16-.7.24-1.58.24-2.62 0-1.05-.08-1.91-.24-2.59-.16-.69-.42-1.21-.77-1.55-.34-.35-.8-.53-1.38-.53-.58 0-1.04.18-1.39.53-.34.34-.59.86-.75 1.55-.15.67-.22 1.54-.22 2.58zm10.03 4.05c-.1.37-.22.78-.37 1.22-.15.44-.31.87-.5 1.3-.17.44-.34.85-.51 1.23h-1.04c.11-.4.21-.84.3-1.31.11-.46.2-.91.29-1.36.09-.46.15-.88.21-1.25h1.5l.12.17zm9.58-4.05c0 .93-.07 1.76-.21 2.48-.14.72-.36 1.34-.67 1.86-.3.5-.69.89-1.18 1.15-.48.27-1.06.4-1.74.4-.85 0-1.56-.24-2.13-.7-.55-.47-.97-1.14-1.25-2.02-.27-.89-.4-1.94-.4-3.17 0-1.24.12-2.29.37-3.17.26-.88.66-1.54 1.22-2 .55-.47 1.29-.7 2.19-.7.85 0 1.56.24 2.13.7.57.46.99 1.12 1.26 2 .27.88.41 1.94.41 3.17zm-6.17 0c0 1.04.07 1.92.22 2.61.16.69.41 1.22.75 1.57.35.34.82.51 1.39.51s1.03-.17 1.38-.51c.35-.34.61-.86.77-1.55.16-.7.24-1.58.24-2.62 0-1.05-.08-1.91-.24-2.59-.16-.69-.42-1.21-.77-1.55-.34-.35-.8-.53-1.38-.53s-1.04.18-1.39.53c-.34.34-.59.86-.75 1.55-.15.67-.22 1.54-.22 2.58zm15.33 0c0 .93-.07 1.76-.21 2.48-.14.72-.36 1.34-.67 1.86-.3.5-.69.89-1.18 1.15-.48.27-1.06.4-1.74.4-.85 0-1.56-.24-2.13-.7-.55-.47-.97-1.14-1.25-2.02-.27-.89-.4-1.94-.4-3.17 0-1.24.12-2.29.37-3.17.26-.88.66-1.54 1.22-2 .55-.47 1.29-.7 2.19-.7.85 0 1.56.24 2.13.7.57.46.99 1.12 1.26 2 .27.88.41 1.94.41 3.17zm-6.18 0c0 1.04.07 1.92.22 2.61.16.69.41 1.22.75 1.57.35.34.82.51 1.39.51s1.03-.17 1.38-.51c.35-.34.61-.86.77-1.55.16-.7.24-1.58.24-2.62 0-1.05-.08-1.91-.24-2.59-.16-.69-.42-1.21-.77-1.55-.34-.35-.8-.53-1.38-.53s-1.04.18-1.39.53c-.34.34-.59.86-.75 1.55-.14.67-.22 1.54-.22 2.58zm15.33 0c0 .93-.07 1.76-.21 2.48-.14.72-.36 1.34-.67 1.86-.3.5-.69.89-1.18 1.15-.48.27-1.06.4-1.74.4-.85 0-1.56-.24-2.13-.7-.55-.47-.97-1.14-1.25-2.02-.27-.89-.4-1.94-.4-3.17 0-1.24.12-2.29.37-3.17.26-.88.66-1.54 1.22-2 .55-.47 1.29-.7 2.19-.7.85 0 1.56.24 2.13.7.57.46.99 1.12 1.26 2 .28.88.41 1.94.41 3.17zm-6.17 0c0 1.04.07 1.92.22 2.61.16.69.41 1.22.75 1.57.35.34.82.51 1.39.51s1.03-.17 1.38-.51c.35-.34.61-.86.77-1.55.16-.7.24-1.58.24-2.62 0-1.05-.08-1.91-.24-2.59-.16-.69-.42-1.21-.77-1.55-.34-.35-.8-.53-1.38-.53s-1.04.18-1.39.53c-.34.34-.59.86-.75 1.55-.15.67-.22 1.54-.22 2.58zm16.63-7.5h1.2v14.51h-1.2v-14.51zm-2.77.61l1.15.22c-.43 2.24-1.17 4.43-2.08 5.86-.24-.18-.74-.46-1.04-.59.93-1.35 1.6-3.41 1.97-5.49zm.16 2.46h7.47v1.18h-7.78l.31-1.18zm-2 4.7H78.3v1.18H68.12v-1.18zm-.79-7.92l1.14.35c-1.01 2.7-2.56 5.41-4.22 7.22-.11-.27-.46-.9-.69-1.18 1.5-1.55 2.93-3.95 3.77-6.39zm-1.61 4.13l1.14-1.14.02.02v11.63h-1.15v-10.51zm19.17-1.66l1.07-.53c1.07 1.17 2.1 2.75 2.56 3.84l-1.15.62c-.42-1.1-1.46-2.75-2.48-3.93zm-5.27 9.21c1.63-.64 4.19-1.73 6.59-2.78l.27 1.17c-2.22 1.02-4.66 2.1-6.43 2.86l-.43-1.25zm9.6-2.11l.93-.78c1.52 1.5 3.5 3.58 4.45 4.9l-1.02.94c-.9-1.33-2.82-3.49-4.36-5.06zm2.23-8.8l1.3.13c-.82 7.39-2.69 11.47-8.29 13.81-.18-.26-.66-.78-.96-1.04 5.53-2.02 7.23-5.94 7.95-12.9zm-9.88.05l1.23-.05.27 10.58-1.23.05-.27-10.58zm21.01 4.3h6.58v1.2h-6.58v-1.2zm-6.7 7.59h14.37v1.2H95.88v-1.2zm6.01-12.53h1.26v13.17h-1.26V270.8zm18.18 2.29c-.21 1.66-.53 3.54-1.02 5.25-.98 3.28-2.26 4.98-3.73 4.98-1.44 0-2.86-1.63-2.86-4.29 0-3.47 3.09-6.5 7.01-6.5 3.74 0 6.13 2.64 6.13 5.89 0 3.34-2.21 5.58-6.02 6.08l-.74-1.18c.51-.05.99-.11 1.38-.19 2.05-.46 4.06-2 4.06-4.77 0-2.56-1.78-4.67-4.85-4.67-3.52 0-5.71 2.9-5.71 5.25 0 2.02.91 2.91 1.63 2.91.75 0 1.62-1.09 2.43-3.79.46-1.52.8-3.33.96-4.99l1.33.02zm-96.53 20.4c-.06.43-.1.9-.08 1.33.02 1.78.13 7.36.14 10.35.02.85-.5 1.3-1.46 1.3-.82 0-1.76-.05-2.56-.1l-.11-1.33c.77.13 1.66.19 2.27.19.45 0 .59-.21.59-.64 0-2.29-.06-8-.14-9.78-.03-.61-.06-.99-.13-1.33h1.48zm-8.59 2.8c.46.05.99.08 1.47.08H26c.42 0 1.04-.05 1.36-.1v1.36c-.38-.02-.93-.05-1.33-.05h-9.58c-.54 0-.99.03-1.5.06v-1.35zm-.57 7.47c3.38-1.66 6.34-4.46 7.52-6.42h.64l.02 1.07c-1.22 1.9-4.19 4.75-7.26 6.38l-.92-1.03zm16.24-4.69c.5.05 1.33.1 2.24.1h8.77c.8 0 1.36-.06 1.73-.1v1.57c-.34-.02-1.01-.06-1.71-.06h-8.78c-.88 0-1.73.03-2.24.06v-1.57zm26.31-4.56c0 .59.46 1.06 1.06 1.06.58 0 1.06-.46 1.06-1.06 0-.58-.48-1.06-1.06-1.06-.6.01-1.06.49-1.06 1.06zm-.74 0c0-.99.8-1.79 1.79-1.79s1.79.8 1.79 1.79-.8 1.79-1.79 1.79-1.79-.8-1.79-1.79zm1.39 1.07c-.11.22-.18.5-.24.8-.35 1.68-1.12 4.27-2.4 5.9-1.46 1.89-3.36 3.36-6.29 4.29l-1.09-1.2c3.1-.78 4.9-2.14 6.24-3.86 1.14-1.44 1.87-3.68 2.1-5.22h-8.19c-.64 0-1.18.03-1.58.06v-1.42c.43.05 1.07.11 1.6.11h8.02c.26 0 .56-.02.86-.1l.97.64zm6.1-1.29c1.12.75 3.18 2.42 4.06 3.3l-.99 1.02c-.82-.83-2.8-2.56-4-3.34l.93-.98zm-1.38 10.72c2.78-.42 4.86-1.39 6.38-2.34 2.48-1.55 4.42-3.92 5.34-5.9l.77 1.38c-1.09 1.98-2.94 4.16-5.36 5.68-1.62 1.01-3.63 2-6.3 2.5l-.83-1.32zm17.97.41c2.66-1.07 4.45-2.8 5.65-4.59 1.23-1.82 1.73-3.73 2-5.22.08-.42.13-1.01.13-1.3l1.58.21c-.13.43-.26.98-.3 1.26-.38 1.9-1.02 3.92-2.19 5.71-1.26 1.94-3.06 3.73-5.68 4.94l-1.19-1.01zm-.99-10.91c.72 1.04 2.13 3.5 2.69 4.54l-1.26.72c-.69-1.44-2.02-3.71-2.67-4.62l1.24-.64zm14.38 4.56c.5.05 1.33.1 2.24.1h8.77c.8 0 1.36-.06 1.73-.1v1.57c-.34-.02-1.01-.06-1.71-.06h-8.78c-.88 0-1.73.03-2.24.06v-1.57zm26.37-3.76c-.1.13-.3.48-.38.69-.64 1.58-1.86 3.82-3.18 5.3-1.79 2-4.08 3.9-6.61 5.06l-1.02-1.07c2.59-.99 4.94-2.91 6.59-4.74 1.09-1.23 2.26-3.14 2.67-4.46h-6.24c-.58 0-1.44.06-1.62.08v-1.44c.21.03 1.12.1 1.62.1h6.18c.51 0 .94-.05 1.2-.13l.79.61zm-3.36 5.15c1.73 1.44 3.86 3.68 4.94 5.01l-1.1.98c-1.15-1.52-3.02-3.57-4.75-5.09l.91-.9zm13.57-6.94c-.06.3-.13.64-.19.96-.1.58-.32 1.89-.53 2.88-.54 2.24-1.7 6.22-3.5 9.15l-1.3-.53c1.82-2.43 3.1-6.7 3.54-8.67.29-1.26.51-2.7.51-3.94l1.47.15zm5.52 1.71c.99 1.3 2.38 4.24 2.91 5.73l-1.23.59c-.48-1.65-1.73-4.48-2.85-5.79l1.17-.53zm-11.28 1.81c.51.02.93.02 1.44 0 1.18-.03 4.43-.4 5.52-.4 1.42 0 2.59.54 2.59 2.72 0 1.9-.26 4.45-.91 5.78-.51 1.07-1.31 1.33-2.34 1.33-.62 0-1.38-.11-1.89-.22l-.21-1.34c.67.21 1.5.34 1.95.34.59 0 1.07-.13 1.41-.83.51-1.07.75-3.17.75-4.9 0-1.46-.67-1.73-1.7-1.73-1.07 0-4.06.35-5.04.45-.37.05-1.04.13-1.44.19l-.13-1.39zm20.11-3.58c1.38.45 4.78 1.1 6.21 1.25l-.3 1.22c-1.54-.21-4.99-.91-6.22-1.23l.31-1.24zm-.35 2.92c-.21 1.09-.5 3.46-.66 4.5 1.54-1.34 3.3-1.97 5.22-1.97 2.45 0 4.08 1.47 4.08 3.36 0 2.85-2.54 4.78-8.48 4.29l-.38-1.3c5.06.61 7.52-.85 7.52-3.04 0-1.26-1.2-2.18-2.83-2.18-2.1 0-3.82.78-4.94 2.14-.24.27-.38.53-.48.78l-1.2-.29c.32-1.46.72-4.82.82-6.48l1.33.19zM19.56 315.23c-.05.29-.08.72-.1 1.1-.05.94-.13 3.39-.13 5.06s.08 4.16.08 5.17c0 1.47-.54 1.95-1.42 1.95-1.25 0-3.33-1.22-3.33-2.66 0-1.41 1.9-2.9 3.89-3.65 1.42-.56 3.02-.85 4.29-.85 2.35 0 4.03 1.26 4.03 3.18 0 1.94-1.22 3.17-3.42 3.68-.7.16-1.42.19-1.98.22l-.45-1.28c.61 0 1.28.02 1.89-.11 1.39-.27 2.67-1.02 2.67-2.51 0-1.36-1.23-2.08-2.74-2.08-1.44 0-2.75.3-4.11.85-1.57.61-2.8 1.68-2.8 2.5 0 .72 1.12 1.36 1.74 1.36.37 0 .58-.26.58-.78 0-.93-.08-3.15-.08-4.93 0-1.84.06-4.45.06-5.1 0-.3-.03-.86-.08-1.12h1.41zm4.98 1.78c1.14.59 2.88 1.68 3.65 2.32l-.64 1.02c-.78-.74-2.58-1.84-3.6-2.38l.59-.96zm-9.6 1.09c.88.11 1.46.13 2.03.13 1.58 0 4.13-.34 5.71-.82l.03 1.25c-1.65.4-4.27.75-5.71.75-.9 0-1.5-.03-2.03-.08l-.03-1.23zm17.88 2.78v5.66h-1.14V322h-1.97v-1.12h3.11zm0 5.18c.75 1.2 2.18 1.74 4.08 1.82 1.81.08 5.57.03 7.54-.1-.14.26-.34.8-.38 1.14-1.82.08-5.31.11-7.14.05-2.13-.08-3.58-.66-4.59-1.92-.69.69-1.41 1.38-2.18 2.1l-.62-1.14c.69-.53 1.54-1.25 2.27-1.95h1.02zm-3.02-10.51l.93-.61c.94.77 2.02 1.87 2.46 2.67l-1.01.69c-.41-.8-1.45-1.95-2.38-2.75zm4.21 5.78h9.71v.93h-9.71v-.93zm-.51 2.46h10.72v.94H33.5v-.94zm2.88-3.61h1.15v4.08h-1.15v-4.08zm3.77 0h1.14v4.08h-1.14v-4.08zm-5.74-3.11h2.82v-1.04H33.8v-.83h4.48v2.72h-3.87v-.85zm-.34 0h1.02v1.66c0 .3.08.37.59.37h1.74c.38 0 .46-.1.51-.8.19.16.59.29.88.34-.11 1.04-.42 1.31-1.23 1.31h-2.02c-1.18 0-1.5-.24-1.5-1.2v-1.68zm5.62 0h2.77v-1.04h-3.41v-.83h4.45v2.72h-3.81v-.85zm-.35 0h1.02v1.66c0 .3.1.37.64.37h1.89c.4 0 .48-.1.53-.85.21.14.61.27.9.34-.11 1.09-.42 1.36-1.28 1.36H40.9c-1.22 0-1.55-.24-1.55-1.22v-1.66zm.52 8.39l.86-.53c1.17.56 2.48 1.34 3.25 1.94l-1.18.53c-.64-.6-1.82-1.37-2.93-1.94zm-2.92-.56l1.06.37c-.82.78-2.11 1.57-3.18 2.08a4.97 4.97 0 00-.88-.75c1.08-.44 2.28-1.05 3-1.7zm19.48-8.47c.34 1.94 1.04 4.66 3.39 6.78l-.83 1.12c-1.78-1.89-2.86-4.27-3.81-7.55l1.25-.35zm-10 .85c.24.02.58.02.86 0 1.42-.06 4.11-.43 5.06-.8l.37 1.14c-.21.06-.61.18-.85.27-1.01.75-3.46 3.55-3.46 6.85 0 2.26 1.49 3.01 3.14 3.01 3.81 0 5.1-4.1 3.89-10.37l1.17 2.16c.83 4.58-.08 9.52-5.09 9.52-2.53 0-4.35-1.41-4.35-4.05 0-2.99 1.57-5.28 2.98-6.88-.82.13-2.13.29-2.7.37-.3.03-.58.08-.91.13l-.11-1.35zm11.41-1.76c.32.61.82 1.6 1.09 2.26l-.83.3c-.29-.72-.7-1.66-1.06-2.27l.8-.29zm1.63-.62c.34.59.83 1.57 1.14 2.24l-.85.32c-.29-.72-.7-1.65-1.07-2.26l.78-.3zm5.11 1.95c-.08.37-.13 1.14-.14 1.55-.02.99 0 2.46.11 3.78.27 2.67 1.04 4.45 2.19 4.45.82 0 1.57-1.65 1.98-3.25l1.01 1.14c-.98 2.7-1.94 3.63-3.02 3.63-1.52 0-2.96-1.5-3.41-5.65-.14-1.38-.18-3.33-.18-4.26 0-.37 0-1.06-.1-1.42l1.56.03zm8.32.43c1.44 1.86 2.59 5.26 2.83 7.97l-1.3.51c-.27-2.88-1.25-6.18-2.77-8.05l1.24-.43zm11.18-1.86c-.1.35-.21.96-.27 1.26-.24 1.15-.58 2.96-1.02 4.56-.58 2.27-1.65 5.58-2.5 7.33l-1.39-.46c.96-1.66 2.08-4.91 2.69-7.17.38-1.47.8-3.49.91-4.32.06-.45.1-.99.06-1.33l1.52.13zm-3.53 2.68c1.76 0 4.11-.29 6.1-.78v1.25c-1.98.45-4.4.72-6.13.72-.7 0-1.26-.02-1.86-.06l-.03-1.25c.75.08 1.32.12 1.92.12zm5.05 2.19c.83-.08 1.9-.13 2.93-.13.93 0 1.9.03 2.77.13l-.03 1.22c-.83-.1-1.76-.19-2.7-.19-.99 0-1.98.06-2.96.18v-1.21zm.32 3.89c-.13.53-.22 1.02-.22 1.44 0 .75.43 1.49 2.7 1.49 1.06 0 2.14-.11 3.14-.3l-.05 1.28c-.86.13-1.94.22-3.1.22-2.51 0-3.89-.77-3.89-2.35 0-.61.1-1.22.24-1.89l1.18.11zm13.68-8.53c-.1.35-.22.96-.29 1.26-.22 1.15-.56 2.98-1.01 4.56-.58 2.27-1.65 5.58-2.5 7.33l-1.41-.46c.98-1.65 2.1-4.91 2.69-7.17.4-1.47.82-3.47.93-4.32.06-.45.1-.99.06-1.33l1.53.13zm-3.53 2.67c1.76 0 4.11-.27 6.1-.78v1.26c-1.98.45-4.4.7-6.13.7-.7 0-1.26-.02-1.86-.06l-.03-1.23c.75.09 1.32.11 1.92.11zm5.05 2.21c.83-.08 1.89-.14 2.93-.14.93 0 1.9.03 2.77.13l-.03 1.22c-.83-.1-1.76-.18-2.7-.18-1.01 0-1.98.05-2.96.16v-1.19zm.32 3.89c-.13.51-.22 1.02-.22 1.44 0 .75.43 1.49 2.7 1.49 1.04 0 2.14-.13 3.14-.32l-.05 1.3c-.86.11-1.94.22-3.1.22-2.51 0-3.89-.78-3.89-2.37 0-.61.1-1.2.24-1.89l1.18.13zm3.63-8.28c.42.56.99 1.55 1.33 2.19l-.86.38c-.32-.64-.88-1.62-1.31-2.22l.84-.35zm1.78-.65c.43.59 1.04 1.58 1.34 2.19l-.86.38c-.34-.7-.88-1.6-1.33-2.21l.85-.36zm14.34.05c-.05.26-.06.58-.06.94-.02.59.05 3.3.05 4.19 0 3.66 0 6.29-3.39 8.27l-1.17-.9c.5-.21 1.15-.61 1.55-1.01 1.71-1.49 1.79-3.31 1.79-6.38 0-1.02-.06-3.5-.11-4.18-.03-.35-.1-.7-.16-.94h1.5zm-5.86 3.31c.7.11 1.71.18 2.59.18 1.97 0 4.24-.13 5.84-.5v1.3c-1.55.26-3.79.4-5.82.4-.78 0-1.9-.05-2.61-.11v-1.27zm-2.24-3.07c-.1.29-.21.74-.27 1.04-.51 2.32-1.07 5.82-.45 8.45.21-.69.56-1.66.85-2.45l.69.42c-.38 1.1-.86 2.74-1.04 3.54-.05.22-.08.53-.06.72 0 .16.03.37.05.54l-1.1.13c-.32-.99-.83-3.07-.83-5.07 0-2.61.42-5.06.61-6.4.05-.35.06-.78.08-1.07l1.47.15zm21.07-.47c-.03.27-.06.59-.08 1.07-.03.64-.03 2.78-.03 4.13 0 2.11.24 4.91.24 5.98 0 1.12-.74 2.26-2.82 2.26-2.3 0-3.57-.82-3.57-2.37 0-1.46 1.39-2.43 3.7-2.43 3.38 0 6.02 1.82 7.25 2.83l-.74 1.14c-1.44-1.33-3.81-2.93-6.66-2.93-1.54 0-2.35.59-2.35 1.33 0 .75.62 1.3 2.21 1.3.93 0 1.71-.27 1.71-1.39 0-1.23-.16-4.3-.16-5.71v-4.24c0-.27-.02-.75-.06-.96h1.36zm-6.11 1.73c1.02.19 3.02.35 4.08.35 2.03 0 4.18-.14 6.26-.48v1.17c-1.81.21-4.1.42-6.24.42-1.1 0-3.07-.14-4.08-.27l-.02-1.19zm-.08 3.41c1.14.18 2.96.29 4.02.29 2.32 0 4.45-.16 6.53-.46v1.2c-2.18.27-4.13.38-6.53.38-1.1 0-2.86-.08-4-.21l-.02-1.2zm23.07-5.12c-.03.19-.08.82-.08 1.01-.05 1.04-.02 4.13 0 5.41l-1.22-.62c0-.7-.02-3.89-.06-4.77-.03-.43-.08-.88-.11-1.02h1.47zm-8.51 2.24c2.18-.03 6.18-.18 8.64-.18 1.95 0 3.94 0 4.69.02l-.02 1.18c-.9-.05-2.34-.08-4.69-.08-2.75 0-6.18.11-8.59.29l-.03-1.23zm8.4 4.64c0 2.14-.99 3.22-2.45 3.22-1.34 0-2.64-.94-2.64-2.69 0-1.58 1.31-2.77 2.83-2.77 1.86 0 2.8 1.38 2.8 3.22 0 2.18-1.06 4.58-4.77 5.68l-1.07-1.04c2.91-.69 4.61-2.11 4.61-4.75 0-1.44-.7-2.05-1.57-2.05-.85 0-1.63.66-1.63 1.7 0 1.01.75 1.58 1.63 1.58.99 0 1.63-.83 1.38-2.54l.88.44zm7.59 1.9c1.34 0 2.43 1.09 2.43 2.43s-1.09 2.43-2.43 2.43-2.45-1.09-2.45-2.43 1.11-2.43 2.45-2.43zm0 4.05c.9 0 1.62-.72 1.62-1.62s-.72-1.62-1.62-1.62c-.9 0-1.63.72-1.63 1.62s.73 1.62 1.63 1.62z"/><path class="st1" d="M67 185h50.85v50H67z"/><path class="st22" d="M186 143h184v250H186z"/><path d="M206.72 284l-1.38-3.54h-4.53l-1.36 3.54H198l4.46-11.47h1.3l4.45 11.47h-1.49zm-3.09-8.27c-.03-.08-.09-.24-.16-.46s-.15-.45-.22-.69c-.06-.24-.12-.43-.16-.56-.05.21-.11.43-.18.66-.05.21-.11.41-.18.59-.05.18-.1.34-.14.46l-1.3 3.46h3.62l-1.28-3.46zm7.36-.31V284h-1.41v-8.58h1.41zm-.69-3.21c.21 0 .4.07.56.22.17.14.26.36.26.67 0 .3-.09.52-.26.67-.16.15-.35.22-.56.22-.24 0-.43-.08-.59-.22s-.24-.37-.24-.67c0-.31.08-.53.24-.67.16-.15.35-.22.59-.22zm2.68 7.41c0-.88.08-1.73.24-2.56.17-.83.43-1.63.78-2.38.35-.76.79-1.46 1.33-2.1h1.33c-.49.66-.91 1.38-1.25 2.14a12.414 12.414 0 00-1.01 4.88c0 .82.08 1.64.26 2.45.17.81.42 1.59.75 2.34.33.76.74 1.47 1.23 2.14h-1.31c-.53-.63-.98-1.32-1.33-2.06-.35-.74-.61-1.51-.78-2.34-.16-.82-.24-1.66-.24-2.51zm10.67-1.65h3.95v5.6c-.62.2-1.24.35-1.87.45-.63.1-1.34.14-2.14.14-1.18 0-2.18-.24-2.99-.7a4.75 4.75 0 01-1.86-2.03c-.42-.89-.62-1.93-.62-3.14 0-1.2.23-2.23.7-3.1a4.88 4.88 0 012.02-2.03c.88-.49 1.95-.74 3.2-.74.64 0 1.24.06 1.81.18.58.12 1.11.28 1.6.5l-.54 1.25c-.41-.18-.86-.34-1.38-.46-.5-.13-1.02-.19-1.57-.19-.91 0-1.69.19-2.34.56-.65.37-1.15.91-1.49 1.6-.34.68-.51 1.5-.51 2.45 0 .91.14 1.71.43 2.42.3.69.76 1.24 1.39 1.63.63.38 1.46.58 2.48.58.34 0 .64-.01.9-.03.27-.03.51-.07.72-.11.22-.04.43-.08.62-.13v-3.39h-2.51v-1.31zm13.07 6.03h-6.38v-11.42h6.38v1.26h-4.94v3.57h4.66v1.25h-4.66v4.08h4.94V284zm11.56 0h-1.68l-6.11-9.49h-.06c.01.19.02.4.03.64.02.23.04.49.05.77l.03.83c.01.29.02.58.02.86V284h-1.33v-11.42h1.66l6.1 9.46h.06c-.01-.13-.02-.3-.03-.53-.01-.23-.02-.49-.03-.77l-.03-.88c-.01-.3-.02-.58-.02-.83v-6.45h1.34V284zm8.14 0l-3.76-10.02h-.06c.02.21.04.48.05.82.02.33.04.69.05 1.09.01.38.02.78.02 1.18V284h-1.33v-11.42h2.13l3.52 9.36h.06l3.58-9.36h2.11V284h-1.42v-7.02c0-.37 0-.74.02-1.1.01-.37.03-.72.05-1.04.02-.33.04-.61.05-.83h-.06l-3.81 10h-1.2zm16.64 0l-1.38-3.54h-4.53L265.8 284h-1.46l4.46-11.47h1.3l4.45 11.47h-1.49zm-3.08-8.27c-.03-.08-.09-.24-.16-.46-.08-.22-.15-.45-.22-.69-.06-.24-.12-.43-.16-.56-.05.21-.11.43-.18.66-.05.21-.11.41-.18.59-.05.18-.1.34-.14.46l-1.3 3.46h3.62l-1.28-3.46zm13.3-3.31c.67 0 1.26.11 1.78.32.51.2.91.51 1.2.91.3.4.45.91.45 1.5 0 .46-.1.86-.3 1.2-.19.34-.45.65-.78.91s-.69.48-1.09.69c.47.22.9.48 1.28.77.38.28.69.6.91.98.23.37.35.82.35 1.34 0 .64-.16 1.19-.46 1.66-.31.46-.75.82-1.31 1.07-.56.26-1.21.38-1.97.38-.82 0-1.52-.12-2.1-.37-.57-.24-1-.59-1.3-1.04-.29-.46-.43-1.01-.43-1.66 0-.52.11-.98.32-1.36.22-.38.52-.71.88-.99s.75-.51 1.17-.7a6.23 6.23 0 01-1.02-.72c-.3-.28-.54-.59-.72-.94-.17-.35-.26-.76-.26-1.23 0-.59.15-1.08.45-1.47.3-.4.7-.71 1.22-.93.5-.22 1.08-.32 1.73-.32zm-2.4 8.68c0 .55.2 1.02.59 1.39.39.36 1 .54 1.82.54.52 0 .96-.09 1.31-.26.35-.17.62-.4.8-.7.19-.3.29-.64.29-1.02 0-.37-.1-.7-.3-.98-.19-.29-.47-.54-.83-.77a6.73 6.73 0 00-1.26-.61l-.26-.1c-.47.2-.86.42-1.18.66-.32.23-.57.5-.74.8-.16.31-.24.66-.24 1.05zm2.38-7.55c-.59 0-1.07.14-1.46.43-.37.28-.56.68-.56 1.22 0 .39.09.72.27.99.19.27.45.5.77.69.32.18.67.36 1.06.53.37-.16.7-.34.99-.53.3-.19.53-.42.7-.69.18-.28.27-.61.27-.99 0-.53-.19-.94-.56-1.22-.36-.28-.86-.43-1.48-.43zm5.5 5.57c0-.66.04-1.31.13-1.95.1-.64.26-1.24.48-1.81.22-.58.53-1.08.93-1.52.4-.45.89-.79 1.49-1.04.61-.26 1.34-.38 2.21-.38.22 0 .47.01.74.03.28.02.5.06.67.11v1.2c-.19-.06-.41-.11-.66-.14-.24-.03-.48-.05-.72-.05-.74 0-1.35.12-1.84.37-.49.24-.88.58-1.17 1.01-.28.43-.48.92-.61 1.47a9.93 9.93 0 00-.24 1.78h.1a2.764 2.764 0 011.49-1.17c.35-.12.76-.18 1.22-.18.66 0 1.24.14 1.73.42.5.27.89.66 1.17 1.18.28.51.42 1.14.42 1.87 0 .79-.15 1.47-.45 2.05-.3.58-.72 1.02-1.26 1.33-.53.31-1.17.46-1.92.46-.54 0-1.05-.1-1.52-.3-.47-.2-.88-.51-1.25-.93-.35-.42-.63-.94-.83-1.57-.22-.64-.31-1.39-.31-2.24zm3.87 3.86c.67 0 1.22-.21 1.63-.64.42-.44.62-1.11.62-2.02 0-.73-.19-1.3-.56-1.73-.36-.43-.91-.64-1.65-.64-.5 0-.94.11-1.31.32-.37.2-.67.46-.88.78-.2.32-.3.65-.3.99 0 .35.05.7.14 1.04.11.34.26.66.46.94.21.29.47.52.77.69.31.18.67.27 1.08.27zm8.56-3.36c0 .85-.09 1.69-.26 2.51-.16.82-.42 1.6-.77 2.34-.34.75-.78 1.43-1.33 2.06h-1.31c.49-.67.9-1.39 1.23-2.14.33-.75.58-1.52.75-2.34a11.927 11.927 0 000-4.95c-.17-.82-.42-1.62-.75-2.38-.33-.77-.75-1.48-1.25-2.14h1.33c.54.64.99 1.34 1.33 2.1.35.76.61 1.55.77 2.38.18.83.26 1.68.26 2.56zm11.79-8.1c-.06.3-.13.64-.19.96-.1.58-.32 1.89-.53 2.88-.54 2.24-1.7 6.22-3.5 9.15l-1.3-.53c1.82-2.43 3.1-6.7 3.54-8.67.29-1.26.51-2.7.51-3.94l1.47.15zm5.52 1.71c.99 1.3 2.38 4.24 2.91 5.73l-1.23.59c-.48-1.65-1.73-4.48-2.85-5.79l1.17-.53zm-11.28 1.81c.51.02.93.02 1.44 0 1.18-.03 4.43-.4 5.52-.4 1.42 0 2.59.54 2.59 2.72 0 1.9-.26 4.45-.91 5.78-.51 1.07-1.31 1.33-2.34 1.33-.62 0-1.38-.11-1.89-.22l-.21-1.34c.67.21 1.5.34 1.95.34.59 0 1.07-.13 1.41-.83.51-1.07.75-3.17.75-4.9 0-1.46-.67-1.73-1.7-1.73-1.07 0-4.06.35-5.04.45-.37.05-1.04.13-1.44.19l-.13-1.39zm18.82 9.86a28.327 28.327 0 00-3.55-3.55l1.04-.91c1.15.93 2.59 2.37 3.6 3.54l-1.09.92zm-117.5 8.59c-.06.43-.1.9-.08 1.33.02 1.78.13 7.36.14 10.35.02.85-.5 1.3-1.46 1.3-.82 0-1.76-.05-2.56-.1l-.11-1.33c.77.13 1.66.19 2.27.19.45 0 .59-.21.59-.64 0-2.29-.06-8-.14-9.78-.03-.61-.06-.99-.13-1.33h1.48zm-8.59 2.8c.46.05.99.08 1.47.08H211c.42 0 1.04-.05 1.36-.1v1.36c-.38-.02-.93-.05-1.33-.05h-9.58c-.54 0-.99.03-1.5.06v-1.35zm-.57 7.47c3.38-1.66 6.34-4.46 7.52-6.42h.64l.02 1.07c-1.22 1.9-4.19 4.75-7.26 6.38l-.92-1.03zm25.88-7.36c0 .66.53 1.18 1.17 1.18.66 0 1.17-.53 1.17-1.18 0-.64-.51-1.17-1.17-1.17-.64 0-1.17.53-1.17 1.17zm-.76 0c0-1.07.86-1.94 1.94-1.94a1.944 1.944 0 110 3.89c-1.08 0-1.94-.88-1.94-1.95zm-9.65 5.39c.4-.35.7-.64 1.12-1.06.77-.77 2.16-2.54 3.17-3.74.85-1.01 1.6-1.18 2.69-.14.98.91 2.35 2.35 3.28 3.34 1.09 1.15 2.69 2.88 3.92 4.21l-1.1 1.17a167.51 167.51 0 00-3.58-4.19c-.93-1.04-2.4-2.62-3.07-3.3-.62-.59-.93-.54-1.47.13-.77.93-2.11 2.69-2.83 3.57-.34.42-.67.91-.93 1.23l-1.2-1.22zm18.7 3.71c.11-.26.14-.48.14-.78v-9.15c0-.43-.06-1.15-.13-1.46h1.57c-.05.38-.11.99-.11 1.44v9.09c3.07-.78 6.77-2.88 8.77-5.46l.72 1.12c-2.08 2.58-5.38 4.54-9.38 5.71-.16.05-.42.13-.67.27l-.91-.78zm14.07-6.43c.5.05 1.33.1 2.24.1h8.77c.8 0 1.36-.06 1.73-.1v1.57c-.34-.02-1.01-.06-1.71-.06h-8.78c-.88 0-1.73.03-2.24.06v-1.57zm21.02-.4c2.05 1.2 4.67 3.04 6.26 4.32l-.94 1.12c-1.47-1.34-4.21-3.31-6.19-4.54l.87-.9zm7.31-2.91c-.13.22-.29.59-.37.85-.48 1.63-1.49 3.76-2.9 5.49-1.46 1.79-3.54 3.5-6.58 4.62l-1.14-1.01c2.98-.9 5.15-2.59 6.59-4.3 1.23-1.47 2.24-3.5 2.61-4.99h-5.92l.51-1.15h5.09c.43 0 .78-.05 1.04-.14l1.07.63zm-5.39-2.32c-.27.42-.56.96-.72 1.26-.94 1.76-2.75 4.18-5.31 5.94l-1.06-.82c2.74-1.71 4.38-4.11 5.12-5.58.16-.27.42-.85.51-1.26l1.46.46zm9.06 5.63c.5.05 1.33.1 2.24.1h8.77c.8 0 1.36-.06 1.73-.1v1.57c-.34-.02-1.01-.06-1.71-.06h-8.78c-.88 0-1.73.03-2.24.06v-1.57zm23.39-3.98c-.21 1.66-.53 3.54-1.02 5.25-.98 3.28-2.26 4.98-3.73 4.98-1.44 0-2.86-1.63-2.86-4.29 0-3.47 3.09-6.5 7.01-6.5 3.74 0 6.13 2.64 6.13 5.89 0 3.34-2.21 5.58-6.02 6.08l-.74-1.18c.51-.05.99-.11 1.38-.19 2.05-.46 4.06-2 4.06-4.77 0-2.56-1.78-4.67-4.85-4.67-3.52 0-5.71 2.9-5.71 5.25 0 2.02.91 2.91 1.63 2.91.75 0 1.62-1.09 2.43-3.79.46-1.52.8-3.33.96-4.99l1.33.02zm13.68-2.48l.82.74c-1.31.38-3.25.64-4.86.75a3.5 3.5 0 00-.3-.77c1.52-.16 3.35-.43 4.34-.72zm6.88.01l.8.75c-1.39.38-3.46.62-5.18.72-.05-.22-.18-.54-.29-.77 1.63-.14 3.58-.39 4.67-.7zm-11.55.37l1.39.38c-.02.11-.1.18-.3.21v1.06c0 1.17-.29 2.85-1.6 4.08-.18-.26-.56-.62-.82-.77 1.15-1.06 1.33-2.34 1.33-3.36v-1.6zm6.56.05l1.38.34c-.02.11-.1.18-.3.21v.93c0 1.06-.34 2.5-1.87 3.54-.14-.26-.5-.64-.75-.8 1.31-.85 1.55-1.87 1.55-2.78v-1.44zm-6.07 1.84h5.41v.94h-5.41v-.94zm6.55 0h6.1v.94h-6.1v-.94zm-4.1.35h1.09v2.59h-1.09v-2.59zm6.72 0h1.09v2.64h-1.09v-2.64zm-7.66 5.63v1.12h8.1v-1.12h-8.1zm0 1.89v1.15h8.1v-1.15h-8.1zm0-3.79v1.12h8.1v-1.12h-8.1zm-1.17-.8h10.46v6.56h-10.46v-6.56zm6.48 7.38l.98-.61c1.76.54 3.7 1.25 4.85 1.79l-1.33.61c-1.01-.53-2.76-1.22-4.5-1.79zm-3.76-.64l1.09.5c-1.3.77-3.33 1.5-4.93 1.95-.19-.24-.61-.7-.88-.91 1.65-.36 3.57-.92 4.72-1.54zm15.89-4.56h5.47v4.69h-5.47v-1.01h4.35v-2.67h-4.35v-1.01zm-.53 0h1.12v5.65h-1.12v-5.65zm-2.9-4.77h4.45v.9h-4.45v-.9zm7.38 0h4.53v.9h-4.53v-.9zm4-2.32h1.2v12.43c0 .8-.19 1.18-.7 1.39-.54.19-1.47.21-2.88.21-.05-.34-.26-.9-.43-1.23 1.06.05 2.11.03 2.42.02.3 0 .4-.1.4-.4v-12.42zm-11.28 0h5.12v5.65h-5.12v-.98h3.98v-3.7h-3.98v-.97zm11.9 0v.96h-4.19v3.73h4.19v.96h-5.34v-5.65h5.34zm-12.57 0h1.18v14.05h-1.18v-14.05zm21.82 1.95c1.74.3 4.99.24 6.58 0v1.3c-1.71.19-4.82.19-6.56 0l-.02-1.3zm.62 6.53c-.14.58-.22 1.02-.22 1.46 0 .74.51 1.46 2.7 1.46 1.42 0 2.67-.13 3.95-.43l.03 1.34c-.99.21-2.34.34-4 .34-2.67 0-3.87-.9-3.87-2.4 0-.53.08-1.1.26-1.87l1.15.1zm-3.66-7.76c-.1.27-.22.78-.29 1.07-.3 1.49-.8 4.34-.8 6.14 0 .77.05 1.44.14 2.22.27-.72.64-1.68.91-2.34l.67.53c-.4 1.14-.99 2.82-1.14 3.58-.05.22-.08.53-.08.72.02.16.03.38.05.56l-1.14.08c-.32-1.14-.59-2.98-.59-5.15 0-2.35.53-5.09.72-6.42.05-.37.1-.77.11-1.12l1.44.13zm-141.68 21.26c-.05.29-.08.72-.1 1.1-.05.94-.13 3.39-.13 5.06s.08 4.16.08 5.17c0 1.47-.54 1.95-1.42 1.95-1.25 0-3.33-1.22-3.33-2.66 0-1.41 1.9-2.9 3.89-3.65 1.42-.56 3.02-.85 4.29-.85 2.35 0 4.03 1.26 4.03 3.18 0 1.94-1.22 3.17-3.42 3.68-.7.16-1.42.19-1.98.22l-.45-1.28c.61 0 1.28.02 1.89-.11 1.39-.27 2.67-1.02 2.67-2.51 0-1.36-1.23-2.08-2.74-2.08-1.44 0-2.75.3-4.11.85-1.57.61-2.8 1.68-2.8 2.5 0 .72 1.12 1.36 1.74 1.36.37 0 .58-.26.58-.78 0-.93-.08-3.15-.08-4.93 0-1.84.06-4.45.06-5.1 0-.3-.03-.86-.08-1.12h1.41zm4.98 1.78c1.14.59 2.88 1.68 3.65 2.32l-.64 1.02c-.78-.74-2.58-1.84-3.6-2.38l.59-.96zm-9.6 1.09c.88.11 1.46.13 2.03.13 1.58 0 4.13-.34 5.71-.82l.03 1.25c-1.65.4-4.27.75-5.71.75-.9 0-1.5-.03-2.03-.08l-.03-1.23zm18.8 3.71h6.62v1.04h-6.62v-1.04zm-.69 5.9h7.98v1.06h-7.98v-1.06zm3.92-8.38c-1.41 1.7-4.06 3.58-6.8 4.74-.14-.27-.43-.69-.67-.94 2.82-1.1 5.49-3.07 6.82-4.85h1.18c1.74 2.02 4.56 3.73 7.07 4.58-.29.29-.56.7-.74 1.02-2.45-.97-5.28-2.78-6.86-4.55zm-4.58 4.89h9.3v5.02h-1.18v-3.97h-6.98v4.02h-1.14v-5.07zm-.73-8.27h4.99v1.02h-4.99v-1.02zm6.04 0h6.45v1.02h-6.45v-1.02zm-5.71-1.63l1.15.3c-.64 1.73-1.63 3.46-2.67 4.56a7.66 7.66 0 00-1.01-.66c1.06-1.02 1.99-2.62 2.53-4.2zm6.24 0l1.17.29c-.58 1.58-1.57 3.07-2.62 4.03-.21-.19-.72-.56-1.01-.7 1.05-.87 1.97-2.21 2.46-3.62zm-5.74 2.4l1.01-.3c.48.74.99 1.71 1.2 2.35l-1.07.37c-.2-.64-.68-1.67-1.14-2.42zm6.72 0l1.06-.34c.59.69 1.25 1.66 1.5 2.32l-1.12.42c-.24-.66-.87-1.66-1.44-2.4zm10.78-1.33c1.73.38 4.78.75 6.32.83l-.18 1.18c-1.6-.14-4.4-.5-6.35-.85l.21-1.16zm6.64 4.58c-.3.21-.7.54-.9.7-.61.56-2.4 2.24-3.01 2.86.18-.02.46-.02.64.03.61.06.98.48 1.2 1.14.16.46.38 1.28.54 1.79.19.61.56.88 1.39.88 1.04 0 2.26-.14 3.02-.34l-.1 1.34c-.67.13-2.14.24-2.99.24-1.3 0-2.08-.3-2.43-1.36-.16-.48-.38-1.42-.54-1.87-.18-.56-.53-.86-.98-.86-.43 0-.82.22-1.18.59-.59.56-2.34 2.4-3.25 3.55l-1.22-.85c.21-.16.5-.42.8-.72.66-.64 5.01-5.01 6.58-6.58-1.26.06-3.95.3-4.93.38-.53.03-.94.1-1.28.14l-.11-1.39c.37.03.83.03 1.34.03.93-.03 4.64-.27 5.86-.43.27-.03.61-.11.77-.18l.78.91zm15.15-3.76c-.35.26-.85.69-1.1.91-1.1.96-3.41 2.77-4.59 3.76-.96.83-.98 1.07.06 1.94 1.46 1.2 4.29 3.47 5.98 5.18l-1.14 1.04c-.34-.38-.72-.77-1.1-1.17-1.14-1.15-3.55-3.23-5.06-4.46-1.5-1.26-1.33-1.95.11-3.17 1.22-1.01 3.65-2.93 4.72-4.02.32-.32.74-.78.91-1.07l1.21 1.06zm11.33-.56c-.1.35-.22.96-.29 1.26-.22 1.15-.56 2.98-1.01 4.56-.58 2.27-1.65 5.58-2.5 7.33l-1.41-.46c.98-1.65 2.1-4.91 2.69-7.17.4-1.47.82-3.47.93-4.32.06-.45.1-.99.06-1.33l1.53.13zm-3.54 2.67c1.76 0 4.11-.27 6.1-.78v1.26c-1.98.45-4.4.7-6.13.7-.7 0-1.26-.02-1.86-.06l-.03-1.23c.75.09 1.33.11 1.92.11zm5.06 2.21c.83-.08 1.89-.14 2.93-.14.93 0 1.9.03 2.77.13l-.03 1.22c-.83-.1-1.76-.18-2.7-.18-1.01 0-1.98.05-2.96.16v-1.19zm.32 3.89c-.13.51-.22 1.02-.22 1.44 0 .75.43 1.49 2.7 1.49 1.04 0 2.14-.13 3.14-.32l-.05 1.3c-.86.11-1.94.22-3.1.22-2.51 0-3.89-.78-3.89-2.37 0-.61.1-1.2.24-1.89l1.18.13zm3.63-8.28c.42.56.99 1.55 1.33 2.19l-.86.38c-.32-.64-.88-1.62-1.31-2.22l.84-.35zm1.78-.65c.43.59 1.04 1.58 1.34 2.19l-.86.38c-.34-.7-.88-1.6-1.33-2.21l.85-.36zm10.52 1.18c-.1-.35-.24-.83-.4-1.26l1.38-.16c.14.93.56 2.3.93 3.34.5 1.38 1.31 2.86 2 3.79.21.32.45.59.69.85l-.64.91c-.77-.19-2.72-.37-3.87-.45l.1-1.06c.9.08 2.08.18 2.66.24-.67-1.02-1.55-2.61-2.08-4.06-.37-.91-.59-1.64-.77-2.14zm-5.85 1.25c2.67.3 5.2.32 7.02.13 1.26-.14 2.85-.43 4.1-.86l.14 1.26c-1.14.32-2.66.58-3.82.72-2.03.24-4.58.26-7.41.02l-.03-1.27zm2.48 5.09c-.48.78-.77 1.47-.77 2.22 0 1.54 1.39 2.19 3.78 2.22 1.62 0 3.01-.16 4.11-.4l-.05 1.28c-1.01.18-2.35.35-4.14.34-3.04-.02-4.96-1.1-4.96-3.28 0-.9.32-1.73.78-2.67l1.25.29zm14.57-6.16c-.08.37-.13 1.14-.14 1.55-.02.99 0 2.46.11 3.78.27 2.67 1.04 4.45 2.19 4.45.82 0 1.57-1.65 1.98-3.25l1.01 1.14c-.98 2.7-1.94 3.63-3.02 3.63-1.52 0-2.96-1.5-3.41-5.65-.14-1.38-.18-3.33-.18-4.26 0-.37 0-1.06-.1-1.42l1.56.03zm8.32.43c1.44 1.86 2.59 5.26 2.83 7.97l-1.3.51c-.27-2.88-1.25-6.18-2.77-8.05l1.24-.43z"/><path class="st2" d="M297.12 186h-38.24a5.89 5.89 0 00-5.88 5.88v21.63c0 4.21 3.42 7.63 7.64 7.63h34.73c4.21 0 7.64-3.43 7.64-7.63v-21.63c-.01-3.24-2.65-5.88-5.89-5.88zm2.91 27.51c0 2.57-2.09 4.66-4.66 4.66h-34.73c-2.57 0-4.66-2.09-4.66-4.66v-21.63c0-1.6 1.31-2.91 2.91-2.91h38.24c1.6 0 2.91 1.31 2.91 2.91v21.63z"/><path class="st2" d="M267.74 206.05h3.19c.49 0 .88-.39.88-.88v-3.19c0-.49-.4-.88-.88-.88h-3.19c-.49 0-.88.39-.88.88v3.19c0 .49.4.88.88.88zm7.43 0h3.19c.49 0 .88-.39.88-.88v-3.19c0-.49-.39-.88-.88-.88h-3.19c-.49 0-.88.39-.88.88v3.19c0 .49.39.88.88.88zm7.43 0h3.19c.49 0 .88-.39.88-.88v-3.19c0-.49-.39-.88-.88-.88h-3.19c-.49 0-.88.39-.88.88v3.19c-.01.49.39.88.88.88zm13.08 2.47h-3.19c-.49 0-.88.4-.88.88v3.19c0 .49.39.88.88.88h3.19c.49 0 .88-.39.88-.88v-3.19c0-.48-.39-.88-.88-.88zm-27.94-9.9h3.19c.49 0 .88-.39.88-.88v-3.19c0-.49-.4-.88-.88-.88h-3.19c-.49 0-.88.4-.88.88v3.19c0 .49.4.88.88.88zm-4.24 2.48h-3.19c-.49 0-.88.39-.88.88v3.19c0 .49.39.88.88.88h3.19c.49 0 .88-.39.88-.88v-3.19a.869.869 0 00-.88-.88zm0-7.43h-3.19c-.49 0-.88.4-.88.88v3.19c0 .49.39.88.88.88h3.19c.49 0 .88-.39.88-.88v-3.19a.875.875 0 00-.88-.88zm0 14.85h-3.19c-.49 0-.88.4-.88.88v3.19c0 .49.39.88.88.88h3.19c.49 0 .88-.39.88-.88v-3.19a.875.875 0 00-.88-.88zm11.67-9.9h3.19c.49 0 .88-.39.88-.88v-3.19c0-.49-.39-.88-.88-.88h-3.19c-.49 0-.88.4-.88.88v3.19c0 .49.39.88.88.88zm7.43 0h3.19c.49 0 .88-.39.88-.88v-3.19c0-.49-.39-.88-.88-.88h-3.19c-.49 0-.88.4-.88.88v3.19c-.01.49.39.88.88.88zm5.66 9.9h-20.51c-.49 0-.88.4-.88.88v3.19c0 .49.4.88.88.88h20.51c.49 0 .88-.39.88-.88v-3.19c0-.48-.4-.88-.88-.88zm7.42-14.85h-5.66c-.49 0-.88.4-.88.88v10.61c0 .49.39.88.88.88h5.66c.49 0 .88-.4.88-.88v-10.61c0-.48-.39-.88-.88-.88z"/><path class="st22" d="M555 143h184v250H555z"/><path d="M610.46 272.94c1.15.14 2.64.21 4.24.21 1.54 0 3.15-.11 4.32-.22v1.31c-1.09.08-2.85.19-4.32.19-1.6 0-2.98-.08-4.24-.18v-1.31zm.65 6.45c-.21.64-.34 1.23-.34 1.82 0 1.23 1.23 2.06 3.81 2.06 2.21 0 4.26-.24 5.47-.62l.02 1.36c-1.15.32-3.18.56-5.46.56-3.26 0-5.14-1.07-5.14-3.07 0-.83.18-1.58.32-2.22l1.32.11zm8.35-8.22c.4.58.98 1.55 1.31 2.21l-.88.38c-.32-.66-.86-1.63-1.3-2.22l.87-.37zm1.76-.64c.42.59 1.04 1.58 1.34 2.18l-.86.4c-.35-.7-.88-1.62-1.33-2.21l.85-.37zm5.41 1.01h4.53v1.22h-4.53v-1.22zm3.92 0h1.23c0 2.86.35 8.94 6.67 12.69-.27.21-.75.72-.98 1.01-6.39-3.88-6.92-10.7-6.92-13.7zm-.45 3.13l1.36.26c-1.15 4.88-3.26 8.26-6.8 10.34-.22-.26-.77-.75-1.09-.98 3.56-1.86 5.56-5.09 6.53-9.62zm16.84-2.94c-1.33 1.9-3.9 4.11-6.61 5.55-.14-.29-.48-.7-.74-.96 2.77-1.39 5.42-3.76 6.66-5.78h1.23c1.7 2.32 4.46 4.46 6.98 5.58-.29.29-.58.7-.78 1.06-2.49-1.28-5.27-3.47-6.74-5.45zm-3.97 3.71H651v1.09h-8.03v-1.09zm-2.07 3.22h12.18v1.07H640.9v-1.07zm-.73 5.05h13.68v1.06h-13.68v-1.06zm6.13-7.85h1.26v8.42h-1.26v-8.42zm-4.07 4.68l.98-.4c.66.88 1.31 2.1 1.54 2.9l-1.04.45c-.21-.8-.84-2.05-1.48-2.95zm8.37-.43l1.14.46c-.61 1.01-1.36 2.16-1.95 2.91l-.91-.4c.57-.78 1.32-2.06 1.72-2.97zm13.38-3.02l1.09.34c-1.07 1.89-2.85 3.54-4.61 4.61-.16-.22-.56-.69-.82-.9 1.73-.93 3.41-2.4 4.34-4.05zm.09-6.53l1.06.54c-.8.98-1.79 2.06-2.59 2.78l-.85-.5c.78-.74 1.81-1.94 2.38-2.82zm3.09 1.23l1.09.59c-1.6 1.73-3.82 3.81-5.58 5.12l-.82-.53c1.74-1.34 4-3.53 5.31-5.18zm-6.8 1.36l.74-.77c1.22.78 2.72 1.92 3.42 2.74l-.77.86c-.69-.8-2.14-2.01-3.39-2.83zm6.61 1.91l.93-.51c1.02 1.04 2.16 2.51 2.67 3.47l-1.02.59c-.47-.96-1.57-2.47-2.58-3.55zm-7.14 1.58c2.29-.03 5.94-.1 9.41-.19l-.05.99c-3.36.11-6.88.22-9.26.29l-.1-1.09zm3.11 2.93c1.38 2.34 4.24 4.06 7.63 4.72-.26.26-.58.7-.74 1.02-3.46-.8-6.32-2.69-7.87-5.41l.98-.33zm.36-.69h4.77v.96h-5.6l.83-.96zm4.39 0h.22l.21-.05.77.37c-1.49 3.42-5.04 5.3-8.69 6.13-.11-.3-.38-.78-.61-1.02 3.42-.66 6.83-2.42 8.1-5.23v-.2zm-8.42-5.06l1.09.4c-1.1 1.92-2.78 3.86-4.35 5.14-.11-.26-.46-.82-.69-1.07 1.49-1.09 3.01-2.77 3.95-4.47zm-.37-3.24l1.07.42c-.93 1.34-2.43 2.85-3.79 3.81-.16-.24-.46-.66-.67-.88 1.25-.86 2.69-2.22 3.39-3.35zm-1.07 6.22l.98-.98.16.08v9.44h-1.14v-8.54zm-43.44 23.55h1.2v1.52h-1.2v-1.52zm-.01 1.31l.94.45c-1.62 1.42-4.54 2.62-7.04 3.15-.14-.27-.45-.67-.67-.9 2.46-.44 5.31-1.46 6.77-2.7zm1.34-.04c1.01 2.54 3.31 4.18 6.66 4.74-.24.22-.53.67-.69.98-3.5-.72-5.81-2.53-6.96-5.47l.99-.25zm4.74.81l.88.62c-1.02.72-2.37 1.41-3.42 1.87l-.75-.61c1.03-.47 2.45-1.27 3.29-1.88zm-10.64 3.73c1.62-.22 4.1-.61 6.51-.99l.05.98c-2.27.37-4.66.75-6.35 1.02l-.21-1.01zm-1.94-4.85h14.24v.98h-14.24v-.98zm8.86-8.13h1.09v5.41h-1.09v-5.41zm3.65-.46h1.12v6.69c0 .61-.14.9-.59 1.07-.46.16-1.2.18-2.34.18-.05-.3-.22-.72-.38-1.01.88.03 1.66.03 1.9.02s.29-.08.29-.27v-6.68zm-8.97-.16h1.06v8.13h-1.06v-8.13zm3 4.7h1.01v1.95c0 .45-.08.67-.42.82-.34.14-.82.14-1.52.14-.05-.26-.21-.54-.34-.77.53.02.94.02 1.07 0 .14-.02.19-.05.19-.18v-1.96zm-5.8 0h6.27v.82h-5.31v2.19h-.96v-3.01zm-.8-1.72h8.08v.88h-8.08v-.88zm1.66-1.83h5.86v.85h-6.21l.35-.85zm-.14-1.09l.94.22c-.34.96-.86 2-1.38 2.67-.19-.14-.62-.35-.86-.46.56-.65 1.01-1.56 1.3-2.43zm2.14 11.32l.61-.62.54.19v3.07h-1.15v-2.64zm18.35-9.36h7.65v1.06h-7.65v-1.06zm-1.95 3.1h10.29v1.04h-10.29v-1.04zm2.22-4.9l1.12.26c-.56 1.65-1.49 3.23-2.45 4.29-.24-.19-.74-.46-1.02-.61 1.01-.98 1.84-2.45 2.35-3.94zm2.34-.2h1.18v5.78h-1.18v-5.78zm-5.26 6.3v5.66h-1.17V300h-2.24v-1.12h3.41zm0 5.14c.75 1.18 2.18 1.73 4.02 1.81 1.74.06 5.34.02 7.23-.11-.13.29-.34.86-.38 1.23-1.76.06-5.07.1-6.85.03-2.08-.08-3.52-.64-4.54-1.9-.77.69-1.58 1.38-2.45 2.08l-.64-1.23c.77-.51 1.71-1.22 2.53-1.9h1.08zm-3.24-10.34l.88-.72c1.06.67 2.26 1.71 2.82 2.5l-.94.78c-.52-.77-1.72-1.86-2.76-2.56zm6.55 7.3v2.53h5.3v-2.53h-5.3zm-1.17-1.01h7.71v4.54h-7.71v-4.54zm13.7-.32h7.94v.99h-7.94v-.99zm-.31 2.73h8.58v1.02h-8.58v-1.02zm5.33-2.41h1.09v7.02h-1.09v-7.02zm-3.28.05h1.04v2.91c0 .98-.38 3.07-2.19 4.29-.16-.22-.53-.56-.8-.72 1.62-.99 1.95-2.69 1.95-3.57v-2.91zm-3.73-4.55h4.5v.86h-4.5v-.86zm7.38 0h4.53v.86h-4.53v-.86zm4.06-2.22h1.18v12.48c0 .72-.16 1.1-.64 1.31-.48.21-1.28.22-2.5.22-.05-.32-.21-.88-.38-1.22.88.03 1.74.03 2 .02.26 0 .34-.1.34-.34v-12.47zm-11.34 0h5.14v5.39h-5.14v-.91h4v-3.55h-4v-.93zm11.92 0v.93h-4.22v3.57h4.22v.91h-5.38v-5.41h5.38zm-12.64 0h1.18v14.05h-1.18v-14.05zm23.04 12.24h5.58v1.09h-5.58v-1.09zm-.63-4.69h6.83v6.43h-1.18v-5.33h-4.5v5.39h-1.15v-6.49zm-1.08-2.69c1.89-.1 4.86-.26 7.71-.45l-.02 1.07c-2.7.21-5.57.43-7.55.56l-.14-1.18zm5.29-2.57l.96-.5c1.07 1.33 2.18 3.12 2.61 4.3l-1.06.58c-.38-1.2-1.45-3.02-2.51-4.38zm-2.17-2.98l1.31.27c-.66 1.95-1.57 4.4-2.32 5.92l-1.02-.29c.71-1.55 1.58-4.11 2.03-5.9zm-9.17 3.31h5.28v1.14h-5.28v-1.14zm2.43-3.31l1.15.13c-.66 3.2-1.68 7.52-2.43 10.19l-.99-.54c.72-2.44 1.71-6.74 2.27-9.78zm-1.63 9.3l.67-.85c1.79 1.01 3.92 2.54 4.88 3.73l-.74.98c-.94-1.21-3.02-2.82-4.81-3.86zm4.01-5.99h.21l.21-.03.72.14c-.43 6.19-2.16 9.58-5.1 11.34-.18-.29-.5-.72-.75-.96 2.66-1.41 4.34-4.82 4.72-10.24v-.25zm23.51.59c-.35.21-.75.43-1.23.67-1.07.56-3.3 1.62-4.86 2.64-1.49.98-2.38 2.03-2.38 3.23 0 1.33 1.28 2.16 3.81 2.16 1.73 0 3.87-.22 5.12-.54l-.02 1.44c-1.2.21-3.06.38-5.06.38-3.01 0-5.18-.9-5.18-3.3 0-1.73 1.17-3.09 3.06-4.34 1.63-1.09 3.87-2.16 4.91-2.75.46-.27.82-.48 1.15-.75l.68 1.16zm-8.1-2.91c.74 2.05 1.73 4.05 2.46 5.34l-1.09.66c-.82-1.31-1.78-3.47-2.64-5.46l1.27-.54zm-67.37 24.37c.59.06 1.28.1 1.97.1 1.73 0 3.74-.21 5.58-.82l.03 1.18c-1.57.43-3.66.78-5.62.77-.59 0-1.28-.02-1.87-.03l-.09-1.2zm5.68-2.61c-.21.78-.54 2.29-.93 3.42-.77 2.3-2.24 5.22-3.57 7.01l-1.23-.64c1.42-1.66 2.91-4.51 3.57-6.4.35-1.01.7-2.42.75-3.54l1.41.15zm3.77 4.95c-.05.66-.05 1.14-.03 1.71.03 1.04.18 3.47.18 4.53 0 1.28-.82 2.32-2.8 2.32-1.76 0-3.18-.7-3.18-2.3 0-1.47 1.39-2.4 3.18-2.4 2.69 0 4.75 1.34 6.06 2.48l-.67 1.09c-1.23-1.12-3.07-2.54-5.42-2.54-1.18 0-1.98.54-1.98 1.28s.62 1.25 1.87 1.25c1.33 0 1.78-.7 1.78-1.57 0-1.22-.18-4.08-.24-5.84h1.25zm3.2.41c-.86-.74-2.61-1.71-3.66-2.21l.64-.96c1.17.5 2.98 1.54 3.74 2.11l-.72 1.06zm7.22-5.29c-.34 1.18-.64 3.34-.74 4.46.66-1.65 2.32-3.65 4.35-3.65 2.11 0 3.65 2.14 3.65 5.5 0 4.43-2.8 6.4-6.75 7.12l-.77-1.15c3.49-.53 6.19-1.94 6.19-5.95 0-2.53-.85-4.35-2.53-4.35-2 0-3.86 2.91-4.05 5.01-.08.61-.08 1.17.03 1.97l-1.25.1c-.08-.61-.16-1.5-.16-2.54 0-1.52.3-3.87.5-5.18.06-.48.1-.93.13-1.38l1.4.04zm19.74-.07c-.03.27-.06.59-.08 1.07-.03.64-.03 2.78-.03 4.13 0 2.11.24 4.91.24 5.98 0 1.12-.74 2.26-2.82 2.26-2.3 0-3.57-.82-3.57-2.37 0-1.46 1.39-2.43 3.7-2.43 3.38 0 6.02 1.82 7.25 2.83l-.74 1.14c-1.44-1.33-3.81-2.93-6.66-2.93-1.54 0-2.35.59-2.35 1.33 0 .75.62 1.3 2.21 1.3.93 0 1.71-.27 1.71-1.39 0-1.23-.16-4.3-.16-5.71v-4.24c0-.27-.02-.75-.06-.96h1.36zm-6.11 1.73c1.02.19 3.02.35 4.08.35 2.03 0 4.18-.14 6.26-.48v1.17c-1.81.21-4.1.42-6.24.42-1.1 0-3.07-.14-4.08-.27l-.02-1.19zm-.08 3.41c1.14.18 2.96.29 4.02.29 2.32 0 4.45-.16 6.53-.46v1.2c-2.18.27-4.13.38-6.53.38-1.1 0-2.86-.08-4-.21l-.02-1.2zm23.07-5.12c-.03.19-.08.82-.08 1.01-.05 1.04-.02 4.13 0 5.41l-1.22-.62c0-.7-.02-3.89-.06-4.77-.03-.43-.08-.88-.11-1.02h1.47zm-8.51 2.24c2.18-.03 6.18-.18 8.64-.18 1.95 0 3.94 0 4.69.02l-.02 1.18c-.9-.05-2.34-.08-4.69-.08-2.75 0-6.18.11-8.59.29l-.03-1.23zm8.4 4.64c0 2.14-.99 3.22-2.45 3.22-1.34 0-2.64-.94-2.64-2.69 0-1.58 1.31-2.77 2.83-2.77 1.86 0 2.8 1.38 2.8 3.22 0 2.18-1.06 4.58-4.77 5.68l-1.07-1.04c2.91-.69 4.61-2.11 4.61-4.75 0-1.44-.7-2.05-1.57-2.05-.85 0-1.63.66-1.63 1.7 0 1.01.75 1.58 1.63 1.58.99 0 1.63-.83 1.38-2.54l.88.44zm7.59 1.9c1.34 0 2.43 1.09 2.43 2.43s-1.09 2.43-2.43 2.43-2.45-1.09-2.45-2.43 1.11-2.43 2.45-2.43zm0 4.05c.9 0 1.62-.72 1.62-1.62s-.72-1.62-1.62-1.62-1.63.72-1.63 1.62.73 1.62 1.63 1.62z"/><path class="st1" d="M607 185h79.49v50H607z"/></svg>