<svg width="1920" height="352" fill="none" xmlns="http://www.w3.org/2000/svg"><path fill="#fff" d="M0 5h1920v347H0z"/><rect width="82.811" height="4.148" rx="2" transform="matrix(1 0 -.70583 .70838 875.755 0)" fill="#00A0E8"/><rect width="82.811" height="4.148" rx="2" transform="matrix(1 0 -.70583 .70838 357.358 0)" fill="#E5007F"/><rect width="82.811" height="4.148" rx="2" transform="matrix(1 0 -.70583 .70838 91.536 0)" fill="#E6CD92"/><rect width="82.811" height="4.957" rx="2" transform="matrix(1 0 -.59064 .80694 609.932 0)" fill="#E6CD92"/><rect width="82.811" height="4.957" rx="2" transform="matrix(1 0 -.59064 .80694 445.966 0)" fill="#E6CD92"/><rect width="82.811" height="4.148" rx="2" transform="matrix(1 0 -.70583 .70838 268.751 0)" fill="#E6CD92"/><rect width="82.811" height="4.957" rx="2" transform="matrix(1 0 -.59064 .80694 787.147 0)" fill="#E6CD92"/><rect width="82.811" height="4.148" rx="2" transform="matrix(1 0 -.70583 .70838 180.144 0)" fill="#000"/><rect width="82.811" height="4.957" rx="2" transform="matrix(1 0 -.59064 .80694 698.539 0)" fill="#000"/><rect width="82.811" height="4.957" rx="2" transform="matrix(1 0 -.59064 .80694 534.574 0)" fill="#000"/><rect width="82.811" height="4.148" rx="2" transform="matrix(1 0 -.70583 .70838 2.928 0)" fill="#000"/><rect width="82.811" height="4.148" rx="2" transform="matrix(1 0 -.70583 .70838 1837.19 0)" fill="#00A0E8"/><rect width="82.811" height="4.148" rx="2" transform="matrix(1 0 -.70583 .70838 1318.79 0)" fill="#E5007F"/><rect width="82.811" height="4.148" rx="2" transform="matrix(1 0 -.70583 .70838 1052.97 0)" fill="#E6CD92"/><rect width="82.811" height="4.957" rx="2" transform="matrix(1 0 -.59064 .80694 1571.37 0)" fill="#E6CD92"/><rect width="82.811" height="4.957" rx="2" transform="matrix(1 0 -.59064 .80694 1407.4 0)" fill="#E6CD92"/><rect width="82.811" height="4.148" rx="2" transform="matrix(1 0 -.70583 .70838 1230.19 0)" fill="#E6CD92"/><rect width="82.811" height="4.957" rx="2" transform="matrix(1 0 -.59064 .80694 1748.58 0)" fill="#E6CD92"/><rect width="82.811" height="4.148" rx="2" transform="matrix(1 0 -.70583 .70838 1141.58 0)" fill="#000"/><rect width="82.811" height="4.957" rx="2" transform="matrix(1 0 -.59064 .80694 1659.97 0)" fill="#000"/><rect width="82.811" height="4.957" rx="2" transform="matrix(1 0 -.59064 .80694 1496.01 0)" fill="#000"/><rect width="82.811" height="4.148" rx="2" transform="matrix(1 0 -.70583 .70838 964.362 0)" fill="#000"/></svg>