<svg width="750" height="594" fill="none" xmlns="http://www.w3.org/2000/svg"><path fill="#fff" d="M0 5h750v589H0z"/><rect width="64.793" height="3.726" rx="1.863" transform="matrix(1 0 -.61484 .78865 685.207 0)" fill="#00A0E8"/><rect width="64.793" height="3.726" rx="1.863" transform="matrix(1 0 -.61484 .78865 279.604 0)" fill="#E5007F"/><rect width="64.793" height="3.726" rx="1.863" transform="matrix(1 0 -.61484 .78865 71.62 0)" fill="#E6CD92"/><rect width="64.793" height="4.61" rx="2" transform="matrix(1 0 -.49697 .86777 477.222 0)" fill="#E6CD92"/><rect width="64.793" height="4.61" rx="2" transform="matrix(1 0 -.49697 .86777 348.933 0)" fill="#E6CD92"/><rect width="64.793" height="3.726" rx="1.863" transform="matrix(1 0 -.61484 .78865 210.276 0)" fill="#E6CD92"/><rect width="64.793" height="4.61" rx="2" transform="matrix(1 0 -.49697 .86777 615.879 0)" fill="#E6CD92"/><rect width="64.793" height="3.726" rx="1.863" transform="matrix(1 0 -.61484 .78865 140.948 0)" fill="#000"/><rect width="64.793" height="4.61" rx="2" transform="matrix(1 0 -.49697 .86777 546.551 0)" fill="#000"/><rect width="64.793" height="4.61" rx="2" transform="matrix(1 0 -.49697 .86777 418.261 0)" fill="#000"/><rect width="64.793" height="3.726" rx="1.863" transform="matrix(1 0 -.61484 .78865 2.291 0)" fill="#000"/></svg>