<svg width="137" height="39" fill="none" xmlns="http://www.w3.org/2000/svg"><path fill="#000" d="M52.369 2H99.58l-2.033 4.12H50.336zm33.567 31.638h47.212l-2.033 4.12H83.903zm26.863-7.909h23.942l-2.033 4.12h-23.942zM50.033 9.03h46.154l-2.033 4.12H48z"/><path fill="#000" d="M59.234 12.546h5.84l-10.27 16.857h-5.84zm12.99 3.515h15.183v4.394H72.224z"/><path fill="#000" d="M69.015 16.061h5.84l-8.177 13.421h-5.84zm16.351 0h5.84L77.675 38.27h-5.84zM105.32 2h5.84L94.22 29.801h-5.84zm10.706 0h5.84l-16.94 27.801h-5.84zm10.511 0h5.84l-16.94 27.801h-5.84z"/><circle cx="18" cy="18" r="18" fill="#000"/><circle cx="18" cy="18" r="16" fill="#000"/><mask id="a" style="mask-type:alpha" maskUnits="userSpaceOnUse" x="2" y="2" width="32" height="32"><circle cx="18" cy="18" r="16" fill="#000"/></mask><g mask="url(#a)"><path d="M18 1.059c20.235-7.059.527 11.696 5.705 15.608 5.754 4.346 37.119 8.392 18.463 0-18.655-8.392-12.908 3.005-14.937 9.646-1.896 6.207 5.706 15.608 5.706 15.608S16.588 26.471 18 32.275c1.412 5.805-14.937 9.646-14.937 9.646S-.353 25.06 8.77 26.313c9.12 1.255-6.3-18.195-6.3-18.195s.47 23.059 9.824 8.549C21.648 2.157-2.235 8.117 18 1.059z" fill="#00A0E8"/><path d="M11.412 5.959c-16 17.688 25.883-.47 25.883-.47v23.529h-23.53S27.412-11.73 11.412 5.959z" fill="#E4007E"/><path d="M6.56-7.412s2.997 33.13 13.322 27.294c10.824-6.117-27.586-2.588-27.586-2.588L6.56-7.412z" fill="#E6CE92"/></g></svg>