<svg width="328" height="452" fill="none" xmlns="http://www.w3.org/2000/svg"><path d="M326.617 399.853l-.278-.912c-3.005-9.818-14.099-43.211-30.832-60.601-9.849-10.23-27.342-18.453-44.265-26.407-3.75-1.76-8.612-3.489-13.322-5.162-5.289-1.88-10.745-3.823-13.917-5.551-.365-.341-3.164-3.267-6.336-15.353-1.301-4.972-2.522-11.268-2.982-14.147 1.618-2.307 6.154-6.986 8.723-9.635l.444-.452c3.712-3.83 7.407-7.842 10.952-12.101-12.086 3.854-22.387 5.488-24.448 5.654-7.082 7.439-10.032 11.332-10.016 15.519v.278c0 .214.008.428.024.642.238 2.768 1.966 11.729 3.568 17.85a110.754 110.754 0 001.991 6.757l-44.487 72.464-41.569-67.706c1.253-3.037 2.514-6.812 3.751-11.515 1.601-6.114 3.33-15.074 3.568-17.842.016-.222.024-.444.024-.666v-.254c-.016-4.758-3.759-9.096-12.878-18.5l-.437-.452c-14.71-15.17-25.55-29.476-30.657-49.959a7.097 7.097 0 00-1.165-2.49c-1-1.356-2.316-2.506-3.981-3.965-5.551-4.853-14.845-12.974-13.965-30.515.119-2.434.468-4.21.88-5.471 1.451.071 3.077.087 4.901.039 4.488 9.461 22.362 24.147 21.3 20.579-1.364-4.584-2.324-14.282-2.934-22.593 50.077-9.484 110.67-59.601 110.67-59.601 13.283 31.109 27.01 48.927 35.527 57.983-.603 9.604-1.515 19.944-2.784 24.211-.991 3.322 14.425-9.175 20.19-18.549l-8.002 42.021c-1.966 7.304-4.67 13.822-8.033 19.889-12.6 5.336-26.605 7.303-36.358 8.001-1.309-2.704-4.076-4.592-7.272-4.592h-20.713c-4.449 0-8.081 3.64-8.081 8.081v5.559c0 4.449 3.64 8.081 8.081 8.081h20.713c2.799 0 5.273-1.444 6.724-3.616 5.385-.326 15.971-1.769 19.365-2.403 3.402-.635 21.451-5.496 32.466-11.618 7.953-4.71 15.074-10.959 20.197-19.238l1.198.072a8.607 8.607 0 008.794-6.987l7.874-41.378a8.608 8.608 0 00-5.614-9.73l-5.963-1.967c9.325-33.329 16.407-60.283.055-88.53-20.221-34.931-53.979-29.832-53.979-29.832S204.733.087 160.325 0c-58.618-.11-96.69 41.355-110.916 77.008-14.179 35.526-6.392 75.557 1.269 99.37 1.15 6.432 3.418 11.713 6.05 16.019.072.166.151.325.222.484 1.42 3.1 2.927 6.129 4.473 9.071-10.991 7.304-39.53 30.087-47.508 73.868-5.702 31.292-2.126 69.855.428 89.569-6.812 13.965-11.348 27.794-13.108 33.544l-.278.92c-2.522 8.231.04 17.223 6.51 22.901l.722.635c11.625 10.198 34.646 16.502 51.91 19.991 27.5 5.559 62.432 8.62 98.379 8.62h10.658c35.93 0 70.862-3.061 98.363-8.62 17.263-3.489 40.284-9.793 51.909-19.991l.722-.627c6.447-5.678 9.008-14.67 6.487-22.909zM49.782 426.45c-15.194-3.973-26.637-8.803-32.243-13.727l-.722-.635a7.755 7.755 0 01-2.3-8.08l.278-.92c4.044-13.219 10.348-29.23 17.787-41.712a2669.526 2669.526 0 0117.588-17.977l-.388 83.051zM72.12 313.916c-1.38-8.573-3.347-24.06-3.347-42.553 0-21.815 9.365-34.931 11.863-38.182 0 0 14.9 20.031 23.068 28.46l.437.452c2.569 2.649 7.105 7.328 8.731 9.643-.452 2.879-1.674 9.183-2.982 14.147-.73 2.792-1.443 5.091-2.11 6.986a6.63 6.63 0 00-2.608 2.261l-5.322 7.842c-2.973 1.245-6.629 2.546-10.205 3.815-4.71 1.673-9.58 3.402-13.323 5.162a275.62 275.62 0 00-4.202 1.967zm45.311 32.457c-.483 0-.967.055-1.443.159l-34.678 7.652 29.127-42.949 29.69 48.357-19.088-12.172a6.796 6.796 0 00-3.608-1.047zm54.043 91.424c-.785 0-17.731 0-20.071-.031l-22.188-69.229 28.255 18.017a6.69 6.69 0 003.6 1.055h.745a6.69 6.69 0 003.6-1.055l28.255-18.017-22.196 69.26zm35.415-91.265a6.695 6.695 0 00-5.051.896L182.751 359.6l29.69-48.357 29.127 42.949-34.678-7.66zm103.851 65.564l-.722.635c-6.169 5.416-19.396 10.721-36.914 14.892l-.42-88.863c5.099 3.061 9.468 6.193 12.585 9.437 11.562 12.014 21.783 36.24 27.485 54.915l.278.912a7.728 7.728 0 01-2.292 8.072z" fill="#00A0E8"/></svg>