<svg width="548" height="648" fill="none" xmlns="http://www.w3.org/2000/svg"><mask id="a" style="mask-type:alpha" maskUnits="userSpaceOnUse" x="177" y="97" width="371" height="60"><path fill="#D9D9D9" d="M177 97h371v60H177z"/></mask><g mask="url(#a)"><path fill="#000" d="M47.15 126.911l314.804-50.912 314.804 50.912-314.804 50.912z"/></g><path d="M224.248 126.376h6.792v8.88c-.896.304-1.832.544-2.808.72-.96.176-2.056.264-3.288.264-1.696 0-3.144-.336-4.344-1.008-1.184-.672-2.088-1.664-2.712-2.976-.608-1.312-.912-2.928-.912-4.848 0-1.792.344-3.344 1.032-4.656a7.364 7.364 0 013.048-3.048c1.328-.72 2.952-1.08 4.872-1.08.912 0 1.808.096 2.688.288.88.192 1.68.448 2.4.768l-1.2 2.904a8.783 8.783 0 00-1.8-.672 8.303 8.303 0 00-2.112-.264c-1.056 0-1.976.24-2.76.72-.768.48-1.368 1.16-1.8 2.04-.416.864-.624 1.888-.624 3.072 0 1.12.152 2.112.456 2.976.304.864.784 1.544 1.44 2.04.656.48 1.512.72 2.568.72.352 0 .656-.008.912-.024.272-.032.52-.064.744-.096.224-.048.44-.088.648-.12V129.4h-3.24v-3.024zM235.111 136v-17.136h3.624V133h6.96v3h-10.584zm24.274-9.816c0 .976-.072 1.952-.216 2.928-.144.96-.4 1.872-.768 2.736a7.181 7.181 0 01-1.512 2.28c-.64.656-1.464 1.176-2.472 1.56-.992.368-2.2.552-3.624.552-.336 0-.728-.016-1.176-.048a6.767 6.767 0 01-1.128-.12v-2.904c.32.064.656.12 1.008.168.352.048.704.072 1.056.072 1.072 0 1.952-.128 2.64-.384.704-.256 1.256-.624 1.656-1.104.4-.48.688-1.048.864-1.704a8.982 8.982 0 00.336-2.16h-.144a4.901 4.901 0 01-.816 1.008c-.304.304-.696.544-1.176.72-.464.176-1.064.264-1.8.264-.976 0-1.824-.208-2.544-.624-.72-.432-1.28-1.048-1.68-1.848-.4-.816-.6-1.8-.6-2.952 0-1.248.232-2.312.696-3.192a4.826 4.826 0 012.04-2.04c.88-.48 1.912-.72 3.096-.72.88 0 1.696.152 2.448.456a5.232 5.232 0 011.992 1.392c.576.608 1.024 1.384 1.344 2.328.32.944.48 2.056.48 3.336zm-6.192-4.608c-.704 0-1.28.24-1.728.72-.448.48-.672 1.24-.672 2.28 0 .832.192 1.488.576 1.968.384.48.968.72 1.752.72.544 0 1.008-.12 1.392-.36.4-.24.712-.536.936-.888.224-.368.336-.744.336-1.128 0-.4-.056-.792-.168-1.176-.112-.4-.28-.76-.504-1.08a2.42 2.42 0 00-.792-.768c-.32-.192-.696-.288-1.128-.288zm13.927-2.928c.992 0 1.896.152 2.712.456.832.304 1.496.76 1.992 1.368.512.608.768 1.376.768 2.304 0 .688-.136 1.296-.408 1.824-.272.512-.64.96-1.104 1.344-.448.384-.968.72-1.56 1.008.608.32 1.184.696 1.728 1.128.56.416 1.008.912 1.344 1.488.352.56.528 1.224.528 1.992 0 .944-.256 1.768-.768 2.472-.496.704-1.2 1.248-2.112 1.632-.896.384-1.936.576-3.12.576-1.28 0-2.368-.184-3.264-.552-.896-.368-1.584-.896-2.064-1.584-.464-.688-.696-1.504-.696-2.448 0-.784.144-1.464.432-2.04a4.921 4.921 0 011.2-1.488 7.2 7.2 0 011.656-1.08 8.499 8.499 0 01-1.392-1.08 5.331 5.331 0 01-1.008-1.392c-.24-.528-.36-1.136-.36-1.824 0-.912.256-1.672.768-2.28.512-.608 1.184-1.064 2.016-1.368a7.976 7.976 0 012.712-.456zm-2.664 12.792c0 .624.216 1.136.648 1.536.448.4 1.104.6 1.968.6.608 0 1.104-.088 1.488-.264.4-.176.696-.424.888-.744a1.98 1.98 0 00.312-1.104c0-.432-.128-.808-.384-1.128a3.94 3.94 0 00-.96-.888c-.368-.272-.752-.52-1.152-.744l-.312-.168c-.496.224-.936.48-1.32.768a3.464 3.464 0 00-.864.96 2.188 2.188 0 00-.312 1.176zm2.64-10.152c-.592 0-1.088.152-1.488.456-.384.304-.576.736-.576 1.296 0 .384.096.728.288 1.032.192.288.448.544.768.768.32.208.664.408 1.032.6a7.552 7.552 0 001.008-.576c.32-.208.576-.456.768-.744.192-.304.288-.664.288-1.08 0-.56-.2-.992-.6-1.296-.384-.304-.88-.456-1.488-.456zm8.934-3.84h20.016v2.328H276.03v-2.328zm.888 17.688h18.36v2.352h-18.36v-2.352zm4.128-14.328h9.792v2.016h-9.792v-2.016zm0 3.072h9.792v2.016h-9.792v-2.016zm-6.288 3.072h22.44v2.352h-22.44v-2.352zm5.448 4.368h11.592v2.256h-11.592v-2.256zm-.864-15.696h2.904v12.624h-2.904v-12.624zm10.464.024h2.928v12.6h-2.928v-12.6zm-5.352 14.16h2.952v6.696h-2.952v-6.696zm-3.624-2.184l2.4.888c-1.536 2.544-4.128 4.8-6.864 6.024-.408-.672-1.224-1.68-1.824-2.208 2.496-.912 5.016-2.76 6.288-4.704zm10.416 0c1.272 1.848 3.744 3.576 6.216 4.464-.624.528-1.464 1.56-1.896 2.232-2.592-1.152-5.088-3.432-6.6-5.832l2.28-.864zm10.416-10.248h6.144v1.92h-6.144v-1.92zm2.28-1.776l2.52.312c-.48 1.008-.888 1.92-1.248 2.592l-2.136-.336c.312-.768.672-1.8.864-2.568zm-3.312 1.776h2.256v4.464c0 2.616-.408 6.216-2.616 8.52-.36-.432-1.296-1.224-1.8-1.488 1.944-2.04 2.16-4.872 2.16-7.08v-4.416zm11.616-.912h4.656v1.992h-4.656v-1.992zm-1.872 5.928h7.392v1.944h-7.392v-1.944zm.864-5.928h2.232v1.656c0 1.632-.48 3.48-2.544 4.728-.288-.48-1.152-1.44-1.584-1.752 1.656-.912 1.896-1.992 1.896-3.024v-1.608zm-4.608.912h2.328v9.84c0 1.08-.168 1.704-.84 2.064-.672.36-1.584.384-2.832.384-.072-.624-.336-1.56-.648-2.16.72.024 1.44.024 1.68.024s.312-.096.312-.336v-9.816zm-7.8 5.112c2.808-.072 7.056-.264 11.112-.432l-.048 2.064c-3.936.216-8.04.408-10.944.552l-.12-2.184zm4.464-2.448l1.656-.552a10.9 10.9 0 011.032 2.16l-1.728.648c-.168-.6-.576-1.56-.96-2.256zm.384 4.8h1.776v3.336h-1.776v-3.336zm11.976-8.376h2.28v2.952c0 .504.024.552.288.552h.528c.288 0 .384-.192.432-1.584.408.336 1.344.648 1.92.792-.192 2.16-.768 2.76-2.04 2.76h-1.272c-1.68 0-2.136-.6-2.136-2.496v-2.976zm1.464 5.928h.528l.432-.048 1.44.6c-1.392 4.056-4.704 5.952-8.88 6.864-.264-.6-.912-1.656-1.32-2.088 3.816-.6 6.744-2.04 7.8-5.016v-.312zm-3.96 1.776c1.368 1.992 4.272 3.168 8.064 3.528-.552.528-1.224 1.512-1.536 2.184-4.176-.648-7.104-2.304-8.784-5.112l2.256-.6zm-14.184 11.04h21.984v2.256h-21.984v-2.256zm2.688-5.112h16.584v6.216h-2.832v-4.032h-1.968v4.032h-2.616v-4.032h-1.944v4.032h-2.64v-4.032h-1.896v4.032h-2.688v-6.216zm58.106-2.664c0 1.376-.112 2.608-.336 3.696-.208 1.088-.552 2.016-1.032 2.784a4.678 4.678 0 01-1.848 1.728c-.752.4-1.68.6-2.784.6-1.376 0-2.504-.352-3.384-1.056-.88-.704-1.536-1.712-1.968-3.024-.416-1.312-.624-2.888-.624-4.728 0-1.856.192-3.44.576-4.752.384-1.312 1.016-2.32 1.896-3.024.88-.704 2.048-1.056 3.504-1.056 1.376 0 2.504.352 3.384 1.056.88.688 1.536 1.696 1.968 3.024.432 1.312.648 2.896.648 4.752zm-8.376 0c0 1.296.072 2.384.216 3.264.144.864.384 1.52.72 1.968.352.432.832.648 1.44.648s1.08-.216 1.416-.648c.352-.432.6-1.08.744-1.944.16-.88.24-1.976.24-3.288 0-1.312-.08-2.4-.24-3.264-.144-.88-.392-1.536-.744-1.968-.336-.448-.808-.672-1.416-.672-.608 0-1.088.224-1.44.672-.336.432-.576 1.088-.72 1.968-.144.864-.216 1.952-.216 3.264zm10.638 6.888c0-.736.2-1.248.6-1.536.4-.304.888-.456 1.464-.456.56 0 1.04.152 1.44.456.4.288.6.8.6 1.536 0 .704-.2 1.216-.6 1.536-.4.304-.88.456-1.44.456-.576 0-1.064-.152-1.464-.456-.4-.32-.6-.832-.6-1.536zm18.796-1.872h-2.064V136h-3.528v-3.552h-7.32v-2.52l7.512-11.064h3.336v10.776h2.064v2.808zm-5.592-5.712v-.96l.048-1.128c.016-.384.032-.72.048-1.008.016-.304.032-.512.048-.624h-.096c-.144.32-.296.632-.456.936a8.73 8.73 0 01-.576.936l-3.144 4.752h4.128v-2.904zm12.87-8.088c.992 0 1.896.152 2.712.456.832.304 1.496.76 1.992 1.368.512.608.768 1.376.768 2.304 0 .688-.136 1.296-.408 1.824-.272.512-.64.96-1.104 1.344-.448.384-.968.72-1.56 1.008.608.32 1.184.696 1.728 1.128.56.416 1.008.912 1.344 1.488.352.56.528 1.224.528 1.992 0 .944-.256 1.768-.768 2.472-.496.704-1.2 1.248-2.112 1.632-.896.384-1.936.576-3.12.576-1.28 0-2.368-.184-3.264-.552-.896-.368-1.584-.896-2.064-1.584-.464-.688-.696-1.504-.696-2.448 0-.784.144-1.464.432-2.04a4.921 4.921 0 011.2-1.488 7.2 7.2 0 011.656-1.08 8.499 8.499 0 01-1.392-1.08 5.331 5.331 0 01-1.008-1.392c-.24-.528-.36-1.136-.36-1.824 0-.912.256-1.672.768-2.28.512-.608 1.184-1.064 2.016-1.368a7.976 7.976 0 012.712-.456zm-2.664 12.792c0 .624.216 1.136.648 1.536.448.4 1.104.6 1.968.6.608 0 1.104-.088 1.488-.264.4-.176.696-.424.888-.744a1.98 1.98 0 00.312-1.104c0-.432-.128-.808-.384-1.128a3.94 3.94 0 00-.96-.888c-.368-.272-.752-.52-1.152-.744l-.312-.168c-.496.224-.936.48-1.32.768a3.464 3.464 0 00-.864.96 2.188 2.188 0 00-.312 1.176zm2.64-10.152c-.592 0-1.088.152-1.488.456-.384.304-.576.736-.576 1.296 0 .384.096.728.288 1.032.192.288.448.544.768.768.32.208.664.408 1.032.6a7.552 7.552 0 001.008-.576c.32-.208.576-.456.768-.744.192-.304.288-.664.288-1.08 0-.56-.2-.992-.6-1.296-.384-.304-.88-.456-1.488-.456zm8.767 20.472v-18.864h3.576v7.656c0 .928.168 1.632.504 2.112.352.48.896.72 1.632.72.672 0 1.2-.168 1.584-.504.4-.336.68-.824.84-1.464.176-.64.264-1.424.264-2.352v-6.168h3.576v8.952c0 .544.096.912.288 1.104.208.192.44.288.696.288.112 0 .24-.016.384-.048.144-.032.248-.056.312-.072v2.808c-.08.048-.216.096-.408.144-.192.048-.4.088-.624.12-.208.032-.4.048-.576.048-.8 0-1.464-.144-1.992-.432-.512-.304-.904-.824-1.176-1.56h-.168c-.208.432-.464.8-.768 1.104-.304.288-.64.504-1.008.648a2.75 2.75 0 01-1.152.24c-.32 0-.624-.04-.912-.12-.272-.08-.52-.2-.744-.36a2.918 2.918 0 01-.6-.576h-.072c.032.16.056.416.072.768.016.336.024.688.024 1.056.016.384.024.72.024 1.008v3.744h-3.576zm31.673-19.104c1.488 0 2.608.384 3.36 1.152.768.752 1.152 1.968 1.152 3.648V136h-3.576v-7.656c0-.944-.16-1.648-.48-2.112-.32-.48-.816-.72-1.488-.72-.944 0-1.616.336-2.016 1.008-.4.672-.6 1.64-.6 2.904V136h-3.576v-7.656c0-.624-.072-1.144-.216-1.56-.144-.416-.36-.728-.648-.936-.288-.224-.656-.336-1.104-.336-.656 0-1.176.168-1.56.504-.384.336-.656.824-.816 1.464-.16.64-.24 1.424-.24 2.352V136h-3.576v-13.104h2.736l.48 1.68h.192a3.443 3.443 0 011.008-1.08c.4-.288.84-.496 1.32-.624a5.314 5.314 0 011.488-.216c.96 0 1.776.16 2.448.48a3.196 3.196 0 011.536 1.44h.312c.4-.672.952-1.16 1.656-1.464a5.627 5.627 0 012.208-.456z" fill="#E6CD92"/><mask id="b" style="mask-type:alpha" maskUnits="userSpaceOnUse" x="177" y="225" width="371" height="60"><path fill="#D9D9D9" d="M177 225h371v60H177z"/></mask><g mask="url(#b)"><path fill="#000" d="M47.15 254.911l314.804-50.912 314.804 50.912-314.804 50.912z"/></g><path d="M224.248 254.376h6.792v8.88c-.896.304-1.832.544-2.808.72-.96.176-2.056.264-3.288.264-1.696 0-3.144-.336-4.344-1.008-1.184-.672-2.088-1.664-2.712-2.976-.608-1.312-.912-2.928-.912-4.848 0-1.792.344-3.344 1.032-4.656a7.364 7.364 0 013.048-3.048c1.328-.72 2.952-1.08 4.872-1.08.912 0 1.808.096 2.688.288.88.192 1.68.448 2.4.768l-1.2 2.904a8.783 8.783 0 00-1.8-.672 8.303 8.303 0 00-2.112-.264c-1.056 0-1.976.24-2.76.72-.768.48-1.368 1.16-1.8 2.04-.416.864-.624 1.888-.624 3.072 0 1.12.152 2.112.456 2.976.304.864.784 1.544 1.44 2.04.656.48 1.512.72 2.568.72.352 0 .656-.008.912-.024.272-.032.52-.064.744-.096.224-.048.44-.088.648-.12V257.4h-3.24v-3.024zM235.111 264v-17.136h3.624V261h6.96v3h-10.584zm24.274-9.816c0 .976-.072 1.952-.216 2.928-.144.96-.4 1.872-.768 2.736a7.181 7.181 0 01-1.512 2.28c-.64.656-1.464 1.176-2.472 1.56-.992.368-2.2.552-3.624.552-.336 0-.728-.016-1.176-.048a6.767 6.767 0 01-1.128-.12v-2.904c.32.064.656.12 1.008.168.352.048.704.072 1.056.072 1.072 0 1.952-.128 2.64-.384.704-.256 1.256-.624 1.656-1.104.4-.48.688-1.048.864-1.704a8.982 8.982 0 00.336-2.16h-.144a4.901 4.901 0 01-.816 1.008c-.304.304-.696.544-1.176.72-.464.176-1.064.264-1.8.264-.976 0-1.824-.208-2.544-.624-.72-.432-1.28-1.048-1.68-1.848-.4-.816-.6-1.8-.6-2.952 0-1.248.232-2.312.696-3.192a4.826 4.826 0 012.04-2.04c.88-.48 1.912-.72 3.096-.72.88 0 1.696.152 2.448.456a5.232 5.232 0 011.992 1.392c.576.608 1.024 1.384 1.344 2.328.32.944.48 2.056.48 3.336zm-6.192-4.608c-.704 0-1.28.24-1.728.72-.448.48-.672 1.24-.672 2.28 0 .832.192 1.488.576 1.968.384.48.968.72 1.752.72.544 0 1.008-.12 1.392-.36.4-.24.712-.536.936-.888.224-.368.336-.744.336-1.128 0-.4-.056-.792-.168-1.176-.112-.4-.28-.76-.504-1.08a2.42 2.42 0 00-.792-.768c-.32-.192-.696-.288-1.128-.288zm19.903 5.856c0 1.376-.112 2.608-.336 3.696-.208 1.088-.552 2.016-1.032 2.784a4.678 4.678 0 01-1.848 1.728c-.752.4-1.68.6-2.784.6-1.376 0-2.504-.352-3.384-1.056-.88-.704-1.536-1.712-1.968-3.024-.416-1.312-.624-2.888-.624-4.728 0-1.856.192-3.44.576-4.752.384-1.312 1.016-2.32 1.896-3.024.88-.704 2.048-1.056 3.504-1.056 1.376 0 2.504.352 3.384 1.056.88.688 1.536 1.696 1.968 3.024.432 1.312.648 2.896.648 4.752zm-8.376 0c0 1.296.072 2.384.216 3.264.144.864.384 1.52.72 1.968.352.432.832.648 1.44.648s1.08-.216 1.416-.648c.352-.432.6-1.08.744-1.944.16-.88.24-1.976.24-3.288 0-1.312-.08-2.4-.24-3.264-.144-.88-.392-1.536-.744-1.968-.336-.448-.808-.672-1.416-.672-.608 0-1.088.224-1.44.672-.336.432-.576 1.088-.72 1.968-.144.864-.216 1.952-.216 3.264zm11.31-9.984h20.016v2.328H276.03v-2.328zm.888 17.688h18.36v2.352h-18.36v-2.352zm4.128-14.328h9.792v2.016h-9.792v-2.016zm0 3.072h9.792v2.016h-9.792v-2.016zm-6.288 3.072h22.44v2.352h-22.44v-2.352zm5.448 4.368h11.592v2.256h-11.592v-2.256zm-.864-15.696h2.904v12.624h-2.904v-12.624zm10.464.024h2.928v12.6h-2.928v-12.6zm-5.352 14.16h2.952v6.696h-2.952v-6.696zm-3.624-2.184l2.4.888c-1.536 2.544-4.128 4.8-6.864 6.024-.408-.672-1.224-1.68-1.824-2.208 2.496-.912 5.016-2.76 6.288-4.704zm10.416 0c1.272 1.848 3.744 3.576 6.216 4.464-.624.528-1.464 1.56-1.896 2.232-2.592-1.152-5.088-3.432-6.6-5.832l2.28-.864zm10.416-10.248h6.144v1.92h-6.144v-1.92zm2.28-1.776l2.52.312c-.48 1.008-.888 1.92-1.248 2.592l-2.136-.336c.312-.768.672-1.8.864-2.568zm-3.312 1.776h2.256v4.464c0 2.616-.408 6.216-2.616 8.52-.36-.432-1.296-1.224-1.8-1.488 1.944-2.04 2.16-4.872 2.16-7.08v-4.416zm11.616-.912h4.656v1.992h-4.656v-1.992zm-1.872 5.928h7.392v1.944h-7.392v-1.944zm.864-5.928h2.232v1.656c0 1.632-.48 3.48-2.544 4.728-.288-.48-1.152-1.44-1.584-1.752 1.656-.912 1.896-1.992 1.896-3.024v-1.608zm-4.608.912h2.328v9.84c0 1.08-.168 1.704-.84 2.064-.672.36-1.584.384-2.832.384-.072-.624-.336-1.56-.648-2.16.72.024 1.44.024 1.68.024s.312-.096.312-.336v-9.816zm-7.8 5.112c2.808-.072 7.056-.264 11.112-.432l-.048 2.064c-3.936.216-8.04.408-10.944.552l-.12-2.184zm4.464-2.448l1.656-.552a10.9 10.9 0 011.032 2.16l-1.728.648c-.168-.6-.576-1.56-.96-2.256zm.384 4.8h1.776v3.336h-1.776v-3.336zm11.976-8.376h2.28v2.952c0 .504.024.552.288.552h.528c.288 0 .384-.192.432-1.584.408.336 1.344.648 1.92.792-.192 2.16-.768 2.76-2.04 2.76h-1.272c-1.68 0-2.136-.6-2.136-2.496v-2.976zm1.464 5.928h.528l.432-.048 1.44.6c-1.392 4.056-4.704 5.952-8.88 6.864-.264-.6-.912-1.656-1.32-2.088 3.816-.6 6.744-2.04 7.8-5.016v-.312zm-3.96 1.776c1.368 1.992 4.272 3.168 8.064 3.528-.552.528-1.224 1.512-1.536 2.184-4.176-.648-7.104-2.304-8.784-5.112l2.256-.6zm-14.184 11.04h21.984v2.256h-21.984v-2.256zm2.688-5.112h16.584v6.216h-2.832v-4.032h-1.968v4.032h-2.616v-4.032h-1.944v4.032h-2.64v-4.032h-1.896v4.032h-2.688v-6.216zM356.84 264h-3.624v-10.92l.048-1.248c.016-.432.032-.816.048-1.152-.08.096-.256.272-.528.528-.256.24-.496.456-.72.648l-1.968 1.584-1.752-2.184 5.52-4.392h2.976V264zm5.19-1.68c0-.736.2-1.248.6-1.536.4-.304.888-.456 1.464-.456.56 0 1.04.152 1.44.456.4.288.6.8.6 1.536 0 .704-.2 1.216-.6 1.536-.4.304-.88.456-1.44.456-.576 0-1.064-.152-1.464-.456-.4-.32-.6-.832-.6-1.536zm18.796-1.872h-2.064V264h-3.528v-3.552h-7.32v-2.52l7.512-11.064h3.336v10.776h2.064v2.808zm-5.592-5.712v-.96l.048-1.128c.016-.384.032-.72.048-1.008.016-.304.032-.512.048-.624h-.096c-.144.32-.296.632-.456.936a8.73 8.73 0 01-.576.936l-3.144 4.752h4.128v-2.904zm8.67 9.264l6.432-14.088h-8.448v-3.048h12.288v2.28L387.696 264h-3.792zm12.943 5.76v-18.864h3.576v7.656c0 .928.168 1.632.504 2.112.352.48.896.72 1.632.72.672 0 1.2-.168 1.584-.504.4-.336.68-.824.84-1.464.176-.64.264-1.424.264-2.352v-6.168h3.576v8.952c0 .544.096.912.288 1.104.208.192.44.288.696.288.112 0 .24-.016.384-.048.144-.032.248-.056.312-.072v2.808c-.08.048-.216.096-.408.144-.192.048-.4.088-.624.12-.208.032-.4.048-.576.048-.8 0-1.464-.144-1.992-.432-.512-.304-.904-.824-1.176-1.56h-.168c-.208.432-.464.8-.768 1.104-.304.288-.64.504-1.008.648a2.75 2.75 0 01-1.152.24c-.32 0-.624-.04-.912-.12-.272-.08-.52-.2-.744-.36a2.918 2.918 0 01-.6-.576h-.072c.032.16.056.416.072.768.016.336.024.688.024 1.056.016.384.024.72.024 1.008v3.744h-3.576zm31.673-19.104c1.488 0 2.608.384 3.36 1.152.768.752 1.152 1.968 1.152 3.648V264h-3.576v-7.656c0-.944-.16-1.648-.48-2.112-.32-.48-.816-.72-1.488-.72-.944 0-1.616.336-2.016 1.008-.4.672-.6 1.64-.6 2.904V264h-3.576v-7.656c0-.624-.072-1.144-.216-1.56-.144-.416-.36-.728-.648-.936-.288-.224-.656-.336-1.104-.336-.656 0-1.176.168-1.56.504-.384.336-.656.824-.816 1.464-.16.64-.24 1.424-.24 2.352V264h-3.576v-13.104h2.736l.48 1.68h.192a3.443 3.443 0 011.008-1.08c.4-.288.84-.496 1.32-.624a5.314 5.314 0 011.488-.216c.96 0 1.776.16 2.448.48a3.196 3.196 0 011.536 1.44h.312c.4-.672.952-1.16 1.656-1.464a5.627 5.627 0 012.208-.456z" fill="#E6CD92"/><mask id="c" style="mask-type:alpha" maskUnits="userSpaceOnUse" x="177" y="295" width="371" height="60"><path fill="#D9D9D9" d="M177 295h371v60H177z"/></mask><g mask="url(#c)"><path fill="#000" d="M47.15 324.911l314.804-50.912 314.804 50.912-314.804 50.912z"/></g><path d="M227.848 329.248c0 1.008-.248 1.888-.744 2.64-.496.752-1.216 1.336-2.16 1.752-.928.4-2.064.6-3.408.6a12.72 12.72 0 01-3.384-.456c-.512-.16-1-.352-1.464-.576v-3.384c.816.352 1.656.68 2.52.984.88.288 1.752.432 2.616.432.592 0 1.064-.08 1.416-.24.368-.16.632-.376.792-.648.176-.272.264-.584.264-.936 0-.432-.152-.8-.456-1.104-.288-.304-.68-.584-1.176-.84a33.163 33.163 0 00-1.704-.864c-.4-.192-.832-.416-1.296-.672a8.482 8.482 0 01-1.344-.984c-.416-.4-.76-.88-1.032-1.44-.272-.56-.408-1.232-.408-2.016 0-1.024.232-1.896.696-2.616.48-.736 1.152-1.296 2.016-1.68.88-.384 1.912-.576 3.096-.576.896 0 1.744.104 2.544.312.816.208 1.664.504 2.544.888l-1.176 2.832a20.146 20.146 0 00-2.112-.744 7.04 7.04 0 00-1.92-.264c-.448 0-.832.072-1.152.216-.32.144-.568.344-.744.6-.16.256-.24.56-.24.912 0 .4.12.744.36 1.032.24.272.6.536 1.08.792.48.256 1.08.56 1.8.912.88.416 1.624.848 2.232 1.296.624.448 1.104.976 1.44 1.584.336.608.504 1.36.504 2.256zm3.115 4.752v-17.136h3.624V331h6.96v3h-10.584zm27.418 0h-4.152l-3.984-6.48-3.984 6.48h-3.888l5.688-8.832-5.328-8.304h4.008l3.696 6.168 3.624-6.168h3.912l-5.376 8.496 5.784 8.64zm2.664 0l6.432-14.088h-8.448v-3.048h12.288v2.28L264.837 334h-3.792zm17.934-17.352c.992 0 1.896.152 2.712.456.832.304 1.496.76 1.992 1.368.512.608.768 1.376.768 2.304 0 .688-.136 1.296-.408 1.824-.272.512-.64.96-1.104 1.344-.448.384-.968.72-1.56 1.008.608.32 1.184.696 1.728 1.128.56.416 1.008.912 1.344 1.488.352.56.528 1.224.528 1.992 0 .944-.256 1.768-.768 2.472-.496.704-1.2 1.248-2.112 1.632-.896.384-1.936.576-3.12.576-1.28 0-2.368-.184-3.264-.552-.896-.368-1.584-.896-2.064-1.584-.464-.688-.696-1.504-.696-2.448 0-.784.144-1.464.432-2.04a4.921 4.921 0 011.2-1.488 7.2 7.2 0 011.656-1.08 8.499 8.499 0 01-1.392-1.08 5.331 5.331 0 01-1.008-1.392c-.24-.528-.36-1.136-.36-1.824 0-.912.256-1.672.768-2.28.512-.608 1.184-1.064 2.016-1.368a7.976 7.976 0 012.712-.456zm-2.664 12.792c0 .624.216 1.136.648 1.536.448.4 1.104.6 1.968.6.608 0 1.104-.088 1.488-.264.4-.176.696-.424.888-.744a1.98 1.98 0 00.312-1.104c0-.432-.128-.808-.384-1.128a3.94 3.94 0 00-.96-.888c-.368-.272-.752-.52-1.152-.744l-.312-.168c-.496.224-.936.48-1.32.768a3.464 3.464 0 00-.864.96 2.188 2.188 0 00-.312 1.176zm2.64-10.152c-.592 0-1.088.152-1.488.456-.384.304-.576.736-.576 1.296 0 .384.096.728.288 1.032.192.288.448.544.768.768.32.208.664.408 1.032.6a7.552 7.552 0 001.008-.576c.32-.208.576-.456.768-.744.192-.304.288-.664.288-1.08 0-.56-.2-.992-.6-1.296-.384-.304-.88-.456-1.488-.456zM294.61 334h-3.624v-14.112h-4.656v-3.024h12.936v3.024h-4.656V334zm14.367 0h-3.624v-14.112h-4.656v-3.024h12.936v3.024h-4.656V334zm18.573-10.944c1.04 0 1.968.2 2.784.6.816.4 1.456.984 1.92 1.752.48.768.72 1.72.72 2.856 0 1.232-.256 2.296-.768 3.192-.512.896-1.28 1.584-2.304 2.064-1.008.48-2.264.72-3.768.72-.896 0-1.744-.08-2.544-.24-.784-.16-1.472-.392-2.064-.696v-3.12c.592.304 1.304.568 2.136.792a9.716 9.716 0 002.352.312c.72 0 1.32-.096 1.8-.288.496-.192.872-.488 1.128-.888.256-.4.384-.912.384-1.536 0-.848-.28-1.488-.84-1.92-.56-.448-1.424-.672-2.592-.672-.448 0-.912.048-1.392.144-.48.08-.88.16-1.2.24l-1.44-.768.648-8.736h9.288v3.072h-6.12l-.312 3.36c.272-.048.56-.096.864-.144.32-.064.76-.096 1.32-.096zm7.902 9.264c0-.736.2-1.248.6-1.536.4-.304.888-.456 1.464-.456.56 0 1.04.152 1.44.456.4.288.6.8.6 1.536 0 .704-.2 1.216-.6 1.536-.4.304-.88.456-1.44.456-.576 0-1.064-.152-1.464-.456-.4-.32-.6-.832-.6-1.536zm12.676-9.264c1.04 0 1.968.2 2.784.6.816.4 1.456.984 1.92 1.752.48.768.72 1.72.72 2.856 0 1.232-.256 2.296-.768 3.192-.512.896-1.28 1.584-2.304 2.064-1.008.48-2.264.72-3.768.72-.896 0-1.744-.08-2.544-.24-.784-.16-1.472-.392-2.064-.696v-3.12c.592.304 1.304.568 2.136.792a9.716 9.716 0 002.352.312c.72 0 1.32-.096 1.8-.288.496-.192.872-.488 1.128-.888.256-.4.384-.912.384-1.536 0-.848-.28-1.488-.84-1.92-.56-.448-1.424-.672-2.592-.672-.448 0-.912.048-1.392.144-.48.08-.88.16-1.2.24l-1.44-.768.648-8.736h9.288v3.072h-6.12l-.312 3.36c.272-.048.56-.096.864-.144.32-.064.76-.096 1.32-.096zM364.574 334h-3.624v-10.92l.048-1.248c.016-.432.032-.816.048-1.152-.08.096-.256.272-.528.528-.256.24-.496.456-.72.648l-1.968 1.584-1.752-2.184 5.52-4.392h2.976V334zm5.694 5.76v-18.864h3.576v7.656c0 .928.168 1.632.504 2.112.352.48.896.72 1.632.72.672 0 1.2-.168 1.584-.504.4-.336.68-.824.84-1.464.176-.64.264-1.424.264-2.352v-6.168h3.576v8.952c0 .544.096.912.288 1.104.208.192.44.288.696.288.112 0 .24-.016.384-.048.144-.032.248-.056.312-.072v2.808c-.08.048-.216.096-.408.144-.192.048-.4.088-.624.12-.208.032-.4.048-.576.048-.8 0-1.464-.144-1.992-.432-.512-.304-.904-.824-1.176-1.56h-.168c-.208.432-.464.8-.768 1.104-.304.288-.64.504-1.008.648a2.75 2.75 0 01-1.152.24c-.32 0-.624-.04-.912-.12-.272-.08-.52-.2-.744-.36a2.918 2.918 0 01-.6-.576h-.072c.032.16.056.416.072.768.016.336.024.688.024 1.056.016.384.024.72.024 1.008v3.744h-3.576zm31.674-19.104c1.488 0 2.608.384 3.36 1.152.768.752 1.152 1.968 1.152 3.648V334h-3.576v-7.656c0-.944-.16-1.648-.48-2.112-.32-.48-.816-.72-1.488-.72-.944 0-1.616.336-2.016 1.008-.4.672-.6 1.64-.6 2.904V334h-3.576v-7.656c0-.624-.072-1.144-.216-1.56-.144-.416-.36-.728-.648-.936-.288-.224-.656-.336-1.104-.336-.656 0-1.176.168-1.56.504-.384.336-.656.824-.816 1.464-.16.64-.24 1.424-.24 2.352V334h-3.576v-13.104h2.736l.48 1.68h.192a3.443 3.443 0 011.008-1.08c.4-.288.84-.496 1.32-.624a5.314 5.314 0 011.488-.216c.96 0 1.776.16 2.448.48a3.196 3.196 0 011.536 1.44h.312c.4-.672.952-1.16 1.656-1.464a5.627 5.627 0 012.208-.456z" fill="#E6CD92"/><mask id="d" style="mask-type:alpha" maskUnits="userSpaceOnUse" x="177" y="443" width="371" height="60"><path fill="#D9D9D9" d="M177 443h371v60H177z"/></mask><g mask="url(#d)"><path fill="#000" d="M47.15 472.911l314.804-50.912 314.804 50.912-314.804 50.912z"/></g><path d="M228.16 466.736h8.136v2.424h-8.136v-2.424zm-2.952 14.376c2.016-.36 4.968-.984 7.776-1.632l.312 2.688a362.4 362.4 0 01-7.296 1.728l-.792-2.784zm3.024-18.6h9.576v10.896h-9.576v-2.52h6.816v-5.832h-6.816v-2.544zm5.208 10.056c.792 4.2 2.448 7.728 5.76 9.264-.624.528-1.44 1.632-1.848 2.4-3.744-2.016-5.448-6.048-6.384-11.304l2.472-.36zm3.384 1.464l1.944 1.968c-1.248.984-2.784 2.04-3.912 2.688l-1.584-1.704c1.08-.72 2.64-1.992 3.552-2.952zm-9.792-11.52h2.712v19.008l-2.712.48v-19.488zm-9.024 5.064h7.464v2.4h-7.464v-2.4zm-1.032 4.176H226v2.448h-9.024v-2.448zm.192 3.816l1.872-.48c.432 1.32.816 3.024.936 4.128l-1.992.552c-.072-1.152-.432-2.856-.816-4.2zm-.576 5.496a400.14 400.14 0 009.552-1.464l.168 2.424c-3.168.6-6.576 1.2-9.144 1.632l-.576-2.592zm7.344-6.192l2.184.528c-.48 1.44-.96 3.024-1.344 4.032l-1.728-.504c.336-1.104.744-2.856.888-4.056zm-3.624-6.264h2.496v12.888l-2.496.432v-13.32zm0-6.984h1.56v.528h.816v.792c-.984 1.824-2.544 4.32-5.064 6.456-.384-.6-1.2-1.536-1.752-1.92 2.16-1.728 3.624-3.984 4.44-5.856zm.36 0h2.016c1.488 1.224 3.36 3.024 4.248 4.296l-1.872 2.232c-.768-1.272-2.496-3.36-3.888-4.488h-.504v-2.04zm36 2.4h3.024v16.512c0 1.728-.408 2.592-1.56 3.048-1.2.504-2.952.552-5.424.552-.168-.864-.744-2.28-1.2-3.072 1.728.12 3.816.096 4.392.096.576-.024.768-.192.768-.696v-16.44zm-13.728 4.8h2.808v11.184h-2.808v-11.184zm1.2 0h9.048v9.336h-9.048v-2.736h6.192v-3.864h-6.192v-2.736zm-3.408-5.592h21.744v2.904h-21.744v-2.904zm24.216.456h21.336v2.664h-21.336v-2.664zm9.12-2.064h2.976v3.168h-2.976v-3.168zm3.216 3.144h2.808v5.904c0 1.248-.192 1.92-1.056 2.328-.816.408-1.92.432-3.36.432-.12-.768-.456-1.8-.792-2.544.84.024 1.752.024 2.04.024.288 0 .36-.048.36-.312v-5.832zm-4.872-.36h2.688v1.896c0 2.52-.408 5.784-3.96 8.016-.432-.6-1.44-1.536-2.088-1.968 3.024-1.776 3.36-4.224 3.36-6.12v-1.824zm8.352 3.936l2.232-1.296c1.368 1.344 3.048 3.24 3.816 4.536l-2.4 1.44c-.672-1.296-2.28-3.264-3.648-4.68zm-12.744-1.2l2.688.72c-1.008 1.896-2.592 3.84-4.272 4.992-.504-.504-1.416-1.272-1.992-1.656 1.536-.96 2.928-2.616 3.576-4.056zm3.984 8.664c2.448 3.6 7.68 5.28 15 5.64-.6.672-1.32 1.896-1.68 2.712-7.704-.648-12.744-2.808-15.888-7.536l2.568-.816zm.6-3.216l3 .576c-1.944 2.784-4.68 4.992-8.832 6.672-.384-.672-1.2-1.704-1.8-2.136 3.84-1.272 6.336-3.168 7.632-5.112zm-.048 1.752h8.496v2.28h-10.512l2.016-2.28zm7.704 0h.624l.48-.096 1.872 1.248c-3.096 5.568-10.008 7.848-17.616 8.712-.24-.696-.864-1.968-1.368-2.568 7.368-.576 13.704-2.448 16.008-6.84v-.456zm15.168-10.608h8.472v2.28h-8.472v-2.28zm.384 3.648h7.608v2.256h-7.608v-2.256zm8.088-.552h6.936v2.568h-6.936v-2.568zm-5.52-5.208h2.472v7.32h-2.472v-7.32zm-.048 10.824v1.776h2.448v-1.776h-2.448zm-2.328-1.992h7.2v5.736h-7.2v-5.736zm.048 6.648l2.16-.576c.408 1.08.84 2.496.936 3.384l-2.328.648c-.072-.888-.408-2.352-.768-3.456zm7.536-5.448l2.064-.648c.648 1.968 1.224 4.488 1.368 6.024l-2.232.792c-.12-1.584-.624-4.176-1.2-6.168zm-2.76 4.752l2.592.624c-.552 1.512-1.128 3.072-1.584 4.104l-2.16-.576c.432-1.128.912-2.88 1.152-4.152zm-6.072 4.872c2.376-.312 5.928-.816 9.36-1.32l.144 2.328c-3.072.528-6.384 1.032-8.832 1.44l-.672-2.448zm12.096-19.584h2.64v19.464c0 1.296-.24 2.04-.96 2.472-.744.432-1.8.552-3.312.552-.072-.72-.456-1.896-.816-2.64.888.048 1.752.048 2.04.048.312-.024.408-.12.408-.432v-19.464zm-18.216 4.896h6.744v2.64h-6.744v-2.64zm2.376-4.968h2.496v22.536h-2.496v-22.536zm.048 6.792l1.368.48c-.528 3.744-1.704 8.448-3.168 10.896-.24-.696-.792-1.752-1.176-2.352 1.344-2.064 2.52-5.952 2.976-9.024zm2.328 1.272c.432.672 2.16 3.72 2.52 4.416l-1.296 2.016c-.432-1.392-1.656-4.248-2.184-5.376l.96-1.056zm21.336-7.248h4.92v2.616h-4.92v-2.616zm.12 5.496h4.536v2.592h-4.536v-2.592zm0 5.568h4.512v2.688h-4.512v-2.688zM313.6 462.44h2.52v8.76c0 3.84-.216 9.432-1.752 13.008-.504-.408-1.632-1.032-2.28-1.272 1.416-3.336 1.512-8.184 1.512-11.712v-8.784zm4.776 0h2.616v18.6c0 1.248-.192 2.064-.912 2.52-.744.456-1.68.528-3.168.528-.048-.72-.36-1.992-.72-2.712.768.048 1.56.024 1.824.024.264-.024.36-.12.36-.408V462.44zm4.2 10.536h11.16v11.064h-2.808v-8.688h-5.664v8.784h-2.688v-11.16zm9-10.416l2.088 2.16c-2.64 1.272-6.288 2.184-9.408 2.784-.144-.6-.552-1.608-.888-2.208 2.976-.624 6.24-1.656 8.208-2.736zm-7.92 18.312h8.736v2.376h-8.736v-2.376zm0-3.936h8.736v2.232h-8.736v-2.232zm-1.248-15.072h2.736v6.264c0 .84.216.96 1.584.96h4.056c1.128 0 1.32-.336 1.464-2.616.576.432 1.752.84 2.52 1.008-.36 3.312-1.152 4.152-3.744 4.152h-4.56c-3.24 0-4.056-.792-4.056-3.48v-6.288zm26.61 9.192c1.04 0 1.968.2 2.784.6.816.4 1.456.984 1.92 1.752.48.768.72 1.72.72 2.856 0 1.232-.256 2.296-.768 3.192-.512.896-1.28 1.584-2.304 2.064-1.008.48-2.264.72-3.768.72-.896 0-1.744-.08-2.544-.24-.784-.16-1.472-.392-2.064-.696v-3.12c.592.304 1.304.568 2.136.792a9.716 9.716 0 002.352.312c.72 0 1.32-.096 1.8-.288.496-.192.872-.488 1.128-.888.256-.4.384-.912.384-1.536 0-.848-.28-1.488-.84-1.92-.56-.448-1.424-.672-2.592-.672-.448 0-.912.048-1.392.144-.48.08-.88.16-1.2.24l-1.44-.768.648-8.736h9.288v3.072h-6.12l-.312 3.36c.272-.048.56-.096.864-.144.32-.064.76-.096 1.32-.096zm18.799-2.352c0 .784-.168 1.464-.504 2.04a3.995 3.995 0 01-1.32 1.416 5.835 5.835 0 01-1.872.816v.072c1.376.16 2.416.576 3.12 1.248.72.672 1.08 1.576 1.08 2.712 0 .992-.248 1.888-.744 2.688-.48.784-1.232 1.408-2.256 1.872-1.008.448-2.312.672-3.912.672-.944 0-1.824-.08-2.64-.24a11.688 11.688 0 01-2.304-.696v-3.072a10.74 10.74 0 002.304.84c.816.192 1.568.288 2.256.288 1.296 0 2.2-.224 2.712-.672.528-.448.792-1.08.792-1.896 0-.48-.12-.88-.36-1.2-.24-.336-.664-.584-1.272-.744-.592-.176-1.424-.264-2.496-.264h-1.296V471.8h1.32c1.056 0 1.856-.096 2.4-.288.56-.208.936-.48 1.128-.816.208-.352.312-.752.312-1.2 0-.608-.192-1.08-.576-1.416-.368-.352-.992-.528-1.872-.528-.544 0-1.04.072-1.488.216a6.5 6.5 0 00-1.224.48 14.62 14.62 0 00-.936.552l-1.68-2.496c.448-.32.944-.608 1.488-.864a8.937 8.937 0 011.848-.6 10.8 10.8 0 012.256-.216c1.76 0 3.152.36 4.176 1.08 1.04.704 1.56 1.704 1.56 3zm13.734 0c0 .784-.168 1.464-.504 2.04a3.995 3.995 0 01-1.32 1.416 5.835 5.835 0 01-1.872.816v.072c1.376.16 2.416.576 3.12 1.248.72.672 1.08 1.576 1.08 2.712 0 .992-.248 1.888-.744 2.688-.48.784-1.232 1.408-2.256 1.872-1.008.448-2.312.672-3.912.672-.944 0-1.824-.08-2.64-.24a11.688 11.688 0 01-2.304-.696v-3.072a10.74 10.74 0 002.304.84c.816.192 1.568.288 2.256.288 1.296 0 2.2-.224 2.712-.672.528-.448.792-1.08.792-1.896 0-.48-.12-.88-.36-1.2-.24-.336-.664-.584-1.272-.744-.592-.176-1.424-.264-2.496-.264h-1.296V471.8h1.32c1.056 0 1.856-.096 2.4-.288.56-.208.936-.48 1.128-.816.208-.352.312-.752.312-1.2 0-.608-.192-1.08-.576-1.416-.368-.352-.992-.528-1.872-.528-.544 0-1.04.072-1.488.216a6.5 6.5 0 00-1.224.48 14.62 14.62 0 00-.936.552l-1.68-2.496c.448-.32.944-.608 1.488-.864a8.937 8.937 0 011.848-.6 10.8 10.8 0 012.256-.216c1.76 0 3.152.36 4.176 1.08 1.04.704 1.56 1.704 1.56 3zm3.342 19.056v-18.864h3.576v7.656c0 .928.168 1.632.504 2.112.352.48.896.72 1.632.72.672 0 1.2-.168 1.584-.504.4-.336.68-.824.84-1.464.176-.64.264-1.424.264-2.352v-6.168h3.576v8.952c0 .544.096.912.288 1.104.208.192.44.288.696.288.112 0 .24-.016.384-.048.144-.032.248-.056.312-.072v2.808c-.08.048-.216.096-.408.144-.192.048-.4.088-.624.12-.208.032-.4.048-.576.048-.8 0-1.464-.144-1.992-.432-.512-.304-.904-.824-1.176-1.56h-.168c-.208.432-.464.8-.768 1.104-.304.288-.64.504-1.008.648a2.75 2.75 0 01-1.152.24c-.32 0-.624-.04-.912-.12-.272-.08-.52-.2-.744-.36a2.918 2.918 0 01-.6-.576h-.072c.032.16.056.416.072.768.016.336.024.688.024 1.056.016.384.024.72.024 1.008v3.744h-3.576zm31.674-19.104c1.488 0 2.608.384 3.36 1.152.768.752 1.152 1.968 1.152 3.648V482h-3.576v-7.656c0-.944-.16-1.648-.48-2.112-.32-.48-.816-.72-1.488-.72-.944 0-1.616.336-2.016 1.008-.4.672-.6 1.64-.6 2.904V482h-3.576v-7.656c0-.624-.072-1.144-.216-1.56-.144-.416-.36-.728-.648-.936-.288-.224-.656-.336-1.104-.336-.656 0-1.176.168-1.56.504-.384.336-.656.824-.816 1.464-.16.64-.24 1.424-.24 2.352V482h-3.576v-13.104h2.736l.48 1.68h.192a3.443 3.443 0 011.008-1.08c.4-.288.84-.496 1.32-.624a5.314 5.314 0 011.488-.216c.96 0 1.776.16 2.448.48a3.196 3.196 0 011.536 1.44h.312c.4-.672.952-1.16 1.656-1.464a5.627 5.627 0 012.208-.456z" fill="#E6CD92"/><rect width="145" height="648" rx="72.5" fill="#F5F5F5"/><circle cx="72.5" cy="60.5" r="41.5" fill="#fff"/><path d="M55.12 43.36H91v4.04H55.12v-4.04zM63.88 41h4.76v8.8h-4.76V41zm13.32 0h4.76v8.8H77.2V41zM65.24 51.12h25.32v3.28H65.24v-3.28zm-.48 16.6h26.32v3.64H64.76v-3.64zm10.76-18.8h4.36v15.92h-4.36V48.92zm-19.56 3.4l2.68-3.16c2.28.92 5.28 2.52 6.84 3.76l-2.84 3.56c-1.4-1.28-4.4-3.04-6.68-4.16zM54.2 59.8l2.64-3.24c2.32.96 5.4 2.64 6.96 3.88l-2.8 3.6c-1.44-1.28-4.44-3.12-6.8-4.24zm13.08 12.88l3-2.6c1.72 1.16 3.88 2.88 4.92 4.12L72 77.08c-.92-1.28-3-3.16-4.72-4.4zm-12.2 2.76c1.68-2.36 4.08-6.12 6-9.68l3.32 2.8c-1.64 3.2-3.64 6.72-5.48 9.76l-3.84-2.88zm27.8-26.12l2.08-2.44c1.68.64 3.64 1.8 4.72 2.64l-2.16 2.76c-1.08-.96-3.08-2.24-4.64-2.96zM71.16 62.16v1.64h13.08v-1.64H71.16zm0-3.84v1.6h13.08v-1.6H71.16zM67 55.84h21.56v10.44H67V55.84zm12.84 9.56h4.52v8.92c0 2-.32 3.04-1.72 3.68-1.36.6-3.16.6-5.6.6-.16-1.2-.72-2.76-1.24-3.92 1.4.04 2.96.08 3.44.04.44 0 .6-.12.6-.52v-8.8z" fill="#666"/><circle cx="72.5" cy="587.5" r="41.5" fill="#fff"/><path d="M61.88 595.08h29.48v3.68H61.88v-3.68zm2.76-6.44h19.4v3.2h-19.4v-3.2zm4.84-6v1.64h13.4v-1.64h-13.4zm0-4.32v1.6h13.4v-1.6h-13.4zm-4.52-2.92H87.6v11.8H64.96v-11.8zM74 593.12h4.72v8.16c0 2.16-.52 3.2-2.24 3.76-1.72.56-4.08.6-7.24.56-.28-1.16-1-2.8-1.6-3.88 2.12.12 4.8.12 5.44.08.68 0 .92-.16.92-.68v-8zm9.32-4.48h1.16l1-.24 2.76 2.52c-2.92 1.96-6.72 3.96-10.28 5.32-.48-.76-1.56-1.92-2.12-2.52 2.68-1.04 5.92-2.92 7.48-4.28v-.8zM60.24 569.6h30.8v4.36h-30.8v-4.36zm-2.8 0h4.76v12.32c0 6.88-.56 17.12-4.2 23.68-.92-.76-3-1.92-4.2-2.36 3.4-6.08 3.64-15 3.64-21.32V569.6zM49.967 530h-3.624v-10.92l.048-1.248c.016-.432.032-.816.048-1.152-.08.096-.256.272-.528.528-.256.24-.496.456-.72.648l-1.968 1.584-1.752-2.184 5.52-4.392h2.976V530zm21.078-13.344c1.488 0 2.608.384 3.36 1.152.768.752 1.152 1.968 1.152 3.648V530h-3.576v-7.656c0-.944-.16-1.648-.48-2.112-.32-.48-.816-.72-1.488-.72-.944 0-1.616.336-2.016 1.008-.4.672-.6 1.64-.6 2.904V530h-3.576v-7.656c0-.624-.072-1.144-.216-1.56-.144-.416-.36-.728-.648-.936-.288-.224-.656-.336-1.104-.336-.656 0-1.176.168-1.56.504-.384.336-.656.824-.816 1.464-.16.64-.24 1.424-.24 2.352V530h-3.576v-13.104h2.736l.48 1.68h.192a3.443 3.443 0 011.008-1.08c.4-.288.84-.496 1.32-.624a5.314 5.314 0 011.488-.216c.96 0 1.776.16 2.448.48a3.196 3.196 0 011.536 1.44h.312c.4-.672.952-1.16 1.656-1.464a5.627 5.627 0 012.208-.456zm23.578 0c1.488 0 2.608.384 3.36 1.152.768.752 1.152 1.968 1.152 3.648V530H95.56v-7.656c0-.944-.16-1.648-.48-2.112-.32-.48-.816-.72-1.488-.72-.944 0-1.616.336-2.016 1.008-.4.672-.6 1.64-.6 2.904V530H87.4v-7.656c0-.624-.072-1.144-.216-1.56-.144-.416-.36-.728-.648-.936-.288-.224-.656-.336-1.104-.336-.656 0-1.176.168-1.56.504-.384.336-.656.824-.816 1.464-.16.64-.24 1.424-.24 2.352V530H79.24v-13.104h2.736l.48 1.68h.192a3.443 3.443 0 011.008-1.08c.4-.288.84-.496 1.32-.624a5.314 5.314 0 011.488-.216c.96 0 1.776.16 2.448.48a3.196 3.196 0 011.536 1.44h.312c.4-.672.952-1.16 1.656-1.464a5.627 5.627 0 012.208-.456zm-46.958-76.6c1.04 0 1.968.2 2.784.6.816.4 1.456.984 1.92 1.752.48.768.72 1.72.72 2.856 0 1.232-.256 2.296-.768 3.192-.512.896-1.28 1.584-2.304 2.064-1.008.48-2.264.72-3.768.72-.896 0-1.744-.08-2.544-.24-.784-.16-1.472-.392-2.064-.696v-3.12c.592.304 1.304.568 2.136.792a9.716 9.716 0 002.352.312c.72 0 1.32-.096 1.8-.288.496-.192.872-.488 1.128-.888.256-.4.384-.912.384-1.536 0-.848-.28-1.488-.84-1.92-.56-.448-1.424-.672-2.592-.672-.448 0-.912.048-1.392.144-.48.08-.88.16-1.2.24l-1.44-.768.648-8.736h9.288v3.072h-6.12l-.312 3.36c.272-.048.56-.096.864-.144.32-.064.76-.096 1.32-.096zm19.374 2.376c0 1.376-.112 2.608-.336 3.696-.208 1.088-.552 2.016-1.032 2.784a4.678 4.678 0 01-1.848 1.728c-.752.4-1.68.6-2.784.6-1.376 0-2.504-.352-3.384-1.056-.88-.704-1.536-1.712-1.968-3.024-.416-1.312-.624-2.888-.624-4.728 0-1.856.192-3.44.576-4.752.384-1.312 1.016-2.32 1.896-3.024.88-.704 2.048-1.056 3.504-1.056 1.376 0 2.504.352 3.384 1.056.88.688 1.536 1.696 1.968 3.024.432 1.312.648 2.896.648 4.752zm-8.376 0c0 1.296.072 2.384.216 3.264.144.864.384 1.52.72 1.968.352.432.832.648 1.44.648s1.08-.216 1.416-.648c.352-.432.6-1.08.744-1.944.16-.88.24-1.976.24-3.288 0-1.312-.08-2.4-.24-3.264-.144-.88-.392-1.536-.744-1.968-.336-.448-.808-.672-1.416-.672-.608 0-1.088.224-1.44.672-.336.432-.576 1.088-.72 1.968-.144.864-.216 1.952-.216 3.264zm22.11 0c0 1.376-.111 2.608-.335 3.696-.208 1.088-.552 2.016-1.032 2.784a4.678 4.678 0 01-1.848 1.728c-.752.4-1.68.6-2.784.6-1.376 0-2.504-.352-3.384-1.056-.88-.704-1.536-1.712-1.968-3.024-.416-1.312-.624-2.888-.624-4.728 0-1.856.192-3.44.576-4.752.384-1.312 1.016-2.32 1.896-3.024.88-.704 2.048-1.056 3.504-1.056 1.376 0 2.504.352 3.384 1.056.88.688 1.536 1.696 1.968 3.024.432 1.312.648 2.896.648 4.752zm-8.375 0c0 1.296.072 2.384.216 3.264.144.864.384 1.52.72 1.968.352.432.832.648 1.44.648s1.08-.216 1.416-.648c.352-.432.6-1.08.744-1.944.16-.88.24-1.976.24-3.288 0-1.312-.08-2.4-.24-3.264-.144-.88-.392-1.536-.744-1.968-.336-.448-.808-.672-1.416-.672-.608 0-1.088.224-1.44.672-.336.432-.576 1.088-.72 1.968-.144.864-.216 1.952-.216 3.264zM83.54 456.76v-18.864h3.576v7.656c0 .928.168 1.632.504 2.112.352.48.896.72 1.632.72.672 0 1.2-.168 1.584-.504.4-.336.68-.824.84-1.464.176-.64.264-1.424.264-2.352v-6.168h3.576v8.952c0 .544.096.912.288 1.104.208.192.44.288.696.288.112 0 .24-.016.384-.048.144-.032.248-.056.312-.072v2.808c-.08.048-.216.096-.408.144-.192.048-.4.088-.624.12-.208.032-.4.048-.576.048-.8 0-1.464-.144-1.992-.432-.512-.304-.904-.824-1.176-1.56h-.168c-.208.432-.464.8-.768 1.104-.304.288-.64.504-1.008.648a2.75 2.75 0 01-1.152.24c-.32 0-.624-.04-.912-.12-.272-.08-.52-.2-.744-.36a2.918 2.918 0 01-.6-.576h-.072c.032.16.056.416.072.768.016.336.024.688.024 1.056.016.384.024.72.024 1.008v3.744H83.54zm31.673-19.104c1.488 0 2.608.384 3.36 1.152.768.752 1.152 1.968 1.152 3.648V451h-3.576v-7.656c0-.944-.16-1.648-.48-2.112-.32-.48-.816-.72-1.488-.72-.944 0-1.616.336-2.016 1.008-.4.672-.6 1.64-.6 2.904V451h-3.576v-7.656c0-.624-.072-1.144-.216-1.56-.144-.416-.36-.728-.648-.936-.288-.224-.656-.336-1.104-.336-.656 0-1.176.168-1.56.504-.384.336-.656.824-.816 1.464-.16.64-.24 1.424-.24 2.352V451h-3.576v-13.104h2.736l.48 1.68h.192a3.443 3.443 0 011.008-1.08c.4-.288.84-.496 1.32-.624a5.314 5.314 0 011.488-.216c.96 0 1.776.16 2.448.48a3.196 3.196 0 011.536 1.44h.312c.4-.672.952-1.16 1.656-1.464a5.627 5.627 0 012.208-.456zM50.377 372h-3.624v-10.92l.048-1.248c.016-.432.032-.816.048-1.152-.08.096-.256.272-.528.528-.256.24-.496.456-.72.648l-1.968 1.584-1.752-2.184 5.52-4.392h2.976V372zm16.662-8.568c0 1.376-.112 2.608-.336 3.696-.208 1.088-.552 2.016-1.032 2.784a4.678 4.678 0 01-1.848 1.728c-.752.4-1.68.6-2.784.6-1.376 0-2.504-.352-3.384-1.056-.88-.704-1.536-1.712-1.968-3.024-.416-1.312-.624-2.888-.624-4.728 0-1.856.192-3.44.576-4.752.384-1.312 1.016-2.32 1.896-3.024.88-.704 2.048-1.056 3.504-1.056 1.376 0 2.504.352 3.384 1.056.88.688 1.536 1.696 1.968 3.024.432 1.312.648 2.896.648 4.752zm-8.376 0c0 1.296.072 2.384.216 3.264.144.864.384 1.52.72 1.968.352.432.832.648 1.44.648s1.08-.216 1.416-.648c.352-.432.6-1.08.744-1.944.16-.88.24-1.976.24-3.288 0-1.312-.08-2.4-.24-3.264-.144-.88-.392-1.536-.744-1.968-.336-.448-.808-.672-1.416-.672-.608 0-1.088.224-1.44.672-.336.432-.576 1.088-.72 1.968-.144.864-.216 1.952-.216 3.264zm22.11 0c0 1.376-.111 2.608-.335 3.696-.208 1.088-.552 2.016-1.032 2.784a4.678 4.678 0 01-1.848 1.728c-.752.4-1.68.6-2.784.6-1.376 0-2.504-.352-3.384-1.056-.88-.704-1.536-1.712-1.968-3.024-.416-1.312-.624-2.888-.624-4.728 0-1.856.192-3.44.576-4.752.384-1.312 1.016-2.32 1.896-3.024.88-.704 2.048-1.056 3.504-1.056 1.376 0 2.504.352 3.384 1.056.88.688 1.536 1.696 1.968 3.024.432 1.312.648 2.896.648 4.752zm-8.375 0c0 1.296.072 2.384.216 3.264.144.864.384 1.52.72 1.968.352.432.832.648 1.44.648s1.08-.216 1.416-.648c.352-.432.6-1.08.744-1.944.16-.88.24-1.976.24-3.288 0-1.312-.08-2.4-.24-3.264-.144-.88-.392-1.536-.744-1.968-.336-.448-.808-.672-1.416-.672-.608 0-1.088.224-1.44.672-.336.432-.576 1.088-.72 1.968-.144.864-.216 1.952-.216 3.264zM83.54 377.76v-18.864h3.576v7.656c0 .928.168 1.632.504 2.112.352.48.896.72 1.632.72.672 0 1.2-.168 1.584-.504.4-.336.68-.824.84-1.464.176-.64.264-1.424.264-2.352v-6.168h3.576v8.952c0 .544.096.912.288 1.104.208.192.44.288.696.288.112 0 .24-.016.384-.048.144-.032.248-.056.312-.072v2.808c-.08.048-.216.096-.408.144-.192.048-.4.088-.624.12-.208.032-.4.048-.576.048-.8 0-1.464-.144-1.992-.432-.512-.304-.904-.824-1.176-1.56h-.168c-.208.432-.464.8-.768 1.104-.304.288-.64.504-1.008.648a2.75 2.75 0 01-1.152.24c-.32 0-.624-.04-.912-.12-.272-.08-.52-.2-.744-.36a2.918 2.918 0 01-.6-.576h-.072c.032.16.056.416.072.768.016.336.024.688.024 1.056.016.384.024.72.024 1.008v3.744H83.54zm31.673-19.104c1.488 0 2.608.384 3.36 1.152.768.752 1.152 1.968 1.152 3.648V372h-3.576v-7.656c0-.944-.16-1.648-.48-2.112-.32-.48-.816-.72-1.488-.72-.944 0-1.616.336-2.016 1.008-.4.672-.6 1.64-.6 2.904V372h-3.576v-7.656c0-.624-.072-1.144-.216-1.56-.144-.416-.36-.728-.648-.936-.288-.224-.656-.336-1.104-.336-.656 0-1.176.168-1.56.504-.384.336-.656.824-.816 1.464-.16.64-.24 1.424-.24 2.352V372h-3.576v-13.104h2.736l.48 1.68h.192a3.443 3.443 0 011.008-1.08c.4-.288.84-.496 1.32-.624a5.314 5.314 0 011.488-.216c.96 0 1.776.16 2.448.48a3.196 3.196 0 011.536 1.44h.312c.4-.672.952-1.16 1.656-1.464a5.627 5.627 0 012.208-.456zm-67.681-76.6c1.04 0 1.968.2 2.784.6.816.4 1.456.984 1.92 1.752.48.768.72 1.72.72 2.856 0 1.232-.256 2.296-.768 3.192-.512.896-1.28 1.584-2.304 2.064-1.008.48-2.264.72-3.768.72-.896 0-1.744-.08-2.544-.24-.784-.16-1.472-.392-2.064-.696v-3.12c.592.304 1.304.568 2.136.792a9.716 9.716 0 002.352.312c.72 0 1.32-.096 1.8-.288.496-.192.872-.488 1.128-.888.256-.4.384-.912.384-1.536 0-.848-.28-1.488-.84-1.92-.56-.448-1.424-.672-2.592-.672-.448 0-.912.048-1.392.144-.48.08-.88.16-1.2.24l-1.44-.768.648-8.736h9.288v3.072h-6.12l-.312 3.36c.272-.048.56-.096.864-.144.32-.064.76-.096 1.32-.096zm19.374 2.376c0 1.376-.112 2.608-.336 3.696-.208 1.088-.552 2.016-1.032 2.784a4.678 4.678 0 01-1.848 1.728c-.752.4-1.68.6-2.784.6-1.376 0-2.504-.352-3.384-1.056-.88-.704-1.536-1.712-1.968-3.024-.416-1.312-.624-2.888-.624-4.728 0-1.856.192-3.44.576-4.752.384-1.312 1.016-2.32 1.896-3.024.88-.704 2.048-1.056 3.504-1.056 1.376 0 2.504.352 3.384 1.056.88.688 1.536 1.696 1.968 3.024.432 1.312.648 2.896.648 4.752zm-8.376 0c0 1.296.072 2.384.216 3.264.144.864.384 1.52.72 1.968.352.432.832.648 1.44.648s1.08-.216 1.416-.648c.352-.432.6-1.08.744-1.944.16-.88.24-1.976.24-3.288 0-1.312-.08-2.4-.24-3.264-.144-.88-.392-1.536-.744-1.968-.336-.448-.808-.672-1.416-.672-.608 0-1.088.224-1.44.672-.336.432-.576 1.088-.72 1.968-.144.864-.216 1.952-.216 3.264zm11.143 14.328v-18.864h3.576v7.656c0 .928.168 1.632.504 2.112.352.48.896.72 1.632.72.672 0 1.2-.168 1.584-.504.4-.336.68-.824.84-1.464.176-.64.264-1.424.264-2.352v-6.168h3.576v8.952c0 .544.096.912.288 1.104.208.192.44.288.696.288.112 0 .24-.016.384-.048.144-.032.248-.056.312-.072v2.808c-.08.048-.216.096-.408.144-.192.048-.4.088-.624.12-.208.032-.4.048-.576.048-.8 0-1.464-.144-1.992-.432-.512-.304-.904-.824-1.176-1.56h-.168c-.208.432-.464.8-.768 1.104-.304.288-.64.504-1.008.648a2.75 2.75 0 01-1.152.24c-.32 0-.624-.04-.912-.12-.272-.08-.52-.2-.744-.36a2.918 2.918 0 01-.6-.576h-.072c.032.16.056.416.072.768.016.336.024.688.024 1.056.016.384.024.72.024 1.008v3.744h-3.576zm31.673-19.104c1.488 0 2.608.384 3.36 1.152.768.752 1.152 1.968 1.152 3.648V293h-3.576v-7.656c0-.944-.16-1.648-.48-2.112-.32-.48-.816-.72-1.488-.72-.944 0-1.616.336-2.016 1.008-.4.672-.6 1.64-.6 2.904V293h-3.576v-7.656c0-.624-.072-1.144-.216-1.56-.144-.416-.36-.728-.648-.936-.288-.224-.656-.336-1.104-.336-.656 0-1.176.168-1.56.504-.384.336-.656.824-.816 1.464-.16.64-.24 1.424-.24 2.352V293h-3.576v-13.104h2.736l.48 1.68h.192a3.443 3.443 0 011.008-1.08c.4-.288.84-.496 1.32-.624a5.314 5.314 0 011.488-.216c.96 0 1.776.16 2.448.48a3.196 3.196 0 011.536 1.44h.312c.4-.672.952-1.16 1.656-1.464a5.628 5.628 0 012.208-.456zM50.244 214H46.62v-10.92l.048-1.248c.016-.432.032-.816.048-1.152-.08.096-.256.272-.528.528-.256.24-.496.456-.72.648L43.5 203.44l-1.752-2.184 5.52-4.392h2.976V214zm16.662-8.568c0 1.376-.112 2.608-.336 3.696-.208 1.088-.552 2.016-1.032 2.784a4.678 4.678 0 01-1.848 1.728c-.752.4-1.68.6-2.784.6-1.376 0-2.504-.352-3.384-1.056-.88-.704-1.536-1.712-1.968-3.024-.416-1.312-.624-2.888-.624-4.728 0-1.856.192-3.44.576-4.752.384-1.312 1.016-2.32 1.896-3.024.88-.704 2.048-1.056 3.504-1.056 1.376 0 2.504.352 3.384 1.056.88.688 1.536 1.696 1.968 3.024.432 1.312.648 2.896.648 4.752zm-8.376 0c0 1.296.072 2.384.216 3.264.144.864.384 1.52.72 1.968.352.432.832.648 1.44.648s1.08-.216 1.416-.648c.352-.432.6-1.08.744-1.944.16-.88.24-1.976.24-3.288 0-1.312-.08-2.4-.24-3.264-.144-.88-.392-1.536-.744-1.968-.336-.448-.808-.672-1.416-.672-.608 0-1.088.224-1.44.672-.336.432-.576 1.088-.72 1.968-.144.864-.216 1.952-.216 3.264zm11.143 14.328v-18.864h3.576v7.656c0 .928.168 1.632.504 2.112.352.48.896.72 1.632.72.672 0 1.2-.168 1.584-.504.4-.336.68-.824.84-1.464.176-.64.264-1.424.264-2.352v-6.168h3.576v8.952c0 .544.096.912.288 1.104.208.192.44.288.696.288.112 0 .24-.016.384-.048.144-.032.248-.056.312-.072v2.808c-.08.048-.216.096-.408.144-.192.048-.4.088-.624.12-.208.032-.4.048-.576.048-.8 0-1.464-.144-1.992-.432-.512-.304-.904-.824-1.176-1.56h-.168c-.208.432-.464.8-.768 1.104-.304.288-.64.504-1.008.648a2.75 2.75 0 01-1.152.24c-.32 0-.624-.04-.912-.12-.272-.08-.52-.2-.744-.36a2.918 2.918 0 01-.6-.576h-.072c.032.16.056.416.072.768.016.336.024.688.024 1.056.016.384.024.72.024 1.008v3.744h-3.576zm31.673-19.104c1.488 0 2.608.384 3.36 1.152.768.752 1.152 1.968 1.152 3.648V214h-3.576v-7.656c0-.944-.16-1.648-.48-2.112-.32-.48-.816-.72-1.488-.72-.944 0-1.616.336-2.016 1.008-.4.672-.6 1.64-.6 2.904V214h-3.576v-7.656c0-.624-.072-1.144-.216-1.56-.144-.416-.36-.728-.648-.936-.288-.224-.656-.336-1.104-.336-.656 0-1.176.168-1.56.504-.384.336-.656.824-.816 1.464-.16.64-.24 1.424-.24 2.352V214h-3.576v-13.104h2.736l.48 1.68h.192a3.443 3.443 0 011.008-1.08c.4-.288.84-.496 1.32-.624a5.314 5.314 0 011.488-.216c.96 0 1.776.16 2.448.48a3.196 3.196 0 011.536 1.44h.312c.4-.672.952-1.16 1.656-1.464a5.628 5.628 0 012.208-.456zm-53.946-76.6c1.04 0 1.967.2 2.783.6.816.4 1.456.984 1.92 1.752.48.768.72 1.72.72 2.856 0 1.232-.256 2.296-.768 3.192-.512.896-1.28 1.584-2.304 2.064-1.008.48-2.264.72-3.768.72-.896 0-1.744-.08-2.544-.24-.784-.16-1.472-.392-2.064-.696v-3.12c.592.304 1.304.568 2.136.792a9.716 9.716 0 002.352.312c.72 0 1.32-.096 1.8-.288.496-.192.872-.488 1.128-.888.256-.4.384-.912.384-1.536 0-.848-.28-1.488-.84-1.92-.56-.448-1.424-.672-2.592-.672-.448 0-.912.048-1.392.144-.48.08-.88.16-1.2.24l-1.44-.768.648-8.736h9.288v3.072h-6.12l-.312 3.36c.272-.048.56-.096.864-.144.32-.064.76-.096 1.32-.096zm8.406 16.704v-18.864h3.576v7.656c0 .928.168 1.632.504 2.112.352.48.896.72 1.632.72.672 0 1.2-.168 1.584-.504.4-.336.68-.824.84-1.464.176-.64.264-1.424.264-2.352v-6.168h3.576v8.952c0 .544.096.912.288 1.104.208.192.44.288.696.288.112 0 .24-.016.384-.048.144-.032.248-.056.312-.072v2.808c-.08.048-.216.096-.408.144-.192.048-.4.088-.624.12-.208.032-.4.048-.576.048-.8 0-1.464-.144-1.992-.432-.512-.304-.904-.824-1.176-1.56h-.168c-.208.432-.464.8-.768 1.104-.304.288-.64.504-1.008.648a2.75 2.75 0 01-1.152.24c-.32 0-.624-.04-.912-.12-.272-.08-.52-.2-.744-.36a2.918 2.918 0 01-.6-.576h-.072c.032.16.056.416.072.768.016.336.024.688.024 1.056.016.384.024.72.024 1.008v3.744h-3.576zm31.673-19.104c1.488 0 2.608.384 3.36 1.152.768.752 1.152 1.968 1.152 3.648V135h-3.576v-7.656c0-.944-.16-1.648-.48-2.112-.32-.48-.816-.72-1.488-.72-.944 0-1.616.336-2.016 1.008-.4.672-.6 1.64-.6 2.904V135h-3.576v-7.656c0-.624-.072-1.144-.216-1.56-.144-.416-.36-.728-.648-.936-.288-.224-.656-.336-1.104-.336-.656 0-1.176.168-1.56.504-.384.336-.656.824-.816 1.464-.16.64-.24 1.424-.24 2.352V135h-3.576v-13.104h2.736l.48 1.68h.192a3.443 3.443 0 011.008-1.08c.4-.288.84-.496 1.32-.624a5.314 5.314 0 011.488-.216c.96 0 1.776.16 2.448.48a3.196 3.196 0 011.536 1.44h.312c.4-.672.952-1.16 1.656-1.464a5.627 5.627 0 012.208-.456z" fill="#666"/></svg>