<svg width="394" height="466" fill="none" xmlns="http://www.w3.org/2000/svg"><mask id="a" style="mask-type:alpha" maskUnits="userSpaceOnUse" x="127" y="69" width="267" height="44"><path fill="#D9D9D9" d="M127.262 69.727H394v43.138H127.262z"/></mask><g mask="url(#a)"><path fill="#000" d="M33.915 91.216L260.25 54.612l226.336 36.604L260.25 127.82z"/></g><path d="M162.221 91.54h5.66v7.4a16.03 16.03 0 01-2.34.6c-.8.147-1.713.22-2.74.22-1.413 0-2.62-.28-3.62-.84-.986-.56-1.74-1.386-2.26-2.48-.506-1.093-.76-2.44-.76-4.04 0-1.493.287-2.786.86-3.88a6.143 6.143 0 012.54-2.54c1.107-.6 2.46-.9 4.06-.9.76 0 1.507.08 2.24.24.734.16 1.4.374 2 .64l-1 2.42a7.325 7.325 0 00-1.5-.56 6.919 6.919 0 00-1.76-.22c-.88 0-1.646.2-2.3.6-.64.4-1.14.967-1.5 1.7-.346.72-.52 1.574-.52 2.56 0 .934.127 1.76.38 2.48.254.72.654 1.287 1.2 1.7.547.4 1.26.6 2.14.6.294 0 .547-.006.76-.02.227-.026.434-.053.62-.08.187-.04.367-.073.54-.1v-2.98h-2.7v-2.52zm9.053 8.02V85.28h3.02v11.78h5.8v2.5h-8.82zm20.229-8.18c0 .814-.06 1.627-.18 2.44-.12.8-.334 1.56-.64 2.28a6.006 6.006 0 01-1.26 1.9c-.534.547-1.22.98-2.06 1.3-.827.307-1.834.46-3.02.46-.28 0-.607-.013-.98-.04a5.617 5.617 0 01-.94-.1V97.2c.266.054.546.1.84.14.293.04.586.06.88.06.893 0 1.626-.106 2.2-.32.586-.213 1.046-.52 1.38-.92.333-.4.573-.873.72-1.42a7.5 7.5 0 00.28-1.8h-.12a4.116 4.116 0 01-.68.84c-.254.254-.58.454-.98.6-.387.147-.887.22-1.5.22-.814 0-1.52-.173-2.12-.52a3.65 3.65 0 01-1.4-1.54c-.334-.68-.5-1.5-.5-2.46 0-1.04.193-1.926.58-2.66.4-.746.966-1.313 1.7-1.7.733-.4 1.593-.6 2.58-.6.733 0 1.413.127 2.04.38a4.37 4.37 0 011.66 1.16c.48.507.853 1.154 1.12 1.94.266.787.4 1.714.4 2.78zm-5.16-3.84c-.587 0-1.067.2-1.44.6-.374.4-.56 1.034-.56 1.9 0 .694.16 1.24.48 1.64.32.4.806.6 1.46.6.453 0 .84-.1 1.16-.3.333-.2.593-.446.78-.74.186-.306.28-.62.28-.94 0-.333-.047-.66-.14-.98a2.968 2.968 0 00-.42-.9 2.03 2.03 0 00-.66-.64c-.267-.16-.58-.24-.94-.24zm11.605-2.44c.827 0 1.58.127 2.26.38.693.254 1.247.634 1.66 1.14.427.507.64 1.147.64 1.92 0 .574-.113 1.08-.34 1.52-.227.427-.533.8-.92 1.12-.373.32-.807.6-1.3.84.507.267.987.58 1.44.94.467.347.84.76 1.12 1.24.293.467.44 1.02.44 1.66 0 .787-.213 1.474-.64 2.06-.413.587-1 1.04-1.76 1.36-.747.32-1.613.48-2.6.48-1.067 0-1.973-.153-2.72-.46-.747-.306-1.32-.746-1.72-1.32-.387-.573-.58-1.253-.58-2.04 0-.653.12-1.22.36-1.7.253-.48.587-.893 1-1.24.413-.36.873-.66 1.38-.9a7.075 7.075 0 01-1.16-.9 4.426 4.426 0 01-.84-1.16c-.2-.44-.3-.946-.3-1.52 0-.76.213-1.393.64-1.9.427-.506.987-.886 1.68-1.14a6.649 6.649 0 012.26-.38zm-2.22 10.66c0 .52.18.947.54 1.28.373.334.92.5 1.64.5.507 0 .92-.073 1.24-.22.333-.146.58-.353.74-.62a1.65 1.65 0 00.26-.92c0-.36-.107-.673-.32-.94a3.278 3.278 0 00-.8-.74 9.15 9.15 0 00-.96-.62l-.26-.14c-.413.187-.78.4-1.1.64a2.88 2.88 0 00-.72.8c-.173.28-.26.607-.26.98zm2.2-8.46c-.493 0-.907.127-1.24.38-.32.254-.48.614-.48 1.08 0 .32.08.607.24.86.16.24.373.454.64.64.267.174.553.34.86.5.307-.146.587-.306.84-.48.267-.173.48-.38.64-.62.16-.253.24-.553.24-.9 0-.466-.167-.826-.5-1.08-.32-.253-.733-.38-1.24-.38zm7.445-3.2h16.68v1.94h-16.68V84.1zm.74 14.74h15.3v1.961h-15.3v-1.96zm3.44-11.94h8.16v1.68h-8.16V86.9zm0 2.56h8.16v1.68h-8.16v-1.68zm-5.24 2.56h18.7v1.96h-18.7v-1.96zm4.54 3.64h9.66v1.88h-9.66v-1.88zm-.72-13.08h2.42V93.1h-2.42V82.58zm8.72.02h2.44v10.5h-2.44V82.6zm-4.46 11.8h2.46v5.58h-2.46V94.4zm-3.02-1.82l2 .74c-1.28 2.12-3.44 4-5.72 5.02-.34-.56-1.02-1.4-1.52-1.84 2.08-.76 4.18-2.3 5.24-3.92zm8.68 0c1.06 1.54 3.12 2.98 5.18 3.72-.52.44-1.22 1.3-1.58 1.86-2.16-.96-4.24-2.86-5.5-4.86l1.9-.72zm8.68-8.54h5.12v1.6h-5.12v-1.6zm1.9-1.48l2.1.26c-.4.84-.74 1.6-1.04 2.16l-1.78-.28c.26-.64.56-1.5.72-2.14zm-2.76 1.48h1.88v3.72c0 2.18-.34 5.18-2.18 7.1-.3-.36-1.08-1.02-1.5-1.24 1.62-1.7 1.8-4.06 1.8-5.9v-3.68zm9.68-.76h3.88v1.66h-3.88v-1.66zm-1.56 4.94h6.16v1.62h-6.16v-1.62zm.72-4.94h1.86v1.38c0 1.36-.4 2.9-2.12 3.94-.24-.4-.96-1.2-1.32-1.46 1.38-.76 1.58-1.66 1.58-2.52v-1.34zm-3.84.76h1.94v8.2c0 .9-.14 1.42-.7 1.72-.56.3-1.32.32-2.36.32-.06-.52-.28-1.3-.54-1.8.6.02 1.2.02 1.4.02.2 0 .26-.08.26-.28v-8.18zm-6.5 4.26c2.34-.06 5.88-.22 9.26-.36l-.04 1.72c-3.28.18-6.7.34-9.12.46l-.1-1.82zm3.72-2.04l1.38-.46c.36.56.7 1.32.86 1.8l-1.44.54c-.14-.5-.48-1.3-.8-1.88zm.32 4h1.48v2.78h-1.48v-2.78zm9.98-6.98h1.9v2.46c0 .42.02.46.24.46h.44c.24 0 .32-.16.36-1.32.34.28 1.12.54 1.6.66-.16 1.8-.64 2.3-1.7 2.3h-1.06c-1.4 0-1.78-.5-1.78-2.08v-2.48zm1.22 4.94h.44l.36-.04 1.2.5c-1.16 3.38-3.92 4.96-7.4 5.72-.22-.5-.76-1.38-1.1-1.74 3.18-.5 5.62-1.7 6.5-4.18v-.26zm-3.3 1.48c1.14 1.66 3.56 2.64 6.72 2.94-.46.44-1.02 1.26-1.28 1.82-3.48-.54-5.92-1.92-7.32-4.26l1.88-.5zm-11.82 9.2h18.32v1.881h-18.32v-1.88zm2.24-4.26h13.82v5.18h-2.36v-3.36h-1.64v3.36h-2.18v-3.36h-1.62v3.36h-2.2v-3.36h-1.58v3.36h-2.24v-5.18zm48.422-2.22c0 1.147-.094 2.174-.28 3.08-.174.907-.46 1.68-.86 2.32a3.9 3.9 0 01-1.54 1.44c-.627.334-1.4.5-2.32.5-1.147 0-2.087-.293-2.82-.88-.734-.586-1.28-1.426-1.64-2.52-.347-1.093-.52-2.406-.52-3.94 0-1.546.16-2.866.48-3.96.32-1.093.846-1.933 1.58-2.52.733-.586 1.706-.88 2.92-.88 1.146 0 2.086.294 2.82.88.733.574 1.28 1.414 1.64 2.52.36 1.094.54 2.414.54 3.96zm-6.98 0c0 1.08.06 1.987.18 2.72.12.72.32 1.267.6 1.64.293.36.693.54 1.2.54.506 0 .9-.18 1.18-.54.293-.36.5-.9.62-1.62.133-.733.2-1.646.2-2.74 0-1.093-.067-2-.2-2.72-.12-.733-.327-1.28-.62-1.64-.28-.373-.674-.56-1.18-.56-.507 0-.907.187-1.2.56-.28.36-.48.907-.6 1.64-.12.72-.18 1.627-.18 2.72zm8.865 5.74c0-.613.167-1.04.5-1.28.333-.253.74-.38 1.22-.38.467 0 .867.127 1.2.38.333.24.5.667.5 1.28 0 .587-.167 1.014-.5 1.28-.333.254-.733.38-1.2.38-.48 0-.887-.126-1.22-.38-.333-.266-.5-.693-.5-1.28zm15.663-1.56h-1.72v2.96h-2.94V96.6h-6.1v-2.1l6.26-9.22h2.78v8.98h1.72v2.34zm-4.66-4.76v-.8l.04-.94c.013-.32.027-.6.04-.84.013-.253.027-.426.04-.52h-.08c-.12.267-.247.527-.38.78a7.156 7.156 0 01-.48.78l-2.62 3.96h3.44v-2.42zm10.725-6.74c.827 0 1.58.127 2.26.38.694.254 1.247.634 1.66 1.14.427.507.64 1.147.64 1.92 0 .574-.113 1.08-.34 1.52a3.68 3.68 0 01-.92 1.12c-.373.32-.806.6-1.3.84.507.267.987.58 1.44.94.467.347.84.76 1.12 1.24.294.467.44 1.02.44 1.66 0 .787-.213 1.474-.64 2.06-.413.587-1 1.04-1.76 1.36-.746.32-1.613.48-2.6.48-1.066 0-1.973-.153-2.72-.46-.746-.306-1.32-.746-1.72-1.32-.386-.573-.58-1.253-.58-2.04 0-.653.12-1.22.36-1.7a4.12 4.12 0 011-1.24 6.03 6.03 0 011.38-.9 7.118 7.118 0 01-1.16-.9 4.472 4.472 0 01-.84-1.16c-.2-.44-.3-.946-.3-1.52 0-.76.214-1.393.64-1.9.427-.506.987-.886 1.68-1.14a6.649 6.649 0 012.26-.38zm-2.22 10.66c0 .52.18.947.54 1.28.374.334.92.5 1.64.5.507 0 .92-.073 1.24-.22.334-.146.58-.353.74-.62.174-.266.26-.573.26-.92 0-.36-.106-.673-.32-.94a3.278 3.278 0 00-.8-.74 8.947 8.947 0 00-.96-.62l-.26-.14c-.413.187-.78.4-1.1.64-.306.24-.546.507-.72.8-.173.28-.26.607-.26.98zm2.2-8.46c-.493 0-.906.127-1.24.38-.32.254-.48.614-.48 1.08 0 .32.08.607.24.86.16.24.374.454.64.64.267.174.554.34.86.5.307-.146.587-.306.84-.48.267-.173.48-.38.64-.62.16-.253.24-.553.24-.9 0-.466-.166-.826-.5-1.08-.32-.253-.733-.38-1.24-.38zm7.306 17.061v-15.72h2.98v6.38c0 .773.14 1.36.42 1.76.293.4.746.6 1.36.6.56 0 1-.14 1.32-.42.333-.28.566-.687.7-1.22.146-.534.22-1.187.22-1.96v-5.14h2.98v7.46c0 .453.08.76.24.92.173.16.366.24.58.24.093 0 .2-.014.32-.04l.26-.06v2.34c-.067.04-.18.08-.34.12a5.17 5.17 0 01-.52.1c-.174.026-.334.04-.48.04-.667 0-1.22-.12-1.66-.36-.427-.254-.754-.687-.98-1.3h-.14a3.35 3.35 0 01-.64.92 2.6 2.6 0 01-.84.54c-.294.133-.614.2-.96.2-.267 0-.52-.034-.76-.1a2.042 2.042 0 01-.62-.3 2.405 2.405 0 01-.5-.48h-.06c.026.133.046.346.06.64.013.28.02.573.02.88.013.32.02.6.02.84v3.12h-2.98zm26.394-15.92c1.24 0 2.173.32 2.8.96.64.626.96 1.64.96 3.04v7.12h-2.98v-6.38c0-.787-.133-1.374-.4-1.76-.267-.4-.68-.6-1.24-.6-.787 0-1.347.28-1.68.84-.333.56-.5 1.366-.5 2.42v5.48h-2.98v-6.38c0-.52-.06-.954-.18-1.3-.12-.347-.3-.607-.54-.78-.24-.187-.547-.28-.92-.28-.547 0-.98.14-1.3.42-.32.28-.547.686-.68 1.22-.133.533-.2 1.186-.2 1.96v5.14h-2.98V88.64h2.28l.4 1.4h.16c.227-.374.507-.674.84-.9.333-.24.7-.414 1.1-.52.413-.12.827-.18 1.24-.18.8 0 1.48.133 2.04.4.56.253.987.653 1.28 1.2h.26c.333-.56.793-.967 1.38-1.22.6-.254 1.213-.38 1.84-.38z" fill="#E6CD92"/><mask id="b" style="mask-type:alpha" maskUnits="userSpaceOnUse" x="127" y="161" width="267" height="44"><path fill="#D9D9D9" d="M127.246 161.734h266.738v43.138H127.246z"/></mask><g mask="url(#b)"><path fill="#000" d="M33.873 183.224L260.21 146.62l226.335 36.604-226.335 36.604z"/></g><path d="M162.208 183.52h5.66v7.4c-.746.253-1.526.453-2.34.6-.8.147-1.713.22-2.74.22-1.413 0-2.62-.28-3.62-.84-.986-.56-1.74-1.387-2.26-2.48-.506-1.093-.76-2.44-.76-4.04 0-1.493.287-2.787.86-3.88a6.145 6.145 0 012.54-2.54c1.107-.6 2.46-.9 4.06-.9.76 0 1.507.08 2.24.24.734.16 1.4.373 2 .64l-1 2.42a7.32 7.32 0 00-1.5-.56 6.9 6.9 0 00-1.76-.22c-.88 0-1.646.2-2.3.6-.64.4-1.14.967-1.5 1.7-.346.72-.52 1.573-.52 2.56 0 .933.127 1.76.38 2.48.254.72.654 1.287 1.2 1.7.547.4 1.26.6 2.14.6.294 0 .547-.007.76-.02.227-.027.434-.053.62-.08.187-.04.367-.073.54-.1v-2.98h-2.7v-2.52zm9.053 8.02v-14.28h3.02v11.78h5.8v2.5h-8.82zm20.229-8.18c0 .813-.06 1.627-.18 2.44-.12.8-.334 1.56-.64 2.28a6.003 6.003 0 01-1.26 1.9c-.534.547-1.22.98-2.06 1.3-.827.307-1.834.46-3.02.46-.28 0-.607-.013-.98-.04a5.627 5.627 0 01-.94-.1v-2.42c.266.053.546.1.84.14.293.04.586.06.88.06.893 0 1.626-.107 2.2-.32.586-.213 1.046-.52 1.38-.92.333-.4.573-.873.72-1.42.16-.547.253-1.147.28-1.8h-.12a4.1 4.1 0 01-.68.84c-.254.253-.58.453-.98.6-.387.147-.887.22-1.5.22-.814 0-1.52-.173-2.12-.52a3.648 3.648 0 01-1.4-1.54c-.334-.68-.5-1.5-.5-2.46 0-1.04.193-1.927.58-2.66.4-.747.966-1.313 1.7-1.7.733-.4 1.593-.6 2.58-.6.733 0 1.413.127 2.04.38a4.36 4.36 0 011.66 1.16c.48.507.853 1.153 1.12 1.94.266.787.4 1.713.4 2.78zm-5.16-3.84c-.587 0-1.067.2-1.44.6-.374.4-.56 1.033-.56 1.9 0 .693.16 1.24.48 1.64.32.4.806.6 1.46.6.453 0 .84-.1 1.16-.3.333-.2.593-.447.78-.74.186-.307.28-.62.28-.94 0-.333-.047-.66-.14-.98a2.975 2.975 0 00-.42-.9 2.026 2.026 0 00-.66-.64c-.267-.16-.58-.24-.94-.24zm16.585 4.88c0 1.147-.093 2.173-.28 3.08-.173.907-.46 1.68-.86 2.32a3.896 3.896 0 01-1.54 1.44c-.627.333-1.4.5-2.32.5-1.147 0-2.087-.293-2.82-.88-.733-.587-1.28-1.427-1.64-2.52-.347-1.093-.52-2.407-.52-3.94 0-1.547.16-2.867.48-3.96.32-1.093.847-1.933 1.58-2.52.733-.587 1.707-.88 2.92-.88 1.147 0 2.087.293 2.82.88.733.573 1.28 1.413 1.64 2.52.36 1.093.54 2.413.54 3.96zm-6.98 0c0 1.08.06 1.987.18 2.72.12.72.32 1.267.6 1.64.293.36.693.54 1.2.54s.9-.18 1.18-.54c.293-.36.5-.9.62-1.62.133-.733.2-1.647.2-2.74 0-1.093-.067-2-.2-2.72-.12-.733-.327-1.28-.62-1.64-.28-.373-.673-.56-1.18-.56-.507 0-.907.187-1.2.56-.28.36-.48.907-.6 1.64-.12.72-.18 1.627-.18 2.72zm9.425-8.32h16.68v1.94h-16.68v-1.94zm.74 14.74h15.3v1.96h-15.3v-1.96zm3.44-11.94h8.16v1.68h-8.16v-1.68zm0 2.56h8.16v1.68h-8.16v-1.68zM204.3 184H223v1.96h-18.7V184zm4.54 3.64h9.66v1.88h-9.66v-1.88zm-.72-13.08h2.42v10.52h-2.42v-10.52zm8.72.02h2.44v10.5h-2.44v-10.5zm-4.46 11.8h2.46v5.58h-2.46v-5.58zm-3.02-1.82l2 .74c-1.28 2.12-3.44 4-5.72 5.02-.34-.56-1.02-1.4-1.52-1.84 2.08-.76 4.18-2.3 5.24-3.92zm8.68 0c1.06 1.54 3.12 2.98 5.18 3.72-.52.44-1.22 1.3-1.58 1.86-2.16-.96-4.24-2.86-5.5-4.86l1.9-.72zm8.68-8.54h5.12v1.6h-5.12v-1.6zm1.9-1.48l2.1.26c-.4.84-.74 1.6-1.04 2.16l-1.78-.28c.26-.64.56-1.5.72-2.14zm-2.76 1.48h1.88v3.72c0 2.18-.34 5.18-2.18 7.1-.3-.36-1.08-1.02-1.5-1.24 1.62-1.7 1.8-4.06 1.8-5.9v-3.68zm9.68-.76h3.88v1.66h-3.88v-1.66zm-1.56 4.94h6.16v1.62h-6.16v-1.62zm.72-4.94h1.86v1.38c0 1.36-.4 2.9-2.12 3.94-.24-.4-.96-1.2-1.32-1.46 1.38-.76 1.58-1.66 1.58-2.52v-1.34zm-3.84.76h1.94v8.2c0 .9-.14 1.42-.7 1.72-.56.3-1.32.32-2.36.32-.06-.52-.28-1.3-.54-1.8.6.02 1.2.02 1.4.02.2 0 .26-.08.26-.28v-8.18zm-6.5 4.26c2.34-.06 5.88-.22 9.26-.36l-.04 1.72c-3.28.18-6.7.34-9.12.46l-.1-1.82zm3.72-2.04l1.38-.46c.36.56.7 1.32.86 1.8l-1.44.54c-.14-.5-.48-1.3-.8-1.88zm.32 4h1.48v2.78h-1.48v-2.78zm9.98-6.98h1.9v2.46c0 .42.02.46.24.46h.44c.24 0 .32-.16.36-1.32.34.28 1.12.54 1.6.66-.16 1.8-.64 2.3-1.7 2.3h-1.06c-1.4 0-1.78-.5-1.78-2.08v-2.48zm1.22 4.94h.44l.36-.04 1.2.5c-1.16 3.38-3.92 4.96-7.4 5.72-.22-.5-.76-1.38-1.1-1.74 3.18-.5 5.62-1.7 6.5-4.18v-.26zm-3.3 1.48c1.14 1.66 3.56 2.64 6.72 2.94-.46.44-1.02 1.26-1.28 1.82-3.48-.54-5.92-1.92-7.32-4.26l1.88-.5zm-11.82 9.2h18.32v1.88h-18.32v-1.88zm2.24-4.26h13.82v5.18h-2.36v-3.36h-1.64v3.36h-2.18v-3.36h-1.62v3.36h-2.2v-3.36h-1.58v3.36h-2.24v-5.18zm45.981 4.92h-3.02v-9.1c.014-.333.027-.68.04-1.04.014-.36.027-.68.04-.96-.066.08-.213.227-.44.44-.213.2-.413.38-.6.54l-1.64 1.32-1.46-1.82 4.6-3.66h2.48v14.28zm4.326-1.4c0-.613.166-1.04.5-1.28.333-.253.74-.38 1.22-.38.466 0 .866.127 1.2.38.333.24.5.667.5 1.28 0 .587-.167 1.013-.5 1.28-.334.253-.734.38-1.2.38-.48 0-.887-.127-1.22-.38-.334-.267-.5-.693-.5-1.28zm15.663-1.56h-1.72v2.96h-2.94v-2.96h-6.1v-2.1l6.26-9.22h2.78v8.98h1.72v2.34zm-4.66-4.76v-.8l.04-.94c.013-.32.027-.6.04-.84.013-.253.027-.427.04-.52h-.08c-.12.267-.247.527-.38.78a7.233 7.233 0 01-.48.78l-2.62 3.96h3.44v-2.42zm7.225 7.72l5.36-11.74h-7.04v-2.54h10.24v1.9l-5.4 12.38h-3.16zm10.785 4.8v-15.72h2.98V187c0 .773.14 1.36.42 1.76.294.4.747.6 1.36.6.56 0 1-.14 1.32-.42.334-.28.567-.687.7-1.22.147-.533.22-1.187.22-1.96v-5.14h2.98v7.46c0 .453.08.76.24.92.174.16.367.24.58.24.094 0 .2-.013.32-.04l.26-.06v2.34c-.066.04-.18.08-.34.12a5.23 5.23 0 01-.52.1c-.173.027-.333.04-.48.04-.666 0-1.22-.12-1.66-.36-.426-.253-.753-.687-.98-1.3h-.14c-.173.36-.386.667-.64.92-.253.24-.533.42-.84.54-.293.133-.613.2-.96.2-.266 0-.52-.033-.76-.1a2.084 2.084 0 01-.62-.3 2.44 2.44 0 01-.5-.48h-.06c.027.133.047.347.06.64.014.28.02.573.02.88.014.32.02.6.02.84v3.12h-2.98zm26.395-15.92c1.24 0 2.173.32 2.8.96.64.627.96 1.64.96 3.04v7.12h-2.98v-6.38c0-.787-.134-1.373-.4-1.76-.267-.4-.68-.6-1.24-.6-.787 0-1.347.28-1.68.84-.334.56-.5 1.367-.5 2.42v5.48h-2.98v-6.38c0-.52-.06-.953-.18-1.3-.12-.347-.3-.607-.54-.78-.24-.187-.547-.28-.92-.28-.547 0-.98.14-1.3.42-.32.28-.547.687-.68 1.22-.134.533-.2 1.187-.2 1.96v5.14h-2.98v-10.92h2.28l.4 1.4h.16c.226-.373.506-.673.84-.9.333-.24.7-.413 1.1-.52.413-.12.826-.18 1.24-.18.8 0 1.48.133 2.04.4.56.253.986.653 1.28 1.2h.26c.333-.56.793-.967 1.38-1.22.6-.253 1.213-.38 1.84-.38z" fill="#E6CD92"/><mask id="c" style="mask-type:alpha" maskUnits="userSpaceOnUse" x="127" y="212" width="267" height="44"><path fill="#D9D9D9" d="M127.262 212.085H394v43.138H127.262z"/></mask><g mask="url(#c)"><path fill="#000" d="M33.919 233.574l226.335-36.604 226.336 36.604-226.336 36.604z"/></g><path d="M165.221 237.957c0 .84-.206 1.573-.62 2.2-.413.627-1.013 1.113-1.8 1.46-.773.333-1.72.5-2.84.5a10.552 10.552 0 01-2.82-.38 8.89 8.89 0 01-1.22-.48v-2.82c.68.293 1.38.567 2.1.82.734.24 1.46.36 2.18.36.494 0 .887-.067 1.18-.2.307-.133.527-.313.66-.54.147-.227.22-.487.22-.78 0-.36-.126-.667-.38-.92-.24-.253-.566-.487-.98-.7a26.718 26.718 0 00-1.42-.72c-.333-.16-.693-.347-1.08-.56a7.12 7.12 0 01-1.12-.82 4.188 4.188 0 01-.86-1.2c-.226-.467-.34-1.027-.34-1.68 0-.853.194-1.58.58-2.18.4-.613.96-1.08 1.68-1.4.734-.32 1.594-.48 2.58-.48.747 0 1.454.087 2.12.26.68.173 1.387.42 2.12.74l-.98 2.36a16.762 16.762 0 00-1.76-.62 5.851 5.851 0 00-1.6-.22c-.373 0-.693.06-.96.18-.266.12-.473.287-.62.5-.133.213-.2.467-.2.76 0 .333.1.62.3.86.2.227.5.447.9.66.4.213.9.467 1.5.76.734.347 1.354.707 1.86 1.08.52.373.92.813 1.2 1.32.28.507.42 1.133.42 1.88zm2.596 3.96v-14.28h3.02v11.78h5.8v2.5h-8.82zm22.849 0h-3.46l-3.32-5.4-3.32 5.4h-3.24l4.74-7.36-4.44-6.92h3.34l3.08 5.14 3.02-5.14h3.26l-4.48 7.08 4.82 7.2zm2.22 0l5.36-11.74h-7.04v-2.54h10.24v1.9l-5.4 12.38h-3.16zm14.945-14.46c.827 0 1.58.127 2.26.38.693.253 1.247.633 1.66 1.14.427.507.64 1.147.64 1.92 0 .573-.113 1.08-.34 1.52-.227.427-.533.8-.92 1.12-.373.32-.807.6-1.3.84.507.267.987.58 1.44.94.467.347.84.76 1.12 1.24.293.467.44 1.02.44 1.66 0 .787-.213 1.473-.64 2.06-.413.587-1 1.04-1.76 1.36-.747.32-1.613.48-2.6.48-1.067 0-1.973-.153-2.72-.46-.747-.307-1.32-.747-1.72-1.32-.387-.573-.58-1.253-.58-2.04 0-.653.12-1.22.36-1.7.253-.48.587-.893 1-1.24.413-.36.873-.66 1.38-.9a7.12 7.12 0 01-1.16-.9 4.427 4.427 0 01-.84-1.16c-.2-.44-.3-.947-.3-1.52 0-.76.213-1.393.64-1.9.427-.507.987-.887 1.68-1.14a6.656 6.656 0 012.26-.38zm-2.22 10.66c0 .52.18.947.54 1.28.373.333.92.5 1.64.5.507 0 .92-.073 1.24-.22.333-.147.58-.353.74-.62.173-.267.26-.573.26-.92 0-.36-.107-.673-.32-.94a3.27 3.27 0 00-.8-.74 9.134 9.134 0 00-.96-.62l-.26-.14c-.413.187-.78.4-1.1.64a2.88 2.88 0 00-.72.8c-.173.28-.26.607-.26.98zm2.2-8.46c-.493 0-.907.127-1.24.38-.32.253-.48.613-.48 1.08 0 .32.08.607.24.86.16.24.373.453.64.64.267.173.553.34.86.5.307-.147.587-.307.84-.48.267-.173.48-.38.64-.62.16-.253.24-.553.24-.9 0-.467-.167-.827-.5-1.08-.32-.253-.733-.38-1.24-.38zm13.045 12.26h-3.02v-11.76h-3.88v-2.52h10.78v2.52h-3.88v11.76zm11.973 0h-3.02v-11.76h-3.88v-2.52h10.78v2.52h-3.88v11.76zm15.477-9.12c.867 0 1.64.167 2.32.5.68.333 1.213.82 1.6 1.46.4.64.6 1.433.6 2.38 0 1.027-.213 1.913-.64 2.66-.427.747-1.067 1.32-1.92 1.72-.84.4-1.887.6-3.14.6-.747 0-1.453-.067-2.12-.2a6.68 6.68 0 01-1.72-.58v-2.6a9.128 9.128 0 001.78.66c.693.173 1.347.26 1.96.26.6 0 1.1-.08 1.5-.24.413-.16.727-.407.94-.74.213-.333.32-.76.32-1.28 0-.707-.233-1.24-.7-1.6-.467-.373-1.187-.56-2.16-.56-.373 0-.76.04-1.16.12-.4.067-.733.133-1 .2l-1.2-.64.54-7.28h7.74v2.56h-5.1l-.26 2.8c.227-.04.467-.08.72-.12.267-.053.633-.08 1.1-.08zm6.585 7.72c0-.613.167-1.04.5-1.28.334-.253.74-.38 1.22-.38.467 0 .867.127 1.2.38.334.24.5.667.5 1.28 0 .587-.166 1.013-.5 1.28-.333.253-.733.38-1.2.38-.48 0-.886-.127-1.22-.38-.333-.267-.5-.693-.5-1.28zm10.564-7.72c.866 0 1.64.167 2.32.5.68.333 1.213.82 1.6 1.46.4.64.6 1.433.6 2.38 0 1.027-.214 1.913-.64 2.66-.427.747-1.067 1.32-1.92 1.72-.84.4-1.887.6-3.14.6-.747 0-1.454-.067-2.12-.2a6.666 6.666 0 01-1.72-.58v-2.6a9.103 9.103 0 001.78.66c.693.173 1.346.26 1.96.26.6 0 1.1-.08 1.5-.24.413-.16.726-.407.94-.74.213-.333.32-.76.32-1.28 0-.707-.234-1.24-.7-1.6-.467-.373-1.187-.56-2.16-.56-.374 0-.76.04-1.16.12-.4.067-.734.133-1 .2l-1.2-.64.54-7.28h7.74v2.56h-5.1l-.26 2.8c.226-.04.466-.08.72-.12.266-.053.633-.08 1.1-.08zm13.705 9.12h-3.02v-9.1l.04-1.04c.013-.36.027-.68.04-.96-.067.08-.213.227-.44.44-.213.2-.413.38-.6.54l-1.64 1.32-1.46-1.82 4.6-3.66h2.48v14.28zm4.745 4.8v-15.72h2.98v6.38c0 .773.14 1.36.42 1.76.294.4.747.6 1.36.6.56 0 1-.14 1.32-.42.334-.28.567-.687.7-1.22.147-.533.22-1.187.22-1.96v-5.14h2.98v7.46c0 .453.08.76.24.92.174.16.367.24.58.24.094 0 .2-.013.32-.04l.26-.06v2.34c-.066.04-.18.08-.34.12a5.23 5.23 0 01-.52.1c-.173.027-.333.04-.48.04-.666 0-1.22-.12-1.66-.36-.426-.253-.753-.687-.98-1.3h-.14c-.173.36-.386.667-.64.92-.253.24-.533.42-.84.54-.293.133-.613.2-.96.2-.266 0-.52-.033-.76-.1a2.084 2.084 0 01-.62-.3 2.44 2.44 0 01-.5-.48h-.06c.027.133.047.347.06.64.014.28.02.573.02.88.014.32.02.6.02.84v3.12h-2.98zm26.394-15.92c1.24 0 2.174.32 2.8.96.64.627.96 1.64.96 3.04v7.12h-2.98v-6.38c0-.787-.133-1.373-.4-1.76-.266-.4-.68-.6-1.24-.6-.786 0-1.346.28-1.68.84-.333.56-.5 1.367-.5 2.42v5.48h-2.98v-6.38c0-.52-.06-.953-.18-1.3-.12-.347-.3-.607-.54-.78-.24-.187-.546-.28-.92-.28-.546 0-.98.14-1.3.42-.32.28-.546.687-.68 1.22-.133.533-.2 1.187-.2 1.96v5.14h-2.98v-10.92h2.28l.4 1.4h.16c.227-.373.507-.673.84-.9.334-.24.7-.413 1.1-.52.414-.12.827-.18 1.24-.18.8 0 1.48.133 2.04.4.56.253.987.653 1.28 1.2h.26c.334-.56.794-.967 1.38-1.22.6-.253 1.214-.38 1.84-.38z" fill="#E6CD92"/><mask id="d" style="mask-type:alpha" maskUnits="userSpaceOnUse" x="127" y="318" width="267" height="44"><path fill="#D9D9D9" d="M127.26 318.49h266.738v43.138H127.26z"/></mask><g mask="url(#d)"><path fill="#000" d="M33.9 339.979l226.336-36.604L486.57 339.98l-226.335 36.604z"/></g><path d="M165.465 335.593h6.78v2.02h-6.78v-2.02zm-2.46 11.98c1.68-.3 4.14-.82 6.48-1.36l.26 2.24a302 302 0 01-6.08 1.44l-.66-2.32zm2.52-15.5h7.98v9.08h-7.98v-2.1h5.68v-4.86h-5.68v-2.12zm4.34 8.38c.66 3.5 2.04 6.44 4.8 7.72-.52.44-1.2 1.36-1.54 2-3.12-1.68-4.54-5.04-5.32-9.42l2.06-.3zm2.82 1.22l1.62 1.64c-1.04.82-2.32 1.7-3.26 2.24l-1.32-1.42c.9-.6 2.2-1.66 2.96-2.46zm-8.16-9.6h2.26v15.84l-2.26.4v-16.24zm-7.52 4.22h6.22v2h-6.22v-2zm-.86 3.48h7.52v2.04h-7.52v-2.04zm.16 3.18l1.56-.4c.36 1.1.68 2.52.78 3.44l-1.66.46c-.06-.96-.36-2.38-.68-3.5zm-.48 4.58c2.02-.28 5.06-.74 7.96-1.22l.14 2.02c-2.64.5-5.48 1-7.62 1.36l-.48-2.16zm6.12-5.16l1.82.44c-.4 1.2-.8 2.52-1.12 3.36l-1.44-.42c.28-.92.62-2.38.74-3.38zm-3.02-5.22h2.08v10.74l-2.08.36v-11.1zm0-5.82h1.3v.44h.68v.66c-.82 1.52-2.12 3.6-4.22 5.38-.32-.5-1-1.28-1.46-1.6 1.8-1.44 3.02-3.32 3.7-4.88zm.3 0h1.68c1.24 1.02 2.8 2.52 3.54 3.58l-1.56 1.86c-.64-1.06-2.08-2.8-3.24-3.74h-.42v-1.7zm30 2h2.52v13.76c0 1.44-.34 2.16-1.3 2.54-1 .42-2.46.46-4.52.46-.14-.72-.62-1.9-1-2.56 1.44.1 3.18.08 3.66.08.48-.02.64-.16.64-.58v-13.7zm-11.44 4h2.34v9.32h-2.34v-9.32zm1 0h7.54v7.78h-7.54v-2.28h5.16v-3.22h-5.16v-2.28zm-2.84-4.66h18.12v2.42h-18.12v-2.42zm20.18.38h17.78v2.22h-17.78v-2.22zm7.6-1.72h2.48v2.64h-2.48v-2.64zm2.68 2.62h2.34v4.92c0 1.04-.16 1.6-.88 1.94-.68.34-1.6.36-2.8.36-.1-.64-.38-1.5-.66-2.12.7.02 1.46.02 1.7.02s.3-.04.3-.26v-4.86zm-4.06-.3h2.24v1.58c0 2.1-.34 4.82-3.3 6.68-.36-.5-1.2-1.28-1.74-1.64 2.52-1.48 2.8-3.52 2.8-5.1v-1.52zm6.96 3.28l1.86-1.08c1.14 1.12 2.54 2.7 3.18 3.78l-2 1.2c-.56-1.08-1.9-2.72-3.04-3.9zm-10.62-1l2.24.6c-.84 1.58-2.16 3.2-3.56 4.16-.42-.42-1.18-1.06-1.66-1.38 1.28-.8 2.44-2.18 2.98-3.38zm3.32 7.22c2.04 3 6.4 4.4 12.5 4.7-.5.56-1.1 1.58-1.4 2.26-6.42-.54-10.62-2.34-13.24-6.28l2.14-.68zm.5-2.68l2.5.48c-1.62 2.32-3.9 4.16-7.36 5.56-.32-.56-1-1.42-1.5-1.78 3.2-1.06 5.28-2.64 6.36-4.26zm-.04 1.46h7.08v1.9h-8.76l1.68-1.9zm6.42 0h.52l.4-.08 1.56 1.04c-2.58 4.64-8.34 6.54-14.68 7.26-.2-.58-.72-1.64-1.14-2.14 6.14-.48 11.42-2.04 13.34-5.7v-.38zm12.64-8.84h7.06v1.9h-7.06v-1.9zm.32 3.04h6.34v1.88h-6.34v-1.88zm6.74-.46h5.78v2.14h-5.78v-2.14zm-4.6-4.34h2.06v6.1h-2.06v-6.1zm-.04 9.02v1.48h2.04v-1.48h-2.04zm-1.94-1.66h6v4.78h-6v-4.78zm.04 5.54l1.8-.48c.34.9.7 2.08.78 2.82l-1.94.54c-.06-.74-.34-1.96-.64-2.88zm6.28-4.54l1.72-.54c.54 1.64 1.02 3.74 1.14 5.02l-1.86.66c-.1-1.32-.52-3.48-1-5.14zm-2.3 3.96l2.16.52c-.46 1.26-.94 2.56-1.32 3.42l-1.8-.48c.36-.94.76-2.4.96-3.46zm-5.06 4.06c1.98-.26 4.94-.68 7.8-1.1l.12 1.94c-2.56.44-5.32.86-7.36 1.2l-.56-2.04zm10.08-16.32h2.2v16.22c0 1.08-.2 1.7-.8 2.06-.62.36-1.5.46-2.76.46-.06-.6-.38-1.58-.68-2.2.74.04 1.46.04 1.7.04.26-.02.34-.1.34-.36v-16.22zm-15.18 4.08h5.62v2.2h-5.62v-2.2zm1.98-4.14h2.08v18.78h-2.08v-18.78zm.04 5.66l1.14.4c-.44 3.12-1.42 7.04-2.64 9.08-.2-.58-.66-1.46-.98-1.96 1.12-1.72 2.1-4.96 2.48-7.52zm1.94 1.06c.36.56 1.8 3.1 2.1 3.68l-1.08 1.68c-.36-1.16-1.38-3.54-1.82-4.48l.8-.88zm17.78-6.04h4.1v2.18h-4.1v-2.18zm.1 4.58h3.78v2.16h-3.78v-2.16zm0 4.64h3.76v2.24h-3.76v-2.24zm-1.04-9.22h2.1v7.3c0 3.2-.18 7.86-1.46 10.84-.42-.34-1.36-.86-1.9-1.06 1.18-2.78 1.26-6.82 1.26-9.76v-7.32zm3.98 0h2.18v15.5c0 1.04-.16 1.72-.76 2.1-.62.38-1.4.44-2.64.44-.04-.6-.3-1.66-.6-2.26.64.04 1.3.02 1.52.02.22-.02.3-.1.3-.34v-15.46zm3.5 8.78h9.3v9.22h-2.34v-7.24h-4.72v7.32h-2.24v-9.3zm7.5-8.68l1.74 1.8c-2.2 1.06-5.24 1.82-7.84 2.32-.12-.5-.46-1.34-.74-1.84 2.48-.52 5.2-1.38 6.84-2.28zm-6.6 15.26h7.28v1.98h-7.28v-1.98zm0-3.28h7.28v1.86h-7.28v-1.86zm-1.04-12.56h2.28v5.22c0 .7.18.8 1.32.8h3.38c.94 0 1.1-.28 1.22-2.18.48.36 1.46.7 2.1.84-.3 2.76-.96 3.46-3.12 3.46h-3.8c-2.7 0-3.38-.66-3.38-2.9v-5.24zm22.176 7.66c.866 0 1.64.167 2.32.5.68.334 1.213.82 1.6 1.46.4.64.6 1.434.6 2.38 0 1.027-.214 1.914-.64 2.66-.427.747-1.067 1.32-1.92 1.72-.84.4-1.887.6-3.14.6-.747 0-1.454-.066-2.12-.2a6.629 6.629 0 01-1.72-.58v-2.6c.493.254 1.086.474 1.78.66.693.174 1.346.26 1.96.26.6 0 1.1-.08 1.5-.24.413-.16.726-.406.94-.74.213-.333.32-.76.32-1.28 0-.706-.234-1.24-.7-1.6-.467-.373-1.187-.56-2.16-.56-.374 0-.76.04-1.16.12-.4.067-.734.134-1 .2l-1.2-.64.54-7.28h7.74v2.56h-5.1l-.26 2.8c.226-.04.466-.08.72-.12.266-.053.633-.08 1.1-.08zm15.665-1.96c0 .654-.14 1.22-.42 1.7-.267.48-.633.874-1.1 1.18a4.834 4.834 0 01-1.56.68v.06c1.147.134 2.013.48 2.6 1.04.6.56.9 1.314.9 2.26 0 .827-.207 1.574-.62 2.24-.4.654-1.027 1.174-1.88 1.56-.84.374-1.927.56-3.26.56-.787 0-1.52-.066-2.2-.2a9.673 9.673 0 01-1.92-.58v-2.56c.613.307 1.253.54 1.92.7.68.16 1.307.24 1.88.24 1.08 0 1.833-.186 2.26-.56.44-.373.66-.9.66-1.58 0-.4-.1-.733-.3-1-.2-.28-.553-.486-1.06-.62-.493-.146-1.187-.22-2.08-.22h-1.08v-2.32h1.1c.88 0 1.547-.08 2-.24.467-.173.78-.4.94-.68.173-.293.26-.626.26-1 0-.506-.16-.9-.48-1.18-.307-.293-.827-.44-1.56-.44-.453 0-.867.06-1.24.18-.373.107-.713.24-1.02.4a12.7 12.7 0 00-.78.46l-1.4-2.08a8.061 8.061 0 011.24-.72c.467-.213.98-.38 1.54-.5s1.187-.18 1.88-.18c1.467 0 2.627.3 3.48.9.867.587 1.3 1.42 1.3 2.5zm11.445 0c0 .654-.14 1.22-.42 1.7-.266.48-.633.874-1.1 1.18a4.834 4.834 0 01-1.56.68v.06c1.147.134 2.014.48 2.6 1.04.6.56.9 1.314.9 2.26 0 .827-.206 1.574-.62 2.24-.4.654-1.026 1.174-1.88 1.56-.84.374-1.926.56-3.26.56-.786 0-1.52-.066-2.2-.2a9.673 9.673 0 01-1.92-.58v-2.56c.614.307 1.254.54 1.92.7.68.16 1.307.24 1.88.24 1.08 0 1.834-.186 2.26-.56.44-.373.66-.9.66-1.58 0-.4-.1-.733-.3-1-.2-.28-.553-.486-1.06-.62-.493-.146-1.186-.22-2.08-.22h-1.08v-2.32h1.1c.88 0 1.547-.08 2-.24.467-.173.78-.4.94-.68a1.92 1.92 0 00.26-1c0-.506-.16-.9-.48-1.18-.306-.293-.826-.44-1.56-.44-.453 0-.866.06-1.24.18-.373.107-.713.24-1.02.4a12.7 12.7 0 00-.78.46l-1.4-2.08a8.11 8.11 0 011.24-.72c.467-.213.98-.38 1.54-.5s1.187-.18 1.88-.18c1.467 0 2.627.3 3.48.9.867.587 1.3 1.42 1.3 2.5zm2.786 15.88v-15.72h2.98v6.38c0 .774.14 1.36.42 1.76.293.4.746.6 1.36.6.56 0 1-.14 1.32-.42.333-.28.566-.686.7-1.22.146-.533.22-1.186.22-1.96v-5.14h2.98v7.46c0 .454.08.76.24.92.173.16.366.24.58.24.093 0 .2-.013.32-.04.12-.026.206-.046.26-.06v2.34c-.067.04-.18.08-.34.12-.16.04-.334.074-.52.1-.174.027-.334.04-.48.04-.667 0-1.22-.12-1.66-.36-.427-.253-.754-.686-.98-1.3h-.14c-.174.36-.387.667-.64.92a2.6 2.6 0 01-.84.54c-.294.134-.614.2-.96.2-.267 0-.52-.033-.76-.1a2.015 2.015 0 01-.62-.3 2.39 2.39 0 01-.5-.48h-.06c.026.134.046.347.06.64.013.28.02.574.02.88.013.32.02.6.02.84v3.12h-2.98zm26.394-15.92c1.24 0 2.173.32 2.8.96.64.627.96 1.64.96 3.04v7.12h-2.98v-6.38c0-.786-.134-1.373-.4-1.76-.267-.4-.68-.6-1.24-.6-.787 0-1.347.28-1.68.84-.334.56-.5 1.367-.5 2.42v5.48h-2.98v-6.38c0-.52-.06-.953-.18-1.3-.12-.346-.3-.606-.54-.78-.24-.186-.547-.28-.92-.28-.547 0-.98.14-1.3.42-.32.28-.547.687-.68 1.22-.134.534-.2 1.187-.2 1.96v5.14h-2.98v-10.92h2.28l.4 1.4h.16c.226-.373.506-.673.84-.9.333-.24.7-.413 1.1-.52.413-.12.826-.18 1.24-.18.8 0 1.48.134 2.04.4.56.254.986.654 1.28 1.2h.26a2.92 2.92 0 011.38-1.22c.6-.253 1.213-.38 1.84-.38z" fill="#E6CD92"/><rect width="104.251" height="465.893" rx="52.125" fill="#F5F5F5"/><circle cx="52.115" cy="43.574" fill="#fff" r="29.837"/><path d="M38.183 30.855h28.704v3.232H38.183v-3.232zm7.008-1.888h3.808v7.04h-3.808v-7.04zm10.656 0h3.808v7.04h-3.808v-7.04zm-9.568 8.096h20.256v2.624H46.279v-2.624zm-.384 13.28h21.056v2.912H45.895v-2.912zm8.608-15.04h3.488v12.736h-3.488V35.303zm-15.648 2.72l2.144-2.528c1.824.736 4.224 2.016 5.472 3.008l-2.272 2.848c-1.12-1.024-3.52-2.432-5.344-3.328zm-1.408 5.984l2.112-2.592c1.856.768 4.32 2.112 5.568 3.104l-2.24 2.88c-1.152-1.024-3.552-2.496-5.44-3.392zm10.464 10.304l2.4-2.08c1.376.928 3.104 2.304 3.936 3.296l-2.56 2.304c-.736-1.024-2.4-2.528-3.776-3.52zm-9.76 2.208c1.344-1.888 3.264-4.896 4.8-7.744l2.656 2.24c-1.312 2.56-2.912 5.376-4.384 7.808l-3.072-2.304zm22.24-20.896l1.664-1.952c1.344.512 2.912 1.44 3.776 2.112l-1.728 2.208c-.864-.768-2.464-1.792-3.712-2.368zm-9.376 10.272v1.312h10.464v-1.312H51.015zm0-3.072v1.28h10.464v-1.28H51.015zm-3.328-1.984h17.248v8.352H47.687v-8.352zm10.272 7.648h3.616v7.136c0 1.6-.256 2.432-1.376 2.944-1.088.48-2.528.48-4.48.48-.128-.96-.576-2.208-.992-3.136 1.12.032 2.368.064 2.752.032.352 0 .48-.096.48-.416v-7.04z" fill="#666"/><circle cx="52.115" cy="422.398" fill="#fff" r="29.837"/><path d="M43.591 429.452h23.584v2.944H43.591v-2.944zm2.208-5.152h15.52v2.56h-15.52v-2.56zm3.872-4.8v1.312h10.72V419.5h-10.72zm0-3.456v1.28h10.72v-1.28h-10.72zm-3.616-2.336h18.112v9.44H46.055v-9.44zm7.232 14.176h3.776v6.528c0 1.728-.416 2.56-1.792 3.008-1.376.448-3.264.48-5.792.448-.224-.928-.8-2.24-1.28-3.104 1.696.096 3.84.096 4.352.064.544 0 .736-.128.736-.544v-6.4zm7.456-3.584h.928l.8-.192 2.208 2.016c-2.336 1.568-5.376 3.168-8.224 4.256-.384-.608-1.248-1.536-1.696-2.016 2.144-.832 4.736-2.336 5.984-3.424v-.64zm-18.464-15.232h24.64v3.488h-24.64v-3.488zm-2.24 0h3.808v9.856c0 5.504-.448 13.696-3.36 18.944-.736-.608-2.4-1.536-3.36-1.888 2.72-4.864 2.912-12 2.912-17.056v-9.856zm-6.292-26.166h-3.02v-9.1l.04-1.04c.013-.36.027-.68.04-.96-.067.08-.213.227-.44.44-.213.2-.414.38-.6.54l-1.64 1.32-1.46-1.82 4.6-3.66h2.48v14.28zm17.565-11.12c1.24 0 2.174.32 2.8.96.64.627.96 1.64.96 3.04v7.12h-2.98v-6.38c0-.786-.133-1.373-.4-1.76-.267-.4-.68-.6-1.24-.6-.786 0-1.346.28-1.68.84-.333.56-.5 1.367-.5 2.42v5.48h-2.98v-6.38c0-.52-.06-.953-.18-1.3-.12-.346-.3-.606-.54-.78-.24-.186-.547-.28-.92-.28-.547 0-.98.14-1.3.42-.32.28-.546.687-.68 1.22-.133.534-.2 1.187-.2 1.96v5.14h-2.98v-10.92h2.28l.4 1.4h.16c.227-.373.507-.673.84-.9.334-.24.7-.413 1.1-.52a4.43 4.43 0 011.24-.18c.8 0 1.48.134 2.04.4.56.254.987.654 1.28 1.2h.26c.334-.56.794-.966 1.38-1.22.6-.253 1.213-.38 1.84-.38zm19.649 0c1.24 0 2.173.32 2.8.96.64.627.96 1.64.96 3.04v7.12h-2.98v-6.38c0-.786-.134-1.373-.4-1.76-.267-.4-.68-.6-1.24-.6-.787 0-1.347.28-1.68.84-.334.56-.5 1.367-.5 2.42v5.48h-2.98v-6.38c0-.52-.06-.953-.18-1.3-.12-.346-.3-.606-.54-.78-.24-.186-.547-.28-.92-.28-.547 0-.98.14-1.3.42-.32.28-.547.687-.68 1.22-.134.534-.2 1.187-.2 1.96v5.14h-2.98v-10.92h2.28l.4 1.4h.16c.226-.373.506-.673.84-.9.333-.24.7-.413 1.1-.52.413-.12.826-.18 1.24-.18.8 0 1.48.134 2.04.4.56.254.986.654 1.28 1.2h.26a2.92 2.92 0 011.38-1.22c.6-.253 1.213-.38 1.84-.38zm-40.94-54.804c.867 0 1.64.166 2.32.5a3.76 3.76 0 011.6 1.46c.4.64.6 1.433.6 2.38 0 1.026-.213 1.913-.64 2.66-.426.746-1.066 1.32-1.92 1.72-.84.4-1.886.6-3.14.6a10.83 10.83 0 01-2.12-.2 6.717 6.717 0 01-1.72-.58v-2.6a9.128 9.128 0 001.78.66 8.12 8.12 0 001.96.26c.6 0 1.1-.08 1.5-.24.414-.16.727-.407.94-.74.214-.334.32-.76.32-1.28 0-.707-.233-1.24-.7-1.6-.466-.374-1.186-.56-2.16-.56-.373 0-.76.04-1.16.12-.4.066-.733.133-1 .2l-1.2-.64.54-7.28h7.74v2.56h-5.1l-.26 2.8c.227-.04.467-.08.72-.12.267-.054.634-.08 1.1-.08zm16.146 1.98c0 1.146-.093 2.173-.28 3.08-.173.906-.46 1.68-.86 2.32a3.908 3.908 0 01-1.54 1.44c-.627.333-1.4.5-2.32.5-1.147 0-2.087-.294-2.82-.88-.733-.587-1.28-1.427-1.64-2.52-.347-1.094-.52-2.407-.52-3.94 0-1.547.16-2.867.48-3.96.32-1.094.846-1.934 1.58-2.52.733-.587 1.706-.88 2.92-.88 1.146 0 2.087.293 2.82.88.733.573 1.28 1.413 1.64 2.52.36 1.093.54 2.413.54 3.96zm-6.98 0c0 1.08.06 1.986.18 2.72.12.72.32 1.266.6 1.64.293.36.693.54 1.2.54.506 0 .9-.18 1.18-.54.293-.36.5-.9.62-1.62.133-.734.2-1.647.2-2.74 0-1.094-.067-2-.2-2.72-.12-.734-.327-1.28-.62-1.64-.28-.374-.674-.56-1.18-.56-.507 0-.907.186-1.2.56-.28.36-.48.906-.6 1.64-.12.72-.18 1.626-.18 2.72zm18.425 0c0 1.146-.093 2.173-.28 3.08-.173.906-.46 1.68-.86 2.32a3.908 3.908 0 01-1.54 1.44c-.627.333-1.4.5-2.32.5-1.147 0-2.087-.294-2.82-.88-.733-.587-1.28-1.427-1.64-2.52-.347-1.094-.52-2.407-.52-3.94 0-1.547.16-2.867.48-3.96.32-1.094.847-1.934 1.58-2.52.733-.587 1.707-.88 2.92-.88 1.147 0 2.087.293 2.82.88.733.573 1.28 1.413 1.64 2.52.36 1.093.54 2.413.54 3.96zm-6.98 0c0 1.08.06 1.986.18 2.72.12.72.32 1.266.6 1.64.293.36.693.54 1.2.54s.9-.18 1.18-.54c.293-.36.5-.9.62-1.62.133-.734.2-1.647.2-2.74 0-1.094-.067-2-.2-2.72-.12-.734-.327-1.28-.62-1.64-.28-.374-.673-.56-1.18-.56-.507 0-.907.186-1.2.56-.28.36-.48.906-.6 1.64-.12.72-.18 1.626-.18 2.72zm9.285 11.94v-15.72h2.98v6.38c0 .773.14 1.36.42 1.76.294.4.747.6 1.36.6.56 0 1-.14 1.32-.42.334-.28.567-.687.7-1.22.147-.534.22-1.187.22-1.96v-5.14h2.98v7.46c0 .453.08.76.24.92.174.16.367.24.58.24.094 0 .2-.014.32-.04l.26-.06v2.34c-.066.04-.18.08-.34.12a5.23 5.23 0 01-.52.1 3.26 3.26 0 01-.48.04c-.666 0-1.22-.12-1.66-.36-.426-.254-.753-.687-.98-1.3h-.14c-.173.36-.386.666-.64.92-.253.24-.533.42-.84.54-.293.133-.613.2-.96.2-.266 0-.52-.034-.76-.1a2.074 2.074 0 01-.62-.3 2.47 2.47 0 01-.5-.48h-.06c.027.133.047.346.06.64.014.28.02.573.02.88.014.32.02.6.02.84v3.12h-2.98zm26.395-15.92c1.24 0 2.173.32 2.8.96.64.626.96 1.64.96 3.04v7.12h-2.98v-6.38c0-.787-.134-1.374-.4-1.76-.267-.4-.68-.6-1.24-.6-.787 0-1.347.28-1.68.84-.334.56-.5 1.366-.5 2.42v5.48h-2.98v-6.38c0-.52-.06-.954-.18-1.3-.12-.347-.3-.607-.54-.78-.24-.187-.547-.28-.92-.28-.547 0-.98.14-1.3.42-.32.28-.547.686-.68 1.22-.134.533-.2 1.186-.2 1.96v5.14h-2.98v-10.92h2.28l.4 1.4h.16a2.84 2.84 0 01.84-.9c.333-.24.7-.414 1.1-.52a4.43 4.43 0 011.24-.18c.8 0 1.48.133 2.04.4.56.253.986.653 1.28 1.2h.26c.333-.56.793-.967 1.38-1.22.6-.254 1.213-.38 1.84-.38zm-54.03-45.707h-3.02v-9.1l.04-1.04c.013-.36.026-.68.04-.96a6.85 6.85 0 01-.44.44c-.214.2-.414.38-.6.54l-1.64 1.32-1.46-1.82 4.6-3.66h2.48v14.28zm13.885-7.14c0 1.146-.093 2.173-.28 3.08-.173.906-.46 1.68-.86 2.32a3.908 3.908 0 01-1.54 1.44c-.627.333-1.4.5-2.32.5-1.147 0-2.087-.294-2.82-.88-.733-.587-1.28-1.427-1.64-2.52-.347-1.094-.52-2.407-.52-3.94 0-1.547.16-2.867.48-3.96.32-1.094.846-1.934 1.58-2.52.733-.587 1.706-.88 2.92-.88 1.146 0 2.087.293 2.82.88.733.573 1.28 1.413 1.64 2.52.36 1.093.54 2.413.54 3.96zm-6.98 0c0 1.08.06 1.986.18 2.72.12.72.32 1.266.6 1.64.293.36.693.54 1.2.54.506 0 .9-.18 1.18-.54.293-.36.5-.9.62-1.62.133-.734.2-1.647.2-2.74 0-1.094-.067-2-.2-2.72-.12-.734-.327-1.28-.62-1.64-.28-.374-.674-.56-1.18-.56-.507 0-.907.186-1.2.56-.28.36-.48.906-.6 1.64-.12.72-.18 1.626-.18 2.72zm18.425 0c0 1.146-.093 2.173-.28 3.08-.173.906-.46 1.68-.86 2.32a3.908 3.908 0 01-1.54 1.44c-.627.333-1.4.5-2.32.5-1.147 0-2.087-.294-2.82-.88-.733-.587-1.28-1.427-1.64-2.52-.347-1.094-.52-2.407-.52-3.94 0-1.547.16-2.867.48-3.96.32-1.094.847-1.934 1.58-2.52.733-.587 1.707-.88 2.92-.88 1.147 0 2.087.293 2.82.88.733.573 1.28 1.413 1.64 2.52.36 1.093.54 2.413.54 3.96zm-6.98 0c0 1.08.06 1.986.18 2.72.12.72.32 1.266.6 1.64.293.36.693.54 1.2.54s.9-.18 1.18-.54c.293-.36.5-.9.62-1.62.133-.734.2-1.647.2-2.74 0-1.094-.067-2-.2-2.72-.12-.734-.327-1.28-.62-1.64-.28-.374-.673-.56-1.18-.56-.507 0-.907.186-1.2.56-.28.36-.48.906-.6 1.64-.12.72-.18 1.626-.18 2.72zm9.285 11.94v-15.72h2.98v6.38c0 .773.14 1.36.42 1.76.294.4.747.6 1.36.6.56 0 1-.14 1.32-.42.334-.28.567-.687.7-1.22.147-.534.22-1.187.22-1.96v-5.14h2.98v7.46c0 .453.08.76.24.92.174.16.367.24.58.24.094 0 .2-.014.32-.04l.26-.06v2.34c-.066.04-.18.08-.34.12a5.23 5.23 0 01-.52.1 3.26 3.26 0 01-.48.04c-.666 0-1.22-.12-1.66-.36-.426-.254-.753-.687-.98-1.3h-.14c-.173.36-.386.666-.64.92-.253.24-.533.42-.84.54-.293.133-.613.2-.96.2-.266 0-.52-.034-.76-.1a2.074 2.074 0 01-.62-.3 2.47 2.47 0 01-.5-.48h-.06c.027.133.047.346.06.64.014.28.02.573.02.88.014.32.02.6.02.84v3.12h-2.98zm26.395-15.92c1.24 0 2.173.32 2.8.96.64.626.96 1.64.96 3.04v7.12h-2.98v-6.38c0-.787-.134-1.374-.4-1.76-.267-.4-.68-.6-1.24-.6-.787 0-1.347.28-1.68.84-.334.56-.5 1.366-.5 2.42v5.48h-2.98v-6.38c0-.52-.06-.954-.18-1.3-.12-.347-.3-.607-.54-.78-.24-.187-.547-.28-.92-.28-.547 0-.98.14-1.3.42-.32.28-.547.686-.68 1.22-.134.533-.2 1.186-.2 1.96v5.14h-2.98v-10.92h2.28l.4 1.4h.16a2.84 2.84 0 01.84-.9c.333-.24.7-.414 1.1-.52a4.43 4.43 0 011.24-.18c.8 0 1.48.133 2.04.4.56.253.986.653 1.28 1.2h.26c.333-.56.793-.967 1.38-1.22.6-.254 1.213-.38 1.84-.38zm-54.811-54.743c.867 0 1.64.167 2.32.5a3.77 3.77 0 011.6 1.46c.4.64.6 1.434.6 2.38 0 1.027-.213 1.914-.64 2.66-.427.747-1.067 1.32-1.92 1.72-.84.4-1.887.6-3.14.6-.747 0-1.453-.066-2.12-.2a6.64 6.64 0 01-1.72-.58v-2.6a8.998 8.998 0 001.78.66c.693.174 1.347.26 1.96.26.6 0 1.1-.08 1.5-.24.413-.16.727-.406.94-.74.213-.333.32-.76.32-1.28 0-.706-.233-1.24-.7-1.6-.467-.373-1.187-.56-2.16-.56-.373 0-.76.04-1.16.12-.4.067-.733.134-1 .2l-1.2-.64.54-7.28h7.74v2.56h-5.1l-.26 2.8c.227-.04.467-.08.72-.12.267-.053.633-.08 1.1-.08zm16.145 1.98c0 1.147-.093 2.174-.28 3.08-.173.907-.46 1.68-.86 2.32a3.894 3.894 0 01-1.54 1.44c-.626.334-1.4.5-2.32.5-1.146 0-2.086-.293-2.82-.88-.733-.586-1.28-1.426-1.64-2.52-.346-1.093-.52-2.406-.52-3.94 0-1.546.16-2.866.48-3.96.32-1.093.847-1.933 1.58-2.52.734-.586 1.707-.88 2.92-.88 1.147 0 2.087.294 2.82.88.734.574 1.28 1.414 1.64 2.52.36 1.094.54 2.414.54 3.96zm-6.98 0c0 1.08.06 1.987.18 2.72.12.72.32 1.267.6 1.64.294.36.694.54 1.2.54.507 0 .9-.18 1.18-.54.294-.36.5-.9.62-1.62.134-.733.2-1.646.2-2.74 0-1.093-.066-2-.2-2.72-.12-.733-.326-1.28-.62-1.64-.28-.373-.673-.56-1.18-.56-.506 0-.906.187-1.2.56-.28.36-.48.907-.6 1.64-.12.72-.18 1.627-.18 2.72zm9.286 11.94v-15.72h2.98v6.38c0 .774.14 1.36.42 1.76.293.4.746.6 1.36.6.56 0 1-.14 1.32-.42.333-.28.566-.686.7-1.22.146-.533.22-1.186.22-1.96v-5.14h2.98v7.46c0 .454.08.76.24.92.173.16.366.24.58.24.093 0 .2-.013.32-.04a6.92 6.92 0 00.26-.06v2.34c-.067.04-.18.08-.34.12a4.972 4.972 0 01-1 .14c-.667 0-1.22-.12-1.66-.36-.427-.253-.754-.686-.98-1.3h-.14c-.174.36-.387.667-.64.92a2.6 2.6 0 01-.84.54c-.294.134-.614.2-.96.2-.267 0-.52-.033-.76-.1a2.026 2.026 0 01-.62-.3 2.415 2.415 0 01-.5-.48h-.06c.026.134.046.347.06.64.013.28.02.574.02.88.013.32.02.6.02.84v3.12h-2.98zm26.394-15.92c1.24 0 2.173.32 2.8.96.64.627.96 1.64.96 3.04v7.12h-2.98v-6.38c0-.786-.133-1.373-.4-1.76-.267-.4-.68-.6-1.24-.6-.787 0-1.347.28-1.68.84-.334.56-.5 1.367-.5 2.42v5.48h-2.98v-6.38c0-.52-.06-.953-.18-1.3-.12-.346-.3-.606-.54-.78-.24-.186-.547-.28-.92-.28-.547 0-.98.14-1.3.42-.32.28-.547.687-.68 1.22-.133.534-.2 1.187-.2 1.96v5.14h-2.98v-10.92h2.28l.4 1.4h.16c.227-.373.507-.673.84-.9.333-.24.7-.413 1.1-.52a4.43 4.43 0 011.24-.18c.8 0 1.48.134 2.04.4.56.254.987.654 1.28 1.2h.26a2.92 2.92 0 011.38-1.22c.6-.253 1.213-.38 1.84-.38zm-42.585-45.76h-3.02v-9.1l.04-1.04c.013-.36.027-.68.04-.96-.067.08-.213.227-.44.44-.213.2-.413.38-.6.54l-1.64 1.32-1.46-1.82 4.6-3.66h2.48v14.28zm13.885-7.14c0 1.147-.093 2.174-.28 3.08-.173.907-.46 1.68-.86 2.32a3.894 3.894 0 01-1.54 1.44c-.626.334-1.4.5-2.32.5-1.146 0-2.086-.293-2.82-.88-.733-.586-1.28-1.426-1.64-2.52-.346-1.093-.52-2.406-.52-3.94 0-1.546.16-2.866.48-3.96.32-1.093.847-1.933 1.58-2.52.734-.586 1.707-.88 2.92-.88 1.147 0 2.087.294 2.82.88.734.574 1.28 1.414 1.64 2.52.36 1.094.54 2.414.54 3.96zm-6.98 0c0 1.08.06 1.987.18 2.72.12.72.32 1.267.6 1.64.294.36.694.54 1.2.54.507 0 .9-.18 1.18-.54.294-.36.5-.9.62-1.62.134-.733.2-1.646.2-2.74 0-1.093-.066-2-.2-2.72-.12-.733-.326-1.28-.62-1.64-.28-.373-.673-.56-1.18-.56-.506 0-.906.187-1.2.56-.28.36-.48.907-.6 1.64-.12.72-.18 1.627-.18 2.72zm9.286 11.94v-15.72h2.98v6.38c0 .774.14 1.36.42 1.76.293.4.746.6 1.36.6.56 0 1-.14 1.32-.42.333-.28.566-.686.7-1.22.146-.533.22-1.186.22-1.96v-5.14h2.98v7.46c0 .454.08.76.24.92.173.16.366.24.58.24.093 0 .2-.013.32-.04a6.92 6.92 0 00.26-.06v2.34c-.067.04-.18.08-.34.12a4.972 4.972 0 01-1 .14c-.667 0-1.22-.12-1.66-.36-.427-.253-.754-.686-.98-1.3h-.14c-.174.36-.387.667-.64.92a2.6 2.6 0 01-.84.54c-.294.134-.614.2-.96.2-.267 0-.52-.033-.76-.1a2.026 2.026 0 01-.62-.3 2.415 2.415 0 01-.5-.48h-.06c.026.134.046.347.06.64.013.28.02.574.02.88.013.32.02.6.02.84v3.12h-2.98zm26.394-15.92c1.24 0 2.173.32 2.8.96.64.627.96 1.64.96 3.04v7.12h-2.98v-6.38c0-.786-.133-1.373-.4-1.76-.267-.4-.68-.6-1.24-.6-.787 0-1.347.28-1.68.84-.334.56-.5 1.367-.5 2.42v5.48h-2.98v-6.38c0-.52-.06-.953-.18-1.3-.12-.346-.3-.606-.54-.78-.24-.186-.547-.28-.92-.28-.547 0-.98.14-1.3.42-.32.28-.547.687-.68 1.22-.133.534-.2 1.187-.2 1.96v5.14h-2.98v-10.92h2.28l.4 1.4h.16c.227-.373.507-.673.84-.9.333-.24.7-.413 1.1-.52a4.43 4.43 0 011.24-.18c.8 0 1.48.134 2.04.4.56.254.987.654 1.28 1.2h.26a2.92 2.92 0 011.38-1.22c.6-.253 1.213-.38 1.84-.38zM32.524 89.774c.867 0 1.64.166 2.32.5.68.333 1.213.82 1.6 1.46.4.64.6 1.433.6 2.38 0 1.026-.213 1.913-.64 2.66-.427.746-1.067 1.32-1.92 1.72-.84.4-1.887.6-3.14.6a10.8 10.8 0 01-2.12-.2 6.684 6.684 0 01-1.72-.58v-2.6a9.092 9.092 0 001.78.66c.693.173 1.347.26 1.96.26.6 0 1.1-.08 1.5-.24.413-.16.727-.407.94-.74.213-.334.32-.76.32-1.28 0-.707-.233-1.24-.7-1.6-.467-.374-1.187-.56-2.16-.56-.373 0-.76.04-1.16.12-.4.066-.733.133-1 .2l-1.2-.64.54-7.28h7.74v2.56h-5.1l-.26 2.8c.227-.04.467-.08.72-.12.267-.054.633-.08 1.1-.08zm7.005 13.92v-15.72h2.98v6.38c0 .773.14 1.36.42 1.76.294.4.747.6 1.36.6.56 0 1-.14 1.32-.42.334-.28.567-.687.7-1.22.147-.534.22-1.187.22-1.96v-5.14h2.98v7.46c0 .453.08.76.24.92.174.16.367.24.58.24.094 0 .2-.014.32-.04l.26-.06v2.34c-.066.04-.18.08-.34.12a5.16 5.16 0 01-.52.1 3.18 3.18 0 01-.48.04c-.666 0-1.22-.12-1.66-.36-.426-.254-.753-.687-.98-1.3h-.14c-.173.36-.386.666-.64.92-.253.24-.533.42-.84.54-.293.133-.613.2-.96.2a2.83 2.83 0 01-.76-.1 2.06 2.06 0 01-.62-.3 2.438 2.438 0 01-.5-.48h-.06c.027.133.047.346.06.64.014.28.02.573.02.88.014.32.02.6.02.84v3.12h-2.98zm26.395-15.92c1.24 0 2.173.32 2.8.96.64.626.96 1.64.96 3.04v7.12h-2.98v-6.38c0-.787-.134-1.374-.4-1.76-.267-.4-.68-.6-1.24-.6-.787 0-1.347.28-1.68.84-.334.56-.5 1.366-.5 2.42v5.48h-2.98v-6.38c0-.52-.06-.954-.18-1.3-.12-.347-.3-.607-.54-.78-.24-.187-.547-.28-.92-.28-.547 0-.98.14-1.3.42-.32.28-.547.686-.68 1.22-.134.533-.2 1.186-.2 1.96v5.14h-2.98v-10.92h2.28l.4 1.4h.16a2.84 2.84 0 01.84-.9c.333-.24.7-.414 1.1-.52.413-.12.826-.18 1.24-.18.8 0 1.48.133 2.04.4.56.253.986.653 1.28 1.2h.26c.333-.56.793-.967 1.38-1.22.6-.254 1.213-.38 1.84-.38z" fill="#666"/></svg>