<svg width="967" height="315" fill="none" xmlns="http://www.w3.org/2000/svg"><path d="M777.133 13.155c-1.167.144-1.863.182-2.685.188l.331 2.667c.845-.202 1.438-.3 2.652-.45l3.073-.38.514 4.144-2.454.304c-1.024.127-1.911.188-2.614.179l.325 2.62c.73-.163 1.653-.326 2.605-.444l2.43-.301.611 4.93-3.644.452c-1.024.127-2.102.212-2.852.208l.33 2.668c.703-.184 1.698-.356 2.817-.495l10.384-1.287c1.12-.138 2.079-.209 2.853-.208l-.331-2.668c-.679.181-1.721.359-2.817.495l-4.073.504-.611-4.93 3.073-.38a28.286 28.286 0 0 1 2.611-.203l-.325-2.62c-.655.178-1.578.34-2.578.464l-3.073.381-.514-4.144 3.74-.464a27.896 27.896 0 0 1 2.682-.211l-.33-2.668c-.748.214-1.34.311-2.65.474l-3.573.443 1.33-2.148c-2.13-1.187-2.716-1.429-5.496-2.39l-1.473 2.165c2.467.783 3.571 1.299 5.329 2.411l-5.597.694Zm-8.663-1.804c2.121.922 2.96 1.447 4.658 2.856l1.333-2.317c-1.671-1.196-2.686-1.771-4.602-2.598l-1.389 2.059Zm-.218 6.048c1.883.758 2.871 1.313 4.816 2.765l1.158-2.368c-1.743-1.187-2.627-1.682-4.695-2.562l-1.279 2.165Zm4.458 4.164c-.855 3.637-1.909 6.452-2.878 7.805l2.508 1.696c.11-.28.11-.28.262-.613.227-.511.341-.767.526-1.226.719-1.806 1.158-3.335 1.888-6.425l-2.306-1.237ZM814.865 13.32c1.247.058 2.06.144 2.919.28l.125-2.71c-.893.08-1.734.089-3.028.029l-6.689-.31.08-1.727c.032-.695.107-1.268.252-1.814l-3.045-.14c.095.556.116 1.134.083 1.853l-.079 1.702-6.378-.295c-1.27-.06-2.083-.145-2.989-.307l-.125 2.709c.867-.056 1.805-.06 2.931-.008l1.127.052c.702 2.483 1.086 3.534 1.925 5.134a22.227 22.227 0 0 0 2.651 3.967c-2.564 1.924-5.283 3.047-9.629 4.023.656.895 1.032 1.585 1.416 2.636 2.313-.661 3.705-1.15 5.202-1.825 1.743-.808 3.423-1.811 4.843-2.899 2.556 2.401 5.408 4.095 9.422 5.627.587-1.27.95-1.83 1.784-2.729-3.82-1.042-6.637-2.47-9.178-4.654 1.186-1.242 2.131-2.448 3.016-3.92.938-1.567 1.367-2.532 2.094-4.732l1.27.058Zm-4.099-.19c-.666 1.916-1.064 2.738-1.843 4a17.398 17.398 0 0 1-2.322 2.92c-.867-1.002-1.475-1.871-2.163-3.104-.773-1.454-1.117-2.335-1.632-4.184l7.96.368ZM835.619 29.916l-.307 1.432 3.144.675c.032-.607.15-1.27.402-2.443l2.764-12.882c.232-1.08.282-1.314.489-1.933-.832-.13-.832-.13-2.052-.391l-11.287-2.422c-1.713-.368-2.154-.487-2.992-.814l-.654 3.05c.864.088 1.362.17 3.028.528l10.278 2.205-2.195 10.232-10.677-2.292c-1.643-.352-2.06-.466-2.898-.793l-.65 3.027c.719.08 1.288.178 2.907.525l10.7 2.296ZM864.689 39.495c-1.65-3.688-1.65-3.688-2.01-4.401-.97-1.967-1.798-3.385-2.826-4.883 2.092-1.281 3.96-2.782 5.941-4.754.468-.459.772-.699 1.195-.917l-.862-2.104c-.638-.023-.825-.073-2.081-.55l-7.886-3.034-.534-.215c-.913-.366-1.328-.558-1.907-.92l-1.054 2.888c.802.192 1.421.389 2.499.795 7.062 2.703 7.062 2.703 7.427 2.824l-.477.48c-2.842 2.895-6.811 5.053-11.121 6.065-2.144.51-3.455.683-5.438.663.529 1.324.653 1.788.813 3.196 4.078-.303 7.426-1.236 11.068-3.033 1.687 2.822 3.248 6.345 4.185 9.358l3.068-1.459ZM873.785 47.791c.352-.713.656-1.258 1.307-2.323l3.302-5.408c.351-.573.48-.831.769-1.442.101.202.15.26.484.773 2.457 3.666 3.874 6.135 4.861 8.34l2.91-1.54c-2.151-3.846-4.454-7.305-6.659-10.002l2.326-3.81c.776-1.27.939-1.535 1.396-2.1l-2.806-1.714c-.256.603-.54 1.16-1.153 2.165l-8.019 13.128c-.663 1.086-1.021 1.627-1.524 2.22l2.806 1.713ZM907.43 51.832c.736.763 1.082 1.317 1.363 2.13.699 2.127.256 4.218-1.251 5.961-1.679 1.943-4.114 2.852-6.447 2.359-1.277-.248-2.618-.899-4.477-2.125-.078 1.265-.205 1.853-.728 3.082 1.459.88 2.324 1.311 3.51 1.701 3.751 1.276 7.551.182 10.266-2.96 3.531-4.085 2.989-9.184-1.369-12.95-2.578-2.229-5.474-3.21-8.443-2.857-2.513.302-4.838 1.56-6.564 3.558-2.527 2.923-2.858 6.317-.788 8.106 1.489 1.286 3.577 1.22 6.636-.228 2.682-1.268 5.483-3.224 8.292-5.777Zm-2.231-1.896c-1.992 1.863-4.709 3.797-6.812 4.835-2.003.996-3.28 1.225-3.879.708-.799-.69-.414-2.42.873-3.91 1.679-1.942 4.239-2.997 6.706-2.768 1.2.117 2.073.428 3.112 1.135ZM912.476 78.114c-.925.764-1.455 1.14-1.96 1.433l1.682 2.035c.42-.472.941-.934 1.699-1.56-.089.758-.365 1.516-.758 2.246 1.567.728 2.642 1.086 4.165 1.383.06 1.881.211 2.629 1.073 5.216a12.767 12.767 0 0 1 2.593-.555c-.808-1.73-1.242-3.084-1.394-4.36 1.46.07 3.181-.107 4.907-.506.384-.1.489-.124.781-.148l.259-1.834c-.3-.25-.701-.697-1.221-1.326l-2.569-3.107c-.627-.758-.915-1.144-1.211-1.615l-1.739 1.438c.438.416.732.734 1.221 1.326l.398.48-2.003-.99c-.541 1.568-.753 2.366-.957 3.625-1.118-.26-2.231-.74-3.378-1.411l6.77-5.597 5.306 6.418c.75.906 1.098 1.365 1.514 2.018l1.794-1.483c-.521-.441-.922-.889-1.702-1.832l-10.812-13.077c-.764-.925-1.144-1.421-1.464-1.997l-1.794 1.484c.533.493.933.94 1.606 1.754l-5.734 4.741c-.697-.73-1.163-1.218-1.407-1.514a2.325 2.325 0 0 1-.227-.311l-1.553 2c.475.386 1.121.942 2.548 2.253 1.948 1.753 1.948 1.753 3.733 3.235l-.166.138Zm1.683-1.392c-1.696-1.524-2.104-1.904-2.945-2.734l1.146-.948 2.539 3.07-.74.612Zm2.09-1.728-2.538-3.07.887-.735 2.539 3.07-.888.735Zm2.238-1.85-2.538-3.07.832-.69 2.539 3.071-.833.689Zm4.209 8.291c-1.286.253-2.008.321-3.074.237.133-1.044.326-1.64.856-2.919l2.218 2.682Zm9.703-5.967c.721-.596 1.18-.945 1.67-1.256-.575-.583-.992-1.049-1.695-1.9l-7.524-9.1c-.704-.85-1.098-1.366-1.547-2.022-.417.438-.864.839-1.548 1.405l-2.497 2.064c-.666.55-1.144.914-1.652 1.241.511.543.942 1.027 1.63 1.86l7.769 9.396a29.29 29.29 0 0 1 1.367 1.766c.398-.423.827-.808 1.548-1.404l2.479-2.05Zm-8.958-11.06 7.478 9.045-.74.611-7.478-9.044.74-.612Zm-2.016 1.667 7.478 9.045-.758.627-7.479-9.045.759-.627ZM943.951 88.62c-.595.457-1.381.969-2.439 1.584l-13.282 7.715c-.394.229-.619.081-1.016-.603-.471-.81-.894-1.73-1.454-3.125-.655.88-1.181 1.408-2.043 2.075a50.695 50.695 0 0 0 1.439 2.716c.663 1.142 1.117 1.683 1.607 1.954.669.388 1.449.296 2.445-.283l13.718-7.968c1.079-.626 1.912-1.055 2.604-1.346l-1.579-2.718Zm-2.103 7.8c-1.316 1.32-2.005 1.997-2.075 2.066-2.595 2.7-4.242 5.073-5.72 8.263.906.222 1.877.603 2.836 1.155a24.936 24.936 0 0 1 3.932-6.419c1.139-1.383 2.082-2.292 3.098-3.076l-2.071-1.989Zm-5.16-10.27c-3.279 1.572-7.677 2.267-11.573 1.866.06.964.015 1.795-.196 3.055 4.077.186 6.803-.232 11.716-1.81.265-.07.285-.082.57-.164.075-.015.17-.043.298-.062l-.815-2.884ZM947.054 120.953c2.734 2.435 4.987 3.999 8.108 5.622.264.157.387.213.59.342l1.244-2.696c-2.105-.621-4.793-2.252-7.133-4.322l5.011-1.88c1.168-.439 2.039-.714 2.747-.877l-1.054-2.809c-.618.334-1.523.725-2.646 1.147l-14.808 5.556c-2.045.767-2.174 1.585-.808 5.225 1.366 3.64 2.077 4.783 3.192 5.159.876.287 2.477.045 5.331-.821-.115-.854-.132-1.719-.034-2.756-2.761.908-3.688 1.102-4.348.914-.469-.157-.908-.915-1.666-2.938-.675-1.797-.692-2.252-.085-2.48l6.359-2.386Zm-10.395-6.251c-1.078.405-1.949.68-2.98.939l1.037 2.764c.91-.444 1.905-.869 2.826-1.214l12.066-4.528c2.649.16 2.885.174 4.517.151.615 0 .896-.003 1.422.03l-.223-2.915c-1.621.326-4 .27-6.424-.179-1.935-.376-3.18-.755-5.18-1.645-.961 1.13-1.048 1.239-2.205 2.186 1.273.522 2.787 1.005 3.79 1.218-1.523.52-1.747.605-2.534.9l-6.112 2.293Z" fill="#00A0E8"/><circle cx="800" cy="174.437" r="140" fill="#F5F5F5"/><path d="M735.338 137.645c.532-.084.616-.084 1.82-.168.56-.056 1.428-.112 2.632-.196v8.568c0 1.4-.056 2.156-.168 2.996h3.08c-.112-.84-.168-1.596-.168-2.996v-8.82c.504-.028 1.148-.112 1.988-.196.112.448.168.672.308 1.316l2.352-.98c-.728-2.156-1.484-4.032-2.212-5.46l-2.1.84c.448.924.56 1.204.812 1.904-1.428.168-1.54.168-3.192.252 1.204-1.372 3.164-3.976 4.732-6.3.476-.7.644-.98.924-1.288l-2.576-1.484c-.392.924-1.204 2.268-3.024 4.9-.392-.504-.7-.84-1.176-1.4.7-.952 1.96-2.996 2.604-4.284.308-.56.42-.756.588-1.008l-2.66-1.092c-.28 1.008-1.26 2.912-2.324 4.536-.28-.336-.448-.504-.84-.98l-1.596 2.324c2.044 1.904 2.324 2.212 3.836 4.144-.56.728-.672.868-1.624 2.044-.644.028-.924.028-1.12.028a7.36 7.36 0 0 1-1.204-.084l.308 2.884Zm21.672-7.728c0 5.824-.336 10.78-.896 13.496-.336 1.736-.644 2.072-1.904 2.072-.98 0-2.24-.112-3.668-.364.448 1.204.644 1.904.784 3.136 1.008.084 1.876.112 2.604.112 1.82 0 2.94-.224 3.584-.728.924-.728 1.428-2.268 1.876-5.488.308-2.296.616-7.168.644-10.36.028-3.976.028-3.976.14-4.872-.616.084-1.12.112-2.296.112h-6.104c.336-.868.448-1.204.812-2.352.224-.784.224-.784.364-1.148l-3.136-.56c-.14.924-.476 2.128-1.008 3.528a18.126 18.126 0 0 1-3.304 5.572c1.036.756 1.68 1.4 2.24 2.268 1.316-1.624 1.792-2.408 2.8-4.424h6.468Zm-20.804 8.68c-.168 3.192-.532 5.124-1.316 7.532l2.492 1.148c.784-2.436 1.176-4.788 1.372-8.288l-2.548-.392Zm7.392.392c.476 2.212.868 5.04 1.064 7.196l2.548-.616c-.308-2.352-.756-4.676-1.344-7.14l-2.268.56Zm10.92 1.204c-1.064-2.884-1.792-4.396-3.444-7.028l-2.436 1.344c1.456 2.436 2.016 3.696 3.192 7.112l2.688-1.428Zm20.833 6.244h-3.782v-18.266l-5.578 1.906v-3.203l8.875-3.266h.485v22.829Zm16.251-19.068c-.084 3.444-.112 3.724-.392 5.572-.56 3.724-1.764 6.692-3.724 9.24-1.232 1.596-2.268 2.52-4.312 3.836a9.749 9.749 0 0 1 2.352 2.688c2.52-1.792 4.004-3.332 5.488-5.684 1.596-2.576 2.52-5.04 3.108-8.372h8.708c-.196 4.872-.588 8.288-1.148 9.66-.308.784-.812 1.008-2.184 1.008-1.092 0-2.772-.224-4.396-.56.448 1.12.616 1.932.756 3.192 2.464.196 3.052.224 3.976.224 2.772 0 4.004-.616 4.704-2.352.7-1.708 1.26-6.16 1.456-11.088.084-2.492.084-2.52.168-3.164-.84.112-1.932.14-3.584.14h-8.036c.168-1.54.196-2.156.252-4.34h10.5c1.26 0 2.464.056 3.556.168v-3.304c-1.092.112-2.24.168-3.584.168h-18.004a33.49 33.49 0 0 1-3.584-.168v3.304a36.808 36.808 0 0 1 3.612-.168h4.312Zm34.244 1.204h7.504c1.148 0 2.016.056 2.996.168v-3.08c-.84.112-1.708.168-2.996.168h-7.504v-.448c0-1.064.056-1.764.168-2.464h-3.528c.14.812.196 1.652.196 2.744v5.656h-4.34c-1.372 0-2.38-.028-3.164-.14.084.784.112 1.372.112 2.324v5.264c0 .812-.028 1.4-.112 2.128.728-.084 1.568-.112 2.66-.112h13.748c1.092 0 1.932.028 2.716.112-.084-.672-.112-1.232-.112-2.184v-5.208c0-.952.028-1.624.112-2.324-.728.112-1.624.14-3.192.14h-5.264v-2.744Zm5.292 5.488v3.948h-12.796v-3.948h12.796Zm-16.576 14.7c1.54-2.044 2.38-3.696 3.276-6.468l-2.772-.98c-.42 1.456-.7 2.072-1.316 3.192-.616 1.092-1.036 1.624-1.988 2.688l2.8 1.568Zm8.792-.532c-.084-2.128-.28-3.668-.728-6.272l-2.688.42c.28 1.904.42 3.612.42 5.208 0 .252 0 .644-.028 1.148l3.024-.504Zm6.776-.476c-.672-2.268-1.176-3.724-2.212-6.076l-2.604.728a34.41 34.41 0 0 1 1.876 6.384l2.94-1.036Zm7.112-.532c-1.82-3.472-2.072-3.892-3.472-5.992l-2.632 1.036c1.4 2.212 2.072 3.556 3.22 6.44l2.884-1.484Zm18.256-18.732c1.232.112 1.96.336 2.828.84 2.24 1.344 3.444 3.528 3.444 6.216 0 2.996-1.456 5.656-3.892 7-1.316.756-2.996 1.204-5.572 1.54.896 1.176 1.232 1.792 1.708 3.276 1.96-.336 3.052-.616 4.396-1.176 4.284-1.736 6.804-5.6 6.804-10.444 0-6.3-4.368-10.388-11.088-10.388-3.976 0-7.28 1.344-9.632 3.92-1.988 2.184-3.08 5.068-3.08 8.148 0 4.508 2.296 7.756 5.488 7.756 2.296 0 4.088-1.652 5.684-5.264 1.4-3.164 2.38-7.028 2.912-11.424Zm-3.416.028c-.336 3.164-1.26 6.944-2.324 9.464-1.008 2.408-1.96 3.584-2.884 3.584-1.232 0-2.212-1.82-2.212-4.116 0-2.996 1.456-5.88 3.808-7.56 1.148-.812 2.156-1.204 3.612-1.372Zm-131.101 45.332h-1.204c-1.316 0-1.932-.028-2.744-.168v3.136c.84-.14 1.484-.168 2.744-.168h1.204v3.752h-.644c-1.26 0-1.988-.028-2.744-.14v3.08c.784-.14 1.4-.168 2.492-.168h19.096c1.204 0 1.876.028 2.604.168v-3.08c-.728.112-1.344.14-2.66.14h-.56v-3.752h1.092c1.288 0 1.932.028 2.744.168v-3.136c-.812.14-1.428.168-2.744.168h-1.092v-3.724c1.428.028 1.82.056 2.744.14v-3.08c-.868.112-1.82.168-3.528.168h-13.58c.392-.588.616-.952.896-1.428.364-.672.364-.672.588-1.008l-3.248-.616c-.112.42-.336.896-.588 1.372-1.036 1.932-2.576 3.5-5.208 5.404.812.672 1.176 1.064 2.044 2.128 1.092-.868 1.512-1.204 2.296-1.96v2.604Zm2.772-3.724h2.268v3.724h-2.268v-3.724Zm0 6.524h2.268v3.752h-2.268v-3.752Zm4.816 3.752v-3.752h2.324v3.752h-2.324Zm0-6.552v-3.724h2.324v3.724h-2.324Zm4.844 6.552v-3.752h2.38v3.752h-2.38Zm0-6.552v-3.724h2.38v3.724h-2.38Zm8.82 14.952c-1.176-2.128-2.016-3.388-3.64-5.376l-2.408 1.204c1.652 2.352 2.352 3.528 3.36 5.852l2.688-1.68Zm-7.616.98c-.504-2.38-.868-3.612-1.652-5.824l-2.716.616c.728 2.38.896 3.164 1.316 5.88l3.052-.672Zm-6.496.476c-.112-2.352-.28-3.584-.756-6.132l-2.716.308c.196 1.372.42 3.892.42 4.956v1.148l3.052-.28Zm-8.68.392c1.736-2.016 2.464-3.164 3.612-5.88l-2.576-1.288c-.952 2.352-1.764 3.556-3.472 5.236l2.436 1.932Zm37.436-4.536c.616-.196 1.428-.42 2.66-.7l5.936-1.344v3.388c0 1.708-.028 2.38-.168 3.332h3.388c-.14-.896-.168-1.736-.168-3.304v-4.088l.28-.056c1.148-.28 1.932-.42 2.688-.504l-.588-3.192c-.728.28-1.232.42-2.38.7v-12.152c0-1.54.028-2.296.168-3.22h-3.388c.14.868.168 1.624.168 3.248v12.796l-6.552 1.456c-.952.196-1.932.364-2.576.392.28-.616.392-.868.784-1.568-1.54-1.26-2.576-2.52-3.612-4.284h1.008c.98 0 1.54.028 2.212.112v-2.912c-.616.084-1.092.112-2.156.112h-1.316v-6.664c0-1.344.028-1.988.14-2.716h-3.192c.112.672.14 1.484.14 2.744v6.636h-1.876c-1.288 0-1.876-.028-2.52-.14v2.968c.672-.112 1.288-.14 2.52-.14h1.456c-.784 1.848-.896 2.128-1.484 3.164-.952 1.708-1.848 2.94-3.024 4.144.616.784 1.12 1.792 1.428 2.884 1.484-1.652 2.38-3.22 3.64-6.3-.056.924-.112 2.24-.112 3.36v3.612c0 1.232-.056 2.072-.196 2.968h3.248c-.14-.84-.168-1.568-.168-2.912v-4.62c0-.896-.028-1.288-.168-3.192a20.714 20.714 0 0 0 2.828 3.948c.14-.448.168-.588.308-.952l.644 2.996Zm-11.116-18.564c.784 1.68 1.288 3.416 1.736 5.992l2.352-1.008c-.392-2.128-.812-3.556-1.708-6.048l-2.38 1.064Zm9.632-1.12c-.56 2.716-1.036 4.172-1.932 6.048l2.044 1.064c1.148-2.52 1.512-3.5 2.24-6.076l-2.352-1.036Zm2.66 2.548c2.744 1.988 2.884 2.1 4.956 4.312l1.904-2.352c-1.596-1.652-2.492-2.436-4.9-4.116l-1.96 2.156Zm-.868 6.916c2.016 1.372 2.968 2.212 4.928 4.312l1.904-2.268c-1.456-1.568-2.66-2.604-4.872-4.116l-1.96 2.072Zm36.148-7.392v-1.736c-1.036.168-1.596.196-3.612.196h-8.372c-2.016 0-2.576-.028-3.612-.196v3.416c.924-.112 1.596-.14 3.556-.14h8.484c1.96 0 2.632.028 3.556.14v-1.484c.924 1.484 1.344 2.324 1.848 3.836l2.156-.896c-.56-1.624-.896-2.296-1.96-3.92l-2.044.784Zm1.624 8.54c1.904 0 2.548.028 3.556.14v-3.332c-1.064.168-1.708.196-3.612.196h-16.38c-1.932 0-2.548-.028-3.612-.196v3.332c1.008-.112 1.652-.14 3.556-.14h6.804c-.084 2.24-.504 4.004-1.232 5.292-1.176 2.128-3.304 3.612-6.636 4.648 1.204 1.148 1.568 1.652 2.296 3.108 3.78-1.512 5.824-3.052 7.308-5.516 1.204-1.988 1.82-4.312 1.96-7.532h5.992Zm5.46-6.664c-.504-1.428-.896-2.156-1.96-3.752l-2.072.812c.98 1.568 1.372 2.38 1.932 3.836l2.1-.896Zm21.868-3.696c.756 1.232 1.316 2.464 1.792 3.948l2.072-.784c-.532-1.624-.952-2.548-1.82-3.892l-2.044.728Zm6.832 1.988c-.448-1.344-.952-2.408-1.792-3.696l-1.96.728c.7 1.204 1.26 2.436 1.736 3.808l2.016-.84Zm-17.724 2.716v-2.912c0-1.4 0-1.456.112-2.38h-3.668c.112.728.14 1.316.14 2.492v2.8h-1.652c-1.988 0-2.548-.028-3.64-.196v3.416c.98-.112 1.736-.14 3.584-.14h1.708v4.116c0 1.064-.028 1.792-.112 2.408h3.64c-.084-.728-.112-1.176-.112-2.352v-4.172h7.252c-.056 1.932-.056 2.604-.112 3.22-.252 3.22-1.064 5.068-2.968 6.72-1.344 1.176-2.688 1.848-5.348 2.66 1.204 1.232 1.568 1.764 2.1 2.968 2.576-.924 3.948-1.652 5.46-2.94 2.436-2.072 3.64-4.452 4.032-8.036.14-1.064.14-1.26.196-4.592h1.876c1.848 0 2.604.028 3.584.14v-3.416c-1.092.168-1.652.196-3.64.196h-1.792c.028-1.68.028-1.68.028-3.388 0-1.12.028-1.232.112-1.904h-3.612c.112.672.14 1.288.14 3.136v.896l-.028 1.26h-7.28Zm38.778-5.684c-.812 1.372-2.716 3.304-5.208 5.236-4.452 3.444-9.156 5.768-14.7 7.28.98 1.26 1.288 1.736 1.876 3.192 5.152-1.848 6.72-2.576 9.996-4.536v9.856c0 1.652-.028 2.212-.168 3.024h3.92c-.112-.756-.14-1.568-.14-3.108v-11.956a49.514 49.514 0 0 0 6.608-5.768c.42-.448.56-.56 1.036-.98l-3.22-2.24Zm10.584 4.76c2.604 1.456 4.9 3.304 7.14 5.684l2.408-3.052c-2.156-2.044-3.892-3.332-7.224-5.404l-2.324 2.772Zm.98 18.48c.644-.224.728-.252 1.848-.476 4.34-.924 7.812-2.296 10.668-4.2 3.836-2.548 6.496-5.852 8.876-10.976-1.428-1.008-1.876-1.428-2.968-2.744-.84 2.268-1.624 3.808-2.856 5.6-2.212 3.192-4.816 5.348-8.316 6.86-2.548 1.12-5.88 1.932-8.288 2.072l1.036 3.864Zm-124.403 30.072c1.904 0 2.548.028 3.556.14v-3.332c-1.064.168-1.708.196-3.612.196h-16.38c-1.932 0-2.548-.028-3.612-.196v3.332c1.008-.112 1.652-.14 3.556-.14h6.832c-.084 2.184-.504 4.004-1.232 5.292-1.176 2.156-3.276 3.64-6.636 4.676 1.204 1.176 1.568 1.652 2.268 3.08 3.78-1.512 5.824-3.052 7.308-5.516 1.204-1.988 1.82-4.312 1.96-7.532h5.992Zm-17.22-6.832c.924-.112 1.596-.14 3.556-.14h10.864c1.96 0 2.632.028 3.556.14v-3.416c-1.036.168-1.596.196-3.612.196h-10.752c-2.016 0-2.576-.028-3.612-.196v3.416Zm26.964.28c2.604 1.456 4.9 3.304 7.14 5.684l2.408-3.052c-2.156-2.044-3.892-3.332-7.224-5.404l-2.324 2.772Zm.98 18.48c.644-.224.728-.252 1.848-.476 4.34-.924 7.812-2.296 10.668-4.2 3.836-2.548 6.496-5.852 8.876-10.976-1.428-1.008-1.876-1.428-2.968-2.744-.84 2.268-1.624 3.808-2.856 5.6-2.212 3.192-4.816 5.348-8.316 6.86-2.548 1.12-5.88 1.932-8.288 2.072l1.036 3.864Zm30.8-20.86c-1.904 0-2.492-.028-3.584-.196v3.64c1.008-.14 1.652-.168 3.528-.168h13.328c-1.372 5.432-4.116 9.38-8.484 12.208-2.072 1.344-3.668 2.072-6.132 2.856 1.316 1.288 1.68 1.82 2.464 3.332 2.408-1.036 3.724-1.708 5.32-2.772 2.828-1.848 5.264-4.2 6.972-6.776 1.624-2.436 2.8-5.264 3.78-9.044.196.028.252.028.308.028 1.68 0 3.052-1.4 3.052-3.108a3.071 3.071 0 0 0-3.08-3.08c-1.68 0-3.024 1.316-3.08 3.024-.616.056-1.036.056-1.54.056h-12.852Zm17.472-1.596c.896 0 1.596.7 1.596 1.596 0 .868-.728 1.596-1.596 1.596a1.614 1.614 0 0 1-1.596-1.596c0-.868.728-1.596 1.596-1.596Zm10.052-.084c.14.924.14.924.14 2.884l-.112 15.12c0 1.624-.056 2.128-.252 2.884l1.792 2.156a8.022 8.022 0 0 1 1.68-.476c4.536-.868 7.392-1.96 10.192-3.836 2.52-1.68 4.312-3.556 6.244-6.524-1.204-1.008-1.568-1.4-2.66-2.856-1.4 2.716-3.136 4.648-5.712 6.412-2.1 1.456-4.732 2.52-7.644 3.08l.14-15.988c.028-1.372.056-2.072.168-2.828l-3.976-.028Zm24.948 13.244c1.12-.14 1.428-.14 4.564-.14h14.868c3.136 0 3.444 0 4.564.14v-3.892c-1.232.168-1.764.196-4.536.196h-14.924c-2.772 0-3.304-.028-4.536-.196v3.892Zm37.828 10.052c-.084-.924-.112-1.652-.112-3.108v-7.392c0-.784-.028-1.12-.112-1.904.224.14.308.168.952.476 4.676 2.156 7.588 3.752 9.912 5.348l1.96-3.304c-4.48-2.52-8.876-4.564-12.712-5.908v-5.208c0-1.736 0-2.1.112-2.94h-3.836c.112.756.168 1.484.168 2.856v17.948c0 1.484-.028 2.24-.168 3.136h3.836ZM646.716 121.426c-3.7 0-6.716-3.015-6.716-6.715V47.225c0-.428.332-.791.332-.791l24.671-24.666c.139-.16.513-.332.791-.332h44.734c3.701 0 6.716 3.016 6.716 6.715v16.487l-2.235 2.245V28.162c0-2.47-2.01-4.48-4.481-4.48h-43.621v23.554c0 .62-.503 1.122-1.123 1.122h-23.549v66.364c0 2.47 2.011 4.48 4.481 4.48h63.802c2.47 0 4.481-2.01 4.481-4.48V88.314l2.235-2.235v28.643c0 3.699-3.016 6.715-6.716 6.715h-63.802v-.011Zm-2.898-75.313h20.854V25.264l-20.854 20.85Z" fill="#333"/><path d="M674.511 107.762c-.075 0-.139 0-.171-.011a1.109 1.109 0 0 1-.92-1.262l3.818-24.355c.064-.385.31-.695.663-.845l12.406-5.228s5.721-5.72 5.817-5.806l31.292-28.312c.085-.096.139-.139.192-.181l11.806-10.67c1.423-1.284 3.209-1.99 5.037-1.99 1.754 0 3.369.653 4.567 1.84l1.23 1.23c2.513 2.512 2.449 6.724-.15 9.6l-10.641 11.761a1.89 1.89 0 0 1-.182.203c-.032.032-28.286 31.242-28.425 31.402l-5.732 5.73-5.229 12.403a1.12 1.12 0 0 1-.845.663l-24.362 3.817c-.042 0-.107.011-.171.011Zm3.187-2.716 20.405-3.197 4.983-11.846-11.902-11.91-11.85 4.992-3.197 20.4 10.106-10.104-.064-.288a2.559 2.559 0 0 1 .684-2.406 2.55 2.55 0 0 1 1.818-.76c.684 0 1.337.268 1.818.76a2.53 2.53 0 0 1 .759 1.818 2.53 2.53 0 0 1-.759 1.817 2.565 2.565 0 0 1-1.818.749c-.203 0-.396-.022-.588-.064l-.289-.065-10.106 10.104Zm15.164-28.397 11.679 11.675 3.999-3.999-11.678-11.675-4 3.999Zm5.594-5.517 11.603 11.6 27.206-30.044-.15-.32c-1.636-3.55-4.727-6.64-8.277-8.276l-.321-.15-30.061 27.19Zm46.006-39.827c-1.283 0-2.545.503-3.561 1.422l-10.609 9.601.653.364a19.75 19.75 0 0 1 7.56 7.559l.364.652 9.603-10.606c1.808-2 1.904-4.876.225-6.554l-1.23-1.23c-.781-.791-1.839-1.208-3.005-1.208Z" fill="#333"/><circle cx="480" cy="174.437" r="140" fill="#F5F5F5"/><path d="M463.172 136.961c0 1.4-.056 2.156-.168 2.828h3.08c-.112-.728-.14-1.54-.14-2.688.616.644 1.092 1.456 1.456 2.352 1.82-.868 2.94-1.568 4.34-2.716 1.736 1.344 2.52 1.764 5.488 2.912.42-1.036.868-1.904 1.428-2.744-2.156-.56-3.696-1.176-4.956-1.988 1.148-1.26 2.268-2.94 3.192-4.788.196-.42.252-.532.448-.812l-1.456-1.596c-.448.084-1.148.112-2.1.112h-4.704c-1.148 0-1.708-.028-2.352-.112v2.632c.7-.084 1.204-.112 2.1-.112h.728l-2.38 1.064c1.008 1.652 1.568 2.436 2.548 3.556-1.064.812-2.324 1.456-3.78 1.988v-10.248h9.716c1.372 0 2.044.028 2.94.14v-2.716c-.784.14-1.484.168-2.912.168h-19.796c-1.4 0-2.128-.028-2.884-.168v2.716c.84-.112 1.54-.14 2.772-.14v8.68c-1.176.084-1.96.14-2.408.14-.14 0-.252 0-.448-.028l.644 2.884c.7-.14 1.68-.308 3.92-.616 3.024-.448 3.024-.448 5.684-.952v.252Zm0-2.548c-2.632.392-3.276.476-4.648.616v-1.736h4.648v1.12Zm0-3.164h-4.648v-1.344h4.648v1.344Zm0-3.388h-4.648v-1.26h4.648v1.26Zm10.584 2.38c-.728 1.344-1.204 2.044-2.072 2.94-.84-.896-1.232-1.512-1.988-2.94h4.06Zm1.848-13.16c0-1.092.028-1.764.112-2.436-.952.084-1.68.112-2.968.112h-13.776c-1.288 0-2.044-.028-2.968-.112.084.7.112 1.4.112 2.436v3.78c0 1.008-.028 1.708-.112 2.408a40.766 40.766 0 0 1 2.884-.084h14.224c.952 0 1.96.028 2.604.084-.084-.672-.112-1.344-.112-2.436v-3.752ZM459 116.913h13.692v1.12H459v-1.12Zm0 3.052h13.692v1.148H459v-1.148Zm27.328.196c0 2.016-.056 3.472-.112 4.396H484.2c-1.344 0-1.932-.028-2.744-.168v3.192c.812-.14 1.484-.168 2.716-.168h1.736c-.616 3.836-2.156 6.636-4.872 8.932.7.7 1.344 1.54 1.988 2.548 2.296-2.184 3.668-4.256 4.648-7.028.868 1.456 1.708 2.492 3.164 3.836.616-.98 1.036-1.512 2.016-2.576-1.988-1.4-3.024-2.548-4.284-4.732.084-.448.112-.588.168-.98h1.204c1.064 0 1.68.028 2.436.112v-3.108c-.728.112-1.288.14-2.352.14h-.98c.056-.98.112-2.464.14-4.396h.252c1.008 0 1.792.028 2.52.112v-2.968c-.672.112-1.316.14-2.492.14h-3.192c.168-.532.252-.84.364-1.316.224-.924.42-1.568.532-1.848l-2.94-.504c-.112 1.008-.14 1.204-.392 2.184-.672 2.436-1.428 4.032-2.828 5.908.756.448 1.568 1.12 2.296 1.904.98-1.456 1.288-2.044 1.96-3.612h1.064Zm8.092 15.596c-1.316 0-1.932-.028-2.828-.14v3.164c.868-.112 1.512-.14 2.828-.14h10.024c1.316 0 1.96.028 2.828.14v-3.164c-.896.112-1.512.14-2.828.14h-1.652c.924-1.82 1.484-3.192 2.24-5.488l-2.94-.98c-.644 2.632-1.176 4.144-2.268 6.468h-5.404Zm-1.876-17.64c.868-.084 1.596-.112 2.828-.112h8.596c1.26 0 1.932.028 2.828.112v-3.108c-.84.112-1.456.14-2.828.14h-8.596c-1.372 0-1.988-.028-2.828-.14v3.108Zm13.02 4.48c0-1.204.028-1.764.112-2.604-.784.084-1.54.112-2.828.112h-6.832c-1.316 0-2.072-.028-2.828-.112.084.868.112 1.456.112 2.604v3.948c0 1.12-.028 1.68-.112 2.548.784-.084 1.568-.112 2.66-.112h7.168c1.12 0 1.82.028 2.66.112-.112-.84-.112-1.372-.112-2.548v-3.948Zm-9.38.252h6.44v3.36h-6.44v-3.36Zm2.576 11.424c-.7-1.876-1.26-3.052-2.436-4.984l-2.604 1.148c1.036 1.624 1.652 2.996 2.324 4.984l2.716-1.148Zm-81.68 45.724v6.88c0 1.04-.28 1.24-1.68 1.24-.92 0-2.16-.12-4.12-.44.64 1.48.88 2.6 1.08 4.52 1.08.04 2.52.08 3.2.08 4.64 0 5.84-.92 5.84-4.48v-26.04c0-2.16.04-3.4.16-4.4-1.2.12-2.08.16-4.32.16h-8.64c-2.12 0-3.04-.04-4.44-.16.2 1.68.28 4.64.28 9.96 0 7.36-.4 11-1.48 14.44-1.2 3.56-2.6 5.52-5.72 7.96 1.68 1.12 2.48 1.88 3.52 3.24 2.44-2.24 3.76-3.96 4.96-6.52.96-2.04 1.64-4.12 2.08-6.44h9.28Zm0-9.48v5.56h-8.8c.2-1.92.32-3.64.36-5.56h8.44Zm0-3.76h-8.36v-5.24h8.36v5.24Zm-29.48 14.16c0 2-.08 3.48-.24 4.76h4.4v-2.96h5.64v1.48h4.12c-.04-.88-.08-1.92-.08-4.08v-18.16c0-1.88.04-2.68.12-3.64-1.04.08-1.8.12-3.44.12h-6.32c-2.28 0-3.24-.04-4.36-.12.12 1.24.16 2.2.16 4.12v18.48Zm4.12-18.56h5.68v6.04h-5.68v-6.04Zm0 9.76h5.68v6.76h-5.68v-6.76Zm39.6 15.36c0 1.88-.08 3.48-.24 4.84h4.76v-2.4h18.6v2.4h4.84c-.16-1.44-.24-2.76-.24-4.84v-25.84c0-1.4.04-2.56.2-4.08-1.2.16-2.44.2-4.32.2h-19.36c-1.84 0-3.16-.04-4.44-.2.12 1.32.2 2.72.2 4.28v25.64Zm4.52-25.48h18.6v9.28h-18.6v-9.28Zm0 13.48h18.6v10.24h-18.6v-10.24Zm47.72-10.28v8h-11.32c-1.88 0-3.16-.08-4.4-.24v4.76c1.32-.16 2.6-.24 4.4-.24h11.32v10.96c0 1.92-.08 3.08-.24 4.28h4.96c-.16-1.2-.24-2.32-.24-4.24v-11h11.28c1.76 0 3.12.08 4.36.24v-4.76c-1.2.16-2.48.24-4.36.24h-11.28v-8h9.08c1.84 0 2.88.04 4.08.2v-4.64c-1.16.16-2.16.2-4.08.2H479c.44-.96.84-1.88 1.16-2.76.44-1.08.64-1.52.84-1.96l-4.68-1.04c-.16.92-.36 1.6-.88 2.88-1.68 4.08-4.28 7.84-7.32 10.56 1.36 1.08 2.32 1.96 3.4 3.2 2.28-2.28 3.6-3.96 5.2-6.64h6.84Zm29.68-4.28c-2.04 0-2.72-.04-4.28-.24v4.32c1.24-.2 2.36-.24 4.28-.24h27.16c2.04 0 3.08.04 4.28.24v-4.32c-1.12.16-2.32.24-4.28.24h-6.16c.96-1.12 2.16-2.72 3.2-4.36l-4.52-1.24c-1 2.24-1.92 3.72-3.52 5.6H524c-1.2-2.24-1.72-3-3.72-5.64l-4.32 1.24c1.64 1.88 2.24 2.72 3.24 4.4h-5.96Zm2.08 23.24h6.56v3.4c0 .72-.2.88-1.16.88-.72 0-1.48-.08-2.8-.24.56 1.56.68 2.04.96 3.92 1.44.04 1.92.04 2.52.04 3.72 0 4.6-.76 4.6-3.84v-17.2c0-2.12.04-3.04.12-4-.88.12-1.52.16-3.56.16h-7.76c-1.6 0-2.56-.04-3.76-.16.08 1 .12 1.64.12 3.6v17.24c0 2.08-.04 3.24-.2 4.56h4.6c-.2-1.16-.24-2.24-.24-4.28v-4.08Zm0-3.76v-2.8h6.56v2.8h-6.56Zm0-6.56v-2.8h6.56v2.8h-6.56Zm14.28-6c.16 1.2.2 1.92.2 3.76v8.64c0 2.4-.04 3.12-.16 4.28h4.52c-.12-1.16-.16-1.76-.16-4.32v-8.56c0-2 .04-2.68.2-3.8h-4.6Zm8.44-1.08c.16 1.16.2 1.88.2 4.12v16.24c0 1.12-.2 1.28-1.84 1.28-1.2 0-2.68-.12-4.88-.44.72 1.64 1 2.6 1.24 4.24 2.52.12 3.36.16 4.32.16 2.56 0 3.64-.28 4.48-1.08.64-.64.92-1.68.92-3.44v-16.84c0-2 .04-3.12.24-4.24h-4.68Zm16.952 23.352c-.028-.364-.028-.588-.028-.756 0-1.988.952-5.236 2.492-8.484l-2.24-1.008c-1.092 2.52-1.148 2.716-1.456 3.696.028-.7.056-.924.056-1.54.028-2.436.14-4.088.42-6.188.448-3.584 1.092-6.72 1.764-8.372l-3.696-.392c-.056.756-.112 1.036-.42 2.604-.812 4.144-1.148 7.336-1.148 10.948 0 2.828.196 4.984.728 8.372.084.644.112.812.14 1.316l3.388-.196Zm3.864-16.772c2.968.308 2.996.308 5.04.308 2.072 0 4.2-.112 5.992-.336 1.344-.168 1.764-.224 1.988-.252l-.168-3.388c-1.848.504-4.508.756-7.616.756-2.436 0-3.92-.112-5.18-.448l-.056 3.36Zm1.932 4.62c-1.736 2.072-2.576 3.948-2.576 5.768 0 1.008.308 2.044.84 2.744 1.232 1.652 3.472 2.436 6.944 2.436 1.848 0 3.556-.168 5.796-.532.644-.112.756-.14 1.148-.168l-.28-3.556c-1.764.672-4.2 1.064-6.664 1.064-2.912 0-4.452-.84-4.452-2.436 0-1.204.588-2.408 1.988-4.032l-2.744-1.288Zm-111.784 44.912c1.988-.616 3.696-.924 5.376-.924 2.996 0 4.956 1.568 4.956 3.976 0 1.792-1.176 3.108-2.828 3.108-.784 0-1.456-.364-1.764-.952-.28-.532-.392-1.288-.392-2.464 0-.448 0-.7.056-1.232-1.204.644-1.68.84-3.108 1.232 0 1.708.112 2.632.476 3.584.728 2.016 2.324 3.108 4.592 3.108 3.64 0 6.356-2.744 6.356-6.384 0-3.976-3.332-6.832-8.008-6.832-2.044 0-3.808.224-5.712.784v-3.64a29.323 29.323 0 0 0 2.548-.364c1.932-.336 2.464-.42 2.968-.504l-.112-3.136c-1.428.448-3.304.812-5.404 1.064v-1.792c0-1.568.028-2.156.168-3.052h-3.5c.14.896.168 1.624.168 3.22v1.848c-.308 0-.448 0-1.12.028-.392.028-.7.028-.98.028-1.484 0-2.604-.084-3.388-.252l.028 3.136c.252-.028.476-.028.588-.028.084 0 .336 0 .7.028.336 0 1.12.028 1.54.028.7 0 1.092 0 1.512-.028.924-.056.924-.056 1.148-.056l.028 4.312c-1.848.784-3.08 1.512-4.088 2.38-1.54 1.344-2.408 2.828-2.408 4.144 0 1.204.532 2.296 1.54 3.164 1.4 1.204 3.528 1.988 5.292 1.988 1.316 0 2.324-.644 2.576-1.624.168-.56.224-1.232.224-2.38l-.028-5.516Zm-3.136 5.096c0 .924-.14 1.176-.616 1.176-.532 0-1.232-.224-1.792-.616-.644-.392-.924-.812-.924-1.288 0-1.008 1.232-2.24 3.332-3.36v4.088Zm18.088-11.816c-1.484-2.184-3.108-3.864-5.544-5.74l-2.632 1.764c2.156 1.624 4.2 3.836 5.6 6.048l2.576-2.072Zm16.968 2.94h-3.864c-1.456 0-2.212-.028-3.22-.112.056.868.112 2.184.112 3.136v8.176c0 1.4-.056 2.576-.196 3.444h3.136v-1.148h11.312v1.148h3.108c-.112-.868-.14-1.736-.14-3.276v-8.232c0-1.12.028-2.128.112-3.248-.784.084-1.848.112-3.304.112h-4.088v-2.408h4.816c1.176 0 2.156.028 3.052.084a47.9 47.9 0 0 1-.056-2.436v-3.276c0-1.288 0-1.792.056-2.52-.924.112-1.848.14-3.22.14h-15.456c-1.652 0-2.744-.056-3.668-.14.112.952.168 1.764.168 3.192 0 6.188-.196 9.94-.616 12.74-.448 2.94-1.036 4.62-2.464 6.86.924.672 1.736 1.512 2.464 2.548 2.52-3.836 3.444-8.288 3.612-17.192h8.344v2.408Zm0 2.576v2.8h-4.032v-2.8h4.032Zm0 5.32v2.996h-4.032v-2.996h4.032Zm2.968 2.996v-2.996h4.312v2.996h-4.312Zm0-5.516v-2.8h4.312v2.8h-4.312Zm-11.284-10.472v-2.604h16.184v2.604h-16.184Zm32.256 3.948h.42c.336 0 .448 0 1.26.056.728.028 1.764.056 2.548.056 1.4 0 2.856-.028 3.808-.112.028.924.028 1.176.028 1.764 0 4.144-.504 6.104-1.96 7.868-1.064 1.26-2.38 2.184-4.284 3.052 1.288.952 1.736 1.372 2.716 2.632 1.428-.84 2.184-1.372 3.052-2.128 1.568-1.4 2.576-3.108 3.192-5.432.392-1.4.588-3.724.588-6.692 0-.504 0-.756-.028-1.344 1.204-.14 1.456-.196 2.716-.476.924-.196 1.092-.224 1.568-.28l-.196-3.332c-.952.448-2.184.756-4.172 1.064-.056-1.792-.112-2.856-.112-3.164-.056-1.26-.056-1.512-.056-1.792 0-.336 0-.504.056-.952l-3.556.056c.168 1.008.196 1.26.364 6.188-1.456.084-1.904.112-2.968.112-2.268 0-3.752-.112-4.984-.364v3.22Zm-1.792 3.612c-.672 1.26-1.372 3.08-1.848 4.62 0-.448-.028-.616-.056-1.064v-.504c-.028-1.372-.028-1.848-.028-2.156-.028-.448-.028-.784-.028-.868 0-.532.056-1.344.196-3.192.168-2.352.28-3.136.728-5.516.308-1.652.476-2.296.812-3.416l-3.696-.364c0 .588-.028.896-.196 2.072-.868 5.796-1.036 7.448-1.036 10.612 0 3.164.308 5.936 1.008 9.1.14.532.168.672.196 1.064l3.248-.168c.056-2.016 1.344-5.6 3.192-8.988l-2.492-1.232ZM533.463 226.457l-4.248-4.26-.396.396 4.26 4.284-4.26 4.26.396.396 4.248-4.224 4.26 4.224.384-.396-4.26-4.26 4.26-4.284-.384-.396-4.26 4.26Zm.012-3.972a.922.922 0 0 0-.924.912c0 .504.42.924.924.924a.914.914 0 0 0 .912-.924.912.912 0 0 0-.912-.912Zm-3.444 3.468a.914.914 0 0 0-.924.912c0 .504.42.924.924.924a.914.914 0 0 0 .912-.924.912.912 0 0 0-.912-.912Zm6.864.012a.912.912 0 1 0 0 1.823.912.912 0 0 0 0-1.823Zm-3.432 3.48-.024.012c-.012 0-.012 0-.024-.012h-.036c-.408 0-.84.468-.84.924 0 .48.444.924.924.924a.93.93 0 0 0 .912-.924.914.914 0 0 0-.912-.924Zm11.772 1.992c.648 0 1.056.012 1.572.06v-1.164c-.42.06-.912.084-1.548.084h-3.708c.312-1.068.924-1.752 2.508-2.808 1.368-.912 1.668-1.152 2.052-1.632.36-.432.564-.996.564-1.56 0-1.464-1.212-2.412-3.084-2.412-1.104 0-1.956.324-2.52.96-.408.468-.612.924-.78 1.788l1.212.18c.096-.588.192-.876.408-1.188.348-.504.912-.756 1.692-.756 1.14 0 1.872.552 1.872 1.428 0 .72-.396 1.236-1.536 2.004-1.188.804-1.476 1.008-1.872 1.356-.768.672-1.272 1.356-1.584 2.148-.18.456-.216.648-.336 1.56.396-.036.588-.048 1.392-.048h3.696ZM376.279 62.968c-11.238 0-20.856-8.761-21.879-19.94l-.045-.428-.428-.067c-1.451-.247-2.385-.619-2.936-1.147a1.96 1.96 0 0 1-.607-1.406c0-1.552 1.957-2.924 3.611-3.801l.292-.158v-9.683c0-8.221 6.682-14.902 14.905-14.902h14.151c8.224 0 14.905 6.68 14.905 14.902v9.683l.293.158c1.642.877 3.611 2.249 3.611 3.801a1.96 1.96 0 0 1-.608 1.406c-.54.54-1.473.9-2.936 1.147l-.427.067-.045.428c-1.012 11.179-10.619 19.94-21.857 19.94Zm-19.472-19.479c1.249 9.762 9.618 17.117 19.461 17.117 9.843 0 18.212-7.355 19.461-17.117l.09-.664-.675.034c-1.496.079-3.364.113-5.906.113-1.699 0-3.588-.012-5.692-.034a759 759 0 0 0-7.278-.045c-2.497 0-4.905.022-7.177.045a569.49 569.49 0 0 1-5.782.034c-2.542 0-4.421-.034-5.917-.113l-.675-.034.09.664Zm19.472-2.947c2.542 0 4.995.023 7.301.045 1.822.012 3.701.034 5.512.034 5.129 0 8.11-.146 9.651-.483l1.215-.26-.99-.741c-2.756-2.059-11.339-5.309-22.689-5.309s-19.933 3.262-22.689 5.309l-.99.742 1.215.259c1.552.326 4.522.483 9.651.483 1.811 0 3.69-.022 5.512-.034 2.306-.022 4.759-.045 7.301-.045Zm-7.076-26.778c-6.918 0-12.554 5.635-12.554 12.552v8.626l.754-.282c.338-.123.686-.247 1.024-.36 3.082-1.045 9.494-2.811 17.852-2.811s14.77 1.766 17.852 2.812c.338.112.675.236 1.013.36l.753.28v-8.625c0-6.917-5.635-12.551-12.554-12.551h-14.14ZM338.639 131.436c-.652 0-1.17-.528-1.17-1.18v-7.738l-.517-.034c-3.892-.292-6.952-3.576-6.952-7.479v-6.815c0-3.903 3.048-7.187 6.952-7.479l.517-.034v-7.704c-.011-.37.09-.663.293-.888l2.992-3.441V87.08c0-12.033 9.787-21.818 21.823-21.818h27.414c12.037 0 21.823 9.785 21.823 21.818v1.564l2.993 3.441a1.2 1.2 0 0 1 .281.821v.045l.011.068v7.939l.383.124a7.51 7.51 0 0 1 5.118 7.108v6.815a7.51 7.51 0 0 1-5.118 7.108l-.383.124v8.019c0 .652-.529 1.18-1.17 1.18h-75.29Zm1.181-30.579.36.135a4.893 4.893 0 0 1 3.161 4.555v12.09a4.893 4.893 0 0 1-3.161 4.555l-.36.135v6.748h72.917v-6.568h-.563c-2.756 0-4.938-2.182-4.938-4.87v-12.09a4.872 4.872 0 0 1 4.871-4.87h.562l.068-.562v-5.972h-27.335v11.663l-3.836 3.441-2.678-2.384-2.666 2.384-2.654-2.384-2.666 2.384-3.836-3.441V94.143h-27.257v6.714h.011Zm69.778 16.96a2.515 2.515 0 0 0 2.498 2.339h.978a5.15 5.15 0 0 0 5.152-5.151v-6.815a5.151 5.151 0 0 0-5.152-5.151h-.978a2.516 2.516 0 0 0-2.498 2.339l-.045.608h3.791v2.35h-3.757v2.092h3.757v2.351h-3.757v2.091h3.757v2.351h-3.791l.045.596Zm-72.095-14.778a5.151 5.151 0 0 0-5.152 5.151v6.815a5.15 5.15 0 0 0 5.152 5.151h.979a2.514 2.514 0 0 0 2.497-2.339l.045-.607h-3.791v-2.351h3.757v-2.092h-3.757v-2.35h3.757v-2.092h-3.757v-2.351h3.791l-.045-.607a2.514 2.514 0 0 0-2.497-2.339h-.979v.011Zm44.051 3.048 1.485-1.327V94.154h-13.611v10.606l1.485 1.327 2.666-2.384 2.655 2.384 2.654-2.384 2.666 2.384Zm3.949-14.407h25.816l-10.551-12.112h-17.751l2.486 12.112Zm-15.895 0h13.488l-2.498-12.112h-8.504l-2.486 12.112Zm-28.381 0h25.985l2.497-12.112h-17.931L341.227 91.68Zm60.07-14.463c.337 0 .663.146.888.405l7.323 8.412-.292-1.923c-1.451-9.39-9.719-16.476-19.236-16.476h-27.414c-9.517 0-17.785 7.085-19.236 16.476l-.292 1.923 7.323-8.4a1.18 1.18 0 0 1 .888-.406h50.048v-.01Z" fill="#333"/><path d="M464.661 19.848c1.655-.665 3.093-1.046 4.528-1.163 2.56-.207 4.343.996 4.51 3.053.125 1.531-.789 2.737-2.2 2.852-.67.054-1.269-.21-1.573-.691-.276-.435-.425-1.073-.506-2.078-.031-.383-.049-.598-.038-1.056-.984.633-1.377.834-2.57 1.268.119 1.459.279 2.24.656 3.028.761 1.672 2.201 2.495 4.138 2.337 3.11-.252 5.24-2.785 4.988-5.895-.276-3.396-3.321-5.605-7.316-5.281-1.746.142-3.237.455-4.825 1.066l-.253-3.11c.902-.17 1.374-.28 2.152-.488 1.627-.42 2.076-.53 2.501-.636l-.313-2.671c-1.189.481-2.767.923-4.543 1.284l-.125-1.531c-.109-1.34-.125-1.844-.068-2.62l-2.99.243c.182.756.256 1.376.367 2.74l.128 1.578c-.263.022-.383.031-.955.102-.333.051-.596.072-.835.092-1.268.103-2.231.109-2.912.02l.241 2.677c.214-.042.405-.057.501-.065.071-.006.287-.023.6-.025.287-.023.958-.053 1.317-.083.598-.048.933-.075 1.29-.128.786-.112.786-.112.977-.128l.323 3.682c-1.525.798-2.527 1.506-3.328 2.317-1.222 1.255-1.861 2.583-1.769 3.707.083 1.029.613 1.925 1.535 2.597 1.279.931 3.152 1.453 4.659 1.331 1.124-.091 1.94-.711 2.088-1.566.104-.49.106-1.068.026-2.049l-.406-4.71Zm-2.326 4.57c.064.79-.038 1.015-.445 1.048-.454.037-1.068-.106-1.574-.402-.577-.29-.845-.63-.878-1.036-.07-.861.897-2 2.613-3.102l.284 3.493Zm14.634-11.348c-1.42-1.764-2.924-3.086-5.135-4.52l-2.126 1.69c1.954 1.238 3.854 2.986 5.203 4.778l2.058-1.949ZM496.297 12.326c.363-.307.599-.527 1.182-1.152.659-.667 1-1 1.31-1.238l-1.275-1.433c-.535.051-.991.036-2.306-.076l-3.779-.321c.428-.494.533-.605.993-1.192l-2.945-.78c-1.694 2.65-4.079 4.639-7.395 6.235.476.643.915 1.427 1.296 2.326 1.466-.814 2.127-1.216 3.26-2.083l-.097 1.148c.578.001 1.153.026 1.775.079l10.235.87-.105 1.244-11.144-.948c-1.148-.098-1.433-.146-2.168-.28l-.193 2.271c.89.004 1.323.016 2.184.09l11.144.947-.114 1.34-11.503-.979c-1.076-.091-1.552-.156-2.192-.283l-.201 2.368c.795-.005 1.347.018 2.208.091l5.668.482-1.435 1.01c.935.899 1.725 1.81 2.828 3.276l1.912-1.524c-.713-.951-1.374-1.682-2.468-2.69l6.122.52c.502.043.739.087 1.476.198.007-.36.019-.793.07-1.391l.543-6.385a18.87 18.87 0 0 1 .166-1.383c-.482.007-.891-.003-1.537-.058l-3.515-.3Zm-7.82-.665-.55-.047c.857-.722 1.142-.963 1.697-1.542l5.07.431c-.773.874-1.034 1.117-1.553 1.554l-4.664-.396Zm-5.596 15.95c1.588-1.96 2.154-2.947 3.289-5.813l-2.312-.847c-.783 2.125-1.429 3.202-3.076 5.013l2.099 1.648Zm6.623-4.23c.089-1.051.148-1.456.284-1.926l-2.774-.236c.067.632.05 1.112-.021 1.95l-.222 2.606c-.171 2.009.494 2.402 4.631 2.754 3.42.291 4.873.198 5.546-.347.618-.477.863-1.083 1.329-3.163-.873-.219-1.712-.555-2.42-1-.174 1.19-.376 1.87-.634 2.065-.411.303-1.112.34-3.265.156-2.534-.215-2.674-.275-2.605-1.089l.151-1.77Zm8.084-.179c1.416 2.048 2.077 3.332 3.01 5.676l2.41-1.433c-1.134-2.24-1.913-3.56-3.247-5.43l-2.173 1.187ZM518.442 11.797c.012.053.156.834.383 2.355.083.443.083.443.105.647a42.684 42.684 0 0 1-4.853-.983c-1.022-.265-1.55-.426-2.206-.67l-.527 2.516c.5.08.616.11 1.592.362 2.701.675 4.398 1.015 6.317 1.263.077.467.105.647.211 1.196.078.466.128.652.196.967a47.214 47.214 0 0 1-6.69-1.26c-1.58-.409-1.719-.445-2.369-.712l-.563 2.556c.408.056.576.075.971.177 5.084 1.143 6.601 1.411 9.16 1.677.555 1.879.834 2.62 1.11 3.088a16.55 16.55 0 0 0-3.893-1.528c-2.347-.607-4.308-.693-5.715-.24-1.465.49-2.463 1.47-2.787 2.725-.337 1.301.03 2.66.965 3.646 1.097 1.127 2.703 1.915 5.374 2.606 2.045.53 4.04.773 6.153.75 1.147-.026 1.147-.026 1.606.019l.322-2.966c-1.68.457-5.137.306-7.553-.319-1.348-.349-2.531-.853-3.19-1.371-.538-.412-.795-1.049-.651-1.606.145-.558.619-.956 1.366-1.159.898-.214 2.306-.097 4.072.36 2.277.589 3.605 1.205 5.097 2.335l2.43-.958c-1.083-2.139-1.322-2.746-2.013-5.057.291.025.291.025.907.036.582.052 1.397.064 2.404.102.57-.001 1.082.032 1.542.077l.429-2.616c-.676.122-.979.143-2.382.102-.151.01-1.28-.034-3.387-.133a21.997 21.997 0 0 1-.413-2.14c.721.088 3.142.219 4.643.26.594.005.594.005.838.019l.166-1.023 1.154-.148c-.232-1.498-.47-2.303-1.047-3.618l-1.976.258c.337.806.485 1.191.699 2.09-1.042.002-3.631-.147-4.765-.267-.225-1.72-.276-2.476-.225-3.058l-3.007-.357Zm13.24 4.592c-.193-1.265-.517-2.216-1.066-3.449l-1.893.229a15.056 15.056 0 0 1 1.018 3.536l1.941-.316ZM536.484 22.648c.932.208 2.314.646 3.83 1.196 4.908 1.785 5.801 2.081 7.692 2.616-1.748.082-2.802.32-4.037.843-1.985.844-3.556 2.348-4.392 4.209-1.024 2.276-.744 4.639.758 6.682 1.001 1.345 2.203 2.359 4.473 3.748.342.233.452.282.685.466l1.733-2.8a5.144 5.144 0 0 1-.448-.175c-.788-.354-2.081-1.225-3.006-2.035-1.592-1.374-2.075-3.17-1.307-4.877.994-2.211 3.62-3.662 7.049-3.857 1.736-.114 3.553.176 4.866.767.219.098.219.098.45.228l1.096-2.848c-.433-.09-.771-.216-2.605-.935-6.192-2.442-9.914-3.878-11.169-4.364-3.316-1.228-3.316-1.228-3.71-1.405-.11-.049-.351-.157-.822-.396l-1.136 2.937Zm12.646 7.106c.362 1.242.523 2.288.599 3.875l2.058-.128c-.069-1.662-.197-2.43-.62-3.83l-2.037.083Zm5.616 3.604c-.072-1.48-.239-2.396-.657-3.69l-1.952.07c.341 1.232.502 2.278.573 3.758l2.036-.138ZM557.82 39.224c.266.207.326.247.678.627.679.712 1.377 1.352 2.468 2.311a16.308 16.308 0 0 0-1.232 1.63c-2.146 3.214-1.329 6.27 2.304 8.695 1.876 1.252 3.666 1.813 5.39 1.694 1.844-.125 3.462-1.036 4.408-2.453.613-.918 1.034-2.283 1.101-3.507.034-.526.014-.972-.099-1.884-1.164-.287-1.637-.487-2.808-1.154.465 1.898.317 3.415-.455 4.573-1.306 1.956-3.51 2.101-6.045.409-1.098-.733-1.736-1.506-1.982-2.391-.212-.806-.019-1.571.634-2.55.24-.358.626-.85 1.046-1.35.752.56.932.68 1.251.893a34.913 34.913 0 0 0 3.114 1.82c.379.166.439.206.639.34l1.592-2.256c-1.131-.38-2.662-1.2-4.079-2.146-.219-.147-.379-.254-.965-.673.76-.878 1.086-1.238 2.259-2.561.845.592 1.024.712 1.224.846.718.48 1.384.866 2.901 1.706.466.253.579.3.852.453l1.639-2.282c-1.325-.48-2.549-1.154-4.831-2.62 1.998-2.215 2.258-2.474 2.891-2.946l-2.495-2.012c-.047.113-.074.153-.114.213-.399.599-1.212 1.556-2.611 3.047-1.277-1.026-2.508-2.252-3.133-3.13l-1.665 2.061c.259.26.346.347.585.593 1.157 1.206 1.45 1.459 2.521 2.405-.593.672-1.665 1.89-2.225 2.554-1.849-1.638-2.328-2.131-3.006-3.103l-1.752 2.148ZM592.611 64.67c.859.805 1.351 1.332 1.829 1.91l1.854-1.979c-.556-.39-.993-.765-2.009-1.717l-6.656-6.234c1.357-.537 1.357-.537 2.012-.78l1.039-.407-1.807-2.284c-.798.502-1.718.922-3.364 1.485l-3.013-2.822c-.998-.935-1.385-1.33-1.827-1.875l-1.854 1.979c.574.406 1.15.88 2.008 1.683l2.014 1.887c-1.666.445-2.61.646-4.842.956 2.061 3.312 2.278 3.712 3.333 5.851-2.652-.61-5.001-1.823-8.307-4.262-.185 1.076-.398 1.83-.792 2.777 4.282 2.695 7.122 3.842 10.325 4.179 1.25 2.913 1.906 4.81 2.704 7.926l2.963-.25c-1.111-3.343-1.703-4.852-2.965-7.612 2.082-.187 3.561-.643 5.867-1.805l1.488 1.395Zm-3.52-3.297c-1.804.908-3.117 1.257-5.002 1.267-.817-1.62-1.123-2.136-2.381-4.269 1.501-.303 1.989-.438 3.301-.82l4.082 3.822Zm2.416-9.706-4.432-4.151c-.876-.82-1.402-1.347-1.932-1.975-.374.505-.782 1.01-1.176 1.431l-1.214 1.296c-.492.526-.872.86-1.302 1.215l1.927 1.804 1.969-2.102 11.315 10.599-1.968 2.102 1.926 1.805c.308-.469.651-.87 1.127-1.379l1.214-1.296c.459-.49.854-.877 1.333-1.283-.661-.488-1.238-.995-2.096-1.8l-4.729-4.429.295-.315a12.49 12.49 0 0 1 1.318-1.232l-2.137-2.002c-.324.486-.667.888-1.159 1.414l-.279.297ZM593.222 76.439c3.584-.8 5.053-1.405 10.154-4.294l-1.175-2.454c-4.148 2.435-5.977 3.164-9.395 3.746l.416 3.002Zm20.327 1.776c-.451-3.246-.912-5.158-2.104-8.745l-2.745.16c1.258 3.989 1.647 5.925 1.841 8.794l3.008-.209Zm-6.514 13.195c2.608-3.705 3.832-5.783 5.276-9.115l-2.472-1.346c-1.459 3.314-2.93 5.7-5.583 9.109l2.779 1.352Zm-.92-16.222a15.054 15.054 0 0 1 1.992-1.306l-1.875-2.463c-.691.677-1.121 1.064-1.846 1.617l-9.013 6.862c-1.737 1.323-1.607 2.129.967 5.508 2.326 3.056 3.195 3.721 4.576 3.514 1.122-.19 2.356-.828 5.064-2.619-.419-.947-.64-1.594-.864-2.72-2.015 1.474-3.377 2.3-4.101 2.459-.599.124-1.154-.328-2.318-1.856-1.337-1.756-1.518-2.192-1.041-2.555l8.459-6.441Z" fill="#00A0E8"/><path d="M300 174.437c0 77.319-62.68 140-140 140s-140-62.681-140-140c0-77.32 62.68-140 140-140s140 62.68 140 140Z" fill="#F5F5F5"/><path d="M101.7 126.117v1.344h-5.544c-1.26 0-2.072-.028-2.856-.14v2.52c.784-.112 1.624-.14 2.856-.14h5.544v1.4h-7.42c-1.512 0-2.464-.056-3.36-.168v2.8a30.779 30.779 0 0 1 3.388-.168h5.208c-2.24 1.876-5.068 3.108-9.156 3.976a11.46 11.46 0 0 1 1.708 2.688c2.212-.644 3.92-1.372 5.712-2.352 1.68-.924 2.716-1.736 4.032-3.08-.084 1.148-.084 1.26-.084 1.904v1.344c0 1.12-.056 2.044-.168 2.856h3.304c-.14-.784-.196-1.652-.196-2.828v-1.372c0-.672 0-.924-.084-1.988 2.52 2.548 5.684 4.256 10.388 5.544.476-1.176.812-1.792 1.596-2.856-2.576-.448-4.032-.84-5.824-1.596-1.596-.672-2.856-1.428-3.808-2.24h5.628c1.288 0 2.324.056 3.36.168v-2.8c-.812.112-1.792.168-3.388.168h-7.812v-1.4h5.852c1.232 0 2.1.028 2.884.14v-2.52c-.784.112-1.624.14-2.884.14h-5.852v-1.344h7.308c1.316 0 2.016.028 2.884.14v-2.66c-.812.084-1.512.112-2.884.112h-3.248c.392-.7.504-.952 1.036-2.072h2.8c1.372 0 2.464.056 3.332.14v-2.8c-.84.112-1.708.168-3.164.168h-.784c.616-.868 1.064-1.568 1.736-2.688l-2.884-1.064c-.504 1.372-1.036 2.352-2.016 3.752h-1.764v-1.988c0-.896.056-1.652.14-2.184h-3.052c.056.532.084 1.176.084 2.072v2.1h-1.988v-2.1c0-.952.028-1.568.084-2.072h-3.052c.084.56.14 1.344.14 2.184v1.988h-1.596c-.812-1.68-1.204-2.352-2.156-3.668l-2.8 1.064c1.036 1.176 1.372 1.624 1.904 2.604h-.896c-1.428 0-2.324-.056-3.192-.168v2.8c.896-.084 1.96-.14 3.332-.14h3.024c.308.532.616 1.176 1.036 2.072H94.7c-1.372 0-2.1-.028-2.884-.112v2.66c.868-.112 1.596-.14 2.884-.14h7Zm-.644-2.408a17.872 17.872 0 0 0-.84-2.072h6.384a16.33 16.33 0 0 1-.924 2.072h-4.62Zm25.592 3.612c-1.708 1.904-4.368 3.36-7.952 4.34.728 1.008.98 1.456 1.568 2.856 2.856-1.064 4.62-2.016 6.44-3.444 0 .168.028.308.028.364 0 2.156-.56 3.668-1.708 4.648-1.176 1.036-2.464 1.596-5.124 2.324 1.064 1.204 1.288 1.54 1.876 2.576 5.684-1.82 7.784-4.284 7.98-9.492.028-.644.056-.98.112-1.288h-2.1c1.26-1.12 1.792-1.736 2.604-2.884h2.912c1.036 1.316 1.456 1.764 2.772 2.884h-1.624c.084.616.14 1.176.14 2.212v5.208c0 1.344-.056 2.24-.168 3.108h3.388c-.14-.924-.168-1.848-.168-3.08v-6.216c1.596 1.148 3.64 2.156 6.104 3.08.504-1.372.812-1.988 1.484-3.024-3.556-.924-6.3-2.324-8.204-4.172h2.464c1.232 0 2.1.028 2.996.112-.112-.784-.14-1.54-.14-2.912v-5.852c0-1.428.028-2.184.14-2.996-.924.112-1.68.14-3.024.14h-15.008c-1.344 0-2.128-.028-2.996-.14.084.896.14 1.596.14 2.996v5.852c0 1.316-.056 2.044-.14 2.912.84-.084 1.736-.112 2.94-.112h2.268Zm-2.072-8.96h5.796v2.128h-5.796v-2.128Zm0 4.508h5.796v2.1h-5.796v-2.1Zm8.68-4.508h6.048v2.128h-6.048v-2.128Zm0 4.508h6.048v2.1h-6.048v-2.1Zm24.696 15.092c0 1.4-.056 2.156-.168 2.828h3.08c-.112-.728-.14-1.54-.14-2.688.616.644 1.092 1.456 1.456 2.352 1.82-.868 2.94-1.568 4.34-2.716 1.736 1.344 2.52 1.764 5.488 2.912.42-1.036.868-1.904 1.428-2.744-2.156-.56-3.696-1.176-4.956-1.988 1.148-1.26 2.268-2.94 3.192-4.788.196-.42.252-.532.448-.812l-1.456-1.596c-.448.084-1.148.112-2.1.112h-4.704c-1.148 0-1.708-.028-2.352-.112v2.632c.7-.084 1.204-.112 2.1-.112h.728l-2.38 1.064c1.008 1.652 1.568 2.436 2.548 3.556-1.064.812-2.324 1.456-3.78 1.988v-10.248h9.716c1.372 0 2.044.028 2.94.14v-2.716c-.784.14-1.484.168-2.912.168h-19.796c-1.4 0-2.128-.028-2.884-.168v2.716c.84-.112 1.54-.14 2.772-.14v8.68c-1.176.084-1.96.14-2.408.14-.14 0-.252 0-.448-.028l.644 2.884c.7-.14 1.68-.308 3.92-.616 3.024-.448 3.024-.448 5.684-.952v.252Zm0-2.548c-2.632.392-3.276.476-4.648.616v-1.736h4.648v1.12Zm0-3.164h-4.648v-1.344h4.648v1.344Zm0-3.388h-4.648v-1.26h4.648v1.26Zm10.584 2.38c-.728 1.344-1.204 2.044-2.072 2.94-.84-.896-1.232-1.512-1.988-2.94h4.06Zm1.848-13.16c0-1.092.028-1.764.112-2.436-.952.084-1.68.112-2.968.112h-13.776c-1.288 0-2.044-.028-2.968-.112.084.7.112 1.4.112 2.436v3.78c0 1.008-.028 1.708-.112 2.408a40.766 40.766 0 0 1 2.884-.084h14.224c.952 0 1.96.028 2.604.084-.084-.672-.112-1.344-.112-2.436v-3.752Zm-16.604-.168h13.692v1.12H153.78v-1.12Zm0 3.052h13.692v1.148H153.78v-1.148Zm44.744 6.776c1.372 0 2.212.056 3.08.168v-3.164c-.784.112-1.456.14-3.08.14h-10.64c.728-1.54.728-1.54 1.092-2.268l.56-1.176-3.36-.504c-.28 1.064-.728 2.156-1.68 3.948h-4.816c-1.596 0-2.24-.028-3.052-.14v3.164c.812-.112 1.68-.168 3.052-.168h3.22c-1.064 1.708-1.708 2.632-3.36 4.676 4.396 1.176 4.9 1.344 7.504 2.324-2.744 1.596-5.712 2.436-10.472 2.996.7 1.064 1.12 1.876 1.54 2.996 5.796-1.12 9.128-2.408 12.124-4.676 3.388 1.484 5.46 2.576 8.624 4.592l2.324-2.576c-3.612-1.96-5.32-2.772-8.596-4.116 1.624-1.82 2.52-3.388 3.556-6.216h2.38Zm-5.628 0c-.812 2.212-1.652 3.556-3.248 5.068-1.988-.728-2.66-.924-5.432-1.736 1.036-1.456 1.344-1.96 2.156-3.332h6.524Zm-5.684-10.192h-7.084c-1.4 0-2.268-.028-3.22-.14.084.728.14 1.484.14 2.156v2.072c0 .84-.056 1.428-.14 2.072h3.08v-3.36h18.088v3.36h3.08c-.112-.644-.14-1.26-.14-2.072v-2.072c0-.784.028-1.428.112-2.156-.952.112-1.848.14-3.22.14h-7.56v-.504c0-.84.056-1.512.14-2.1h-3.416c.112.672.14 1.288.14 2.128v.476Zm30.8 1.176c-.028 3.808-.112 5.292-.42 7.756-.392 3.248-1.092 6.048-1.988 8.064-.168-1.428-.392-2.576-.784-4.256l-2.1.504c.448 1.848.644 3.052.784 5.04l1.764-.588c-.784 1.512-1.288 2.324-2.24 3.472 1.092.7 1.624 1.176 2.324 2.072 1.456-1.96 2.464-3.864 3.36-6.468.784-2.24 1.148-4.144 1.456-7.364.644 2.884 1.512 5.068 2.856 7.224-1.484 1.624-3.024 2.716-5.488 3.92 1.036 1.12 1.232 1.372 1.876 2.604 2.38-1.372 3.92-2.548 5.404-4.144 1.456 1.624 2.8 2.828 4.676 4.116.616-1.428.672-1.54 1.624-2.968-1.988-1.232-3.304-2.24-4.48-3.556 1.148-1.792 1.484-2.408 1.876-3.416.42-1.12 1.008-2.912 1.148-3.5.476-1.988.476-1.988.56-2.296.14-.56.14-.56.196-.756l-1.12-1.204c-.448.084-.952.112-1.82.112h-1.008c.336-1.176.84-3.22 1.12-4.62.364-1.764.364-1.764.56-2.632-.7.084-1.512.112-2.66.112h-6.916c-1.484 0-2.408-.056-3.248-.168v3.08c.812-.112 1.344-.14 2.324-.14h.364Zm6.58 0c-.784 3.696-1.12 5.012-1.82 7.112.56-.028.7-.028 1.484-.028h2.828c-.588 2.632-1.148 4.06-2.296 5.992-1.232-1.848-1.96-3.416-2.688-5.964-.616-2.1-.756-2.94-1.204-7.112h3.696Zm-19.348 10.78c.448-.112.644-.112 1.344-.168.252 0 .896-.056 1.876-.14l.896-.056v8.624c0 1.372-.028 2.072-.168 2.996h3.052c-.14-.896-.168-1.568-.168-2.996v-8.848c.336-.056 1.092-.14 2.24-.28.112.392.14.56.28 1.064l2.184-1.092c-.504-1.764-1.232-3.528-2.212-5.46l-2.044.98c.532 1.008.672 1.344.98 2.156-1.008.14-1.68.196-3.304.252.56-.7 1.848-2.436 2.38-3.248 1.904-2.856 2.632-3.948 2.8-4.172l-2.604-1.4c-.392 1.092-.532 1.344-2.66 4.76a17.105 17.105 0 0 0-1.064-1.26c.84-1.204 1.344-2.044 2.52-4.256.336-.616.448-.784.7-1.176l-2.8-1.064c-.28 1.092-1.148 2.912-2.212 4.592-.364-.364-.532-.532-1.092-1.036l-1.4 2.436a27.278 27.278 0 0 1 3.78 4.088c-.616.896-.84 1.204-1.372 1.876h-.448c-.952 0-1.176 0-1.848-.056l.364 2.884Zm.784 1.036c-.168 3.22-.532 5.376-1.26 7.448l2.436 1.092c.672-2.324.784-3.024 1.288-8.176l-2.464-.364Zm-87.252 46.232c-.392-.728-.728-1.512-1.428-3.304l-6.216-16.156c-.644-1.708-.812-2.156-.952-2.828h-4.872c-.14.728-.364 1.428-.896 2.828l-6.16 16.156c-.504 1.288-1.064 2.548-1.484 3.304h4.592c.224-1.176.336-1.596.84-2.94l1.12-3.052h8.96l1.12 3.052c.308.812.616 2.016.784 2.94h4.592Zm-7.504-9.212h-6.944l2.912-8.288c.084-.252.084-.252.532-1.568.308.924.392 1.26.504 1.568l2.996 8.288Zm22.908.766h2.828v3.047h-2.828v5.063h-3.797v-5.063h-9.828l-.11-2.312 9.813-15.375h3.922v14.64Zm-9.75 0h5.953v-9.5l-.281.5-5.672 9Zm36.27-14.626c-.952.532-1.764.84-3.388 1.316-3.444.98-8.232 1.624-11.984 1.624-.42 0-.868 0-1.736-.056.616 1.344.756 1.764 1.036 3.024 4.62-.224 5.488-.308 7.756-.644 0 1.96 0 3.052-.056 4.228h-7.168c-1.904 0-2.38-.028-3.416-.196v3.36c1.036-.112 1.568-.14 3.36-.14h6.916c-.112.924-.196 1.4-.308 1.876-.476 1.82-1.54 3.416-3.22 4.76-1.26 1.036-2.324 1.624-4.34 2.352 1.176 1.008 1.624 1.54 2.436 2.968 1.288-.588 1.82-.896 2.604-1.4 1.96-1.26 3.584-2.828 4.564-4.452s1.568-3.5 1.876-6.104h6.188c1.792 0 2.324.028 3.36.14v-3.36c-1.036.168-1.512.196-3.416.196h-5.936c.056-.952.056-.952.084-4.732 2.184-.42 3.08-.644 4.676-1.148 2.016-.672 2.016-.672 2.352-.756l-2.24-2.856Zm12.936 4.172c.868-.112 1.4-.14 3.22-.14h9.884c1.82 0 2.352.028 3.22.14v-3.444c-.924.168-1.512.196-3.276.196h-9.772c-1.764 0-2.352-.028-3.276-.196v3.444Zm17.752 3.248c-.868.196-1.428.252-3.164.252h-13.328c-1.96 0-2.576-.028-3.64-.196v3.416c1.008-.112 1.708-.14 3.584-.14h13.636c-1.232 3.108-2.436 4.816-4.508 6.552-2.156 1.792-4.368 2.828-7.784 3.696 1.232 1.372 1.568 1.848 2.184 3.248 3.528-1.316 5.348-2.268 7.336-3.808 2.912-2.24 5.04-5.348 6.496-9.464.336-.868.504-1.26.784-1.764l-1.596-1.792Zm10.5-4.088c2.436.84 4.928 2.156 7.476 3.864l1.792-3.08c-2.352-1.428-4.564-2.492-7.448-3.612l-1.82 2.828Zm-2.212 6.804c2.856 1.12 5.348 2.464 7.588 4.116l1.736-3.164c-2.408-1.568-4.564-2.66-7.448-3.808l-1.876 2.856Zm1.596 13.496c.56-.168.952-.252 1.96-.448 6.888-1.372 11.648-3.864 15.204-7.952 1.736-2.044 2.912-3.976 4.2-7.084-1.344-.924-1.764-1.288-2.912-2.492-.868 2.492-1.736 4.172-3.248 6.188-2.24 2.996-4.62 4.816-8.092 6.16-2.912 1.12-5.964 1.792-8.092 1.82l.98 3.808ZM6.843 50.885c.676 0 1.224-.549 1.224-1.225v-.049c0-13.116 16.07-23.784 35.824-23.784 19.754 0 35.824 10.672 35.824 23.784v.05a1.225 1.225 0 0 0 2.449 0v-.05c0-12.421-12.666-22.849-29.608-25.547a6.711 6.711 0 0 0 3.556-5.917 6.717 6.717 0 0 0-6.71-6.71 6.698 6.698 0 0 0-5.516 2.9 6.698 6.698 0 0 0-5.515-2.9 6.717 6.717 0 0 0-6.71 6.71 6.71 6.71 0 0 0 3.556 5.917C18.275 26.762 5.609 37.19 5.609 49.61v.05c.01.68.553 1.224 1.234 1.224Zm42.563-37a4.267 4.267 0 0 1 4.261 4.262 4.264 4.264 0 0 1-4.26 4.26 4.267 4.267 0 0 1-4.262-4.26 4.267 4.267 0 0 1 4.261-4.261Zm-5.515 8.067a6.706 6.706 0 0 0 1.362 1.45c-.45-.01-.906-.024-1.362-.024-.455 0-.906.014-1.362.024.52-.416.98-.901 1.362-1.45Zm-9.776-3.805a4.267 4.267 0 0 1 4.261-4.261 4.264 4.264 0 0 1 4.261 4.26 4.264 4.264 0 0 1-4.261 4.262 4.267 4.267 0 0 1-4.261-4.261ZM85.367 93.502v1.94h4.83v5.941h2.37v-5.941h4.834v-1.94h-4.834v-1.067h4.834V90.49h-4.006l5.06-7.038h-2.797l-4.276 5.965-4.271-5.965h-2.797l5.06 7.038h-4.007v1.945h4.83v1.067h-4.83ZM68.915 103.048l-4.27 5.966-4.277-5.966h-2.791l5.054 7.043h-4.006v1.94h4.834v1.067h-4.834v1.94h4.834v5.946h2.37v-5.946h4.835v-1.94H65.83v-1.067h4.834v-1.94h-4.007l5.055-7.043h-2.797ZM75.84 74.38a23.535 23.535 0 0 1 2.003-1.553c-3.012-6.832-9.845-11.617-17.78-11.617-10.707 0-19.42 8.713-19.42 19.42 0 5.936 2.68 11.255 6.891 14.821a23.36 23.36 0 0 1 1.803-1.68c-3.81-3.115-6.245-7.846-6.245-13.141 0-9.36 7.611-16.971 16.971-16.971 7.151 0 13.279 4.447 15.777 10.721Z" fill="#333"/><path d="M2.449 78.004c0-5.897 2.88-12.274 8.106-17.956a11.992 11.992 0 0 0 3.17-8.199c0-5.143 3.07-10.046 8.654-13.802 5.75-3.875 13.39-6.005 21.512-6.005 8.12 0 15.756 2.135 21.511 6.005 5.58 3.756 8.655 8.66 8.655 13.841a11.978 11.978 0 0 0 3.17 8.165c2.884 3.135 5.049 6.48 6.41 9.84a24.243 24.243 0 0 1 2.366-.68c-1.47-3.718-3.83-7.397-6.975-10.82a9.542 9.542 0 0 1-2.522-6.544c0-12.274-14.63-22.261-32.615-22.261-17.98 0-32.611 9.987-32.611 22.305a9.536 9.536 0 0 1-2.522 6.5C3.11 64.525 0 71.49 0 78.004c0 7.817 4.56 14.17 13.185 18.372 7.465 3.64 17.765 5.599 29.814 5.692a23.19 23.19 0 0 1 1.298-2.444c-.137 0-.27.005-.406.005-20.033 0-41.442-5.682-41.442-21.625ZM91.382 72.994c-9.688 0-17.745 7.131-19.19 16.422.803.27 1.587.579 2.346.931 1.024-8.385 8.185-14.904 16.844-14.904 9.36 0 16.972 7.611 16.972 16.971s-7.612 16.971-16.972 16.971c-1.058 0-2.091-.102-3.095-.289.103.828.161 1.666.176 2.518.955.142 1.93.22 2.92.22 10.706 0 19.42-8.713 19.42-19.42.005-10.707-8.709-19.42-19.42-19.42Z" fill="#333"/><path d="m64.338 71.662-4.276 5.965-4.276-5.965H52.99l5.06 7.043h-4.007v1.94h4.834v1.067h-4.834v1.945h4.834v5.24a23.597 23.597 0 0 1 2.37-.465v-4.775h4.835v-1.945h-4.834v-1.068h4.834v-1.94h-4.007l5.06-7.042h-2.797ZM64.643 92.596c-10.707 0-19.42 8.713-19.42 19.42 0 10.707 8.713 19.42 19.42 19.42 10.707 0 19.42-8.713 19.42-19.42 0-10.712-8.713-19.42-19.42-19.42Zm0 36.392c-9.36 0-16.971-7.612-16.971-16.972 0-9.36 7.611-16.971 16.971-16.971s16.972 7.611 16.972 16.971-7.612 16.972-16.972 16.972ZM83.74 240.437h-6.144v-29.682l-9.064 3.098v-5.206l14.422-5.306h.787v37.096Zm37.973-18.9c-.812.112-1.68.168-3.108.168h-6.72c.308-1.008.56-1.904.784-2.716.196-.812.308-1.176.476-1.596l-3.248-.588c-.084 1.232-.672 3.668-1.26 5.292-.84 2.352-1.876 4.256-3.164 5.796.98.98 1.456 1.512 2.1 2.436.644-.868.84-1.148 1.316-1.932a24.753 24.753 0 0 0 3.164 6.692c-2.016 2.212-4.144 3.584-7.448 4.844.812.98 1.204 1.624 1.736 2.744 3.388-1.568 5.572-3.08 7.588-5.236 2.156 2.268 3.416 3.248 6.72 5.18.504-1.316.952-2.24 1.596-3.08-2.884-1.316-4.676-2.548-6.496-4.508 1.876-2.94 2.772-5.684 3.416-10.556 1.26.028 1.82.056 2.548.14v-3.08Zm-10.864 2.94h5.376c-.476 3.64-1.12 5.88-2.38 8.148-1.652-2.464-2.576-4.732-3.192-7.672l.196-.476Zm-6.496.28c.672 0 1.26.028 2.044.112v-2.968c-.7.112-1.204.14-2.1.14h-1.26v-2.576c0-1.12.028-1.792.168-2.576h-3.304c.14.756.168 1.428.168 2.548v2.604h-1.12c-1.036 0-1.596-.028-2.296-.14v2.996c.644-.112 1.316-.14 2.24-.14h.952c-.756 3.332-2.324 6.72-4.396 9.38.784.868 1.26 1.624 1.764 2.772 1.316-1.932 2.044-3.584 3.024-6.608a56.269 56.269 0 0 0-.14 4.396v5.124c0 1.26-.056 2.212-.168 3.024h3.276c-.112-.868-.168-1.764-.168-3.052v-7.812c0-.924-.028-1.68-.168-3.08.616 1.484 1.092 2.38 2.184 3.976a14.15 14.15 0 0 1 1.736-2.744c-1.876-1.96-2.632-3.052-3.668-5.376h1.232Zm38.543 15.68h-6.145v-29.682l-9.064 3.098v-5.206l14.421-5.306h.788v37.096Zm18.127-6.5c1.151 0 2.04.33 2.666.99.627.643.94 1.455.94 2.437 0 .965-.313 1.769-.94 2.412-.626.627-1.515.94-2.666.94-1.1 0-1.972-.313-2.615-.94-.643-.626-.965-1.43-.965-2.412s.314-1.794.94-2.437c.626-.66 1.506-.99 2.64-.99Zm28.031 6.5h-6.145v-29.682l-9.064 3.098v-5.206l14.422-5.306h.787v37.096Zm16.804-8.68h16.66v6.832c0 .672-.168.756-1.26.756-1.008 0-2.408-.112-4.256-.308.504 1.148.7 1.932.868 3.024 1.092.056 2.632.112 3.724.112 1.512 0 2.408-.112 2.94-.392.812-.42 1.148-1.204 1.148-2.632v-17.948c0-1.512.028-2.24.112-3.052-.672.084-1.512.112-3.052.112h-17.024c-1.484 0-2.212-.028-3.108-.112.084.812.112 1.512.112 2.688v18.312c0 1.456-.056 2.464-.168 3.36h3.444c-.112-.644-.14-1.484-.14-3.248v-7.504Zm6.636-2.94h-6.636v-7.588h6.636v7.588Zm3.024 0v-7.588h7v7.588h-7Zm16.576 3.108c1.764-1.904 3.052-2.576 4.872-2.576 1.484 0 2.352.336 4.816 1.904 2.184 1.428 2.744 1.708 3.836 2.072a7.966 7.966 0 0 0 2.464.392c1.82 0 3.416-.532 4.844-1.596.924-.672 1.512-1.26 2.66-2.716l-2.24-2.24c-.98 1.316-1.708 1.932-2.912 2.548-.672.308-1.484.532-2.072.532-1.344 0-2.828-.588-4.956-1.96-1.82-1.176-1.82-1.176-2.548-1.54-1.204-.588-2.324-.84-3.612-.84-1.624 0-2.884.392-4.592 1.456-1.232.784-1.736 1.232-2.772 2.492l2.212 2.072ZM205.137 214.841c-.684-1.032-.96-1.572-1.224-2.412a9.014 9.014 0 0 1-.396-2.7c0-.948.132-1.848.396-2.688.264-.84.54-1.38 1.224-2.412l-.9-.6c-.684 1.044-.972 1.584-1.272 2.448a9.595 9.595 0 0 0-.552 3.252c0 1.128.18 2.22.552 3.252.3.864.588 1.416 1.272 2.448l.9-.588Zm2.858-8.328h-.876c-.48 0-.708-.012-.996-.06v.912c.276-.048.516-.06.996-.06h.744a9.689 9.689 0 0 1-2.016 3.672c.216.276.336.48.492.852.828-1.02 1.344-2.028 1.716-3.348-.024.528-.06 1.428-.06 1.8v2.652c0 .648-.024 1.008-.072 1.416h1.02c-.06-.336-.072-.744-.072-1.416v-2.892c0-.432-.024-1.092-.072-1.668.336.876.552 1.26 1.056 1.932.168-.372.264-.54.456-.792-.432-.456-.636-.72-.864-1.14a7.155 7.155 0 0 1-.528-1.068h.468c.36 0 .588.012.828.048v-.888c-.24.036-.444.048-.828.048h-.516v-1.836c.444-.144.72-.252 1.152-.444.156-.06.204-.084.312-.132l-.54-.744c-.636.456-1.884.828-3.576 1.056.204.3.288.504.36.768.684-.12.924-.156 1.416-.276v1.608Zm3.552-.696c-.396 0-.6-.012-.936-.048.024.3.036.564.036.84v1.968c0 .324-.012.588-.036.888.312-.036.54-.048.924-.048h.372c-.012.948-.156 1.716-.456 2.352-.384.852-.972 1.404-2.004 1.884.3.252.468.432.66.744 1.116-.588 1.752-1.26 2.196-2.328.312-.744.444-1.476.504-2.652h1.02v3.852c0 .744.252.924 1.308.924.9 0 1.248-.06 1.476-.252.288-.252.396-.684.504-2.004-.288-.072-.504-.168-.828-.396-.024.9-.072 1.368-.168 1.584-.084.168-.252.228-.672.228-.648 0-.732-.036-.732-.312v-3.624h.684c.396 0 .696.012.984.048-.036-.3-.048-.54-.048-.876v-2.016c0-.348.012-.564.048-.804a8.054 8.054 0 0 1-.984.048h-.624c.408-.648.648-1.116 1.068-2.052l-.936-.324c-.312.972-.528 1.464-1.044 2.376h-2.316Zm-.048.804h3.972v1.992h-3.972v-1.992Zm1.392-1.272c-.264-.648-.552-1.164-1.056-1.896l-.828.384c.468.6.744 1.116 1.044 1.884l.84-.372Zm11.484-.54c-.072 2.004-.588 3.576-1.608 4.932-.504.672-.876 1.044-1.56 1.536.336.288.468.432.684.72.492-.408.708-.6.972-.888a8.11 8.11 0 0 0 1.464-2.256c.276-.612.384-1.02.564-1.992.348 1.476.648 2.208 1.296 3.144.684.984 1.224 1.548 2.1 2.184a3.77 3.77 0 0 1 .612-.852c-.612-.42-.9-.648-1.296-1.068-.504-.528-.948-1.176-1.32-1.884-.636-1.224-.96-2.52-.96-3.804 0-.216.012-.42.048-.636a5.825 5.825 0 0 1-.9.048h-1.356c-.468 0-.72-.012-.984-.06v.936c.264-.048.564-.06.972-.06h1.272Zm-5.904-.528c.864.804 1.212 1.2 1.944 2.232l.72-.672c-.6-.78-1.2-1.428-2.004-2.16l-.66.6Zm-.372 4.692c.288-.048.48-.06.864-.06h.852v2.796c-.54.528-1.404 1.14-1.932 1.368l.456.972c.324-.288.324-.288.636-.528.492-.372.852-.696 1.248-1.092.48.708.96 1.068 1.692 1.296.6.18 1.476.24 3.48.24.888 0 2.4-.036 3.48-.084a4.35 4.35 0 0 1 .3-1.044c-1.128.168-2.544.24-4.452.24-1.848 0-2.52-.084-3.084-.408-.516-.288-.684-.456-.924-.984v-2.388c0-.6.012-.876.06-1.272-.3.048-.564.06-.924.06h-.804c-.468 0-.66-.012-.948-.06v.948Zm12.588 6.456c.684-1.032.972-1.584 1.272-2.448a9.496 9.496 0 0 0 .552-3.252c0-1.128-.18-2.208-.552-3.252-.3-.864-.588-1.404-1.272-2.448l-.9.6c.684 1.032.96 1.572 1.224 2.412.264.84.396 1.728.396 2.688 0 .96-.132 1.86-.396 2.7-.264.84-.54 1.38-1.224 2.412l.9.588Zm9.217-6.972-4.248-4.26-.396.396 4.26 4.284-4.26 4.26.396.396 4.248-4.224 4.26 4.224.384-.396-4.26-4.26 4.26-4.284-.384-.396-4.26 4.26Zm.012-3.972a.922.922 0 0 0-.924.912c0 .504.42.924.924.924a.914.914 0 0 0 .912-.924.912.912 0 0 0-.912-.912Zm-3.444 3.468a.914.914 0 0 0-.924.912c0 .504.42.924.924.924a.914.914 0 0 0 .912-.924.912.912 0 0 0-.912-.912Zm6.864.012a.912.912 0 1 0 0 1.823.912.912 0 0 0 0-1.823Zm-3.432 3.48-.024.012c-.012 0-.012 0-.024-.012h-.036c-.408 0-.84.468-.84.924 0 .48.444.924.924.924a.93.93 0 0 0 .912-.924.914.914 0 0 0-.912-.924Zm7.908-6.204a8.257 8.257 0 0 1 1.104-.072h.624v6.852c0 .564-.024.972-.096 1.416h1.332a8.474 8.474 0 0 1-.096-1.416v-5.904c0-.66.036-1.272.108-1.992-.408.048-.612.06-1.068.06h-.852c-.48 0-.72-.012-1.056-.06v1.116Z" fill="#333"/><path d="M138.92 11.89c.734-.157 1.186-.218 2.741-.344l8.444-.685c1.555-.126 2.012-.14 2.761-.104l-.239-2.942c-.777.207-1.278.272-2.785.394l-8.348.678c-1.508.123-2.012.14-2.813.06l.239 2.942Zm15.391 1.543c-.728.228-1.202.314-2.685.435l-11.387.924c-1.674.136-2.203.155-3.123.085l.237 2.918c.853-.165 1.449-.238 3.052-.368l11.65-.945c-.837 2.74-1.748 4.283-3.397 5.91-1.718 1.68-3.536 2.719-6.394 3.697 1.148 1.087 1.468 1.47 2.091 2.624 2.923-1.37 4.412-2.309 6.003-3.762 2.333-2.116 3.935-4.919 4.894-8.536.227-.765.343-1.112.547-1.562l-1.488-1.42ZM180.647 10.917c-.566.144-.834.17-1.766.09l-5.243-.373a14.732 14.732 0 0 0-1.152-.05c.275-.41.275-.41.447-.733l.364-.595c.286-.53.286-.53.368-.643.308-.504.308-.504.47-.707l-3.222-.924c-.169.852-.631 1.752-1.488 3.052-2.014 3.008-3.898 4.775-6.783 6.409 1.178.87 1.51 1.212 2.144 2.253a23.48 23.48 0 0 0 6.117-5.646l7.208.493c-1.679 4.169-4.206 7.254-7.841 9.498-1.602.996-3.002 1.6-5.477 2.376.975.998 1.251 1.431 1.819 2.684 3.827-1.385 6.616-3.026 9.03-5.35 2.306-2.189 4.278-5.272 5.687-8.814.337-.838.451-1.045.72-1.384l-1.402-1.636ZM193.513 13.966c.744.093 1.192.184 2.702.575l8.202 2.123c1.51.39 1.945.528 2.642.807l.739-2.857c-.803-.06-1.297-.162-2.76-.541l-8.109-2.099c-1.464-.379-1.946-.528-2.676-.866l-.74 2.858Zm14.033 6.507c-.762-.023-1.239-.097-2.68-.47l-11.059-2.862c-1.627-.421-2.132-.577-2.979-.945l-.733 2.835c.86.123 1.447.25 3.004.653l11.315 2.929c-1.69 2.314-3.056 3.473-5.148 4.469-2.174 1.024-4.232 1.408-7.253 1.395.728 1.403.905 1.87 1.115 3.164 3.21-.334 4.925-.733 6.905-1.584 2.898-1.234 5.331-3.356 7.423-6.458.465-.649.689-.938 1.03-1.296l-.94-1.83ZM233.801 27.027c-.582-.051-.842-.116-1.696-.5l-4.823-2.09a14.546 14.546 0 0 0-1.071-.428c.396-.295.396-.295.665-.543l.541-.441c.445-.405.445-.405.56-.485.457-.373.457-.373.677-.511l-2.733-1.94c-.442.75-1.176 1.445-2.415 2.388-2.897 2.17-5.261 3.213-8.524 3.799.824 1.212 1.024 1.644 1.277 2.837a23.495 23.495 0 0 0 7.642-3.3l6.638 2.852c-2.966 3.377-6.372 5.45-10.545 6.364-1.842.408-3.363.514-5.955.427.589 1.265.706 1.765.827 3.135 4.07-.038 7.245-.663 10.292-2.056 2.901-1.301 5.784-3.557 8.287-6.432.595-.68.771-.837 1.137-1.067l-.781-2.01ZM250.4 39.744l-7.516 11.258c-.813 1.217-1.232 1.803-1.719 2.315l2.416 1.612c.273-.625.659-1.29 1.459-2.488l1.532-2.296 3.274 2.186c.758.506 1.311.933 1.916 1.452l1.453-2.175c-.666-.3-1.218-.64-2.076-1.213l-3.274-2.186 1.706-2.555 3.233 2.16a18.33 18.33 0 0 1 1.916 1.452l1.44-2.156c-.653-.32-1.218-.64-2.056-1.2l-3.254-2.172 1.706-2.555 3.792 2.532a25.17 25.17 0 0 1 2.089 1.54l1.44-2.157c-.613-.293-1.258-.666-2.236-1.319l-5.429-3.625c.472-.319.532-.365 1.391-1.004.407-.306.586-.445 1.106-.791l-1.816-2.165c-.566.632-1.532 1.43-2.83 2.295-2.205 1.443-4.195 2.307-6.752 2.851.212 1.152.252 1.698.185 2.836a26.115 26.115 0 0 0 6.525-2.685l.379.253Zm-2.477-8.954c-.639.698-1.465 1.33-2.597 2.075-2.551 1.615-5.101 2.626-7.471 2.977-.06 1.171-.167 1.937-.501 3.041 1.212-.258 2.124-.544 3.449-1.016-1.18 1.637-1.246 1.737-1.579 2.236l-3.798 5.689c-.693 1.038-1.186 1.69-1.792 2.381l2.395 1.6c.393-.806.886-1.63 1.513-2.569l7.382-11.058c2.597-1.642 2.597-1.642 3.49-2.288.499-.359.652-.458 1.205-.81l-1.696-2.258ZM274.283 61.443c-1.359 1.03-3.316 1.925-5.521 2.524.844-1.709 2.109-3.55 4.1-5.992l3.153 2.953a31.711 31.711 0 0 1 2.055 2.089l1.805-1.927c-.538-.339-1.027-.764-1.955-1.634l-.526-.492 1.502.223c.138-1.482.119-2.059-.047-3.497l-2.153-.405c.161 1.269.149 1.948.033 3.056l-2.313-2.166.755-.806c.541-.578 1.249-1.263 1.646-1.582l-2.084-1.952c-.291.45-.357.52-.946 1.185-.687.804-1.114 1.26-1.227 1.416l-5.08-4.758a36.772 36.772 0 0 1-2.178-2.204c-.568.783-.961 1.237-2.224 2.586-2.921 3.117-5.278 5.283-7.006 6.426-1.163.786-2.302 1.264-3.801 1.636.204 1.046.242 1.707.129 2.916 1.919-.504 3.008-.964 4.636-2.07 1.378-.945 2.668-2.006 4.661-3.888l2.557 2.395c-1.364 1.386-2.518 2.443-3.232 2.925-.498.355-.754.313-1.297-.196-.508-.476-.754-.74-1.568-1.731-.377.929-.666 1.448-1.284 2.283.528.56.792.84 1.282 1.3 1.349 1.263 2.226 1.59 3.162 1.153.987-.457 1.962-1.287 5.09-4.276.675-.65 1.17-1.108 1.5-1.39-.417-.292-.696-.521-1.309-1.095l-3.223-3.02c.608-.613.608-.613 2.2-2.278l5.43 5.086c-2.694 3.263-4.278 5.726-5.232 8.22-2.66.171-5.186-.222-7.731-1.191.12 1.066.116 1.456-.096 2.77 2.281.69 4.582.971 7.11.906-.526 2.598-.242 5.067.652 5.904.963.903 2.544.443 5.162-1.544-.376-1.108-.439-1.497-.477-2.65-1.753 1.45-1.753 1.45-2.253 1.737-.3.146-.469.186-.539.12-.105-.099-.195-.775-.198-1.369.01-.747.119-1.566.36-2.49 2.026-.373 3.924-.995 6.467-2.165.903-.403.903-.403 1.255-.567l-1.202-2.474Z" fill="#00A0E8"/></svg>