<svg version="1.1" id="レイヤー_1" xmlns="http://www.w3.org/2000/svg" x="0" y="0" viewBox="0 0 920 380" style="enable-background:new 0 0 920 380" xml:space="preserve"><style>.st0{fill:#e7f3f9}.st1{fill:#333}.st2{fill-rule:evenodd;clip-rule:evenodd;fill:#00a0e8}.st3{fill:#fff}.st4,.st5{fill:none;stroke:#333}.st5{stroke:#fff}</style><path class="st0" d="M736 60h184v320H736z"/><path class="st1" d="M828.6 218.9c-9.4 0-17.4-7.3-18.2-16.6v-.4l-.4-.1c-1.2-.2-2-.5-2.4-1-.3-.3-.5-.7-.5-1.2 0-1.3 1.6-2.4 3-3.2l.2-.1v-8.1c0-6.9 5.6-12.4 12.4-12.4h11.8c6.9 0 12.4 5.6 12.4 12.4v8.1l.2.1c1.4.7 3 1.9 3 3.2 0 .4-.2.9-.5 1.2-.5.5-1.2.7-2.4 1l-.4.1v.4c-.9 9.3-8.9 16.6-18.2 16.6zm-16.3-16.2c1 8.1 8 14.3 16.2 14.3s15.2-6.1 16.2-14.3l.1-.6h-.6c-1.2.1-2.8.1-4.9.1h-21.6c-2.1 0-3.7 0-4.9-.1h-.6l.1.6zm16.3-2.4h10.7c4.3 0 6.8-.1 8-.4l1-.2-.8-.6c-2.3-1.7-9.4-4.4-18.9-4.4-9.5 0-16.6 2.7-18.9 4.4l-.8.6 1 .2c1.3.3 3.8.4 8 .4h10.7zm-5.9-22.4c-5.8 0-10.5 4.7-10.5 10.5v7.2l.6-.2.9-.3c2.6-.9 7.9-2.3 14.9-2.3s12.3 1.5 14.9 2.3c.3.1.6.2.8.3l.6.2v-7.2c0-5.8-4.7-10.5-10.5-10.5h-11.7zM797.2 276c-.5 0-1-.4-1-1v-6.4h-.4c-3.2-.2-5.8-3-5.8-6.2v-5.7c0-3.3 2.5-6 5.8-6.2h.4v-6.4c0-.3.1-.6.2-.7l2.5-2.9V239c0-10 8.2-18.2 18.2-18.2H840c10 0 18.2 8.2 18.2 18.2v1.3l2.5 2.9c.2.2.2.4.2.7V250.6l.3.1c2.5.9 4.3 3.2 4.3 5.9v5.7c0 2.7-1.7 5.1-4.3 5.9l-.3.1v6.7c0 .5-.4 1-1 1h-62.7zm1-25.5.3.1c1.6.6 2.6 2.1 2.6 3.8v10.1c0 1.7-1.1 3.2-2.6 3.8l-.3.1v5.6H859v-5.5h-.5c-2.3 0-4.1-1.8-4.1-4.1v-10.1c0-2.2 1.8-4.1 4.1-4.1h.5l.1-.5v-5h-22.8v9.7l-3.2 2.9-2.2-2-2.2 2-2.2-2-2.2 2-3.2-2.9v-9.7h-22.7l-.2 5.8zm58.1 14.2c.1 1.1 1 1.9 2.1 1.9h.8c2.4 0 4.3-1.9 4.3-4.3v-5.7c0-2.4-1.9-4.3-4.3-4.3h-.8c-1.1 0-2 .9-2.1 1.9v.5h3.2v2h-3.1v1.7h3.1v2h-3.1v1.7h3.1v2h-3.2v.6zm-60-12.4c-2.4 0-4.3 1.9-4.3 4.3v5.7c0 2.4 1.9 4.3 4.3 4.3h.8c1.1 0 2-.9 2.1-1.9v-.5H796v-2h3.1v-1.7H796v-2h3.1v-1.7H796v-2h3.2v-.5c-.1-1.1-1-1.9-2.1-1.9l-.8-.1zm36.7 2.6 1.2-1.1V245h-11.3v8.8l1.2 1.1 2.2-2 2.2 2 2.2-2 2.3 2zm3.3-12h21.5l-8.8-10.1h-14.8l2.1 10.1zm-13.3 0h11.2l-2.1-10.1H825l-2 10.1zm-23.6 0H821l2.1-10.1h-14.9l-8.8 10.1zm50-12.1c.3 0 .6.1.7.3l6.1 7-.2-1.6c-1.2-7.8-8.1-13.7-16-13.7h-22.8c-7.9 0-14.8 5.9-16 13.7l-.2 1.6 6.1-7c.2-.2.5-.3.7-.3h41.6z"/><path class="st2" d="M888 60c0-33.1-26.9-60-60-60s-60 26.9-60 60h-32v84h184V60h-32z"/><path class="st3" d="M804.1 104.3c1.6-.5 2.9-.7 4.2-.7 2.4 0 3.9 1.2 3.9 3.1 0 1.4-.9 2.4-2.2 2.4-.6 0-1.1-.3-1.4-.7-.2-.4-.3-1-.3-1.9v-1c-.9.5-1.3.7-2.4 1 0 1.3.1 2.1.4 2.8.6 1.6 1.8 2.4 3.6 2.4 2.9 0 5-2.2 5-5 0-3.1-2.6-5.4-6.3-5.4-1.6 0-3 .2-4.5.6V99c.8-.1 1.3-.2 2-.3 1.5-.3 1.9-.3 2.3-.4l-.1-2.5c-1.1.4-2.6.6-4.2.8v-1.4c0-1.2 0-1.7.1-2.4h-2.8c.1.7.1 1.3.1 2.5v1.5H799.8c-1.2 0-2-.1-2.7-.2v2.5h4.4v3.4c-1.5.6-2.4 1.2-3.2 1.9-1.2 1.1-1.9 2.2-1.9 3.3 0 .9.4 1.8 1.2 2.5 1.1.9 2.8 1.6 4.2 1.6 1 0 1.8-.5 2-1.3.1-.4.2-1 .2-1.9l.1-4.3zm-2.4 4c0 .7-.1.9-.5.9s-1-.2-1.4-.5c-.5-.3-.7-.6-.7-1 0-.8 1-1.8 2.6-2.6v3.2zm14.2-9.3c-1.2-1.7-2.4-3-4.4-4.5l-2.1 1.4c1.7 1.3 3.3 3 4.4 4.8l2.1-1.7zm13.3 2.3h-3c-1.1 0-1.7 0-2.5-.1 0 .7.1 1.7.1 2.5v6.4c0 1.1 0 2-.2 2.7h2.5v-.9h8.9v.9h2.4c-.1-.7-.1-1.4-.1-2.6v-6.5c0-.9 0-1.7.1-2.6-.6.1-1.5.1-2.6.1h-3.2v-1.9h3.8c.9 0 1.7 0 2.4.1V93c-.7.1-1.5.1-2.5.1h-12.1c-1.3 0-2.2 0-2.9-.1.1.7.1 1.4.1 2.5 0 4.9-.2 7.8-.5 10-.4 2.3-.8 3.6-1.9 5.4.7.5 1.4 1.2 1.9 2 2-3 2.7-6.5 2.8-13.5h6.6v1.9zm0 2v2.2H826v-2.2h3.2zm0 4.2v2.4H826v-2.4h3.2zm2.4 2.4v-2.4h3.4v2.4h-3.4zm0-4.4v-2.2h3.4v2.2h-3.4zm-8.9-8.2v-2h12.7v2h-12.7zm25.3 3.1h3.3c1.1 0 2.2 0 3-.1v1.4c0 3.3-.4 4.8-1.5 6.2-.8 1-1.9 1.7-3.4 2.4 1 .7 1.4 1.1 2.1 2.1 1.1-.7 1.7-1.1 2.4-1.7 1.2-1.1 2-2.4 2.5-4.3.3-1.1.5-2.9.5-5.3V100c.9-.1 1.1-.2 2.1-.4.7-.2.9-.2 1.2-.2l-.2-2.6c-.7.4-1.7.6-3.3.8 0-1.4-.1-2.2-.1-2.5V93h-2.8c.1.8.2 1 .3 4.9-1.1.1-1.5.1-2.3.1-1.8 0-2.9-.1-3.9-.3v2.7zm-1.4 2.8c-.5 1-1.1 2.4-1.5 3.6V103.2c0-.4 0-1.1.2-2.5.1-1.8.2-2.5.6-4.3.2-1.3.4-1.8.6-2.7l-2.9-.3c0 .5 0 .7-.2 1.6-.7 4.6-.8 5.9-.8 8.3s.2 4.7.8 7.1c.1.4.1.5.2.8l2.6-.1c0-1.6 1.1-4.4 2.5-7.1l-2.1-.8z"/><path class="st1" d="M752.5 331.7v5.3c-.7.1-1.2.1-1.4.1h-.3l.3 1.2c.6-.1.8-.2 2.3-.4 1.2-.2 1.2-.2 3.3-.5v.3c0 .7 0 1.2-.1 1.5h1.3c-.1-.4-.1-.8-.1-1.5v-6h6c.7 0 1 0 1.5.1v-1.2c-.4.1-.8.1-1.5.1h-11.4c-.8 0-1.1 0-1.5-.1v1.2c.5-.1.8-.1 1.5-.1h.1zm1.1 0h3.1v1h-3.1v-1zm0 1.9h3.1v1.1h-3.1v-1.1zm0 2h3.1v.9c-1.5.3-1.7.3-3.1.4v-1.3zm10.2-2.9c-.3 0-.6.1-1.2.1h-2.9c-.7 0-1 0-1.4-.1v1.1c.4 0 .7-.1 1.1-.1h3.5c-.5 1-.9 1.5-1.5 2.1-.6-.7-1-1.2-1.4-2.1l-1 .4c.7 1.4.9 1.6 1.6 2.4-.8.7-1.4 1-2.6 1.5.3.3.5.5.7 1 1.2-.6 1.8-.9 2.7-1.7.9.7 1.7 1.2 3.2 1.8.2-.4.4-.8.7-1.1-1.3-.4-2.2-.8-3-1.5.7-.8 1.2-1.5 1.9-2.8.1-.2.2-.3.3-.5l-.7-.5zm-.4-6.3c0-.6 0-.9.1-1.3-.5 0-1 .1-1.7.1h-7.4c-.7 0-1.2 0-1.7-.1 0 .4.1.7.1 1.3v2.2c0 .6 0 .9-.1 1.3.6 0 1-.1 1.7-.1h7.6c.6 0 1.1 0 1.6.1 0-.4-.1-.7-.1-1.3v-2.2zm-9.6-.3h8.4v1h-8.4v-1zm0 1.9h8.4v1h-8.4v-1zm15.9-.1c0 1.6 0 1.8-.1 2.9h-1.4c-.6 0-1 0-1.4-.1v1.3c.4-.1.8-.1 1.4-.1h1.2c-.3 2.4-1.2 4.1-2.9 5.5.4.3.6.6.8 1 1.4-1.3 2.2-2.6 2.8-4.4.6 1 1.1 1.6 2.1 2.5.3-.4.4-.7.8-1-1.2-.8-1.8-1.5-2.6-2.9.1-.4.1-.5.1-.8h1c.5 0 .9 0 1.3.1v-1.3c-.4.1-.7.1-1.3.1h-.9c.1-1 .1-1 .1-2.9h.4c.6 0 .9 0 1.4.1v-1.2c-.3.1-.7.1-1.4.1H769c.2-.5.3-.9.4-1.3.1-.5.1-.5.2-.7l-1.2-.2c-.1.7-.1.7-.2 1.3-.4 1.4-.8 2.4-1.7 3.5.4.2.6.4 1 .7.6-.8.8-1.3 1.2-2.2h1zm4.1 9.4c-.7 0-1 0-1.5-.1v1.3c.5-.1.8-.1 1.5-.1h6.1c.7 0 1 0 1.5.1v-1.3c-.5.1-.8.1-1.5.1h-1.6c.6-1 1-1.9 1.5-3.5l-1.2-.4c-.4 1.6-.8 2.4-1.5 3.9h-3.3zm-.9-10.6c.5-.1.8-.1 1.5-.1h5.2c.7 0 1 0 1.5.1v-1.3c-.4.1-.8.1-1.5.1h-5.2c-.7 0-1 0-1.5-.1v1.3zm7.3 2.8c0-.6 0-.8.1-1.3-.4 0-.8.1-1.4.1h-4c-.6 0-1.1 0-1.5-.1 0 .4.1.8.1 1.3v2.4c0 .5 0 .8-.1 1.3.4 0 .8-.1 1.4-.1h4c.6 0 1 0 1.4.1 0-.4-.1-.7-.1-1.3v-2.4zm-5.5-.2h4.4v2.7h-4.4v-2.7zm1.6 7.1c-.4-1.2-.7-1.8-1.4-2.9l-1 .4c.7 1.1 1 1.8 1.3 3l1.1-.5zm19.1-2.4v3.3c0 .4-.1.5-.5.5-.5 0-1.1-.1-1.9-.2.2.4.3.8.3 1.3.6 0 1.2.1 1.5.1 1.4 0 1.8-.3 1.8-1.5V327c0-.8 0-1.2.1-1.6-.4 0-.8.1-1.6.1h-3.4c-.7 0-1.2 0-1.6-.1.1.5.1 1.4.1 3.1 0 3.8-.2 5.5-.7 6.9-.5 1.2-1.1 2.1-2.3 3 .4.3.7.5 1 .9 1-.8 1.5-1.4 2-2.4.5-.9.8-1.8.9-2.9h4.3zm0-3.8v2.7h-4.3c.1-.8.1-1.5.2-2.7h4.1zm0-1.1h-4.1v-2.5h4.1v2.5zm-11.9 5.4c0 .7 0 1.3-.1 1.8h1.3V335h2.8v.7h1.2v-10h-5.3c0 .5.1.8.1 1.6v7.2zm1.1-7.6h2.9v2.8h-2.9v-2.8zm0 3.9h2.9v3.2h-2.9v-3.2zm16.1 6.4c0 .7 0 1.3-.1 1.8h1.4v-1h8v1h1.4c-.1-.5-.1-1-.1-1.8V327c0-.6 0-1 .1-1.5-.5.1-.9.1-1.7.1h-7.3c-.7 0-1.2 0-1.7-.1 0 .5.1 1 .1 1.6v10.1zm1.3-10.5h8v4.3h-8v-4.3zm0 5.5h8v4.7h-8v-4.7zm19.3-4.1v3.6h-4.8c-.7 0-1.2 0-1.7-.1v1.4c.5-.1 1-.1 1.7-.1h4.8v4.8c0 .7 0 1.1-.1 1.5h1.5c-.1-.5-.1-.8-.1-1.5v-4.8h4.8c.7 0 1.2 0 1.7.1v-1.4c-.4.1-.9.1-1.7.1h-4.8v-3.6h4c.7 0 1.1 0 1.5.1v-1.3c-.4.1-.8.1-1.5.1h-7.7c.3-.6.4-.9.6-1.3.2-.5.3-.7.3-.8v-.1l-1.3-.3c-.1.3-.2.7-.4 1.2-.7 1.8-1.7 3.3-3 4.4.5.3.6.4 1 .9.9-.9 1.5-1.7 2.1-2.8h3.1zm11.3-1.2c-1.1 0-1.1 0-1.6-.1v1.3c.5-.1.9-.1 1.6-.1h10.9c.7 0 1.1 0 1.6.1v-1.3c-.4.1-.9.1-1.6.1h-3c.5-.5 1-1.2 1.6-2.1l-1.3-.4c-.5 1.1-.9 1.7-1.7 2.5h-2.3c-.6-1-.7-1.2-1.8-2.5l-1.2.4c.8.9 1.1 1.3 1.6 2.1h-2.8zm.6 8.7h3.2v1.9c0 .3-.1.4-.6.4-.3 0-.8 0-1.3-.1.2.5.2.6.3 1.1.5 0 1 .1 1.3.1 1.1 0 1.4-.3 1.4-1.3v-8.5c-.4 0-.6.1-1.5.1h-2.7c-.6 0-1 0-1.6-.1v8.2c0 .8 0 1.3-.1 1.7h1.3c-.1-.4-.1-.8-.1-1.7v-1.8zm0-1.1V333h3.2v1.6h-3.2zm0-2.6v-1.6h3.2v1.6h-3.2zm6.2-2.5c.1.5.1.7.1 1.5v3.3c0 1.1 0 1.3-.1 1.8h1.3c0-.4-.1-.6-.1-1.8v-3.3c0-.8 0-1.1.1-1.5h-1.3zm3.4-.5c.1.5.1.7.1 1.7v6.8c0 .4-.1.5-.7.5s-1.2-.1-2-.2c.2.5.3.8.4 1.3.8 0 1.4.1 1.8.1 1.4 0 1.8-.3 1.8-1.5v-6.9c0-.8 0-1.3.1-1.7h-1.5zm7.1-2.3c-.4 1.3-.8 2.2-1.4 3.2h-1.6l.2 1.4c.3-.1.4-.1.8-.1 3.4-.4 4.8-.5 6.1-.7.2.4.3.5.6 1.1l.9-.7c-.9-1.6-1.3-2.1-2.5-3.5l-1 .5c.6.7.8.9 1.3 1.6-.9.1-2.1.3-3.6.4.6-1.1.9-1.9 1.4-3.1h2.6c.7 0 1.1 0 1.6.1v-1.3c-.5.1-1 .1-1.7.1h-4.9c-.7 0-1.2 0-1.6-.1v1.3c.4-.1.9-.1 1.6-.1h1.2zm1.9 6.3v-.5c0-.6 0-.9.1-1.3h-1.4c.1.3.1.7.1 1.3v.5H849c-.6 0-1 0-1.5-.1v1.3c.4-.1.9-.1 1.5-.1h1.6v2.7c-.3.1-.3.1-1.7.3-1.2.2-1.6.2-2.1.2l.2 1.4c.9-.2.9-.2 1.9-.4 2.4-.4 3.6-.7 6.3-1.4v-1.2c-1.2.3-2 .5-3.5.8V334h1.9c.6 0 1 0 1.4.1v-1.2c-.4.1-.8.1-1.5.1h-1.7zm4.4-7.1c.1.4.1.8.1 1.7v6.3c0 1 0 1.3-.1 1.8h1.3c-.1-.4-.1-.7-.1-1.8v-6.4c0-.9 0-1.3.1-1.7h-1.3zm3.2-.9c.1.5.1 1 .1 1.9v10.6c0 .4-.1.5-.7.5-.7 0-1.2-.1-2-.2.2.4.3.8.3 1.2.6.1 1.1.1 1.7.1 1.6 0 2-.3 2-1.6v-10.5c0-.9 0-1.5.1-1.9h-1.5zm9.9 2.3v1h-3.5c-.8 0-1.1 0-1.4-.1v1.1c.4 0 .7-.1 1.4-.1h3.5v1h-4.7c-.8 0-1.2 0-1.6-.1v1.2c.5-.1.9-.1 1.6-.1h1.8c-.3 1.2-.7 2.2-1.3 3.2-.6 1.1-1.3 1.8-2.4 2.7.4.3.6.6.9 1 1.2-1.1 2-2.3 2.9-4 0 .4-.1 1.1-.1 1.6v2.2c0 .6 0 1-.1 1.5h1.3v-.7h6.9v.7h1.3c-.1-.5-.1-.9-.1-1.5v-4.5c0-.5 0-.8.1-1.3-.5 0-1 .1-1.5.1h-6.9c.1-.4.2-.6.3-.9h7.9c.7 0 1.1 0 1.6.1V330c-.4.1-.8.1-1.6.1h-5v-1h3.8c.7 0 1 0 1.4.1v-1.1c-.4.1-.7.1-1.4.1h-3.8v-1h4.4c.7 0 1.1 0 1.6.1v-1.1c-.4.1-.9.1-1.6.1h-2.3c.4-.4.7-.8 1.3-1.5l-1.2-.4c-.4.7-.8 1.3-1.4 1.8h-2.6c-.4-.7-.8-1.2-1.3-1.8l-1.1.4c.5.5.8.9 1.2 1.5h-2.2c-.7 0-1.2 0-1.6-.1v1.1c.5-.1.9-.1 1.6-.1h3.9zm5.1 5.7v.9h-6.9v-.9h6.9zm0 1.9v.9h-6.9v-.9h6.9zm0 1.8v1h-6.9v-1h6.9zm12.3-1.7V333.2l.2-5.6c0-.7 0-1.2.1-1.8h-1.9c.1.6.1 1.1.1 1.8l.2 5.6V334.9h1.3zm.2 3.2v-1.7h-1.8v1.7h1.8zM900 333l-4.2-4.3-.4.4 4.3 4.3-4.3 4.3.4.4 4.2-4.2 4.3 4.2.4-.4-4.3-4.3 4.3-4.3-.4-.4-4.3 4.3zm0-4c-.5 0-.9.4-.9.9s.4.9.9.9.9-.4.9-.9c0-.4-.4-.9-.9-.9zm-3.4 3.5c-.5 0-.9.4-.9.9s.4.9.9.9.9-.4.9-.9-.4-.9-.9-.9zm6.8 0c-.5 0-.9.4-.9.9s.4.9.9.9.9-.4.9-.9-.4-.9-.9-.9zM900 336c-.1 0-.1 0 0 0-.5 0-.9.5-.9.9 0 .5.4.9.9.9s.9-.4.9-.9-.4-.9-.9-.9z"/><path class="st3" d="M815.4 20c0-.4-.2-.8-.5-1-.3-.2-.9-.5-1.7-.8-.8-.3-1.5-.5-1.9-.8-1.3-.7-1.9-1.6-1.9-2.8 0-.6.2-1.2.5-1.6.3-.5.8-.9 1.5-1.1.7-.3 1.4-.4 2.2-.4.8 0 1.5.1 2.2.4.6.3 1.1.7 1.5 1.2.4.5.5 1.1.5 1.8h-2.3c0-.5-.2-.9-.5-1.2-.3-.3-.8-.4-1.4-.4-.6 0-1 .1-1.3.4-.3.2-.5.6-.5 1s.2.7.6.9c.4.2.9.5 1.6.7 1.3.4 2.3.9 2.9 1.5.6.6.9 1.3.9 2.2 0 1-.4 1.8-1.1 2.3-.7.6-1.7.8-3 .8-.9 0-1.7-.2-2.4-.5s-1.3-.8-1.6-1.3c-.4-.6-.6-1.2-.6-1.9h2.4c0 1.3.8 1.9 2.2 1.9.6 0 1-.1 1.3-.3.2-.3.4-.6.4-1zm12.5-6.5h-3.5V23h-2.3v-9.5h-3.4v-1.9h9.3v1.9zm8.2 4.6h-4.5v3h5.3V23h-7.6V11.6h7.6v1.9h-5.3v2.7h4.5v1.9zm4.5.9v4h-2.3V11.6h4.4c.9 0 1.6.2 2.2.5.7.3 1.2.8 1.5 1.3.3.6.5 1.2.5 2 0 1.1-.4 2-1.1 2.6-.8.6-1.8 1-3.2 1h-2zm0-1.9h2.1c.6 0 1.1-.1 1.4-.4.3-.3.5-.7.5-1.2 0-.6-.2-1-.5-1.4-.3-.3-.8-.5-1.4-.5h-2.1v3.5zm-14.3 27.3c0 3.5-.7 6.2-2.2 8.1-1.5 1.9-3.6 2.8-6.4 2.8-2.8 0-4.9-.9-6.4-2.8-1.5-1.8-2.2-4.5-2.3-7.9V40c0-3.6.7-6.3 2.2-8.1 1.5-1.9 3.6-2.8 6.4-2.8s4.9.9 6.4 2.8c1.5 1.8 2.2 4.5 2.3 7.9v4.6zm-5.1-5.2c0-2.1-.3-3.7-.9-4.6-.6-1-1.5-1.5-2.7-1.5-1.2 0-2.1.5-2.7 1.4-.6.9-.9 2.3-.9 4.3V45c0 2.1.3 3.6.8 4.7.6 1 1.5 1.5 2.7 1.5 1.2 0 2.1-.5 2.7-1.5.5-1 .8-2.5.9-4.5v-6zm9.3 3.2 1.5-13h14.3v4.2h-10.2l-.6 5.5c1.2-.6 2.5-1 3.8-1 2.4 0 4.3.8 5.7 2.3s2.1 3.6 2.1 6.3c0 1.7-.4 3.1-1.1 4.4-.7 1.3-1.7 2.3-3 3-1.3.7-2.8 1.1-4.6 1.1-1.5 0-3-.3-4.3-.9-1.3-.6-2.4-1.5-3.1-2.7-.8-1.1-1.2-2.4-1.2-3.9h5c.1 1.1.5 1.9 1.1 2.5.6.6 1.5.9 2.5.9 1.1 0 2-.4 2.7-1.2.6-.8.9-2 .9-3.5s-.4-2.6-1.1-3.3c-.7-.8-1.7-1.2-3-1.2-1.2 0-2.2.3-2.9.9l-.5.5-4-.9z"/><path class="st0" d="M552 60h184v320H552z"/><path class="st4" d="M735.5 144v236"/><path class="st1" d="m633.4 195.2-3.8 5.3-3.8-5.3h-2.5l4.5 6.3h-3.6v1.7h4.3v.9h-4.3v1.7h4.3v5.3h2.1v-5.3h4.3v-1.7h-4.3v-.9h4.3v-1.7h-3.6l4.5-6.3h-2.4zM652.1 214.6v1.7h4.3v5.3h2.1v-5.3h4.3v-1.7h-4.3v-.9h4.3V212h-3.6l4.5-6.3h-2.5l-3.8 5.3-3.8-5.3h-2.5l4.5 6.3H652v1.7h4.3v.9h-4.2z"/><path class="st1" d="M599.9 266c-.4 0-.7-.2-.9-.5l-5.9-10c-.1-.2-.2-.5-.1-.7v-.2l7.1-33.1c.1-.5.5-.8 1-.8H615c-.4.7-.7 1.4-1 2.1h-12l-6.7 31.1h96.5l-6.7-31.1H677c.3-.7.6-1.4.8-2.1h8.2c.5 0 .9.4 1 .8l7.1 33.2c0 .3 0 .6-.1.7l-5.9 10c-.2.3-.5.5-.9.5h-87.3zm.6-2.1h86.1l4.7-7.9h-95.4l4.6 7.9zM618.3 216.2c-3.7-3.3-5.9-8-5.9-12.9 0-9.5 7.7-17.2 17.2-17.2 6.7 0 12.8 3.9 15.6 10-.6.4-1.1.8-1.7 1.3-2.3-5.5-7.9-9.2-13.9-9.2-8.3 0-15.1 6.8-15.1 15.1 0 4.4 1.9 8.6 5.3 11.5-.5.4-1 .8-1.5 1.4z"/><path class="st1" d="M657.5 230.9c-.8 0-1.5-.1-2.3-.2 0-.7-.1-1.4-.1-2.1.8.1 1.6.2 2.4.2 8.3 0 15.1-6.8 15.1-15.1s-6.8-15.1-15.1-15.1c-7.5 0-13.9 5.5-15 12.9-.6-.3-1.3-.6-2-.8 1.4-8.1 8.7-14.3 17-14.3 9.5 0 17.2 7.7 17.2 17.2s-7.7 17.3-17.2 17.3z"/><path class="st1" d="M633.7 248.3c-9.5 0-17.2-7.7-17.2-17.2s7.7-17.2 17.2-17.2 17.2 7.7 17.2 17.2-7.7 17.2-17.2 17.2zm0-32.3c-8.3 0-15.1 6.8-15.1 15.1s6.8 15.1 15.1 15.1 15.1-6.8 15.1-15.1-6.7-15.1-15.1-15.1z"/><path class="st1" d="M628 231.5v1.7h4.3v.9H628v1.7h4.3v5.3h2.1v-5.3h4.3v-1.7h-4.3v-.9h4.3v-1.7h-3.6l4.5-6.3h-2.5l-3.8 5.3-3.8-5.3H627l4.5 6.3H628z"/><path class="st2" d="M704 60c0-33.1-26.9-60-60-60s-60 26.9-60 60h-32v84h210V60h-58z"/><path class="st3" d="M587 95.3h-5.6c-1.1 0-2 0-2.7-.1v2.5c.7-.1 1.5-.1 2.7-.1h5.6v2.8h-4c-1.1 0-2 0-2.7-.1v2.4c.6-.1 1-.1 2.1-.1 1.2 2.3 2.3 3.6 4.2 5.2-2.4 1.3-5 2.1-8.2 2.6.6.9.9 1.5 1.2 2.4 3.5-.7 6.2-1.7 9-3.5 2.6 1.7 5 2.7 8.8 3.6.4-1.1.6-1.7 1.2-2.6-3.2-.5-5.7-1.3-7.9-2.5 1.6-1.3 3.1-2.9 4.1-4.5.4-.6.8-1.1 1-1.4l-1.5-1.5c-.4.1-.9.1-1.9.1h-2.9v-2.8h5.9c1.1 0 2 0 2.7.1v-2.5c-.7.1-1.5.1-2.7.1h-5.9v-.9c0-1 0-1.4.1-1.9h-2.8c.1.6.1 1 .1 1.9v.8zm5.2 7.2c-1 1.6-2 2.6-3.6 3.8-1.7-1.2-2.6-2.2-3.6-3.8h7.2zm29 9.1c-1.3-4-2.4-6.9-4-10.1l-2.1.9c1 1.8 1.7 3.8 2.5 6.1-2.3.4-3 .5-5.9.9.8-2.4 2-7.1 2.6-10.3 1-4.7 1.1-5.3 1.2-5.8l-2.8-.4c-.1 3.4-1.7 11-3.6 16.7-.7.1-1.2.1-1.3.1h-.4l.5 2.7c.5-.1 1.1-.2 2.4-.4 3.1-.4 5-.7 8-1.3.2.8.3 1.1.5 2l2.4-1.1zm-14.7-14.9v-1.8c0-1 0-1.6.1-2.2H604c.1.7.1 1.3.1 2.2v1.8H603c-.6 0-1.1 0-1.7-.1V99c.5-.1 1.1-.1 1.7-.1h1.3v4.1c-1.8.5-2.4.6-3.2.7l.5 2.5c.2-.1.5-.2 1.2-.4.9-.3 1.2-.3 1.6-.5v4.6c0 .5-.1.6-.7.6-.7 0-1.4 0-2.3-.2.3 1 .4 1.5.5 2.4.7 0 1.3.1 1.7.1 2.3 0 3.1-.5 3.1-2.1v-6.2c1.2-.4 2-.7 2.6-.9l-.1-2.1c-1.4.5-1.7.6-2.5.8v-3.4h1c.5 0 1 0 1.6.1v-2.3c-.6.1-.9.1-1.6.1h-1.2zm18.1-1.9c.1.5.1.6.1 1.4.1 6.1.5 9.3 1.4 11.5.9 2.1 2.1 3.2 3.5 3.2 1.9 0 3.1-1.8 4.3-6.1-1.1-.8-1.4-1.1-2.2-2-.2 1.5-.6 2.8-1.2 4-.3.6-.6.9-.9.9-.7 0-1.4-1.4-1.8-3.7-.2-1.3-.4-4-.4-5.9 0-1.5.1-2.5.2-3.3h-3zm11.1 2.1c1.3 1.6 2.4 3.4 3.1 5.4.8 2 1.3 4.3 1.4 6.4l2.7-1c-.6-4.8-2.2-8.5-5-11.8l-2.2 1zm11.7 7.4c1.4-1.5 2.4-2 3.8-2 1.2 0 1.8.3 3.8 1.5 1.7 1.1 2.2 1.3 3 1.6.6.2 1.3.3 1.9.3 1.4 0 2.7-.4 3.8-1.3.7-.5 1.2-1 2.1-2.1l-1.8-1.8c-.8 1-1.3 1.5-2.3 2-.5.2-1.2.4-1.6.4-1.1 0-2.2-.5-3.9-1.5-1.4-.9-1.4-.9-2-1.2-.9-.5-1.8-.7-2.8-.7-1.3 0-2.3.3-3.6 1.1-1 .6-1.4 1-2.2 2l1.8 1.7zm23.9 4.9h4c.8 0 1.3 0 1.9.1v-2.4c-.5.1-1.1.1-1.9.1h-4v-4.5h3.9c.9 0 1.4 0 1.9.1v-2.4c-.5.1-1 .1-1.9.1h-3.9v-3.4c2.1-.5 4.1-1 5.7-1.7.4-.2.4-.2.9-.3l-1.5-2.2c-1.3.9-4.2 1.8-7.5 2.2 0 .4.1.8.1 1.8v11.9c0 1.3 0 2-.2 2.7h2.6v-2.1zm9-15.5c-.9 0-1.5 0-2-.1 0 .5.1.9.1 1.8V110c0 1.2 0 2.2-.1 2.8h2.7c-.1-.6-.1-1.6-.1-2.8V96h4.3v11c0 .5-.1.6-.7.6s-1.2 0-2.1-.2c.3.9.5 1.6.5 2.5.7 0 1.3.1 2.1.1s1.6-.2 1.9-.4c.6-.4.8-1 .8-2.2V95.6c0-.9 0-1.4.1-2-.6.1-1.2.1-2 .1h-5.5zm17 5.9v2h-1.5c-.8 0-1.2 0-1.7-.1v7c0 .9 0 1.5-.1 2.2h2.2c-.1-.5-.1-1-.1-2.1v-5h1.1v6.6c0 1.1 0 1.8-.1 2.5h2.4c-.1-.7-.1-1.3-.1-2.5v-6.5h1.1v4.7c0 .2-.1.3-.3.3-.1 0-.3 0-.6-.1.2.7.3 1.1.3 2h.5c1.8 0 2.2-.4 2.2-1.8v-5.5c0-.9 0-1.3.1-1.8-.5.1-.9.1-1.7.1h-1.6v-2h1.1c.8 0 1.3 0 2 .1-.1-.5-.1-1-.1-1.9v-2.6c0-.9 0-1.4.1-1.9-.8.1-1.4.1-2.4.1h-5.9c-1.2 0-1.7 0-2.5-.1.1.7.1 1.5.1 3.6 0 3.8-.2 6.5-.6 8.8-.3 1.6-.6 2.6-1.3 3.9.7.8 1 1.3 1.6 2.4.9-1.7 1.4-3.2 1.8-5.4.4-1.9.4-3 .7-7h3.3zm-3.1-4.2h6v2h-6v-2zm9.5-1.3c.1.7.1 1.3.1 2.3v8.7c0 1.2 0 1.7-.1 2.4h2.4c-.1-.6-.1-1-.1-2.3v-8.8c0-1.1 0-1.7.1-2.3h-2.4zm3.9-1.4c.1.8.1 1.5.1 2.7v14.3c0 .5-.2.7-.9.7s-1.9-.1-2.6-.2c.4.8.5 1.4.6 2.3.9.1 1.8.1 2.1.1 2.5 0 3.1-.5 3.1-2.6V95.3c0-1.4 0-2 .1-2.7h-2.5z"/><path class="st5" d="m736 60 16 42-16 42"/><path class="st1" d="M587.9 311.8c-.1 1.5-.2 2.3-.5 3.4-.5 1.7-1.3 3.3-2.5 4.7-1.1 1.2-2 2-3.6 3 .5.4.7.7 1 1.2 1.8-1.3 3-2.4 4.1-3.9 1.1-1.5 1.7-3 2.3-5.1.4 1.8 1 3.1 1.9 4.5 1.2 1.8 2.5 3.1 4.4 4.4.4-.6.5-.8 1-1.2-1.3-.8-1.9-1.2-2.8-2.1-1-1-1.8-2.1-2.4-3.2-1-1.8-1.5-3.7-1.5-5.8 0-.4 0-.7.1-1.1-.3.1-.7.1-1.5.1h-2.2c-.6 0-.9 0-1.3-.1v1.4c.5 0 1-.1 1.3-.1h2.2zm15.8 3.5v2h-4c-.7 0-1.2 0-1.6-.1v1.3c.5-.1 1-.1 1.6-.1h4.1v4h-4.3c-.8 0-1.3 0-1.9-.1v1.4c.6-.1 1.2-.1 1.9-.1h10.1c.7 0 1.3 0 1.8.1v-1.4c-.5.1-1 .1-1.8.1H605v-4h4.3c.7 0 1.2 0 1.6.1v-1.3c-.4.1-.9.1-1.6.1h-4.4v-2h1.7c.7 0 1.1 0 1.5.1v-1c1.1.7 1.9 1.1 3.2 1.6.2-.4.4-.8.7-1.2-1.7-.6-2.9-1.2-4.2-2.1-1.3-.9-2.1-1.8-2.8-2.8h-1.4c-1.3 2.1-3.6 3.8-6.7 5 .4.5.5.7.7 1.1 1.2-.5 1.9-.9 2.9-1.5v1c.5-.1.8-.1 1.5-.1h1.7zm-1.6-1.1h-1.2c1.6-1.2 2.5-2 3.4-3.3 1 1.3 2.1 2.3 3.6 3.3h-5.8zm-2.5 5.1c.6.9 1 1.7 1.4 2.8l1.1-.4c-.5-1.2-.8-1.9-1.4-2.8l-1.1.4zm8.4-.5c-.4 1.2-.9 2.1-1.5 2.9l1.1.4c.7-1 .7-1.1 1.6-2.9l-1.2-.4zm10.1-1.7c.3.3.5.6.7 1 .5-.5.7-.8 1-1.2v5.7c0 .8 0 1.2-.1 1.7h1.2v-.8h5.2c.5 0 1 0 1.5.1v-1.2c-.4.1-.8.1-1.5.1h-1.9v-1.7h1.4c.5 0 .8 0 1.4.1v-1.1c-.4.1-.7.1-1.4.1h-1.4v-1.6h1.4c.5 0 .9 0 1.4.1v-1.1c-.4.1-.7.1-1.4.1h-1.4v-1.6h1.7c.5 0 .8 0 1.4.1v-1.1c-.4.1-.7.1-1.4.1h-1.3c.2-.3.4-.7.5-1.2 0-.1.1-.2.1-.3l-1.1-.3c-.1.6-.4 1.2-.7 1.8h-2c.6-.9.8-1.5 1.2-2.4h3.8v1.7h1.2c0-.3-.1-.5-.1-.9V311.4c-.4.1-.9.1-1.6.1h-3.1c.1-.2.2-.7.5-1.5l-1.2-.2c-.1.6-.2 1.1-.4 1.7h-3V313.4c0 .4 0 .7-.1 1h1.2v-1.7h1.6c-.5 1.1-.8 1.8-1.5 2.7-.6.5-1 .9-1.8 1.7v-1.9c-.3 0-.6.1-1 .1h-1.7c.5-1.5.8-2.4 1-3.9h.8c.4 0 .7 0 1.1.1v-1.2c-.5.1-.8.1-1.4.1h-2.1c-.6 0-1 0-1.5-.1v1.3c.4-.1.8-.1 1.4-.1h.5c-.2 1.1-.3 1.8-.6 2.7-.5 1.6-1.1 2.6-1.9 3.7.3.4.4.5.6 1.2.4-.5.6-1 1-1.8 0 .5-.1 1.3-.1 1.6v3.6c0 .7 0 1.1-.1 1.6h1.2v-1.6h1.6v.9h1.1v-6.3zm2.7.2v-1.6h2.3v1.6h-2.3zm0 1h2.3v1.6h-2.3v-1.6zm0 2.5h2.3v1.7h-2.3v-1.7zm-5.3-4.4h1.6v4.8h-1.6v-4.8zm19.9-3.2c1 .4 1.4.5 2.1.8-.6 1.2-1.5 2-2.9 2.7.4.3.5.5.8.9 1.5-1 2.4-1.8 3.1-3.1.5.3.8.4 1.4.9l.6-.9c-.8-.5-1.1-.6-1.6-.9.2-.7.3-1 .5-2.1h2.7c-.1 1.7-.2 2.6-.4 3.5-.1.7-.3.8-.9.8-.5 0-1-.1-1.4-.2.2.5.2.7.3 1.2.4 0 .9.1 1.3.1 1.1 0 1.4-.2 1.7-.9.2-.6.5-2.3.6-4 .1-1.5.1-1.5.1-1.7-.4 0-.8.1-1.5.1H637c-.7 0-1.2 0-1.6-.1v1.2c.4-.1.8-.1 1.6-.1h1.4c-.1.8-.2 1.1-.3 1.6-.6-.3-1-.4-1.9-.7l-.8.9zm-5.6-1.8c.4 0 .7-.1 1.2-.1h2.1c.5 0 .8 0 1.2.1v-1.2c-.4.1-.6.1-1.2.1H631c-.6 0-.8 0-1.2-.1v1.2zm-.5 2.3c.4 0 .7-.1 1.3-.1h4.2v-1.2c-.4.1-.6.1-1.3.1h-2.8c-.6 0-.9 0-1.3-.1v1.3zm.6 2.2c.3 0 .6-.1 1.1-.1h2.3c.5 0 .7 0 1 .1v-1.2c-.3 0-.5.1-1 .1H631c-.5 0-.8 0-1.1-.1v1.2zm0 2.2c.3 0 .5-.1 1.1-.1h2.3c.5 0 .7 0 1.1.1V317h-4.5v1.1zm1.2 6.1v-.9h2.1v.7h1.1c0-.3-.1-.7-.1-1.3V319.1H631.1c-.6 0-.9 0-1.3-.1 0 .5.1.8.1 1.3v2.2c0 .5 0 1-.1 1.6h1.3zm-.1-4h2.1v2.2H631v-2.2zm4.4-1.4c-.1 1.6-.4 2.4-1 3.7l1 .5c.6-1.5.8-2.2 1.1-4l-1.1-.2zm2.8 1c0-.6 0-.8.1-1.2H637c.1.4.1.8.1 1.3v3c0 .9.4 1.1 2.2 1.1 1.6 0 2.1-.1 2.4-.6.2-.4.4-1 .5-2.3-.4-.1-.7-.2-1.1-.4 0 .5-.1 1-.1 1.3-.1.6-.2.8-.7.9h-1.2c-.7 0-.9-.1-.9-.4v-2.7zm3.3-.7c.9 1.2 1.2 2 1.8 3.6l1-.6c-.7-1.6-1-2.2-1.9-3.5l-.9.5zm-4-1.8c1.2.8 1.7 1.2 2.5 2.2l.9-.8c-.9-1-1.4-1.3-2.6-2.1l-.8.7zm14.6 4.6c.4.4.5.7.7 1.3 1.2-.3 1.9-.5 2.7-.8 2.2-1.1 3.5-3.1 3.5-5.5 0-3.4-2.4-5.6-6-5.6-2.2 0-4 .7-5.3 2.2-1.1 1.2-1.7 2.8-1.7 4.5 0 2.3 1.2 4 2.8 4 1.2 0 2.2-1 3.1-3.1.8-1.7 1.3-4 1.6-6.4.8 0 1.2.2 1.8.4 1.5.7 2.4 2.1 2.4 3.9 0 1.9-.9 3.4-2.5 4.3-.9.4-1.7.6-3.1.8zm0-9.4c-.2 2-.8 4.3-1.4 5.8-.7 1.5-1.3 2.2-1.9 2.2-.8 0-1.5-1.2-1.5-2.6 0-1.9.9-3.7 2.5-4.6.7-.5 1.3-.7 2.3-.8zm10.2 1.3h.6c.9.1 1.8.1 2.6.1-.3.9-.8 2.4-1.3 3.5-.3.7-.5 1.2-.8 1.6l1.4.5c.3-.4.7-.7 1.3-1 1.1-.5 2.4-.8 3.6-.8 1.9 0 3 .7 3 1.8 0 1.4-1.6 2.4-4.1 2.4-1.4 0-2.7-.3-4-.8.1.6.1.9.1 1.2v.3c1.2.4 2.6.6 4 .6 3.3 0 5.5-1.5 5.5-3.7 0-1.8-1.6-3-4.1-3-1.8 0-3.5.5-4.6 1.3.5-1 1-2.1 1.5-3.9 1.8 0 3.6-.2 4.9-.3 1.4-.2 1.4-.2 1.7-.2l-.1-1.4c-1 .4-3.2.6-6.2.7.2-.6.2-.7.4-1.6.2-.8.2-.8.3-1l-1.5-.1c0 .7-.2 1.5-.5 2.8-1.7 0-2.7-.1-3.5-.3l-.2 1.3zm16.9 7.7h3.2c.6 0 1 0 1.3.1v-1.3c-.4.1-.7.1-1.3.1h-3.2v-3.8h3.1c.6 0 1 0 1.4.1v-1.3c-.4.1-.7.1-1.4.1h-3v-2.9c1.7-.4 2.9-.8 4.2-1.3l.6-.2-.9-1.1c-.2.1-.4.3-.7.4-1.2.6-2.4.9-4.5 1.3v9.7c0 .9 0 1.3-.1 1.8h1.4v-1.7zm5.6.8c0 .8 0 1.5-.1 1.9h1.4c-.1-.4-.1-1.1-.1-1.9v-10.5h3.9v8.6c0 .4-.1.5-.6.5s-1.1 0-1.8-.1c.2.4.3.8.3 1.3.6 0 1.2.1 1.6.1 1.3 0 1.7-.3 1.7-1.5V312c0-.7 0-1 .1-1.4-.4 0-.8.1-1.5.1h-3.6c-.6 0-1.1 0-1.5-.1V322.3zm13.5-4.9v5c0 .8 0 1.3-.1 1.7h1.3c-.1-.4-.1-.9-.1-1.8v-5h1.3v3.9c0 .2-.1.3-.3.3-.2 0-.4 0-.7-.1.1.4.1.6.1 1.1h.6c1 0 1.3-.2 1.3-1.1v-3.9c0-.7 0-1.1.1-1.4-.4 0-.7.1-1.4.1h-1.1v-.2c0-.6 0-.9.1-1.3h-1.3c0 .4.1.9.1 1.3v.2h-1c-.6 0-1 0-1.4-.1v4.9c0 .7 0 1.2-.1 1.6h1.2c0-.4-.1-.7-.1-1.6v-3.8h1.5zm2-3c.6 0 1.1 0 1.5.1 0-.4-.1-.7-.1-1.3v-1.6c0-.6 0-1 .1-1.3-.6 0-1 .1-1.6.1h-4c-.8 0-1.2 0-1.8-.1 0 .4.1.9.1 1.9 0 3.2-.1 5.2-.4 7-.2 1.3-.5 2.1-1.1 3.2.4.4.6.6.9 1.1 1.2-2.3 1.5-4.1 1.8-9h4.6zm-4.7-3h5v1.9h-5v-1.9zm7.3-.6c.1.4.1.9.1 1.7v6.1c0 1 0 1.4-.1 1.8h1.3c-.1-.4-.1-.7-.1-1.8v-6.2c0-.9 0-1.3.1-1.7h-1.3zm3-1c.1.6.1 1.1.1 1.9v10.6c0 .4-.1.5-.7.5s-1.3-.1-1.9-.2c.2.4.3.7.4 1.2.7.1 1.2.1 1.4.1 1.6 0 2-.3 2-1.6v-10.7c0-1 0-1.4.1-1.9h-1.4zm-130.1 44.1c-.9-1.4-1.3-2.1-1.6-3.2s-.5-2.3-.5-3.6.2-2.5.5-3.6c.4-1.1.7-1.8 1.6-3.2l-1.2-.8c-.9 1.4-1.3 2.1-1.7 3.3-.5 1.4-.7 2.8-.7 4.3s.2 3 .7 4.3c.4 1.2.8 1.9 1.7 3.3l1.2-.8zm10.5-13.1v1h-1.5c-.7 0-1.1 0-1.4-.1v1.1c.5-.1.8-.1 1.4-.1h1.5v1h-2.1c-.8 0-1.2 0-1.6-.1v1.2c.5-.1.9-.1 1.6-.1h5.8c.7 0 1.1 0 1.6.1v-1.2c-.4.1-.8.1-1.6.1h-2.6v-1h1.8c.7 0 1 0 1.5.1v-1c-.4 0-.8.1-1.4.1h-1.8v-1h2.3c.7 0 1.1 0 1.5.1v-1.1c-.5.1-.8.1-1.5.1h-2.3c0-.6 0-.9.1-1.3h-1.3c.1.4.1.6.1 1.3h-1.9c-.7 0-1 0-1.5-.1v1.1c.4-.1.8-.1 1.5-.1h1.8zm-1.8 9.7h4.8v1.1c0 .4-.1.4-.5.4-.5 0-1.1-.1-1.7-.2.2.4.2.7.3 1.1.5 0 1 .1 1.4.1 1.3 0 1.7-.3 1.7-1.3v-4.6c0-.8 0-1.3.1-1.7-.4.1-.7.1-1.5.1h-4.3c-.6 0-1 0-1.4-.1v5.9c0 .9 0 1.3-.1 1.8h1.3c-.1-.4-.1-.9-.1-1.8v-.8zm0-1v-1h4.8v1h-4.8zm0-1.9v-1.1h4.8v1.1h-4.8zm-6.9-7.4c.3 0 .7-.1 1.2-.1h2.1c.5 0 .8 0 1.2.1V339c-.4.1-.6.1-1.2.1h-2.1c-.6 0-.8 0-1.2-.1v1.2zm-.6 2.3c.4 0 .7-.1 1.3-.1h4.1v-1.2c-.3.1-.6.1-1.3.1h-2.8c-.6 0-.9 0-1.3-.1v1.3zm.6 2.2h4.4v-1.1c-.3 0-.5.1-1 .1h-2.3c-.5 0-.8 0-1.1-.1v1.1zm0 2.2h4.5v-1.1c-.4 0-.5.1-1 .1h-2.3c-.5 0-.8 0-1.1-.1v1.1zm1.2 6.2v-.8h2.1v.6h1.1c0-.4-.1-.8-.1-1.3v-3.5h-3.1c-.6 0-.9 0-1.3-.1 0 .4.1.7.1 1.3v2.2c0 .6 0 1.1-.1 1.6h1.3zm0-4h2.1v2.2h-2.1v-2.2zm20.8-6.4v8.8c0 .4-.1.5-.7.5s-1.3-.1-2.1-.2c.2.5.3.8.3 1.2.8.1 1.4.1 2 .1 1.4 0 1.7-.3 1.7-1.3v-4.3c0-1.2 0-1.9-.1-2v-.5c.5 1.5 1 2.4 2 3.6 1.1 1.4 2.3 2.5 3.8 3.5.3-.5.5-.8.9-1.2-1.2-.7-1.9-1.1-2.8-1.9-.6-.6-1.1-1.1-1.6-1.8.9-.8 1.6-1.4 2.1-2 .8-.9.8-.9 1-1l-1.1-.8c-.5.9-1.4 1.9-2.7 2.9-.7-1.1-1.2-2.3-1.6-3.6h4.6c.8 0 1.3 0 1.7.1v-1.3c-.5.1-1 .1-1.7.1h-4.7v-1.1c0-.8 0-1.2.1-1.7h-1.4c.1.5.1.9.1 1.7v1.1H595c-.8 0-1.2 0-1.7-.1v1.3c.5-.1 1-.1 1.6-.1h4.7zm2.4-3.2c1.1.7 1.4 1 2.3 1.9l.9-.8c-.9-.9-1.2-1.1-2.4-1.8l-.8.7zm-7.3 4.6c.9.9 1.5 1.6 2.2 2.8l1-.8c-.8-1.1-1.3-1.8-2.2-2.8l-1 .8zm4.1 3c-1.1.8-1.8 1.3-3.1 2-1 .6-1.6.8-2.4 1.1l.6 1.3c.3-.2.5-.3.8-.5 2.3-1.3 2.9-1.6 4.4-2.7l-.3-1.2zm16.9-5.9H611c-.8 0-1.3 0-1.8-.1v1.1c.5-.1.9-.1 1.8-.1h4.7v.9h-3.4c-.8 0-1.2 0-1.6-.1v1c.4 0 .8-.1 1.6-.1h3.4v.8H612c-.8 0-1.2 0-1.6-.1v1.1c.4-.1.9-.1 1.6-.1h3.7v.8H611c-.8 0-1.4 0-1.8-.1v1.1c.5-.1 1.1-.1 1.8-.1h10.6c.7 0 1.3 0 1.8.1v-1.1c-.4.1-.9.1-1.8.1h-4.8v-.8h3.8c.7 0 1.2 0 1.6.1v-1.1c-.5.1-.8.1-1.6.1h-3.8v-.8h3.3c.8 0 1.2 0 1.7.1v-1.8c.9 0 1.3 0 1.7.1v-1.1c-.4.1-.8.1-1.6.1h-.1V339.4c-.4 0-1 .1-1.8.1h-3.2c0-.4 0-.7.1-1h-1.3c.1.4.1.5.1 1h-3.3c-.8 0-1.2 0-1.7-.1v1.1c.4-.1.9-.1 1.6-.1h3.4v.8zm1.1 0v-.8h3.8v.8h-3.8zm0 .9h3.8v.9h-3.8v-.9zm-5.6 9.5c0 .7 0 1.2-.1 1.6h1.3v-.6h7.9v.6h1.3c-.1-.4-.1-.8-.1-1.6v-1.9c0-.8 0-1.2.1-1.5h-10.3c0 .4.1.7.1 1.5v1.9zm1.1-2.5h7.9v.8h-7.9v-.8zm0 1.7h7.9v.9h-7.9v-.9zm16.6-8.9v-1.5c0-.6 0-1.1.1-1.6h-1.4c.1.5.1 1 .1 1.6v1.5h-1c-.5 0-.8 0-1.3-.1v1.3c.4-.1.8-.1 1.3-.1h1v3.4c-1.4.5-1.9.6-2.5.7l.3 1.3c.2-.1.4-.2.8-.3 1.1-.4 1.1-.4 1.4-.5v4c0 .3-.1.4-.6.4s-1.2 0-1.7-.1c.2.5.2.8.3 1.2.6 0 .9.1 1.3.1 1.5 0 1.9-.3 1.9-1.2v-4.8c.7-.3 1-.4 2-.8l-.1-1.1c-.9.4-1.2.5-1.9.8v-3h.8c.4 0 .8 0 1.2.1V342c-.4.1-.7.1-1.2.1h-.8zm10.7 10.6c-1-3-1.9-4.9-3.1-7.2l-1.1.5c.9 1.6 1.4 2.8 2.1 4.6-2.4.4-2.8.5-5.2.8.8-2.3 1.7-6 2.5-10.1.3-1.4.3-1.4.4-1.9l-1.5-.2c0 .9-.2 2.2-.5 4.1-.6 2.9-1.3 5.5-2.2 8.3-.7 0-.8.1-1 .1h-.3l.3 1.4c.3-.1.3-.1 1.2-.2 3.4-.5 4.2-.6 6.8-1.1.2.7.3.9.5 1.6l1.1-.7zm2.7-11.9v1c.1 4 .3 6 .8 7.6.5 1.6 1.4 2.6 2.4 2.6 1.2 0 2-1.1 2.8-4-.5-.4-.7-.6-1.1-1.1-.2 1.1-.5 2-.8 2.8-.2.5-.5.8-.8.8-.6 0-1.2-1.1-1.5-2.7-.2-1-.4-3.1-.4-4.8 0-.9 0-1.5.1-2l-1.5-.2zm8.1 1.4c1.9 2.2 3.1 5.1 3.3 8.1l1.4-.5c-.5-3.4-1.5-5.7-3.5-8.1l-1.2.5zm7.7 4.7c.2 0 .2 0 .5.1.7.2 1.4.3 2.4.4-.1.9-.1 1-.1 1.5 0 1.3.4 2.2 1.1 2.8.8.6 1.8 1 3.1 1 2.8 0 4.8-1.6 4.8-3.8 0-.8-.3-1.6-.8-2.3-.2-.3-.4-.5-.8-.9-.5.2-.8.3-1.4.3 1 .9 1.5 1.8 1.5 2.8 0 1.6-1.3 2.7-3.5 2.7-.9 0-1.7-.2-2.2-.7-.5-.4-.7-1-.7-1.9 0-.3 0-.8.1-1.1v-.3h1.2c.7 0 1.6 0 2.3-.1h.4v-1.3c-.7.2-1.8.3-3 .3h-1c.1-.7.1-1 .4-2.7h1.2c.4 0 1.1 0 1.5-.1.9-.1.9-.1 1.2-.1V342c-.8.2-1.9.3-3.2.3h-.6c0-.4.1-.5.1-.9.1-.8.1-.8.2-1 .1-.6.1-.8.2-1.1l-1.5-.2v.2c0 .4-.1 1.5-.4 2.8-1.1-.1-2.2-.3-2.9-.6l-.1 1.3c.2 0 .4.1.5.1 1.1.2 1.3.3 2.4.4-.1.8-.3 2-.4 2.7-1.4-.2-2.2-.4-2.8-.6l.3 1.3zm20.6-7.3c-3.4 0-5.7 2.5-5.7 6.4 0 3.9 2.2 6.4 5.6 6.4 3.5 0 5.7-2.5 5.7-6.4 0-3.9-2.2-6.4-5.6-6.4zm0 11.5c-2.5 0-4.1-2-4.1-5.1 0-3.1 1.6-5.1 4.1-5.1 1.1 0 2 .4 2.7 1.1.9.9 1.4 2.3 1.4 4 0 3.1-1.6 5.1-4.1 5.1zm12.1-6.1 3.5-3.5 1.7-1.7h-2.2c-.3.4-.5.8-1.1 1.4l-4.6 4.7v-4.2c0-.8 0-1.4.1-1.9h-1.8c.1.6.1 1.1.1 1.9v8.6c0 .8 0 1.3-.1 1.9h1.8c-.1-.6-.1-1-.1-1.9v-2.5l1.8-1.8 3.6 4.8c.4.5.7 1 1 1.5h2.2c-.4-.4-.6-.6-1.5-1.8l-4.4-5.5zm14.7 4.1V347.2l.2-5.6c0-.7 0-1.2.1-1.8h-1.9c.1.6.1 1.1.1 1.8l.2 5.6V348.9h1.3zm.2 3.2v-1.7h-1.8v1.7h1.8zm8.7 2.6c.9-1.4 1.3-2.1 1.7-3.3.5-1.4.7-2.8.7-4.3s-.2-2.9-.7-4.3c-.4-1.2-.8-1.9-1.7-3.3l-1.2.8c.9 1.4 1.3 2.1 1.6 3.2.4 1.1.5 2.3.5 3.6s-.2 2.5-.5 3.6c-.4 1.1-.7 1.8-1.6 3.2l1.2.8z"/><path class="st3" d="M631.4 20c0-.4-.2-.8-.5-1-.3-.2-.9-.5-1.7-.8-.8-.3-1.5-.5-1.9-.8-1.3-.7-1.9-1.6-1.9-2.8 0-.6.2-1.2.5-1.6.3-.5.8-.9 1.5-1.1.7-.3 1.4-.4 2.2-.4.8 0 1.5.1 2.2.4.6.3 1.1.7 1.5 1.2.4.5.5 1.1.5 1.8h-2.3c0-.5-.2-.9-.5-1.2-.3-.3-.8-.4-1.4-.4-.6 0-1 .1-1.3.4-.3.2-.5.6-.5 1s.2.7.6.9c.4.2.9.5 1.6.7 1.3.4 2.3.9 2.9 1.5.6.6.9 1.3.9 2.2 0 1-.4 1.8-1.1 2.3-.7.6-1.7.8-3 .8-.9 0-1.7-.2-2.4-.5s-1.3-.8-1.6-1.3c-.4-.6-.6-1.2-.6-1.9h2.4c0 1.3.8 1.9 2.2 1.9.6 0 1-.1 1.3-.3.2-.3.4-.6.4-1zm12.5-6.5h-3.5V23h-2.3v-9.5h-3.4v-1.9h9.3v1.9zm8.2 4.6h-4.5v3h5.3V23h-7.6V11.6h7.6v1.9h-5.3v2.7h4.5v1.9zm4.5.9v4h-2.3V11.6h4.4c.9 0 1.6.2 2.2.5.7.3 1.2.8 1.5 1.3.3.6.5 1.2.5 2 0 1.1-.4 2-1.1 2.6-.8.6-1.8 1-3.2 1h-2zm0-1.9h2.1c.6 0 1.1-.1 1.4-.4.3-.3.5-.7.5-1.2 0-.6-.2-1-.5-1.4-.3-.3-.8-.5-1.4-.5h-2.1v3.5zm-14.3 27.3c0 3.5-.7 6.2-2.2 8.1-1.5 1.9-3.6 2.8-6.4 2.8-2.8 0-4.9-.9-6.4-2.8-1.5-1.8-2.2-4.5-2.3-7.9V40c0-3.6.7-6.3 2.2-8.1 1.5-1.9 3.6-2.8 6.4-2.8s4.9.9 6.4 2.8c1.5 1.8 2.2 4.5 2.3 7.9v4.6zm-5.1-5.2c0-2.1-.3-3.7-.9-4.6-.6-1-1.5-1.5-2.7-1.5-1.2 0-2.1.5-2.7 1.4-.6.9-.9 2.3-.9 4.3V45c0 2.1.3 3.6.8 4.7.6 1 1.5 1.5 2.7 1.5 1.2 0 2.1-.5 2.7-1.5.5-1 .8-2.5.9-4.5v-6zm23.6 6.2h2.9v4.1h-2.9V55h-5.1v-5.5h-10.5l-.2-3.2 10.7-16.9h5.1v16zm-10.8 0h5.7v-9l-.3.6-5.4 8.4z"/><path class="st0" d="M368 60h184v320H368z"/><path class="st4" d="M551.5 144v236"/><path class="st1" d="M429.6 276.4c-3.1 0-5.6-2.5-5.6-5.6v-82.2c0-3.1 2.5-5.6 5.6-5.6h9.4l.4 2.3h-9.8c-1.9 0-3.4 1.5-3.4 3.4v82.2c0 1.8 1.5 3.4 3.4 3.4H491c1.9 0 3.4-1.5 3.4-3.4v-82.2c0-1.8-1.5-3.4-3.4-3.4h-9.8l.4-2.3h9.4c3.1 0 5.6 2.5 5.6 5.6v82.2c0 3.1-2.5 5.6-5.6 5.6h-61.4z"/><path class="st1" d="M449.2 191.5c-2.6 0-4.9-2-5.3-4.5l-.9-5.1c-.2-1.3.1-2.5.9-3.4s1.9-1.4 3.2-1.4h26.5c1.3 0 2.5.5 3.2 1.4.8.9 1.1 2.2.9 3.4l-.9 5.1c-.5 2.5-2.8 4.5-5.3 4.5h-22.3zm-2.2-12.2c-.6 0-1.1.2-1.5.6-.3.4-.5 1-.4 1.6l.9 5.1c.2 1.4 1.7 2.6 3.1 2.6h22.2c1.4 0 2.9-1.2 3.1-2.6l.9-5.1c.1-.6 0-1.2-.4-1.6-.3-.4-.9-.6-1.5-.6H447zM435.6 218.3c-.6 0-1.1-.5-1.1-1.1v-15.5c0-.6.5-1.1 1.1-1.1H454c.6 0 1.1.5 1.1 1.1v15.5c0 .6-.5 1.1-1.1 1.1h-18.4zm1.1-2.3h16.1v-9.1l-7.6 7.6-5.2-5.2 1.6-1.6 3.6 3.6 7.6-7.6v-.9h-16.1V216zM472.4 204.3h-11.8v2.3h11.8v-2.3zM485.8 212.9h-25.2v2.3h25.2v-2.3zM435.6 241.6c-.6 0-1.1-.5-1.1-1.1V225c0-.6.5-1.1 1.1-1.1H454c.6 0 1.1.5 1.1 1.1v15.5c0 .6-.5 1.1-1.1 1.1h-18.4zm1.1-2.3h16.1v-9.1l-7.6 7.6-5.2-5.2 1.6-1.6 3.6 3.6 7.6-7.6v-.9h-16.1v13.2zM480.7 227.6h-20v2.3h20v-2.3zM475.9 236.2h-15.3v2.3h15.3v-2.3zM435.6 264.9c-.6 0-1.1-.5-1.1-1.1v-15.5c0-.6.5-1.1 1.1-1.1H454c.6 0 1.1.5 1.1 1.1v15.5c0 .6-.5 1.1-1.1 1.1h-18.4zm1.1-2.3h16.1v-9.1l-7.6 7.6-5.2-5.1 1.6-1.6 3.6 3.6 7.6-7.6v-.9h-16.1v13.1zM474.2 250.9h-13.6v2.3h13.6v-2.3zM482 259.5h-21.4v2.3H482v-2.3z"/><path class="st2" d="M520 60c0-33.1-26.9-60-60-60s-60 26.9-60 60h-32v84h207V60h-55z"/><path class="st5" d="m552 60 16 42-16 42"/><path class="st3" d="M409.5 79.3V78c-.8.1-1.3.2-2.8.2h-6.6c-1.6 0-2 0-2.8-.2v2.7c.7-.1 1.3-.1 2.8-.1h6.7c1.5 0 2.1 0 2.8.1v-1.2c.7 1.2 1.1 1.8 1.5 3l1.7-.7c-.4-1.3-.7-1.8-1.5-3.1l-1.8.6zm1.3 6.7c1.5 0 2 0 2.8.1v-2.6c-.8.1-1.3.2-2.8.2h-12.9c-1.5 0-2 0-2.8-.2v2.6c.8-.1 1.3-.1 2.8-.1h5.3c-.1 1.8-.4 3.1-1 4.2-.9 1.7-2.6 2.8-5.2 3.7.9.9 1.2 1.3 1.8 2.4 3-1.2 4.6-2.4 5.7-4.3.9-1.6 1.4-3.4 1.5-5.9h4.8zm4.3-5.2c-.4-1.1-.7-1.7-1.5-2.9l-1.6.6c.8 1.2 1.1 1.9 1.5 3l1.6-.7zm2.3 7.3c.9-.1 1.1-.1 3.6-.1h11.7c2.5 0 2.7 0 3.6.1V85c-1 .1-1.4.2-3.6.2H421c-2.2 0-2.6 0-3.6-.2v3.1zm38.7-8.9c-.6.2-1 .2-1.9.3-5.4 0-5.4 0-5.7.1.1-.2.3-.5.5-1.1.4-.8.4-.8.7-1.2l-2.9-.6c-.2.8-.6 1.9-1.3 3.1-1.3 2.5-3.1 4.5-5.5 6.3 1.1.7 1.5.9 2.2 1.8 2.2-1.9 3.8-3.7 5.1-5.9l6.8-.1c-.7 2.1-1.4 3.6-2.5 5.2-1.6-1.3-2.6-1.9-4.4-2.9l-1.7 2c1.7.9 3 1.8 4.5 3.1-1.1 1.3-2 2-3.6 3.1-1.3.9-2.4 1.4-4.3 2.2.8.7 1.1 1.1 1.8 2.3 4.7-2.2 7.8-4.8 10-8.4.9-1.5 2.1-4 2.8-6.1.4-1 .4-1.1.7-1.5l-1.3-1.7zm14.3.7c-.1 1.8-.3 2.9-.7 4.4-.7 2.4-2 4.7-3.8 6.5-1.5 1.5-2.6 2.4-4.4 3.5.8.7 1.3 1.3 1.8 2.3 2.4-1.6 4-3.1 5.5-5 1.5-2 2.4-3.8 3.1-6.6.4 1.4.6 1.9 1.1 3.1.6 1.3 1.1 2.2 1.9 3.3 1.5 2 3.1 3.6 5.3 5.2.6-1.1 1-1.7 1.9-2.5-1.5-.9-2.1-1.3-3.3-2.4-1.5-1.4-2.6-2.7-3.5-4.2-1.6-2.7-2.4-5.6-2.4-8.7 0-.6 0-.7.1-1.4-.5.1-1.1.1-2 .1h-3.5c-1 0-1.4 0-2.1-.1V80c.9-.1 1.5-.1 2.1-.1h2.9zm20.7.3c.7-.1 1.4-.1 2.4-.1h8.3c.9 0 1.7 0 2.4.1V78c-.6.1-1.4.1-2.5.1h-3v-.3c0-.6 0-1 .1-1.4h-2.6c.1.4.1.8.1 1.4v.3h-2.8c-.8 0-1.8 0-2.2-.1l-1.1-1.6c-.3.2-.5.4-.9.5-1.8.7-3 1-5.4 1.4.5 1.1.7 1.4.8 2 1-.2 1.3-.2 2.1-.4v2.4h-1.2c-.6 0-1 0-1.6-.1v2.3c.5-.1 1-.1 1.5-.1h1.1c-.7 2.2-1.8 4.4-3.1 5.9.7 1 .8 1.3 1.2 2.2.4-.4.9-1.4 1.3-2.2.3-.7.7-1.5 1-2.4-.1.9-.1 1.3-.1 1.4v5c0 1.2 0 1.8-.1 2.6h2.5c-.1-.6-.1-1.3-.1-2.6V90c0-1.6 0-1.6-.1-2v-.6c.6 1.2.8 1.6 1.4 2.4.2-.7.6-1.4.8-1.8v6.4c0 1.2 0 1.8-.1 2.5h2.4c-.1-.6-.1-1.4-.1-2.5v-5.9h8.1v5.7c0 .3-.1.4-.5.4-.5 0-1.1 0-2-.2.3.9.4 1.2.5 2.2h1.2c1.3 0 1.7 0 2.1-.2.7-.2.9-.7.9-1.8v-6.2c0-.9 0-1.4.1-2-.4.1-.9.1-2 .1h-8.8c-.7 0-1.4 0-1.9-.1v1c-.8-.8-1.6-1.9-2-2.9v-.1h.8c.5 0 1 0 1.6.1v-2.3c-.4.1-.8.1-1.5.1h-.8v-3c.7-.2 1.3-.4 1.9-.7v1.6zm9.9 5.3c.5 0 1 0 1.4.1 0-.3-.1-.8-.1-1.3v-2c0-.5 0-1 .1-1.3h-9.5c0 .5.1.8.1 1.2v2.2c0 .4 0 .6-.1 1.2.4 0 .8-.1 1.5-.1h6.6zm-5.9-2.9h4.9v1.3h-4.9v-1.3zm5.3 7.9c0-.5 0-.8.1-1.2-.3 0-.7.1-1.5.1h-3.1c-.6 0-1 0-1.4-.1 0 .4.1.7.1 1.3v3.1c0 .6 0 .9-.1 1.4h1.9v-1.2h2.8c.3 0 .9 0 1.3.1v-3.5zm-4.1.4h2.4v1.4h-2.4v-1.4zm20.3-6.9c-1.5 0-2.6 1.2-2.6 2.6 0 1.5 1.2 2.6 2.6 2.6 1.5 0 2.6-1.2 2.6-2.6 0-1.4-1.1-2.6-2.6-2.6zm-84 24.1c-.7.4-1.4.7-2.7 1-2.7.8-6.5 1.3-9.4 1.3h-1.4c.5 1.1.6 1.4.8 2.4 3.6-.2 4.3-.2 6.1-.5v3.3h-5.6c-1.5 0-1.9 0-2.7-.2v2.6c.8-.1 1.2-.1 2.6-.1h5.4c-.1.7-.2 1.1-.2 1.5-.4 1.4-1.2 2.7-2.5 3.7-1 .8-1.8 1.3-3.4 1.8.9.8 1.3 1.2 1.9 2.3 1-.5 1.4-.7 2-1.1 1.5-1 2.8-2.2 3.6-3.5s1.2-2.8 1.5-4.8h4.9c1.4 0 1.8 0 2.6.1v-2.6c-.8.1-1.2.2-2.7.2h-4.7c0-.7 0-.7.1-3.7 1.7-.3 2.4-.5 3.7-.9 1.6-.5 1.6-.5 1.8-.6l-1.7-2.2zm17.9 8.9h3.1c1.1 0 1.4 0 2 .1v-2.5c-.6.1-1.1.2-2 .2H445c-.9 0-1.4 0-2-.2v2.5c.7-.1 1.2-.1 2-.1h2.9v7.1h-4.3c-1 0-1.4 0-2-.1v2.5c.6-.1 1.1-.1 2-.1H455c1 0 1.4 0 2 .1V124c-.6.1-1 .1-2 .1h-4.5V117zm13.7-3c1 1.9 1.4 3.1 2 5.3l2.5-.8c-.8-2.5-1.2-3.5-2.2-5.2l-2.3.7zm4.7-.9c.9 1.8 1.6 3.5 2 5.2l2.4-.8c-.5-1.9-1-2.9-2.1-5.1l-2.3.7zm7.6-.2c0 .7-.1 1.5-.4 2.5-.9 3.5-2.4 5.8-5 7.6-1.3.9-2.2 1.4-3.7 2 .9.9 1.2 1.2 1.8 2.2 3.3-1.7 5.1-3.1 6.7-5.3 1.4-1.9 2.4-4.3 3-7.3.1-.7.2-.8.3-1.1l-2.7-.6zm24.5-2.4c-.5.2-.7.2-1.6.2l-4.8.1h-1.1c.2-.4.2-.4.4-.7l.3-.6c.2-.5.2-.5.3-.6.2-.5.2-.5.4-.7l-3-.6c-.1.8-.4 1.7-1.1 2.9-1.6 2.9-3.2 4.7-5.7 6.4 1.1.7 1.5 1 2.1 1.9 2.1-1.6 3.8-3.5 5.1-5.6l6.6-.1c-1.2 3.9-3.3 7-6.4 9.3-1.4 1-2.6 1.7-4.8 2.6 1 .8 1.3 1.2 1.9 2.3 3.4-1.6 5.8-3.3 7.8-5.6 1.9-2.2 3.5-5.1 4.5-8.5.2-.8.3-1 .6-1.3l-1.5-1.4z"/><path class="st1" d="M398.5 314.7h-2.6c-.7 0-1.3 0-1.8-.1v1.4c.5-.1 1.2-.1 1.7-.1h2.6v6.4h-2.3c-.7 0-1.2 0-1.7-.1v1.4c.5-.1 1.1-.1 1.8-.1h6.1c.7 0 1.2 0 1.7.1v-1.4c-.5.1-1 .1-1.7.1h-2.6v-6.4h3c.6 0 1.2 0 1.8.1v-1.4c-.5.1-1.1.1-1.8.1h-3v-3.2c0-.7 0-1.1.1-1.6h-1.5c.1.5.1.9.1 1.5v3.3zm-6.5 7.6c0 .8 0 1.3-.1 1.9h1.4c0-.6-.1-1.2-.1-1.9v-8.6c.5-1 .8-1.6 1-2.3.4-1.1.4-1.1.5-1.4l-1.3-.4c-.1.8-.5 2-1.1 3.2-.7 1.5-1.6 2.7-2.7 3.8.1.1.1.1.4.6.1.1.2.3.3.6.8-.9 1.1-1.3 1.7-2.3V322.3zm21.5-6.4h4c.7 0 1.2 0 1.7.1v-1.4c-.5.1-1 .1-1.7.1h-4v-3.1c0-.6 0-1.2.1-1.7H412c.1.6.1 1.1.1 1.7v10.7H408c-.8 0-1.4 0-2-.1v1.4c.6-.1 1.3-.1 2-.1h10.5c.7 0 1.3 0 1.9.1v-1.4c-.6.1-1.1.1-1.9.1h-5.1v-6.4zm19.3-5c.7.7 1.2 1.4 1.6 2.2l.9-.5c-.6-.9-.9-1.4-1.6-2.2l-.9.5zm1.6-.8c.7.7 1.1 1.3 1.6 2.2l.9-.5c-.5-.9-.9-1.4-1.6-2.1l-.9.4zm-11.9 5.4c.7-.2 1.4-.3 3.1-.6-.5 2-1 3.3-1.7 4.9-.5 1.2-1.2 2.3-1.7 2.9l1.3.8c.5-.9.8-1.6 1-2 1.1-2.2 1.7-4.1 2.4-6.7h1.1c1.4 0 1.9.5 1.9 2.1 0 1.8-.2 3.4-.6 4.4-.2.5-.5.7-.9.7-.6 0-1.5-.3-2.4-.7.1.4.1.6.1.9v.6c1 .4 1.7.6 2.4.6.8 0 1.2-.2 1.6-.7.7-.9 1.1-3.1 1.1-5.6 0-1.4-.2-2.1-.8-2.6-.5-.5-1.2-.7-2.3-.7h-1c.1-.4.3-1.4.3-1.8.1-.9.2-1.2.3-1.5l-1.5-.2v.2c0 .7-.2 2-.4 3.4-1.3.2-2.9.4-3.5.4l.2 1.2zm9.4-2.2c1.5 1.6 2.6 3.6 3.2 5.9l1.2-.7c-.7-2.3-1.7-4-3.3-5.8l-1.1.6zm10 2.3c0-.6.1-.9.2-1.9.4-2.8.4-3 .6-3.6l-1.5-.1v.5c-.4 2.9-.5 4.3-.5 5.9v2.6h1.4v-.4c0-1.2.3-2.4.9-3.6.9-1.8 1.9-2.7 3-2.7 1.5 0 2.4 1.4 2.4 3.9s-.9 4.2-2.7 5.2c-1 .5-1.8.8-3.3 1 .4.5.5.7.7 1.3 1.2-.2 2.1-.6 2.9-.9 2.5-1.2 3.8-3.4 3.8-6.4 0-1.8-.3-3-1-4-.7-.9-1.6-1.4-2.6-1.4-1.2 0-2.3.7-3.2 1.9-.4.7-.8 1.4-1 2.2 0 .4 0 .4-.1.5zm23.8-5.4c-.4.8-1.6 1.9-3 3-2.6 2-5.3 3.3-8.3 4.1.4.5.5.7.8 1.3 3-1 4-1.5 6-2.7v5.8c0 1 0 1.4-.1 1.9h1.6c-.1-.4-.1-.9-.1-1.9V315c1.4-1 2.7-2.1 3.8-3.3.3-.3.3-.3.6-.5l-1.3-1zm13.1.3c-.1.5-.2.8-.6 1.7-.5 1.3-1.1 2.5-1.8 3.6-2.5-1.8-2.5-1.8-4.1-2.7l-1 1c1.4.8 2.8 1.7 4.3 2.9-1.8 2.3-3.7 4-6.3 5.2.5.4.7.6 1 1.2 1.6-.9 2.6-1.6 3.7-2.6 1-.9 2-1.9 2.7-2.9 1.5 1.3 2.6 2.4 3.4 3.4l1.1-1.2c-1.3-1.4-2.2-2.3-3.6-3.4.8-1.1 1.3-2.3 2.3-4.6.2-.6.3-.7.5-1l-1.6-.6zm6.3 7.2c.6-.1 1-.1 2.2-.1h9c1.1 0 1.6 0 2.2.1v-1.6c-.6.1-.9.1-2.2.1h-9c-1.1 0-1.7 0-2.2-.1v1.6zm26.3-6.8c.6.7 1 1.3 1.5 2.2l.9-.5c-.5-1-.9-1.5-1.6-2.2l-.8.5zm1.6-.9c.7.7 1.1 1.3 1.5 2.2l.9-.5c-.5-.9-.9-1.4-1.6-2.1l-.8.4zm-10 1.8c1.2.4 2.8 1.3 4 2.1l.8-1.3c-1.4-.8-2.5-1.4-4-2l-.8 1.2zm-1.3 3.9c1.5.6 3 1.4 4.2 2.2l.7-1.3c-1.4-.9-2.6-1.5-4.1-2.1l-.8 1.2zm.7 7.7c.2-.1.3-.1.6-.2s.6-.1.9-.2c1.3-.3 3-.8 4.2-1.4 2.8-1.4 4.8-3.6 6.2-6.9-.5-.4-.7-.5-1.2-1-.5 1.4-1 2.4-1.9 3.6-1.3 1.7-2.8 2.8-4.7 3.6-1.6.6-3.3 1-4.4 1l.3 1.5zm18.9-11.3c-1.7 0-2.8-.1-3.4-.2v1.3h3.1c-.1.2-.1.2-.1.3-1.1 1.9-2.4 3.6-3.5 4.4l1.1 1.1c.3-.4.6-.8 1.3-1.4 1.3-1.1 2.5-1.7 3.5-1.7.7 0 1.1.4 1.2 1.1-1.1.5-1.8.8-2.4 1.3-1.1.8-1.7 1.7-1.7 2.6 0 .8.4 1.5 1.1 1.9.8.4 1.8.6 3.3.6 1.3 0 2.8-.1 4-.3.3-.1.4-.1.7-.1l-.1-1.5c-1 .4-2.7.6-4.4.6-2.3 0-3.2-.4-3.2-1.4 0-.5.3-1 .9-1.5.4-.3.9-.6 1.9-1.1v.5c0 .9 0 1.8-.1 2.1h1.3v-3.1c2.1-.8 3.4-1.2 4.2-1.4l-.6-1.3c-.3.2-.3.2-1.1.5s-1.4.5-2.7 1c-.2-1.2-1-1.7-2.2-1.7-.8 0-1.5.2-2.2.7-.2.1-.3.2-.5.4l-.2.2s.1-.1.2-.1c0 0 .4-.4.5-.6.5-.6.8-1.2 1.3-2 1.6 0 3.6-.2 4.7-.3.9-.1.9-.1 1.2-.2l-.1-1.3c-.8.3-2.3.4-4.3.6-.9 0-.9 0-1 .1.1-.2.3-.6.5-1.1l.4-.8-1.5-.2c0 .5-.2 1-.7 2.1h-.4zm-71.2 34c.3.3.5.6.7 1 .5-.5.7-.8 1-1.2v5.7c0 .8 0 1.2-.1 1.7h1.2v-.8h5.2c.5 0 1 0 1.5.1v-1.2c-.4.1-.8.1-1.5.1h-1.9v-1.7h1.4c.5 0 .8 0 1.4.1v-1.1c-.4.1-.7.1-1.4.1h-1.4v-1.6h1.4c.5 0 .9 0 1.4.1v-1.1c-.4.1-.7.1-1.4.1h-1.4v-1.6h1.7c.5 0 .8 0 1.4.1v-1.1c-.4.1-.7.1-1.4.1h-1.3c.2-.3.4-.7.5-1.2 0-.1.1-.2.1-.3l-1.1-.3c-.1.6-.4 1.2-.7 1.8h-2c.6-.9.8-1.5 1.2-2.4h3.8v1.7h1.2c0-.3-.1-.5-.1-.9V340.4c-.4.1-.9.1-1.6.1h-3.1c.1-.2.2-.7.5-1.5l-1.2-.2c-.1.6-.2 1.1-.4 1.7h-3V342.4c0 .4 0 .7-.1 1h1.2v-1.7h1.6c-.5 1.1-.8 1.8-1.5 2.7-.6.5-1 .9-1.8 1.7v-1.9c-.3 0-.6.1-1 .1h-1.7c.5-1.5.8-2.4 1-3.9h.8c.4 0 .7 0 1.1.1v-1.2c-.5.1-.8.1-1.4.1h-2.1c-.6 0-1 0-1.5-.1v1.3c.4-.1.8-.1 1.4-.1h.5c-.2 1.1-.3 1.8-.6 2.7-.5 1.6-1.1 2.6-1.9 3.7.3.4.4.5.6 1.2.4-.5.6-1 1-1.8 0 .5-.1 1.3-.1 1.6v3.6c0 .7 0 1.1-.1 1.6h1.2v-1.6h1.6v.9h1.1v-6.3zm2.7.2v-1.6h2.3v1.6h-2.3zm0 1h2.3v1.6h-2.3v-1.6zm0 2.5h2.3v1.7h-2.3v-1.7zm-5.3-4.4h1.6v4.8h-1.6v-4.8zm19.9-3.2c1 .4 1.4.5 2.1.8-.6 1.2-1.5 2-2.9 2.7.4.3.5.5.8.9 1.5-1 2.4-1.8 3.1-3.1.5.3.8.4 1.4.9l.6-.9c-.8-.5-1.1-.6-1.6-.9.2-.7.3-1 .5-2.1h2.7c-.1 1.7-.2 2.6-.4 3.5-.1.7-.3.8-.9.8-.5 0-1-.1-1.4-.2.2.5.2.7.3 1.2.4 0 .9.1 1.3.1 1.1 0 1.4-.2 1.7-.9.2-.6.5-2.3.6-4 .1-1.5.1-1.5.1-1.7-.4 0-.8.1-1.5.1H469c-.7 0-1.2 0-1.6-.1v1.2c.4-.1.8-.1 1.6-.1h1.4c-.1.8-.2 1.1-.3 1.6-.6-.3-1-.4-1.9-.7l-.8.9zm-5.6-1.8c.4 0 .7-.1 1.2-.1h2.1c.5 0 .8 0 1.2.1v-1.2c-.4.1-.6.1-1.2.1H463c-.6 0-.8 0-1.2-.1v1.2zm-.5 2.3c.4 0 .7-.1 1.3-.1h4.2v-1.2c-.4.1-.6.1-1.3.1h-2.8c-.6 0-.9 0-1.3-.1v1.3zm.6 2.2c.3 0 .6-.1 1.1-.1h2.3c.5 0 .7 0 1 .1v-1.2c-.3 0-.5.1-1 .1H463c-.5 0-.8 0-1.1-.1v1.2zm0 2.2c.3 0 .5-.1 1.1-.1h2.3c.5 0 .7 0 1.1.1V346h-4.5v1.1zm1.2 6.1v-.9h2.1v.7h1.1c0-.3-.1-.7-.1-1.3V348.1H463.1c-.6 0-.9 0-1.3-.1 0 .5.1.8.1 1.3v2.2c0 .5 0 1-.1 1.6h1.3zm-.1-4h2.1v2.2H463v-2.2zm4.4-1.4c-.1 1.6-.4 2.4-1 3.7l1 .5c.6-1.5.8-2.2 1.1-4l-1.1-.2zm2.8 1c0-.6 0-.8.1-1.2H469c.1.4.1.8.1 1.3v3c0 .9.4 1.1 2.2 1.1 1.6 0 2.1-.1 2.4-.6.2-.4.4-1 .5-2.3-.4-.1-.7-.2-1.1-.4 0 .5-.1 1-.1 1.3-.1.6-.2.8-.7.9h-1.2c-.7 0-.9-.1-.9-.4v-2.7zm3.3-.7c.9 1.2 1.2 2 1.8 3.6l1-.6c-.7-1.6-1-2.2-1.9-3.5l-.9.5zm-4-1.8c1.2.8 1.7 1.2 2.5 2.2l.9-.8c-.9-1-1.4-1.3-2.6-2.1l-.8.7z"/><path class="st3" d="M447.4 20c0-.4-.2-.8-.5-1-.3-.2-.9-.5-1.7-.8-.8-.3-1.5-.5-1.9-.8-1.3-.7-1.9-1.6-1.9-2.8 0-.6.2-1.2.5-1.6.3-.5.8-.9 1.5-1.1.7-.3 1.4-.4 2.2-.4.8 0 1.5.1 2.2.4.6.3 1.1.7 1.5 1.2.4.5.5 1.1.5 1.8h-2.3c0-.5-.2-.9-.5-1.2-.3-.3-.8-.4-1.4-.4-.6 0-1 .1-1.3.4-.3.2-.5.6-.5 1s.2.7.6.9c.4.2.9.5 1.6.7 1.3.4 2.3.9 2.9 1.5.6.6.9 1.3.9 2.2 0 1-.4 1.8-1.1 2.3-.7.6-1.7.8-3 .8-.9 0-1.7-.2-2.4-.5s-1.3-.8-1.6-1.3c-.4-.6-.6-1.2-.6-1.9h2.4c0 1.3.8 1.9 2.2 1.9.6 0 1-.1 1.3-.3.2-.3.4-.6.4-1zm12.5-6.5h-3.5V23h-2.3v-9.5h-3.4v-1.9h9.3v1.9zm8.2 4.6h-4.5v3h5.3V23h-7.6V11.6h7.6v1.9h-5.3v2.7h4.5v1.9zm4.5.9v4h-2.3V11.6h4.4c.9 0 1.6.2 2.2.5.7.3 1.2.8 1.5 1.3.3.6.5 1.2.5 2 0 1.1-.4 2-1.1 2.6-.8.6-1.8 1-3.2 1h-2zm0-1.9h2.1c.6 0 1.1-.1 1.4-.4.3-.3.5-.7.5-1.2 0-.6-.2-1-.5-1.4-.3-.3-.8-.5-1.4-.5h-2.1v3.5zm-14.3 27.3c0 3.5-.7 6.2-2.2 8.1-1.5 1.9-3.6 2.8-6.4 2.8-2.8 0-4.9-.9-6.4-2.8-1.5-1.8-2.2-4.5-2.3-7.9V40c0-3.6.7-6.3 2.2-8.1 1.5-1.9 3.6-2.8 6.4-2.8s4.9.9 6.4 2.8c1.5 1.8 2.2 4.5 2.3 7.9v4.6zm-5.1-5.2c0-2.1-.3-3.7-.9-4.6-.6-1-1.5-1.5-2.7-1.5-1.2 0-2.1.5-2.7 1.4-.6.9-.9 2.3-.9 4.3V45c0 2.1.3 3.6.8 4.7.6 1 1.5 1.5 2.7 1.5 1.2 0 2.1-.5 2.7-1.5.5-1 .8-2.5.9-4.5v-6zm13.7.8h2.7c1.3 0 2.2-.3 2.9-1 .6-.6.9-1.5.9-2.6 0-1-.3-1.8-.9-2.4-.6-.6-1.5-.9-2.5-.9s-1.8.3-2.4.8c-.7.5-1 1.2-1 2.1h-5.1c0-1.3.4-2.5 1.1-3.6.7-1.1 1.7-1.9 3-2.5 1.3-.6 2.7-.9 4.3-.9 2.7 0 4.8.7 6.4 2 1.5 1.3 2.3 3.1 2.3 5.3 0 1.2-.4 2.2-1.1 3.2-.7 1-1.7 1.7-2.8 2.3 1.4.5 2.5 1.3 3.2 2.3.7 1 1.1 2.2 1.1 3.7 0 2.3-.8 4.1-2.5 5.5-1.7 1.4-3.8 2.1-6.6 2.1-2.6 0-4.6-.7-6.3-2-1.6-1.3-2.4-3.1-2.4-5.3h5.1c0 1 .4 1.7 1.1 2.4.7.6 1.6.9 2.7.9 1.2 0 2.2-.3 2.8-.9.7-.6 1-1.5 1-2.5 0-2.6-1.4-3.8-4.2-3.8H467V40z"/><path class="st0" d="M184 60h184v320H184z"/><path class="st4" d="M367.5 144v236"/><path class="st1" d="M251.4 271c-3.4 0-6.1-2.7-6.1-6.1 0-3.4 2.7-6.1 6.1-6.1 3.4 0 6.1 2.7 6.1 6.1 0 3.4-2.7 6.1-6.1 6.1zm0-10.2c-2.2 0-4 1.8-4 4s1.8 4 4 4 4-1.8 4-4c.1-2.2-1.8-4-4-4zM288 271c-3.4 0-6.1-2.7-6.1-6.1 0-3.4 2.7-6.1 6.1-6.1 3.4 0 6.1 2.7 6.1 6.1 0 3.4-2.7 6.1-6.1 6.1zm0-10.2c-2.2 0-4 1.8-4 4s1.8 4 4 4 4-1.8 4-4c.1-2.2-1.8-4-4-4zM240.9 253.9v-2.1H293c4.6 0 9.5-1.8 9.5-6.7 0-5.7-5.4-7.3-7-7.7l-56.7-10.3L233 198h28.2v2.1h-25.7l5 25.2 53.6 9.7 6.7-35H275v-2.1h26.1l2.8-14.6h15.2v2.1h-13.5l-9.5 50 .3.1c1.9.5 8.1 2.7 8.1 9.6 0 5.3-4.5 8.8-11.6 8.8h-52z"/><path class="st1" d="M268.1 219.7c-.3 0-.5-.1-.7-.3L256 208.1c-.4-.4-.4-1.1 0-1.5.2-.2.5-.3.7-.3.3 0 .5.1.7.3l9.6 9.6V182c0-.6.5-1 1-1 .6 0 1 .5 1 1v34.2l9.6-9.6c.2-.2.5-.3.7-.3.3 0 .5.1.7.3.4.4.4 1.1 0 1.5l-11.4 11.4c0 .1-.2.2-.5.2z"/><path class="st2" d="M336 60c0-33.1-26.9-60-60-60s-60 26.9-60 60h-32v84h203V60h-51z"/><path class="st5" d="m368 60 16 42-16 42"/><path class="st3" d="M226.6 109.7c0 .8 0 1.1-.1 1.6h2.3v-1h5.5c.4.9.4 1.2.5 2.2 1.4 0 2.2.1 2.4.1 2.3 0 2.9-.6 2.9-2.4v-10.1c0-.9 0-1.3.1-1.9-.5.1-.9.1-2.1.1h-2.8c.4-.6.5-.9 1-2h2.4c1.1 0 1.8 0 2.4.1V94c-.7.1-1.5.1-2.6.1h-6.4v-.6c0-.4 0-.7.1-1.1v-.2h-2.7c.1.4.1.9.1 1.4v.6h-6.1c-1 0-1.8 0-2.6-.1v2.4c.6-.1 1.4-.1 2.4-.1h2.3c.4.6.7 1.3.8 2h-2.6c-.7 0-1.8 0-2.2-.1.1.7.1 1.2.1 1.9v10.1c0 1.1 0 1.8-.1 2.7h2.6c-.1-.8-.1-1.5-.1-2.7v-6.2c.5.6.7.9 1.1 1.5.6-.2.7-.3 1.1-.5v4.6zm5.2-9.3v2.1c0 .5.2.9.6 1.1.4.2 1 .3 2.4.3 2.2 0 2.8-.2 3.1-1v7c0 .5-.2.6-.7.6-.4 0-.9 0-1.5-.1-.1-.5-.1-1-.1-1.7v-2.6c0-.5 0-1 .1-1.6-.3 0-1 .1-1.8.1h-6.8c1.8-1.2 2.6-2.3 2.9-4.2h1.8zm-2.6-2.1c-.3-.9-.4-1.3-.8-2h5.3c-.2.7-.5 1.3-.9 2h-3.6zm-1.5 2.1c-.2 1.6-1.1 2.5-3.4 3.1v-3.1h3.4zm10.2 1c-.4-.2-.7-.3-1.3-.5 0 .5 0 .8-.2 1-.1.2-.4.3-1.2.3-1 0-1.2-.1-1.2-.4v-1.3h3.9v.9zm-9 5.1h4.6v1.9h-4.6v-1.9zm18.1-7.4c0 .8 0 1.4-.1 2 .7-.1 1.1-.1 2.3-.1h8.7c1.2 0 1.6 0 2.3.1-.1-.6-.1-1.1-.1-2V95c0-.8 0-1.4.1-1.9-.6.1-1.3.1-2.5.1h-8.3c-1.2 0-1.8 0-2.5-.1.1.6.1 1.2.1 2v4zm2.4-3.7h8.4v3.5h-8.4v-3.5zm-5.3 15c0 1.1 0 1.7-.1 2.4h2.4v-1.1h3.8v.8h2.4c-.1-.5-.1-1.1-.1-2v-5.9c0-1.1 0-1.5.1-1.9-.5 0-1 .1-1.6.1h-4.8c-.9 0-1.5 0-2.1-.1.1.6.1 1.3.1 2.1v5.6zm2.3-5.5h3.8v4.6h-3.8v-4.6zm9.4-2.1c-.7 0-1.1 0-1.6-.1V110.9c0 .9 0 1.3-.1 2h2.4v-1.1h4.2v1.1h2.5c-.1-.6-.1-1.2-.1-2.4v-5.7c0-.9 0-1.5.1-2.1-.6.1-1.1.1-2 .1h-5.4zm.7 2.1h4.2v4.6h-4.2v-4.6zm21.2-8c1 .1 1.5.3 2.2.7 1.8 1.1 2.7 2.8 2.7 4.9 0 2.4-1.1 4.4-3.1 5.5-1 .6-2.4.9-4.4 1.2.7.9 1 1.4 1.3 2.6 1.5-.3 2.4-.5 3.5-.9 3.4-1.4 5.3-4.4 5.3-8.2 0-4.9-3.4-8.2-8.7-8.2-3.1 0-5.7 1.1-7.6 3.1-1.6 1.7-2.4 4-2.4 6.4 0 3.5 1.8 6.1 4.3 6.1 1.8 0 3.2-1.3 4.5-4.1 1.2-2.6 2-5.6 2.4-9.1zm-2.7 0c-.3 2.5-1 5.5-1.8 7.4-.8 1.9-1.5 2.8-2.3 2.8-1 0-1.7-1.4-1.7-3.2 0-2.4 1.1-4.6 3-5.9.9-.6 1.7-.9 2.8-1.1zm21.9.1c-1.1 0-1.7 0-2.5-.1v2.5c.8-.1 1.3-.1 2.5-.1h2.8v3.8h-2.3c-.9 0-1.8 0-2.4-.1v2.4c.7-.1 1.5-.1 2.4-.1h2.2v4.6h-3.4c-.9 0-1.9 0-2.6-.1v2.5c.7-.1 1.6-.1 2.6-.1h9.6c1 0 1.9 0 2.6.1v-2.5c-.6.1-1.6.1-2.6.1H302v-4.6h2.8c.9 0 1.7 0 2.4.1V103c-.6.1-1.5.1-2.4.1H302v-3.8h3.5c1 0 1.8 0 2.5.1v-2.5c-.7.1-1.3.1-2.5.1h-3.3l1.5-1.8c-1.8-1.3-2.3-1.6-4.7-2.8l-1.6 1.8c2.2 1 3.1 1.6 4.6 2.8h-5.1zm-7.7-2.6c1.8 1.1 2.5 1.7 3.9 3.1l1.5-2c-1.4-1.3-2.2-1.9-3.9-2.9l-1.5 1.8zm-.9 5.4c1.6.9 2.5 1.5 4.1 3.1l1.3-2c-1.5-1.3-2.2-1.8-4-2.9l-1.4 1.8zm3.6 4.3c-1.2 3.2-2.5 5.7-3.5 6.8l2.1 1.8c.1-.2.1-.2.3-.5.3-.4.4-.7.6-1.1.9-1.6 1.4-2.9 2.4-5.6l-1.9-1.4zm36.3-6c1.1 0 1.9 0 2.7.1v-2.5c-.8.1-1.6.2-2.8.2H322v-1.6c0-.6 0-1.2.2-1.7h-2.8c.1.5.2 1 .2 1.7v1.6h-5.9c-1.2 0-1.9 0-2.8-.2v2.5c.8-.1 1.6-.1 2.7-.1h1c.7 2.2 1.1 3.2 2 4.6.7 1.3 1.5 2.4 2.6 3.5-2.3 1.9-4.7 3-8.6 4.1.6.8 1 1.4 1.4 2.4 2.1-.7 3.3-1.2 4.7-1.9 1.6-.8 3.1-1.8 4.3-2.9 2.4 2.1 5.1 3.5 8.9 4.8.5-1.2.8-1.7 1.5-2.6-3.5-.8-6.2-2-8.6-3.9 1-1.2 1.8-2.3 2.6-3.7.8-1.5 1.1-2.4 1.7-4.4h1.1zm-3.7 0c-.5 1.8-.9 2.6-1.5 3.7-.6 1-1.2 1.9-2 2.8-.8-.9-1.4-1.7-2.1-2.8-.8-1.3-1.1-2.1-1.7-3.8h7.3z"/><path class="st1" d="M228.7 319h4.5v3.4c0 .4-.1.5-.9.5-.5 0-1.3-.1-2.2-.2.2.5.2.8.3 1.2.6 0 1.4.1 1.9.1 1.7 0 2.1-.3 2.1-1.4v-10.7c0-.8 0-1.2.1-1.6-.5 0-.9.1-1.7.1H224c-.8 0-1.3 0-1.8-.1 0 .6.1 1.1.1 1.9 0 7.4-.3 9.2-1.7 11.1.5.3.7.4 1.1.8 1.1-1.7 1.5-2.9 1.7-5.2h4.2v2.9c0 .9 0 1.3-.1 1.8h1.3c-.1-.4-.1-.9-.1-1.8V319zm0-4.9v-2.6h4.5v2.6h-4.5zm-1.2 0h-4v-2.6h4v2.6zm1.2 1.1h4.5v2.6h-4.5v-2.6zm-1.2 0v2.6h-4.1v-2.6h4.1zm9.3 2.6c.3 0 .5-.1.8-.1 1.3-.1 1.3-.1 1.7-.1v5c0 .7 0 1.2-.1 1.7h1.3c-.1-.5-.1-.9-.1-1.6v-5.1c.6 0 .6 0 1.5-.1.1.3.1.4.3.8l.9-.4c-.4-1-.8-2-1.4-3l-.8.4c.3.6.4.7.7 1.3-.8.1-.9.1-2.3.2.7-.8 1.5-1.9 2.3-3.2.8-1.3.8-1.3 1-1.5l-1.1-.6c-.2.6-.7 1.4-1.7 3.1-.4-.4-.5-.6-.9-1.1.7-.9 1.1-1.6 1.6-2.5.2-.3.3-.5.4-.7l-1.1-.5c-.2.7-.6 1.6-1.5 2.9-.2-.2-.3-.3-.7-.6l-.6.9c1 .9 1.6 1.5 2.3 2.4-.3.4-.3.4-1.1 1.4H237l-.2 1zm13.2-8c-.5.3-1 .5-1.9.7-1.5.4-2.9.6-4.7.7 0 .4.1.8.1 1.4v9.8c-.9.2-1.3.3-1.7.3l.3 1.3c.2-.1.2-.1.5-.2s.4-.1.6-.2c1-.3 1-.3 1.2-.4 1.1-.3 1.7-.6 2.9-1v-1.1c-1 .4-1.5.6-2.6.9v-5.4l2.4-.1c.2 2.1.6 3.7 1.1 4.9.6 1.4 1.3 2.2 2 2.2.8 0 1.2-.8 1.5-2.8-.4-.3-.7-.5-1-.9-.1 1.1-.3 1.9-.5 2.2-.1-.1-.2-.1-.3-.2-.3-.4-.5-.8-.8-1.6-.4-1.4-.6-2.1-.8-4h3.1V315c-.5.1-.8.1-1.5.1h-1.6c-.1-1.3-.1-1.7-.1-3.1v-.8c1-.2 1.3-.3 3-.8l-1.2-.6zm-5.4 5.8v-3.4c1-.1 1.3-.2 2.1-.3.1 2.4.1 2.4.2 3.6l-2.3.1zm-7.1 3c-.2 2.1-.4 3.1-.8 4.3l1.1.4c.4-1.2.6-2.3.8-4.6l-1.1-.1zm3.6.1c.3.9.5 1.7.7 3.2l1-.3c-.3-1.5-.4-2.1-.8-3.2l-.9.3zm18.9-3.3c-.8 0-1.5.7-1.5 1.5s.7 1.5 1.5 1.5 1.5-.7 1.5-1.5-.7-1.5-1.5-1.5zm13.7-4v-.5c0-.5 0-.8.1-1.2h-1.4c.1.3.1.7.1 1.2v.5h-1.9c-.8 0-1.1 0-1.5-.1v1.2c.4-.1.8-.1 1.4-.1h4.9c.7 0 1.1 0 1.4.1v-1.2c-.4.1-.8.1-1.5.1h-1.6zm1.1 4.3c.5-1 .8-1.6 1.1-2.7l-1.2-.4c-.3 1.2-.5 1.9-1.1 3h-3.4c-.8 0-1.2 0-1.6-.1v1.3c.4-.1.8-.1 1.6-.1h5.4c.6 0 1.1 0 1.4.1v-1.3c-.3.1-.7.1-1.5.1h-.7zm-4.6-2.6c.5.9.7 1.5.9 2.5l1.1-.4c-.3-1.1-.5-1.7-1-2.5l-1 .4zm.8 10.1h3.9v1h1.2c0-.4-.1-.7-.1-1.2v-4.9H269.6v4.6c0 .7 0 1.1-.1 1.5h1.2v-1zm0-4h3.9v2.9H271v-2.9zm11.8-9.1c-.3 0-.6.1-1.2.1H277.7c0 .5.1.9.1 1.4v11c0 .8 0 1.3-.1 1.8h1.4c-.1-.5-.1-1-.1-1.8v-11.2h2.9c-.6 1.6-1.1 2.8-2 4.4 1 .9 1.4 1.4 1.8 2.3.3.7.5 1.4.5 2.2 0 .7-.3 1-1.2 1-.5 0-.9 0-1.5-.1.2.4.2.7.3 1.2.4 0 .8.1 1.2.1.7 0 1.2-.1 1.5-.3.5-.3.8-.9.8-1.8 0-.7-.2-1.5-.5-2.2-.4-.9-.8-1.4-1.7-2.4.6-1.1 1.2-2.2 1.6-3.2.5-1.2.5-1.2.6-1.4l-.5-1.1zm16.6 2.5c-.4.1-.8.1-1.5.1h-3.2c.2-.6.4-1.2.6-2 .1-.4.1-.5.2-.7l-1.3-.3c0 .5-.1 1-.3 1.7-.5 2-1.3 3.9-2.4 5.2.4.2.6.4.9.8.4-.6.6-.9 1-1.6.3 1.9.8 3.1 1.6 4.4-1 1.3-2.2 2.2-4 3.1.4.4.5.6.8 1.1 1.7-.9 2.9-1.9 3.9-3.2 1 1.3 2 2.2 3.4 3.1.3-.6.4-.8.7-1.2-1.4-.8-2.4-1.6-3.4-2.9.5-.9.9-1.8 1.2-2.9.3-1.1.4-1.9.5-3.5.7 0 1 0 1.3.1v-1.3zm-2.4 1.2c-.1 2.3-.5 3.7-1.3 5.2-.8-1.4-1.2-2.8-1.5-4.8l.2-.4h2.6zm-5.4 8.4c-.7-.4-1-.6-1.6-.9.6-.8.8-1.3 1.2-2.4h.2c.6 0 .9 0 1.2.1v-1.2c-.3.1-.6.1-1.1.1h-2.8c.2-.4.2-.5.4-1l-1.2-.3c-.2.6-.3.8-.4 1.2h-1.4c-.6 0-.8 0-1.2-.1v1.2c.3-.1.6-.1 1.2-.1h.8c-.4.7-.6.9-1.1 1.7 1.2.4 1.7.7 2.4 1-.8.6-2 1.2-3.4 1.5.3.4.4.6.6 1.1 1.9-.6 2.9-1.2 3.9-2.1.8.4 1 .6 1.7 1.1l.6-.9zm-1.6-3.3c-.3.8-.5 1.3-1 1.9-.5-.2-.8-.3-1.7-.7.4-.6.5-.7.7-1.2h2zm-.6-6.1v-2.1c0-.4 0-.8.1-1.1h-1.2c.1.4.1.6.1 1.1v2.1h-2c-.6 0-1 0-1.3-.1v1.2c.3-.1.7-.1 1.3-.1h1.3c-.8 1-1.4 1.6-2.9 2.5.4.3.5.5.8.9 1.5-1.1 2-1.6 2.9-2.9v1.6c0 .2 0 .4-.1.6h1.2V315c0-.2 0-.4-.1-.8.5.8.9 1.2 1.8 1.9.4-.6.4-.6.7-.9-.8-.4-1.4-.9-1.8-1.4h1.5c.5 0 .8 0 1.1.1v-1.1c-.2 0-.5.1-1.1.1h-2.3zm-4-2.4c.5.7.8 1.3 1.1 2.1l1-.4c-.4-.8-.6-1.3-1.2-2.1l-.9.4zm5.9-.5c-.3.9-.7 1.5-1.3 2.3l1 .5c.5-.7.8-1.2 1.3-2.3l-1-.5zm13.9 0c0 .7-.3 1.9-.5 2.9h-1.1c-.9 0-1.4 0-1.9-.1v1.3h2.8c-.7 2.5-2 5.1-3.2 6.5l1.3.8c.1-.1.2-.3.3-.6.6-1.1.8-1.3 1.1-2.1.7-1.5 1.3-3 1.8-4.7 1.1-.1 2-.2 2.6-.3.4-.1.4-.1.5-.1v-1.3c-.7.2-1.7.4-2.8.5.2-.8.3-1.1.4-1.6.1-.7.1-.7.2-1l-1.5-.2zm9.6 4.4c-1.3-.8-2.4-1.4-4.3-2.1l-.7 1.1c1.7.6 3 1.3 4.3 2.2l.7-1.2zm0 7.1-.2-.2-.4-.4c-1-.8-1.5-1.1-2.7-1.6-.1-.7-.2-1.7-.2-2.4 0-.6 0-.9.2-1.5l-1.3-.1c-.1.5-.2 1-.2 1.5s0 1.4.1 2.2c-.7-.2-1.1-.2-1.6-.2-2 0-3.3 1-3.3 2.5 0 1 .6 1.8 1.5 2.1.5.2 1.2.3 1.7.3 1.1 0 2-.4 2.5-1 .3-.4.5-1 .5-1.6v-.4c1.1.6 2.1 1.4 2.7 2.1l.7-1.3zm-4.6-1.3v.6c0 1.1-.6 1.6-1.9 1.6-1.2 0-1.9-.5-1.9-1.2 0-.8.8-1.3 2.1-1.3.6 0 1.1.1 1.7.3zm16-9.3c.5.6 1 1.3 1.4 2.3l.9-.5c-.5-1-.8-1.5-1.5-2.2l-.8.4zm1.6-.7c.6.7 1 1.3 1.4 2.2l.9-.5c-.5-.9-.9-1.5-1.5-2.2l-.8.5zm-7 .4c.1.3.1.4.3 1 .4 1.9.7 3.1 1.1 4.4-1 .5-1.5.8-2.1 1.3-.9.8-1.4 1.7-1.4 2.7 0 1.1.5 2 1.3 2.5 1 .5 2.2.8 4.3.8 1.2 0 2 0 3.6-.2.9-.1.9-.1 1.2-.1l-.1-1.6c-1 .3-2.9.6-4.7.6-1.1 0-2.1-.1-2.7-.2-1-.3-1.5-.8-1.5-1.6 0-.6.3-1.2.8-1.7.7-.6 1.7-1.2 3-1.7 1.8-.7 3.8-1.3 5-1.6l-.5-1.4c-.3.1-.4.2-1.1.4-2.8 1-2.8 1-3.8 1.4-.5-1.6-1.1-4.1-1.2-5.2l-1.5.2zm-75.6 33.2h-2.6c-.7 0-1.3 0-1.8-.1v1.4c.5-.1 1.2-.1 1.7-.1h2.6v6.4H243c-.7 0-1.2 0-1.7-.1v1.4c.5-.1 1.1-.1 1.8-.1h6.1c.7 0 1.2 0 1.7.1v-1.4c-.5.1-1 .1-1.7.1h-2.6v-6.4h3c.6 0 1.2 0 1.8.1v-1.4c-.5.1-1.1.1-1.8.1h-3v-3.2c0-.7 0-1.1.1-1.6h-1.5c.1.5.1.9.1 1.5v3.3zm-6.4 7.6c0 .8 0 1.3-.1 1.9h1.4c0-.6-.1-1.2-.1-1.9v-8.6c.5-1 .8-1.6 1-2.3.4-1.1.4-1.1.5-1.4l-1.3-.4c-.1.8-.5 2-1.1 3.2-.7 1.5-1.6 2.7-2.7 3.8.1.1.1.1.4.6.1.1.2.3.3.6.8-.9 1.1-1.3 1.7-2.3V351.3zm22.6-4.9v2.1c-1.5 1-2 1.3-3.2 1.9-.6.3-.9.4-1.4.6l.5 1.2c.2-.2.4-.3.7-.4 1.8-1 1.8-1 3.3-2.1v2.1c0 .3-.1.4-.6.4-.4 0-.9 0-1.5-.1.2.4.3.7.3 1.2.5 0 .9.1 1.3.1 1.3 0 1.6-.2 1.6-1.1v-2.8c0-.3 0-.8-.1-1.4.6 1.4 1.1 2.2 2 3.1.6.7 1.3 1.2 2.2 1.7.3-.5.4-.8.8-1.1-1.2-.6-2-1.2-2.9-2.1.8-.7 1.2-1.2 2-2.1l-1-.7c-.6.9-1 1.4-1.7 2-.6-.8-.9-1.3-1.2-2.3h2.9c.6 0 1.1 0 1.5.1v-1.2c-.4.1-.9.1-1.5.1h-3V344h2.3c.7 0 1.1 0 1.5.1V343c-.4.1-.8.1-1.5.1h-2.3v-1.2h2.8c.6 0 1.1 0 1.5.1v-1.2c-.4.1-.9.1-1.5.1H264c.3-.4.6-1.1 1-1.8l-1.2-.4c-.3.8-.5 1.3-1.1 2.1H261c-.4-.8-.6-1.3-1.1-2.1l-1 .4c.5.7.7 1.1 1 1.7h-.7c-.7 0-1 0-1.4-.1v1.2c.4-.1.7-.1 1.4-.1h2.1v1.2h-1.8c-.7 0-1 0-1.4-.1v1.2c.5-.1.7-.1 1.4-.1h1.7v1.3H259c-.6 0-1.1 0-1.4-.1-.7-.8-1.2-1.7-1.5-2.5h1.5v-1.2c-.3 0-.5.1-1 .1h-.6v-1.5c0-.8 0-1.2.1-1.6h-1.3c.1.4.1.8.1 1.6v1.5h-.9c-.5 0-.8 0-1.1-.1v1.2c.3 0 .6-.1 1.1-.1h.8c-.2.8-.5 1.7-.9 2.7-.4 1-.8 1.7-1.4 2.4.3.5.5.8.7 1.3.5-.7.7-1.1 1-1.7.5-1 .7-1.5 1-2.8 0 .9-.1 2.1-.1 2.6v4.2c0 .8 0 1.4-.1 1.9h1.3c-.1-.5-.1-1-.1-1.9v-4.6c0-.5 0-1.2-.1-2.5.3.8.5 1.3 1 2.1.2-.4.4-.7.6-1v1.1c.4-.1.8-.1 1.4-.1h2.3zm-3.6.9c.7.7 1 1.1 1.5 1.9l.9-.6c-.5-.8-.9-1.2-1.6-1.9l-.8.6zm15.7-6.2c-1.7 0-2.8-.1-3.4-.2v1.3h3.1c-.1.2-.1.2-.1.3-1.1 1.9-2.4 3.6-3.5 4.4l1.1 1.1c.3-.4.6-.8 1.3-1.4 1.3-1.1 2.5-1.7 3.5-1.7.7 0 1.1.4 1.2 1.1-1.1.5-1.8.8-2.4 1.3-1.1.8-1.7 1.7-1.7 2.6 0 .8.4 1.5 1.1 1.9.8.4 1.8.6 3.3.6 1.3 0 2.8-.1 4-.3.3-.1.4-.1.7-.1l-.1-1.5c-1 .4-2.7.6-4.4.6-2.3 0-3.2-.4-3.2-1.4 0-.5.3-1 .9-1.5.4-.3.9-.6 1.9-1.1v.5c0 .9 0 1.8-.1 2.1h1.3v-3.1c2.1-.8 3.4-1.2 4.2-1.4l-.6-1.3c-.3.2-.3.2-1.1.5s-1.4.5-2.7 1c-.2-1.2-1-1.7-2.2-1.7-.8 0-1.5.2-2.2.7-.2.1-.3.2-.5.4l-.2.2s.1-.1.2-.1c0 0 .4-.4.5-.6.5-.6.8-1.2 1.3-2 1.6 0 3.6-.2 4.7-.3.9-.1.9-.1 1.2-.2l-.1-1.3c-.8.3-2.3.4-4.3.6-.9 0-.9 0-1 .1.1-.2.3-.6.5-1.1l.4-.8-1.5-.2c0 .5-.2 1-.7 2.1h-.4zm24.2 5.7c.7 0 1.2 0 1.7.1v-1.3c-.5.1-.8.1-1.5.1v-3.1c0-.6 0-.9.1-1.3-.3 0-.7.1-1.5.1h-2.6v-1.1c0-.7 0-1.1.1-1.5h-1.4c.1.5.1.9.1 1.6v1.1h-1.6c-.7 0-1.2 0-1.6-.1v1.3c.4 0 .9-.1 1.6-.1h1.6c0 1.4-.1 2.3-.2 3.2h-2c-.7 0-1.3 0-1.7-.1v1.3c.4-.1 1-.1 1.7-.1h1.8c-.6 2.6-1.9 4.1-4.6 5.4.4.4.6.7.8 1.1 1.5-.9 2.5-1.6 3.2-2.6.8-1 1.2-1.9 1.5-3.2.9 2.4 2.6 4.2 5.2 5.7.3-.6.4-.8.7-1.2-2.6-1.1-4.2-2.7-5.2-5.1h3.8zm-3.9-1.2c.1-.9.1-1.6.2-3.2h2.8v3.2h-3zm-8.3-5.8c1.2.8 1.8 1.3 2.7 2.3l.8-1c-.9-.9-1.6-1.5-2.7-2.2l-.8.9zm-.7 3.9c1.1.7 1.8 1.2 2.8 2.2l.7-1.1c-1.1-.9-1.7-1.4-2.8-2.1l-.7 1zm2.6 3.6c-.8 2.3-1.6 3.7-2.5 4.7l1.1 1c.2-.3.3-.5.3-.6.8-1.3 1.3-2.4 2-4.4l-.9-.7zm20.1 3.7c-1.4-.5-2.2-1.2-2.8-2.6.2-.6.4-1.4.4-1.6.1-.6.1-.6.2-.9l-1.3-.3v.1c0 .9-.5 2.6-1 3.7s-1 1.8-2.1 2.8c.5.4.7.5 1 .9 1.1-1.2 1.7-2.1 2.4-3.5 1.2 2.1 3.4 3 7.3 3h3.1c.1-.6.2-.8.4-1.3-1.4.1-2.5.2-3.7.2-1.1 0-1.8 0-2.6-.2V348h3.1c.7 0 1.1 0 1.6.1v-1.3c-.4.1-.9.1-1.6.1h-3.1v-2.5h2.6c.7 0 1.2 0 1.6.1v-1.3c-.4.1-.9.1-1.6.1h-6.5c-.7 0-1.2 0-1.6-.1v1.3c.4-.1.9-.1 1.6-.1h2.7v6.6zm-.2-10.6H303c-.6 0-1.1 0-1.6-.1 0 .3.1.7.1 1.1v1.1c0 .5 0 .8-.1 1.2h1.3v-2.2h10.9v2.2h1.2c0-.4-.1-.7-.1-1.2v-1.1c0-.4 0-.8.1-1.1-.5 0-1 .1-1.6.1h-4.6v-.7c0-.4 0-.7.1-1h-1.5c.1.4.1.6.1 1v.7z"/><path class="st3" d="M263.4 20c0-.4-.2-.8-.5-1-.3-.2-.9-.5-1.7-.8-.8-.3-1.5-.5-1.9-.8-1.3-.7-1.9-1.6-1.9-2.8 0-.6.2-1.2.5-1.6.3-.5.8-.9 1.5-1.1.7-.3 1.4-.4 2.2-.4.8 0 1.5.1 2.2.4.6.3 1.1.7 1.5 1.2.4.5.5 1.1.5 1.8h-2.3c0-.5-.2-.9-.5-1.2-.3-.3-.8-.4-1.4-.4-.6 0-1 .1-1.3.4-.3.2-.5.6-.5 1s.2.7.6.9c.4.2.9.5 1.6.7 1.3.4 2.3.9 2.9 1.5.6.6.9 1.3.9 2.2 0 1-.4 1.8-1.1 2.3-.7.6-1.7.8-3 .8-.9 0-1.7-.2-2.4-.5s-1.3-.8-1.6-1.3c-.4-.6-.6-1.2-.6-1.9h2.4c0 1.3.8 1.9 2.2 1.9.6 0 1-.1 1.3-.3.2-.3.4-.6.4-1zm12.5-6.5h-3.5V23h-2.3v-9.5h-3.4v-1.9h9.3v1.9zm8.2 4.6h-4.5v3h5.3V23h-7.6V11.6h7.6v1.9h-5.3v2.7h4.5v1.9zm4.5.9v4h-2.3V11.6h4.4c.9 0 1.6.2 2.2.5.7.3 1.2.8 1.5 1.3.3.6.5 1.2.5 2 0 1.1-.4 2-1.1 2.6-.8.6-1.8 1-3.2 1h-2zm0-1.9h2.1c.6 0 1.1-.1 1.4-.4.3-.3.5-.7.5-1.2 0-.6-.2-1-.5-1.4-.3-.3-.8-.5-1.4-.5h-2.1v3.5zm-14.3 27.3c0 3.5-.7 6.2-2.2 8.1-1.5 1.9-3.6 2.8-6.4 2.8-2.8 0-4.9-.9-6.4-2.8-1.5-1.8-2.2-4.5-2.3-7.9V40c0-3.6.7-6.3 2.2-8.1 1.5-1.9 3.6-2.8 6.4-2.8s4.9.9 6.4 2.8c1.5 1.8 2.2 4.5 2.3 7.9v4.6zm-5.1-5.2c0-2.1-.3-3.7-.9-4.6-.6-1-1.5-1.5-2.7-1.5-1.2 0-2.1.5-2.7 1.4-.6.9-.9 2.3-.9 4.3V45c0 2.1.3 3.6.8 4.7.6 1 1.5 1.5 2.7 1.5 1.2 0 2.1-.5 2.7-1.5.5-1 .8-2.5.9-4.5v-6zM295.3 55h-17.5v-3.5l8.3-8.8c1.1-1.2 2-2.3 2.5-3.3.6-.9.8-1.8.8-2.6 0-1.1-.3-2-.9-2.7-.6-.7-1.4-1-2.5-1s-2.1.4-2.7 1.2c-.7.8-1 1.8-1 3.1h-5.1c0-1.6.4-3 1.1-4.3.8-1.3 1.8-2.3 3.2-3 1.4-.7 2.9-1.1 4.6-1.1 2.6 0 4.7.6 6.1 1.9 1.5 1.3 2.2 3.1 2.2 5.4 0 1.3-.3 2.6-1 3.9-.7 1.3-1.8 2.8-3.4 4.6l-5.8 6.1h11V55z"/><path class="st0" d="M0 60h184v320H0z"/><path class="st4" d="M183.5 144v236"/><path class="st1" d="M62.4 266c-3 0-5.4-2.4-5.4-5.4v-54c0-.3.3-.6.3-.6L77 186.3c.1-.1.4-.3.6-.3h35.8c3 0 5.4 2.4 5.4 5.4v13.2l-1.8 1.8v-15c0-2-1.6-3.6-3.6-3.6H78.5v18.8c0 .5-.4.9-.9.9H58.8v53.1c0 2 1.6 3.6 3.6 3.6h51c2 0 3.6-1.6 3.6-3.6v-21.1l1.8-1.8v22.9c0 3-2.4 5.4-5.4 5.4h-51zm-2.3-60.3h16.7V189l-16.7 16.7z"/><path class="st1" d="M84.6 255.1h-.1c-.5-.1-.8-.5-.7-1l3.1-19.5c.1-.3.2-.6.5-.7l9.9-4.2s4.6-4.6 4.7-4.6l25-22.6c.1-.1.1-.1.2-.1l9.4-8.5c1.1-1 2.6-1.6 4-1.6s2.7.5 3.7 1.5l1 1c2 2 2 5.4-.1 7.7l-8.5 9.4c-.1.1-.1.1-.1.2 0 0-22.6 25-22.7 25.1l-4.6 4.6-4.2 9.9c-.1.3-.4.5-.7.5l-19.5 3.1c-.2-.2-.2-.2-.3-.2zm2.6-2.2 16.3-2.6 4-9.5-9.5-9.5-9.5 4-2.6 16.3 8.1-8.1-.1-.2c-.2-.7 0-1.4.5-1.9.4-.4.9-.6 1.5-.6.5 0 1.1.2 1.5.6.4.4.6.9.6 1.5 0 .5-.2 1.1-.6 1.5-.4.4-.9.6-1.5.6-.2 0-.3 0-.5-.1l-.2-.1-8 8.1zm12.1-22.7 9.3 9.3 3.2-3.2-9.3-9.3-3.2 3.2zm4.5-4.4 9.3 9.3 21.8-24-.1-.3c-1.3-2.8-3.8-5.3-6.6-6.6l-.3-.1-24.1 21.7zm36.8-31.9c-1 0-2 .4-2.8 1.1l-8.5 7.7.5.3c2.5 1.4 4.7 3.5 6 6l.3.5 7.7-8.5c1.4-1.6 1.5-3.9.2-5.2l-1-1c-.7-.6-1.5-.9-2.4-.9z"/><path class="st2" d="M152 60c0-33.1-26.9-60-60-60S32 26.9 32 60H0v84h206V60h-54z"/><path class="st5" d="m184 60 16 42-16 42"/><path class="st3" d="M64.4 79.3V78c-.8.1-1.3.2-2.8.2H55c-1.6 0-2 0-2.8-.2v2.7c.7-.1 1.3-.1 2.8-.1h6.7c1.5 0 2.1 0 2.8.1v-1.2c.7 1.2 1.1 1.8 1.5 3l1.7-.7c-.4-1.3-.7-1.8-1.5-3.1l-1.8.6zm1.3 6.7c1.5 0 2 0 2.8.1v-2.6c-.8.1-1.3.2-2.8.2H52.8c-1.5 0-2 0-2.8-.2v2.6c.8-.1 1.3-.1 2.8-.1h5.3c-.1 1.8-.4 3.1-1 4.2-.9 1.7-2.6 2.8-5.2 3.7.9.9 1.2 1.3 1.8 2.4 3-1.2 4.6-2.4 5.7-4.3.9-1.6 1.4-3.4 1.5-5.9h4.8zm4.3-5.2c-.4-1.1-.7-1.7-1.5-2.9l-1.6.6c.8 1.2 1.1 1.9 1.5 3l1.6-.7zm17.2-2.9c.6 1 1 1.9 1.4 3.1l1.6-.6c-.4-1.3-.7-2-1.4-3.1l-1.6.6zm5.3 1.6c-.4-1.1-.7-1.9-1.4-2.9l-1.5.6c.6.9 1 1.9 1.4 3l1.5-.7zm-13.9 2.1v-2.3c0-1.1 0-1.1.1-1.9h-2.9c.1.6.1 1 .1 2v2.2h-1.3c-1.6 0-2 0-2.9-.2v2.7c.8-.1 1.4-.1 2.8-.1h1.3v3.2c0 .8 0 1.4-.1 1.9h2.9c-.1-.6-.1-.9-.1-1.8V84h5.7c0 1.5 0 2-.1 2.5-.2 2.5-.8 4-2.3 5.3-1.1.9-2.1 1.5-4.2 2.1.9 1 1.2 1.4 1.7 2.3 2-.7 3.1-1.3 4.3-2.3 1.9-1.6 2.9-3.5 3.2-6.3.1-.8.1-1 .2-3.6h1.5c1.5 0 2 0 2.8.1v-2.7c-.9.1-1.3.2-2.9.2H87v-2.7c0-.9 0-1 .1-1.5h-2.8c.1.5.1 1 .1 2.5v1.7h-5.8zm30.5-4.5c-.6 1.1-2.1 2.6-4.1 4.1-3.5 2.7-7.2 4.5-11.6 5.7.8 1 1 1.4 1.5 2.5 4-1.5 5.3-2 7.9-3.6v7.7c0 1.3 0 1.7-.1 2.4h3.1c-.1-.6-.1-1.2-.1-2.4v-9.4c1.9-1.4 3.5-2.8 5.2-4.5.3-.4.4-.4.8-.8l-2.6-1.7zm8.3 3.8c2 1.1 3.8 2.6 5.6 4.5l1.9-2.4c-1.7-1.6-3.1-2.6-5.7-4.2l-1.8 2.1zm.8 14.5c.5-.2.6-.2 1.5-.4 3.4-.7 6.1-1.8 8.4-3.3 3-2 5.1-4.6 7-8.6-1.1-.8-1.5-1.1-2.3-2.2-.7 1.8-1.3 3-2.2 4.4-1.7 2.5-3.8 4.2-6.5 5.4-2 .9-4.6 1.5-6.5 1.6l.6 3.1zm-76.7 14.9V109c-.8.1-1.3.2-2.8.2h-6.6c-1.6 0-2 0-2.8-.2v2.7c.7-.1 1.3-.1 2.8-.1h6.7c1.5 0 2.1 0 2.8.1v-1.2c.7 1.2 1.1 1.8 1.5 3l1.7-.7c-.4-1.3-.7-1.8-1.5-3.1l-1.8.6zm1.3 6.7c1.5 0 2 0 2.8.1v-2.6c-.8.1-1.3.2-2.8.2H29.9c-1.5 0-2 0-2.8-.2v2.6c.8-.1 1.3-.1 2.8-.1h5.3c-.1 1.8-.4 3.1-1 4.2-.9 1.7-2.6 2.8-5.2 3.7.9.9 1.2 1.3 1.8 2.4 3-1.2 4.6-2.4 5.7-4.3.9-1.6 1.4-3.4 1.5-5.9h4.8zm4.3-5.2c-.4-1.1-.7-1.7-1.5-2.9l-1.6.6c.8 1.2 1.1 1.9 1.5 3l1.6-.7zm2.3 7.3c.9-.1 1.1-.1 3.6-.1h11.7c2.5 0 2.7 0 3.6.1V116c-1 .1-1.4.2-3.6.2H53c-2.2 0-2.6 0-3.6-.2v3.1zm38.7-8.9c-.6.2-1 .2-1.9.3-5.4 0-5.4 0-5.7.1.1-.2.3-.5.5-1.1.4-.8.4-.8.7-1.2l-2.9-.6c-.2.8-.6 1.9-1.3 3.1-1.3 2.5-3.1 4.5-5.5 6.3 1.1.7 1.5.9 2.2 1.8 2.2-1.9 3.8-3.7 5.1-5.9l6.8-.1c-.7 2.1-1.4 3.6-2.5 5.2-1.7-1.3-2.6-1.9-4.4-2.9l-1.7 2c1.7.9 3 1.8 4.5 3.1-1.1 1.3-2 2-3.6 3.1-1.3.9-2.4 1.4-4.3 2.2.8.7 1.1 1.1 1.8 2.3 4.7-2.2 7.8-4.8 10-8.4.9-1.5 2.1-4 2.8-6.1.4-1 .4-1.1.7-1.5l-1.3-1.7zm17.3 1.7c1 .1 1.5.3 2.2.7 1.8 1.1 2.7 2.8 2.7 4.9 0 2.4-1.1 4.4-3.1 5.5-1 .6-2.4.9-4.4 1.2.7.9 1 1.4 1.3 2.6 1.5-.3 2.4-.5 3.5-.9 3.4-1.4 5.3-4.4 5.3-8.2 0-4.9-3.4-8.2-8.7-8.2-3.1 0-5.7 1.1-7.6 3.1-1.6 1.7-2.4 4-2.4 6.4 0 3.5 1.8 6.1 4.3 6.1 1.8 0 3.2-1.3 4.5-4.1 1.2-2.6 2-5.6 2.4-9.1zm-2.6 0c-.3 2.5-1 5.5-1.8 7.4-.8 1.9-1.5 2.8-2.3 2.8-1 0-1.7-1.4-1.7-3.2 0-2.4 1.1-4.6 3-5.9.8-.6 1.6-.9 2.8-1.1zm22.4 9v3.6c0 1.3 0 1.9-.1 2.6h2.6c-.1-.6-.1-1.3-.1-2.6v-3.6h5.3v3.8c0 .5-.2.5-1.1.5-.7 0-1.7-.1-2.8-.2.4.9.5 1.5.6 2.3.7 0 1.8.1 2.5.1 2.5 0 3.2-.5 3.2-2.3v-14.5c0-1.2 0-1.7.1-2.5-.7.1-1.3.1-2.5.1h-12.3c-1.2 0-1.8 0-2.5-.1.1.9.1 1.6.1 3.2 0 2.6-.1 5.7-.2 7.6-.1 1.2-.2 2.3-.4 3.4-.3 1.4-.8 2.6-1.6 3.7.9.6 1.2.9 2.1 1.7 1.3-2 1.9-4 2.2-7h4.9zm0-2.2h-4.9v-3h4.9v3zm2.4 0v-3h5.3v3h-5.3zm-2.4-5.2h-4.8v-2.9h4.8v2.9zm2.4 0v-2.9h5.3v2.9h-5.3zm19.6-4.6h-4.8c-1.1 0-1.7 0-2.3-.1v2.1c.7-.1 1.1-.1 2.3-.1h1.2c.3.6.4.8.6 1.3h-2.8c-1.3 0-2 0-2.6-.1v2.1c.7-.1 1.3-.1 2.5-.1H156c1.3 0 1.9 0 2.5.1V112c-.6.1-1.2.1-2.5.1h-3c.3-.5.4-.8.6-1.3h1.2c1.2 0 1.7 0 2.4.1v-2.1c-.6.1-1.3.1-2.3.1h-5.2v-.2c0-.5 0-.9.1-1.4h-2.7c.1.5.1.9.1 1.4v.2zm-.7 3.2c-.2-.6-.4-.9-.6-1.3h5.2c-.2.5-.4.8-.6 1.3h-4zm1.6 9.7-1.1.8c1.4 1.2 1.5 1.2 2.5 2.4l1.8-1.4c-1.2-1-1.5-1.3-2.2-1.7H156c-.1-.6-.1-1.1-.1-1.8v-3.3c0-.9 0-1.5.1-2-.6 0-1.1.1-2.4.1h-10.2c-1.2 0-1.8 0-2.4-.1.1.6.1 1.1.1 2v3.5c0 .8 0 1.2-.1 1.7.6 0 1.2-.1 2.2-.1h4.9zm-4.6-5.2h10.3v.9h-10.3v-.9zm0 2.6h10.3v.9h-10.3v-.9zm-3.1 8.3c1.3-1.6 1.8-2.6 2.5-4.4l-2.1-.9c-.6 1.6-1.1 2.4-2.4 3.9l2 1.4zm5.7-3.4c0-.8 0-1.1.1-1.6h-2.5c.1.4.1.9.1 1.6v1.9c0 1.3.7 1.5 4.6 1.5 3.8 0 4.7-.1 5.3-.8.4-.4.6-1.1.6-2.8-1-.1-1.5-.3-2.3-.6 0 1-.1 1.5-.2 1.8-.2.3-.9.4-3.5.4-.7 0-1.6-.1-1.9-.1-.3-.1-.4-.2-.4-.4v-.9zm12.7 1.8c-.9-1.4-1.7-2.4-3.1-3.8l-1.9 1.1c1.3 1.5 1.9 2.3 3 4.1l2-1.4z"/><path class="st1" d="M23.2 315h-.8c-.7 0-1.1 0-1.6-.1v1.3c.5-.1.9-.1 1.6-.1h.8v2.7h-.4c-.7 0-1.1 0-1.6-.1v1.3c.4-.1.9-.1 1.5-.1h10.6c.7 0 1.1 0 1.5.1v-1.3c-.4.1-.8.1-1.5.1h-.5v-2.7h.8c.7 0 1.1 0 1.6.1v-1.3c-.4.1-.8.1-1.6.1h-.8v-2.7c.9 0 1.1 0 1.7.1v-1.3c-.5.1-1 .1-2 .1h-8.1c.2-.4.4-.6.7-1.1.3-.4.3-.4.4-.6l-1.3-.3c0 .3-.2.5-.3.8-.7 1.3-1.5 2.3-3.1 3.4.4.3.7.5.9.8.8-.7 1.1-1 1.6-1.6v2.4zm1.2-2.7h1.7v2.7h-1.7v-2.7zm0 3.8h1.7v2.7h-1.7v-2.7zm2.7 2.7v-2.7h1.7v2.7h-1.7zm0-3.8v-2.7h1.7v2.7h-1.7zm2.8 3.8v-2.7h1.8v2.7h-1.8zm0-3.8v-2.7h1.8v2.7h-1.8zm5.1 8.3c-.6-1.2-1.1-1.9-2-3l-1 .5c.9 1.2 1.4 1.9 1.9 3.2l1.1-.7zm-4.4.4c-.4-1.6-.5-2.1-1-3.2l-1.1.3c.4 1.2.6 1.9.8 3.3l1.3-.4zm-3.7.2c-.1-1.3-.2-2-.5-3.4l-1.1.2c.2 1.1.3 2.2.3 3.4l1.3-.2zm-4.9.2c1-1 1.4-1.8 2.1-3.3l-1-.5c-.5 1.4-1 2.1-2 3l.9.8zm26.5-5.2-4.2 1c-.6.1-1.1.2-1.6.3l.3 1.3c.4-.1.8-.3 1.5-.4l4-.9v2.3c0 .9 0 1.3-.1 1.8h1.4c-.1-.4-.1-1-.1-1.8v-2.6l.3-.1c.6-.1 1.1-.2 1.5-.3l-.2-1.3c-.4.2-.8.3-1.5.4h-.1v-7.2c0-.8 0-1.2.1-1.7h-1.4c.1.4.1.9.1 1.7v7.5zm-8.9-2.7c-.4 1-.5 1.3-.9 2-.6 1.1-1.1 1.8-1.9 2.6.3.3.4.6.7 1.1 1-1.2 1.7-2.3 2.4-4.4 0 .8-.1 1.6-.1 2.4v2.5c0 .7 0 1.2-.1 1.8H41c-.1-.5-.1-1-.1-1.7v-2.9c0-.4-.1-1.6-.1-2.2.5 1 .9 1.6 1.8 2.6.1-.3.4-.7.6-1.1-.9-.8-1.5-1.5-2.2-2.8h.8c.5 0 .9 0 1.2.1V315c-.3 0-.6.1-1.2.1H41v-3.8c0-.8 0-1.2.1-1.7h-1.3c.1.4.1.9.1 1.7v3.8h-1.2c-.7 0-1.1 0-1.4-.1v1.2c.4-.1.7-.1 1.4-.1h.9zm-2.4-5.1c.5 1 .8 2 1 3.4l1-.4c-.3-1.3-.5-2.1-1-3.4l-1 .4zm5.3-.5c-.3 1.6-.6 2.3-1.2 3.5l.9.4c.6-1.2.8-1.6 1.3-3.5l-1-.4zm1.5 1.1c1.3.9 1.8 1.3 2.9 2.5l.8-1c-.9-1-1.5-1.5-2.9-2.5l-.8 1zm-.4 4c1.2.8 1.9 1.3 2.9 2.5l.8-.9c-.8-.9-1.5-1.5-2.8-2.4l-.9.8zm21 .5c.8 0 1.5 0 2 .1v-1.4c-.6.1-1 .1-2 .1h-9.2c-.9 0-1.4 0-2-.1v1.4c.6-.1 1-.1 2-.1h4.2c0 1.2-.3 2.4-.7 3.2-.7 1.4-1.9 2.4-4 3 .5.5.6.7.9 1.2 1.3-.5 2.1-1 2.8-1.6 1.2-1 1.9-2.3 2.2-4 .1-.7.2-1.3.2-1.8h3.6zm-9.6-3.9c.5-.1 1-.1 2-.1h6.1c.8 0 1.5 0 2 .1v-1.4c-.5.1-.9.1-2 .1h-6c-1 0-1.4 0-2-.1v1.4zm15.3.3c1.4.8 2.7 1.9 3.9 3.2l1-1.2c-1.2-1.1-2.2-1.9-3.9-3l-1 1zm.3 10.4c.4-.1.5-.1 1-.3 2.6-.6 4.4-1.3 6-2.4 2.1-1.5 3.6-3.3 4.9-6.2-.6-.4-.7-.5-1.2-1.1-1.3 3.4-3.4 5.8-6.5 7.1-1.5.7-3.4 1.2-4.7 1.2l.5 1.7zM88 311.7c-1 0-1.4 0-2-.1v1.5c.6-.1 1-.1 2-.1h7.9c-.9 3.4-2.4 5.7-5 7.4-1.2.8-2.1 1.2-3.6 1.7.5.5.7.7 1 1.3 1.3-.5 2.1-.9 3-1.5 1.6-1 3-2.3 3.9-3.7.9-1.3 1.6-3 2.2-5.1h.3c.9 0 1.7-.8 1.7-1.7 0-.9-.8-1.7-1.7-1.7-.9 0-1.7.8-1.7 1.7v.2h-8zm9.7-1.1c.5 0 1 .4 1 1s-.4 1-1 1c-.5 0-1-.4-1-1 .1-.6.5-1 1-1zm5.8 0c.1.5.1.5.1 1.7v8.8c0 .7 0 .9-.1 1.2l.8.9c.2-.1.4-.1.9-.2 4.3-.8 6.8-2.4 9-5.7-.5-.4-.6-.6-1.1-1.2-.9 1.7-1.9 2.8-3.5 3.8-1.3.8-2.7 1.3-4.5 1.6l.1-9.3c0-.9 0-1.2.1-1.6h-1.8zm13.8 7.1c.6-.1 1-.1 2.2-.1h9c1.1 0 1.6 0 2.2.1v-1.6c-.6.1-.9.1-2.2.1h-9c-1.1 0-1.7 0-2.2-.1v1.6zm20.9 5.9c-.1-.5-.1-1-.1-1.9v-4.2c0-.6 0-.9-.1-1.3.2.1.3.2.5.3 2.3 1 4.5 2.1 5.9 3.1l.8-1.4c-2.7-1.6-4.9-2.6-7.2-3.4V312c0-.9 0-1.3.1-1.8h-1.6c.1.4.1.8.1 1.8v9.7c0 .9 0 1.3-.1 1.9h1.7zm23.3-7.2c-.5-1-.8-1.5-1.5-2.2l-.9.4c.6.7.9 1.3 1.4 2.2l1-.4zm1.6-.8c-.5-.9-.8-1.5-1.4-2.1l-.9.4c.6.7 1 1.3 1.4 2.2l.9-.5zm-13.7-1.9c.8-.2 2.2-.3 5.3-.5 1.7-.1 2.5-.2 3.5-.4-2.7 1.2-4.3 3.3-4.3 5.6 0 1.4.7 2.7 1.9 3.5.9.6 1.9.9 3.5 1.2.3 0 .3 0 .5.1l.2-1.6c-.8 0-1.6-.1-2.4-.4-1.6-.5-2.4-1.5-2.4-2.9 0-1.5.9-3 2.5-4.1 1.3-.9 2.8-1.4 4.1-1.4h.2l-.1-1.4c-.3.1-.9.1-1.9.2-2.6.1-7 .4-9.3.5h-1.5l.2 1.6zm-93.9 27.5c.6-.1 1-.1 1.8-.1h5.2c.9 0 1.3 0 1.8.1v-1.4c-.6.1-.9.1-1.8.1h-5.2c-1 0-1.3 0-1.8-.1v1.4zm-1.4 3.8c.5-.1 1-.1 2-.1h8.1c-.7 1.9-1.4 3-2.6 4.1-1.2 1.1-2.6 1.8-4.6 2.3.5.6.6.8.8 1.3 1.8-.6 2.8-1.1 3.9-1.9 1.8-1.3 3-3 3.9-5.4.2-.6.3-.8.4-1l-.7-.8c-.3.1-.6.1-1.3.1h-7.9c-1 0-1.4 0-2-.1v1.5zm20.6-6.1c-.1.6-.4 1.2-1 2.3-1.1 2-2.3 3.3-4 4.5.6.3.7.5 1.1 1 1.5-1.2 2.8-2.5 3.8-4.1l5.2-.1c-.6 2-1.5 3.8-2.7 5.2-1.5 1.8-3.2 3-5.6 3.9.5.4.7.6 1 1.2 2.4-1.1 4.1-2.3 5.6-4 1.4-1.6 2.5-3.7 3.2-6.1.2-.6.2-.6.4-.8l-.8-.8c-.3.1-.4.1-.9.1s-1.8 0-4.1.1H75.3c.2-.3.3-.6.7-1.4.2-.4.2-.4.4-.6l-1.7-.4zm12.8 2.3c.6-.1 1-.1 1.8-.1h5.2c.9 0 1.3 0 1.8.1v-1.4c-.6.1-.9.1-1.8.1h-5.2c-1 0-1.3 0-1.8-.1v1.4zm-1.4 3.8c.5-.1 1-.1 2-.1h8.1c-.7 1.9-1.4 3-2.6 4.1-1.2 1.1-2.6 1.8-4.6 2.3.5.6.6.8.8 1.3 1.8-.6 2.8-1.1 3.9-1.9 1.8-1.3 3-3 3.9-5.4.2-.6.3-.8.4-1l-.7-.8c-.3.1-.6.1-1.3.1h-7.9c-1 0-1.4 0-2-.1v1.5zm20.6-6.1c-.1.6-.4 1.2-1 2.3-1.1 2-2.3 3.3-4 4.5.6.3.7.5 1.1 1 1.5-1.2 2.8-2.5 3.8-4.1l5.2-.1c-.6 2-1.5 3.8-2.7 5.2-1.5 1.8-3.2 3-5.6 3.9.5.4.7.6 1 1.2 2.4-1.1 4.1-2.3 5.6-4 1.4-1.6 2.5-3.7 3.2-6.1.2-.6.2-.6.4-.8l-.8-.8c-.3.1-.4.1-.9.1s-1.8 0-4.1.1H107.3c.2-.3.3-.6.7-1.4.2-.4.2-.4.4-.6l-1.7-.4zm18 10V347.2l.2-5.6c0-.7 0-1.2.1-1.8h-1.9c.1.6.1 1.1.1 1.8l.2 5.6V348.9h1.3zm.2 3.2v-1.7h-1.8v1.7h1.8z"/><path class="st3" d="M79.4 20c0-.4-.2-.8-.5-1-.3-.2-.9-.5-1.7-.8-.8-.3-1.5-.5-1.9-.8-1.3-.7-1.9-1.6-1.9-2.8 0-.6.2-1.2.5-1.6.3-.5.8-.9 1.5-1.1.7-.3 1.4-.4 2.2-.4.8 0 1.5.1 2.2.4.6.3 1.1.7 1.5 1.2.4.5.5 1.1.5 1.8h-2.3c0-.5-.2-.9-.5-1.2-.3-.3-.8-.4-1.4-.4-.6 0-1 .1-1.3.4-.3.2-.5.6-.5 1s.2.7.6.9c.4.2.9.5 1.6.7 1.3.4 2.3.9 2.9 1.5.6.6.9 1.3.9 2.2 0 1-.4 1.8-1.1 2.3-.7.6-1.7.8-3 .8-.9 0-1.7-.2-2.4-.5s-1.3-.8-1.6-1.3c-.4-.6-.6-1.2-.6-1.9h2.4c0 1.3.8 1.9 2.2 1.9.6 0 1-.1 1.3-.3.2-.3.4-.6.4-1zm12.5-6.5h-3.5V23h-2.3v-9.5h-3.4v-1.9H92v1.9zm8.2 4.6h-4.5v3h5.3V23h-7.6V11.6h7.6v1.9h-5.3v2.7h4.5v1.9zm4.5.9v4h-2.3V11.6h4.4c.9 0 1.6.2 2.2.5.7.3 1.2.8 1.5 1.3.3.6.5 1.2.5 2 0 1.1-.4 2-1.1 2.6-.8.6-1.8 1-3.2 1h-2zm0-1.9h2.1c.6 0 1.1-.1 1.4-.4.3-.3.5-.7.5-1.2 0-.6-.2-1-.5-1.4-.3-.3-.8-.5-1.4-.5h-2.1v3.5zM90.3 44.4c0 3.5-.7 6.2-2.2 8.1-1.5 1.9-3.6 2.8-6.4 2.8-2.8 0-4.9-.9-6.4-2.8-1.5-1.8-2.2-4.5-2.3-7.9V40c0-3.6.7-6.3 2.2-8.1 1.5-1.9 3.6-2.8 6.4-2.8s4.9.9 6.4 2.8c1.5 1.8 2.2 4.5 2.3 7.9v4.6zm-5.1-5.2c0-2.1-.3-3.7-.9-4.6-.6-1-1.5-1.5-2.7-1.5-1.2 0-2.1.5-2.7 1.4-.6.9-.9 2.3-.9 4.3V45c0 2.1.3 3.6.8 4.7.6 1 1.5 1.5 2.7 1.5 1.2 0 2.1-.5 2.7-1.5.6-1 .8-2.5.9-4.5v-6zM106.1 55H101V35.4l-6.1 1.9v-4.1l10.6-3.8h.5V55z"/></svg>