<svg version="1.1" id="レイヤー_1" xmlns="http://www.w3.org/2000/svg" x="0" y="0" viewBox="0 0 690 990" style="enable-background:new 0 0 690 990" xml:space="preserve"><style>.st0{fill:#e7f3f9}.st1{fill:none;stroke:#333}.st2{opacity:.9;fill:#e7f3f9;enable-background:new}.st3{fill:#00a0e8}.st4{fill:none;stroke:#fff;stroke-width:1.2}.st5{fill:#333}.st6{fill:#fff}</style><path class="st0" d="M60 0h630v198H60z"/><path class="st1" d="M321 197.5h365"/><path class="st0" d="M60 198h630v198H60z"/><path class="st2" d="M60 396h630v198H60z"/><path class="st1" d="M321 395.5h365M321 593.5h365"/><path class="st2" d="M60 594h630v198H60z"/><path class="st1" d="M321 791.5h365"/><path class="st2" d="M60 792h630v198H60z"/><path class="st3" d="M32 0h283c1.1 0 2 .9 2 2v986c0 1.1-.9 2-2 2H32c-1.1 0-2-.9-2-2V2c0-1.1.9-2 2-2z"/><path class="st4" d="m277 180-103.5 38L70 180M277 377l-103.5 38L70 377M277 574l-103.5 38L70 574M277 771l-103.5 38L70 771"/><path class="st5" d="M346.4 140c-3 0-5.4-2.4-5.4-5.4v-54c0-.3.3-.6.3-.6L361 60.3c.1-.1.4-.3.6-.3h35.8c3 0 5.4 2.4 5.4 5.4v13.2l-1.8 1.8v-15c0-2-1.6-3.6-3.6-3.6h-34.9v18.8c0 .5-.4.9-.9.9h-18.8v53.1c0 2 1.6 3.6 3.6 3.6h51c2 0 3.6-1.6 3.6-3.6v-21.1l1.8-1.8v22.9c0 3-2.4 5.4-5.4 5.4h-51zm-2.3-60.3h16.7V63.1l-16.7 16.6z"/><path class="st5" d="M368.6 129.1h-.1c-.5-.1-.8-.5-.7-1l3.1-19.5c.1-.3.2-.6.5-.7l9.9-4.2s4.6-4.6 4.7-4.6l25-22.6c.1-.1.1-.1.2-.1l9.4-8.5c1.1-1 2.6-1.6 4-1.6s2.7.5 3.7 1.5l1 1c2 2 2 5.4-.1 7.7l-8.5 9.4c-.1.1-.1.1-.1.2 0 0-22.6 25-22.7 25.1l-4.6 4.6-4.2 9.9c-.1.3-.4.5-.7.5l-19.5 3.1c-.2-.2-.2-.2-.3-.2zm2.6-2.2 16.3-2.6 4-9.5-9.5-9.5-9.5 4-2.6 16.3 8.1-8.1-.1-.2c-.2-.7 0-1.4.5-1.9.4-.4.9-.6 1.5-.6.5 0 1.1.2 1.5.6.4.4.6.9.6 1.5 0 .5-.2 1.1-.6 1.5-.4.4-.9.6-1.5.6-.2 0-.3 0-.5-.1l-.2-.1-8 8.1zm12.1-22.7 9.3 9.3 3.2-3.2-9.3-9.3-3.2 3.2zm4.5-4.4 9.3 9.3 21.8-24-.1-.3c-1.3-2.8-3.8-5.3-6.6-6.6l-.3-.1-24.1 21.7zm36.8-31.9c-1 0-2 .4-2.8 1.1l-8.5 7.7.5.3c2.5 1.4 4.7 3.5 6 6l.3.5 7.7-8.5c1.4-1.6 1.5-3.9.2-5.2l-1-1c-.7-.6-1.5-.9-2.4-.9z"/><circle class="st3" cx="70" cy="98" r="70"/><circle class="st3" cx="70" cy="298" r="70"/><circle class="st3" cx="70" cy="492" r="70"/><circle class="st3" cx="70" cy="694" r="70"/><circle class="st3" cx="70" cy="891" r="70"/><path class="st5" d="M448.9 76h-1.2c-1.1 0-1.7 0-2.4-.1v2c.7-.1 1.3-.1 2.4-.1h1.2v4h-.6c-1 0-1.7 0-2.3-.1v1.9c.7-.1 1.3-.1 2.2-.1H464c1 0 1.6 0 2.3.1v-1.9c-.6.1-1.2.1-2.3.1h-.7v-4h1.2c1 0 1.6 0 2.3.1v-2c-.7.1-1.3.1-2.3.1h-1.2v-4c1.3 0 1.7 0 2.6.1v-1.9c-.7.1-1.5.1-3 .1h-12.1c.4-.5.6-1 1-1.6.4-.7.4-.7.6-.9l-2-.4c-.1.4-.2.8-.5 1.2-1 2-2.3 3.4-4.6 5.2.6.4 1 .7 1.3 1.2 1.2-1 1.7-1.5 2.4-2.4V76zm1.6-4h2.6v4h-2.6v-4zm0 5.6h2.6v4h-2.6v-4zm4.2 4v-4h2.6v4h-2.6zm0-5.6v-4h2.6v4h-2.6zm4.2 5.6v-4h2.7v4h-2.7zm0-5.6v-4h2.7v4h-2.7zm7.6 12.5c-.9-1.8-1.7-2.9-3.1-4.6l-1.5.8c1.4 1.8 2 2.8 2.9 4.8l1.7-1zm-6.6.5c-.5-2.4-.7-3.1-1.4-4.8l-1.6.4c.6 1.8.9 2.9 1.2 4.9l1.8-.5zm-5.5.3c-.1-2-.3-3.1-.7-5l-1.6.2c.3 1.6.5 3.3.5 5l1.8-.2zm-7.4.3c1.4-1.6 2.1-2.7 3.1-4.9l-1.5-.8c-.8 2-1.5 3.1-3 4.5l1.4 1.2zm39.7-7.7-6.3 1.5c-.9.2-1.7.4-2.3.4l.4 2c.6-.2 1.3-.4 2.3-.6l6-1.4v3.4c0 1.4 0 2-.1 2.7h2.1c-.1-.7-.1-1.5-.1-2.7v-3.9l.5-.1c.9-.2 1.7-.4 2.3-.4l-.4-2c-.6.2-1.1.4-2.2.7h-.2V70.6c0-1.2 0-1.8.1-2.6h-2.1c.1.7.1 1.3.1 2.6v11.3zm-13.3-4.1c-.5 1.5-.7 2-1.3 3.1-.9 1.6-1.6 2.7-2.8 3.9.4.5.6.8 1 1.7 1.6-1.8 2.5-3.5 3.6-6.5-.1 1.2-.1 2.4-.1 3.6v3.8c0 1.1 0 1.8-.1 2.6h2c-.1-.8-.1-1.4-.1-2.6V83c0-.6-.1-2.4-.1-3.3.7 1.4 1.3 2.4 2.7 3.9.2-.5.6-1.1.9-1.6-1.4-1.2-2.3-2.3-3.3-4.1h1.2c.8 0 1.3 0 1.8.1v-1.8c-.5.1-1 .1-1.8.1h-1.3v-5.7c0-1.2 0-1.9.1-2.5h-2c.1.6.1 1.3.1 2.5v5.7h-1.8c-1.1 0-1.6 0-2.1-.1V78c.6-.1 1.1-.1 2.1-.1h1.3zm-3.6-7.7c.7 1.6 1.1 2.9 1.6 5.1l1.5-.6c-.4-2-.8-3.1-1.6-5.2l-1.5.7zm7.9-.7c-.5 2.4-.9 3.5-1.7 5.2l1.3.6c.9-1.9 1.1-2.5 1.9-5.2l-1.5-.6zm2.4 1.6c2 1.4 2.7 2 4.3 3.8l1.2-1.4c-1.4-1.5-2.2-2.2-4.3-3.7l-1.2 1.3zm-.8 6c1.8 1.2 2.8 2 4.3 3.7l1.2-1.4c-1.2-1.4-2.3-2.3-4.3-3.6l-1.2 1.3zm31.6.8c1.3 0 2.2 0 3 .1v-2.2c-.8.1-1.6.2-3 .2h-13.8c-1.4 0-2.1 0-3-.2V78c.9-.1 1.5-.1 2.9-.1h6.2c-.1 1.9-.4 3.6-1 4.8-1 2.1-2.9 3.6-6 4.5.7.7.9 1 1.4 1.9 2-.8 3.1-1.5 4.2-2.4 1.8-1.5 2.8-3.4 3.2-6.1.2-1.1.3-2 .3-2.8h5.6zM496.5 72c.7-.1 1.5-.1 2.9-.1h9.1c1.3 0 2.3 0 3 .1v-2.2c-.8.1-1.4.2-3 .2h-9.1c-1.6 0-2.1 0-3-.2V72zm23 .4c2.1 1.3 4.1 2.8 5.9 4.8l1.5-1.8c-1.8-1.7-3.2-2.9-5.9-4.6l-1.5 1.6zm.4 15.7c.5-.2.7-.2 1.5-.4 3.9-.9 6.6-1.9 9-3.6 3.2-2.2 5.4-5 7.4-9.2-.8-.6-1.1-.8-1.8-1.7-2 5.2-5.1 8.6-9.7 10.7-2.2 1-5.1 1.7-7 1.8l.6 2.4zm26.1-17c-1.5 0-2 0-3-.2v2.3c.8-.1 1.5-.1 2.9-.1h11.9c-1.3 5.2-3.6 8.6-7.5 11.2-1.8 1.2-3.2 1.8-5.4 2.5.8.7 1 1.1 1.4 2 2-.8 3.1-1.3 4.5-2.2 2.4-1.5 4.5-3.5 5.9-5.6 1.4-2 2.5-4.5 3.3-7.7h.5c1.4 0 2.5-1.1 2.5-2.5s-1.1-2.5-2.5-2.5-2.5 1.1-2.5 2.5v.3h-12zm14.6-1.8c.8 0 1.4.6 1.4 1.4 0 .8-.6 1.4-1.4 1.4-.8 0-1.5-.6-1.5-1.4s.7-1.4 1.5-1.4zm8.7.1c.1.7.1.7.1 2.5v13.3c0 1 0 1.3-.2 1.8l1.1 1.4c.3-.1.6-.2 1.4-.4 6.5-1.3 10.2-3.6 13.5-8.5-.7-.6-.9-.8-1.6-1.8-1.3 2.5-2.9 4.2-5.2 5.7-1.9 1.2-4.1 2-6.8 2.5l.1-14c0-1.3 0-1.9.1-2.5h-2.5zM590 80c.8-.1 1.4-.1 3.3-.1h13.4c1.7 0 2.4 0 3.3.1v-2.4c-.8.1-1.3.1-3.2.1h-13.5c-1.7 0-2.5 0-3.3-.1V80zm31.3 8.8c-.1-.7-.1-1.5-.1-2.8v-6.3c0-1 0-1.4-.1-2 .3.2.4.2.8.4 3.4 1.4 6.7 3.2 8.8 4.7l1.2-2.1c-4.1-2.4-7.3-3.9-10.7-5.1v-4.3c0-1.3 0-2 .1-2.7h-2.4c.1.6.1 1.2.1 2.6v14.6c0 1.4 0 2-.1 2.8h2.4zm35-10.6c-.8-1.4-1.2-2.2-2.2-3.3l-1.3.6c.9 1 1.4 1.9 2.1 3.3l1.4-.6zm2.4-1.2c-.7-1.4-1.3-2.2-2.2-3.2l-1.3.6c.8 1 1.5 2 2.1 3.3l1.4-.7zm-20.5-2.9c1.3-.3 3.2-.5 7.9-.8 2.6-.2 3.7-.3 5.3-.5-4.1 1.8-6.4 4.9-6.4 8.4 0 2.2 1 4 2.9 5.2 1.4.9 2.8 1.4 5.3 1.8.4 0 .5.1.8.1l.3-2.3c-1.2 0-2.4-.2-3.6-.6-2.4-.8-3.6-2.2-3.6-4.3 0-2.3 1.4-4.4 3.8-6.1 1.9-1.3 4.2-2.1 6.1-2.1h.3l-.2-2.1c-.4.1-1.3.2-2.8.2-4 .2-10.5.6-13.9.8-.7 0-1.1.1-1.4.1h-.9l.1 2.2zm-189 40.7c.8-.1 1.5-.1 2.7-.1h7.8c1.3 0 1.9 0 2.7.1v-2.2c-.9.1-1.4.2-2.8.2H452c-1.5 0-1.9 0-2.8-.2v2.2zm-2 5.6c.8-.1 1.4-.1 3-.1h12.1c-1.1 2.9-2.1 4.6-3.9 6.1-1.8 1.7-3.9 2.7-7 3.5.7.8.9 1.1 1.3 2 2.6-.9 4.2-1.7 5.9-2.9 2.6-1.9 4.5-4.5 5.8-8 .3-.9.4-1.2.7-1.5l-1-1.2c-.5.2-.8.2-1.9.2h-11.9c-1.5 0-2.1 0-3-.2v2.1zm30.8-9c-.1.8-.6 1.9-1.4 3.4-1.7 3-3.5 5-6.1 6.7.8.5 1.1.7 1.6 1.5 2.3-1.8 4.2-3.8 5.7-6.2l7.8-.1c-.9 3-2.3 5.7-4.1 7.8-2.3 2.7-4.8 4.4-8.4 5.9.7.6 1 .9 1.4 1.8 3.6-1.6 6.2-3.5 8.4-6 2.1-2.4 3.8-5.6 4.8-9.1.3-.9.3-.9.5-1.2l-1.2-1.2c-.4.1-.5.2-1.4.2-.7 0-2.8 0-6.1.1h-.3c-.4 0-.4 0-.6.1.3-.5.5-.9 1.1-2.1.3-.6.3-.6.5-.9l-2.2-.7zm19.2 3.4c.8-.1 1.5-.1 2.7-.1h7.8c1.3 0 1.9 0 2.7.1v-2.2c-.9.1-1.4.2-2.8.2H500c-1.5 0-1.9 0-2.8-.2v2.2zm-2 5.6c.8-.1 1.4-.1 3-.1h12.1c-1.1 2.9-2.1 4.6-3.9 6.1-1.8 1.7-3.9 2.7-7 3.5.7.8.9 1.1 1.3 2 2.6-.9 4.2-1.7 5.9-2.9 2.6-1.9 4.5-4.5 5.8-8 .3-.9.4-1.2.7-1.5l-1-1.2c-.5.2-.8.2-1.9.2h-11.9c-1.5 0-2.1 0-3-.2v2.1zm30.8-9c-.1.8-.6 1.9-1.4 3.4-1.7 3-3.5 5-6.1 6.7.8.5 1.1.7 1.6 1.5 2.3-1.8 4.2-3.8 5.7-6.2l7.8-.1c-.9 3-2.3 5.7-4.1 7.8-2.3 2.7-4.8 4.4-8.4 5.9.7.6 1 .9 1.4 1.8 3.6-1.6 6.2-3.5 8.4-6 2.1-2.4 3.8-5.6 4.8-9.1.3-.9.3-.9.5-1.2l-1.2-1.2c-.4.1-.5.2-1.4.2-.7 0-2.8 0-6.1.1h-.3c-.4 0-.4 0-.6.1.3-.5.5-.9 1.1-2.1.3-.6.3-.6.5-.9l-2.2-.7zm27 15c0-.5-.1-1.1-.1-1.3v-1.3l.2-8.4c0-1 .1-1.8.2-2.7h-2.8c.1.9.1 1.7.2 2.7l.2 8.4V126.4h2.1zm.3 4.7v-2.5h-2.6v2.5h2.6z"/><path class="st6" d="M51.1 77.5c0-.7-.2-1.2-.7-1.5-.5-.4-1.3-.7-2.5-1.1-1.2-.4-2.2-.8-2.9-1.2-1.9-1-2.9-2.5-2.9-4.2 0-.9.3-1.7.8-2.5.5-.7 1.3-1.3 2.2-1.7 1-.4 2.1-.6 3.3-.6 1.2 0 2.3.2 3.3.7 1 .4 1.7 1.1 2.2 1.9.5.8.8 1.7.8 2.7h-3.5c0-.8-.2-1.4-.7-1.8-.5-.4-1.2-.7-2.1-.7-.9 0-1.5.2-2 .6-.5.4-.7.8-.7 1.4 0 .6.3 1 .8 1.4.6.4 1.4.7 2.5 1.1 2 .6 3.5 1.3 4.4 2.2.9.9 1.4 2 1.4 3.3 0 1.5-.6 2.6-1.7 3.5-1.1.8-2.6 1.3-4.5 1.3-1.3 0-2.5-.2-3.6-.7-1.1-.5-1.9-1.1-2.5-2-.6-.8-.8-1.8-.8-2.9H45c0 1.9 1.1 2.8 3.4 2.8.8 0 1.5-.2 2-.5.4-.4.7-.9.7-1.5zm18.7-9.7h-5.2V82h-3.5V67.8h-5.2V65h13.9v2.8zm12.3 6.8h-6.8v4.6h7.9V82H71.8V64.9h11.4v2.8h-7.9v4.1h6.8v2.8zm6.8 1.4v6h-3.5V64.9H92c1.3 0 2.4.2 3.4.7 1 .5 1.7 1.1 2.2 2 .5.9.8 1.8.8 2.9 0 1.7-.6 3-1.7 4S94 75.9 92 75.9h-3.1zm0-2.9H92c.9 0 1.6-.2 2.1-.7.5-.4.7-1.1.7-1.9 0-.8-.2-1.5-.7-2-.5-.5-1.2-.8-2-.8h-3.2v5.4zm-21.4 40.6c0 5.1-1.1 9-3.2 11.7-2.1 2.7-5.2 4.1-9.3 4.1-4 0-7.1-1.3-9.2-4-2.1-2.7-3.2-6.5-3.3-11.4v-6.8c0-5.2 1.1-9.1 3.2-11.8 2.1-2.7 5.2-4 9.3-4 4 0 7.1 1.3 9.2 4 2.1 2.6 3.2 6.4 3.3 11.4v6.8zm-7.3-7.5c0-3.1-.4-5.3-1.3-6.7-.8-1.4-2.1-2.1-3.9-2.1-1.7 0-3 .7-3.8 2-.8 1.3-1.2 3.4-1.3 6.2v9c0 3 .4 5.3 1.2 6.7.8 1.5 2.1 2.2 4 2.2 1.8 0 3.1-.7 3.9-2.1s1.2-3.6 1.2-6.4v-8.8zM90.3 129H83v-28.3l-8.8 2.7v-6L89.6 92h.8v37zM51.1 277.5c0-.7-.2-1.2-.7-1.5-.5-.4-1.3-.7-2.5-1.1-1.2-.4-2.2-.8-2.9-1.2-1.9-1-2.9-2.5-2.9-4.2 0-.9.3-1.7.8-2.5.5-.7 1.3-1.3 2.2-1.7 1-.4 2.1-.6 3.3-.6 1.2 0 2.3.2 3.3.7 1 .4 1.7 1.1 2.2 1.9.5.8.8 1.7.8 2.7h-3.5c0-.8-.2-1.4-.7-1.8-.5-.4-1.2-.7-2.1-.7-.9 0-1.5.2-2 .6-.5.4-.7.8-.7 1.4 0 .6.3 1 .8 1.4.6.4 1.4.7 2.5 1.1 2 .6 3.5 1.3 4.4 2.2.9.9 1.4 2 1.4 3.3 0 1.5-.6 2.6-1.7 3.5-1.1.8-2.6 1.3-4.5 1.3-1.3 0-2.5-.2-3.6-.7-1.1-.5-1.9-1.1-2.5-2-.6-.8-.8-1.8-.8-2.9H45c0 1.9 1.1 2.8 3.4 2.8.8 0 1.5-.2 2-.5.4-.4.7-.9.7-1.5zm18.7-9.7h-5.2V282h-3.5v-14.2h-5.2V265h13.9v2.8zm12.3 6.8h-6.8v4.6h7.9v2.8H71.8v-17.1h11.4v2.8h-7.9v4.1h6.8v2.8zm6.8 1.4v6h-3.5v-17.1H92c1.3 0 2.4.2 3.4.7 1 .5 1.7 1.1 2.2 2 .5.9.8 1.8.8 2.9 0 1.7-.6 3-1.7 4s-2.7 1.4-4.7 1.4h-3.1zm0-2.9H92c.9 0 1.6-.2 2.1-.7.5-.4.7-1.1.7-1.9 0-.8-.2-1.5-.7-2-.5-.5-1.2-.8-2-.8h-3.2v5.4zm-21.4 40.6c0 5.1-1.1 9-3.2 11.7-2.1 2.7-5.2 4.1-9.3 4.1-4 0-7.1-1.3-9.2-4-2.1-2.7-3.2-6.5-3.3-11.4v-6.8c0-5.2 1.1-9.1 3.2-11.8 2.1-2.7 5.2-4 9.3-4 4 0 7.1 1.3 9.2 4 2.1 2.6 3.2 6.4 3.3 11.4v6.8zm-7.3-7.5c0-3.1-.4-5.3-1.3-6.7-.8-1.4-2.1-2.1-3.9-2.1-1.7 0-3 .7-3.8 2-.8 1.3-1.2 3.4-1.3 6.2v9c0 3 .4 5.3 1.2 6.7.8 1.5 2.1 2.2 4 2.2 1.8 0 3.1-.7 3.9-2.1s1.2-3.6 1.2-6.4v-8.8zM97.9 329H72.5v-5l12-12.7c1.6-1.8 2.9-3.4 3.6-4.7.8-1.3 1.2-2.6 1.2-3.8 0-1.6-.4-2.9-1.2-3.9-.8-.9-2-1.4-3.6-1.4-1.7 0-3 .6-3.9 1.7-.9 1.1-1.4 2.6-1.4 4.5h-7.4c0-2.3.5-4.3 1.6-6.2 1.1-1.9 2.6-3.3 4.6-4.4 2-1.1 4.2-1.6 6.7-1.6 3.8 0 6.8.9 8.9 2.7 2.1 1.8 3.2 4.4 3.2 7.7 0 1.8-.5 3.7-1.4 5.6-.9 1.9-2.6 4.1-4.9 6.6l-8.4 8.9H98v6zM51.1 471.5c0-.7-.2-1.2-.7-1.5-.5-.4-1.3-.7-2.5-1.1-1.2-.4-2.2-.8-2.9-1.2-1.9-1-2.9-2.5-2.9-4.2 0-.9.3-1.7.8-2.5.5-.7 1.3-1.3 2.2-1.7 1-.4 2.1-.6 3.3-.6 1.2 0 2.3.2 3.3.7 1 .4 1.7 1.1 2.2 1.9.5.8.8 1.7.8 2.7h-3.5c0-.8-.2-1.4-.7-1.8-.5-.4-1.2-.7-2.1-.7-.9 0-1.5.2-2 .6-.5.4-.7.8-.7 1.4 0 .6.3 1 .8 1.4.6.4 1.4.7 2.5 1.1 2 .6 3.5 1.3 4.4 2.2.9.9 1.4 2 1.4 3.3 0 1.5-.6 2.6-1.7 3.5-1.1.8-2.6 1.3-4.5 1.3-1.3 0-2.5-.2-3.6-.7-1.1-.5-1.9-1.1-2.5-2-.6-.8-.8-1.8-.8-2.9H45c0 1.9 1.1 2.8 3.4 2.8.8 0 1.5-.2 2-.5.4-.4.7-.9.7-1.5zm18.7-9.7h-5.2V476h-3.5v-14.2h-5.2V459h13.9v2.8zm12.3 6.8h-6.8v4.6h7.9v2.8H71.8v-17.1h11.4v2.8h-7.9v4.1h6.8v2.8zm6.8 1.4v6h-3.5v-17.1H92c1.3 0 2.4.2 3.4.7 1 .5 1.7 1.1 2.2 2 .5.9.8 1.8.8 2.9 0 1.7-.6 3-1.7 4s-2.7 1.4-4.7 1.4h-3.1zm0-2.9H92c.9 0 1.6-.2 2.1-.7.5-.4.7-1.1.7-1.9 0-.8-.2-1.5-.7-2-.5-.5-1.2-.8-2-.8h-3.2v5.4zm-21.4 40.6c0 5.1-1.1 9-3.2 11.7-2.1 2.7-5.2 4.1-9.3 4.1-4 0-7.1-1.3-9.2-4-2.1-2.7-3.2-6.5-3.3-11.4v-6.8c0-5.2 1.1-9.1 3.2-11.8 2.1-2.7 5.2-4 9.3-4 4 0 7.1 1.3 9.2 4 2.1 2.6 3.2 6.4 3.3 11.4v6.8zm-7.3-7.5c0-3.1-.4-5.3-1.3-6.7-.8-1.4-2.1-2.1-3.9-2.1-1.7 0-3 .7-3.8 2-.8 1.3-1.2 3.4-1.3 6.2v9c0 3 .4 5.3 1.2 6.7.8 1.5 2.1 2.2 4 2.2 1.8 0 3.1-.7 3.9-2.1.8-1.4 1.2-3.6 1.2-6.4v-8.8zm19.8 1.1h3.9c1.9 0 3.2-.5 4.1-1.4.9-.9 1.3-2.2 1.3-3.7s-.4-2.6-1.3-3.5c-.9-.8-2.1-1.2-3.7-1.2-1.4 0-2.6.4-3.5 1.2-.9.8-1.4 1.8-1.4 3h-7.3c0-1.9.5-3.7 1.5-5.2s2.5-2.7 4.4-3.6c1.9-.9 3.9-1.3 6.2-1.3 3.9 0 7 .9 9.2 2.8 2.2 1.9 3.3 4.4 3.3 7.7 0 1.7-.5 3.2-1.5 4.7-1 1.4-2.4 2.5-4.1 3.3 2.1.7 3.6 1.9 4.6 3.4 1 1.5 1.5 3.2 1.5 5.3 0 3.3-1.2 5.9-3.6 7.9-2.4 2-5.6 3-9.5 3-3.7 0-6.7-1-9.1-2.9-2.3-1.9-3.5-4.5-3.5-7.7H79c0 1.4.5 2.5 1.5 3.4 1 .9 2.3 1.3 3.9 1.3 1.7 0 3.1-.5 4.1-1.4 1-.9 1.5-2.2 1.5-3.7 0-3.7-2-5.5-6.1-5.5H80v-5.9zM51.1 673.5c0-.7-.2-1.2-.7-1.5-.5-.4-1.3-.7-2.5-1.1-1.2-.4-2.2-.8-2.9-1.2-1.9-1-2.9-2.5-2.9-4.2 0-.9.3-1.7.8-2.5.5-.7 1.3-1.3 2.2-1.7 1-.4 2.1-.6 3.3-.6 1.2 0 2.3.2 3.3.7 1 .4 1.7 1.1 2.2 1.9.5.8.8 1.7.8 2.7h-3.5c0-.8-.2-1.4-.7-1.8-.5-.4-1.2-.7-2.1-.7-.9 0-1.5.2-2 .6-.5.4-.7.8-.7 1.4 0 .6.3 1 .8 1.4.6.4 1.4.7 2.5 1.1 2 .6 3.5 1.3 4.4 2.2.9.9 1.4 2 1.4 3.3 0 1.5-.6 2.6-1.7 3.5-1.1.8-2.6 1.3-4.5 1.3-1.3 0-2.5-.2-3.6-.7-1.1-.5-1.9-1.1-2.5-2-.6-.8-.8-1.8-.8-2.9H45c0 1.9 1.1 2.8 3.4 2.8.8 0 1.5-.2 2-.5.4-.4.7-.9.7-1.5zm18.7-9.7h-5.2V678h-3.5v-14.2h-5.2V661h13.9v2.8zm12.3 6.8h-6.8v4.6h7.9v2.8H71.8v-17.1h11.4v2.8h-7.9v4.1h6.8v2.8zm6.8 1.4v6h-3.5v-17.1H92c1.3 0 2.4.2 3.4.7 1 .5 1.7 1.1 2.2 2 .5.9.8 1.8.8 2.9 0 1.7-.6 3-1.7 4s-2.7 1.4-4.7 1.4h-3.1zm0-2.9H92c.9 0 1.6-.2 2.1-.7.5-.4.7-1.1.7-1.9 0-.8-.2-1.5-.7-2-.5-.5-1.2-.8-2-.8h-3.2v5.4zm-21.4 40.6c0 5.1-1.1 9-3.2 11.7-2.1 2.7-5.2 4.1-9.3 4.1-4 0-7.1-1.3-9.2-4-2.1-2.7-3.2-6.5-3.3-11.4v-6.8c0-5.2 1.1-9.1 3.2-11.8 2.1-2.7 5.2-4 9.3-4 4 0 7.1 1.3 9.2 4 2.1 2.6 3.2 6.4 3.3 11.4v6.8zm-7.3-7.5c0-3.1-.4-5.3-1.3-6.7-.8-1.4-2.1-2.1-3.9-2.1-1.7 0-3 .7-3.8 2-.8 1.3-1.2 3.4-1.3 6.2v9c0 3 .4 5.3 1.2 6.7.8 1.5 2.1 2.2 4 2.2 1.8 0 3.1-.7 3.9-2.1.8-1.4 1.2-3.6 1.2-6.4v-8.8zm34 8.9h4.2v5.9h-4.2v8h-7.3v-8H71.7l-.3-4.6L86.8 688h7.4v23.1zm-15.5 0h8.2V698l-.5.8-7.7 12.3zM51.1 870.5c0-.7-.2-1.2-.7-1.5-.5-.4-1.3-.7-2.5-1.1-1.2-.4-2.2-.8-2.9-1.2-1.9-1-2.9-2.5-2.9-4.2 0-.9.3-1.7.8-2.5.5-.7 1.3-1.3 2.2-1.7 1-.4 2.1-.6 3.3-.6 1.2 0 2.3.2 3.3.7 1 .4 1.7 1.1 2.2 1.9.5.8.8 1.7.8 2.7h-3.5c0-.8-.2-1.4-.7-1.8-.5-.4-1.2-.7-2.1-.7-.9 0-1.5.2-2 .6-.5.4-.7.8-.7 1.4 0 .6.3 1 .8 1.4.6.4 1.4.7 2.5 1.1 2 .6 3.5 1.3 4.4 2.2.9.9 1.4 2 1.4 3.3 0 1.5-.6 2.6-1.7 3.5-1.1.8-2.6 1.3-4.5 1.3-1.3 0-2.5-.2-3.6-.7-1.1-.5-1.9-1.1-2.5-2-.6-.8-.8-1.8-.8-2.9H45c0 1.9 1.1 2.8 3.4 2.8.8 0 1.5-.2 2-.5.4-.4.7-.9.7-1.5zm18.7-9.7h-5.2V875h-3.5v-14.2h-5.2V858h13.9v2.8zm12.3 6.8h-6.8v4.6h7.9v2.8H71.8v-17.1h11.4v2.8h-7.9v4.1h6.8v2.8zm6.8 1.4v6h-3.5v-17.1H92c1.3 0 2.4.2 3.4.7 1 .5 1.7 1.1 2.2 2 .5.9.8 1.8.8 2.9 0 1.7-.6 3-1.7 4s-2.7 1.4-4.7 1.4h-3.1zm0-2.9H92c.9 0 1.6-.2 2.1-.7.5-.4.7-1.1.7-1.9 0-.8-.2-1.5-.7-2-.5-.5-1.2-.8-2-.8h-3.2v5.4zm-21.4 40.6c0 5.1-1.1 9-3.2 11.7-2.1 2.7-5.2 4.1-9.3 4.1-4 0-7.1-1.3-9.2-4-2.1-2.7-3.2-6.5-3.3-11.4v-6.8c0-5.2 1.1-9.1 3.2-11.8 2.1-2.7 5.2-4 9.3-4 4 0 7.1 1.3 9.2 4 2.1 2.6 3.2 6.4 3.3 11.4v6.8zm-7.3-7.5c0-3.1-.4-5.3-1.3-6.7-.8-1.4-2.1-2.1-3.9-2.1-1.7 0-3 .7-3.8 2-.8 1.3-1.2 3.4-1.3 6.2v9c0 3 .4 5.3 1.2 6.7.8 1.5 2.1 2.2 4 2.2 1.8 0 3.1-.7 3.9-2.1.8-1.4 1.2-3.6 1.2-6.4v-8.8zm13.4 4.6 2.1-18.8h20.7v6.1H81.8l-.9 7.9c1.7-.9 3.6-1.4 5.6-1.4 3.5 0 6.3 1.1 8.3 3.3 2 2.2 3 5.2 3 9.2 0 2.4-.5 4.5-1.5 6.4-1 1.9-2.4 3.3-4.3 4.4-1.9 1-4.1 1.5-6.7 1.5-2.2 0-4.3-.4-6.2-1.3-1.9-.9-3.4-2.2-4.5-3.8-1.1-1.6-1.7-3.5-1.8-5.6h7.3c.2 1.5.7 2.7 1.6 3.6.9.8 2.1 1.3 3.6 1.3 1.7 0 2.9-.6 3.8-1.8.9-1.2 1.3-2.9 1.3-5.1 0-2.1-.5-3.7-1.5-4.8-1-1.1-2.5-1.7-4.4-1.7-1.7 0-3.2.5-4.2 1.4l-.7.7-6-1.5zM148.6 71.1v-1.7c-1 .2-1.6.2-3.6.2h-8.4c-2 0-2.6 0-3.6-.2v3.4c.9-.1 1.6-.1 3.6-.1h8.5c2 0 2.6 0 3.6.1v-1.5c.9 1.5 1.3 2.3 1.8 3.8l2.2-.9c-.6-1.6-.9-2.3-2-3.9l-2.1.8zm1.6 8.5c1.9 0 2.5 0 3.6.1v-3.3c-1.1.2-1.7.2-3.6.2h-16.4c-1.9 0-2.5 0-3.6-.2v3.3c1-.1 1.7-.1 3.6-.1h6.8c-.1 2.2-.5 4-1.2 5.3-1.2 2.1-3.3 3.6-6.6 4.6 1.2 1.1 1.6 1.7 2.3 3.1 3.8-1.5 5.8-3.1 7.3-5.5 1.2-2 1.8-4.3 2-7.5h5.8zm5.4-6.7c-.5-1.4-.9-2.2-2-3.8l-2.1.8c1 1.6 1.4 2.4 1.9 3.8l2.2-.8zm21.9-3.7c.8 1.2 1.3 2.5 1.8 3.9l2.1-.8c-.5-1.6-1-2.5-1.8-3.9l-2.1.8zm6.8 2c-.4-1.3-1-2.4-1.8-3.7l-2 .7c.7 1.2 1.3 2.4 1.7 3.8l2.1-.8zm-17.7 2.7V71c0-1.4 0-1.5.1-2.4H163c.1.7.1 1.3.1 2.5v2.8h-1.7c-2 0-2.5 0-3.6-.2v3.4c1-.1 1.7-.1 3.6-.1h1.7v4.1c0 1.1 0 1.8-.1 2.4h3.6c-.1-.7-.1-1.2-.1-2.4V77h7.3c-.1 1.9-.1 2.6-.1 3.2-.3 3.2-1.1 5.1-3 6.7-1.3 1.2-2.7 1.8-5.3 2.7 1.2 1.2 1.6 1.8 2.1 3 2.6-.9 3.9-1.7 5.5-2.9 2.4-2.1 3.6-4.5 4-8 .1-1.1.1-1.3.2-4.6h1.9c1.8 0 2.6 0 3.6.1v-3.4c-1.1.2-1.7.2-3.6.2h-1.8v-3.4c0-1.1 0-1.2.1-1.9h-3.6c.1.7.1 1.3.1 3.1V74h-7.3zm38.8-5.6c-.8 1.4-2.7 3.3-5.2 5.2-4.5 3.4-9.2 5.8-14.7 7.3 1 1.3 1.3 1.7 1.9 3.2 5.2-1.8 6.7-2.6 10-4.5v9.9c0 1.7 0 2.2-.2 3h3.9c-.1-.8-.1-1.6-.1-3.1v-12c2.4-1.8 4.5-3.6 6.6-5.8l1-1-3.2-2.2zM216 73c2.6 1.5 4.9 3.3 7.1 5.7l2.4-3.1c-2.2-2-3.9-3.3-7.2-5.4L216 73zm1 18.5c.6-.2.7-.3 1.8-.5 4.3-.9 7.8-2.3 10.7-4.2 3.8-2.5 6.5-5.9 8.9-11-1.4-1-1.9-1.4-3-2.7-.8 2.3-1.6 3.8-2.9 5.6-2.2 3.2-4.8 5.3-8.3 6.9-2.5 1.1-5.9 1.9-8.3 2.1l1.1 3.8zm-68.4 18.6v-1.7c-1 .2-1.6.2-3.6.2h-8.4c-2 0-2.6 0-3.6-.2v3.4c.9-.1 1.6-.1 3.6-.1h8.5c2 0 2.6 0 3.6.1v-1.5c.9 1.5 1.3 2.3 1.8 3.8l2.2-.9c-.6-1.6-.9-2.3-2-3.9l-2.1.8zm1.6 8.5c1.9 0 2.5 0 3.6.1v-3.3c-1.1.2-1.7.2-3.6.2h-16.4c-1.9 0-2.5 0-3.6-.2v3.3c1-.1 1.7-.1 3.6-.1h6.8c-.1 2.2-.5 4-1.2 5.3-1.2 2.1-3.3 3.6-6.6 4.6 1.2 1.1 1.6 1.7 2.3 3.1 3.8-1.5 5.8-3.1 7.3-5.5 1.2-2 1.8-4.3 2-7.5h5.8zm5.4-6.7c-.5-1.4-.9-2.2-2-3.8l-2.1.8c1 1.6 1.4 2.4 1.9 3.8l2.2-.8zm2.9 9.3c1.1-.1 1.4-.1 4.6-.1H178c3.1 0 3.4 0 4.6.1v-3.9c-1.2.2-1.8.2-4.5.2h-14.9c-2.8 0-3.3 0-4.5-.2v3.9zm49.3-11.3c-.7.3-1.3.3-2.5.3-6.8.1-6.8.1-7.3.1.1-.3.3-.6.7-1.3.5-1.1.5-1.1.8-1.6l-3.6-.8c-.3 1-.8 2.4-1.6 3.9-1.7 3.1-3.9 5.7-7 8 1.5.8 1.9 1.2 2.8 2.2 2.8-2.4 4.8-4.6 6.6-7.5l8.7-.1c-.9 2.6-1.8 4.6-3.1 6.6-2.1-1.7-3.3-2.4-5.6-3.8l-2.1 2.5c2.1 1.1 3.8 2.3 5.7 4-1.4 1.6-2.6 2.6-4.6 3.9-1.7 1.1-3.1 1.8-5.5 2.8 1.1.9 1.4 1.4 2.3 2.9 6-2.7 9.9-6 12.8-10.7 1.1-1.9 2.7-5.2 3.6-7.7.4-1.3.5-1.4.9-1.9l-2-1.8zm22.1 2.2c1.2.1 2 .3 2.8.8 2.2 1.3 3.4 3.5 3.4 6.2 0 3-1.5 5.7-3.9 7-1.3.8-3 1.2-5.6 1.5.9 1.2 1.2 1.8 1.7 3.3 2-.3 3.1-.6 4.4-1.2 4.3-1.7 6.8-5.6 6.8-10.4 0-6.3-4.4-10.4-11.1-10.4-4 0-7.3 1.3-9.6 3.9-2 2.2-3.1 5.1-3.1 8.1 0 4.5 2.3 7.8 5.5 7.8 2.3 0 4.1-1.7 5.7-5.3 1.5-3.1 2.4-7 3-11.3zm-3.5 0c-.3 3.2-1.3 6.9-2.3 9.5-1 2.4-2 3.6-2.9 3.6-1.2 0-2.2-1.8-2.2-4.1 0-3 1.5-5.9 3.8-7.6 1.2-.9 2.2-1.3 3.6-1.4zm28.6 11.4v4.6c0 1.7-.1 2.5-.2 3.3h3.3c-.1-.8-.1-1.7-.1-3.3v-4.6h6.7v4.9c0 .6-.3.7-1.4.7-.9 0-2.1-.1-3.5-.2.4 1.2.6 1.8.8 2.9.8.1 2.3.1 3.1.1 3.2 0 4-.6 4-2.9v-18.4c0-1.5 0-2.2.1-3.2-.9.1-1.7.1-3.2.1H249c-1.5 0-2.2 0-3.2-.1.1 1.1.1 2 .1 4.1 0 3.3-.1 7.3-.3 9.6-.1 1.5-.3 3-.6 4.3-.4 1.8-1 3.3-2 4.7 1.1.8 1.5 1.1 2.7 2.2 1.6-2.5 2.5-5.1 2.9-8.8h6.4zm0-2.8h-6.2V116.8h6.2v3.9zm3 0v-3.8h6.7v3.8H258zm-3-6.5h-6.1v-3.7h6.1v3.7zm3 0v-3.7h6.7v3.7H258zm25.1-6h-6.2c-1.3 0-2.2-.1-3-.2v2.7c.8-.1 1.4-.1 2.9-.1h1.5c.4.7.5 1 .8 1.7h-3.5c-1.6 0-2.5 0-3.3-.1v2.7c.8-.1 1.6-.1 3.2-.1h18.7c1.6 0 2.4 0 3.2.1v-2.7c-.8.1-1.6.1-3.2.1h-3.8c.4-.6.5-1 .8-1.7h1.6c1.5 0 2.1 0 3 .1V108c-.8.1-1.6.2-3 .2h-6.6v-.2c0-.7.1-1.2.2-1.8h-3.5c.1.6.2 1.2.2 1.8v.2zm-.9 4.1c-.3-.8-.4-1.1-.7-1.7h6.6c-.3.7-.5 1-.8 1.7h-5.1zm2 12.4-1.4 1c1.8 1.5 1.9 1.5 3.2 3l2.3-1.8c-1.5-1.3-1.9-1.7-2.8-2.2h7.9c.6 0 .6 0 1 .1-.1-.8-.1-1.4-.1-2.4v-4.2c0-1.2 0-1.9.1-2.5-.8.1-1.4.1-3.1.1h-13c-1.5 0-2.2 0-3-.1.1.7.1 1.4.1 2.5v4.4c0 1 0 1.5-.1 2.1.8-.1 1.5-.1 2.7-.1h6.2zm-6-6.6h13v1.1h-13v-1.1zm0 3.2h13v1.1h-13v-1.1zm-3.8 10.7c1.6-2.1 2.4-3.3 3.2-5.6l-2.7-1.1c-.7 2-1.4 3.1-3.1 4.9l2.6 1.8zm7.2-4.4c0-1 0-1.4.1-2.1h-3.2c.1.6.1 1.1.1 2.1v2.5c0 1.7.9 2 5.8 2 4.8 0 6-.2 6.8-1 .5-.6.7-1.5.8-3.6-1.3-.2-1.9-.3-2.9-.8 0 1.3-.1 2-.3 2.3-.3.4-1.2.5-4.4.5-1 0-2.1-.1-2.4-.2-.4-.1-.4-.2-.4-.5v-1.2zm16.2 2.3c-1.2-1.8-2.2-3-3.9-4.9l-2.5 1.4c1.6 1.8 2.5 3 3.8 5.3l2.6-1.8z"/><path class="st5" d="M359.4 347c-3.4 0-6.1-2.7-6.1-6.1 0-3.4 2.7-6.1 6.1-6.1 3.4 0 6.1 2.7 6.1 6.1 0 3.4-2.7 6.1-6.1 6.1zm0-10.2c-2.2 0-4 1.8-4 4s1.8 4 4 4 4-1.8 4-4c.1-2.2-1.8-4-4-4zM396 347c-3.4 0-6.1-2.7-6.1-6.1 0-3.4 2.7-6.1 6.1-6.1 3.4 0 6.1 2.7 6.1 6.1 0 3.4-2.7 6.1-6.1 6.1zm0-10.2c-2.2 0-4 1.8-4 4s1.8 4 4 4 4-1.8 4-4c.1-2.2-1.8-4-4-4zM348.9 329.9v-2.1H401c4.6 0 9.5-1.8 9.5-6.7 0-5.7-5.4-7.3-7-7.7l-56.7-10.3L341 274h28.2v2.1h-25.7l5 25.2 53.6 9.7 6.7-35H383v-2.1h26.1l2.8-14.6h15.2v2.1h-13.5l-9.5 50 .3.1c1.9.5 8.1 2.7 8.1 9.6 0 5.3-4.5 8.8-11.6 8.8h-52z"/><path class="st5" d="M376.1 295.7c-.3 0-.5-.1-.7-.3L364 284.1c-.4-.4-.4-1.1 0-1.5.2-.2.5-.3.7-.3.3 0 .5.1.7.3l9.6 9.6V258c0-.6.5-1 1-1 .6 0 1 .5 1 1v34.2l9.6-9.6c.2-.2.5-.3.7-.3.3 0 .5.1.7.3.4.4.4 1.1 0 1.5l-11.4 11.4c0 .1-.2.2-.5.2zM457.1 279h6.7v5.1c0 .6-.2.7-1.3.7-.8 0-1.9-.1-3.3-.3.3.7.4 1.2.4 1.8.9.1 2 .1 2.8.1 2.5 0 3.1-.4 3.1-2v-16c0-1.2 0-1.7.1-2.4-.7.1-1.4.1-2.6.1h-13c-1.2 0-1.9 0-2.7-.1.1.9.1 1.6.1 2.9 0 11.2-.4 13.7-2.6 16.7.8.5 1 .6 1.7 1.3 1.6-2.5 2.2-4.4 2.5-7.8h6.3v4.4c0 1.3 0 2-.1 2.7h2c-.1-.6-.1-1.4-.1-2.7V279zm0-7.3v-3.9h6.7v3.9h-6.7zm-1.8 0h-6.1v-3.9h6v3.9zm1.8 1.6h6.7v3.9h-6.7v-3.9zm-1.8 0v3.9h-6.2c0-1.1 0-1.1.1-2.4v-1.6h6.1zm13.9 3.8c.5-.1.8-.1 1.2-.1 2-.1 2-.1 2.5-.2v7.5c0 1.1 0 1.8-.1 2.5h2c-.1-.7-.1-1.4-.1-2.5v-7.7c.8-.1.8-.1 2.2-.2.1.4.2.6.4 1.2l1.3-.7c-.6-1.5-1.2-2.9-2-4.5l-1.3.6c.5.9.6 1.1 1 2-1.2.2-1.4.2-3.5.3 1-1.2 2.2-2.9 3.5-4.8 1.3-2 1.3-2 1.5-2.3l-1.7-.9c-.3.9-1 2.1-2.6 4.6-.5-.7-.7-.9-1.4-1.6 1-1.4 1.6-2.4 2.3-3.8.3-.5.4-.7.6-1l-1.7-.7c-.3 1.1-1 2.3-2.3 4.4-.3-.3-.5-.5-1-.9l-1 1.3c1.5 1.4 2.3 2.2 3.4 3.7-.5.7-.5.7-1.6 2.1h-.5c-.6 0-1 0-1.4-.1l.3 1.8zm19.8-11.9c-.8.5-1.5.7-2.9 1.1-2.3.6-4.3.9-7.1 1.1.1.7.1 1.2.1 2.2v14.7c-1.4.4-1.9.5-2.5.5l.5 1.9c.2-.1.4-.1.7-.2.4-.1.6-.2.8-.2 1.5-.4 1.5-.4 1.9-.6 1.6-.5 2.6-.9 4.3-1.5l-.1-1.7c-1.5.6-2.2.9-3.9 1.4v-8.1l3.6-.1c.3 3.2.8 5.5 1.6 7.4.8 2.1 1.9 3.4 3 3.4 1.2 0 1.8-1.1 2.2-4.1-.7-.4-1.1-.8-1.5-1.3-.1 1.6-.4 2.8-.7 3.4-.2-.1-.3-.2-.4-.4-.5-.6-.8-1.2-1.2-2.4-.6-2-.9-3.2-1.2-6h3c1 0 1.2 0 1.6.1v-1.9c-.8.1-1.2.2-2.3.2l-2.5.1c-.2-1.9-.2-2.5-.2-4.6v-1.2c1.5-.3 2-.5 4.5-1.3l-1.3-1.9zm-8.1 8.8v-5.1c1.5-.2 2-.2 3.2-.4.1 3.6.1 3.6.2 5.4l-3.4.1zm-10.7 4.4c-.2 3.1-.6 4.7-1.3 6.4l1.6.7c.6-1.8.9-3.4 1.2-6.8l-1.5-.3zm5.4.2c.4 1.3.7 2.5 1 4.8l1.5-.4c-.4-2.3-.6-3.2-1.2-4.8l-1.3.4zm28.4-5c-1.2 0-2.2 1-2.2 2.2 0 1.2 1 2.2 2.2 2.2 1.2 0 2.2-1 2.2-2.2s-1-2.2-2.2-2.2zm20.6-6v-.8c0-.8 0-1.3.1-1.8h-2.1c.1.4.1 1.1.1 1.8v.8H520c-1.1 0-1.7 0-2.3-.1v1.9c.6-.1 1.1-.1 2.1-.1h7.3c1 0 1.6 0 2.1.1v-1.9c-.6.1-1.1.1-2.2.1h-2.4zm1.6 6.5c.8-1.5 1.1-2.4 1.6-4l-1.8-.5c-.4 1.8-.8 2.8-1.6 4.5h-5.1c-1.2 0-1.7 0-2.3-.1v1.9c.6-.1 1.2-.1 2.3-.1h8c1 0 1.6 0 2.1.1V274c-.5.1-1.1.1-2.2.1h-1zm-6.9-4c.7 1.4 1.1 2.3 1.4 3.8l1.7-.6c-.5-1.7-.8-2.5-1.5-3.8l-1.6.6zm1.2 15.2h5.8v1.4h1.9c-.1-.6-.1-1-.1-1.8v-5.4c0-1.2 0-1.4.1-1.9-.4 0-.8.1-1.8.1h-5.8c-.9 0-1.4 0-1.9-.1 0 .5.1.9.1 2v4.9c0 1.1 0 1.6-.1 2.2h1.9v-1.4zm0-6h5.8v4.4h-5.8v-4.4zm17.7-13.7c-.5.1-.9.1-1.9.1h-3.9c-.9 0-1.3 0-1.9-.1.1.8.1 1.4.1 2.1v16.5c0 1.1 0 2-.1 2.7h2.1c-.1-.7-.2-1.4-.2-2.7v-16.9h4.4c-.8 2.4-1.6 4.2-3.1 6.6 1.6 1.4 2.2 2.2 2.8 3.4.5 1.1.8 2.1.8 3.2s-.4 1.5-1.7 1.5c-.7 0-1.3 0-2.2-.2.3.6.4 1.1.4 1.9.7.1 1.2.1 1.8.1 1.1 0 1.8-.1 2.3-.4.8-.5 1.2-1.4 1.2-2.7 0-1.1-.2-2.3-.7-3.3-.6-1.3-1.1-2.1-2.6-3.7.9-1.6 1.8-3.3 2.4-4.8.8-1.8.8-1.8.9-2.1l-.9-1.2zm24.9 3.8c-.6.1-1.2.1-2.3.1H556c.3-.9.6-1.8.8-3 .2-.7.2-.8.3-1.1l-1.9-.4c0 .7-.2 1.5-.4 2.5-.7 3.1-2 5.8-3.7 7.8.6.3.9.6 1.3 1.2.6-.8 1-1.3 1.6-2.4.5 2.8 1.1 4.6 2.4 6.6-1.4 1.9-3.3 3.3-6 4.6.5.5.8.9 1.2 1.6 2.5-1.4 4.3-2.8 5.8-4.7 1.5 2 3.1 3.4 5.1 4.6.4-.9.6-1.3 1.1-1.8-2.1-1.1-3.7-2.4-5.1-4.3.8-1.4 1.4-2.7 1.8-4.3.5-1.6.6-2.9.8-5.2 1 0 1.4 0 1.9.1v-1.9zm-3.7 1.7c-.2 3.4-.7 5.6-1.9 7.9-1.2-2.1-1.8-4.2-2.3-7.3l.2-.6h4zm-8 12.6c-1.1-.6-1.5-.9-2.4-1.3.8-1.2 1.2-1.9 1.7-3.5h.3c.8 0 1.3 0 1.8.1v-1.8c-.4.1-.9.1-1.7.1H547c.2-.5.4-.7.6-1.5l-1.8-.4c-.3.9-.4 1.2-.7 1.8H543c-.8 0-1.3 0-1.8-.1v1.8c.5-.1.9-.1 1.8-.1h1.2c-.6 1.1-.8 1.4-1.7 2.5 1.8.7 2.5 1 3.7 1.5-1.2 1-3 1.8-5.2 2.3.4.6.6 1 .9 1.6 2.9-1 4.3-1.7 5.8-3.1 1.2.6 1.5.8 2.5 1.6l1.2-1.5zm-2.3-4.8c-.4 1.2-.8 1.9-1.5 2.8-.8-.3-1.2-.5-2.5-1 .6-.8.7-1.1 1.1-1.8h2.9zm-1-9.2v-3.1c0-.6 0-1.1.1-1.6h-1.8c.1.5.1.9.1 1.6v3.1h-3c-.9 0-1.4 0-2-.1v1.7c.5-.1 1.1-.1 1.9-.1h2c-1.1 1.6-2.1 2.4-4.4 3.7.5.5.8.8 1.2 1.4 2.2-1.6 3.1-2.4 4.3-4.4 0 .5-.1.9-.1 1.2v1.2c0 .3 0 .6-.1.9h1.8c0-.3-.1-.6-.1-1V273c0-.3 0-.7-.1-1.2.8 1.2 1.3 1.8 2.7 2.8.5-.9.6-.9 1.1-1.4-1.2-.6-2.1-1.3-2.7-2.1h2.2c.8 0 1.2 0 1.6.1v-1.7c-.4.1-.8.1-1.6.1h-3.1zm-6-3.7c.8 1.1 1.2 1.9 1.7 3.2l1.5-.6c-.5-1.2-.9-1.9-1.8-3.1l-1.4.5zm8.8-.6c-.5 1.3-1 2.3-1.9 3.4l1.4.7c.8-1.1 1.2-1.7 2-3.4l-1.5-.7zm20.9 0c-.1 1.1-.4 2.9-.8 4.4h-1.7c-1.3 0-2.1 0-2.9-.2v2h4.1c-1.1 3.7-3 7.7-4.7 9.8l1.9 1.1c.1-.2.3-.5.5-.8.9-1.6 1.1-2 1.7-3.2 1.1-2.2 1.9-4.5 2.6-7 1.6-.1 3-.3 3.9-.5.6-.1.6-.1.8-.1l-.1-2c-1 .3-2.5.6-4.2.7.3-1.1.4-1.7.6-2.5.2-1 .2-1.1.4-1.5l-2.1-.2zm14.4 6.5c-2-1.3-3.7-2.1-6.5-3.2l-1 1.6c2.6.9 4.5 1.9 6.5 3.3l1-1.7zm.1 10.7c-.1-.1-.1-.1-.4-.3-.2-.2-.3-.3-.7-.6-1.4-1.1-2.3-1.6-4.1-2.4-.1-1.1-.3-2.5-.3-3.5 0-.9.1-1.4.3-2.3l-2-.2c-.2.8-.2 1.4-.2 2.2s.1 2.1.2 3.3c-1-.2-1.6-.3-2.4-.3-3 0-5 1.6-5 3.8 0 1.4.9 2.7 2.3 3.1.8.3 1.7.4 2.6.4 1.7 0 3.1-.5 3.8-1.4.5-.6.8-1.6.8-2.5v-.6c1.7.9 3.2 2.1 4.1 3.2l1-1.9zm-7-1.9s.1.7.1 1c0 1.7-.9 2.4-2.8 2.4-1.8 0-2.9-.7-2.9-1.8 0-1.2 1.2-2 3.1-2 .9-.1 1.5 0 2.5.4zm23.9-14c.8.9 1.5 2 2.2 3.4l1.4-.7c-.8-1.5-1.2-2.2-2.2-3.4l-1.4.7zm2.5-1.1c.8 1 1.5 2 2.2 3.4l1.4-.7c-.7-1.4-1.3-2.3-2.2-3.3l-1.4.6zm-10.5.6c.1.4.2.5.4 1.5.6 2.9 1.1 4.7 1.7 6.6-1.5.8-2.3 1.2-3.2 2-1.4 1.1-2.1 2.6-2.1 4.1 0 1.7.7 3 2 3.7 1.4.8 3.3 1.2 6.4 1.2 1.8 0 3-.1 5.5-.3 1.3-.1 1.3-.1 1.8-.1l-.2-2.4c-1.5.5-4.3.8-7.1.8-1.6 0-3.2-.1-4-.4-1.5-.4-2.3-1.2-2.3-2.5 0-.9.5-1.8 1.2-2.5 1-.9 2.6-1.8 4.4-2.5 2.7-1 5.6-1.9 7.4-2.3l-.8-2.2c-.4.2-.5.3-1.6.6-4.2 1.5-4.2 1.5-5.7 2.1-.8-2.4-1.7-6.2-1.8-7.8l-2 .4zm-137.4 49.3H454c-1 0-1.9 0-2.6-.2v2.1c.8-.1 1.8-.2 2.6-.2h3.9v9.6h-3.4c-1 0-1.8 0-2.6-.2v2c.7-.1 1.7-.2 2.6-.2h9.1c1 0 1.9 0 2.6.2v-2c-.8.1-1.6.2-2.6.2h-3.9v-9.6h4.6c.9 0 1.8 0 2.6.2v-2.1c-.8.1-1.6.2-2.6.2h-4.6v-4.8c0-1 0-1.6.1-2.3h-2.2c.1.7.1 1.3.1 2.3v4.8zm-9.6 11.4c0 1.2 0 2-.1 2.9h2.1c-.1-.8-.1-1.8-.1-2.8v-13c.7-1.4 1.1-2.3 1.5-3.4.6-1.6.6-1.6.8-2.1l-2-.6c-.2 1.2-.8 3-1.7 4.7-1.1 2.2-2.4 4-4 5.7.1.2.1.2.5.9.1.2.3.5.5.9 1.2-1.3 1.7-2 2.5-3.4 0 1.2-.1 1.8-.1 2.8v7.4zm33.9-7.4v3.2c-2.3 1.5-3 2-4.8 2.8-.9.5-1.4.6-2.1.8l.8 1.9c.3-.2.7-.5 1.1-.7 2.7-1.5 2.8-1.5 5-3.1v3.1c0 .5-.1.5-.9.5-.6 0-1.4-.1-2.3-.2.3.6.4 1 .5 1.8.7.1 1.3.1 1.9.1 1.9 0 2.5-.4 2.5-1.7v-4.2c0-.4 0-1.1-.1-2.1.9 2.1 1.7 3.3 3 4.6 1 1 1.9 1.8 3.4 2.6.4-.7.7-1.1 1.2-1.7-1.9-.9-3.1-1.7-4.4-3.1 1.2-1 1.8-1.7 3-3.2l-1.4-1c-.8 1.3-1.6 2.2-2.5 3-.9-1.2-1.3-2-1.8-3.4h4.3c.9 0 1.6 0 2.3.1v-1.8c-.7.1-1.4.1-2.3.1H484V316h3.5c1.1 0 1.6 0 2.2.1v-1.8c-.6.1-1.2.1-2.3.1H484v-1.8h4.2c1 0 1.6 0 2.3.1v-1.8c-.7.1-1.3.1-2.3.1h-1.8c.4-.6 1-1.6 1.5-2.6l-1.8-.6c-.4 1.2-.8 2-1.6 3.2h-2.6c-.5-1.3-.9-2-1.7-3.2l-1.6.6c.7 1 1.1 1.6 1.5 2.5h-1c-1 0-1.6 0-2.2-.1v1.8c.6-.1 1.1-.1 2.1-.1h3.2v1.8h-2.6c-1 0-1.5 0-2.1-.1v1.8c.7-.1 1-.1 2.1-.1h2.6v1.9h-3.6c-.9 0-1.6 0-2.2-.1-1-1.1-1.8-2.6-2.2-3.7h.7c.6 0 1 0 1.5.1v-1.8c-.5.1-.8.1-1.5.1h-.8v-2.2c0-1.2 0-1.8.1-2.5h-2c.1.6.1 1.1.1 2.5v2.2H471c-.8 0-1.2 0-1.6-.1v1.8c.4-.1.9-.1 1.6-.1h1.2c-.2 1.2-.7 2.6-1.3 4-.6 1.5-1.3 2.6-2.2 3.6.5.7.7 1.2 1 1.9.7-1.1 1-1.6 1.4-2.6.7-1.4 1-2.3 1.4-4.2-.1 1.4-.1 3.1-.1 3.9v6.3c0 1.2 0 2.1-.1 2.8h2c-.1-.7-.1-1.5-.1-2.8V320c0-.7 0-1.8-.1-3.7.4 1.2.8 2 1.4 3.1.3-.6.5-1 .9-1.5v1.6c.6-.1 1.2-.1 2.1-.1h3.6zm-5.4 1.4c1.1 1.1 1.5 1.6 2.3 2.9l1.3-1c-.8-1.1-1.4-1.9-2.3-2.9l-1.3 1zm23.5-9.3c-2.6 0-4.1-.1-5.2-.3v2h1c.5 0 2.9.1 3.4.1h.4c-.1.3-.1.3-.2.4-1.6 2.9-3.7 5.4-5.3 6.6l1.6 1.6c.4-.7 1-1.2 1.9-2 1.9-1.6 3.7-2.5 5.2-2.5 1.1 0 1.6.5 1.8 1.7-1.6.7-2.6 1.3-3.5 1.9-1.7 1.2-2.5 2.5-2.5 3.9 0 1.2.6 2.3 1.6 2.9 1.2.6 2.7.9 4.9.9 1.9 0 4.2-.2 6-.5.5-.1.6-.1 1-.1l-.2-2.2c-1.4.6-4.1 1-6.5 1-3.4 0-4.8-.6-4.8-2.1 0-.8.4-1.5 1.4-2.3.6-.5 1.4-.9 2.9-1.6v.7c0 1.3-.1 2.7-.1 3.2h2v-4.6c3.2-1.2 5.1-1.8 6.4-2l-.9-2c-.4.2-.5.3-1.7.7-1.2.4-2.2.8-4 1.5-.3-1.7-1.4-2.6-3.2-2.6-1.1 0-2.3.3-3.3 1-.2.1-.4.2-.8.6-.1 0-.2.1-.3.2v-.1l.2-.2c.1 0 .6-.6.8-.9.8-1 1.2-1.8 1.9-3 2.4-.1 5.4-.3 7.1-.5 1.4-.2 1.4-.2 1.8-.2l-.1-1.9c-1.3.4-3.5.7-6.5.8-1.3.1-1.3.1-1.5.1.1-.2.4-.8.7-1.6.4-.9.4-.9.6-1.2l-2.3-.3c-.1.8-.3 1.5-1.1 3.2h-.6zm36.4 8.6c1 0 1.8 0 2.5.1v-2c-.8.1-1.2.1-2.2.1v-4.7c0-.9 0-1.4.1-2-.5.1-1.1.1-2.2.1H531v-1.6c0-1.1 0-1.6.2-2.3H529c.1.7.2 1.3.2 2.3v1.6h-2.4c-1 0-1.7 0-2.4-.1v1.9c.6-.1 1.4-.1 2.4-.1h2.4c0 2.1-.1 3.4-.3 4.8h-3c-1 0-1.9 0-2.5-.1v2c.6-.1 1.5-.1 2.6-.1h2.7c-.9 3.9-2.8 6.2-6.8 8.1.6.6.9 1 1.2 1.7 2.3-1.3 3.7-2.5 4.9-4 1.2-1.5 1.8-2.9 2.3-4.7 1.3 3.6 3.9 6.3 7.8 8.5.4-.9.6-1.3 1.1-1.8-3.8-1.7-6.3-4.1-7.8-7.7h5.2zm-6-1.8c.2-1.3.2-2.4.2-4.8h4.2v4.8h-4.4zm-12.4-8.8c1.8 1.2 2.7 1.9 4.1 3.5l1.2-1.5c-1.4-1.4-2.4-2.3-4.1-3.3l-1.2 1.3zm-1 5.9c1.7 1 2.7 1.8 4.2 3.3l1.1-1.6c-1.6-1.4-2.5-2.1-4.2-3.1l-1.1 1.4zm3.8 5.4c-1.3 3.5-2.4 5.6-3.7 7.1l1.7 1.5c.2-.4.4-.7.5-.9 1.2-2 1.9-3.6 3.1-6.6l-1.6-1.1zm30.3 5.6c-2.1-.8-3.2-1.8-4.3-3.9.3-.9.6-2.1.6-2.4.2-.9.2-.9.3-1.3l-2-.4v.2c0 1.3-.7 3.9-1.5 5.5-.8 1.7-1.6 2.6-3.2 4.2.8.6 1 .7 1.5 1.4 1.7-1.8 2.6-3.1 3.6-5.3 1.8 3.2 5 4.6 10.9 4.6 2.3 0 2.9 0 4.7-.1.1-.8.3-1.2.6-2-2.1.2-3.8.2-5.6.2-1.6 0-2.7-.1-3.9-.2v-5h4.6c1 0 1.6 0 2.3.1v-1.9c-.6.1-1.3.1-2.3.1H553v-3.7h3.9c1.1 0 1.8 0 2.4.1v-1.9c-.6.1-1.4.1-2.4.1h-9.7c-1 0-1.8 0-2.4-.1v1.9c.6-.1 1.3-.1 2.4-.1h4.1v9.9zm-.4-15.8h-6.5c-.9 0-1.7 0-2.5-.1 0 .4.1 1.1.1 1.7v1.6c0 .8 0 1.2-.1 1.8h1.9v-3.3h16.4v3.3h1.8c-.1-.5-.1-1.1-.1-1.8v-1.6c0-.6 0-1.1.1-1.7-.8.1-1.5.1-2.5.1h-6.9v-1.1c0-.6 0-1 .1-1.5h-2.2c.1.6.2.9.2 1.5v1.1z"/><path class="st6" d="M136.3 306.3c0 1 0 1.5-.1 2.1h2.9v-1.2H146c.4 1.2.5 1.6.7 2.8 1.7.1 2.8.1 3.1.1 2.9 0 3.8-.7 3.8-3.1v-12.9c0-1.2 0-1.7.1-2.4-.7.1-1.2.1-2.6.1h-3.6c.4-.7.7-1.1 1.2-2.5h3.1c1.4 0 2.3 0 3.1.1v-3c-.9.1-1.9.2-3.3.2h-8.1v-.7c0-.5 0-.9.1-1.5v-.3h-3.4c.1.6.1 1.1.1 1.7v.7h-7.7c-1.3 0-2.3-.1-3.3-.2v3c.8-.1 1.7-.1 3.1-.1h2.9c.5.8.8 1.7 1.1 2.5h-3.3c-.9 0-2.3-.1-2.8-.1.1.8.1 1.5.1 2.4v12.8c0 1.5-.1 2.4-.2 3.4h3.3c-.1-1-.2-1.9-.2-3.4V299c.6.7 1 1.2 1.4 1.9.7-.3 1-.4 1.4-.7.1.5.1.7.1 1.3v4.8zm6.5-11.9v2.7c0 .7.2 1.1.7 1.4.5.3 1.3.4 3.1.4 2.8 0 3.5-.2 4-1.3v8.9c0 .6-.2.8-1 .8-.5 0-1.1 0-1.8-.1-.1-.7-.1-1.2-.1-2.1v-3.3c0-.6 0-1.3.1-2-.3.1-1.3.1-2.3.1H137c2.4-1.5 3.4-2.9 3.7-5.4h2.1zm-3.2-2.6c-.4-1.1-.6-1.6-1-2.5h6.8c-.3.9-.7 1.7-1.1 2.5h-4.7zm-1.9 2.6c-.3 2-1.5 3.1-4.3 4v-4h4.3zm12.9 1.3c-.6-.2-1-.4-1.7-.7 0 .6-.1 1.1-.2 1.3-.1.3-.5.3-1.5.3-1.3 0-1.5-.1-1.5-.6v-1.6h4.9v1.3zm-11.5 6.6h5.9v2.5h-5.9v-2.5zm23.1-9.4c0 1 0 1.8-.1 2.6.8-.1 1.5-.1 2.9-.1h11.1c1.5 0 2 0 2.9.1-.1-.8-.1-1.5-.1-2.6v-5.2c0-1.1 0-1.8.1-2.5-.7.1-1.6.1-3.2.1h-10.6c-1.5 0-2.3 0-3.2-.1.1.7.1 1.5.1 2.5v5.2zm3-4.7h10.7v4.5h-10.7v-4.5zm-6.7 19.1c0 1.5 0 2.2-.1 3h3.1v-1.5h4.9v1h3c-.1-.6-.1-1.4-.1-2.5v-7.5c0-1.4 0-1.8.1-2.4-.7.1-1.3.1-2.1.1h-6.1c-1.1 0-1.9 0-2.7-.1.1.8.1 1.7.1 2.7v7.2zm3-7.1h4.9v5.9h-4.9v-5.9zm11.9-2.7c-.8 0-1.4 0-2.1-.1.1.6.1 1 .1 2.3v8.1c0 1.1 0 1.7-.1 2.5h3v-1.5h5.3v1.5h3.1c-.1-.8-.1-1.5-.1-3v-7.2c0-1.1 0-1.9.1-2.7-.7.1-1.3.1-2.5.1h-6.8zm.9 2.7h5.3v5.9h-5.3v-5.9zm27-10.1c1.2.1 2 .3 2.8.8 2.2 1.3 3.4 3.5 3.4 6.2 0 3-1.5 5.7-3.9 7-1.3.8-3 1.2-5.6 1.5.9 1.2 1.2 1.8 1.7 3.3 2-.3 3.1-.6 4.4-1.2 4.3-1.7 6.8-5.6 6.8-10.4 0-6.3-4.4-10.4-11.1-10.4-4 0-7.3 1.3-9.6 3.9-2 2.2-3.1 5.1-3.1 8.1 0 4.5 2.3 7.8 5.5 7.8 2.3 0 4.1-1.7 5.7-5.3 1.5-3.1 2.5-7 3-11.3zm-3.4 0c-.3 3.2-1.3 6.9-2.3 9.5-1 2.4-2 3.6-2.9 3.6-1.2 0-2.2-1.8-2.2-4.1 0-3 1.5-5.9 3.8-7.6 1.1-.9 2.1-1.3 3.6-1.4zm27.8.1c-1.4 0-2.2-.1-3.1-.2v3.1c1-.1 1.7-.1 3.1-.1h3.6v4.9h-2.9c-1.2 0-2.2-.1-3.1-.2v3.1c.9-.1 2-.1 3.1-.1h2.9v5.8H225c-1.2 0-2.5-.1-3.3-.2v3.1c.8-.1 2-.2 3.3-.2h12.2c1.3 0 2.4.1 3.3.2v-3.1c-.8.1-2 .2-3.3.2h-4.8v-5.8h3.6c1.1 0 2.2.1 3.1.1v-3.1c-.8.1-1.9.2-3.1.2h-3.6V293h4.4c1.2 0 2.3.1 3.1.1V290c-.9.1-1.6.2-3.1.2h-4.2l1.8-2.3c-2.3-1.7-2.9-2-6-3.6l-2 2.3c2.7 1.3 3.9 2 5.8 3.6h-6.5zm-9.8-3.4c2.3 1.4 3.2 2.1 5 4l1.9-2.5c-1.8-1.6-2.9-2.4-5-3.7l-1.9 2.2zm-1.1 7c2.1 1.1 3.1 1.9 5.2 3.9l1.7-2.6c-1.8-1.6-2.8-2.3-5.1-3.6l-1.8 2.3zm4.5 5.5c-1.5 4.1-3.1 7.2-4.5 8.6l2.7 2.3c.2-.3.2-.3.4-.7.3-.6.5-.8.8-1.3 1.1-2 1.8-3.7 3.1-7.2l-2.5-1.7zm46.3-7.7c1.5 0 2.4.1 3.4.2v-3.2c-1 .1-2 .2-3.5.2h-7.8v-2c0-.8.1-1.5.2-2.1h-3.6c.1.6.2 1.3.2 2.2v2h-7.4c-1.5 0-2.4-.1-3.5-.2v3.2c1-.1 2.1-.2 3.4-.2h1.3c1 2.9 1.5 4.1 2.5 5.9 1 1.6 2 3 3.3 4.5-2.9 2.4-6 3.8-11 5.2.8 1 1.3 1.8 1.8 3 2.7-.9 4.3-1.5 6-2.4 2-1 3.9-2.3 5.5-3.6 3.1 2.7 6.5 4.5 11.3 6 .6-1.5 1-2.2 1.9-3.3-4.5-1-7.9-2.5-10.9-4.9 1.3-1.5 2.4-3 3.3-4.7 1-1.9 1.5-3 2.2-5.6h1.4zm-4.8 0c-.7 2.3-1.1 3.2-1.9 4.8-.8 1.3-1.6 2.4-2.5 3.5-1.1-1.1-1.8-2.1-2.7-3.5-1-1.7-1.4-2.7-2.1-4.8h9.2z"/><path class="st5" d="M457.8 470.5H454c-1 0-1.9 0-2.6-.2v2.1c.8-.1 1.8-.2 2.6-.2h3.9v9.6h-3.4c-1 0-1.8 0-2.6-.2v2c.7-.1 1.7-.2 2.6-.2h9.1c1 0 1.9 0 2.6.2v-2c-.8.1-1.6.2-2.6.2h-3.9v-9.6h4.6c.9 0 1.8 0 2.6.2v-2.1c-.8.1-1.6.2-2.6.2h-4.6v-4.8c0-1 0-1.6.1-2.3h-2.2c.1.7.1 1.3.1 2.3v4.8zm-9.6 11.4c0 1.2 0 2-.1 2.9h2.1c-.1-.8-.1-1.8-.1-2.8v-13c.7-1.4 1.1-2.3 1.5-3.4.6-1.6.6-1.6.8-2.1l-2-.6c-.2 1.2-.8 3-1.7 4.7-1.1 2.2-2.4 4-4 5.7.1.2.1.2.5.9.1.2.3.5.5.9 1.2-1.3 1.7-2 2.5-3.4 0 1.2-.1 1.8-.1 2.8v7.4zm32.3-9.5h6c1 0 1.8 0 2.6.1v-2.1c-.8.1-1.5.1-2.6.1h-6v-4.7c0-1 0-1.8.2-2.6h-2.4c.1.9.2 1.6.2 2.6v16h-6.1c-1.2 0-2.1 0-3-.1v2.1c.9-.1 1.9-.2 3-.2h15.8c1.1 0 1.9 0 2.8.2v-2.1c-.8.1-1.7.1-2.9.1h-7.6v-9.4zm28.9-7.5c1 1 1.7 2.1 2.4 3.3l1.3-.8c-.8-1.4-1.4-2.2-2.4-3.3l-1.3.8zm2.4-1.2c1 1.1 1.7 2 2.4 3.3l1.3-.8c-.8-1.3-1.4-2.1-2.4-3.2l-1.3.7zm-17.8 8c1.1-.3 2.1-.5 4.7-.8-.8 3.1-1.4 5-2.5 7.4-.8 1.8-1.8 3.5-2.5 4.4l2 1.1c.7-1.3 1.2-2.4 1.6-3 1.6-3.3 2.6-6.2 3.5-10.1.7 0 1.1-.1 1.6-.1 2.1 0 2.8.8 2.8 3.2 0 2.7-.4 5.1-1 6.6-.3.7-.8 1.1-1.3 1.1-.8 0-2.2-.4-3.5-1.1.1.6.1.9.1 1.3v.8c1.6.6 2.6.9 3.6.9 1.2 0 1.8-.3 2.4-1.1 1-1.4 1.7-4.6 1.7-8.4 0-2-.3-3.1-1.2-4-.7-.7-1.8-1.1-3.5-1.1H501c.1-.6.4-2.1.5-2.7.2-1.3.3-1.8.4-2.2l-2.3-.3v.3c0 1-.3 3.1-.7 5-2 .3-4.4.6-5.3.6l.4 2.2zm14-3.3c2.3 2.4 3.9 5.4 4.8 8.9l1.9-1c-1.1-3.5-2.6-6.1-5-8.7l-1.7.8zm15 3.5c.1-.8.1-1.4.3-2.9.6-4.2.7-4.5 1-5.4l-2.2-.2v.8c-.6 4.4-.8 6.5-.8 8.9v3.9h2.1v-.6c0-1.8.4-3.6 1.3-5.4 1.3-2.7 2.9-4 4.6-4 2.3 0 3.6 2.1 3.6 5.9 0 3.8-1.3 6.2-4.1 7.8-1.4.8-2.7 1.2-5 1.5.6.7.7 1 1.1 2 1.8-.4 3.2-.8 4.4-1.4 3.7-1.8 5.7-5.1 5.7-9.6 0-2.7-.5-4.5-1.5-6-1-1.4-2.3-2.1-4-2.1-1.8 0-3.4 1-4.7 2.9-.7 1-1.1 2.1-1.4 3.4-.2.3-.2.3-.4.5zm35.6-8.1c-.7 1.2-2.4 2.8-4.5 4.5-3.8 3-7.9 5-12.5 6.2.6.7.8 1 1.1 1.9 4.5-1.5 6-2.2 9.1-4.1v8.6c0 1.5 0 2.1-.1 2.8h2.4c-.1-.7-.1-1.4-.1-2.8v-10c2.1-1.5 4-3.2 5.8-5 .4-.4.5-.5.9-.8l-2.1-1.3zm19.7.4c-.1.7-.3 1.1-.8 2.5-.8 2-1.7 3.7-2.8 5.5-3.8-2.7-3.8-2.7-6.2-4.1l-1.4 1.5c2 1.1 4.3 2.6 6.4 4.3-2.6 3.5-5.6 6-9.5 7.8.7.6 1 .9 1.5 1.8 2.4-1.3 3.9-2.4 5.6-3.9 1.6-1.4 2.9-2.9 4-4.4 2.3 2 3.9 3.5 5.1 5.2l1.6-1.8c-2-2.1-3.4-3.4-5.5-5.2 1.1-1.7 2-3.4 3.5-7 .4-.8.5-1.1.8-1.5l-2.3-.7zm9.5 10.8c.8-.1 1.4-.1 3.3-.1h13.4c1.7 0 2.4 0 3.3.1v-2.4c-.8.1-1.3.1-3.2.1h-13.5c-1.7 0-2.5 0-3.3-.1v2.4zm39.5-10.2c1 1.1 1.6 1.9 2.3 3.3l1.4-.7c-.8-1.4-1.3-2.2-2.3-3.3l-1.4.7zm2.4-1.3c1 1.1 1.6 1.9 2.3 3.3l1.4-.8c-.7-1.3-1.4-2.2-2.3-3.2l-1.4.7zm-15 2.7c1.8.6 4.2 1.9 6 3.2l1.1-1.9c-2.1-1.3-3.7-2.1-6.1-3l-1 1.7zm-1.9 5.8c2.3.9 4.4 2 6.2 3.4l1.1-1.9c-2-1.3-3.9-2.2-6.2-3.2l-1.1 1.7zm.9 11.6c.4-.1.5-.2 1-.3.5-.1.9-.2 1.3-.3 2-.4 4.5-1.3 6.2-2.1 4.2-2.1 7.2-5.4 9.3-10.4-.8-.6-1.1-.8-1.8-1.5-.7 2.1-1.5 3.6-2.9 5.4-1.9 2.5-4.2 4.2-7.1 5.3-2.4.9-4.9 1.5-6.6 1.5l.6 2.4zm28.4-17c-2.6 0-4.1-.1-5.2-.3v2h1c.5 0 2.9.1 3.4.1h.4c-.1.3-.1.3-.2.4-1.6 2.9-3.7 5.4-5.3 6.6l1.6 1.6c.4-.7 1-1.2 1.9-2 1.9-1.6 3.7-2.5 5.2-2.5 1.1 0 1.6.5 1.8 1.7-1.6.7-2.6 1.3-3.5 1.9-1.7 1.2-2.5 2.5-2.5 3.9 0 1.2.6 2.3 1.6 2.9 1.2.6 2.7.9 4.9.9 1.9 0 4.2-.2 6-.5.5-.1.6-.1 1-.1l-.2-2.2c-1.4.6-4.1 1-6.5 1-3.4 0-4.8-.6-4.8-2.1 0-.8.4-1.5 1.4-2.3.6-.5 1.4-.9 2.9-1.6v.7c0 1.3-.1 2.7-.1 3.2h2v-4.6c3.2-1.2 5.1-1.8 6.4-2l-.9-2c-.4.2-.5.3-1.7.7-1.2.4-2.2.8-4 1.5-.3-1.7-1.4-2.6-3.2-2.6-1.1 0-2.3.3-3.3 1-.2.1-.4.2-.8.6-.1 0-.2.1-.3.2v-.1l.2-.2c.1 0 .6-.6.8-.9.8-1 1.2-1.8 1.9-3 2.4-.1 5.4-.3 7.1-.5 1.4-.2 1.4-.2 1.8-.2l-.1-1.9c-1.3.4-3.5.7-6.5.8-1.3.1-1.3.1-1.5.1.1-.2.4-.8.7-1.6.4-.9.4-.9.6-1.2l-2.3-.3c-.1.8-.3 1.5-1.1 3.2h-.6zm-189.7 50.6c.4.5.7.9 1 1.5.7-.7 1.1-1.2 1.5-1.8 0 .1 0 .9-.1 2.2v6.4c0 1.2 0 1.8-.2 2.5h1.8v-1.2h7.9c.8 0 1.5 0 2.3.1v-1.8c-.7.1-1.2.1-2.3.1h-2.8v-2.5h2.1c.8 0 1.3 0 2.1.1v-1.7c-.6.1-1.1.1-2.1.1h-2.1v-2.4h2.1c.8 0 1.3 0 2.1.1v-1.7c-.6.1-1.1.1-2.1.1h-2.1v-2.4h2.5c.7 0 1.3 0 2.1.1v-1.7c-.6.1-1.1.1-2.1.1h-2c.3-.5.5-1.1.8-1.9 0-.1.1-.2.2-.4l-1.7-.4c-.2.9-.6 1.8-1 2.7h-3c.8-1.4 1.3-2.2 1.8-3.6h5.8v2.5h1.8c-.1-.5-.1-.8-.1-1.4v-1.2c0-.7 0-1.2.1-1.6-.7.1-1.4.1-2.3.1h-4.7c.1-.3.4-1.1.7-2.3l-1.9-.3c-.1.9-.3 1.6-.6 2.6h-2.7c-1.3 0-1.5 0-2-.1v2.8c0 .6 0 1.1-.1 1.5h1.7V510h2.4c-.7 1.7-1.2 2.7-2.2 4.1-.8 1.3-1.4 1.9-2.6 3.1v-.9c0-.8 0-1.3.1-1.9-.5.1-.9.1-1.5.1h-2.6c.8-2.2 1.2-3.6 1.5-5.9h1.3c.6 0 1 0 1.7.1v-1.8c-.7.1-1.2.1-2.1.1h-3.1c-.9 0-1.6 0-2.2-.1v1.9c.7-.1 1.2-.1 2.1-.1h.7c-.2 1.7-.5 2.7-.9 4.1-.7 2.3-1.6 4-2.9 5.6.4.6.5.8.9 1.8.6-.8 1-1.4 1.5-2.7-.1.8-.1 2-.1 2.4v5.4c0 1 0 1.7-.1 2.3h1.8v-2.4h2.3v1.3h1.7c0-.6-.1-1-.1-2v-7.3zm4 .3v-2.4h3.5v2.4h-3.5zm0 1.4h3.5v2.4h-3.5v-2.4zm0 3.8h3.5v2.5h-3.5v-2.5zm-7.9-6.7h2.3v7.2h-2.3V516zm29.8-4.7c1.5.6 2.1.8 3.1 1.2-.9 1.7-2.2 2.9-4.4 4.1.5.4.8.8 1.2 1.4 2.3-1.4 3.6-2.8 4.6-4.7.8.4 1.2.7 2.2 1.4l.9-1.4c-1.2-.7-1.6-1-2.5-1.4.4-1 .5-1.6.7-3.1h4c-.1 2.5-.2 4-.5 5.3-.2 1-.5 1.3-1.3 1.3-.7 0-1.4-.1-2.2-.3.3.7.4 1.1.4 1.8.6 0 1.3.1 1.9.1 1.6 0 2.2-.3 2.6-1.3.4-1 .7-3.5.9-6 .1-2.2.1-2.2.2-2.5-.6.1-1.3.1-2.3.1h-7.4c-1 0-1.9 0-2.5-.1v1.9c.6-.1 1.3-.1 2.4-.1h2.1c-.2 1.2-.2 1.6-.5 2.4-.9-.4-1.5-.6-2.9-1.1l-.7 1zm-8.3-2.7c.5-.1 1-.1 1.8-.1h3.1c.8 0 1.2 0 1.8.1v-1.8c-.6.1-.9.1-1.8.1h-3.1c-.9 0-1.2 0-1.8-.1v1.8zm-.8 3.4c.6-.1 1.1-.1 1.9-.1h4.4c.8 0 1.2 0 1.8.1v-1.8c-.5.1-.9.1-1.9.1h-4.3c-.9 0-1.4 0-1.9-.1v1.8zm.9 3.3c.4-.1.9-.1 1.6-.1h3.4c.7 0 1 0 1.6.1v-1.7c-.4.1-.8.1-1.6.1h-3.4c-.8 0-1.2 0-1.6-.1v1.7zm0 3.4c.5-.1.8-.1 1.6-.1h3.4c.7 0 1.1 0 1.6.1V517c-.4 0-.8.1-1.6.1h-3.4c-.8 0-1.1 0-1.6-.1v1.7zm1.7 9.1v-1.3h3.1v1h1.7c-.1-.5-.1-1.1-.1-1.9V522c0-.9 0-1.4.1-1.8-.4 0-.8.1-1.7.1h-2.8c-.9 0-1.4 0-1.9-.1.1.7.1 1.1.1 1.9v3.4c0 .8 0 1.6-.1 2.3h1.6zm0-6.1h3.1v3.3h-3.1v-3.3zm6.6-1.9c-.2 2.4-.6 3.6-1.6 5.5l1.5.8c1-2.3 1.2-3.3 1.6-6l-1.5-.3zm4.1 1.4c0-.8 0-1.2.1-1.8h-1.9c.1.6.1 1.2.1 1.9v4.5c0 1.3.6 1.6 3.3 1.6 2.4 0 3.2-.2 3.6-1 .4-.6.5-1.6.7-3.4-.6-.1-1-.3-1.6-.6 0 .8-.1 1.4-.2 2-.1 1-.3 1.2-1 1.3-.2 0-1.3.1-1.8.1-1.1 0-1.3-.1-1.3-.6v-4zm5-1c1.3 1.8 1.9 3 2.8 5.4l1.5-.9c-1-2.4-1.5-3.3-2.9-5.2l-1.4.7zm-6-2.8c1.8 1.1 2.6 1.9 3.7 3.4l1.3-1.2c-1.4-1.5-2-2-3.8-3.2l-1.2 1zM350.6 544.4c-3.1 0-5.6-2.5-5.6-5.6v-82.2c0-3.1 2.5-5.6 5.6-5.6h9.4l.4 2.3h-9.8c-1.9 0-3.4 1.5-3.4 3.4v82.2c0 1.8 1.5 3.4 3.4 3.4H412c1.9 0 3.4-1.5 3.4-3.4v-82.2c0-1.9-1.5-3.4-3.4-3.4h-9.8l.4-2.3h9.4c3.1 0 5.6 2.5 5.6 5.6v82.2c0 3.1-2.5 5.6-5.6 5.6h-61.4z"/><path class="st5" d="M370.2 459.5c-2.6 0-4.9-2-5.3-4.5l-.9-5.1c-.2-1.3.1-2.5.9-3.4.8-.9 1.9-1.5 3.2-1.5h26.5c1.3 0 2.5.5 3.2 1.5.8.9 1.1 2.2.9 3.4l-.9 5.1c-.5 2.5-2.8 4.5-5.3 4.5h-22.3zm-2.2-12.2c-.6 0-1.1.2-1.5.6-.3.4-.5 1-.4 1.6l.9 5.1c.2 1.4 1.7 2.6 3.1 2.6h22.2c1.4 0 2.9-1.2 3.1-2.6l.9-5.1c.1-.6 0-1.2-.4-1.6-.3-.4-.9-.6-1.5-.6H368zM356.6 486.3c-.6 0-1.1-.5-1.1-1.1v-15.5c0-.6.5-1.1 1.1-1.1H375c.6 0 1.1.5 1.1 1.1v15.5c0 .6-.5 1.1-1.1 1.1h-18.4zm1.1-2.3h16.1v-9.1l-7.6 7.6-5.2-5.2 1.6-1.6 3.6 3.6 7.6-7.6v-.9h-16.1V484zM393.4 472.3h-11.8v2.3h11.8v-2.3zM406.8 480.9h-25.2v2.3h25.2v-2.3zM356.6 509.6c-.6 0-1.1-.5-1.1-1.1V493c0-.6.5-1.1 1.1-1.1H375c.6 0 1.1.5 1.1 1.1v15.5c0 .6-.5 1.1-1.1 1.1h-18.4zm1.1-2.3h16.1v-9.1l-7.6 7.6-5.2-5.2 1.6-1.6 3.6 3.6 7.6-7.6v-.9h-16.1v13.2zM401.7 495.6h-20v2.3h20v-2.3zM396.9 504.2h-15.3v2.3h15.3v-2.3zM356.6 532.9c-.6 0-1.1-.5-1.1-1.1v-15.5c0-.6.5-1.1 1.1-1.1H375c.6 0 1.1.5 1.1 1.1v15.5c0 .6-.5 1.1-1.1 1.1h-18.4zm1.1-2.3h16.1v-9.1l-7.6 7.6-5.2-5.1 1.6-1.6 3.6 3.6 7.6-7.6v-.9h-16.1v13.1zM395.2 518.9h-13.6v2.3h13.6v-2.3zM403 527.5h-21.4v2.3H403v-2.3z"/><path class="st6" d="M148.6 466.1v-1.7c-1 .2-1.6.2-3.6.2h-8.4c-2 0-2.6 0-3.6-.2v3.4c.9-.1 1.6-.1 3.6-.1h8.5c2 0 2.6 0 3.6.1v-1.5c.9 1.5 1.3 2.3 1.8 3.8l2.2-.9c-.6-1.6-.9-2.3-2-3.9l-2.1.8zm1.6 8.5c1.9 0 2.5 0 3.6.1v-3.3c-1.1.2-1.7.2-3.6.2h-16.4c-1.9 0-2.5 0-3.6-.2v3.3c1-.1 1.7-.1 3.6-.1h6.8c-.1 2.2-.5 4-1.2 5.3-1.2 2.1-3.3 3.6-6.6 4.6 1.2 1.1 1.6 1.7 2.3 3.1 3.8-1.5 5.8-3.1 7.3-5.5 1.2-2 1.8-4.3 2-7.5h5.8zm5.4-6.7c-.5-1.4-.9-2.2-2-3.8l-2.1.8c1 1.6 1.4 2.4 1.9 3.8l2.2-.8zm2.9 9.3c1.1-.1 1.4-.1 4.6-.1H178c3.1 0 3.4 0 4.6.1v-3.9c-1.2.2-1.8.2-4.5.2h-14.9c-2.8 0-3.3 0-4.5-.2v3.9zm49.3-11.3c-.7.3-1.3.3-2.5.3-6.8.1-6.8.1-7.3.1.1-.3.3-.6.7-1.3.5-1.1.5-1.1.8-1.6l-3.6-.8c-.3 1-.8 2.4-1.6 3.9-1.7 3.1-3.9 5.7-7 8 1.5.8 1.9 1.2 2.8 2.2 2.8-2.4 4.8-4.6 6.6-7.5l8.7-.1c-.9 2.6-1.8 4.6-3.1 6.6-2.1-1.7-3.3-2.4-5.6-3.8l-2.1 2.5c2.1 1.1 3.8 2.3 5.7 4-1.4 1.6-2.6 2.6-4.6 3.9-1.7 1.1-3.1 1.8-5.5 2.8 1.1.9 1.4 1.4 2.3 2.9 6-2.7 9.9-6 12.8-10.7 1.1-1.9 2.7-5.2 3.6-7.7.4-1.3.5-1.4.9-1.9l-2-1.8zm18.2.9c-.1 2.3-.4 3.7-.9 5.7-.9 3-2.6 6-4.8 8.3-1.9 2-3.2 3-5.6 4.4 1.1.9 1.7 1.7 2.3 2.9 3.1-2 5.2-4 6.9-6.3 1.9-2.5 3-4.9 4-8.5.4 1.7.7 2.4 1.4 4 .8 1.7 1.4 2.8 2.5 4.1 1.9 2.6 4 4.6 6.8 6.6.8-1.4 1.3-2.1 2.4-3.2-1.9-1.1-2.7-1.7-4.1-3-1.9-1.7-3.3-3.4-4.5-5.4-2-3.4-3-7.1-3-11.1 0-.7 0-1 .1-1.8-.6.1-1.4.1-2.5.1h-4.5c-1.2 0-1.8 0-2.6-.1v3.4c1.1-.1 1.9-.1 2.7-.1h3.4zm26.3.4c.8-.1 1.8-.1 3.1-.1H266c1.1 0 2.2.1 3.1.1v-2.8c-.8.1-1.8.2-3.2.2H262v-.4c0-.8 0-1.3.1-1.8h-3.2c.1.5.1 1 .1 1.7v.4h-3.5c-1.1 0-2.3-.1-2.9-.1l-1.3-2.1c-.4.3-.7.4-1.1.6-2.4.9-3.8 1.3-6.9 1.7.7 1.3.8 1.7 1.1 2.6 1.2-.2 1.6-.3 2.7-.5v3.1h-1.6c-.8 0-1.3 0-2-.1v3c.7-.1 1.2-.1 1.9-.1h1.4c-.8 2.8-2.4 5.6-4 7.4.9 1.3 1.1 1.6 1.5 2.8.4-.6 1.2-1.8 1.7-2.8.4-.8.8-1.8 1.3-3.1-.1 1.1-.2 1.7-.2 1.8 0 1.1-.1 1.7-.1 1.8v4.6c0 1.5-.1 2.3-.2 3.3h3.1c-.1-.8-.2-1.6-.2-3.3v-5.4c-.1-2-.1-2-.1-2.6 0-.2 0-.4-.1-.8.8 1.5 1.1 2 1.8 3 .3-.8.7-1.8 1-2.3v8.1c0 1.5 0 2.3-.1 3.2h3.1c-.1-.7-.1-1.7-.1-3.2v-7.5h10.4v7.3c0 .4-.2.5-.7.5-.6 0-1.4-.1-2.5-.2.4 1.2.5 1.5.6 2.8h1.5c1.7 0 2.2-.1 2.7-.3.9-.3 1.2-.9 1.2-2.3v-7.9c0-1.1 0-1.8.1-2.5-.6.1-1.2.1-2.5.1h-11.2c-1 0-1.8 0-2.4-.1 0 .5.1.7.1 1.3-1.1-1-2.1-2.4-2.6-3.7v-.1h1c.7 0 1.3 0 2 .1v-2.9c-.6.1-1 .1-1.9.1h-1.1V466c.9-.3 1.6-.6 2.4-.9v2.1zm12.6 6.7c.7 0 1.3 0 1.8.1-.1-.4-.1-1-.1-1.7v-2.5c0-.6 0-1.2.1-1.6-.5 0-1.1.1-1.9.1h-8.3c-1 0-1.3 0-1.9-.1.1.7.1 1 .1 1.5v2.8c0 .4 0 .8-.1 1.5.5-.1 1-.1 1.9-.1h8.4zm-7.4-3.7h6.2v1.7h-6.2v-1.7zm6.7 10c0-.6 0-1 .1-1.5-.4.1-.9.1-1.9.1h-4c-.8 0-1.3 0-1.8-.1.1.5.1.9.1 1.7v3.9c0 .7 0 1.1-.1 1.7h2.4v-1.5h3.5c.4 0 1.1 0 1.7.1-.1-.4-.1-.7-.1-1.5v-2.9zm-5.2.6h3.1v1.7H259v-1.7zm25.8-8.8c-1.8 0-3.3 1.5-3.3 3.3 0 1.8 1.5 3.3 3.3 3.3 1.8 0 3.3-1.5 3.3-3.3 0-1.8-1.5-3.3-3.3-3.3zm-135.5 30.3c-1 .5-1.8.8-3.4 1.3-3.4 1-8.2 1.6-12 1.6-.4 0-.9 0-1.7-.1.6 1.3.8 1.8 1 3 4.6-.2 5.5-.3 7.8-.6 0 2 0 3.1-.1 4.2h-7.2c-1.9 0-2.4 0-3.4-.2v3.4c1-.1 1.6-.1 3.4-.1h6.9c-.1.9-.2 1.4-.3 1.9-.5 1.8-1.5 3.4-3.2 4.8-1.3 1-2.3 1.6-4.3 2.4 1.2 1 1.6 1.5 2.4 3 1.3-.6 1.8-.9 2.6-1.4 2-1.3 3.6-2.8 4.6-4.5 1-1.6 1.6-3.5 1.9-6.1h6.2c1.8 0 2.3 0 3.4.1v-3.4c-1 .2-1.5.2-3.4.2h-5.9c.1-1 .1-1 .1-4.7 2.2-.4 3.1-.6 4.7-1.1 2-.7 2-.7 2.4-.8l-2.5-2.9zm22.8 11.2h4c1.4 0 1.8 0 2.5.1v-3.2c-.8.1-1.4.2-2.6.2h-11c-1.1 0-1.8-.1-2.5-.2v3.2c1-.1 1.5-.2 2.6-.2h3.8v9h-5.5c-1.3 0-1.8 0-2.6-.2v3.1c.8-.1 1.3-.1 2.6-.1h14.4c1.2 0 1.8 0 2.6.1v-3.1c-.8.1-1.3.2-2.6.2h-5.7v-8.9zm17.5-3.7c1.3 2.5 1.8 3.9 2.5 6.8l3.2-1c-1-3.1-1.6-4.5-2.7-6.6l-3 .8zm6-1.2c1.2 2.3 2 4.5 2.5 6.6l3.1-1c-.7-2.4-1.2-3.7-2.7-6.4l-2.9.8zm9.6-.3c0 .9-.1 1.8-.5 3.2-1.2 4.5-3.1 7.3-6.4 9.7-1.7 1.2-2.8 1.8-4.8 2.6 1.2 1.1 1.5 1.5 2.2 2.8 4.1-2.1 6.5-3.9 8.5-6.7 1.8-2.4 3.1-5.5 3.9-9.3.2-.9.2-1 .4-1.4l-3.3-.9zm31.2-3c-.6.2-1 .3-2 .3l-6.1.1c-.5 0-1 0-1.3.1.3-.5.3-.5.4-.9.3-.6.3-.6.4-.7l.4-.8c.3-.6.3-.6.5-.9l-3.8-.8c-.1 1-.6 2.1-1.4 3.7-2 3.7-4.1 5.9-7.3 8.1 1.5.9 1.9 1.3 2.7 2.4 2.7-2 4.8-4.5 6.6-7.2l8.4-.1c-1.5 5-4.2 8.8-8.2 11.8-1.8 1.3-3.3 2.2-6.1 3.3 1.2 1.1 1.6 1.5 2.4 2.9 4.3-2 7.4-4.2 10-7.1 2.5-2.8 4.5-6.6 5.7-10.8.3-1 .4-1.3.7-1.7l-2-1.7z"/><path class="st5" d="M455.1 664.2c-.1 2.2-.3 3.5-.8 5.1-.7 2.6-2 4.9-3.8 7-1.6 1.9-2.9 3-5.4 4.4.7.6 1.1 1 1.5 1.8 2.7-1.9 4.6-3.6 6.2-5.9 1.6-2.2 2.6-4.5 3.4-7.6.6 2.7 1.5 4.7 2.9 6.8 1.8 2.7 3.7 4.7 6.6 6.6.6-.9.8-1.2 1.6-1.9-2-1.2-2.9-1.9-4.2-3.2-1.5-1.5-2.7-3.1-3.7-4.9-1.5-2.7-2.2-5.6-2.2-8.7 0-.5 0-1 .1-1.6-.5.1-1.1.1-2.2.1h-3.4c-.9 0-1.4 0-1.9-.1v2.1c.8-.1 1.5-.1 2-.1h3.3zm23.7 5.3v3h-6.1c-1.1 0-1.8 0-2.4-.1v1.9c.7-.1 1.5-.1 2.4-.1h6.1v6h-6.4c-1.1 0-2 0-2.8-.1v2c1-.1 1.8-.2 2.8-.2h15.1c1 0 1.9 0 2.7.2v-2c-.7.1-1.6.1-2.7.1h-6.9v-6h6.5c1.1 0 1.7 0 2.4.1v-1.9c-.6.1-1.3.1-2.4.1h-6.5v-3h2.6c1 0 1.6 0 2.3.1V668c1.7 1.1 2.8 1.7 4.7 2.5.3-.7.6-1.2 1.1-1.8-2.5-.8-4.3-1.8-6.3-3.2-1.9-1.4-3.1-2.6-4.1-4.2h-2.2c-1.9 3.1-5.4 5.7-10 7.4.6.7.8 1 1.1 1.7 1.8-.7 2.8-1.3 4.4-2.3v1.4c.7-.1 1.3-.1 2.3-.1h2.3zm-2.4-1.6h-1.7c2.4-1.7 3.7-3 5.2-4.9 1.4 1.9 3.1 3.5 5.3 4.9-.5 0-1 .1-1.8.1h-7zm-3.8 7.5c.9 1.3 1.5 2.6 2 4.2l1.7-.7c-.7-1.8-1.2-2.8-2-4.2l-1.7.7zm12.7-.6c-.6 1.8-1.3 3.2-2.3 4.4l1.6.6c1-1.6 1.1-1.7 2.4-4.3l-1.7-.7zm15.1-2.6c.4.5.7.9 1 1.5.7-.7 1.1-1.2 1.5-1.8 0 .1 0 .9-.1 2.2v6.4c0 1.2 0 1.8-.2 2.5h1.8v-1.2h7.9c.8 0 1.5 0 2.3.1v-1.8c-.7.1-1.2.1-2.3.1h-2.8v-2.5h2.1c.8 0 1.3 0 2.1.1v-1.7c-.6.1-1.1.1-2.1.1h-2.1v-2.4h2.1c.8 0 1.3 0 2.1.1v-1.7c-.6.1-1.1.1-2.1.1h-2.1v-2.4h2.5c.7 0 1.3 0 2.1.1v-1.7c-.6.1-1.1.1-2.1.1h-2c.3-.5.5-1.1.8-1.9 0-.1.1-.2.2-.4l-1.7-.4c-.2.9-.6 1.8-1 2.7h-3c.8-1.4 1.3-2.2 1.8-3.6h5.8v2.5h1.8c-.1-.5-.1-.8-.1-1.4v-1.2c0-.7 0-1.2.1-1.6-.7.1-1.4.1-2.3.1h-4.7c.1-.3.4-1.1.7-2.3l-1.9-.3c-.1.9-.3 1.6-.6 2.6h-2.7c-1.3 0-1.5 0-2-.1v2.8c0 .6 0 1.1-.1 1.5h1.7V665h2.4c-.7 1.7-1.2 2.7-2.2 4.1-.8 1.3-1.4 1.9-2.6 3.1v-.9c0-.8 0-1.3.1-1.9-.5.1-.9.1-1.5.1h-2.6c.8-2.2 1.2-3.6 1.5-5.9h1.3c.6 0 1 0 1.7.1v-1.8c-.7.1-1.2.1-2.1.1h-3.1c-.9 0-1.6 0-2.2-.1v1.9c.7-.1 1.2-.1 2.1-.1h.7c-.2 1.7-.5 2.7-.9 4.1-.7 2.3-1.6 4-2.9 5.6.4.6.5.8.9 1.8.6-.8 1-1.4 1.5-2.7-.1.8-.1 2-.1 2.4v5.4c0 1 0 1.7-.1 2.3h1.8v-2.4h2.3v1.3h1.7c0-.6-.1-1-.1-2v-7.3zm4 .3v-2.4h3.5v2.4h-3.5zm0 1.4h3.5v2.4h-3.5v-2.4zm0 3.8h3.5v2.5h-3.5v-2.5zm-7.9-6.7h2.3v7.2h-2.3V671zm29.8-4.7c1.5.6 2.1.8 3.1 1.2-.9 1.7-2.2 2.9-4.4 4.1.5.4.8.8 1.2 1.4 2.3-1.4 3.6-2.8 4.6-4.7.8.4 1.2.7 2.2 1.4l.9-1.4c-1.2-.7-1.6-1-2.5-1.4.4-1 .5-1.6.7-3.1h4c-.1 2.5-.2 4-.5 5.3-.2 1-.5 1.3-1.3 1.3-.7 0-1.4-.1-2.2-.3.3.7.4 1.1.4 1.8.6 0 1.3.1 1.9.1 1.6 0 2.2-.3 2.6-1.3.4-1 .7-3.5.9-6 .1-2.2.1-2.2.2-2.5-.6.1-1.3.1-2.3.1h-7.4c-1 0-1.9 0-2.5-.1v1.9c.6-.1 1.3-.1 2.4-.1h2.1c-.2 1.2-.2 1.6-.5 2.4-.9-.4-1.5-.6-2.9-1.1l-.7 1zm-8.3-2.7c.5-.1 1-.1 1.8-.1h3.1c.8 0 1.2 0 1.8.1v-1.8c-.6.1-.9.1-1.8.1h-3.1c-.9 0-1.2 0-1.8-.1v1.8zm-.8 3.4c.6-.1 1.1-.1 1.9-.1h4.4c.8 0 1.2 0 1.8.1v-1.8c-.5.1-.9.1-1.9.1h-4.3c-.9 0-1.4 0-1.9-.1v1.8zm.9 3.3c.4-.1.9-.1 1.6-.1h3.4c.7 0 1 0 1.6.1v-1.7c-.4.1-.8.1-1.6.1h-3.4c-.8 0-1.2 0-1.6-.1v1.7zm0 3.4c.5-.1.8-.1 1.6-.1h3.4c.7 0 1.1 0 1.6.1V672c-.4 0-.8.1-1.6.1h-3.4c-.8 0-1.1 0-1.6-.1v1.7zm1.7 9.1v-1.3h3.1v1h1.7c-.1-.5-.1-1.1-.1-1.9V677c0-.9 0-1.4.1-1.8-.4 0-.8.1-1.7.1h-2.8c-.9 0-1.4 0-1.9-.1.1.7.1 1.1.1 1.9v3.4c0 .8 0 1.6-.1 2.3h1.6zm0-6.1h3.1v3.3h-3.1v-3.3zm6.6-1.9c-.2 2.4-.6 3.6-1.6 5.5l1.5.8c1-2.3 1.2-3.3 1.6-6l-1.5-.3zm4.1 1.4c0-.8 0-1.2.1-1.8h-1.9c.1.6.1 1.2.1 1.9v4.5c0 1.3.6 1.6 3.3 1.6 2.4 0 3.2-.2 3.6-1 .4-.6.5-1.6.7-3.4-.6-.1-1-.3-1.6-.6 0 .8-.1 1.4-.2 2-.1 1-.3 1.2-1 1.3-.2 0-1.3.1-1.8.1-1.1 0-1.3-.1-1.3-.6v-4zm5-1c1.3 1.8 1.9 3 2.8 5.4l1.5-.9c-1-2.4-1.5-3.3-2.9-5.2l-1.4.7zm-6-2.8c1.8 1.1 2.6 1.9 3.7 3.4l1.3-1.2c-1.4-1.5-2-2-3.8-3.2l-1.2 1zm21.9 7c.6.7.7 1 1 1.9 1.8-.4 2.9-.7 4-1.2 3.4-1.6 5.3-4.6 5.3-8.3 0-5.1-3.6-8.4-9.1-8.4-3.3 0-6 1.1-7.9 3.2-1.7 1.8-2.6 4.2-2.6 6.7 0 3.5 1.8 6.1 4.2 6.1 1.8 0 3.2-1.4 4.6-4.6 1.1-2.5 2-6.1 2.4-9.6 1.2.1 1.8.2 2.7.6 2.3 1.1 3.6 3.2 3.6 5.8 0 2.8-1.4 5.1-3.8 6.4-1.1.7-2.3 1.1-4.4 1.4zm0-14.1c-.3 3-1.2 6.4-2.1 8.6-1 2.3-1.9 3.4-2.8 3.4-1.2 0-2.2-1.7-2.2-3.9 0-2.9 1.4-5.5 3.7-7 1-.7 2-1 3.4-1.1zm15.3 1.9H567.6c1.3.1 2.6.1 3.9.2-.4 1.3-1.2 3.5-1.9 5.3-.4 1-.8 1.7-1.2 2.4l2.1.8c.5-.6 1-1 1.9-1.5 1.6-.8 3.6-1.2 5.4-1.2 2.8 0 4.4 1 4.4 2.8 0 2.2-2.4 3.6-6.1 3.6-2.1 0-4.1-.4-6-1.2.1.9.1 1.3.1 1.8v.4c1.8.6 3.9.9 6 .9 4.9 0 8.2-2.2 8.2-5.5 0-2.7-2.4-4.5-6.2-4.5-2.7 0-5.2.7-6.9 1.9.8-1.4 1.5-3.2 2.3-5.9 2.7-.1 5.4-.3 7.4-.5 2.1-.3 2.1-.3 2.6-.3l-.1-2.1c-1.6.5-4.8.9-9.4 1 .2-1 .3-1 .6-2.5.3-1.1.3-1.1.4-1.5l-2.3-.2c0 1.1-.3 2.3-.7 4.2-2.6 0-4.1-.1-5.2-.4l-.2 2zm25.3 11.6h4.7c.9 0 1.5 0 2 .1v-2c-.6.1-1.1.1-2 .1H592v-5.8h4.6c.9 0 1.5 0 2 .1v-2c-.6.1-1.1.1-2.1.1H592v-4.3c2.5-.6 4.4-1.2 6.3-2 .5-.2.5-.2.9-.4l-1.3-1.7c-.2.2-.6.4-1.1.6-1.8.9-3.7 1.4-6.8 1.9 0 .5.1.8.1 1.9v12.8c0 1.3 0 2-.2 2.7h2v-2.1zm8.4 1.1c0 1.2 0 2.2-.1 2.9h2.1c-.1-.6-.1-1.7-.1-2.9v-15.7h5.8v12.9c0 .6-.1.7-.9.7s-1.6-.1-2.7-.2c.3.7.4 1.2.4 1.9.8 0 1.8.1 2.4.1 2 0 2.6-.5 2.6-2.3v-12.8c0-1 0-1.5.1-2.2-.6.1-1.2.1-2.2.1h-5.4c-.9 0-1.6 0-2.2-.1 0 .6.1 1 .1 2.1v15.5zm20.3-7.3v7.6c0 1.2 0 1.9-.1 2.6h2c-.1-.6-.1-1.3-.1-2.6v-7.5h2v5.9c0 .3-.1.4-.5.4-.3 0-.6 0-1-.1.2.6.2.9.2 1.6h.9c1.6 0 2-.4 2-1.6V673c0-1 0-1.6.1-2.1-.6.1-1.1.1-2 .1h-1.7v-.2c0-.8 0-1.4.1-2h-1.9c.1.6.1 1.3.1 2v.2h-1.6c-.9 0-1.4 0-2.1-.1.1.7.1 1 .1 2.2v5.2c0 1 0 1.7-.1 2.4h1.8c-.1-.6-.1-1-.1-2.4v-5.7h1.9zm3-4.4c.9 0 1.6 0 2.2.1-.1-.6-.1-1-.1-1.9V664c0-.9 0-1.5.1-2-.9.1-1.5.1-2.4.1h-6c-1.3 0-1.8 0-2.7-.1.1.6.1 1.4.1 2.8 0 4.9-.2 7.8-.6 10.4-.3 2-.7 3.2-1.6 4.8.6.5.8.9 1.3 1.6 1.8-3.4 2.3-6.2 2.6-13.5h7.1zm-7.1-4.5h7.5v2.9h-7.5v-2.9zm11-1c.1.7.1 1.4.1 2.6v9.2c0 1.4 0 2-.1 2.7h2c-.1-.6-.1-1.1-.1-2.7v-9.2c0-1.3 0-2 .1-2.6h-2zm4.5-1.5c.1.9.1 1.6.1 2.9V680c0 .6-.2.7-1 .7-.9 0-1.9-.1-2.8-.3.3.6.4 1.1.5 1.8 1.1.1 1.7.1 2.2.1 2.4 0 2.9-.4 2.9-2.3v-16c0-1.4 0-2.2.2-2.9h-2.1zm-179.9 65.6c-1.4-2.1-1.9-3.1-2.4-4.8-.5-1.7-.8-3.5-.8-5.4s.3-3.7.8-5.4c.5-1.7 1.1-2.8 2.4-4.8l-1.8-1.2c-1.4 2.1-1.9 3.2-2.5 4.9-.7 2.1-1.1 4.2-1.1 6.5s.4 4.4 1.1 6.5c.6 1.7 1.2 2.8 2.5 4.9l1.8-1.2zm15.8-19.7v1.5h-2.3c-1 0-1.6 0-2.2-.1v1.6c.7-.1 1.2-.1 2.1-.1h2.3v1.5h-3.1c-1.2 0-1.8 0-2.4-.1v1.7c.7-.1 1.3-.1 2.4-.1h8.6c1.1 0 1.7 0 2.4.1v-1.7c-.7.1-1.3.1-2.4.1h-3.9V710h2.7c1 0 1.5 0 2.2.1v-1.6c-.6.1-1.1.1-2.2.1h-2.7v-1.5h3.5c1.1 0 1.7 0 2.3.1v-1.7c-.7.1-1.1.1-2.3.1h-3.5c0-.9 0-1.3.1-1.9h-1.9c.1.6.1 1 .1 1.9H465c-1.1 0-1.5 0-2.2-.1v1.7c.6-.1 1.1-.1 2.2-.1h3zm-2.8 14.6h7.2v1.6c0 .5-.2.7-.8.7-.7 0-1.7-.1-2.6-.2.2.6.4 1 .5 1.7.8.1 1.5.1 2.1.1 2 0 2.5-.4 2.5-2v-6.8c0-1.2 0-1.9.1-2.5-.5.1-1.1.1-2.2.1h-6.4c-1 0-1.4 0-2.1-.1 0 .6.1 1.1.1 2.1v6.8c0 1.3 0 2-.1 2.6h1.9c-.1-.6-.1-1.4-.1-2.6v-1.5zm0-1.4v-1.5h7.2v1.5h-7.2zm0-3v-1.6h7.2v1.6h-7.2zm-10.3-10.9c.5-.1 1.1-.1 1.8-.1h3.2c.7 0 1.2 0 1.8.1v-1.8c-.6.1-1 .1-1.8.1h-3.2c-.9 0-1.2 0-1.8-.1v1.8zm-.8 3.3c.6-.1 1.1-.1 1.9-.1h4.4c.9 0 1.2 0 1.8.1V708c-.5.1-.9.1-1.9.1H456c-.9 0-1.4 0-1.9-.1v1.7zm.9 3.4c.5 0 .8-.1 1.6-.1h3.5c.7 0 1.1 0 1.6.1v-1.7c-.4.1-.8.1-1.6.1h-3.5c-.8 0-1.1 0-1.6-.1v1.7zm0 3.3c.5 0 .8-.1 1.6-.1h3.5c.8 0 1.1 0 1.6.1v-1.7c-.5.1-.8.1-1.6.1h-3.5c-.8 0-1.1 0-1.6-.1v1.7zm1.8 9.2v-1.2h3.2v.9h1.7c-.1-.6-.1-1.1-.1-2v-3.4c0-.9 0-1.4.1-1.8-.4 0-.8.1-1.7.1h-3c-.9 0-1.4 0-1.9-.1.1.6.1 1.1.1 1.9v3.3c0 .8 0 1.6-.1 2.4h1.7zm0-5.9h3.2v3.2h-3.2v-3.2zm31.1-9.7v13.2c0 .6-.2.7-1.1.7-.9 0-1.9-.1-3.1-.3.3.7.4 1.2.5 1.9 1.2.1 2.1.1 3 .1 2 0 2.6-.4 2.6-1.9v-6.5c0-1.8-.1-2.8-.1-3v-.8c.8 2.2 1.5 3.6 3 5.5 1.6 2.1 3.4 3.7 5.8 5.2.4-.7.8-1.2 1.3-1.7-1.8-1-2.8-1.6-4.1-2.9-.9-.9-1.6-1.6-2.4-2.7 1.4-1.2 2.4-2.1 3.2-3 1.2-1.3 1.2-1.3 1.4-1.5l-1.6-1.2c-.8 1.3-2.2 2.9-4 4.4-1.1-1.7-1.8-3.4-2.4-5.4h6.9c1.1 0 1.9 0 2.5.1v-1.9c-.7.1-1.4.1-2.5.1h-7v-1.7c0-1.2 0-1.8.1-2.6h-2.1c.1.7.1 1.4.1 2.6v1.7H481c-1.1 0-1.9 0-2.5-.1v1.9c.7-.1 1.4-.1 2.5-.1h6.9zm3.7-4.7c1.6 1 2.2 1.4 3.5 2.8l1.3-1.2c-1.4-1.3-1.8-1.7-3.6-2.8l-1.2 1.2zm-10.9 6.9c1.3 1.3 2.2 2.4 3.2 4.2l1.5-1.2c-1.1-1.7-1.9-2.7-3.3-4.2l-1.4 1.2zm6.1 4.4c-1.6 1.2-2.6 1.9-4.6 3-1.5.9-2.5 1.3-3.6 1.6l.9 2c.4-.3.7-.4 1.2-.7 3.4-1.9 4.3-2.4 6.6-4.1l-.5-1.8zm25.2-8.8h-7c-1.3 0-2 0-2.7-.1v1.6c.8-.1 1.4-.1 2.7-.1h7.1v1.3H507c-1.1 0-1.7 0-2.4-.1v1.5c.6-.1 1.3-.1 2.4-.1h5.1v1.2h-5.5c-1.2 0-1.8 0-2.4-.1v1.6c.6-.1 1.3-.1 2.4-.1h5.5v1.3H505c-1.2 0-2.1 0-2.7-.1v1.7c.8-.1 1.7-.1 2.7-.1h15.9c1 0 1.9 0 2.7.1v-1.7c-.7.1-1.4.1-2.7.1h-7.2v-1.3h5.8c1.1 0 1.8 0 2.4.1v-1.6c-.7.1-1.2.1-2.4.1h-5.8v-1.2h4.9c1.2 0 1.9 0 2.6.1 0-.4-.1-1-.1-1.9v-.8c1.3 0 1.9 0 2.5.1v-1.6c-.6.1-1.2.1-2.4.1h-.1v-.6c0-1.2 0-1.7.1-2.1-.6.1-1.4.1-2.7.1h-4.8c0-.6 0-1 .2-1.5h-2c.1.6.1.8.1 1.5h-4.9c-1.2 0-1.8 0-2.5-.1v1.6c.7-.1 1.3-.1 2.3-.1h5.1v1.2zm1.7 0v-1.2h5.7v1.2h-5.7zm0 1.4h5.7v1.3h-5.7v-1.3zm-8.4 14.2c0 1.1 0 1.7-.1 2.4h1.9v-.9H519v.9h1.9c-.1-.6-.1-1.2-.1-2.4v-2.9c0-1.3 0-1.8.1-2.3-.6.1-1 .1-2.7.1h-10.1c-1.8 0-2.1 0-2.7-.1.1.6.1 1 .1 2.3v2.9zm1.8-3.8H519v1.2h-11.9v-1.2zm0 2.6H519v1.4h-11.9v-1.4zm24.7-13.4v-2.3c0-1 0-1.7.1-2.4h-2.1c.1.8.2 1.5.2 2.4v2.2h-1.5c-.8 0-1.2 0-1.9-.1v1.9c.6-.1 1.2-.1 1.9-.1h1.5v5.1c-2 .7-2.8.9-3.8 1l.4 1.9c.3-.1.6-.2 1.3-.5 1.6-.6 1.6-.6 2.1-.7v6c0 .5-.2.6-.8.6-.7 0-1.7-.1-2.6-.2.3.7.4 1.1.4 1.8.9.1 1.4.1 2 .1 2.2 0 2.9-.4 2.9-1.9v-7.2c1-.4 1.6-.6 3-1.2l-.1-1.7c-1.3.6-1.8.8-2.9 1.2v-4.5h1.2c.6 0 1.2 0 1.9.1v-1.8c-.6.1-1.1.1-1.8.1h-1.4zm16.1 15.9c-1.5-4.4-2.8-7.4-4.6-10.8l-1.7.7c1.4 2.5 2.2 4.2 3.1 6.9-3.5.6-4.2.7-7.8 1.1 1.2-3.4 2.6-8.9 3.8-15.2.4-2.1.4-2.1.6-2.8l-2.3-.3c0 1.4-.3 3.3-.8 6.1-.9 4.4-1.9 8.3-3.3 12.4-1 .1-1.2.1-1.5.1h-.4l.4 2.1c.4-.1.4-.1 1.7-.3 5-.7 6.4-.9 10.2-1.7.3 1.1.4 1.3.7 2.4l1.9-.7zm4.1-17.9c0 .5 0 .6.1 1.4.1 6 .5 9 1.3 11.4.8 2.4 2.2 3.9 3.6 3.9 1.8 0 3-1.7 4.2-6-.8-.6-1.1-.9-1.7-1.6-.3 1.6-.7 2.9-1.2 4.2-.3.8-.7 1.2-1.2 1.2-.9 0-1.8-1.6-2.3-4.1-.3-1.5-.6-4.7-.6-7.2 0-1.3 0-2.2.2-3l-2.4-.2zm12.1 2.2c2.8 3.3 4.6 7.6 5 12.1l2.1-.8c-.8-5.1-2.3-8.6-5.3-12.2l-1.8.9zm11.6 7c.3 0 .4 0 .8.1 1 .3 2.1.4 3.5.6-.1 1.4-.1 1.4-.1 2.2 0 1.9.5 3.3 1.6 4.2 1.1 1 2.7 1.5 4.7 1.5 4.3 0 7.2-2.4 7.2-5.8 0-1.2-.4-2.4-1.1-3.5-.3-.4-.5-.7-1.1-1.4-.8.3-1.1.4-2.1.5 1.5 1.3 2.3 2.7 2.3 4.2 0 2.5-2 4.1-5.2 4.1-1.4 0-2.5-.3-3.3-1-.7-.6-1-1.5-1-2.8 0-.4 0-1.2.1-1.6v-.5c1.1.1 1.4.1 1.9.1 1.1 0 2.4-.1 3.5-.2.4 0 .4 0 .7-.1l.1-1.9c-1 .3-2.7.4-4.5.4h-1.5c.1-1.1.2-1.5.6-4.1h1.9c.6 0 1.6 0 2.3-.1 1.3-.1 1.3-.1 1.8-.2l.1-2c-1.1.3-2.8.5-4.8.5h-.9c.1-.5.1-.8.2-1.4.2-1.2.2-1.2.2-1.4.1-.9.2-1.2.4-1.6l-2.3-.2V704.9c0 .6-.2 2.2-.6 4.2-1.7-.1-3.3-.5-4.3-.9l-.2 1.9c.4.1.5.1.8.2 1.7.4 2 .4 3.6.6-.2 1.2-.4 3-.6 4.1-2.1-.3-3.3-.5-4.3-.9l-.4 1.9zm30.9-10.9c-5.2 0-8.5 3.8-8.5 9.6 0 5.9 3.3 9.6 8.5 9.6s8.5-3.8 8.5-9.6-3.3-9.6-8.5-9.6zm0 17.2c-3.7 0-6.2-3-6.2-7.6s2.4-7.6 6.2-7.6c1.6 0 3 .6 4.1 1.6 1.3 1.3 2.1 3.4 2.1 6-.1 4.7-2.5 7.6-6.2 7.6zm18.2-9.1 5.2-5.2c1.3-1.3 1.6-1.7 2.5-2.5h-3.3c-.4.7-.8 1.2-1.7 2.1l-7 7.1v-6.4c0-1.2 0-2 .2-2.8H618c.1.9.2 1.6.2 2.8v12.9c0 1.2 0 1.9-.2 2.8h2.6c-.2-.9-.2-1.5-.2-2.8v-3.8l2.7-2.7 5.4 7.2c.6.8 1.1 1.5 1.4 2.2h3.3c-.7-.7-.9-1-2.3-2.8l-6.1-8.1zm21.9 6.2c0-.5-.1-1.1-.1-1.3v-1.3l.2-8.4c0-1 .1-1.8.2-2.7h-2.8c.1.9.1 1.7.2 2.7l.2 8.4V719.4h2.1zm.3 4.7v-2.5h-2.6v2.5h2.6zm13.2 3.9c1.4-2.1 1.9-3.2 2.5-4.9.7-2.1 1.1-4.2 1.1-6.5s-.4-4.4-1.1-6.5c-.6-1.7-1.2-2.8-2.5-4.9l-1.8 1.2c1.4 2.1 1.9 3.1 2.4 4.8s.8 3.5.8 5.4c0 1.9-.3 3.7-.8 5.4s-1.1 2.8-2.4 4.8l1.8 1.2zM374 661.8l-3.6 5-3.6-5h-2.4l4.3 5.9h-3.4v1.6h4.1v.9h-4.1v1.6h4.1v5h2v-5h4.1v-1.6h-4.1v-.9h4.1v-1.6h-3.4l4.3-5.9H374zM391.7 680.2v1.6h4.1v5h2v-5h4.1v-1.6h-4.1v-.9h4.1v-1.6h-3.4l4.3-5.9h-2.4l-3.6 5-3.6-5h-2.4l4.3 5.9h-3.4v1.6h4.1v.9h-4.1z"/><path class="st5" d="M342.1 729c-.4 0-.7-.2-.9-.5l-5.6-9.5c-.1-.2-.2-.4-.1-.7v-.1l6.8-31.5c.1-.5.5-.8 1-.8h13.1c-.4.6-.7 1.3-1 2h-11.3l-6.3 29.6h91.7l-6.3-29.6h-7.8c.3-.7.6-1.3.8-2h7.8c.5 0 .9.3 1 .8l6.8 31.6c0 .3 0 .5-.1.7l-5.6 9.5c-.2.3-.5.5-.9.5h-83.1zm.6-2h81.8l4.4-7.5h-90.6l4.4 7.5zM359.6 681.6c-3.6-3.1-5.6-7.6-5.6-12.3 0-9 7.3-16.4 16.4-16.4 6.4 0 12.2 3.7 14.9 9.5-.6.4-1.1.8-1.6 1.3-2.2-5.3-7.5-8.8-13.2-8.8-7.9 0-14.4 6.4-14.4 14.4 0 4.2 1.8 8.2 5.1 10.9-.7.5-1.1 1-1.6 1.4z"/><path class="st5" d="M396.8 695.7c-.7 0-1.5 0-2.2-.1 0-.7-.1-1.3-.1-2 .8.1 1.5.2 2.3.2 7.9 0 14.4-6.4 14.4-14.4 0-7.9-6.4-14.4-14.4-14.4-7.2 0-13.2 5.3-14.2 12.3-.6-.3-1.3-.5-1.9-.7 1.4-7.7 8.2-13.5 16.1-13.5 9 0 16.4 7.3 16.4 16.3 0 8.9-7.4 16.3-16.4 16.3z"/><path class="st5" d="M374.2 712.2c-9 0-16.4-7.3-16.4-16.3s7.3-16.3 16.4-16.3c9 0 16.4 7.3 16.4 16.3s-7.4 16.3-16.4 16.3zm0-30.7c-7.9 0-14.4 6.4-14.4 14.4 0 7.9 6.4 14.4 14.4 14.4 7.9 0 14.4-6.4 14.4-14.4s-6.5-14.4-14.4-14.4z"/><path class="st5" d="M368.8 696.3v1.6h4.1v.9h-4.1v1.6h4.1v5h2v-5h4.1v-1.6h-4.1v-.9h4.1v-1.6h-3.4l4.3-5.9h-2.4l-3.6 5-3.6-5h-2.4l4.3 5.9h-3.4z"/><path class="st6" d="M140.2 684.1h-7.1c-1.5 0-2.5-.1-3.4-.2v3.2c.9-.1 1.9-.2 3.4-.2h7.1v3.6h-5.1c-1.4 0-2.6-.1-3.4-.2v3.1c.8-.1 1.3-.1 2.6-.2 1.6 3 2.9 4.6 5.3 6.6-3.1 1.7-6.4 2.7-10.4 3.3.8 1.2 1.1 1.9 1.5 3 4.5-.9 7.9-2.2 11.4-4.4 3.3 2.2 6.4 3.4 11.3 4.5.5-1.5.8-2.2 1.5-3.2-4-.6-7.2-1.6-10.1-3.2 2.1-1.7 3.9-3.7 5.2-5.7.6-.8 1-1.5 1.3-1.8l-1.8-1.9c-.5.1-1.2.1-2.4.1h-3.8v-3.6h7.5c1.4 0 2.6.1 3.4.2v-3.2c-.9.1-2 .2-3.4.2h-7.5V683c0-1.2 0-1.8.1-2.5H140c.1.7.2 1.3.2 2.5v1.1zm6.7 9.1c-1.2 2-2.5 3.4-4.6 4.9-2.2-1.6-3.4-2.8-4.6-4.9h9.2zm36.8 11.6c-1.6-5.1-3.1-8.8-5.1-12.9l-2.7 1.1c1.2 2.4 2.2 4.8 3.2 7.7-2.9.5-3.8.7-7.5 1.1 1-3 2.5-9.1 3.4-13 1.2-6 1.4-6.7 1.5-7.3l-3.6-.6c-.1 4.3-2.2 13.9-4.6 21.2-1 .1-1.5.1-1.6.1h-.4l.6 3.4c.7-.2 1.5-.3 3-.5 3.9-.5 6.4-1 10.2-1.7.3 1 .4 1.4.7 2.6l2.9-1.2zm-18.6-19v-2.3c0-1.3.1-2 .2-2.8H162c.1.9.2 1.6.2 2.9v2.3h-1.6c-.8 0-1.5-.1-2.2-.2v3c.7-.1 1.4-.1 2.2-.1h1.6v5.2c-2.3.6-3.1.8-4.1.8l.6 3.2 1.5-.5c1.1-.3 1.5-.4 2-.6v5.9c0 .6-.2.8-.8.8-.8 0-1.7-.1-2.9-.2.4 1.2.6 1.8.6 3 1 .1 1.6.1 2.2.1 3 0 3.9-.6 3.9-2.7v-7.9c1.5-.5 2.6-.9 3.3-1.1l-.1-2.7c-1.7.6-2.2.8-3.2 1.1v-4.3h1.3c.7 0 1.3 0 2 .1v-2.9c-.8.1-1.2.1-2 .1h-1.4zm23-2.4c.1.6.1.8.1 1.8.1 7.8.6 11.8 1.8 14.6 1.1 2.7 2.6 4.1 4.5 4.1 2.4 0 4-2.3 5.5-7.7-1.4-1-1.8-1.4-2.8-2.5-.3 1.9-.8 3.6-1.5 5.1-.3.8-.7 1.2-1.1 1.2-.9 0-1.8-1.8-2.3-4.7-.3-1.7-.5-5.1-.5-7.5 0-1.8.1-3.2.2-4.3h-3.9zm14.2 2.7c1.7 2.1 3 4.3 4 6.9 1 2.5 1.6 5.5 1.8 8.1l3.5-1.3c-.8-6.2-2.8-10.8-6.3-15.1l-3 1.4zm14.7 9.4c1.8-1.9 3.1-2.6 4.9-2.6 1.5 0 2.4.3 4.8 1.9 2.2 1.4 2.7 1.7 3.8 2.1.8.3 1.6.4 2.5.4 1.8 0 3.4-.5 4.8-1.6.9-.7 1.5-1.3 2.7-2.7l-2.2-2.2c-1 1.3-1.7 1.9-2.9 2.5-.7.3-1.5.5-2.1.5-1.3 0-2.8-.6-5-2-1.8-1.2-1.8-1.2-2.5-1.5-1.2-.6-2.3-.8-3.6-.8-1.6 0-2.9.4-4.6 1.5-1.2.8-1.7 1.2-2.8 2.5l2.2 2zm30.5 6.2h5.1c1.1 0 1.7 0 2.4.1v-3.1c-.7.1-1.3.1-2.4.1h-5.1V693h4.9c1.1 0 1.8 0 2.5.1V690c-.7.1-1.3.1-2.5.1h-4.9V686c2.7-.6 5.2-1.3 7.2-2.1.6-.2.6-.2 1.1-.4l-2-2.8c-1.7 1.2-5.4 2.3-9.5 2.8.1.6.1 1 .1 2.3v15.1c0 1.6-.1 2.5-.2 3.4h3.3c-.1-.8-.1-1.3-.1-2.2v-.4zM259 682c-1.1 0-1.9 0-2.6-.1.1.7.1 1.2.1 2.3v18.5c0 1.5-.1 2.8-.2 3.6h3.4c-.1-.8-.2-2-.2-3.5V685h5.5v14c0 .6-.2.8-1 .8s-1.5-.1-2.7-.2c.4 1.2.6 2 .6 3.1.9.1 1.7.1 2.7.1 1.1 0 2-.2 2.5-.5.7-.5 1-1.2 1-2.8v-15c0-1.1 0-1.8.1-2.5-.8.1-1.5.1-2.6.1H259zm21.6 7.5v2.6h-1.9c-1 0-1.5 0-2.2-.1.1.7.1 1.1.1 2.5v6.5c0 1.1 0 1.9-.1 2.9h2.8c-.1-.7-.1-1.3-.1-2.7v-6.4h1.4v8.3c0 1.4-.1 2.2-.2 3.2h3.1c-.1-.8-.1-1.7-.1-3.2v-8.3h1.5v5.9c0 .3-.1.4-.4.4-.2 0-.4 0-.8-.1.3.9.3 1.4.4 2.5h.6c2.2 0 2.8-.4 2.8-2.4v-6.9c0-1.2 0-1.7.1-2.3-.6.1-1.2.1-2.1.1h-2v-2.6h1.4c1 0 1.7 0 2.5.1-.1-.7-.1-1.3-.1-2.4v-3.3c0-1.2 0-1.8.1-2.4-1 .1-1.8.1-3 .1H277c-1.5 0-2.1 0-3.2-.1.1.9.1 2 .1 4.6 0 4.8-.3 8.3-.8 11.2-.4 2-.8 3.3-1.7 5 .8 1 1.3 1.7 2 3.1 1.2-2.2 1.8-4.1 2.3-6.8.4-2.4.6-3.8.9-8.9h4zm-4-5.3h7.6v2.6h-7.6v-2.6zm12.2-1.7c.1.9.1 1.6.1 3v11.1c0 1.5 0 2.2-.1 3h3.1c-.1-.7-.1-1.3-.1-3v-11.2c0-1.5 0-2.2.1-2.9h-3.1zm4.9-1.8c.1 1 .2 1.8.2 3.4v18.1c0 .7-.3.9-1.2.9-1 0-2.4-.1-3.3-.3.4 1 .6 1.7.8 3 1.1.1 2.2.1 2.7.1 3.1 0 3.9-.6 3.9-3.2v-18.6c0-1.7.1-2.5.2-3.4h-3.3z"/><path class="st5" d="M447.7 891.6v7.9c-1 .1-1.7.1-2.2.1h-.4l.4 1.8c.9-.2 1.1-.2 3.5-.6 1.8-.2 1.8-.2 5-.8v.5c0 1.1 0 1.7-.1 2.3h1.9c-.1-.6-.1-1.2-.1-2.3v-9h8.9c1 0 1.5 0 2.3.1V890c-.6.1-1.2.1-2.3.1h-17.2c-1.1 0-1.7 0-2.3-.1v1.8c.7-.1 1.3-.1 2.3-.1h.3zm1.7 0h4.6v1.5h-4.6v-1.5zm0 2.8h4.6v1.6h-4.6v-1.6zm0 2.9h4.6v1.4c-2.2.4-2.5.4-4.6.6v-2zm15.2-4.3c-.4.1-.9.1-1.8.1h-4.3c-1 0-1.5 0-2-.1v1.7c.7-.1 1-.1 1.7-.1h5.2c-.8 1.5-1.3 2.2-2.3 3.2-.9-1-1.4-1.8-2.1-3.1l-1.4.6c1.1 2 1.3 2.4 2.3 3.5-1.2 1-2.2 1.5-3.9 2.2.5.5.7.8 1.1 1.5 1.8-.8 2.7-1.4 4-2.5 1.3 1.1 2.6 1.8 4.7 2.7.3-.6.6-1.2 1-1.6-1.9-.6-3.3-1.3-4.5-2.2 1.1-1.2 1.9-2.3 2.9-4.1.2-.4.2-.5.4-.7l-1-1.1zm-.5-9.3c0-.9 0-1.4.1-1.9-.8.1-1.5.1-2.6.1h-11.1c-1.1 0-1.8 0-2.6-.1.1.6.1 1.1.1 1.9v3.3c0 .8 0 1.4-.1 2 .9-.1 1.5-.1 2.5-.1h11.3c.9 0 1.7 0 2.4.1-.1-.6-.1-1.1-.1-2v-3.3zm-14.3-.5h12.6v1.4h-12.6v-1.4zm0 2.8h12.6v1.5h-12.6V886zm23.7-.1c0 2.5 0 2.7-.1 4.3h-2.1c-1 0-1.5 0-2.1-.1v2c.7-.1 1.3-.1 2.2-.1h1.9c-.5 3.7-1.8 6.2-4.3 8.3.5.5.9.9 1.2 1.5 2.1-2 3.3-3.9 4.1-6.6.9 1.5 1.7 2.4 3.2 3.8.4-.7.6-1 1.2-1.6-1.8-1.2-2.7-2.3-4-4.4.1-.6.1-.7.2-1.1h1.5c.8 0 1.3 0 1.9.1v-1.9c-.6.1-1.1.1-1.9.1h-1.3c.1-1.6.1-1.6.2-4.3h.7c.8 0 1.4 0 2 .1v-1.8c-.5.1-1.1.1-2 .1h-3.2c.2-.7.4-1.4.6-1.9.2-.7.2-.7.3-1.1l-1.8-.4c-.1 1.1-.1 1.1-.4 2-.6 2.1-1.2 3.6-2.5 5.2.6.3 1 .6 1.5 1.1.9-1.2 1.2-2 1.8-3.3h1.2zm6.2 14.1c-1 0-1.6 0-2.2-.1v2c.7-.1 1.2-.1 2.2-.1h9.1c1 0 1.5 0 2.2.1v-2c-.7.1-1.2.1-2.2.1h-2.3c.9-1.6 1.4-2.9 2.3-5.2l-1.8-.6c-.7 2.4-1.2 3.7-2.2 5.8h-5.1zm-1.3-15.9c.7-.1 1.3-.1 2.2-.1h7.8c1 0 1.5 0 2.2.1v-1.9c-.7.1-1.2.1-2.2.1h-7.8c-1.1 0-1.6 0-2.2-.1v1.9zm11 4.1c0-.8 0-1.2.1-1.9-.6.1-1.2.1-2.2.1h-6c-1 0-1.6 0-2.2-.1.1.6.1 1.2.1 1.9v3.6c0 .7 0 1.2-.1 1.9.6-.1 1.2-.1 2.1-.1h6.1c.9 0 1.5 0 2.1.1-.1-.7-.1-1.1-.1-1.9v-3.6zm-8.4-.2h6.6v4H481v-4zm2.4 10.6c-.6-1.9-1-2.7-2.1-4.4l-1.6.7c1.1 1.7 1.5 2.7 2 4.5l1.7-.8zm28.7-3.6v4.9c0 .6-.2.8-.8.8-.8 0-1.6-.1-2.8-.3.3.6.4 1.2.5 1.9.9 0 1.8.1 2.3.1 2.1 0 2.7-.5 2.7-2.2v-15.7c0-1.1 0-1.8.1-2.4-.6.1-1.2.1-2.4.1h-5.2c-1.1 0-1.7 0-2.4-.1.1.7.1 2.1.1 4.7 0 5.7-.3 8.2-1.1 10.3-.7 1.8-1.7 3.1-3.5 4.5.7.5 1 .8 1.5 1.4 1.5-1.3 2.2-2.2 2.9-3.6.7-1.3 1.1-2.7 1.4-4.3h6.7zm0-5.7v4.1h-6.4c.1-1.3.2-2.3.2-4.1h6.2zm0-1.6H506v-3.8h6.1v3.8zm-17.9 8.1c0 1.1 0 1.9-.1 2.6h1.9v-1.9h4.3v1.1h1.8c0-.6-.1-1.1-.1-2.4v-10.4c0-1.2 0-1.7.1-2.3-.6 0-1 .1-2.1.1h-3c-1.6 0-2.1 0-2.9-.1.1.7.1 1.3.1 2.3v11zm1.7-11.5h4.3v4.3h-4.3v-4.3zm0 5.9h4.3v4.8h-4.3v-4.8zm24.2 9.7c0 1.1 0 1.9-.1 2.7h2.1V901h12v1.5h2.1c-.1-.8-.1-1.5-.1-2.7v-15.4c0-.9 0-1.6.1-2.3-.7.1-1.4.1-2.5.1h-11c-1.1 0-1.8 0-2.6-.1.1.7.1 1.5.1 2.4v15.4zm1.9-15.8h12v6.4h-12v-6.4zm0 8.1h12v7h-12v-7zm29-6.1v5.4h-7.2c-1.1 0-1.8 0-2.5-.1v2.1c.7-.1 1.5-.1 2.5-.1h7.2v7.2c0 1 0 1.6-.1 2.3h2.2c-.1-.7-.1-1.3-.1-2.3v-7.2h7.2c1 0 1.8 0 2.5.1v-2.1c-.6.1-1.4.1-2.5.1H553v-5.4h5.9c1.1 0 1.6 0 2.2.1v-2c-.6.1-1.2.1-2.2.1h-11.5c.4-.8.6-1.4.8-1.9.3-.7.4-1.1.5-1.2v-.1l-2-.5c-.1.5-.3 1.1-.6 1.8-1.1 2.7-2.6 5-4.5 6.6.7.5.9.6 1.5 1.3 1.3-1.4 2.3-2.6 3.2-4.2h4.7zm16.9-1.7c-1.7 0-1.7 0-2.4-.1v1.9c.8-.1 1.4-.1 2.4-.1h16.3c1.1 0 1.7 0 2.4.1v-1.9c-.7.1-1.4.1-2.4.1h-4.6c.7-.8 1.5-1.8 2.4-3.1l-1.9-.6c-.8 1.6-1.4 2.5-2.5 3.7h-3.4c-.9-1.6-1.1-1.8-2.6-3.8l-1.8.6c1.2 1.3 1.7 2 2.4 3.1h-4.3zm.8 13h4.9v2.9c0 .5-.1.6-.8.6-.5 0-1.2-.1-2-.2.3.7.3.9.5 1.7.8.1 1.4.1 1.9.1 1.7 0 2.2-.4 2.2-2v-10.2c0-1.3 0-1.9.1-2.5-.5.1-.9.1-2.2.1h-4c-1 0-1.5 0-2.3-.1 0 .6.1 1 .1 2.1v10.2c0 1.2 0 1.9-.1 2.6h2c-.1-.6-.1-1.3-.1-2.5v-2.8zm0-1.6v-2.4h4.9v2.4h-4.9zm0-4v-2.4h4.9v2.4h-4.9zm9.4-3.7c.1.7.1 1.1.1 2.3v5c0 1.6 0 2-.1 2.7h2c-.1-.6-.1-.9-.1-2.7v-4.9c0-1.3 0-1.7.1-2.3h-2zm5.1-.7c.1.7.1 1.1.1 2.5v10.2c0 .6-.1.7-1.1.7-.8 0-1.8-.1-3.1-.3.3.7.4 1.2.6 1.9 1.2.1 2 .1 2.7.1 2.1 0 2.7-.5 2.7-2.3V890c0-1.3 0-1.9.1-2.6h-2zm10.7-3.6c-.6 1.9-1.2 3.3-2 4.8h-2.4l.2 2c.5-.1.7-.1 1.3-.2 5.1-.5 7.2-.8 9.1-1.1.4.6.5.8.9 1.7l1.4-1c-1.4-2.4-2-3.2-3.7-5.2l-1.4.8c.9 1 1.2 1.4 1.9 2.4-1.3.2-3.2.4-5.4.5.9-1.6 1.4-2.8 2-4.6h3.9c1 0 1.6 0 2.3.1v-2c-.7.1-1.4.1-2.6.1H592c-1.1 0-1.8 0-2.5-.1v1.9c.6-.1 1.4-.1 2.4-.1h2zm2.8 9.5v-.8c0-.9 0-1.4.1-1.9h-2c.1.5.1 1.1.1 1.9v.8h-2.4c-.9 0-1.6 0-2.3-.1v1.9c.6-.1 1.4-.1 2.2-.1h2.5v4.1c-.5.1-.5.1-2.5.4-1.8.3-2.3.4-3.1.4l.4 2c1.4-.3 1.4-.3 2.9-.6 3.6-.7 5.4-1.1 9.4-2v-1.7c-1.8.5-3 .8-5.2 1.2V895h2.8c.9 0 1.5 0 2.1.1v-1.9c-.6.1-1.2.1-2.2.1h-2.8zm6.5-10.5c.1.6.1 1.2.1 2.6v9.5c0 1.5 0 2-.1 2.7h2c-.1-.6-.1-1.1-.1-2.7v-9.5c0-1.3 0-2 .1-2.6h-2zm4.9-1.5c.1.7.2 1.6.2 2.9V900c0 .6-.2.7-1.1.7-1 0-1.9-.1-3.1-.3.3.7.4 1.2.5 1.8.9.1 1.6.2 2.6.2 2.4 0 2.9-.5 2.9-2.4v-15.8c0-1.4 0-2.3.2-2.9h-2.2zm14.8 3.5v1.5h-5.2c-1.1 0-1.6 0-2.2-.1v1.6c.6-.1 1.1-.1 2.2-.1h5.2v1.5h-7.1c-1.1 0-1.8 0-2.4-.1v1.7c.8-.1 1.3-.1 2.4-.1h2.7c-.4 1.8-1.1 3.3-2 4.8-1 1.6-2 2.8-3.7 4.1.6.4 1 .9 1.4 1.5 1.8-1.7 3-3.4 4.3-6-.1.6-.1 1.7-.1 2.4v3.3c0 .9 0 1.5-.1 2.2h1.9v-1.1h10.3v1.1h1.9c-.1-.7-.1-1.3-.1-2.2v-6.7c0-.8 0-1.2.1-2-.8.1-1.5.1-2.2.1h-10.3c.2-.6.3-.9.5-1.4h11.8c1.1 0 1.7 0 2.4.1V889c-.6.1-1.2.1-2.4.1h-7.5v-1.5h5.7c1.1 0 1.6 0 2.1.1v-1.6c-.6.1-1 .1-2.1.1h-5.7v-1.5h6.6c1 0 1.7 0 2.4.1v-1.7c-.6.1-1.3.1-2.4.1h-3.5c.6-.6 1.1-1.1 1.9-2.2l-1.8-.6c-.6 1.1-1.2 1.9-2 2.7H622c-.6-1-1.1-1.8-1.9-2.7l-1.7.5c.8.8 1.2 1.4 1.8 2.2h-3.3c-1.1 0-1.7 0-2.4-.1v1.7c.7-.1 1.4-.1 2.4-.1h6zm7.7 8.6v1.4h-10.3v-1.4h10.3zm0 2.8v1.4h-10.3v-1.4h10.3zm0 2.7v1.5h-10.3v-1.5h10.3zm18.4-2.5c0-.5-.1-1.1-.1-1.3v-1.3l.2-8.4c0-1 .1-1.8.2-2.7h-2.8c.1.9.1 1.7.2 2.7l.2 8.4V896.4h2.1zm.3 4.7v-2.5h-2.6v2.5h2.6zm20.7-8.4-7.1-7.1-.7.7 7.1 7.1-7.1 7.1.7.7 7.1-7 7.1 7 .6-.7-7.1-7.1 7.1-7.1-.6-.7-7.1 7.1zm0-6.6c-.8 0-1.5.7-1.5 1.5s.7 1.5 1.5 1.5 1.5-.7 1.5-1.5-.6-1.5-1.5-1.5zm-5.7 5.8c-.9 0-1.5.7-1.5 1.5s.7 1.5 1.5 1.5 1.5-.7 1.5-1.5c0-.9-.7-1.5-1.5-1.5zm11.4 0c-.8 0-1.5.7-1.5 1.5s.7 1.5 1.5 1.5 1.5-.7 1.5-1.5-.6-1.5-1.5-1.5zm-5.7 5.8c-.1 0-.1 0 0 0h-.1c-.7 0-1.4.8-1.4 1.5 0 .8.7 1.5 1.5 1.5s1.5-.7 1.5-1.5-.7-1.5-1.5-1.5zM384.6 881.9c-9.4 0-17.4-7.3-18.2-16.6v-.4l-.4-.1c-1.2-.2-2-.5-2.4-1-.3-.3-.5-.7-.5-1.2 0-1.3 1.6-2.4 3-3.2l.2-.1v-8.1c0-6.9 5.6-12.4 12.4-12.4h11.8c6.9 0 12.4 5.6 12.4 12.4v8.1l.2.1c1.4.7 3 1.9 3 3.2 0 .4-.2.9-.5 1.2-.4.5-1.2.7-2.4 1l-.4.1v.4c-.9 9.3-8.9 16.6-18.2 16.6zm-16.3-16.2c1 8.1 8 14.3 16.2 14.3s15.2-6.1 16.2-14.3l.1-.6h-.6c-1.2.1-2.8.1-4.9.1h-21.6c-2.1 0-3.7 0-4.9-.1h-.6l.1.6zm16.3-2.4h10.7c4.3 0 6.8-.1 8-.4l1-.2-.8-.6c-2.3-1.7-9.4-4.4-18.9-4.4-9.5 0-16.6 2.7-18.9 4.4l-.8.6 1 .2c1.3.3 3.8.4 8 .4h10.7zm-5.9-22.4c-5.8 0-10.5 4.7-10.5 10.5v7.2l.6-.2.9-.3c2.6-.9 7.9-2.3 14.9-2.3s12.3 1.5 14.9 2.3c.3.1.6.2.8.3l.6.2v-7.2c0-5.8-4.7-10.5-10.5-10.5h-11.7zM353.2 939c-.5 0-1-.4-1-1v-6.4h-.4c-3.2-.2-5.8-3-5.8-6.2v-5.7c0-3.3 2.5-6 5.8-6.2h.4v-6.4c0-.3.1-.6.2-.7l2.5-2.9V902c0-10 8.2-18.2 18.2-18.2H396c10 0 18.2 8.2 18.2 18.2v1.3l2.5 2.9c.2.2.2.4.2.7V913.6l.3.1c2.5.9 4.3 3.2 4.3 5.9v5.7c0 2.7-1.7 5.1-4.3 5.9l-.3.1v6.7c0 .5-.4 1-1 1h-62.7zm1-25.5.3.1c1.6.6 2.6 2.1 2.6 3.8v10.1c0 1.7-1.1 3.2-2.6 3.8l-.3.1v5.6H415v-5.5h-.5c-2.3 0-4.1-1.8-4.1-4.1v-10.1c0-2.2 1.8-4.1 4.1-4.1h.5l.1-.5v-5h-22.8v9.7l-3.2 2.9-2.2-2-2.2 2-2.2-2-2.2 2-3.2-2.9v-9.7h-22.7l-.2 5.8zm58.1 14.2c.1 1.1 1 1.9 2.1 1.9h.8c2.4 0 4.3-1.9 4.3-4.3v-5.7c0-2.4-1.9-4.3-4.3-4.3h-.8c-1.1 0-2 .9-2.1 1.9v.5h3.2v2h-3.1v1.7h3.1v2h-3.1v1.7h3.1v2h-3.2v.6zm-60-12.4c-2.4 0-4.3 1.9-4.3 4.3v5.7c0 2.4 1.9 4.3 4.3 4.3h.8c1.1 0 2-.9 2.1-1.9v-.5H352v-2h3.1v-1.7H352v-2h3.1v-1.7H352v-2h3.2v-.5c-.1-1.1-1-2-2.1-2h-.8zm36.7 2.6 1.2-1.1V908h-11.3v8.8l1.2 1.1 2.2-2 2.2 2 2.2-2 2.3 2zm3.3-12h21.5l-8.8-10.1h-14.8l2.1 10.1zm-13.3 0h11.2l-2.1-10.1H381l-2 10.1zm-23.6 0H377l2.1-10.1h-14.9l-8.8 10.1zm50-12.1c.3 0 .6.1.7.3l6.1 7-.2-1.6c-1.2-7.8-8.1-13.7-16-13.7h-22.8c-7.9 0-14.8 5.9-16 13.7l-.2 1.6 6.1-7c.2-.2.5-.3.7-.3h41.6z"/><path class="st6" d="M139.6 893.4c2-.6 3.7-.9 5.4-.9 3 0 5 1.6 5 4 0 1.8-1.2 3.1-2.8 3.1-.8 0-1.5-.4-1.8-1-.3-.5-.4-1.3-.4-2.5 0-.4 0-.7.1-1.2-1.2.6-1.7.8-3.1 1.2 0 1.7.1 2.6.5 3.6.7 2 2.3 3.1 4.6 3.1 3.6 0 6.4-2.7 6.4-6.4 0-4-3.3-6.8-8-6.8-2 0-3.8.2-5.7.8v-3.6c1.1-.1 1.6-.2 2.5-.4 1.9-.3 2.5-.4 3-.5l-.1-3.1c-1.4.4-3.3.8-5.4 1.1v-1.8c0-1.6 0-2.2.2-3.1h-3.5c.1.9.2 1.6.2 3.2v1.8h-2.1c-1.5 0-2.6-.1-3.4-.3v3.1h4.3c.9-.1.9-.1 1.1-.1v4.3c-1.8.8-3.1 1.5-4.1 2.4-1.5 1.3-2.4 2.8-2.4 4.1 0 1.2.5 2.3 1.5 3.2 1.4 1.2 3.5 2 5.3 2 1.3 0 2.3-.6 2.6-1.6.2-.6.2-1.2.2-2.4l-.1-5.3zm-3.2 5.1c0 .9-.1 1.2-.6 1.2s-1.2-.2-1.8-.6c-.6-.4-.9-.8-.9-1.3 0-1 1.2-2.2 3.3-3.4v4.1zm18.1-11.8c-1.5-2.2-3.1-3.9-5.5-5.7l-2.6 1.8c2.2 1.6 4.2 3.8 5.6 6l2.5-2.1zm17 3h-3.9c-1.5 0-2.2 0-3.2-.1.1.9.1 2.2.1 3.1v8.2c0 1.4-.1 2.6-.2 3.4h3.1v-1.1h11.3v1.1h3.1c-.1-.9-.1-1.7-.1-3.3v-8.2c0-1.1 0-2.1.1-3.2-.8.1-1.8.1-3.3.1h-4.1v-2.4h4.8c1.2 0 2.2 0 3.1.1 0-.5-.1-1.4-.1-2.4v-3.3c0-1.3 0-1.8.1-2.5-.9.1-1.8.1-3.2.1h-15.5c-1.7 0-2.7-.1-3.7-.1.1 1 .2 1.8.2 3.2 0 6.2-.2 9.9-.6 12.7-.4 2.9-1 4.6-2.5 6.9.9.7 1.7 1.5 2.5 2.5 2.5-3.8 3.4-8.3 3.6-17.2h8.3v2.4zm0 2.5v2.8h-4v-2.8h4zm0 5.3v3h-4v-3h4zm3 3v-3h4.3v3h-4.3zm0-5.5v-2.8h4.3v2.8h-4.3zm-11.3-10.4V882h16.2v2.6h-16.2zm32.2 3.9h.4c.3 0 .4 0 1.3.1.7 0 1.8.1 2.5.1 1.4 0 2.9 0 3.8-.1v1.8c0 4.1-.5 6.1-2 7.9-1.1 1.3-2.4 2.2-4.3 3.1 1.3 1 1.7 1.4 2.7 2.6 1.4-.8 2.2-1.4 3.1-2.1 1.6-1.4 2.6-3.1 3.2-5.4.4-1.4.6-3.7.6-6.7v-1.3c1.2-.1 1.5-.2 2.7-.5.9-.2 1.1-.2 1.6-.3l-.2-3.3c-1 .4-2.2.8-4.2 1.1-.1-1.8-.1-2.9-.1-3.2-.1-1.3-.1-1.5-.1-1.8 0-.3 0-.5.1-1l-3.6.1c.2 1 .2 1.3.4 6.2-1.5.1-1.9.1-3 .1-2.3 0-3.8-.1-5-.4v3zm-1.8 3.6c-.7 1.3-1.4 3.1-1.8 4.6 0-.4 0-.6-.1-1.1V892c0-.5.1-1.3.2-3.2.2-2.4.3-3.1.7-5.5.3-1.7.5-2.3.8-3.4l-3.7-.4c0 .6 0 .9-.2 2.1-.9 5.8-1 7.4-1 10.6s.3 5.9 1 9.1c.1.5.2.7.2 1.1l3.2-.2c.1-2 1.3-5.6 3.2-9l-2.5-1.1z"/></svg>