<svg width="398" height="452" viewBox="0 0 398 452" fill="none" xmlns="http://www.w3.org/2000/svg">
<path d="M395.014 233.358L350.412 146.214C344.264 123.466 336.016 102.442 325.548 83.8462L343.921 89.8586L324.151 51.2212H343.921C343.921 51.2212 281.912 7.05838 208.286 1.20567C208.254 1.20567 208.222 1.20567 208.182 1.19769C201.124 0.327368 193.81 0 186.217 0C85.2196 0 0 61.4894 0 162.487C0 319.336 109.389 335.672 109.389 394.487C109.389 447.577 109.389 452 109.389 452H263.053C263.053 452 263.053 398.072 263.053 375.124C263.053 352.248 290.815 357.207 311.128 357.422C338.683 357.718 354.261 338.77 351.418 301.331C350.436 288.452 351.218 274.039 352.68 260.146H378.638C395.182 260.146 402.559 248.089 395.014 233.358ZM179.031 271.508C115.529 271.508 64.0524 220.032 64.0524 156.53C64.0524 93.0285 115.529 41.5518 179.031 41.5518C242.532 41.5518 294.009 93.0285 294.009 156.53C294.009 220.032 242.524 271.508 179.031 271.508Z" fill="#00A0E8"/>
<path d="M252.8 118.603H229.413V130.579H252.8V118.603Z" fill="#00A0E8"/>
<path d="M129.095 118.603H104.79V130.579H129.095V118.603Z" fill="#00A0E8"/>
<path d="M129.103 150.541H105.253V162.518H129.103V150.541Z" fill="#00A0E8"/>
<path d="M253.264 150.541H229.414V162.518H253.264V150.541Z" fill="#00A0E8"/>
<path d="M129.095 182.479H104.79V194.456H129.095V182.479Z" fill="#00A0E8"/>
<path d="M252.8 182.479H229.413V194.456H252.8V182.479Z" fill="#00A0E8"/>
<path d="M153.304 82.5293H141.327V106.379H153.304V82.5293Z" fill="#00A0E8"/>
<path d="M153.304 206.689H141.327V230.539H153.304V206.689Z" fill="#00A0E8"/>
<path d="M185.243 82.5293H173.266V106.379H185.243V82.5293Z" fill="#00A0E8"/>
<path d="M185.243 206.689H173.266V230.539H185.243V206.689Z" fill="#00A0E8"/>
<path d="M217.181 82.5293H205.204V106.379H217.181V82.5293Z" fill="#00A0E8"/>
<path d="M217.181 206.689H205.204V230.539H217.181V206.689Z" fill="#00A0E8"/>
<path d="M141.327 118.604V194.457H217.181V118.604H141.327ZM198.816 176.093H159.692V136.968H198.816V176.093Z" fill="#00A0E8"/>
</svg>
