<svg width="960" height="311" viewBox="0 0 960 311" fill="none" xmlns="http://www.w3.org/2000/svg">
<path d="M132.855 27.6872L152.07 26.2019L152.177 27.5838L132.962 29.0691L132.855 27.6872ZM132.199 18.0511L151.238 16.5794L151.346 17.9832L132.307 19.4549L132.199 18.0511ZM133.366 21.7341L150.738 20.3913L150.843 21.7512L133.471 23.0941L133.366 21.7341ZM134.713 24.6088L149.892 23.4355L149.99 24.7077L134.812 25.881L134.713 24.6088ZM141.18 21.77L142.803 21.6445L143.722 33.5331L142.099 33.6585L141.18 21.77ZM138.519 13.6128L140.077 13.4924L140.431 18.0767L138.874 18.1971L138.519 13.6128ZM142.665 13.2923L144.244 13.1703L144.593 17.6888L143.014 17.8109L142.665 13.2923ZM141.101 27.6014L142.465 28.1139C140.601 30.5527 137.042 32.7476 133.845 33.9215C133.571 33.5234 133.039 32.9246 132.661 32.6007C135.852 31.626 139.384 29.6539 141.101 27.6014ZM143.774 27.3507C145.791 29.1807 149.606 30.5848 152.995 31.029C152.649 31.4088 152.195 32.1058 151.99 32.5851C148.584 31.9215 144.767 30.2087 142.522 27.9991L143.774 27.3507ZM147.774 13.1622L149.499 13.4923C148.956 14.7478 148.266 16.103 147.718 17.0059L146.346 16.6707C146.867 15.7036 147.479 14.2 147.774 13.1622ZM145.194 18.0395L146.937 18.324C146.465 19.3535 145.973 20.4065 145.545 21.1457L144.131 20.8358C144.51 20.0342 144.992 18.8495 145.194 18.0395ZM133.728 14.7113L135.093 14.0983C135.915 15.0277 136.833 16.3469 137.21 17.2225L135.782 17.8844C135.407 17.0308 134.509 15.688 133.728 14.7113ZM136.947 19.2507L138.481 18.8233C139.041 19.5081 139.622 20.4562 139.87 21.0989L138.274 21.5754C138.048 20.9309 137.486 19.9373 136.947 19.2507Z" fill="#00A0E8"/>
<path d="M158.842 18.6801L158.648 21.0703L170.401 22.0243L170.595 19.6342L158.842 18.6801ZM159.139 15.0182L158.949 17.3644L170.702 18.3185L170.893 15.9722L159.139 15.0182ZM157.607 13.5032L172.693 14.7279L171.979 23.5209L156.893 22.2963L157.607 13.5032ZM166.921 22.2054C168.284 24.457 171.231 26.4841 174.235 27.5446C173.836 27.8433 173.302 28.44 173.025 28.859C169.971 27.5958 167.005 25.2581 165.475 22.6177L166.921 22.2054ZM162.185 21.8209L163.562 22.5286C161.61 24.8202 158.216 26.6636 155.125 27.4942C154.895 27.0563 154.463 26.4031 154.117 26.0439C157.146 25.4291 160.435 23.7978 162.185 21.8209ZM160.052 25.5324L161.718 25.6677L161.608 27.0273C161.437 29.1323 160.695 31.7429 156.302 33.1079C156.095 32.6717 155.615 32.0589 155.269 31.6997C159.246 30.5657 159.813 28.4708 159.945 26.8481L160.052 25.5324ZM164.214 14.7679L165.881 14.9032L165.275 22.3587L163.609 22.2234L164.214 14.7679ZM167.025 26.0985L168.713 26.2355L168.092 33.8884L166.403 33.7513L167.025 26.0985Z" fill="#00A0E8"/>
<path d="M181.879 20.1524L181.511 21.6703L192.243 24.2746L192.611 22.7566L181.879 20.1524ZM182.501 17.5868L182.143 19.062L192.876 21.6663L193.234 20.1911L182.501 17.5868ZM181.221 16.0536L195.096 19.4205L193.55 25.7916L179.675 22.4247L181.221 16.0536ZM176.84 23.0047L195.676 27.575L195.354 28.9006L176.519 24.3302L176.84 23.0047ZM185.684 27.9805L193.295 29.8273L192.979 31.1314L185.368 29.2846L185.684 27.9805ZM178.94 26.4798L184.221 27.7612L183.93 28.9584L178.649 27.6771L178.94 26.4798ZM178.286 29.1736L183.567 30.455L183.277 31.6523L177.996 30.3709L178.286 29.1736ZM187.639 29.7224C188.137 33.0806 190.308 36.075 193.725 37.8549C193.31 38.0712 192.742 38.5447 192.435 38.8776C188.942 36.8528 186.801 33.6395 186.241 29.7908L187.639 29.7224ZM192.804 29.708L193.103 29.7806L193.397 29.7839L194.281 30.4287C191.817 34.4264 187.727 36.2636 183.695 36.6438C183.618 36.2174 183.352 35.5416 183.125 35.1697C186.795 34.9735 190.694 33.271 192.741 29.9645L192.804 29.708ZM174.521 31.7236C176.658 32.061 179.841 32.4711 182.938 32.8605L182.616 34.1861C179.647 33.8278 176.587 33.4701 174.323 33.1924L174.521 31.7236ZM183.941 25.1805L185.481 25.554L182.814 36.5432L181.275 36.1696L183.941 25.1805ZM178.57 23.8998L180.066 24.2629L177.955 32.9644L176.459 32.6013L178.57 23.8998Z" fill="#00A0E8"/>
<path d="M201 22.5767L218.635 29.9583L218.083 31.2774L200.448 23.8958L201 22.5767ZM209.75 23.9498L211.313 24.6038L210.234 27.1812L208.671 26.5271L209.75 23.9498ZM198.571 30.8854L213.65 37.1967L213.106 38.4955L199.509 32.8043L196.366 40.313L194.885 39.693L198.571 30.8854ZM213.021 36.9334L214.543 37.5705L211.621 44.5516C211.272 45.3836 210.903 45.7537 210.143 45.7457C209.4 45.6971 208.296 45.2587 206.611 44.5536C206.729 44.102 206.761 43.3997 206.707 42.9004C208.03 43.5016 209.166 43.9773 209.528 44.0811C209.873 44.2255 209.997 44.158 210.116 43.8739L213.021 36.9334ZM201.534 35.2022L202.894 35.7713L200.669 41.0883L199.309 40.5192L201.534 35.2022ZM202.265 35.508L209.287 38.447L207.494 42.7291L200.473 39.79L200.931 38.6941L206.573 41.0556L207.448 38.9653L201.806 36.6038L202.265 35.508ZM204.335 28.1701L203.511 30.1386L211.446 33.4599L212.27 31.4914L204.335 28.1701ZM203.341 26.4423L214.279 31.0208L212.521 35.2216L201.582 30.6432L203.341 26.4423Z" fill="#00A0E8"/>
<path d="M226.871 35.0947L224.666 38.6459L232.142 43.2878L234.347 39.7366L226.871 35.0947ZM226.342 32.9019L236.603 39.2729L232.727 45.5155L222.466 39.1444L226.342 32.9019ZM218.526 39.4429L225.179 43.5742L220.201 51.5924L218.799 50.722L222.942 44.0495L219.017 41.6125L214.781 48.4345L213.454 47.6106L218.526 39.4429ZM227.217 44.8391L234.244 49.2026L229.242 57.2581L227.841 56.3877L232.007 49.6779L227.727 47.0204L223.491 53.8424L222.145 53.0068L227.217 44.8391ZM215.515 45.6269L220.729 48.8647L219.894 50.2104L214.679 46.9726L215.515 45.6269ZM224.299 51.0812L229.85 54.5278L229.015 55.8735L223.463 52.4269L224.299 51.0812Z" fill="#00A0E8"/>
<path d="M249.526 48.0891L249.713 49.5884C248.003 48.8083 245.759 47.334 243.977 45.9975C244.114 45.738 244.297 45.2567 244.351 44.9253C246.093 46.1398 248.235 47.4968 249.526 48.0891ZM256.669 54.2914L256.825 55.793C255.032 54.941 252.669 53.3349 250.785 51.8812C250.936 51.605 251.091 51.157 251.175 50.8233C253.003 52.1408 255.264 53.6295 256.669 54.2914ZM244.32 44.288L245.423 45.939C245.306 46.0411 245.165 46.0358 244.92 45.8821L243.97 46.9807C242.92 48.1957 241.11 49.6845 238.638 49.7866C238.685 49.362 238.616 48.634 238.479 48.254C240.627 48.1912 241.961 47.0178 242.882 45.9525L244.32 44.288ZM251.101 50.236L252.231 51.8227C252.114 51.9248 251.973 51.9194 251.728 51.7657L250.893 52.7311C249.944 53.8297 248.3 55.0257 245.767 54.7266C245.847 54.3308 245.826 53.6149 245.704 53.2182C247.831 53.5157 249.001 52.6661 249.821 51.7174L251.101 50.236ZM243.139 46.6981L248.765 51.5603L247.916 52.5424L242.29 47.6801L243.139 46.6981ZM249.947 52.5817L256.288 58.0626L255.44 59.0446L249.098 53.5638L249.947 52.5817ZM245.369 49.2652L246.501 50.2434L244.17 52.9399L243.038 51.9617L245.369 49.2652ZM252.36 55.3071L253.492 56.2853L251.118 59.0318L249.986 58.0536L252.36 55.3071ZM239.323 54.2756L238.316 55.4407L246.739 62.7198L247.746 61.5546L239.323 54.2756ZM237.626 56.2397L236.59 57.4381L245.012 64.7172L246.048 63.5187L237.626 56.2397ZM241.035 52.2948L240.028 53.46L248.45 60.739L249.457 59.5738L241.035 52.2948ZM240.539 50.4124L251.425 59.8205L245.527 66.645L234.641 57.2369L240.539 50.4124ZM240.649 63.9119L242.211 64.1569C243.553 66.3052 244.934 68.7782 245.643 70.3799L243.715 69.8185C243.141 68.3629 241.945 66.0791 240.649 63.9119ZM237.313 59.8655L237.999 61.3597C235.96 60.9935 233.184 59.9322 231.117 58.9597C231.133 58.5374 231.117 57.6807 231.021 57.2197C233.052 58.3353 235.553 59.4789 237.313 59.8655Z" fill="#00A0E8"/>
<path d="M264.049 67.4999C265.278 69.601 268.229 72.9549 269.887 74.4051L268.526 75.5556C266.804 73.9283 264.049 70.6689 262.703 68.6671L264.049 67.4999ZM257.748 73.9499C257.016 74.31 256.474 74.6237 256.021 75.0071C255.248 75.6605 254.946 76.8372 256.892 79.139C258.156 80.6343 259.398 81.8312 260.854 82.9054L259.471 84.132C258.372 83.275 257.044 81.9773 255.567 80.23C253.195 77.4242 253.071 75.3688 254.65 74.0337C255.205 73.565 255.881 73.1377 256.843 72.6408L257.748 73.9499ZM262.644 63.214C262.274 63.3547 261.622 63.6748 261.263 63.8632C259.431 64.8649 256 66.8721 254.101 68.4771C253.295 69.1588 252.632 69.8057 251.894 70.6025C252.891 70.249 254.226 69.7832 255.156 69.4865L255.198 70.6609C253.65 71.2492 251.361 72.1189 250.427 72.6494C250.149 72.7979 249.801 73.0341 249.599 73.2046C249.446 73.3634 249.225 73.579 249.054 73.7521L247.962 72.6302C248.87 71.2858 250.561 69.3668 252.846 67.4352C255.316 65.3474 258.658 63.4731 260.222 62.4959C260.652 62.2196 261.114 61.915 261.498 61.6193L262.644 63.214Z" fill="#00A0E8"/>
<path d="M275.424 78.3607L284.474 93.3015L283.081 94.145L274.031 79.2042L275.424 78.3607ZM269.309 83.1706L277.47 96.6436L276.096 97.4757L267.935 84.0026L269.309 83.1706ZM261.03 85.7672L271.255 102.646L269.881 103.478L259.657 86.5993L261.03 85.7672ZM279.124 85.2762L280.024 86.7627L265.686 95.448L264.785 93.9615L279.124 85.2762Z" fill="#00A0E8"/>
<path d="M294.056 111.714L293.282 113.363C290.693 110.12 287.674 104.32 285.443 99.4565C285.813 99.2572 286.349 98.8238 286.636 98.5394C288.846 103.293 291.831 109.012 294.056 111.714ZM282.634 100.203L289.141 116.082L287.676 116.682L281.169 100.804L282.634 100.203ZM277.291 100.8L284.825 119.182L283.339 119.791L275.805 101.409L277.291 100.8ZM289.104 105.778L289.754 107.366L275.342 113.273C274.263 113.715 273.661 113.581 273.1 112.908C272.538 112.234 271.955 110.928 271.092 108.761C271.477 108.485 272.053 107.916 272.36 107.505C272.991 109.219 273.679 110.84 273.883 111.279C274.075 111.747 274.284 111.852 274.711 111.677L289.104 105.778Z" fill="#00A0E8"/>
<circle cx="144" cy="174" r="130" fill="#F5F5F5"/>
<path d="M83 208.784V210.488H95.048V208.784H83ZM83 205.904V207.56H95.048V205.904H83ZM81.248 204.608H96.824V211.76H81.248V204.608ZM78.392 213.104H99.536V214.592H78.392V213.104ZM89.048 216.104H97.592V217.568H89.048V216.104ZM81.512 216.248H87.44V217.592H81.512V216.248ZM81.512 219.272H87.44V220.616H81.512V219.272ZM91.568 217.448C92.96 220.88 96.032 223.496 100.112 224.504C99.728 224.84 99.248 225.488 99.008 225.92C94.784 224.672 91.688 221.816 90.104 217.88L91.568 217.448ZM97.04 216.104H97.376L97.688 216.032L98.792 216.488C97.208 221.36 93.344 224.36 89.168 225.8C88.976 225.368 88.52 224.72 88.184 224.384C92.024 223.232 95.72 220.424 97.04 216.392V216.104ZM78.176 222.944C80.528 222.752 84.008 222.368 87.392 221.984V223.472C84.152 223.856 80.816 224.264 78.344 224.552L78.176 222.944ZM86.48 213.584H88.208V225.92H86.48V213.584ZM80.456 213.608H82.136V223.376H80.456V213.608ZM102.56 206.144H123.416V207.704H102.56V206.144ZM111.944 203.84H113.792V206.888H111.944V203.84ZM103.616 215.528H121.448V217.064H105.368V225.944H103.616V215.528ZM120.704 215.528H122.504V223.784C122.504 224.768 122.288 225.296 121.52 225.608C120.752 225.872 119.456 225.896 117.464 225.896C117.392 225.392 117.128 224.672 116.864 224.192C118.448 224.24 119.792 224.24 120.2 224.192C120.608 224.192 120.704 224.072 120.704 223.736V215.528ZM108.416 218.624H110.024V224.912H108.416V218.624ZM109.28 218.624H117.584V223.688H109.28V222.392H115.952V219.92H109.28V218.624ZM108.272 210.368V212.696H117.656V210.368H108.272ZM106.544 209.048H119.48V214.016H106.544V209.048ZM132.224 206.6V211.16H141.824V206.6H132.224ZM130.472 204.872H143.648V212.888H130.472V204.872ZM126.992 215.432H135.536V225.728H133.736V217.16H128.696V225.92H126.992V215.432ZM138.152 215.432H147.176V225.776H145.376V217.16H139.88V225.92H138.152V215.432ZM127.76 222.896H134.456V224.624H127.76V222.896ZM139.04 222.896H146.168V224.624H139.04V222.896ZM159.032 203.912L160.256 205.016C158.288 205.592 155.384 205.976 152.96 206.144C152.888 205.832 152.696 205.304 152.504 204.992C154.808 204.752 157.544 204.344 159.032 203.912ZM169.352 203.936L170.552 205.064C168.464 205.64 165.368 206 162.776 206.144C162.704 205.808 162.512 205.328 162.344 204.992C164.792 204.776 167.72 204.392 169.352 203.936ZM152.024 204.488L154.112 205.064C154.088 205.232 153.968 205.328 153.656 205.376V206.96C153.656 208.712 153.224 211.232 151.256 213.08C150.992 212.696 150.416 212.144 150.032 211.928C151.76 210.344 152.024 208.424 152.024 206.888V204.488ZM161.864 204.56L163.928 205.064C163.904 205.232 163.784 205.328 163.472 205.376V206.768C163.472 208.352 162.968 210.512 160.664 212.072C160.448 211.688 159.92 211.112 159.536 210.872C161.504 209.6 161.864 208.064 161.864 206.696V204.56ZM152.768 207.32H160.88V208.736H152.768V207.32ZM162.584 207.32H171.728V208.736H162.584V207.32ZM156.44 207.848H158.072V211.736H156.44V207.848ZM166.52 207.848H168.152V211.808H166.52V207.848ZM155.024 216.296V217.976H167.168V216.296H155.024ZM155.024 219.128V220.856H167.168V219.128H155.024ZM155.024 213.44V215.12H167.168V213.44H155.024ZM153.272 212.24H168.968V222.08H153.272V212.24ZM162.992 223.304L164.456 222.392C167.096 223.208 170 224.264 171.728 225.08L169.736 225.992C168.224 225.2 165.608 224.168 162.992 223.304ZM157.352 222.344L158.984 223.088C157.04 224.24 153.992 225.344 151.592 226.016C151.304 225.656 150.68 224.96 150.272 224.648C152.744 224.12 155.624 223.28 157.352 222.344ZM174.488 210.752H195.584V212.576H174.488V210.752ZM186.176 211.472C187.736 217.28 191 222.128 195.992 224.192C195.536 224.6 194.936 225.368 194.624 225.872C189.44 223.424 186.176 218.36 184.376 211.904L186.176 211.472ZM184.064 203.864H186.008C185.912 210.152 185.864 221.096 175.376 225.896C175.088 225.416 174.512 224.768 174.008 224.408C184.208 219.968 184.016 209.624 184.064 203.864ZM208.04 203.84H209.84V207.512H208.04V203.84ZM199.112 206.576H219.104V210.8H217.352V207.92H200.816V210.8H199.112V206.576ZM204.488 210.344V212H213.752V210.344H204.488ZM202.784 209.192H215.528V213.128H202.784V209.192ZM201.44 204.512L203.024 204.008C203.768 204.704 204.56 205.664 204.968 206.336L203.312 206.984C202.952 206.288 202.136 205.256 201.44 204.512ZM215.12 203.912L216.944 204.44C216.2 205.4 215.312 206.336 214.616 206.96L213.176 206.48C213.824 205.76 214.688 204.656 215.12 203.912ZM203.192 217.784V219.104H215.192V217.784H203.192ZM203.192 220.184V221.552H215.192V220.184H203.192ZM203.192 215.408V216.704H215.192V215.408H203.192ZM201.464 214.28H216.968V222.656H201.464V214.28ZM205.4 222.872L207.104 223.52C205.28 224.624 202.208 225.512 199.784 226.04C199.496 225.68 198.848 224.984 198.464 224.672C200.936 224.312 203.816 223.688 205.4 222.872ZM210.896 223.832L212.264 222.8C214.88 223.424 217.832 224.264 219.56 224.936L217.76 225.968C216.2 225.344 213.56 224.504 210.896 223.832Z" fill="black"/>
<path d="M101.967 132.952H107.895V141.352C106.967 141.656 106.031 141.88 105.087 142.024C104.143 142.168 103.071 142.24 101.871 142.24C100.095 142.24 98.5992 141.888 97.3832 141.184C96.1672 140.464 95.2392 139.448 94.5992 138.136C93.9752 136.808 93.6632 135.24 93.6632 133.432C93.6632 131.64 94.0152 130.088 94.7192 128.776C95.4232 127.464 96.4312 126.448 97.7432 125.728C99.0712 124.992 100.671 124.624 102.543 124.624C103.503 124.624 104.407 124.712 105.255 124.888C106.119 125.064 106.919 125.312 107.655 125.632L106.839 127.504C106.231 127.232 105.543 127 104.775 126.808C104.023 126.616 103.239 126.52 102.423 126.52C101.063 126.52 99.8952 126.8 98.9192 127.36C97.9432 127.92 97.1992 128.72 96.6872 129.76C96.1752 130.784 95.9192 132.008 95.9192 133.432C95.9192 134.792 96.1352 136 96.5672 137.056C97.0152 138.096 97.7112 138.912 98.6552 139.504C99.5992 140.08 100.839 140.368 102.375 140.368C102.887 140.368 103.335 140.352 103.719 140.32C104.119 140.272 104.479 140.216 104.799 140.152C105.135 140.088 105.447 140.024 105.735 139.96V134.872H101.967V132.952ZM121.564 142H111.988V124.864H121.564V126.76H114.148V132.112H121.132V133.984H114.148V140.104H121.564V142ZM138.908 142H136.388L127.22 127.768H127.124C127.14 128.056 127.156 128.376 127.172 128.728C127.204 129.08 127.228 129.464 127.244 129.88C127.26 130.28 127.276 130.696 127.292 131.128C127.308 131.56 127.316 131.992 127.316 132.424V142H125.324V124.864H127.82L136.964 139.048H137.06C137.044 138.856 137.028 138.592 137.012 138.256C136.996 137.904 136.98 137.52 136.964 137.104C136.948 136.672 136.932 136.232 136.916 135.784C136.9 135.336 136.892 134.92 136.892 134.536V124.864H138.908V142ZM151.118 142L145.478 126.976H145.382C145.414 127.296 145.438 127.704 145.454 128.2C145.486 128.696 145.51 129.24 145.526 129.832C145.542 130.408 145.55 131 145.55 131.608V142H143.558V124.864H146.75L152.03 138.904H152.126L157.502 124.864H160.67V142H158.534V131.464C158.534 130.904 158.542 130.352 158.558 129.808C158.574 129.248 158.598 128.728 158.63 128.248C158.662 127.752 158.686 127.336 158.702 127H158.606L152.894 142H151.118ZM176.084 142L174.02 136.696H167.228L165.188 142H163.004L169.7 124.792H171.644L178.316 142H176.084ZM171.452 129.592C171.404 129.464 171.324 129.232 171.212 128.896C171.1 128.56 170.988 128.216 170.876 127.864C170.78 127.496 170.7 127.216 170.636 127.024C170.556 127.344 170.468 127.672 170.372 128.008C170.292 128.328 170.204 128.624 170.108 128.896C170.028 129.168 169.956 129.4 169.892 129.592L167.948 134.776H173.372L171.452 129.592ZM190.812 142H179.484V140.248L183.972 135.712C184.836 134.848 185.564 134.08 186.156 133.408C186.748 132.736 187.196 132.08 187.5 131.44C187.804 130.784 187.956 130.072 187.956 129.304C187.956 128.36 187.676 127.648 187.116 127.168C186.556 126.672 185.828 126.424 184.932 126.424C184.1 126.424 183.364 126.568 182.724 126.856C182.1 127.144 181.46 127.544 180.804 128.056L179.676 126.64C180.124 126.256 180.612 125.912 181.14 125.608C181.684 125.304 182.268 125.064 182.892 124.888C183.532 124.712 184.212 124.624 184.932 124.624C186.004 124.624 186.924 124.808 187.692 125.176C188.46 125.544 189.052 126.072 189.468 126.76C189.9 127.432 190.116 128.24 190.116 129.184C190.116 129.856 190.012 130.496 189.804 131.104C189.596 131.696 189.3 132.28 188.916 132.856C188.532 133.432 188.068 134.016 187.524 134.608C186.98 135.2 186.38 135.816 185.724 136.456L182.148 139.984V140.08H190.812V142ZM200.586 142H198.522V130.024C198.522 129.56 198.522 129.168 198.522 128.848C198.538 128.528 198.554 128.232 198.57 127.96C198.586 127.672 198.602 127.376 198.618 127.072C198.362 127.328 198.13 127.544 197.922 127.72C197.714 127.896 197.45 128.12 197.13 128.392L195.306 129.88L194.202 128.464L198.834 124.864H200.586V142Z" fill="black"/>
<path d="M64.5075 180H56.9555V178.832L59.9475 175.808C60.5235 175.232 61.0088 174.72 61.4035 174.272C61.7982 173.824 62.0968 173.387 62.2995 172.96C62.5022 172.523 62.6035 172.048 62.6035 171.536C62.6035 170.907 62.4168 170.432 62.0435 170.112C61.6702 169.781 61.1848 169.616 60.5875 169.616C60.0328 169.616 59.5422 169.712 59.1155 169.904C58.6995 170.096 58.2728 170.363 57.8355 170.704L57.0835 169.76C57.3822 169.504 57.7075 169.275 58.0595 169.072C58.4222 168.869 58.8115 168.709 59.2275 168.592C59.6542 168.475 60.1075 168.416 60.5875 168.416C61.3022 168.416 61.9155 168.539 62.4275 168.784C62.9395 169.029 63.3342 169.381 63.6115 169.84C63.8995 170.288 64.0435 170.827 64.0435 171.456C64.0435 171.904 63.9742 172.331 63.8355 172.736C63.6968 173.131 63.4995 173.52 63.2435 173.904C62.9875 174.288 62.6782 174.677 62.3155 175.072C61.9528 175.467 61.5528 175.877 61.1155 176.304L58.7315 178.656V178.72H64.5075V180ZM73.7118 174.272C73.7118 175.2 73.6424 176.027 73.5038 176.752C73.3651 177.477 73.1411 178.096 72.8318 178.608C72.5331 179.109 72.1384 179.493 71.6478 179.76C71.1678 180.027 70.5864 180.16 69.9038 180.16C69.0504 180.16 68.3411 179.925 67.7758 179.456C67.2211 178.987 66.8051 178.315 66.5278 177.44C66.2611 176.555 66.1278 175.499 66.1278 174.272C66.1278 173.035 66.2504 171.979 66.4958 171.104C66.7518 170.229 67.1571 169.563 67.7118 169.104C68.2664 168.635 68.9971 168.4 69.9038 168.4C70.7571 168.4 71.4664 168.635 72.0318 169.104C72.5971 169.563 73.0184 170.229 73.2958 171.104C73.5731 171.979 73.7118 173.035 73.7118 174.272ZM67.5358 174.272C67.5358 175.317 67.6104 176.187 67.7598 176.88C67.9198 177.573 68.1704 178.096 68.5118 178.448C68.8638 178.789 69.3278 178.96 69.9038 178.96C70.4798 178.96 70.9384 178.789 71.2798 178.448C71.6318 178.107 71.8878 177.589 72.0478 176.896C72.2078 176.192 72.2878 175.317 72.2878 174.272C72.2878 173.227 72.2078 172.363 72.0478 171.68C71.8878 170.987 71.6318 170.469 71.2798 170.128C70.9384 169.776 70.4798 169.6 69.9038 169.6C69.3278 169.6 68.8638 169.776 68.5118 170.128C68.1704 170.469 67.9198 170.987 67.7598 171.68C67.6104 172.363 67.5358 173.227 67.5358 174.272ZM82.82 180H75.268V178.832L78.26 175.808C78.836 175.232 79.3213 174.72 79.716 174.272C80.1107 173.824 80.4093 173.387 80.612 172.96C80.8147 172.523 80.916 172.048 80.916 171.536C80.916 170.907 80.7293 170.432 80.356 170.112C79.9827 169.781 79.4973 169.616 78.9 169.616C78.3453 169.616 77.8547 169.712 77.428 169.904C77.012 170.096 76.5853 170.363 76.148 170.704L75.396 169.76C75.6947 169.504 76.02 169.275 76.372 169.072C76.7347 168.869 77.124 168.709 77.54 168.592C77.9667 168.475 78.42 168.416 78.9 168.416C79.6147 168.416 80.228 168.539 80.74 168.784C81.252 169.029 81.6467 169.381 81.924 169.84C82.212 170.288 82.356 170.827 82.356 171.456C82.356 171.904 82.2867 172.331 82.148 172.736C82.0093 173.131 81.812 173.52 81.556 173.904C81.3 174.288 80.9907 174.677 80.628 175.072C80.2653 175.467 79.8653 175.877 79.428 176.304L77.044 178.656V178.72H82.82V180ZM91.9763 180H84.4243V178.832L87.4163 175.808C87.9923 175.232 88.4776 174.72 88.8723 174.272C89.2669 173.824 89.5656 173.387 89.7683 172.96C89.9709 172.523 90.0723 172.048 90.0723 171.536C90.0723 170.907 89.8856 170.432 89.5123 170.112C89.1389 169.781 88.6536 169.616 88.0563 169.616C87.5016 169.616 87.0109 169.712 86.5843 169.904C86.1683 170.096 85.7416 170.363 85.3043 170.704L84.5523 169.76C84.8509 169.504 85.1763 169.275 85.5283 169.072C85.8909 168.869 86.2803 168.709 86.6963 168.592C87.1229 168.475 87.5763 168.416 88.0563 168.416C88.7709 168.416 89.3843 168.539 89.8963 168.784C90.4083 169.029 90.8029 169.381 91.0803 169.84C91.3683 170.288 91.5123 170.827 91.5123 171.456C91.5123 171.904 91.4429 172.331 91.3043 172.736C91.1656 173.131 90.9683 173.52 90.7123 173.904C90.4563 174.288 90.1469 174.677 89.7843 175.072C89.4216 175.467 89.0216 175.877 88.5843 176.304L86.2003 178.656V178.72H91.9763V180ZM97.2445 166.512L98.4445 166.816C97.5645 169.184 96.1405 171.408 94.6525 172.848C94.4125 172.64 93.9165 172.24 93.6125 172.08C95.1325 170.752 96.4605 168.672 97.2445 166.512ZM96.9885 168.496H107.309V169.664H96.4125L96.9885 168.496ZM96.2045 172.128H106.957V173.248H97.4045V177.04H96.2045V172.128ZM93.5645 176.432H108.061V177.6H93.5645V176.432ZM101.005 169.104H102.237V181.296H101.005V169.104Z" fill="black"/>
<path d="M130.984 164.088H141.616V165.672H130.984V164.088ZM131.896 177.024H143.032V178.656H131.896V177.024ZM130.336 182.592H144.088V184.224H130.336V182.592ZM141.112 164.088H141.472L141.808 164.016L143.032 164.568C141.088 170.088 136.576 173.184 131.488 174.816C131.272 174.36 130.816 173.688 130.456 173.328C135.16 172.008 139.48 169.008 141.112 164.4V164.088ZM134.104 165.504C135.808 169.392 139.504 172.2 144.376 173.28C143.992 173.616 143.512 174.312 143.248 174.768C138.232 173.448 134.488 170.448 132.496 166.032L134.104 165.504ZM136.504 173.568H138.256V183.624H136.504V173.568ZM125.68 162.864L127.264 163.488C126.352 165.24 125.224 167.376 124.288 168.696L123.04 168.12C123.952 166.752 125.056 164.448 125.68 162.864ZM128.368 165.6L129.88 166.272C128.248 169.032 125.944 172.512 124.168 174.624L123.064 174C124.84 171.84 127.096 168.192 128.368 165.6ZM121.888 167.904L122.8 166.728C124.144 167.856 125.656 169.416 126.304 170.496L125.344 171.864C124.696 170.736 123.184 169.056 121.888 167.904ZM127.528 171.168L128.776 170.664C129.76 172.2 130.72 174.264 131.056 175.584L129.712 176.208C129.376 174.864 128.488 172.752 127.528 171.168ZM121.816 173.616C123.904 173.544 126.904 173.424 129.952 173.256L129.928 174.744C127.048 174.936 124.144 175.104 121.96 175.248L121.816 173.616ZM128.152 176.832L129.448 176.424C130.12 177.768 130.768 179.592 131.008 180.792L129.616 181.272C129.4 180.072 128.752 178.224 128.152 176.832ZM123.16 176.568L124.72 176.856C124.384 179.112 123.784 181.44 123.016 182.976C122.704 182.784 121.984 182.448 121.6 182.28C122.392 180.816 122.872 178.68 123.16 176.568ZM125.752 174.288H127.36V184.992H125.752V174.288ZM152.704 165.36H167.824V166.968H152.704V165.36ZM155.752 174.96H164.896V176.52H155.752V174.96ZM155.656 178.824H164.92V180.384H155.656V178.824ZM159.304 162.864H161.152V166.128H159.304V162.864ZM164.008 173.568H165.784V184.92H164.008V173.568ZM163.528 166.224L165.232 166.704C163 170.76 158.2 172.8 152.896 173.928C152.728 173.52 152.296 172.752 151.984 172.368C157.12 171.528 161.68 169.728 163.528 166.224ZM147.16 164.352L148.168 163.056C149.68 163.704 151.576 164.784 152.488 165.624L151.456 167.088C150.544 166.224 148.696 165.072 147.16 164.352ZM145.888 170.88L146.872 169.536C148.408 170.112 150.352 171.144 151.312 171.936L150.28 173.424C149.344 172.608 147.448 171.528 145.888 170.88ZM146.608 183.432C147.832 181.584 149.584 178.392 150.88 175.656L152.248 176.76C151.072 179.304 149.488 182.352 148.168 184.584L146.608 183.432ZM154.768 173.544H156.496V176.688C156.496 179.28 156.064 182.76 153.064 185.16C152.728 184.848 152.056 184.392 151.624 184.152C154.408 181.992 154.768 178.896 154.768 176.664V173.544ZM156.496 166.152C159.232 169.872 163.168 171.168 168.28 172.104C167.872 172.512 167.464 173.16 167.272 173.712C162.04 172.584 157.96 171 155.032 166.776L156.496 166.152ZM176.896 174.384H190.192V175.824H176.896V174.384ZM176.512 178.368H189.544V179.808H176.512V178.368ZM174.448 182.856H191.632V184.416H174.448V182.856ZM181.984 172.224H183.76V183.84H181.984V172.224ZM177.424 172.176L179.032 172.56C178.288 174.672 177.016 176.736 175.744 178.08C175.408 177.84 174.712 177.384 174.304 177.192C175.624 175.944 176.776 174.072 177.424 172.176ZM172.936 170.016H191.752V171.6H172.936V170.016ZM171.64 165H190.528V166.584H171.64V165ZM180.088 162.84H181.888V165.984H180.088V162.84ZM171.976 170.016H173.704V173.76C173.704 176.952 173.32 181.68 171.184 184.896C170.896 184.584 170.152 183.984 169.792 183.768C171.736 180.768 171.976 176.64 171.976 173.76V170.016ZM175.408 166.896L177.016 166.464C177.64 167.472 178.24 168.816 178.408 169.704L176.68 170.184C176.512 169.296 175.984 167.928 175.408 166.896ZM185.224 166.296L187.216 166.776C186.568 168 185.848 169.32 185.296 170.208L183.832 169.728C184.312 168.768 184.912 167.304 185.224 166.296ZM194.512 177.672H215.536V179.184H194.512V177.672ZM194.608 167.136H215.44V168.672H194.608V167.136ZM195.568 171.24H214.576V172.728H195.568V171.24ZM196.792 174.48H213.4V175.872H196.792V174.48ZM204.064 171.936H205.84V184.944H204.064V171.936ZM201.856 162.84H203.56V167.856H201.856V162.84ZM206.392 162.84H208.12V167.784H206.392V162.84ZM203.488 178.272L204.928 178.944C202.696 181.44 198.64 183.528 195.064 184.536C194.8 184.08 194.272 183.384 193.888 183C197.44 182.208 201.448 180.36 203.488 178.272ZM206.416 178.224C208.456 180.384 212.488 182.232 216.136 183C215.728 183.384 215.176 184.104 214.912 184.608C211.264 183.6 207.256 181.416 205 178.824L206.416 178.224ZM211.96 163.128L213.808 163.632C213.112 164.952 212.248 166.368 211.576 167.304L210.112 166.824C210.76 165.816 211.552 164.232 211.96 163.128ZM208.744 168.216L210.616 168.672C210.016 169.752 209.392 170.856 208.864 171.624L207.352 171.168C207.832 170.328 208.456 169.08 208.744 168.216ZM196.552 163.632L198.088 163.08C198.904 164.16 199.792 165.672 200.128 166.656L198.52 167.256C198.184 166.296 197.32 164.76 196.552 163.632ZM199.672 168.84L201.376 168.504C201.928 169.296 202.48 170.376 202.696 171.096L200.92 171.48C200.728 170.76 200.2 169.632 199.672 168.84ZM228.064 162.84H229.864V168.528C229.864 169.464 229.624 169.92 228.88 170.16C228.112 170.424 226.96 170.424 225.256 170.424C225.136 169.944 224.8 169.296 224.512 168.84C225.904 168.912 227.2 168.912 227.584 168.864C227.944 168.864 228.064 168.792 228.064 168.48V162.84ZM233.872 167.28L235.6 168.048C232.168 171.984 225.448 173.904 219.04 174.936C218.824 174.504 218.272 173.712 217.912 173.328C224.416 172.512 230.896 170.736 233.872 167.28ZM223.48 164.112L225.232 164.664C223.84 166.752 221.68 168.768 219.688 170.04C219.376 169.728 218.68 169.08 218.272 168.792C220.264 167.664 222.256 165.936 223.48 164.112ZM233.128 164.856L234.544 163.968C236.464 165.264 238.792 167.184 239.944 168.528L238.408 169.536C237.352 168.216 235.048 166.224 233.128 164.856ZM222.784 172.728H236.872V184.848H235.048V174.168H224.536V184.968H222.784V172.728ZM223.648 176.088H235.864V177.408H223.648V176.088ZM223.648 179.4H235.864V180.72H223.648V179.4ZM223.648 182.688H235.864V184.104H223.648V182.688Z" fill="black"/>
<path d="M32 41.856V42.992H40.032V41.856H32ZM32 39.936V41.04H40.032V39.936H32ZM30.832 39.072H41.216V43.84H30.832V39.072ZM28.928 44.736H43.024V45.728H28.928V44.736ZM36.032 46.736H41.728V47.712H36.032V46.736ZM31.008 46.832H34.96V47.728H31.008V46.832ZM31.008 48.848H34.96V49.744H31.008V48.848ZM37.712 47.632C38.64 49.92 40.688 51.664 43.408 52.336C43.152 52.56 42.832 52.992 42.672 53.28C39.856 52.448 37.792 50.544 36.736 47.92L37.712 47.632ZM41.36 46.736H41.584L41.792 46.688L42.528 46.992C41.472 50.24 38.896 52.24 36.112 53.2C35.984 52.912 35.68 52.48 35.456 52.256C38.016 51.488 40.48 49.616 41.36 46.928V46.736ZM28.784 51.296C30.352 51.168 32.672 50.912 34.928 50.656V51.648C32.768 51.904 30.544 52.176 28.896 52.368L28.784 51.296ZM34.32 45.056H35.472V53.28H34.32V45.056ZM30.304 45.072H31.424V51.584H30.304V45.072ZM45.04 40.096H58.944V41.136H45.04V40.096ZM51.296 38.56H52.528V40.592H51.296V38.56ZM45.744 46.352H57.632V47.376H46.912V53.296H45.744V46.352ZM57.136 46.352H58.336V51.856C58.336 52.512 58.192 52.864 57.68 53.072C57.168 53.248 56.304 53.264 54.976 53.264C54.928 52.928 54.752 52.448 54.576 52.128C55.632 52.16 56.528 52.16 56.8 52.128C57.072 52.128 57.136 52.048 57.136 51.824V46.352ZM48.944 48.416H50.016V52.608H48.944V48.416ZM49.52 48.416H55.056V51.792H49.52V50.928H53.968V49.28H49.52V48.416ZM48.848 42.912V44.464H55.104V42.912H48.848ZM47.696 42.032H56.32V45.344H47.696V42.032ZM64.816 40.4V43.44H71.216V40.4H64.816ZM63.648 39.248H72.432V44.592H63.648V39.248ZM61.328 46.288H67.024V53.152H65.824V47.44H62.464V53.28H61.328V46.288ZM68.768 46.288H74.784V53.184H73.584V47.44H69.92V53.28H68.768V46.288ZM61.84 51.264H66.304V52.416H61.84V51.264ZM69.36 51.264H74.112V52.416H69.36V51.264ZM82.688 38.608L83.504 39.344C82.192 39.728 80.256 39.984 78.64 40.096C78.592 39.888 78.464 39.536 78.336 39.328C79.872 39.168 81.696 38.896 82.688 38.608ZM89.568 38.624L90.368 39.376C88.976 39.76 86.912 40 85.184 40.096C85.136 39.872 85.008 39.552 84.896 39.328C86.528 39.184 88.48 38.928 89.568 38.624ZM78.016 38.992L79.408 39.376C79.392 39.488 79.312 39.552 79.104 39.584V40.64C79.104 41.808 78.816 43.488 77.504 44.72C77.328 44.464 76.944 44.096 76.688 43.952C77.84 42.896 78.016 41.616 78.016 40.592V38.992ZM84.576 39.04L85.952 39.376C85.936 39.488 85.856 39.552 85.648 39.584V40.512C85.648 41.568 85.312 43.008 83.776 44.048C83.632 43.792 83.28 43.408 83.024 43.248C84.336 42.4 84.576 41.376 84.576 40.464V39.04ZM78.512 40.88H83.92V41.824H78.512V40.88ZM85.056 40.88H91.152V41.824H85.056V40.88ZM80.96 41.232H82.048V43.824H80.96V41.232ZM87.68 41.232H88.768V43.872H87.68V41.232ZM80.016 46.864V47.984H88.112V46.864H80.016ZM80.016 48.752V49.904H88.112V48.752H80.016ZM80.016 44.96V46.08H88.112V44.96H80.016ZM78.848 44.16H89.312V50.72H78.848V44.16ZM85.328 51.536L86.304 50.928C88.064 51.472 90 52.176 91.152 52.72L89.824 53.328C88.816 52.8 87.072 52.112 85.328 51.536ZM81.568 50.896L82.656 51.392C81.36 52.16 79.328 52.896 77.728 53.344C77.536 53.104 77.12 52.64 76.848 52.432C78.496 52.08 80.416 51.52 81.568 50.896ZM44.992 65.168H59.056V66.384H44.992V65.168ZM52.784 65.648C53.824 69.52 56 72.752 59.328 74.128C59.024 74.4 58.624 74.912 58.416 75.248C54.96 73.616 52.784 70.24 51.584 65.936L52.784 65.648ZM51.376 60.576H52.672C52.608 64.768 52.576 72.064 45.584 75.264C45.392 74.944 45.008 74.512 44.672 74.272C51.472 71.312 51.344 64.416 51.376 60.576ZM67.36 60.56H68.56V63.008H67.36V60.56ZM61.408 62.384H74.736V65.2H73.568V63.28H62.544V65.2H61.408V62.384ZM64.992 64.896V66H71.168V64.896H64.992ZM63.856 64.128H72.352V66.752H63.856V64.128ZM62.96 61.008L64.016 60.672C64.512 61.136 65.04 61.776 65.312 62.224L64.208 62.656C63.968 62.192 63.424 61.504 62.96 61.008ZM72.08 60.608L73.296 60.96C72.8 61.6 72.208 62.224 71.744 62.64L70.784 62.32C71.216 61.84 71.792 61.104 72.08 60.608ZM64.128 69.856V70.736H72.128V69.856H64.128ZM64.128 71.456V72.368H72.128V71.456H64.128ZM64.128 68.272V69.136H72.128V68.272H64.128ZM62.976 67.52H73.312V73.104H62.976V67.52ZM65.6 73.248L66.736 73.68C65.52 74.416 63.472 75.008 61.856 75.36C61.664 75.12 61.232 74.656 60.976 74.448C62.624 74.208 64.544 73.792 65.6 73.248ZM69.264 73.888L70.176 73.2C71.92 73.616 73.888 74.176 75.04 74.624L73.84 75.312C72.8 74.896 71.04 74.336 69.264 73.888Z" fill="black"/>
<path d="M115.365 68.3022C114.262 68.6488 112.914 69.1239 111.489 69.3583C110.881 69.4595 110.262 69.5158 109.642 69.5113C109.663 69.4438 109.683 69.3763 109.703 69.3086C110.104 67.9464 110.448 66.5279 110.694 65.3664C110.941 64.2069 111.097 63.3085 111.16 62.9844C111.349 62.0366 111.477 61.3522 111.693 60.8703C111.912 60.3861 112.22 60.1027 112.74 59.945C114.829 59.4362 116.743 58.0719 118.083 56.0164C119.425 53.9745 120.177 51.2525 119.965 48.3349C119.828 46.5024 119.429 45.7055 118.895 45.5524C118.357 45.3994 117.668 45.8834 116.817 46.5724C115.964 47.2636 114.942 48.1528 113.769 48.8618C113.267 49.1679 112.736 49.4405 112.182 49.6568C112.062 48.3959 111.891 47.1239 111.72 46.0838C111.54 44.974 111.371 44.1274 111.317 43.819C110.998 42.0133 110.862 41.223 111.689 40.5928C113.371 39.4357 114.611 37.5848 115.113 35.3179C115.622 33.0597 115.379 30.3965 114.229 27.8863C113.501 26.3104 112.884 25.7408 112.36 25.7835C111.831 25.824 111.376 26.4814 110.845 27.3728C110.313 28.2688 109.699 29.3969 108.891 30.4166C108.544 30.8559 108.161 31.2721 107.743 31.648C107.281 30.7002 106.799 29.7796 106.374 29.0118C105.858 28.0797 105.433 27.3772 105.288 27.1185C104.426 25.6077 104.057 24.9435 104.597 24.1196C105.739 22.5526 106.268 20.5107 106.02 18.3336C105.779 16.1612 104.753 13.865 102.967 11.9759C101.842 10.7918 101.119 10.4698 100.662 10.6657C100.198 10.8661 99.9845 11.5908 99.775 12.5546C99.5657 13.5183 99.3519 14.7183 98.9378 15.8799C98.762 16.373 98.5483 16.8547 98.2916 17.314C97.7804 16.8005 97.2808 16.3144 96.8329 15.8956C96.0538 15.1662 95.4369 14.6258 95.2185 14.4256C93.935 13.2525 93.3791 12.7348 93.6402 11.7846C94.2482 9.94314 94.1265 7.83563 93.2239 5.84109C92.33 3.84655 90.646 1.97341 88.3653 0.723714C86.929 -0.060041 86.1411 -0.147698 85.7651 0.183242C85.3847 0.513947 85.4047 1.27075 85.5017 2.25232C85.594 3.18865 85.7497 4.33241 85.7293 5.50781C84.9547 4.60264 83.8967 3.90256 82.7079 3.35318C81.3167 2.70466 79.234 2.27927 77.4352 2.41872C75.6319 2.54951 74.1483 3.22474 73.8014 4.47186C73.4503 5.72601 74.2922 7.03617 75.4338 8.19118C76.5865 9.33939 78.0497 10.3594 79.2274 10.9064C80.2786 11.3902 81.3232 11.7528 82.4243 11.8226C82.3746 11.8608 82.3252 11.8993 82.2757 11.9375C81.3167 12.6647 80.3487 13.2725 79.6078 13.8307C78.8672 14.3846 78.3516 14.8843 78.2681 15.3617C78.1849 15.8412 78.5339 16.2868 79.5199 16.8273C81.0846 17.6851 82.8045 18.0249 84.59 17.9441C86.3686 17.8562 88.2101 17.352 89.8536 16.3634C90.6957 15.9066 91.2969 16.3051 92.4744 17.3923C92.6748 17.577 93.2127 18.1107 93.879 18.8333C94.2596 19.2453 94.6782 19.7204 95.1062 20.2227C94.6536 20.4364 94.1898 20.6211 93.7283 20.7831C92.5935 21.1794 91.4858 21.4609 90.6102 21.7623C89.732 22.0642 89.0905 22.3768 88.8629 22.8071C88.6379 23.2393 88.8338 23.7728 89.6082 24.5879C90.8375 25.8894 92.3706 26.7402 94.093 27.2108C95.8131 27.6747 97.7221 27.7558 99.5887 27.3189C100.532 27.1412 100.98 27.704 101.766 29.0999C101.901 29.3385 102.25 30.0116 102.662 30.9009C103.002 31.637 103.382 32.5265 103.735 33.4314C103.168 33.5057 102.599 33.5327 102.04 33.5392C100.777 33.5552 99.5795 33.4649 98.6045 33.4741C97.6321 33.483 96.8844 33.5845 96.5153 33.9334C96.1438 34.2871 96.1548 34.8768 96.6435 35.9374C97.4158 37.6211 98.6406 38.9676 100.183 40.0146C101.727 41.0524 103.591 41.793 105.595 42.0115C106.592 42.1669 106.84 42.8805 107.126 44.5376C107.173 44.8191 107.281 45.607 107.371 46.6336C107.457 47.5974 107.522 48.7678 107.538 49.9228C106.964 49.7855 106.405 49.6076 105.867 49.414C104.616 48.9638 103.465 48.4369 102.501 48.0947C101.54 47.7478 100.766 47.5767 100.273 47.7863C99.7771 47.9956 99.5701 48.5742 99.6599 49.7878C99.7996 51.7128 100.504 53.4891 101.637 55.0831C102.769 56.6703 104.327 58.0887 106.216 59.0544C106.68 59.3178 106.903 59.6443 106.968 60.1262C107.036 60.6081 106.948 61.2383 106.77 62.105C106.711 62.3999 106.52 63.2127 106.216 64.2505C105.917 65.2883 105.502 66.5493 105.041 67.7493C105.016 67.8102 104.994 67.8688 104.971 67.9274C104.469 67.5716 104.001 67.1821 103.553 66.7881C102.508 65.8583 101.59 64.8993 100.782 64.1921C99.9735 63.4829 99.2844 63.017 98.7215 63.0261C98.1519 63.035 97.7286 63.5146 97.348 64.7122C96.7358 66.6123 96.7335 68.5804 97.1997 70.5702C97.6703 72.5516 98.6113 74.553 100.054 76.2571C100.736 77.1419 100.392 77.9029 99.3496 79.436C99.1717 79.6971 98.6516 80.4042 97.9335 81.2845C97.2177 82.1625 96.2945 83.2094 95.3511 84.1777C95.2004 84.3352 95.0474 84.4884 94.8962 84.6391C94.5697 84.0898 94.2817 83.5223 94.0206 82.9596C93.406 81.6223 92.926 80.3142 92.4423 79.2921C91.9628 78.2679 91.4898 77.5317 90.9451 77.2999C90.3957 77.0702 89.7877 77.3449 88.9234 78.3288C87.541 79.8822 86.7148 81.7601 86.3208 83.8648C85.9358 85.9585 85.9831 88.2842 86.6293 90.5403C86.904 91.6838 86.2444 92.2625 84.5806 93.2757C84.297 93.4468 83.4931 93.897 82.4239 94.4213C81.3544 94.9484 80.017 95.5381 78.6933 96.0402C77.3695 96.549 75.5639 97.3257 74.6025 97.6634C62.0783 102.065 47.003 103.965 37.669 110.825C36.2144 111.894 39.1052 116.01 40.3819 115.69C41.6583 115.373 50.8327 109.868 73.7988 103.587C74.7623 103.247 79.4248 101.727 80.85 101.045C82.2797 100.365 83.7092 99.5907 84.8483 98.9265C85.9876 98.2602 86.8409 97.7087 87.1559 97.5195C88.0723 96.9568 88.7277 96.5445 89.288 96.358C89.8463 96.1691 90.3102 96.2026 90.8323 96.5066C91.832 97.1595 92.9689 97.6142 94.1982 97.8416C95.4273 98.0668 96.7511 98.0624 98.0999 97.8102C99.4461 97.5556 100.822 97.0536 102.132 96.297C103.445 95.5428 104.696 94.5364 105.788 93.305C107.162 91.7492 107.488 90.7993 107.195 90.2588C106.9 89.7118 105.978 89.5496 104.766 89.4167C103.553 89.2885 102.049 89.1781 100.577 88.8021C99.9552 88.6446 99.3407 88.4398 98.7531 88.1764C98.9085 87.994 99.0615 87.8093 99.2146 87.6223C100.169 86.4673 101.092 85.2359 101.811 84.2138C102.529 83.1895 103.049 82.3788 103.244 82.0908C104.382 80.3976 104.877 79.657 106.025 79.781C108.261 80.1368 110.679 79.5804 112.82 78.1059C113.887 77.3697 114.882 76.4083 115.726 75.2556C116.573 74.1051 117.268 72.7588 117.746 71.2797C118.34 69.4155 118.259 68.47 117.799 68.1119C117.333 67.7507 116.469 67.9555 115.365 68.3022Z" fill="#4B4B4B"/>
<path d="M46.1065 103.554C48.995 102.437 52.0454 101.49 55.1366 100.609C51.8159 99.704 48.5267 98.7608 45.3973 97.6621C44.4359 97.3244 42.6305 96.5476 41.3067 96.0388C39.983 95.5368 38.6456 94.9471 37.5764 94.42C36.5069 93.8954 35.7032 93.4452 35.4194 93.2743C33.7556 92.2611 33.096 91.6824 33.3707 90.5389C34.0169 88.2828 34.064 85.9571 33.6792 83.8634C33.2852 81.7587 32.459 79.8809 31.0766 78.3274C30.2123 77.3435 29.6043 77.0688 29.0552 77.2985C28.5102 77.5303 28.0375 78.2665 27.558 79.2907C27.0737 80.3128 26.5919 81.6209 25.9797 82.9582C25.7186 83.521 25.4303 84.0884 25.1038 84.6378C24.9531 84.4869 24.8001 84.3336 24.6489 84.1763C23.7057 83.2083 22.7828 82.1614 22.0665 81.2832C21.3484 80.4028 20.8283 79.696 20.6504 79.4346C19.6079 77.9016 19.2613 77.1406 19.9456 76.2558C21.3889 74.5516 22.33 72.5501 22.8004 70.5689C23.2663 68.579 23.2639 66.611 22.6518 64.7109C22.2714 63.5132 21.8481 63.0337 21.2783 63.0248C20.7156 63.0159 20.0267 63.4818 19.2184 64.1908C18.4102 64.8979 17.4915 65.8567 16.4469 66.7867C15.999 67.1807 15.5307 67.5703 15.0287 67.926C15.0062 67.8675 14.9837 67.8089 14.9612 67.7479C14.4973 66.5479 14.0832 65.2872 13.7837 64.2491C13.4799 63.2113 13.2884 62.3985 13.2301 62.1037C13.0524 61.2369 12.9645 60.6065 13.032 60.1248C13.0972 59.643 13.3203 59.3165 13.7839 59.053C15.673 58.0874 17.2311 56.6689 18.3655 55.0817C19.4956 53.4878 20.2025 51.7114 20.3401 49.7865C20.4322 48.5729 20.2229 47.9942 19.7277 47.7849C19.2346 47.5756 18.4602 47.7467 17.4988 48.0933C16.535 48.4355 15.3847 48.9624 14.1352 49.4126C13.5947 49.6062 13.0365 49.7839 12.4625 49.9215C12.4805 48.7665 12.5436 47.5958 12.6291 46.6322C12.7191 45.6057 12.8272 44.8177 12.8743 44.5362C13.1602 42.8794 13.408 42.1655 14.4052 42.0101C16.4089 41.7917 18.2729 41.051 19.8174 40.0132C21.3596 38.9663 22.5845 37.62 23.3568 35.936C23.8452 34.8755 23.8565 34.2858 23.4852 33.9321C23.1158 33.5833 22.3684 33.4819 21.3957 33.4727C20.4207 33.4638 19.2231 33.5538 17.9602 33.5379C17.402 33.5313 16.8322 33.5041 16.2648 33.4301C16.6182 32.5249 16.9988 31.6357 17.3387 30.8995C17.7507 30.0103 18.0997 29.3371 18.2349 29.0985C19.0206 27.7026 19.4687 27.1399 20.4118 27.3175C22.2782 27.7544 24.1874 27.6733 25.9075 27.2095C27.6299 26.7388 29.163 25.8881 30.392 24.5866C31.1667 23.7716 31.3624 23.2382 31.1374 22.8058C30.91 22.3757 30.2683 22.0628 29.3903 21.7609C28.5145 21.4593 27.4068 21.1778 26.2719 20.7817C25.8104 20.6195 25.3469 20.4348 24.8943 20.2213C25.322 19.7193 25.7408 19.244 26.1236 18.8319C26.7878 18.1096 27.3259 17.5757 27.5261 17.391C28.7034 16.3037 29.3045 15.9053 30.1466 16.3621C31.7901 17.3507 33.6318 17.8548 35.4103 17.9427C37.1958 18.0236 38.9156 17.6837 40.4803 16.8259C41.4666 16.2854 41.8153 15.8399 41.7321 15.3603C41.6489 14.8829 41.133 14.383 40.3924 13.8294C39.6518 13.2711 38.6838 12.6634 37.7247 11.9361C37.6751 11.8979 37.6256 11.8595 37.5761 11.8212C38.677 11.7514 39.7216 11.3891 40.773 10.9051C41.9505 10.358 43.414 9.33803 44.5667 8.18982C45.7081 7.03481 46.5499 5.72465 46.2012 4.4705C45.8522 3.22315 44.3684 2.54791 42.5651 2.41736C40.7662 2.27791 38.6838 2.7033 37.2923 3.35182C36.1036 3.9012 35.0456 4.60128 34.2712 5.50644C34.251 4.33128 34.4062 3.18752 34.4985 2.25096C34.5953 1.26939 34.6157 0.512586 34.2351 0.181881C33.8594 -0.149293 33.0714 -0.061402 31.6349 0.722353C29.3542 1.97181 27.6705 3.84495 26.7765 5.83973C25.8737 7.83427 25.7521 9.94178 26.3598 11.7833C26.6209 12.7334 26.065 13.2512 24.7818 14.4242C24.5633 14.6244 23.9462 15.1649 23.1676 15.8942C22.7195 16.3131 22.2196 16.7994 21.7084 17.3127C21.4518 16.8533 21.2378 16.3717 21.0625 15.8785C20.6481 14.717 20.4343 13.517 20.2248 12.5532C20.0155 11.5895 19.8015 10.8648 19.3377 10.6644C18.8809 10.4684 18.1581 10.7905 17.0323 11.9745C15.2471 13.8636 14.2203 16.16 13.9796 18.3322C13.7321 20.5096 14.2611 22.5515 15.4025 24.1183C15.943 24.9423 15.5736 25.6063 14.7113 27.1171C14.5672 27.3759 14.1415 28.0785 13.6262 29.0104C13.2005 29.7782 12.7187 30.6989 12.2572 31.6467C11.8386 31.2707 11.4558 30.8545 11.1092 30.4153C10.3008 29.3957 9.68629 28.2674 9.15496 27.3714C8.62386 26.4799 8.16893 25.8227 7.63995 25.7821C7.11541 25.7392 6.49853 26.309 5.77361 27.8849C4.62094 30.3953 4.3779 33.0586 4.88673 35.3165C5.38853 37.5837 6.62908 39.4345 8.31097 40.5914C9.13714 41.2217 9.00214 42.012 8.68034 43.8176C8.62831 44.1261 8.45956 44.9726 8.27722 46.0824C8.10823 47.1226 7.93714 48.3948 7.81807 49.6555C7.26401 49.4394 6.73268 49.1668 6.22853 48.8605C5.05782 48.1512 4.03571 47.262 3.18258 46.5711C2.33156 45.882 1.64249 45.398 1.10459 45.5511C0.571154 45.7041 0.17248 46.5012 0.0353697 48.3336C-0.176272 51.2513 0.575842 53.9734 1.91741 56.015C3.25687 58.0705 5.17056 59.4348 7.26002 59.9436C7.7801 60.1014 8.08831 60.3847 8.30675 60.869C8.52284 61.3508 8.65128 62.0352 8.84019 62.9831C8.90347 63.3072 9.05839 64.2056 9.30636 65.365C9.55152 66.5266 9.89606 67.945 10.2968 69.3072C10.3172 69.3747 10.3374 69.4422 10.3578 69.51C9.73879 69.5142 9.11957 69.4579 8.51159 69.3569C7.08658 69.1225 5.73798 68.6475 4.63477 68.3008C3.5318 67.9544 2.66718 67.7493 2.20101 68.1096C1.74163 68.4677 1.66077 69.4132 2.25515 71.2774C2.73234 72.7565 3.4282 74.1026 4.27454 75.2534C5.11899 76.406 6.11392 77.3674 7.18127 78.1036C9.3223 79.5781 11.7401 80.1342 13.9758 79.7787C15.1238 79.6547 15.6191 80.3953 16.756 82.0885C16.952 82.3765 17.472 83.1872 18.1902 84.2115C18.9083 85.2338 19.8313 86.465 20.7861 87.62C20.9392 87.807 21.0922 87.9917 21.2474 88.1741C20.66 88.4373 20.0453 88.6423 19.4239 88.7998C17.9516 89.1758 16.4476 89.2862 15.2342 89.4144C14.0232 89.5475 13.1 89.7095 12.8049 90.2565C12.5124 90.797 12.8389 91.7469 14.2121 93.3027C15.3038 94.5341 16.5556 95.5405 17.8681 96.2947C19.1785 97.0511 20.5541 97.5533 21.9006 97.8079C23.2489 98.0598 24.5727 98.0645 25.802 97.8393C27.0313 97.6119 28.1683 97.1572 29.1679 96.5043C29.6903 96.2005 30.1539 96.1668 30.7122 96.3557C31.2728 96.5425 31.9281 96.9547 32.8443 97.5172C33.1593 97.7064 34.0129 98.2579 35.152 98.9242C36.2911 99.5884 37.7208 100.363 39.1505 101.043C40.5321 101.706 44.9672 103.158 46.1065 103.554Z" fill="#4B4B4B"/>
<path d="M73.7642 106.242C70.1597 107.237 66.9065 108.214 63.9775 109.151C74.1605 112.818 78.7442 115.47 79.6177 115.688C80.8941 116.008 83.7849 111.893 82.3285 110.824C79.8338 108.989 76.9252 107.512 73.7642 106.242Z" fill="#4B4B4B"/>
<circle cx="511" cy="172" r="130" fill="#F5F5F5"/>
<path d="M503.677 29.4837L505.3 29.3582L505.7 34.5348L504.077 34.6602L503.677 29.4837ZM501.957 23.7913L503.483 24.4015C502.393 25.4346 501.04 26.488 499.992 27.2089L498.825 26.6592C499.867 25.8725 501.208 24.6656 501.957 23.7913ZM506.948 24.1336L508.435 24.8131C506.283 26.6564 503.27 28.787 500.945 30.1141L499.835 29.4497C502.178 28.077 505.179 25.7929 506.948 24.1336ZM496.726 26.6229L497.729 25.6186C499.474 26.2118 501.69 27.188 502.854 27.9806L501.773 29.1233C500.675 28.3256 498.476 27.282 496.726 26.6229ZM507.768 27.0271L508.824 26.129C510.805 26.9247 513.221 28.2163 514.472 29.267L513.359 30.2798C512.176 29.246 509.752 27.8666 507.768 27.0271ZM507.644 31.1408L508.781 30.1483C510.676 30.6858 513.091 31.6686 514.413 32.4932L513.218 33.6005C512.008 32.7894 509.588 31.7408 507.644 31.1408ZM494.965 29.5392C499.045 29.2239 505.748 28.5954 512.035 27.9991L512.042 29.2342C505.914 29.8844 499.346 30.5466 495.139 30.938L494.965 29.5392ZM500.122 30.8838L501.637 31.3624C500.241 32.7061 498.073 34.0652 496.244 34.9568C495.959 34.692 495.323 34.1674 494.93 33.933C496.833 33.146 498.884 31.9945 500.122 30.8838ZM504.004 15.4467L511.527 14.8651L511.636 16.269L504.112 16.8505L504.004 15.4467ZM494.917 23.497L503.954 22.7984L504.048 24.0048L495.011 24.7034L494.917 23.497ZM494.331 15.9076L503.346 15.2107L503.439 16.4171L495.981 16.9936L496.529 24.0785L494.972 24.1989L494.331 15.9076ZM495.425 18.3606L503.168 17.762L503.453 21.447L495.71 22.0456L495.627 20.9708L501.834 20.4909L501.714 18.9336L495.506 19.4134L495.425 18.3606ZM498.47 16.0731L499.852 15.9663L500.06 18.6642L498.678 18.771L498.47 16.0731ZM498.866 21.2058L500.248 21.099L500.455 23.775L499.073 23.8818L498.866 21.2058ZM506.071 16.7874C507.591 19.8915 510.552 22.2222 514.25 22.9734C513.923 23.3076 513.508 23.9355 513.321 24.3692C509.474 23.4088 506.474 20.8604 504.742 17.2873L506.071 16.7874ZM511.155 14.894L511.462 14.8702L511.742 14.7824L512.756 15.057C511.828 19.8949 508.75 22.8911 505.057 24.5005C504.853 24.1412 504.436 23.5997 504.105 23.3164C507.489 21.9956 510.382 19.1682 511.173 15.1352L511.155 14.894Z" fill="#00A0E8"/>
<path d="M519.664 18.9665L533.983 20.1288L533.353 27.8913L518.573 26.6915L518.684 25.332L531.84 26.4L532.248 21.3785L519.552 20.3479L519.664 18.9665ZM522.403 15.6793L529.924 16.2898L529.814 17.6494L522.292 17.0388L522.403 15.6793ZM519.621 22.2077L532.734 23.2721L532.629 24.5658L519.516 23.5014L519.621 22.2077ZM523.114 13.9933L524.863 14.4664C523.301 16.8558 520.998 19.3838 517.761 21.1958C517.53 20.7798 517.047 20.2108 516.673 19.9156C519.714 18.3525 521.912 16.0147 523.114 13.9933ZM521.705 28.6233L523.306 28.7532L523.044 31.9766C523 32.5248 523.188 32.6505 524.285 32.7395C524.767 32.7786 527.311 32.9851 527.99 33.0403C528.889 33.1133 529.068 32.8187 529.354 30.6568C529.661 30.9466 530.322 31.243 530.753 31.3663C530.338 34.0255 529.804 34.6223 528.006 34.4763C527.546 34.4389 524.476 34.1897 524.037 34.1541C521.801 33.9725 521.312 33.4693 521.442 31.8686L521.705 28.6233ZM523.271 27.8234L524.387 26.8545C525.79 27.5202 527.424 28.6019 528.213 29.4826L527.044 30.5576C526.299 29.6804 524.67 28.5329 523.271 27.8234ZM530.694 29.6399L532.094 28.981C533.548 30.3792 535.153 32.3636 535.813 33.7415L534.273 34.4994C533.656 33.125 532.121 31.1021 530.694 29.6399ZM519.072 28.1667L520.52 28.814C519.784 30.5421 518.742 32.2233 516.968 33.1388L515.689 32.0417C517.319 31.269 518.435 29.7484 519.072 28.1667ZM529.551 16.2596L529.902 16.288L530.172 16.2217L531.254 17.0379C530.42 18.3387 529.104 19.8652 528.101 20.7991C527.814 20.533 527.272 20.1359 526.914 19.9302C527.845 19.0567 528.98 17.5817 529.526 16.5666L529.551 16.2596Z" fill="#00A0E8"/>
<path d="M549.893 22.7702L555.687 24.176L555.381 25.4374L549.587 24.0316L549.893 22.7702ZM548.875 26.0321L555.182 27.5625L554.876 28.8239L548.569 27.2935L548.875 26.0321ZM552.536 21.4872L553.84 21.8037L552.419 27.6617L551.115 27.3452L552.536 21.4872ZM549.006 18.6837L558.348 20.9507L558.006 22.3618L548.663 20.0947L549.006 18.6837ZM549.158 29.157L554.054 30.345L552.711 35.8823L547.815 34.6943L548.115 33.4543L551.771 34.3414L552.518 31.2627L548.863 30.3756L549.158 29.157ZM548.495 28.9962L549.714 29.2919L548.168 35.663L546.95 35.3673L548.495 28.9962ZM557.75 20.8054L559.246 21.1686L555.179 37.9302C554.951 38.8709 554.634 39.3373 553.973 39.4486C553.307 39.5813 552.233 39.3433 550.629 38.9542C550.669 38.5111 550.653 37.7375 550.527 37.2314C551.687 37.5809 552.804 37.8293 553.173 37.8961C553.493 37.9739 553.6 37.9091 553.683 37.5671L557.75 20.8054ZM548.193 18.4865L549.668 18.8445L547.806 26.5198C546.991 29.8764 545.61 34.5442 543.046 37.2726C542.857 36.9324 542.325 36.3278 542.003 36.0686C544.413 33.5067 545.563 29.326 546.331 26.1618L548.193 18.4865ZM539.72 22.3391L545.214 23.6723L544.903 24.9551L539.409 23.6219L539.72 22.3391ZM541.233 16.6619L546.535 17.9484L546.224 19.2312L540.922 17.9446L541.233 16.6619ZM539.025 25.204L544.519 26.5372L544.208 27.82L538.713 26.4867L539.025 25.204ZM539.549 19.2188L546.454 20.8944L546.133 22.2199L539.227 20.5443L539.549 19.2188ZM539.073 28.2718L543.797 29.4183L542.288 35.6397L537.563 34.4933L537.885 33.1677L541.263 33.9874L542.129 30.417L538.751 29.5973L539.073 28.2718ZM538.282 28.0798L539.607 28.4015L537.854 35.6278L536.528 35.3061L538.282 28.0798Z" fill="#00A0E8"/>
<path d="M564.113 31.1736L561.106 38.3576L559.645 37.746L562.057 31.9825L559.48 30.9038L560.074 29.4832L564.113 31.1736ZM561.361 37.7488C561.686 39.6498 563.183 41.0873 565.564 42.1793C567.774 43.2237 572.488 45.125 575.011 45.9905C574.684 46.259 574.143 46.8674 573.895 47.2883C571.56 46.4299 567.2 44.6527 564.969 43.5999C562.333 42.3772 560.784 40.8939 560.196 38.764C558.938 39.2629 557.639 39.7448 556.251 40.213L556.08 38.4003C557.244 38.1246 558.722 37.6701 560.042 37.1967L561.361 37.7488ZM563.043 22.9032L564.548 22.5553C565.424 23.9952 566.259 25.9901 566.472 27.2478L564.814 27.675C564.671 26.4225 563.865 24.4158 563.043 22.9032ZM568.658 30.2857L570.093 30.5046C570.296 31.3291 570.337 32.3716 570.233 33.0196L568.679 32.7988C568.824 32.1678 568.812 31.1135 568.658 30.2857ZM569.128 25.6884L579.701 30.114L579.225 31.2505L568.652 26.8249L569.128 25.6884ZM565.401 34.193L576.4 38.797L575.925 39.9335L564.925 35.3295L565.401 34.193ZM565.683 31.3538L578.265 36.6203L577.781 37.7771L565.199 32.5106L565.683 31.3538ZM566.655 27.7778L579.968 33.3502L579.475 34.5272L566.162 28.9549L566.655 27.7778ZM563.273 36.4268L576.221 41.8463L575.728 43.0233L562.781 37.6039L563.273 36.4268ZM574.206 25.9776L575.728 26.6147L573.647 31.5867L572.125 30.9496L574.206 25.9776ZM570.799 34.1155L572.322 34.7525L569.077 42.5048L567.555 41.8678L570.799 34.1155ZM575.322 32.598L576.634 33.624C575.876 34.2371 575.09 34.862 574.495 35.257L573.451 34.3905C574.039 33.8973 574.864 33.1219 575.322 32.598Z" fill="#00A0E8"/>
<path d="M591.169 38.8164C592.985 40.4364 596.826 42.7174 598.85 43.586L597.91 45.0999C595.771 44.0824 592.145 41.8311 590.247 40.3419L591.169 38.8164ZM587.163 46.8946C586.577 47.463 586.159 47.9283 585.845 48.433C585.311 49.2927 585.387 50.5051 587.948 52.095C589.611 53.1278 591.162 53.8835 592.878 54.4567L591.94 56.0499C590.631 55.5734 588.968 54.7481 587.024 53.5412C583.903 51.6032 583.151 49.6862 584.242 47.9293C584.625 47.3125 585.136 46.6977 585.898 45.9282L587.163 46.8946ZM588.511 35.1723C588.202 35.4204 587.681 35.9257 587.397 36.2157C585.963 37.7334 583.318 40.7005 582.006 42.8125C581.449 43.7096 581.018 44.5294 580.562 45.5149C581.402 44.8711 582.528 44.0166 583.321 43.4476L583.723 44.5518C582.432 45.5887 580.522 47.1218 579.797 47.9145C579.578 48.1413 579.32 48.4732 579.181 48.6975C579.084 48.896 578.94 49.1693 578.831 49.3865L577.446 48.656C577.896 47.0969 578.913 44.7502 580.491 42.2083C582.197 39.4608 584.798 36.6478 585.986 35.2357C586.309 34.8407 586.655 34.4082 586.929 34.0086L588.511 35.1723Z" fill="#00A0E8"/>
<path d="M609.3 54.0863L617.09 60.8187L616.04 62.0338L608.25 55.3014L609.3 54.0863ZM603.139 46.5803L610.879 53.2695L609.872 54.4347L602.132 47.7455L603.139 46.5803ZM617.328 54.0165L618.577 55.0954L606.795 68.7277C606.076 69.56 605.543 69.7392 604.842 69.5406C604.156 69.3255 603.278 68.6251 601.846 67.3879C602.099 66.9952 602.419 66.2544 602.567 65.7133C603.587 66.6529 604.519 67.4585 604.816 67.6864C605.113 67.9143 605.302 67.9318 605.561 67.6322L617.328 54.0165ZM606.52 57.6735L607.969 58.0827C607.776 59.9217 607.251 62.1435 606.64 63.389L605.081 62.9723C605.695 61.7578 606.312 59.5291 606.52 57.6735ZM600.591 50.5717L602.094 50.6494C602.283 54.535 602.079 59.4474 601.39 62.196L599.658 62.1818C600.409 59.4287 600.735 54.4762 600.591 50.5717ZM608.677 46.5981L609.876 47.6339L606.927 51.0461L605.728 50.0104L608.677 46.5981ZM606.878 52.5159L607.951 53.7635C602.772 58.04 598.085 60.0659 592.876 59.4314C592.925 59.0378 592.907 58.1501 592.842 57.6869C597.709 58.5491 602.163 56.5246 606.878 52.5159Z" fill="#00A0E8"/>
<path d="M621.568 71.3089L622.619 72.5522L616.083 78.0771C615.495 78.5742 615.525 78.7797 616.079 79.4349C616.334 79.7373 617.613 81.2494 617.953 81.6527C618.522 82.3247 619.044 82.0562 621.584 80.0524C621.591 80.5369 621.815 81.2113 621.998 81.6326C619.112 83.8416 618.072 84.1448 616.865 82.7167C616.609 82.4142 615.047 80.5661 614.792 80.2637C613.527 78.7684 613.621 78.0269 615.049 76.8197L621.568 71.3089ZM618.177 70.2286L618.891 71.5841C616.875 72.9138 614.302 74.3686 612.219 74.6312L611.786 73.0962C613.776 72.8258 616.226 71.5325 618.177 70.2286ZM623.794 69.8876L625.342 70.0485C625.806 71.9607 626.213 74.555 626.179 76.082L624.471 75.9701C624.548 74.4935 624.222 71.8592 623.794 69.8876ZM624.783 78.213L626.188 78.9552C625.409 81.5437 624.036 84.5196 622.779 86.1003L621.238 85.2999C622.506 83.767 623.973 80.7989 624.783 78.213ZM629.302 66.7586L630.395 68.0523L627.539 70.4668L626.446 69.1731L629.302 66.7586ZM622.391 62.9792L633.682 76.3361L632.472 77.3587L621.181 64.0018L622.391 62.9792ZM621.879 62.3744L622.945 63.6345L618.593 67.313C616.006 69.5003 612.01 72.4749 608.235 73.1889C608.268 72.7858 608.153 71.9331 608.031 71.5171C611.615 70.8495 615.109 68.0982 617.528 66.0529L621.879 62.3744Z" fill="#00A0E8"/>
<path d="M456.548 184H453.796V168.032C453.796 167.413 453.796 166.891 453.796 166.464C453.817 166.037 453.838 165.643 453.86 165.28C453.881 164.896 453.902 164.501 453.924 164.096C453.582 164.437 453.273 164.725 452.996 164.96C452.718 165.195 452.366 165.493 451.94 165.856L449.508 167.84L448.036 165.952L454.212 161.152H456.548V184ZM472.3 169.984C473.857 169.984 475.212 170.251 476.364 170.784C477.516 171.317 478.401 172.085 479.02 173.088C479.66 174.069 479.98 175.275 479.98 176.704C479.98 178.283 479.639 179.648 478.956 180.8C478.273 181.931 477.292 182.805 476.012 183.424C474.753 184.021 473.228 184.32 471.436 184.32C470.263 184.32 469.153 184.213 468.108 184C467.084 183.787 466.22 183.477 465.516 183.072V180.416C466.284 180.885 467.212 181.259 468.3 181.536C469.409 181.792 470.465 181.92 471.468 181.92C472.599 181.92 473.58 181.749 474.412 181.408C475.265 181.045 475.927 180.501 476.396 179.776C476.865 179.029 477.1 178.101 477.1 176.992C477.1 175.499 476.641 174.357 475.724 173.568C474.807 172.757 473.356 172.352 471.372 172.352C470.775 172.352 470.092 172.405 469.324 172.512C468.556 172.619 467.937 172.725 467.468 172.832L466.06 171.936L466.924 161.152H478.38V163.712H469.324L468.78 170.336C469.143 170.272 469.633 170.197 470.252 170.112C470.871 170.027 471.553 169.984 472.3 169.984ZM489.253 172.456V175.24H498.541V172.456H489.253ZM487.573 171.064H500.293V176.632H487.573V171.064ZM492.637 175.96L494.653 176.152C494.221 177.352 493.717 178.6 493.309 179.464L491.749 179.176C492.085 178.264 492.469 176.896 492.637 175.96ZM485.869 178.552H502.213V185.92H500.413V180.16H487.597V185.944H485.869V178.552ZM486.781 183.448H501.205V185.032H486.781V183.448ZM484.021 167.656H503.893V172.384H502.141V169.216H485.677V172.384H484.021V167.656ZM500.581 164.056L502.453 164.704C501.469 166.024 500.317 167.488 499.381 168.448L497.941 167.824C498.829 166.816 499.957 165.208 500.581 164.056ZM485.437 164.848L486.973 164.176C487.837 165.136 488.821 166.456 489.229 167.344L487.621 168.088C487.213 167.2 486.301 165.832 485.437 164.848ZM491.437 164.368L492.997 163.816C493.741 164.824 494.581 166.264 494.893 167.2L493.261 167.824C492.949 166.888 492.157 165.424 491.437 164.368ZM507.325 178.672H528.349V180.184H507.325V178.672ZM507.421 168.136H528.253V169.672H507.421V168.136ZM508.381 172.24H527.389V173.728H508.381V172.24ZM509.605 175.48H526.213V176.872H509.605V175.48ZM516.877 172.936H518.653V185.944H516.877V172.936ZM514.669 163.84H516.373V168.856H514.669V163.84ZM519.205 163.84H520.933V168.784H519.205V163.84ZM516.301 179.272L517.741 179.944C515.509 182.44 511.453 184.528 507.877 185.536C507.613 185.08 507.085 184.384 506.701 184C510.253 183.208 514.261 181.36 516.301 179.272ZM519.229 179.224C521.269 181.384 525.301 183.232 528.949 184C528.541 184.384 527.989 185.104 527.725 185.608C524.077 184.6 520.069 182.416 517.812 179.824L519.229 179.224ZM524.773 164.128L526.621 164.632C525.925 165.952 525.061 167.368 524.389 168.304L522.925 167.824C523.573 166.816 524.365 165.232 524.773 164.128ZM521.557 169.216L523.429 169.672C522.829 170.752 522.205 171.856 521.677 172.624L520.165 172.168C520.645 171.328 521.269 170.08 521.557 169.216ZM509.365 164.632L510.901 164.08C511.717 165.16 512.605 166.672 512.941 167.656L511.333 168.256C510.997 167.296 510.133 165.76 509.365 164.632ZM512.485 169.84L514.189 169.504C514.741 170.296 515.293 171.376 515.509 172.096L513.733 172.48C513.541 171.76 513.013 170.632 512.485 169.84ZM534.037 165.472H549.757V185.56H547.861V167.296H535.885V185.656H534.037V165.472ZM535.261 173.8H548.653V175.576H535.261V173.8ZM535.237 182.296H548.701V184.096H535.237V182.296ZM555.685 168.208C556.597 168.184 557.365 168.136 557.845 168.088C559.381 167.92 563.917 167.488 568.333 167.104C570.973 166.888 573.205 166.744 574.813 166.696L574.837 168.616C573.445 168.592 571.357 168.64 570.133 168.976C566.701 170.08 564.613 173.752 564.613 176.584C564.613 181.264 569.005 182.776 572.893 182.92L572.197 184.888C567.757 184.72 562.717 182.368 562.717 176.992C562.717 173.272 564.997 170.2 567.181 168.904C564.613 169.168 558.493 169.768 555.901 170.32L555.685 168.208ZM571.357 171.544C571.909 172.336 572.821 173.824 573.349 174.904L572.101 175.456C571.549 174.304 570.877 173.08 570.157 172.072L571.357 171.544ZM573.973 170.536C574.573 171.328 575.509 172.792 576.061 173.848L574.837 174.448C574.261 173.296 573.541 172.096 572.797 171.088L573.973 170.536Z" fill="black"/>
<path d="M493 121.784V123.488H505.048V121.784H493ZM493 118.904V120.56H505.048V118.904H493ZM491.248 117.608H506.824V124.76H491.248V117.608ZM488.392 126.104H509.536V127.592H488.392V126.104ZM499.048 129.104H507.592V130.568H499.048V129.104ZM491.512 129.248H497.44V130.592H491.512V129.248ZM491.512 132.272H497.44V133.616H491.512V132.272ZM501.568 130.448C502.96 133.88 506.032 136.496 510.112 137.504C509.728 137.84 509.248 138.488 509.008 138.92C504.784 137.672 501.688 134.816 500.104 130.88L501.568 130.448ZM507.04 129.104H507.376L507.688 129.032L508.792 129.488C507.208 134.36 503.344 137.36 499.168 138.8C498.976 138.368 498.52 137.72 498.184 137.384C502.024 136.232 505.72 133.424 507.04 129.392V129.104ZM488.176 135.944C490.528 135.752 494.008 135.368 497.392 134.984V136.472C494.152 136.856 490.816 137.264 488.344 137.552L488.176 135.944ZM496.48 126.584H498.208V138.92H496.48V126.584ZM490.456 126.608H492.136V136.376H490.456V126.608ZM521.56 117.896H533.8V119.576H521.56V117.896ZM520.504 136.736H534.016V138.416H520.504V136.736ZM523.24 131L524.8 130.64C525.4 132.248 525.952 134.36 526.12 135.728L524.464 136.16C524.344 134.768 523.816 132.632 523.24 131ZM530.224 130.496L532.048 130.904C531.424 132.728 530.704 134.96 530.08 136.304L528.568 135.896C529.168 134.504 529.888 132.128 530.224 130.496ZM524.224 123.824V128.048H531.04V123.824H524.224ZM522.52 122.216H532.792V129.656H522.52V122.216ZM516.448 120.92H518.176V125.648C518.176 129.632 517.456 135.2 513.112 138.848C512.896 138.464 512.224 137.792 511.888 137.576C515.968 134.144 516.448 129.296 516.448 125.624V120.92ZM514.264 119.984H521.344V121.64H514.264V119.984ZM512.032 126.488H521.632V128.168H512.032V126.488ZM517.648 129.608C518.416 130.328 521.152 133.472 521.776 134.24L520.6 135.728C519.784 134.432 517.504 131.624 516.568 130.592L517.648 129.608ZM514.456 116.96L516.184 117.272C515.608 120.392 514.624 123.416 513.328 125.408C512.992 125.144 512.2 124.712 511.768 124.544C513.088 122.696 513.976 119.84 514.456 116.96Z" fill="black"/>
<path d="M464.56 207.144H485.416V208.704H464.56V207.144ZM473.944 204.84H475.792V207.888H473.944V204.84ZM465.616 216.528H483.448V218.064H467.368V226.944H465.616V216.528ZM482.704 216.528H484.504V224.784C484.504 225.768 484.288 226.296 483.52 226.608C482.752 226.872 481.456 226.896 479.464 226.896C479.392 226.392 479.128 225.672 478.864 225.192C480.448 225.24 481.792 225.24 482.2 225.192C482.608 225.192 482.704 225.072 482.704 224.736V216.528ZM470.416 219.624H472.024V225.912H470.416V219.624ZM471.28 219.624H479.584V224.688H471.28V223.392H477.952V220.92H471.28V219.624ZM470.272 211.368V213.696H479.656V211.368H470.272ZM468.544 210.048H481.48V215.016H468.544V210.048ZM493.264 214.32V222.816H491.512V216H488.152V214.32H493.264ZM493.264 222.024C494.392 223.8 496.528 224.616 499.288 224.736C501.904 224.832 507.304 224.76 510.136 224.568C509.944 225 509.632 225.864 509.56 226.416C506.92 226.512 501.952 226.56 499.288 226.464C496.168 226.344 494.008 225.504 492.472 223.608C491.32 224.64 490.096 225.672 488.8 226.728L487.84 224.88C488.992 224.112 490.408 223.056 491.632 222.024H493.264ZM488.416 206.52L489.736 205.44C491.32 206.448 493.12 208.008 493.96 209.184L492.544 210.36C491.776 209.208 489.976 207.576 488.416 206.52ZM497.296 212.352V215.4H506.824V212.352H497.296ZM495.616 210.888H508.576V216.864H495.616V210.888ZM494.632 207.36H509.656V208.92H494.632V207.36ZM501.088 204.888H502.816V223.824H501.088V204.888ZM500.488 216.288L501.808 216.792C500.392 219.36 497.776 221.856 495.352 223.128C495.088 222.696 494.56 222.072 494.176 221.76C496.552 220.728 499.168 218.496 500.488 216.288ZM503.248 216.288C504.688 218.4 507.424 220.608 509.8 221.64C509.392 222 508.84 222.6 508.576 223.056C506.224 221.784 503.488 219.24 501.976 216.864L503.248 216.288ZM526.336 214.008L527.584 213C529.096 215.232 530.896 218.136 531.76 220.008L530.416 221.136C529.576 219.264 527.824 216.24 526.336 214.008ZM521.2 209.352H532.504V211.032H522.808V226.92H521.2V209.352ZM531.784 209.352H533.416V224.88C533.416 225.84 533.248 226.368 532.6 226.632C531.976 226.92 530.944 226.944 529.432 226.944C529.36 226.488 529.12 225.72 528.88 225.264C529.984 225.312 531.064 225.288 531.352 225.288C531.664 225.288 531.784 225.192 531.784 224.856V209.352ZM526.672 204.84H528.376C528.232 211.896 527.824 218.016 523.84 221.352C523.6 221.016 523.048 220.464 522.664 220.224C526.312 217.176 526.576 211.416 526.672 204.84ZM515.68 204.864L517.264 205.488C516.352 207.24 515.224 209.376 514.288 210.696L513.04 210.12C513.952 208.752 515.056 206.448 515.68 204.864ZM518.368 207.6L519.88 208.272C518.248 211.032 515.944 214.512 514.168 216.624L513.064 216C514.84 213.84 517.096 210.192 518.368 207.6ZM511.888 209.904L512.8 208.728C514.144 209.856 515.656 211.416 516.304 212.496L515.344 213.864C514.696 212.736 513.184 211.056 511.888 209.904ZM517.528 213.168L518.776 212.664C519.76 214.2 520.72 216.264 521.056 217.584L519.712 218.208C519.376 216.864 518.488 214.752 517.528 213.168ZM511.816 215.616C513.904 215.544 516.904 215.424 519.952 215.256L519.928 216.744C517.048 216.936 514.144 217.104 511.96 217.248L511.816 215.616ZM518.152 218.832L519.448 218.424C520.12 219.768 520.768 221.592 521.008 222.792L519.616 223.272C519.4 222.072 518.752 220.224 518.152 218.832ZM513.16 218.568L514.72 218.856C514.384 221.112 513.784 223.44 513.016 224.976C512.704 224.784 511.984 224.448 511.6 224.28C512.392 222.816 512.872 220.68 513.16 218.568ZM515.752 216.288H517.36V226.992H515.752V216.288ZM542.224 207.6V212.16H551.824V207.6H542.224ZM540.472 205.872H553.648V213.888H540.472V205.872ZM536.992 216.432H545.536V226.728H543.736V218.16H538.696V226.92H536.992V216.432ZM548.152 216.432H557.176V226.776H555.376V218.16H549.88V226.92H548.152V216.432ZM537.76 223.896H544.456V225.624H537.76V223.896ZM549.04 223.896H556.168V225.624H549.04V223.896Z" fill="black"/>
<path d="M346.04 38.5225L336.558 65.1854C335.614 67.4324 335 71.0742 335 72.8071C335 74.5401 335 83.3215 335 83.3215C335 86.1744 337.335 88.517 340.195 88.517H346.415C347.041 94.9638 352.471 99.9999 359.081 99.9999C365.691 99.9999 371.125 94.9638 371.751 88.5173H383.254V33.9565H353.714C350.858 33.9565 347.403 36.0126 346.04 38.5225ZM359.081 93.633C355.567 93.633 352.714 90.7801 352.714 87.266C352.714 83.752 355.567 80.907 359.081 80.907C362.599 80.907 365.448 83.7517 365.448 87.266C365.448 90.7803 362.599 93.633 359.081 93.633ZM377.277 40.7299V61.006H346.953L352.913 42.7462C353.435 41.782 355.208 40.7302 356.3 40.7302L377.277 40.7299Z" fill="#4B4B4B"/>
<path d="M390.537 27.1992V88.5173H428.048C428.666 94.9638 434.1 99.9999 440.71 99.9999C447.324 99.9999 452.751 94.9638 453.384 88.5173H465.557V27.1992H390.537ZM440.711 93.633C437.197 93.633 434.344 90.7801 434.344 87.266C434.344 83.752 437.197 80.907 440.711 80.907C444.229 80.907 447.078 83.7517 447.078 87.266C447.078 90.7804 444.229 93.633 440.711 93.633Z" fill="#4B4B4B"/>
<ellipse cx="455.765" cy="27.1993" rx="27.1993" ry="27.1993" fill="white"/>
<path d="M447.813 23.9426L454.7 29.2562L454.796 29.3111L454.839 29.3351C455.435 29.6668 456.223 29.491 456.749 28.9123L456.795 28.8684L465.236 18.8809C465.717 18.3422 465.725 17.5667 465.257 17.151C464.789 16.7343 464.02 16.8343 463.542 17.3728L455.651 25.8024L449.559 21.5601C448.989 21.1405 448.135 21.3353 447.652 21.9938C447.17 22.6504 447.241 23.5239 447.813 23.9426Z" fill="#4B4B4B"/>
<path d="M439.237 27.1982C439.237 26.8333 439.245 26.4687 439.283 26.1108H434.96C434.933 26.4686 434.926 26.8333 434.926 27.1982C434.926 27.5699 434.933 27.9287 434.96 28.2874H439.283C439.245 27.9287 439.237 27.5649 439.237 27.1982Z" fill="#4B4B4B"/>
<path d="M446.884 13.2593C447.293 13.0005 447.71 12.7566 448.134 12.5398L448.299 12.4598L446.144 8.71826C445.605 8.99004 445.08 9.29179 444.57 9.62264L446.726 13.3662L446.884 13.2593Z" fill="#4B4B4B"/>
<path d="M437.285 17.5774L441.028 19.732L441.934 18.16L438.189 16.0044C437.858 16.5141 437.557 17.0378 437.285 17.5774Z" fill="#4B4B4B"/>
<path d="M470.425 34.8293C470.201 35.254 469.964 35.6697 469.698 36.0725L469.59 36.2303L473.334 38.3859C473.666 37.8762 473.968 37.3595 474.246 36.8209L470.512 34.6582L470.425 34.8293Z" fill="#4B4B4B"/>
<path d="M441.107 34.8221L441.02 34.6582L437.285 36.8129C437.55 37.3516 437.858 37.8762 438.189 38.3859L441.934 36.2303L441.825 36.0725C441.566 35.6696 441.323 35.2539 441.107 34.8221Z" fill="#4B4B4B"/>
<path d="M446.884 41.1313L446.726 41.0234L444.57 44.7679C445.08 45.0988 445.605 45.4075 446.144 45.6804L448.299 41.9368L448.134 41.8569C447.71 41.6409 447.293 41.3971 446.884 41.1313Z" fill="#4B4B4B"/>
<path d="M463.225 12.4537L464.798 13.3662L466.953 9.62264C466.444 9.29179 465.925 8.99004 465.388 8.71826L463.225 12.4537Z" fill="#4B4B4B"/>
<path d="M454.678 43.6807V47.999C455.037 48.0309 455.4 48.0379 455.765 48.0379C456.13 48.0379 456.495 48.0309 456.852 47.999V43.6807V43.6357H454.678V43.6807Z" fill="#4B4B4B"/>
<path d="M456.852 10.718V6.39983C456.495 6.36775 456.13 6.36084 455.765 6.36084C455.4 6.36084 455.037 6.36775 454.678 6.39983V10.718V10.763H456.852V10.718Z" fill="#4B4B4B"/>
<path d="M463.225 41.9439L465.388 45.6804C465.925 45.3996 466.444 45.0988 466.953 44.7679L464.798 41.0234L463.225 41.9439Z" fill="#4B4B4B"/>
<path d="M474.246 17.5774C473.973 17.0378 473.666 16.5142 473.334 16.0044L469.59 18.16L470.504 19.732L474.246 17.5774Z" fill="#4B4B4B"/>
<path d="M476.571 26.1108H472.248H472.203V28.2874H472.248H476.571C476.598 27.9287 476.604 27.5649 476.604 27.1982C476.604 26.8333 476.598 26.4686 476.571 26.1108Z" fill="#4B4B4B"/>
<path d="M455.764 0C440.741 0.000956226 428.566 12.177 428.565 27.1993C428.566 42.2216 440.741 54.3976 455.764 54.3986C470.787 54.3976 482.962 42.2216 482.963 27.1993C482.962 12.177 470.787 0.000956226 455.764 0ZM455.764 50.8889C449.217 50.8878 443.305 48.2405 439.013 43.9504C434.723 39.6572 432.076 33.746 432.075 27.1993C432.076 20.6526 434.723 14.7404 439.013 10.4492C443.305 6.15788 449.217 3.51062 455.764 3.50967C462.311 3.51073 468.223 6.15799 472.515 10.4492C476.805 14.7404 479.453 20.6515 479.453 27.1993C479.453 33.746 476.805 39.6572 472.515 43.9504C468.223 48.2407 462.311 50.8879 455.764 50.8889Z" fill="#4B4B4B"/>
<circle cx="830" cy="181" r="130" fill="#F5F5F5"/>
<path d="M821.879 16.2096L823.648 16.5363C822.842 18.3859 821.84 20.5595 820.957 21.9738L819.561 21.6183C820.397 20.1635 821.365 17.838 821.879 16.2096ZM817.97 21.3C820.703 20.9784 825.095 20.4182 829.268 19.8751L829.354 21.2806C825.406 21.8726 821.237 22.4597 818.333 22.8606L817.97 21.3ZM825.908 18.3695L827.193 17.5861C828.658 18.841 830.336 20.5648 831.114 21.7844L829.724 22.6421C828.993 21.4629 827.352 19.648 825.908 18.3695ZM818.726 34.7899C821.608 34.3906 826.124 33.7325 830.418 33.0476L830.513 34.5627C826.395 35.2341 822.035 35.9242 819.049 36.3978L818.726 34.7899ZM827.391 31.2736L828.703 30.5543C830.136 31.9661 831.721 33.9177 832.378 35.2791L831.027 36.0676C830.372 34.7281 828.849 32.7275 827.391 31.2736ZM820.525 26.0894L820.765 29.2041L828.947 28.5716L828.706 25.4569L820.525 26.0894ZM818.903 24.8025L830.177 23.931L830.635 29.8534L819.36 30.7249L818.903 24.8025ZM816.172 27.154L817.707 27.0353C817.707 27.0353 817.746 27.5398 817.743 27.7828C817.887 33.3543 817.783 35.4365 817.226 36.2297C816.867 36.7209 816.482 36.883 815.851 36.998C815.284 37.0859 814.232 37.1673 813.13 37.1863C813.071 36.7054 812.822 36.0626 812.523 35.6224C813.607 35.649 814.66 35.5676 815.076 35.5353C815.449 35.5065 815.643 35.4474 815.825 35.2347C816.249 34.7166 816.337 32.7238 816.194 27.4392L816.172 27.154ZM811.555 23.0977L813.025 22.9841C813.021 25.2131 812.956 28.0866 812.852 29.882L811.364 29.7543C811.495 28.023 811.585 25.1917 811.555 23.0977ZM812.18 27.4626L816.786 27.1065L816.899 28.5761L812.14 28.9441L812.18 27.4626ZM823.498 21.7333L825.077 21.6112L826.065 34.399L824.493 34.6089L823.498 21.7333ZM811.994 23.0638L815.745 22.7739L815.485 19.4179L810.901 19.7723L810.787 18.3026L816.951 17.8262L817.441 24.1653L812.111 24.5773L811.994 23.0638Z" fill="#00A0E8"/>
<path d="M834.653 20.4501L851.669 21.8314L851.534 23.4979L834.518 22.1166L834.653 20.4501ZM851.033 21.7797L852.744 21.9186C852.744 21.9186 852.672 22.5308 852.628 22.7921C851.387 31.8293 850.662 35.0592 849.608 36.0773C849.03 36.6705 848.489 36.8032 847.651 36.8013C846.876 36.8267 845.476 36.6689 844.124 36.4709C844.141 35.9867 843.981 35.2453 843.713 34.7379C845.193 34.9905 846.595 35.1264 847.143 35.1709C847.625 35.21 847.894 35.1656 848.2 34.9256C849.099 34.1819 849.859 30.8003 851.005 22.1306L851.033 21.7797ZM842.21 16.2738L843.942 16.4144L843.632 20.2299C843.226 25.2294 842.062 31.9553 834.012 35.9591C833.803 35.5448 833.239 34.881 832.867 34.5639C840.5 30.8131 841.532 24.6283 841.9 20.0892L842.21 16.2738Z" fill="#00A0E8"/>
<path d="M857.566 22.439C858.336 22.7165 859.245 22.9823 860.164 23.2054C862.473 23.7656 865.235 24.1413 867.89 23.9255L867.549 25.518C865.314 25.5868 862.399 25.3776 859.796 24.7233C859.005 24.5314 858.091 24.2869 857.305 24.0736L857.566 22.439ZM866.001 20.7958C865.469 21.7759 864.532 23.6767 863.651 25.0701C861.878 27.8998 858.967 31.3136 856.611 33.2775L855.172 32.0229C857.615 30.2611 860.526 26.938 862.015 24.6279C862.812 23.3951 863.739 21.6278 864.166 20.1468L866.001 20.7958ZM869.444 28.6264C869.167 29.4874 869.011 30.1287 868.846 30.9036C868.551 32.3036 867.955 35.6 867.613 37.0111C867.198 38.7215 865.77 39.8466 863.119 39.2033C860.767 38.6326 859.093 37.2302 859.612 35.0923C860.089 33.1253 862.25 32.3367 864.644 32.9177C868.236 33.7892 870.558 36.2543 871.943 38.1977L870.692 39.4336C869.409 37.5376 867.412 35.0382 864.27 34.2756C862.687 33.8917 861.442 34.3592 861.204 35.3427C860.965 36.3261 861.633 37.2126 863.3 37.6173C865.075 38.0478 865.902 37.2524 866.182 36.0979C866.576 34.473 867.269 30.589 867.755 28.2165L869.444 28.6264ZM873.585 30.2198C872.669 28.9562 870.655 27.0865 869.405 26.0814L870.571 25.0061C871.971 26.0476 874.05 28.0235 874.889 29.0422L873.585 30.2198Z" fill="#00A0E8"/>
<path d="M888.69 35.1286L890.232 35.7742L885.331 47.4838L883.788 46.8382L888.69 35.1286ZM881.515 35.6314L894.686 41.1443L894.1 42.5446L880.929 37.0317L881.515 35.6314ZM889.18 39.4837C889.378 42.4286 890.725 45.8781 892.427 48.0216C891.984 48.1698 891.267 48.5139 890.851 48.7687C889.233 46.4223 888.026 42.6972 887.816 39.4375L889.18 39.4837ZM886.909 38.4139L887.919 39.3615C885.388 41.593 881.733 43.259 878.732 43.6485C878.621 43.1728 878.375 42.4498 878.178 42.0094C881.045 41.8262 884.594 40.3546 886.909 38.4139ZM887.672 29.2411L886.117 32.9549L893.687 36.1233L895.241 32.4095L887.672 29.2411ZM886.8 27.2783L897.312 31.6784L894.611 38.1319L884.099 33.7318L886.8 27.2783ZM885.072 25.4817L886.326 26.5312C883.51 29.3833 879.952 31.9008 876.797 33.2275C876.779 32.8145 876.685 31.8447 876.553 31.3605C879.39 30.282 882.604 28.0737 885.072 25.4817ZM880.77 29.8341L882.814 28.9963L882.825 29.0251L876.65 43.7788L875.189 43.1672L880.77 29.8341Z" fill="#00A0E8"/>
<path d="M909.002 38.6405L918.571 44.5822L917.736 45.9279L908.166 39.9862L909.002 38.6405ZM899.635 52.35L910.12 58.8603L909.296 60.1873L898.811 53.677L899.635 52.35ZM910.103 48.336L914.421 51.0168L913.585 52.3625L909.268 49.6817L910.103 48.336ZM913.032 41.8677L914.415 42.7265L905.526 57.0433L904.142 56.1845L913.032 41.8677ZM906.874 43.8192L908.201 44.6431L901.992 54.6424L900.665 53.8185L906.874 43.8192ZM899.582 39.214L904.853 42.4865L904.168 43.5893L898.898 40.3167L899.582 39.214ZM902.862 34.1812L908.002 37.3725L907.306 38.4939L902.166 35.3026L902.862 34.1812ZM898.004 41.7559L903.275 45.0284L902.578 46.1498L897.308 42.8773L898.004 41.7559ZM900.317 36.0706L907.12 40.2948L906.401 41.4536L899.597 37.2294L900.317 36.0706ZM897.087 44.7342L901.76 47.6354L898.371 53.093L893.698 50.1918L894.418 49.033L897.857 51.1683L899.795 48.047L896.356 45.9117L897.087 44.7342ZM896.395 44.3048L897.61 45.0591L893.688 51.3765L892.473 50.6222L896.395 44.3048Z" fill="#00A0E8"/>
<path d="M925.715 48.689L926.595 50.0599C923.198 52.0385 919.238 53.5591 915.981 54.0303C916.093 53.6322 916.287 52.6666 916.313 52.1656C919.204 51.8146 922.727 50.4975 925.715 48.689ZM920.506 51.6887L922.692 51.5139L922.694 51.5449L912.236 63.6459L911.054 62.6245L920.506 51.6887ZM931.208 53.4361L932.423 54.4863L919.318 69.65L918.103 68.5998L931.208 53.4361ZM923.666 52.6752L934.568 62.0976L933.532 63.2961L922.63 53.8736L923.666 52.6752ZM918.938 62.0816L925.596 67.8358L924.618 68.9676L917.96 63.2135L918.938 62.0816ZM929.642 58.9158C928.015 62.7152 927.171 67.3936 927.766 70.6413C927.279 70.5988 926.489 70.6719 925.968 70.8034C925.56 67.3393 926.642 62.4877 928.465 58.3931L929.642 58.9158ZM927.369 56.8352L928.04 57.9094C924.131 60.3465 919.468 62.0742 915.872 62.1645C915.962 61.6901 915.92 60.8976 915.809 60.4533C919.123 60.5552 923.754 59.0325 927.369 56.8352Z" fill="#00A0E8"/>
<path d="M947.415 73.1761L948.409 74.3522L939.101 82.2206L938.107 81.0445L947.415 73.1761ZM951.304 75.0163L952.34 76.2427L938.816 87.6761C937.975 88.3862 937.435 88.4971 936.76 88.1751C936.115 87.8557 935.301 86.96 934.25 85.7168C934.562 85.3371 934.977 84.6694 935.239 84.1605C936.043 85.1802 936.838 86.121 937.094 86.4234C937.338 86.6781 937.476 86.7053 937.762 86.4638L951.304 75.0163ZM943.397 65.4242L944.405 66.6171L929.015 79.627L928.007 78.4341L943.397 65.4242ZM938.231 75.8409L939.211 77.0001L934.59 80.9059C934.019 81.3888 933.629 81.5747 933.072 81.3251C932.53 81.0923 931.973 80.4681 931.195 79.513C931.485 79.2095 931.811 78.6748 931.988 78.237C932.582 78.9736 933.037 79.5113 933.224 79.6987C933.366 79.8667 933.459 79.8745 933.627 79.7325L938.231 75.8409ZM932.422 68.9692L938.628 76.3113L937.486 77.2771L932.245 71.0775L927.524 75.0685L926.558 73.926L932.422 68.9692ZM934.625 65.7819L942.578 75.1905L941.419 76.1705L933.465 66.7619L934.625 65.7819ZM938.926 64.9403L944.933 72.0471L943.774 73.0271L937.567 65.685L938.926 64.9403ZM940.973 63.2385L941.732 64.6134C939.644 65.6873 937.309 66.5376 935.57 66.7977C935.491 66.4321 935.241 65.693 935.086 65.3054C936.868 65.0956 939.045 64.2634 940.973 63.2385Z" fill="#00A0E8"/>
<path d="M688.576 23.1936C687.333 21.9498 685.318 21.9498 684.075 23.1936L676.931 30.3361C675.69 31.5798 675.69 33.5933 676.931 34.8373L681.562 39.4676L693.207 27.8239L688.576 23.1936Z" fill="#4B4B4B"/>
<path d="M740.315 86.5761L736.345 70.96L724.7 82.6055L740.315 86.5761Z" fill="#4B4B4B"/>
<path d="M733.963 68.5796L695.324 29.9404L683.679 41.586L722.317 80.2249L733.963 68.5796ZM695.64 34.917L729.304 68.5811L726.658 71.2263L692.994 37.5639L695.64 34.917Z" fill="#4B4B4B"/>
<path d="M726.526 27.2666H719.935V33.5577H726.526V27.2666Z" fill="#4B4B4B"/>
<path d="M726.526 42.5811H719.935V48.8703H726.526V42.5811Z" fill="#4B4B4B"/>
<path d="M772.497 27.2666H733.639V33.5577H772.497V27.2666Z" fill="#4B4B4B"/>
<path d="M772.497 42.5811H733.639V48.8703H772.497V42.5811Z" fill="#4B4B4B"/>
<path d="M772.497 57.8955H740.803V64.185H772.497V57.8955Z" fill="#4B4B4B"/>
<path d="M772.513 0H719.917C709.741 0 701.463 8.27625 701.463 18.4528V25.8013L708.296 32.6353V18.4528C708.296 12.034 713.5 6.83221 719.917 6.83221H772.513C778.934 6.83221 784.135 12.034 784.135 18.4528V75.4965H766.149C760.8 75.4965 756.466 79.8343 756.466 85.1816V103.168H719.917C713.5 103.168 708.296 97.966 708.296 91.5472V83.2229L706.896 82.8665L708.296 81.4665V76.4811L701.463 69.6492V91.5472C701.463 101.722 709.741 110 719.917 110H756.466H759.295L761.297 107.999L788.966 80.3294L790.967 78.3282V75.4967V18.4528C790.967 8.27625 782.69 0 772.513 0Z" fill="#4B4B4B"/>
<path d="M751.832 149V147.728C757.376 143.288 761.336 139.544 761.336 136.496C761.336 134.432 759.968 132.92 757.616 132.92C755.744 132.92 754.328 133.928 752.936 135.512L751.544 134.24C753.2 132.344 755.216 131.096 757.712 131.096C761.192 131.096 763.52 133.112 763.52 136.424C763.52 140 759.896 143.6 755.384 147.272C756.344 147.2 757.256 147.152 758.168 147.152H764.36V149H751.832ZM785.36 130.664H787.088V149.816H785.36V130.664ZM779.384 133.088H792.68V134.552H779.384V133.088ZM778.736 148.952H793.136V150.44H778.736V148.952ZM780.104 145.592H792.32V147.056H780.104V145.592ZM791.552 129.152L792.632 130.496C789.44 131.216 784.352 131.6 780.224 131.696C780.2 131.312 779.984 130.688 779.816 130.304C783.824 130.16 788.816 129.776 791.552 129.152ZM782 140.6V142.544H790.544V140.6H782ZM782 137.528V139.424H790.544V137.528H782ZM780.392 136.184H792.224V143.888H780.392V136.184ZM775.088 130.832H776.84V150.872H775.088V130.832ZM771.152 135.608H779.864V137.312H771.152V135.608ZM775.184 136.256L776.312 136.736C775.352 140.12 773.432 144.32 771.584 146.552C771.416 146.048 770.984 145.304 770.672 144.896C772.4 142.976 774.32 139.232 775.184 136.256ZM778.64 129.2L779.912 130.592C777.704 131.48 774.344 132.152 771.56 132.536C771.464 132.128 771.224 131.552 771.008 131.144C773.72 130.688 776.888 130.016 778.64 129.2ZM776.768 138.704C777.368 139.232 779.624 141.512 780.104 142.112L779.048 143.528C778.472 142.544 776.672 140.264 775.928 139.424L776.768 138.704ZM807.512 132.632C807.2 135.128 806.72 137.936 805.976 140.504C804.512 145.424 802.592 147.968 800.384 147.968C798.224 147.968 796.088 145.52 796.088 141.536C796.088 136.328 800.72 131.792 806.6 131.792C812.216 131.792 815.792 135.752 815.792 140.624C815.792 145.64 812.48 149 806.768 149.744L805.664 147.968C806.432 147.896 807.152 147.8 807.728 147.68C810.8 146.984 813.824 144.68 813.824 140.528C813.824 136.688 811.16 133.52 806.552 133.52C801.272 133.52 797.984 137.864 797.984 141.392C797.984 144.416 799.352 145.76 800.432 145.76C801.56 145.76 802.856 144.128 804.08 140.072C804.776 137.792 805.28 135.08 805.52 132.584L807.512 132.632ZM830.432 131.024V133.52H837.656V131.024H830.432ZM828.776 129.704H839.408V134.864H828.776V129.704ZM835.208 147.824L836.576 146.84C838.28 147.8 840.152 149.072 841.232 150.008L839.456 150.944C838.52 150.032 836.792 148.784 835.208 147.824ZM830.816 146.768L832.448 147.8C831.056 149 828.728 150.224 826.832 150.968C826.544 150.584 826.016 150.008 825.608 149.672C827.48 149.024 829.76 147.8 830.816 146.768ZM829.832 140.552V142.352H838.208V140.552H829.832ZM829.832 143.648V145.448H838.208V143.648H829.832ZM829.832 137.528V139.28H838.208V137.528H829.832ZM828.128 136.16H840.008V146.816H828.128V136.16ZM818.672 141.584C820.784 141.032 823.976 140.12 827.072 139.208L827.288 140.864C824.456 141.752 821.456 142.664 819.176 143.312L818.672 141.584ZM819.032 133.688H827V135.392H819.032V133.688ZM822.464 128.864H824.24V148.808C824.24 149.816 824 150.32 823.376 150.584C822.752 150.872 821.768 150.92 820.16 150.896C820.112 150.464 819.848 149.72 819.608 149.264C820.712 149.288 821.72 149.288 822.008 149.264C822.344 149.264 822.464 149.168 822.464 148.808V128.864ZM853.016 133.112H854.84V141.776H853.016V133.112ZM846.656 134.84H861.416V136.28H846.656V134.84ZM845.792 137.888H862.376V139.328H845.792V137.888ZM847.496 148.664H860.6V150.152H847.496V148.664ZM843.416 141.104H864.632V142.616H843.416V141.104ZM846.8 144.056H861.44V150.848H859.616V145.544H848.552V150.944H846.8V144.056ZM853.016 128.84H854.864V132.104H853.016V128.84ZM844.064 131.24H863.984V135.512H862.16V132.872H845.84V135.512H844.064V131.24ZM880.328 137.096H882.152V150.944H880.328V137.096ZM873.32 140.624H888.896V142.28H873.32V140.624ZM882.656 141.272C884.096 144.152 886.904 147.056 889.52 148.496C889.136 148.832 888.56 149.48 888.248 149.912C885.632 148.232 882.848 144.992 881.264 141.8L882.656 141.272ZM879.92 141.152L881.336 141.68C879.728 144.992 876.752 148.208 873.896 149.864C873.584 149.432 873.032 148.808 872.648 148.448C875.456 147.056 878.408 144.08 879.92 141.152ZM876.824 131.6V135.992H885.776V131.6H876.824ZM875.12 129.992H887.552V137.624H875.12V129.992ZM872.624 128.912L874.328 129.44C872.696 133.496 870.176 137.528 867.56 140.192C867.368 139.784 866.864 138.848 866.528 138.416C868.928 136.136 871.232 132.56 872.624 128.912ZM870.128 135.104L871.832 133.4L871.856 133.424V150.872H870.128V135.104ZM891.92 129.896H897.752V131.528H893.552V150.944H891.92V129.896ZM897.224 129.896H897.536L897.824 129.824L899.024 130.544C898.28 132.536 897.296 135.104 896.408 137.12C898.304 139.04 898.784 140.672 898.808 142.136C898.808 143.432 898.52 144.416 897.8 144.896C897.44 145.136 896.984 145.28 896.504 145.352C895.976 145.4 895.328 145.4 894.704 145.376C894.68 144.92 894.536 144.224 894.272 143.768C894.848 143.816 895.4 143.816 895.808 143.792C896.12 143.792 896.408 143.72 896.624 143.576C897.032 143.312 897.176 142.688 897.176 141.944C897.152 140.672 896.6 139.16 894.776 137.336C895.712 135.08 896.696 132.08 897.224 130.376V129.896ZM901.04 134.624H910.52V136.136H901.04V134.624ZM905.672 130.448C904.28 132.44 901.688 134.696 898.928 136.088C898.736 135.656 898.352 135.032 898.04 134.648C900.776 133.352 903.464 131.024 904.76 128.864H906.416C908.168 131.192 910.928 133.328 913.448 134.36C913.136 134.768 912.752 135.44 912.512 135.92C910.016 134.696 907.256 132.536 905.672 130.448ZM901.208 139.688V142.928H910.304V139.688H901.208ZM899.624 138.248H911.96V144.392H899.624V138.248ZM904.832 135.44H906.488V141.8C906.488 145.28 905.384 148.952 898.808 151.04C898.616 150.656 898.136 149.984 897.824 149.696C904.04 147.752 904.832 144.752 904.832 141.752V135.44ZM906.776 143.552C908.168 147.176 910.232 148.496 913.328 149.528C912.92 149.912 912.464 150.512 912.272 151.04C908.936 149.792 906.704 148.064 905.216 143.888L906.776 143.552Z" fill="black"/>
<path d="M805.04 212.04C804.824 212.976 804.56 214.296 803.936 215.904C803.336 217.368 802.448 218.976 801.488 220.224C802.424 219.672 803.792 219.336 804.848 219.336C806.696 219.336 808.136 220.44 808.136 222.384C808.136 223.632 808.184 226.392 808.208 227.88H806.36C806.456 226.608 806.48 224.136 806.456 222.888C806.432 221.496 805.472 220.848 804.224 220.848C802.688 220.848 801.176 221.616 800.072 222.6C799.376 223.272 798.704 224.136 797.912 225.12L796.256 223.896C799.712 220.584 801.32 217.8 802.136 215.76C802.664 214.44 803 213 803.072 211.872L805.04 212.04ZM796.808 214.632C798.104 214.8 799.76 214.872 800.864 214.872C804.104 214.872 808.256 214.68 811.64 214.08V215.856C808.28 216.36 803.816 216.576 800.768 216.576C799.736 216.576 798.152 216.528 796.808 216.432V214.632ZM815.144 220.416C814.544 220.608 813.68 220.944 813.032 221.184C811.328 221.856 809.048 222.768 806.72 223.968C804.344 225.216 802.664 226.512 802.664 228.168C802.664 230.04 804.512 230.328 806.984 230.328C808.856 230.328 811.448 230.112 813.56 229.728L813.488 231.672C811.664 231.888 809 232.08 806.912 232.08C803.504 232.08 800.744 231.336 800.744 228.432C800.744 225.504 803.72 223.704 806.576 222.24C808.856 221.064 810.8 220.32 812.384 219.576C813.104 219.24 813.704 218.976 814.376 218.64L815.144 220.416ZM826.256 216.192H840.896V218.016H826.256V216.192ZM836.024 211.128H837.848V230.472C837.848 231.84 837.464 232.392 836.552 232.656C835.616 232.968 833.984 232.992 831.368 232.968C831.272 232.488 830.936 231.672 830.648 231.168C832.688 231.24 834.68 231.24 835.232 231.216C835.808 231.168 836.024 231.024 836.024 230.472V211.128ZM827.768 221.28L829.328 220.536C830.576 222.408 832.184 224.904 832.952 226.368L831.272 227.28C830.552 225.792 828.992 223.2 827.768 221.28ZM822.44 217.392L824.24 215.568L824.264 215.616V232.872H822.44V217.392ZM825.056 211.008L826.808 211.536C825.2 215.712 822.68 219.84 820.016 222.552C819.8 222.12 819.224 221.208 818.888 220.776C821.36 218.424 823.664 214.752 825.056 211.008ZM848.24 219.576H859.712V221.256H848.24V219.576ZM849.416 214.272H862.232V216H849.416V214.272ZM843.272 224.76H864.752V226.488H843.272V224.76ZM859.064 219.576H860.912C860.912 219.576 860.888 220.176 860.84 220.44C860.144 227.952 859.472 230.952 858.344 232.056C857.744 232.68 857.168 232.824 856.184 232.896C855.32 232.968 853.616 232.92 851.864 232.824C851.84 232.296 851.6 231.528 851.24 231.024C853.088 231.192 854.864 231.216 855.56 231.216C856.16 231.216 856.472 231.168 856.808 230.904C857.768 230.088 858.416 227.064 859.064 219.912V219.576ZM849.248 210.816L851.12 210.984C850.424 214.704 849.344 219.624 848.6 222.504L846.728 222.312C847.568 219.408 848.648 214.416 849.248 210.816Z" fill="black"/>
<path d="M746.739 190H744.675V178.024C744.675 177.56 744.675 177.168 744.675 176.848C744.691 176.528 744.707 176.232 744.723 175.96C744.739 175.672 744.755 175.376 744.771 175.072C744.515 175.328 744.283 175.544 744.075 175.72C743.867 175.896 743.603 176.12 743.283 176.392L741.459 177.88L740.355 176.464L744.987 172.864H746.739V190ZM756.561 187.48C756.417 188.04 756.233 188.648 756.009 189.304C755.785 189.96 755.537 190.608 755.265 191.248C755.009 191.904 754.753 192.52 754.497 193.096H752.937C753.097 192.488 753.249 191.832 753.393 191.128C753.553 190.44 753.697 189.76 753.825 189.088C753.953 188.4 754.057 187.776 754.137 187.216H756.393L756.561 187.48ZM770.927 181.408C770.927 182.8 770.823 184.04 770.615 185.128C770.407 186.216 770.071 187.144 769.607 187.912C769.159 188.664 768.567 189.24 767.831 189.64C767.111 190.04 766.239 190.24 765.215 190.24C763.935 190.24 762.871 189.888 762.023 189.184C761.191 188.48 760.567 187.472 760.151 186.16C759.751 184.832 759.551 183.248 759.551 181.408C759.551 179.552 759.735 177.968 760.103 176.656C760.487 175.344 761.095 174.344 761.927 173.656C762.759 172.952 763.855 172.6 765.215 172.6C766.495 172.6 767.559 172.952 768.407 173.656C769.255 174.344 769.887 175.344 770.303 176.656C770.719 177.968 770.927 179.552 770.927 181.408ZM761.663 181.408C761.663 182.976 761.775 184.28 761.999 185.32C762.239 186.36 762.615 187.144 763.127 187.672C763.655 188.184 764.351 188.44 765.215 188.44C766.079 188.44 766.767 188.184 767.279 187.672C767.807 187.16 768.191 186.384 768.431 185.344C768.671 184.288 768.791 182.976 768.791 181.408C768.791 179.84 768.671 178.544 768.431 177.52C768.191 176.48 767.807 175.704 767.279 175.192C766.767 174.664 766.079 174.4 765.215 174.4C764.351 174.4 763.655 174.664 763.127 175.192C762.615 175.704 762.239 176.48 761.999 177.52C761.775 178.544 761.663 179.84 761.663 181.408ZM784.661 181.408C784.661 182.8 784.557 184.04 784.349 185.128C784.141 186.216 783.805 187.144 783.341 187.912C782.893 188.664 782.301 189.24 781.565 189.64C780.845 190.04 779.973 190.24 778.949 190.24C777.669 190.24 776.605 189.888 775.757 189.184C774.925 188.48 774.301 187.472 773.885 186.16C773.485 184.832 773.285 183.248 773.285 181.408C773.285 179.552 773.469 177.968 773.837 176.656C774.221 175.344 774.829 174.344 775.661 173.656C776.493 172.952 777.589 172.6 778.949 172.6C780.229 172.6 781.293 172.952 782.141 173.656C782.989 174.344 783.621 175.344 784.037 176.656C784.453 177.968 784.661 179.552 784.661 181.408ZM775.397 181.408C775.397 182.976 775.509 184.28 775.733 185.32C775.973 186.36 776.349 187.144 776.861 187.672C777.389 188.184 778.085 188.44 778.949 188.44C779.813 188.44 780.501 188.184 781.013 187.672C781.541 187.16 781.925 186.384 782.165 185.344C782.405 184.288 782.525 182.976 782.525 181.408C782.525 179.84 782.405 178.544 782.165 177.52C781.925 176.48 781.541 175.704 781.013 175.192C780.501 174.664 779.813 174.4 778.949 174.4C778.085 174.4 777.389 174.664 776.861 175.192C776.349 175.704 775.973 176.48 775.733 177.52C775.509 178.544 775.397 179.84 775.397 181.408ZM798.396 181.408C798.396 182.8 798.292 184.04 798.084 185.128C797.876 186.216 797.54 187.144 797.076 187.912C796.628 188.664 796.036 189.24 795.3 189.64C794.58 190.04 793.708 190.24 792.684 190.24C791.404 190.24 790.34 189.888 789.492 189.184C788.66 188.48 788.036 187.472 787.62 186.16C787.22 184.832 787.02 183.248 787.02 181.408C787.02 179.552 787.204 177.968 787.572 176.656C787.956 175.344 788.564 174.344 789.396 173.656C790.228 172.952 791.324 172.6 792.684 172.6C793.964 172.6 795.028 172.952 795.876 173.656C796.724 174.344 797.356 175.344 797.772 176.656C798.188 177.968 798.396 179.552 798.396 181.408ZM789.132 181.408C789.132 182.976 789.244 184.28 789.468 185.32C789.708 186.36 790.084 187.144 790.596 187.672C791.124 188.184 791.82 188.44 792.684 188.44C793.548 188.44 794.236 188.184 794.748 187.672C795.276 187.16 795.66 186.384 795.9 185.344C796.14 184.288 796.26 182.976 796.26 181.408C796.26 179.84 796.14 178.544 795.9 177.52C795.66 176.48 795.276 175.704 794.748 175.192C794.236 174.664 793.548 174.4 792.684 174.4C791.82 174.4 791.124 174.664 790.596 175.192C790.084 175.704 789.708 176.48 789.468 177.52C789.244 178.544 789.132 179.84 789.132 181.408ZM801.066 171.664H822.09V173.416H801.066V171.664ZM808.554 178.336H818.658V180.088H808.554V178.336ZM818.034 178.336H819.906C819.906 178.336 819.882 178.96 819.858 179.224C819.45 186.976 819.042 189.88 818.106 190.888C817.554 191.512 816.954 191.68 816.018 191.752C815.13 191.824 813.426 191.776 811.794 191.68C811.746 191.152 811.506 190.408 811.146 189.904C812.946 190.096 814.698 190.096 815.346 190.096C815.898 190.096 816.21 190.048 816.474 189.784C817.266 189.088 817.674 186.088 818.034 178.648V178.336ZM807.57 173.08H809.418C809.226 179.896 808.794 188.032 801.69 191.968C801.402 191.512 800.85 190.936 800.37 190.576C807.186 186.976 807.402 179.32 807.57 173.08ZM841.117 181.576C839.845 180.352 838.789 179.584 837.037 179.584C835.165 179.584 833.509 180.88 832.501 182.776L830.797 181.864C832.333 179.104 834.541 177.664 837.061 177.664C839.245 177.664 840.805 178.552 842.484 180.208C843.757 181.456 844.812 182.2 846.565 182.2C848.437 182.2 850.093 180.904 851.101 179.008L852.805 179.92C851.269 182.68 849.061 184.12 846.541 184.12C844.357 184.12 842.797 183.232 841.117 181.576ZM868.567 190H866.503V178.024C866.503 177.56 866.503 177.168 866.503 176.848C866.519 176.528 866.535 176.232 866.551 175.96C866.567 175.672 866.583 175.376 866.599 175.072C866.343 175.328 866.111 175.544 865.903 175.72C865.695 175.896 865.431 176.12 865.111 176.392L863.287 177.88L862.183 176.464L866.815 172.864H868.567V190ZM887.821 170.008H889.621V172.624H887.821V170.008ZM881.917 171.904H896.077V173.296H881.917V171.904ZM880.813 175.936H896.869V177.424H880.813V175.936ZM884.077 173.656L885.589 173.32C886.069 174.064 886.573 175.072 886.765 175.768L885.157 176.176C884.989 175.504 884.533 174.424 884.077 173.656ZM891.877 173.08L893.677 173.536C893.149 174.52 892.573 175.576 892.093 176.272L890.701 175.864C891.109 175.072 891.637 173.872 891.877 173.08ZM884.557 182.536V184.12H893.149V182.536H884.557ZM884.557 179.92V181.432H893.149V179.92H884.557ZM882.829 178.672H894.949V185.32H882.829V178.672ZM882.661 186.616L884.077 187.192C883.501 188.608 882.685 190.264 881.485 191.32L880.141 190.36C881.269 189.472 882.157 187.912 882.661 186.616ZM885.157 186.568H886.813V189.784C886.813 190.312 886.957 190.384 887.821 190.384C888.181 190.384 890.197 190.384 890.725 190.384C891.397 190.384 891.541 190.192 891.589 188.584C891.949 188.848 892.597 189.088 893.077 189.184C892.885 191.32 892.405 191.848 890.941 191.848C890.509 191.848 888.037 191.848 887.629 191.848C885.637 191.848 885.157 191.416 885.157 189.808V186.568ZM886.813 185.8L887.941 184.912C889.093 185.536 890.461 186.52 891.109 187.312L889.933 188.296C889.309 187.552 887.965 186.496 886.813 185.8ZM892.381 187.168L893.749 186.4C895.045 187.576 896.509 189.28 897.133 190.432L895.669 191.32C895.093 190.144 893.677 188.416 892.381 187.168ZM880.237 169.912L881.917 170.44C880.309 174.448 877.789 178.456 875.197 181.072C875.005 180.664 874.501 179.728 874.165 179.296C876.589 177.04 878.869 173.512 880.237 169.912ZM877.645 176.128L879.325 174.424L879.373 174.448V191.896H877.645V176.128ZM899.941 171.472H918.757V173.272H901.741V191.944H899.941V171.472ZM917.941 171.472H919.765V189.544C919.765 190.696 919.477 191.272 918.661 191.584C917.869 191.872 916.501 191.92 914.341 191.92C914.245 191.416 913.933 190.6 913.645 190.096C915.301 190.168 916.861 190.144 917.341 190.12C917.797 190.12 917.941 189.976 917.941 189.544V171.472ZM900.925 180.352H918.781V182.128H900.925V180.352ZM908.797 172.384H910.597V181.216H908.797V172.384Z" fill="black"/>
</svg>
