<svg width="665" height="630" viewBox="0 0 665 630" fill="none" xmlns="http://www.w3.org/2000/svg">
<path d="M314.855 27.6872L334.07 26.2019L334.177 27.5838L314.962 29.0691L314.855 27.6872ZM314.199 18.0511L333.238 16.5794L333.346 17.9832L314.307 19.4549L314.199 18.0511ZM315.366 21.7341L332.738 20.3913L332.843 21.7512L315.471 23.0941L315.366 21.7341ZM316.713 24.6088L331.892 23.4355L331.99 24.7077L316.812 25.881L316.713 24.6088ZM323.18 21.77L324.803 21.6445L325.722 33.5331L324.099 33.6585L323.18 21.77ZM320.519 13.6128L322.077 13.4924L322.431 18.0767L320.874 18.1971L320.519 13.6128ZM324.665 13.2923L326.244 13.1703L326.593 17.6888L325.014 17.8109L324.665 13.2923ZM323.101 27.6014L324.465 28.1139C322.601 30.5527 319.042 32.7476 315.845 33.9215C315.571 33.5234 315.039 32.9246 314.661 32.6007C317.852 31.626 321.384 29.6539 323.101 27.6014ZM325.774 27.3507C327.791 29.1807 331.606 30.5848 334.995 31.029C334.649 31.4088 334.195 32.1058 333.99 32.5851C330.584 31.9215 326.767 30.2087 324.522 27.9991L325.774 27.3507ZM329.774 13.1622L331.499 13.4923C330.956 14.7478 330.266 16.103 329.718 17.0059L328.346 16.6707C328.867 15.7036 329.479 14.2 329.774 13.1622ZM327.194 18.0395L328.937 18.324C328.465 19.3535 327.973 20.4065 327.545 21.1457L326.131 20.8358C326.51 20.0342 326.992 18.8495 327.194 18.0395ZM315.728 14.7113L317.093 14.0983C317.915 15.0277 318.833 16.3469 319.21 17.2225L317.782 17.8844C317.407 17.0308 316.509 15.688 315.728 14.7113ZM318.947 19.2507L320.481 18.8233C321.041 19.5081 321.622 20.4562 321.87 21.0989L320.274 21.5754C320.048 20.9309 319.486 19.9373 318.947 19.2507Z" fill="#00A0E8"/>
<path d="M340.842 18.6801L340.648 21.0703L352.401 22.0243L352.595 19.6342L340.842 18.6801ZM341.139 15.0182L340.949 17.3644L352.702 18.3185L352.893 15.9722L341.139 15.0182ZM339.607 13.5032L354.693 14.7279L353.979 23.5209L338.893 22.2963L339.607 13.5032ZM348.921 22.2054C350.284 24.457 353.231 26.4841 356.235 27.5446C355.836 27.8433 355.302 28.44 355.025 28.859C351.971 27.5958 349.005 25.2581 347.475 22.6177L348.921 22.2054ZM344.185 21.8209L345.562 22.5286C343.61 24.8202 340.216 26.6636 337.125 27.4942C336.895 27.0563 336.463 26.4031 336.117 26.0439C339.146 25.4291 342.435 23.7978 344.185 21.8209ZM342.052 25.5324L343.718 25.6677L343.608 27.0273C343.437 29.1323 342.695 31.7429 338.302 33.1079C338.095 32.6717 337.615 32.0589 337.269 31.6997C341.246 30.5657 341.813 28.4708 341.945 26.8481L342.052 25.5324ZM346.214 14.7679L347.881 14.9032L347.275 22.3587L345.609 22.2234L346.214 14.7679ZM349.025 26.0985L350.713 26.2355L350.092 33.8884L348.403 33.7513L349.025 26.0985Z" fill="#00A0E8"/>
<path d="M363.879 20.1524L363.511 21.6703L374.243 24.2746L374.611 22.7566L363.879 20.1524ZM364.501 17.5868L364.143 19.062L374.876 21.6663L375.234 20.1911L364.501 17.5868ZM363.221 16.0536L377.096 19.4205L375.55 25.7916L361.675 22.4247L363.221 16.0536ZM358.84 23.0047L377.676 27.575L377.354 28.9006L358.519 24.3302L358.84 23.0047ZM367.684 27.9805L375.295 29.8273L374.979 31.1314L367.368 29.2846L367.684 27.9805ZM360.94 26.4798L366.221 27.7612L365.93 28.9584L360.649 27.6771L360.94 26.4798ZM360.286 29.1736L365.567 30.455L365.277 31.6523L359.996 30.3709L360.286 29.1736ZM369.639 29.7224C370.137 33.0806 372.308 36.075 375.725 37.8549C375.31 38.0712 374.742 38.5447 374.435 38.8776C370.942 36.8528 368.801 33.6395 368.241 29.7908L369.639 29.7224ZM374.804 29.708L375.103 29.7806L375.397 29.7839L376.281 30.4287C373.817 34.4264 369.727 36.2636 365.695 36.6438C365.618 36.2174 365.352 35.5416 365.125 35.1697C368.795 34.9735 372.694 33.271 374.741 29.9645L374.804 29.708ZM356.521 31.7236C358.658 32.061 361.841 32.4711 364.938 32.8605L364.616 34.1861C361.647 33.8278 358.587 33.4701 356.323 33.1924L356.521 31.7236ZM365.941 25.1805L367.481 25.554L364.814 36.5432L363.275 36.1696L365.941 25.1805ZM360.57 23.8998L362.066 24.2629L359.955 32.9644L358.459 32.6013L360.57 23.8998Z" fill="#00A0E8"/>
<path d="M383 22.5767L400.635 29.9583L400.083 31.2774L382.448 23.8958L383 22.5767ZM391.75 23.9498L393.313 24.6038L392.234 27.1812L390.671 26.5271L391.75 23.9498ZM380.571 30.8854L395.65 37.1967L395.106 38.4955L381.509 32.8043L378.366 40.313L376.885 39.693L380.571 30.8854ZM395.021 36.9334L396.543 37.5705L393.621 44.5516C393.272 45.3836 392.903 45.7537 392.143 45.7457C391.4 45.6971 390.296 45.2587 388.611 44.5536C388.729 44.102 388.761 43.3997 388.707 42.9004C390.03 43.5016 391.166 43.9773 391.528 44.0811C391.873 44.2255 391.997 44.158 392.116 43.8739L395.021 36.9334ZM383.534 35.2022L384.894 35.7713L382.669 41.0883L381.309 40.5192L383.534 35.2022ZM384.265 35.508L391.287 38.447L389.494 42.7291L382.473 39.79L382.931 38.6941L388.573 41.0556L389.448 38.9653L383.806 36.6038L384.265 35.508ZM386.335 28.1701L385.511 30.1386L393.446 33.4599L394.27 31.4914L386.335 28.1701ZM385.341 26.4423L396.279 31.0208L394.521 35.2216L383.582 30.6432L385.341 26.4423Z" fill="#00A0E8"/>
<path d="M408.871 35.0947L406.666 38.6459L414.142 43.2878L416.347 39.7366L408.871 35.0947ZM408.342 32.9019L418.603 39.2729L414.727 45.5155L404.466 39.1444L408.342 32.9019ZM400.526 39.4429L407.179 43.5742L402.201 51.5924L400.799 50.722L404.942 44.0495L401.017 41.6125L396.781 48.4345L395.454 47.6106L400.526 39.4429ZM409.217 44.8391L416.244 49.2026L411.242 57.2581L409.841 56.3877L414.007 49.6779L409.727 47.0204L405.491 53.8424L404.145 53.0068L409.217 44.8391ZM397.515 45.6269L402.729 48.8647L401.894 50.2104L396.679 46.9726L397.515 45.6269ZM406.299 51.0812L411.85 54.5278L411.015 55.8735L405.463 52.4269L406.299 51.0812Z" fill="#00A0E8"/>
<path d="M431.526 48.0891L431.713 49.5884C430.003 48.8083 427.759 47.334 425.977 45.9975C426.114 45.738 426.297 45.2567 426.351 44.9253C428.093 46.1398 430.235 47.4968 431.526 48.0891ZM438.669 54.2914L438.825 55.793C437.032 54.941 434.669 53.3349 432.785 51.8812C432.936 51.605 433.091 51.157 433.175 50.8233C435.003 52.1408 437.264 53.6295 438.669 54.2914ZM426.32 44.288L427.423 45.939C427.306 46.0411 427.165 46.0358 426.92 45.8821L425.97 46.9807C424.92 48.1957 423.11 49.6845 420.638 49.7866C420.685 49.362 420.616 48.634 420.479 48.254C422.627 48.1912 423.961 47.0178 424.882 45.9525L426.32 44.288ZM433.101 50.236L434.231 51.8227C434.114 51.9248 433.973 51.9194 433.728 51.7657L432.893 52.7311C431.944 53.8297 430.3 55.0257 427.767 54.7266C427.847 54.3308 427.826 53.6149 427.704 53.2182C429.831 53.5157 431.001 52.6661 431.821 51.7174L433.101 50.236ZM425.139 46.6981L430.765 51.5603L429.916 52.5424L424.29 47.6801L425.139 46.6981ZM431.947 52.5817L438.288 58.0626L437.44 59.0446L431.098 53.5638L431.947 52.5817ZM427.369 49.2652L428.501 50.2434L426.17 52.9399L425.038 51.9617L427.369 49.2652ZM434.36 55.3071L435.492 56.2853L433.118 59.0318L431.986 58.0536L434.36 55.3071ZM421.323 54.2756L420.316 55.4407L428.739 62.7198L429.746 61.5546L421.323 54.2756ZM419.626 56.2397L418.59 57.4381L427.012 64.7172L428.048 63.5187L419.626 56.2397ZM423.035 52.2948L422.028 53.46L430.45 60.739L431.457 59.5738L423.035 52.2948ZM422.539 50.4124L433.425 59.8205L427.527 66.645L416.641 57.2369L422.539 50.4124ZM422.649 63.9119L424.211 64.1569C425.553 66.3052 426.934 68.7782 427.643 70.3799L425.715 69.8185C425.141 68.3629 423.945 66.0791 422.649 63.9119ZM419.313 59.8655L419.999 61.3597C417.96 60.9935 415.184 59.9322 413.117 58.9597C413.133 58.5374 413.117 57.6807 413.021 57.2197C415.052 58.3353 417.553 59.4789 419.313 59.8655Z" fill="#00A0E8"/>
<path d="M446.049 67.4999C447.278 69.601 450.229 72.9549 451.887 74.4051L450.526 75.5556C448.804 73.9283 446.049 70.6689 444.703 68.6671L446.049 67.4999ZM439.748 73.9499C439.016 74.31 438.474 74.6237 438.021 75.0071C437.248 75.6605 436.946 76.8372 438.892 79.139C440.156 80.6343 441.398 81.8312 442.854 82.9054L441.471 84.132C440.372 83.275 439.044 81.9773 437.567 80.23C435.195 77.4242 435.071 75.3688 436.65 74.0337C437.205 73.565 437.881 73.1377 438.843 72.6408L439.748 73.9499ZM444.644 63.214C444.274 63.3547 443.622 63.6748 443.263 63.8632C441.431 64.8649 438 66.8721 436.101 68.4771C435.295 69.1588 434.632 69.8057 433.894 70.6025C434.891 70.249 436.226 69.7832 437.156 69.4865L437.198 70.6609C435.65 71.2492 433.361 72.1189 432.427 72.6494C432.149 72.7979 431.801 73.0341 431.599 73.2046C431.446 73.3634 431.225 73.579 431.054 73.7521L429.962 72.6302C430.87 71.2858 432.561 69.3668 434.846 67.4352C437.316 65.3474 440.658 63.4731 442.222 62.4959C442.652 62.2196 443.114 61.915 443.498 61.6193L444.644 63.214Z" fill="#00A0E8"/>
<path d="M457.424 78.3607L466.474 93.3015L465.081 94.145L456.031 79.2042L457.424 78.3607ZM451.309 83.1706L459.47 96.6436L458.096 97.4757L449.935 84.0026L451.309 83.1706ZM443.03 85.7672L453.255 102.646L451.881 103.478L441.657 86.5993L443.03 85.7672ZM461.124 85.2762L462.024 86.7627L447.686 95.448L446.785 93.9615L461.124 85.2762Z" fill="#00A0E8"/>
<path d="M476.056 111.714L475.282 113.363C472.693 110.12 469.674 104.32 467.443 99.4565C467.813 99.2572 468.349 98.8238 468.636 98.5394C470.846 103.293 473.831 109.012 476.056 111.714ZM464.634 100.203L471.141 116.082L469.676 116.682L463.169 100.804L464.634 100.203ZM459.291 100.8L466.825 119.182L465.339 119.791L457.805 101.409L459.291 100.8ZM471.104 105.778L471.754 107.366L457.342 113.273C456.263 113.715 455.661 113.581 455.1 112.908C454.538 112.234 453.955 110.928 453.092 108.761C453.477 108.485 454.053 107.916 454.36 107.505C454.991 109.219 455.679 110.84 455.883 111.279C456.075 111.747 456.284 111.852 456.711 111.677L471.104 105.778Z" fill="#00A0E8"/>
<circle cx="326" cy="174" r="130" fill="#F5F5F5"/>
<path d="M265 208.784V210.488H277.048V208.784H265ZM265 205.904V207.56H277.048V205.904H265ZM263.248 204.608H278.824V211.76H263.248V204.608ZM260.392 213.104H281.536V214.592H260.392V213.104ZM271.048 216.104H279.592V217.568H271.048V216.104ZM263.512 216.248H269.44V217.592H263.512V216.248ZM263.512 219.272H269.44V220.616H263.512V219.272ZM273.568 217.448C274.96 220.88 278.032 223.496 282.112 224.504C281.728 224.84 281.248 225.488 281.008 225.92C276.784 224.672 273.688 221.816 272.104 217.88L273.568 217.448ZM279.04 216.104H279.376L279.688 216.032L280.792 216.488C279.208 221.36 275.344 224.36 271.168 225.8C270.976 225.368 270.52 224.72 270.184 224.384C274.024 223.232 277.72 220.424 279.04 216.392V216.104ZM260.176 222.944C262.528 222.752 266.008 222.368 269.392 221.984V223.472C266.152 223.856 262.816 224.264 260.344 224.552L260.176 222.944ZM268.48 213.584H270.208V225.92H268.48V213.584ZM262.456 213.608H264.136V223.376H262.456V213.608ZM284.56 206.144H305.416V207.704H284.56V206.144ZM293.944 203.84H295.792V206.888H293.944V203.84ZM285.616 215.528H303.448V217.064H287.368V225.944H285.616V215.528ZM302.704 215.528H304.504V223.784C304.504 224.768 304.288 225.296 303.52 225.608C302.752 225.872 301.456 225.896 299.464 225.896C299.392 225.392 299.128 224.672 298.864 224.192C300.448 224.24 301.792 224.24 302.2 224.192C302.608 224.192 302.704 224.072 302.704 223.736V215.528ZM290.416 218.624H292.024V224.912H290.416V218.624ZM291.28 218.624H299.584V223.688H291.28V222.392H297.952V219.92H291.28V218.624ZM290.272 210.368V212.696H299.656V210.368H290.272ZM288.544 209.048H301.48V214.016H288.544V209.048ZM314.224 206.6V211.16H323.824V206.6H314.224ZM312.472 204.872H325.648V212.888H312.472V204.872ZM308.992 215.432H317.536V225.728H315.736V217.16H310.696V225.92H308.992V215.432ZM320.152 215.432H329.176V225.776H327.376V217.16H321.88V225.92H320.152V215.432ZM309.76 222.896H316.456V224.624H309.76V222.896ZM321.04 222.896H328.168V224.624H321.04V222.896ZM341.032 203.912L342.256 205.016C340.288 205.592 337.384 205.976 334.96 206.144C334.888 205.832 334.696 205.304 334.504 204.992C336.808 204.752 339.544 204.344 341.032 203.912ZM351.352 203.936L352.552 205.064C350.464 205.64 347.368 206 344.776 206.144C344.704 205.808 344.512 205.328 344.344 204.992C346.792 204.776 349.72 204.392 351.352 203.936ZM334.024 204.488L336.112 205.064C336.088 205.232 335.968 205.328 335.656 205.376V206.96C335.656 208.712 335.224 211.232 333.256 213.08C332.992 212.696 332.416 212.144 332.032 211.928C333.76 210.344 334.024 208.424 334.024 206.888V204.488ZM343.864 204.56L345.928 205.064C345.904 205.232 345.784 205.328 345.472 205.376V206.768C345.472 208.352 344.968 210.512 342.664 212.072C342.448 211.688 341.92 211.112 341.536 210.872C343.504 209.6 343.864 208.064 343.864 206.696V204.56ZM334.768 207.32H342.88V208.736H334.768V207.32ZM344.584 207.32H353.728V208.736H344.584V207.32ZM338.44 207.848H340.072V211.736H338.44V207.848ZM348.52 207.848H350.152V211.808H348.52V207.848ZM337.024 216.296V217.976H349.168V216.296H337.024ZM337.024 219.128V220.856H349.168V219.128H337.024ZM337.024 213.44V215.12H349.168V213.44H337.024ZM335.272 212.24H350.968V222.08H335.272V212.24ZM344.992 223.304L346.456 222.392C349.096 223.208 352 224.264 353.728 225.08L351.736 225.992C350.224 225.2 347.608 224.168 344.992 223.304ZM339.352 222.344L340.984 223.088C339.04 224.24 335.992 225.344 333.592 226.016C333.304 225.656 332.68 224.96 332.272 224.648C334.744 224.12 337.624 223.28 339.352 222.344ZM356.488 210.752H377.584V212.576H356.488V210.752ZM368.176 211.472C369.736 217.28 373 222.128 377.992 224.192C377.536 224.6 376.936 225.368 376.624 225.872C371.44 223.424 368.176 218.36 366.376 211.904L368.176 211.472ZM366.064 203.864H368.008C367.912 210.152 367.864 221.096 357.376 225.896C357.088 225.416 356.512 224.768 356.008 224.408C366.208 219.968 366.016 209.624 366.064 203.864ZM390.04 203.84H391.84V207.512H390.04V203.84ZM381.112 206.576H401.104V210.8H399.352V207.92H382.816V210.8H381.112V206.576ZM386.488 210.344V212H395.752V210.344H386.488ZM384.784 209.192H397.528V213.128H384.784V209.192ZM383.44 204.512L385.024 204.008C385.768 204.704 386.56 205.664 386.968 206.336L385.312 206.984C384.952 206.288 384.136 205.256 383.44 204.512ZM397.12 203.912L398.944 204.44C398.2 205.4 397.312 206.336 396.616 206.96L395.176 206.48C395.824 205.76 396.688 204.656 397.12 203.912ZM385.192 217.784V219.104H397.192V217.784H385.192ZM385.192 220.184V221.552H397.192V220.184H385.192ZM385.192 215.408V216.704H397.192V215.408H385.192ZM383.464 214.28H398.968V222.656H383.464V214.28ZM387.4 222.872L389.104 223.52C387.28 224.624 384.208 225.512 381.784 226.04C381.496 225.68 380.848 224.984 380.464 224.672C382.936 224.312 385.816 223.688 387.4 222.872ZM392.896 223.832L394.264 222.8C396.88 223.424 399.832 224.264 401.56 224.936L399.76 225.968C398.2 225.344 395.56 224.504 392.896 223.832Z" fill="black"/>
<path d="M283.967 132.952H289.895V141.352C288.967 141.656 288.031 141.88 287.087 142.024C286.143 142.168 285.071 142.24 283.871 142.24C282.095 142.24 280.599 141.888 279.383 141.184C278.167 140.464 277.239 139.448 276.599 138.136C275.975 136.808 275.663 135.24 275.663 133.432C275.663 131.64 276.015 130.088 276.719 128.776C277.423 127.464 278.431 126.448 279.743 125.728C281.071 124.992 282.671 124.624 284.543 124.624C285.503 124.624 286.407 124.712 287.255 124.888C288.119 125.064 288.919 125.312 289.655 125.632L288.839 127.504C288.231 127.232 287.543 127 286.775 126.808C286.023 126.616 285.239 126.52 284.423 126.52C283.063 126.52 281.895 126.8 280.919 127.36C279.943 127.92 279.199 128.72 278.687 129.76C278.175 130.784 277.919 132.008 277.919 133.432C277.919 134.792 278.135 136 278.567 137.056C279.015 138.096 279.711 138.912 280.655 139.504C281.599 140.08 282.839 140.368 284.375 140.368C284.887 140.368 285.335 140.352 285.719 140.32C286.119 140.272 286.479 140.216 286.799 140.152C287.135 140.088 287.447 140.024 287.735 139.96V134.872H283.967V132.952ZM303.564 142H293.988V124.864H303.564V126.76H296.148V132.112H303.132V133.984H296.148V140.104H303.564V142ZM320.908 142H318.388L309.22 127.768H309.124C309.14 128.056 309.156 128.376 309.172 128.728C309.204 129.08 309.228 129.464 309.244 129.88C309.26 130.28 309.276 130.696 309.292 131.128C309.308 131.56 309.316 131.992 309.316 132.424V142H307.324V124.864H309.82L318.964 139.048H319.06C319.044 138.856 319.028 138.592 319.012 138.256C318.996 137.904 318.98 137.52 318.964 137.104C318.948 136.672 318.932 136.232 318.916 135.784C318.9 135.336 318.892 134.92 318.892 134.536V124.864H320.908V142ZM333.118 142L327.478 126.976H327.382C327.414 127.296 327.438 127.704 327.454 128.2C327.486 128.696 327.51 129.24 327.526 129.832C327.542 130.408 327.55 131 327.55 131.608V142H325.558V124.864H328.75L334.03 138.904H334.126L339.502 124.864H342.67V142H340.534V131.464C340.534 130.904 340.542 130.352 340.558 129.808C340.574 129.248 340.598 128.728 340.63 128.248C340.662 127.752 340.686 127.336 340.702 127H340.606L334.894 142H333.118ZM358.084 142L356.02 136.696H349.228L347.188 142H345.004L351.7 124.792H353.644L360.316 142H358.084ZM353.452 129.592C353.404 129.464 353.324 129.232 353.212 128.896C353.1 128.56 352.988 128.216 352.876 127.864C352.78 127.496 352.7 127.216 352.636 127.024C352.556 127.344 352.468 127.672 352.372 128.008C352.292 128.328 352.204 128.624 352.108 128.896C352.028 129.168 351.956 129.4 351.892 129.592L349.948 134.776H355.372L353.452 129.592ZM372.812 142H361.484V140.248L365.972 135.712C366.836 134.848 367.564 134.08 368.156 133.408C368.748 132.736 369.196 132.08 369.5 131.44C369.804 130.784 369.956 130.072 369.956 129.304C369.956 128.36 369.676 127.648 369.116 127.168C368.556 126.672 367.828 126.424 366.932 126.424C366.1 126.424 365.364 126.568 364.724 126.856C364.1 127.144 363.46 127.544 362.804 128.056L361.676 126.64C362.124 126.256 362.612 125.912 363.14 125.608C363.684 125.304 364.268 125.064 364.892 124.888C365.532 124.712 366.212 124.624 366.932 124.624C368.004 124.624 368.924 124.808 369.692 125.176C370.46 125.544 371.052 126.072 371.468 126.76C371.9 127.432 372.116 128.24 372.116 129.184C372.116 129.856 372.012 130.496 371.804 131.104C371.596 131.696 371.3 132.28 370.916 132.856C370.532 133.432 370.068 134.016 369.524 134.608C368.98 135.2 368.38 135.816 367.724 136.456L364.148 139.984V140.08H372.812V142ZM382.586 142H380.522V130.024C380.522 129.56 380.522 129.168 380.522 128.848C380.538 128.528 380.554 128.232 380.57 127.96C380.586 127.672 380.602 127.376 380.618 127.072C380.362 127.328 380.13 127.544 379.922 127.72C379.714 127.896 379.45 128.12 379.13 128.392L377.306 129.88L376.202 128.464L380.834 124.864H382.586V142Z" fill="black"/>
<path d="M246.508 180H238.956V178.832L241.948 175.808C242.524 175.232 243.009 174.72 243.404 174.272C243.798 173.824 244.097 173.387 244.3 172.96C244.502 172.523 244.604 172.048 244.604 171.536C244.604 170.907 244.417 170.432 244.044 170.112C243.67 169.781 243.185 169.616 242.588 169.616C242.033 169.616 241.542 169.712 241.116 169.904C240.7 170.096 240.273 170.363 239.836 170.704L239.084 169.76C239.382 169.504 239.708 169.275 240.06 169.072C240.422 168.869 240.812 168.709 241.228 168.592C241.654 168.475 242.108 168.416 242.588 168.416C243.302 168.416 243.916 168.539 244.428 168.784C244.94 169.029 245.334 169.381 245.612 169.84C245.9 170.288 246.044 170.827 246.044 171.456C246.044 171.904 245.974 172.331 245.836 172.736C245.697 173.131 245.5 173.52 245.244 173.904C244.988 174.288 244.678 174.677 244.316 175.072C243.953 175.467 243.553 175.877 243.116 176.304L240.732 178.656V178.72H246.508V180ZM255.712 174.272C255.712 175.2 255.642 176.027 255.504 176.752C255.365 177.477 255.141 178.096 254.832 178.608C254.533 179.109 254.138 179.493 253.648 179.76C253.168 180.027 252.586 180.16 251.904 180.16C251.05 180.16 250.341 179.925 249.776 179.456C249.221 178.987 248.805 178.315 248.528 177.44C248.261 176.555 248.128 175.499 248.128 174.272C248.128 173.035 248.25 171.979 248.496 171.104C248.752 170.229 249.157 169.563 249.712 169.104C250.266 168.635 250.997 168.4 251.904 168.4C252.757 168.4 253.466 168.635 254.032 169.104C254.597 169.563 255.018 170.229 255.296 171.104C255.573 171.979 255.712 173.035 255.712 174.272ZM249.536 174.272C249.536 175.317 249.61 176.187 249.76 176.88C249.92 177.573 250.17 178.096 250.512 178.448C250.864 178.789 251.328 178.96 251.904 178.96C252.48 178.96 252.938 178.789 253.28 178.448C253.632 178.107 253.888 177.589 254.048 176.896C254.208 176.192 254.288 175.317 254.288 174.272C254.288 173.227 254.208 172.363 254.048 171.68C253.888 170.987 253.632 170.469 253.28 170.128C252.938 169.776 252.48 169.6 251.904 169.6C251.328 169.6 250.864 169.776 250.512 170.128C250.17 170.469 249.92 170.987 249.76 171.68C249.61 172.363 249.536 173.227 249.536 174.272ZM264.82 180H257.268V178.832L260.26 175.808C260.836 175.232 261.321 174.72 261.716 174.272C262.111 173.824 262.409 173.387 262.612 172.96C262.815 172.523 262.916 172.048 262.916 171.536C262.916 170.907 262.729 170.432 262.356 170.112C261.983 169.781 261.497 169.616 260.9 169.616C260.345 169.616 259.855 169.712 259.428 169.904C259.012 170.096 258.585 170.363 258.148 170.704L257.396 169.76C257.695 169.504 258.02 169.275 258.372 169.072C258.735 168.869 259.124 168.709 259.54 168.592C259.967 168.475 260.42 168.416 260.9 168.416C261.615 168.416 262.228 168.539 262.74 168.784C263.252 169.029 263.647 169.381 263.924 169.84C264.212 170.288 264.356 170.827 264.356 171.456C264.356 171.904 264.287 172.331 264.148 172.736C264.009 173.131 263.812 173.52 263.556 173.904C263.3 174.288 262.991 174.677 262.628 175.072C262.265 175.467 261.865 175.877 261.428 176.304L259.044 178.656V178.72H264.82V180ZM273.976 180H266.424V178.832L269.416 175.808C269.992 175.232 270.478 174.72 270.872 174.272C271.267 173.824 271.566 173.387 271.768 172.96C271.971 172.523 272.072 172.048 272.072 171.536C272.072 170.907 271.886 170.432 271.512 170.112C271.139 169.781 270.654 169.616 270.056 169.616C269.502 169.616 269.011 169.712 268.584 169.904C268.168 170.096 267.742 170.363 267.304 170.704L266.552 169.76C266.851 169.504 267.176 169.275 267.528 169.072C267.891 168.869 268.28 168.709 268.696 168.592C269.123 168.475 269.576 168.416 270.056 168.416C270.771 168.416 271.384 168.539 271.896 168.784C272.408 169.029 272.803 169.381 273.08 169.84C273.368 170.288 273.512 170.827 273.512 171.456C273.512 171.904 273.443 172.331 273.304 172.736C273.166 173.131 272.968 173.52 272.712 173.904C272.456 174.288 272.147 174.677 271.784 175.072C271.422 175.467 271.022 175.877 270.584 176.304L268.2 178.656V178.72H273.976V180ZM279.245 166.512L280.445 166.816C279.565 169.184 278.141 171.408 276.653 172.848C276.413 172.64 275.917 172.24 275.613 172.08C277.133 170.752 278.461 168.672 279.245 166.512ZM278.989 168.496H289.309V169.664H278.413L278.989 168.496ZM278.205 172.128H288.957V173.248H279.405V177.04H278.205V172.128ZM275.565 176.432H290.061V177.6H275.565V176.432ZM283.005 169.104H284.237V181.296H283.005V169.104Z" fill="black"/>
<path d="M312.984 164.088H323.616V165.672H312.984V164.088ZM313.896 177.024H325.032V178.656H313.896V177.024ZM312.336 182.592H326.088V184.224H312.336V182.592ZM323.112 164.088H323.472L323.808 164.016L325.032 164.568C323.088 170.088 318.576 173.184 313.488 174.816C313.272 174.36 312.816 173.688 312.456 173.328C317.16 172.008 321.48 169.008 323.112 164.4V164.088ZM316.104 165.504C317.808 169.392 321.504 172.2 326.376 173.28C325.992 173.616 325.512 174.312 325.248 174.768C320.232 173.448 316.488 170.448 314.496 166.032L316.104 165.504ZM318.504 173.568H320.256V183.624H318.504V173.568ZM307.68 162.864L309.264 163.488C308.352 165.24 307.224 167.376 306.288 168.696L305.04 168.12C305.952 166.752 307.056 164.448 307.68 162.864ZM310.368 165.6L311.88 166.272C310.248 169.032 307.944 172.512 306.168 174.624L305.064 174C306.84 171.84 309.096 168.192 310.368 165.6ZM303.888 167.904L304.8 166.728C306.144 167.856 307.656 169.416 308.304 170.496L307.344 171.864C306.696 170.736 305.184 169.056 303.888 167.904ZM309.528 171.168L310.776 170.664C311.76 172.2 312.72 174.264 313.056 175.584L311.712 176.208C311.376 174.864 310.488 172.752 309.528 171.168ZM303.816 173.616C305.904 173.544 308.904 173.424 311.952 173.256L311.928 174.744C309.048 174.936 306.144 175.104 303.96 175.248L303.816 173.616ZM310.152 176.832L311.448 176.424C312.12 177.768 312.768 179.592 313.008 180.792L311.616 181.272C311.4 180.072 310.752 178.224 310.152 176.832ZM305.16 176.568L306.72 176.856C306.384 179.112 305.784 181.44 305.016 182.976C304.704 182.784 303.984 182.448 303.6 182.28C304.392 180.816 304.872 178.68 305.16 176.568ZM307.752 174.288H309.36V184.992H307.752V174.288ZM334.704 165.36H349.824V166.968H334.704V165.36ZM337.752 174.96H346.896V176.52H337.752V174.96ZM337.656 178.824H346.92V180.384H337.656V178.824ZM341.304 162.864H343.152V166.128H341.304V162.864ZM346.008 173.568H347.784V184.92H346.008V173.568ZM345.528 166.224L347.232 166.704C345 170.76 340.2 172.8 334.896 173.928C334.728 173.52 334.296 172.752 333.984 172.368C339.12 171.528 343.68 169.728 345.528 166.224ZM329.16 164.352L330.168 163.056C331.68 163.704 333.576 164.784 334.488 165.624L333.456 167.088C332.544 166.224 330.696 165.072 329.16 164.352ZM327.888 170.88L328.872 169.536C330.408 170.112 332.352 171.144 333.312 171.936L332.28 173.424C331.344 172.608 329.448 171.528 327.888 170.88ZM328.608 183.432C329.832 181.584 331.584 178.392 332.88 175.656L334.248 176.76C333.072 179.304 331.488 182.352 330.168 184.584L328.608 183.432ZM336.768 173.544H338.496V176.688C338.496 179.28 338.064 182.76 335.064 185.16C334.728 184.848 334.056 184.392 333.624 184.152C336.408 181.992 336.768 178.896 336.768 176.664V173.544ZM338.496 166.152C341.232 169.872 345.168 171.168 350.28 172.104C349.872 172.512 349.464 173.16 349.272 173.712C344.04 172.584 339.96 171 337.032 166.776L338.496 166.152ZM358.896 174.384H372.192V175.824H358.896V174.384ZM358.512 178.368H371.544V179.808H358.512V178.368ZM356.448 182.856H373.632V184.416H356.448V182.856ZM363.984 172.224H365.76V183.84H363.984V172.224ZM359.424 172.176L361.032 172.56C360.288 174.672 359.016 176.736 357.744 178.08C357.408 177.84 356.712 177.384 356.304 177.192C357.624 175.944 358.776 174.072 359.424 172.176ZM354.936 170.016H373.752V171.6H354.936V170.016ZM353.64 165H372.528V166.584H353.64V165ZM362.088 162.84H363.888V165.984H362.088V162.84ZM353.976 170.016H355.704V173.76C355.704 176.952 355.32 181.68 353.184 184.896C352.896 184.584 352.152 183.984 351.792 183.768C353.736 180.768 353.976 176.64 353.976 173.76V170.016ZM357.408 166.896L359.016 166.464C359.64 167.472 360.24 168.816 360.408 169.704L358.68 170.184C358.512 169.296 357.984 167.928 357.408 166.896ZM367.224 166.296L369.216 166.776C368.568 168 367.848 169.32 367.296 170.208L365.832 169.728C366.312 168.768 366.912 167.304 367.224 166.296ZM376.512 177.672H397.536V179.184H376.512V177.672ZM376.608 167.136H397.44V168.672H376.608V167.136ZM377.568 171.24H396.576V172.728H377.568V171.24ZM378.792 174.48H395.4V175.872H378.792V174.48ZM386.064 171.936H387.84V184.944H386.064V171.936ZM383.856 162.84H385.56V167.856H383.856V162.84ZM388.392 162.84H390.12V167.784H388.392V162.84ZM385.488 178.272L386.928 178.944C384.696 181.44 380.64 183.528 377.064 184.536C376.8 184.08 376.272 183.384 375.888 183C379.44 182.208 383.448 180.36 385.488 178.272ZM388.416 178.224C390.456 180.384 394.488 182.232 398.136 183C397.728 183.384 397.176 184.104 396.912 184.608C393.264 183.6 389.256 181.416 387 178.824L388.416 178.224ZM393.96 163.128L395.808 163.632C395.112 164.952 394.248 166.368 393.576 167.304L392.112 166.824C392.76 165.816 393.552 164.232 393.96 163.128ZM390.744 168.216L392.616 168.672C392.016 169.752 391.392 170.856 390.864 171.624L389.352 171.168C389.832 170.328 390.456 169.08 390.744 168.216ZM378.552 163.632L380.088 163.08C380.904 164.16 381.792 165.672 382.128 166.656L380.52 167.256C380.184 166.296 379.32 164.76 378.552 163.632ZM381.672 168.84L383.376 168.504C383.928 169.296 384.48 170.376 384.696 171.096L382.92 171.48C382.728 170.76 382.2 169.632 381.672 168.84ZM410.064 162.84H411.864V168.528C411.864 169.464 411.624 169.92 410.88 170.16C410.112 170.424 408.96 170.424 407.256 170.424C407.136 169.944 406.8 169.296 406.512 168.84C407.904 168.912 409.2 168.912 409.584 168.864C409.944 168.864 410.064 168.792 410.064 168.48V162.84ZM415.872 167.28L417.6 168.048C414.168 171.984 407.448 173.904 401.04 174.936C400.824 174.504 400.272 173.712 399.912 173.328C406.416 172.512 412.896 170.736 415.872 167.28ZM405.48 164.112L407.232 164.664C405.84 166.752 403.68 168.768 401.688 170.04C401.376 169.728 400.68 169.08 400.272 168.792C402.264 167.664 404.256 165.936 405.48 164.112ZM415.128 164.856L416.544 163.968C418.464 165.264 420.792 167.184 421.944 168.528L420.408 169.536C419.352 168.216 417.048 166.224 415.128 164.856ZM404.784 172.728H418.872V184.848H417.048V174.168H406.536V184.968H404.784V172.728ZM405.648 176.088H417.864V177.408H405.648V176.088ZM405.648 179.4H417.864V180.72H405.648V179.4ZM405.648 182.688H417.864V184.104H405.648V182.688Z" fill="black"/>
<path d="M214 41.856V42.992H222.032V41.856H214ZM214 39.936V41.04H222.032V39.936H214ZM212.832 39.072H223.216V43.84H212.832V39.072ZM210.928 44.736H225.024V45.728H210.928V44.736ZM218.032 46.736H223.728V47.712H218.032V46.736ZM213.008 46.832H216.96V47.728H213.008V46.832ZM213.008 48.848H216.96V49.744H213.008V48.848ZM219.712 47.632C220.64 49.92 222.688 51.664 225.408 52.336C225.152 52.56 224.832 52.992 224.672 53.28C221.856 52.448 219.792 50.544 218.736 47.92L219.712 47.632ZM223.36 46.736H223.584L223.792 46.688L224.528 46.992C223.472 50.24 220.896 52.24 218.112 53.2C217.984 52.912 217.68 52.48 217.456 52.256C220.016 51.488 222.48 49.616 223.36 46.928V46.736ZM210.784 51.296C212.352 51.168 214.672 50.912 216.928 50.656V51.648C214.768 51.904 212.544 52.176 210.896 52.368L210.784 51.296ZM216.32 45.056H217.472V53.28H216.32V45.056ZM212.304 45.072H213.424V51.584H212.304V45.072ZM227.04 40.096H240.944V41.136H227.04V40.096ZM233.296 38.56H234.528V40.592H233.296V38.56ZM227.744 46.352H239.632V47.376H228.912V53.296H227.744V46.352ZM239.136 46.352H240.336V51.856C240.336 52.512 240.192 52.864 239.68 53.072C239.168 53.248 238.304 53.264 236.976 53.264C236.928 52.928 236.752 52.448 236.576 52.128C237.632 52.16 238.528 52.16 238.8 52.128C239.072 52.128 239.136 52.048 239.136 51.824V46.352ZM230.944 48.416H232.016V52.608H230.944V48.416ZM231.52 48.416H237.056V51.792H231.52V50.928H235.968V49.28H231.52V48.416ZM230.848 42.912V44.464H237.104V42.912H230.848ZM229.696 42.032H238.32V45.344H229.696V42.032ZM246.816 40.4V43.44H253.216V40.4H246.816ZM245.648 39.248H254.432V44.592H245.648V39.248ZM243.328 46.288H249.024V53.152H247.824V47.44H244.464V53.28H243.328V46.288ZM250.768 46.288H256.784V53.184H255.584V47.44H251.92V53.28H250.768V46.288ZM243.84 51.264H248.304V52.416H243.84V51.264ZM251.36 51.264H256.112V52.416H251.36V51.264ZM264.688 38.608L265.504 39.344C264.192 39.728 262.256 39.984 260.64 40.096C260.592 39.888 260.464 39.536 260.336 39.328C261.872 39.168 263.696 38.896 264.688 38.608ZM271.568 38.624L272.368 39.376C270.976 39.76 268.912 40 267.184 40.096C267.136 39.872 267.008 39.552 266.896 39.328C268.528 39.184 270.48 38.928 271.568 38.624ZM260.016 38.992L261.408 39.376C261.392 39.488 261.312 39.552 261.104 39.584V40.64C261.104 41.808 260.816 43.488 259.504 44.72C259.328 44.464 258.944 44.096 258.688 43.952C259.84 42.896 260.016 41.616 260.016 40.592V38.992ZM266.576 39.04L267.952 39.376C267.936 39.488 267.856 39.552 267.648 39.584V40.512C267.648 41.568 267.312 43.008 265.776 44.048C265.632 43.792 265.28 43.408 265.024 43.248C266.336 42.4 266.576 41.376 266.576 40.464V39.04ZM260.512 40.88H265.92V41.824H260.512V40.88ZM267.056 40.88H273.152V41.824H267.056V40.88ZM262.96 41.232H264.048V43.824H262.96V41.232ZM269.68 41.232H270.768V43.872H269.68V41.232ZM262.016 46.864V47.984H270.112V46.864H262.016ZM262.016 48.752V49.904H270.112V48.752H262.016ZM262.016 44.96V46.08H270.112V44.96H262.016ZM260.848 44.16H271.312V50.72H260.848V44.16ZM267.328 51.536L268.304 50.928C270.064 51.472 272 52.176 273.152 52.72L271.824 53.328C270.816 52.8 269.072 52.112 267.328 51.536ZM263.568 50.896L264.656 51.392C263.36 52.16 261.328 52.896 259.728 53.344C259.536 53.104 259.12 52.64 258.848 52.432C260.496 52.08 262.416 51.52 263.568 50.896ZM226.992 65.168H241.056V66.384H226.992V65.168ZM234.784 65.648C235.824 69.52 238 72.752 241.328 74.128C241.024 74.4 240.624 74.912 240.416 75.248C236.96 73.616 234.784 70.24 233.584 65.936L234.784 65.648ZM233.376 60.576H234.672C234.608 64.768 234.576 72.064 227.584 75.264C227.392 74.944 227.008 74.512 226.672 74.272C233.472 71.312 233.344 64.416 233.376 60.576ZM249.36 60.56H250.56V63.008H249.36V60.56ZM243.408 62.384H256.736V65.2H255.568V63.28H244.544V65.2H243.408V62.384ZM246.992 64.896V66H253.168V64.896H246.992ZM245.856 64.128H254.352V66.752H245.856V64.128ZM244.96 61.008L246.016 60.672C246.512 61.136 247.04 61.776 247.312 62.224L246.208 62.656C245.968 62.192 245.424 61.504 244.96 61.008ZM254.08 60.608L255.296 60.96C254.8 61.6 254.208 62.224 253.744 62.64L252.784 62.32C253.216 61.84 253.792 61.104 254.08 60.608ZM246.128 69.856V70.736H254.128V69.856H246.128ZM246.128 71.456V72.368H254.128V71.456H246.128ZM246.128 68.272V69.136H254.128V68.272H246.128ZM244.976 67.52H255.312V73.104H244.976V67.52ZM247.6 73.248L248.736 73.68C247.52 74.416 245.472 75.008 243.856 75.36C243.664 75.12 243.232 74.656 242.976 74.448C244.624 74.208 246.544 73.792 247.6 73.248ZM251.264 73.888L252.176 73.2C253.92 73.616 255.888 74.176 257.04 74.624L255.84 75.312C254.8 74.896 253.04 74.336 251.264 73.888Z" fill="black"/>
<path d="M297.365 68.3022C296.262 68.6488 294.914 69.1239 293.489 69.3583C292.881 69.4595 292.262 69.5158 291.642 69.5113C291.663 69.4438 291.683 69.3763 291.703 69.3086C292.104 67.9464 292.448 66.5279 292.694 65.3664C292.941 64.2069 293.097 63.3085 293.16 62.9844C293.349 62.0366 293.477 61.3522 293.693 60.8703C293.912 60.3861 294.22 60.1027 294.74 59.945C296.829 59.4362 298.743 58.0719 300.083 56.0164C301.425 53.9745 302.177 51.2525 301.965 48.3349C301.828 46.5024 301.429 45.7055 300.895 45.5524C300.357 45.3994 299.668 45.8834 298.817 46.5724C297.964 47.2636 296.942 48.1528 295.769 48.8618C295.267 49.1679 294.736 49.4405 294.182 49.6568C294.062 48.3959 293.891 47.1239 293.72 46.0838C293.54 44.974 293.371 44.1274 293.317 43.819C292.998 42.0133 292.862 41.223 293.689 40.5928C295.371 39.4357 296.611 37.5848 297.113 35.3179C297.622 33.0597 297.379 30.3965 296.229 27.8863C295.501 26.3104 294.884 25.7408 294.36 25.7835C293.831 25.824 293.376 26.4814 292.845 27.3728C292.313 28.2688 291.699 29.3969 290.891 30.4166C290.544 30.8559 290.161 31.2721 289.743 31.648C289.281 30.7002 288.799 29.7796 288.374 29.0118C287.858 28.0797 287.433 27.3772 287.288 27.1185C286.426 25.6077 286.057 24.9435 286.597 24.1196C287.739 22.5526 288.268 20.5107 288.02 18.3336C287.779 16.1612 286.753 13.865 284.967 11.9759C283.842 10.7918 283.119 10.4698 282.662 10.6657C282.198 10.8661 281.985 11.5908 281.775 12.5546C281.566 13.5183 281.352 14.7183 280.938 15.8799C280.762 16.373 280.548 16.8547 280.292 17.314C279.78 16.8005 279.281 16.3144 278.833 15.8956C278.054 15.1662 277.437 14.6258 277.218 14.4256C275.935 13.2525 275.379 12.7348 275.64 11.7846C276.248 9.94314 276.127 7.83563 275.224 5.84109C274.33 3.84655 272.646 1.97341 270.365 0.723714C268.929 -0.060041 268.141 -0.147698 267.765 0.183242C267.385 0.513947 267.405 1.27075 267.502 2.25232C267.594 3.18865 267.75 4.33241 267.729 5.50781C266.955 4.60264 265.897 3.90256 264.708 3.35318C263.317 2.70466 261.234 2.27927 259.435 2.41872C257.632 2.54951 256.148 3.22474 255.801 4.47186C255.45 5.72601 256.292 7.03617 257.434 8.19118C258.586 9.33939 260.05 10.3594 261.227 10.9064C262.279 11.3902 263.323 11.7528 264.424 11.8226C264.375 11.8608 264.325 11.8993 264.276 11.9375C263.317 12.6647 262.349 13.2725 261.608 13.8307C260.867 14.3846 260.352 14.8843 260.268 15.3617C260.185 15.8412 260.534 16.2868 261.52 16.8273C263.085 17.6851 264.804 18.0249 266.59 17.9441C268.369 17.8562 270.21 17.352 271.854 16.3634C272.696 15.9066 273.297 16.3051 274.474 17.3923C274.675 17.577 275.213 18.1107 275.879 18.8333C276.26 19.2453 276.678 19.7204 277.106 20.2227C276.654 20.4364 276.19 20.6211 275.728 20.7831C274.593 21.1794 273.486 21.4609 272.61 21.7623C271.732 22.0642 271.09 22.3768 270.863 22.8071C270.638 23.2393 270.834 23.7728 271.608 24.5879C272.838 25.8894 274.371 26.7402 276.093 27.2108C277.813 27.6747 279.722 27.7558 281.589 27.3189C282.532 27.1412 282.98 27.704 283.766 29.0999C283.901 29.3385 284.25 30.0116 284.662 30.9009C285.002 31.637 285.382 32.5265 285.735 33.4314C285.168 33.5057 284.599 33.5327 284.04 33.5392C282.777 33.5552 281.58 33.4649 280.605 33.4741C279.632 33.483 278.884 33.5845 278.515 33.9334C278.144 34.2871 278.155 34.8768 278.643 35.9374C279.416 37.6211 280.641 38.9676 282.183 40.0146C283.727 41.0524 285.591 41.793 287.595 42.0115C288.592 42.1669 288.84 42.8805 289.126 44.5376C289.173 44.8191 289.281 45.607 289.371 46.6336C289.457 47.5974 289.522 48.7678 289.538 49.9228C288.964 49.7855 288.405 49.6076 287.867 49.414C286.616 48.9638 285.465 48.4369 284.501 48.0947C283.54 47.7478 282.766 47.5767 282.273 47.7863C281.777 47.9956 281.57 48.5742 281.66 49.7878C281.8 51.7128 282.504 53.4891 283.637 55.0831C284.769 56.6703 286.327 58.0887 288.216 59.0544C288.68 59.3178 288.903 59.6443 288.968 60.1262C289.036 60.6081 288.948 61.2383 288.77 62.105C288.711 62.3999 288.52 63.2127 288.216 64.2505C287.917 65.2883 287.502 66.5493 287.041 67.7493C287.016 67.8102 286.994 67.8688 286.971 67.9274C286.469 67.5716 286.001 67.1821 285.553 66.7881C284.508 65.8583 283.59 64.8993 282.782 64.1921C281.973 63.4829 281.284 63.017 280.721 63.0261C280.152 63.035 279.729 63.5146 279.348 64.7122C278.736 66.6123 278.733 68.5804 279.2 70.5702C279.67 72.5516 280.611 74.553 282.054 76.2571C282.736 77.1419 282.392 77.9029 281.35 79.436C281.172 79.6971 280.652 80.4042 279.933 81.2845C279.218 82.1625 278.294 83.2094 277.351 84.1777C277.2 84.3352 277.047 84.4884 276.896 84.6391C276.57 84.0898 276.282 83.5223 276.021 82.9596C275.406 81.6223 274.926 80.3142 274.442 79.2921C273.963 78.2679 273.49 77.5317 272.945 77.2999C272.396 77.0702 271.788 77.3449 270.923 78.3288C269.541 79.8822 268.715 81.7601 268.321 83.8648C267.936 85.9585 267.983 88.2842 268.629 90.5403C268.904 91.6838 268.244 92.2625 266.581 93.2757C266.297 93.4468 265.493 93.897 264.424 94.4213C263.354 94.9484 262.017 95.5381 260.693 96.0402C259.37 96.549 257.564 97.3257 256.602 97.6634C244.078 102.065 229.003 103.965 219.669 110.825C218.214 111.894 221.105 116.01 222.382 115.69C223.658 115.373 232.833 109.868 255.799 103.587C256.762 103.247 261.425 101.727 262.85 101.045C264.28 100.365 265.709 99.5907 266.848 98.9265C267.988 98.2602 268.841 97.7087 269.156 97.5195C270.072 96.9568 270.728 96.5445 271.288 96.358C271.846 96.1691 272.31 96.2026 272.832 96.5066C273.832 97.1595 274.969 97.6142 276.198 97.8416C277.427 98.0668 278.751 98.0624 280.1 97.8102C281.446 97.5556 282.822 97.0536 284.132 96.297C285.445 95.5428 286.696 94.5364 287.788 93.305C289.162 91.7492 289.488 90.7993 289.195 90.2588C288.9 89.7118 287.978 89.5496 286.766 89.4167C285.553 89.2885 284.049 89.1781 282.577 88.8021C281.955 88.6446 281.341 88.4398 280.753 88.1764C280.908 87.994 281.062 87.8093 281.215 87.6223C282.169 86.4673 283.092 85.2359 283.811 84.2138C284.529 83.1895 285.049 82.3788 285.244 82.0908C286.382 80.3976 286.877 79.657 288.025 79.781C290.261 80.1368 292.679 79.5804 294.82 78.1059C295.887 77.3697 296.882 76.4083 297.726 75.2556C298.573 74.1051 299.268 72.7588 299.746 71.2797C300.34 69.4155 300.259 68.47 299.799 68.1119C299.333 67.7507 298.469 67.9555 297.365 68.3022Z" fill="#4B4B4B"/>
<path d="M228.107 103.554C230.995 102.437 234.045 101.49 237.137 100.609C233.816 99.704 230.527 98.7608 227.397 97.6621C226.436 97.3244 224.63 96.5476 223.307 96.0388C221.983 95.5368 220.646 94.9471 219.576 94.42C218.507 93.8954 217.703 93.4452 217.419 93.2743C215.756 92.2611 215.096 91.6824 215.371 90.5389C216.017 88.2828 216.064 85.9571 215.679 83.8634C215.285 81.7587 214.459 79.8809 213.077 78.3274C212.212 77.3435 211.604 77.0688 211.055 77.2985C210.51 77.5303 210.037 78.2665 209.558 79.2907C209.074 80.3128 208.592 81.6209 207.98 82.9582C207.719 83.521 207.43 84.0884 207.104 84.6378C206.953 84.4869 206.8 84.3336 206.649 84.1763C205.706 83.2083 204.783 82.1614 204.067 81.2832C203.348 80.4028 202.828 79.696 202.65 79.4346C201.608 77.9016 201.261 77.1406 201.946 76.2558C203.389 74.5516 204.33 72.5501 204.8 70.5689C205.266 68.579 205.264 66.611 204.652 64.7109C204.271 63.5132 203.848 63.0337 203.278 63.0248C202.716 63.0159 202.027 63.4818 201.218 64.1908C200.41 64.8979 199.491 65.8567 198.447 66.7867C197.999 67.1807 197.531 67.5703 197.029 67.926C197.006 67.8675 196.984 67.8089 196.961 67.7479C196.497 66.5479 196.083 65.2872 195.784 64.2491C195.48 63.2113 195.288 62.3985 195.23 62.1037C195.052 61.2369 194.965 60.6065 195.032 60.1248C195.097 59.643 195.32 59.3165 195.784 59.053C197.673 58.0874 199.231 56.6689 200.365 55.0817C201.496 53.4878 202.203 51.7114 202.34 49.7865C202.432 48.5729 202.223 47.9942 201.728 47.7849C201.235 47.5756 200.46 47.7467 199.499 48.0933C198.535 48.4355 197.385 48.9624 196.135 49.4126C195.595 49.6062 195.036 49.7839 194.462 49.9215C194.481 48.7665 194.544 47.5958 194.629 46.6322C194.719 45.6057 194.827 44.8177 194.874 44.5362C195.16 42.8794 195.408 42.1655 196.405 42.0101C198.409 41.7917 200.273 41.051 201.817 40.0132C203.36 38.9663 204.584 37.62 205.357 35.936C205.845 34.8755 205.856 34.2858 205.485 33.9321C205.116 33.5833 204.368 33.4819 203.396 33.4727C202.421 33.4638 201.223 33.5538 199.96 33.5379C199.402 33.5313 198.832 33.5041 198.265 33.4301C198.618 32.5249 198.999 31.6357 199.339 30.8995C199.751 30.0103 200.1 29.3371 200.235 29.0985C201.021 27.7026 201.469 27.1399 202.412 27.3175C204.278 27.7544 206.187 27.6733 207.907 27.2095C209.63 26.7388 211.163 25.8881 212.392 24.5866C213.167 23.7716 213.362 23.2382 213.137 22.8058C212.91 22.3757 212.268 22.0628 211.39 21.7609C210.514 21.4593 209.407 21.1778 208.272 20.7817C207.81 20.6195 207.347 20.4348 206.894 20.2213C207.322 19.7193 207.741 19.244 208.124 18.8319C208.788 18.1096 209.326 17.5757 209.526 17.391C210.703 16.3037 211.305 15.9053 212.147 16.3621C213.79 17.3507 215.632 17.8548 217.41 17.9427C219.196 18.0236 220.916 17.6837 222.48 16.8259C223.467 16.2854 223.815 15.8399 223.732 15.3603C223.649 14.8829 223.133 14.383 222.392 13.8294C221.652 13.2711 220.684 12.6634 219.725 11.9361C219.675 11.8979 219.626 11.8595 219.576 11.8212C220.677 11.7514 221.722 11.3891 222.773 10.9051C223.951 10.358 225.414 9.33803 226.567 8.18982C227.708 7.03481 228.55 5.72465 228.201 4.4705C227.852 3.22315 226.368 2.54791 224.565 2.41736C222.766 2.27791 220.684 2.7033 219.292 3.35182C218.104 3.9012 217.046 4.60128 216.271 5.50644C216.251 4.33128 216.406 3.18752 216.499 2.25096C216.595 1.26939 216.616 0.512586 216.235 0.181881C215.859 -0.149293 215.071 -0.061402 213.635 0.722353C211.354 1.97181 209.67 3.84495 208.777 5.83973C207.874 7.83427 207.752 9.94178 208.36 11.7833C208.621 12.7334 208.065 13.2512 206.782 14.4242C206.563 14.6244 205.946 15.1649 205.168 15.8942C204.719 16.3131 204.22 16.7994 203.708 17.3127C203.452 16.8533 203.238 16.3717 203.062 15.8785C202.648 14.717 202.434 13.517 202.225 12.5532C202.015 11.5895 201.802 10.8648 201.338 10.6644C200.881 10.4684 200.158 10.7905 199.032 11.9745C197.247 13.8636 196.22 16.16 195.98 18.3322C195.732 20.5096 196.261 22.5515 197.402 24.1183C197.943 24.9423 197.574 25.6063 196.711 27.1171C196.567 27.3759 196.142 28.0785 195.626 29.0104C195.201 29.7782 194.719 30.6989 194.257 31.6467C193.839 31.2707 193.456 30.8545 193.109 30.4153C192.301 29.3957 191.686 28.2674 191.155 27.3714C190.624 26.4799 190.169 25.8227 189.64 25.7821C189.115 25.7392 188.499 26.309 187.774 27.8849C186.621 30.3953 186.378 33.0586 186.887 35.3165C187.389 37.5837 188.629 39.4345 190.311 40.5914C191.137 41.2217 191.002 42.012 190.68 43.8176C190.628 44.1261 190.46 44.9726 190.277 46.0824C190.108 47.1226 189.937 48.3948 189.818 49.6555C189.264 49.4394 188.733 49.1668 188.229 48.8605C187.058 48.1512 186.036 47.262 185.183 46.5711C184.332 45.882 183.642 45.398 183.105 45.5511C182.571 45.7041 182.172 46.5012 182.035 48.3336C181.824 51.2513 182.576 53.9734 183.917 56.015C185.257 58.0705 187.171 59.4348 189.26 59.9436C189.78 60.1014 190.088 60.3847 190.307 60.869C190.523 61.3508 190.651 62.0352 190.84 62.9831C190.903 63.3072 191.058 64.2056 191.306 65.365C191.552 66.5266 191.896 67.945 192.297 69.3072C192.317 69.3747 192.337 69.4422 192.358 69.51C191.739 69.5142 191.12 69.4579 190.512 69.3569C189.087 69.1225 187.738 68.6475 186.635 68.3008C185.532 67.9544 184.667 67.7493 184.201 68.1096C183.742 68.4677 183.661 69.4132 184.255 71.2774C184.732 72.7565 185.428 74.1026 186.275 75.2534C187.119 76.406 188.114 77.3674 189.181 78.1036C191.322 79.5781 193.74 80.1342 195.976 79.7787C197.124 79.6547 197.619 80.3953 198.756 82.0885C198.952 82.3765 199.472 83.1872 200.19 84.2115C200.908 85.2338 201.831 86.465 202.786 87.62C202.939 87.807 203.092 87.9917 203.247 88.1741C202.66 88.4373 202.045 88.6423 201.424 88.7998C199.952 89.1758 198.448 89.2862 197.234 89.4144C196.023 89.5475 195.1 89.7095 194.805 90.2565C194.512 90.797 194.839 91.7469 196.212 93.3027C197.304 94.5341 198.556 95.5405 199.868 96.2947C201.179 97.0511 202.554 97.5533 203.901 97.8079C205.249 98.0598 206.573 98.0645 207.802 97.8393C209.031 97.6119 210.168 97.1572 211.168 96.5043C211.69 96.2005 212.154 96.1668 212.712 96.3557C213.273 96.5425 213.928 96.9547 214.844 97.5172C215.159 97.7064 216.013 98.2579 217.152 98.9242C218.291 99.5884 219.721 100.363 221.15 101.043C222.532 101.706 226.967 103.158 228.107 103.554Z" fill="#4B4B4B"/>
<path d="M255.764 106.242C252.16 107.237 248.907 108.214 245.978 109.151C256.16 112.818 260.744 115.47 261.618 115.688C262.894 116.008 265.785 111.893 264.329 110.824C261.834 108.989 258.925 107.512 255.764 106.242Z" fill="#4B4B4B"/>
<circle cx="176" cy="491" r="130" fill="#F5F5F5"/>
<path d="M168.677 348.484L170.3 348.358L170.7 353.535L169.077 353.66L168.677 348.484ZM166.957 342.791L168.483 343.402C167.393 344.435 166.04 345.488 164.992 346.209L163.825 345.659C164.867 344.873 166.208 343.666 166.957 342.791ZM171.948 343.134L173.435 343.813C171.283 345.656 168.27 347.787 165.945 349.114L164.835 348.45C167.178 347.077 170.179 344.793 171.948 343.134ZM161.726 345.623L162.729 344.619C164.474 345.212 166.69 346.188 167.854 346.981L166.773 348.123C165.675 347.326 163.476 346.282 161.726 345.623ZM172.768 346.027L173.824 345.129C175.805 345.925 178.221 347.216 179.472 348.267L178.359 349.28C177.176 348.246 174.752 346.867 172.768 346.027ZM172.644 350.141L173.781 349.148C175.676 349.686 178.091 350.669 179.413 351.493L178.218 352.601C177.008 351.789 174.588 350.741 172.644 350.141ZM159.965 348.539C164.045 348.224 170.748 347.595 177.035 346.999L177.042 348.234C170.914 348.884 164.346 349.547 160.139 349.938L159.965 348.539ZM165.122 349.884L166.637 350.362C165.241 351.706 163.073 353.065 161.244 353.957C160.959 353.692 160.323 353.167 159.93 352.933C161.833 352.146 163.884 350.995 165.122 349.884ZM169.004 334.447L176.527 333.865L176.636 335.269L169.112 335.851L169.004 334.447ZM159.917 342.497L168.954 341.798L169.048 343.005L160.011 343.703L159.917 342.497ZM159.331 334.908L168.346 334.211L168.439 335.417L160.981 335.994L161.529 343.078L159.972 343.199L159.331 334.908ZM160.425 337.361L168.168 336.762L168.453 340.447L160.71 341.046L160.627 339.971L166.834 339.491L166.714 337.934L160.506 338.413L160.425 337.361ZM163.47 335.073L164.852 334.966L165.06 337.664L163.678 337.771L163.47 335.073ZM163.866 340.206L165.248 340.099L165.455 342.775L164.073 342.882L163.866 340.206ZM171.071 335.787C172.591 338.891 175.552 341.222 179.25 341.973C178.923 342.308 178.508 342.935 178.321 343.369C174.474 342.409 171.474 339.86 169.742 336.287L171.071 335.787ZM176.155 333.894L176.462 333.87L176.742 333.782L177.756 334.057C176.828 338.895 173.75 341.891 170.057 343.5C169.853 343.141 169.436 342.6 169.105 342.316C172.489 340.996 175.382 338.168 176.173 334.135L176.155 333.894Z" fill="#00A0E8"/>
<path d="M184.664 337.966L198.983 339.129L198.353 346.891L183.573 345.692L183.684 344.332L196.84 345.4L197.248 340.379L184.552 339.348L184.664 337.966ZM187.403 334.679L194.924 335.29L194.814 336.649L187.292 336.039L187.403 334.679ZM184.621 341.208L197.734 342.272L197.629 343.566L184.516 342.501L184.621 341.208ZM188.114 332.993L189.863 333.466C188.301 335.856 185.998 338.384 182.761 340.196C182.53 339.78 182.047 339.211 181.673 338.916C184.714 337.352 186.912 335.015 188.114 332.993ZM186.705 347.623L188.306 347.753L188.044 350.977C188 351.525 188.188 351.65 189.285 351.739C189.767 351.779 192.311 351.985 192.99 352.04C193.889 352.113 194.068 351.819 194.354 349.657C194.661 349.947 195.322 350.243 195.753 350.366C195.338 353.026 194.804 353.622 193.006 353.476C192.546 353.439 189.476 353.19 189.037 353.154C186.801 352.973 186.312 352.469 186.442 350.869L186.705 347.623ZM188.271 346.823L189.387 345.854C190.79 346.52 192.424 347.602 193.213 348.483L192.044 349.558C191.299 348.68 189.67 347.533 188.271 346.823ZM195.694 348.64L197.094 347.981C198.548 349.379 200.153 351.364 200.813 352.742L199.273 353.499C198.656 352.125 197.121 350.102 195.694 348.64ZM184.072 347.167L185.52 347.814C184.784 349.542 183.742 351.223 181.968 352.139L180.689 351.042C182.319 350.269 183.435 348.748 184.072 347.167ZM194.551 335.26L194.902 335.288L195.172 335.222L196.254 336.038C195.42 337.339 194.104 338.865 193.101 339.799C192.814 339.533 192.272 339.136 191.914 338.93C192.845 338.057 193.98 336.582 194.526 335.567L194.551 335.26Z" fill="#00A0E8"/>
<path d="M214.893 341.77L220.687 343.176L220.381 344.437L214.587 343.032L214.893 341.77ZM213.875 345.032L220.182 346.562L219.876 347.824L213.569 346.294L213.875 345.032ZM217.536 340.487L218.84 340.804L217.419 346.662L216.115 346.345L217.536 340.487ZM214.006 337.684L223.348 339.951L223.006 341.362L213.663 339.095L214.006 337.684ZM214.158 348.157L219.054 349.345L217.711 354.882L212.815 353.694L213.115 352.454L216.771 353.341L217.518 350.263L213.863 349.376L214.158 348.157ZM213.495 347.996L214.714 348.292L213.168 354.663L211.95 354.367L213.495 347.996ZM222.75 339.805L224.246 340.169L220.179 356.93C219.951 357.871 219.634 358.337 218.973 358.449C218.307 358.581 217.233 358.343 215.629 357.954C215.669 357.511 215.653 356.737 215.527 356.231C216.687 356.581 217.804 356.829 218.173 356.896C218.493 356.974 218.6 356.909 218.683 356.567L222.75 339.805ZM213.193 337.487L214.668 337.844L212.806 345.52C211.991 348.876 210.61 353.544 208.046 356.273C207.857 355.932 207.325 355.328 207.003 355.069C209.413 352.507 210.563 348.326 211.331 345.162L213.193 337.487ZM204.72 341.339L210.214 342.672L209.903 343.955L204.409 342.622L204.72 341.339ZM206.233 335.662L211.535 336.948L211.224 338.231L205.922 336.945L206.233 335.662ZM204.025 344.204L209.519 345.537L209.208 346.82L203.713 345.487L204.025 344.204ZM204.549 338.219L211.454 339.894L211.133 341.22L204.227 339.544L204.549 338.219ZM204.073 347.272L208.797 348.418L207.288 354.64L202.563 353.493L202.885 352.168L206.263 352.987L207.129 349.417L203.751 348.597L204.073 347.272ZM203.282 347.08L204.607 347.401L202.854 354.628L201.528 354.306L203.282 347.08Z" fill="#00A0E8"/>
<path d="M229.113 350.174L226.106 357.358L224.645 356.746L227.057 350.983L224.48 349.904L225.074 348.483L229.113 350.174ZM226.361 356.749C226.686 358.65 228.183 360.087 230.564 361.179C232.774 362.224 237.488 364.125 240.011 364.99C239.684 365.259 239.143 365.867 238.895 366.288C236.56 365.43 232.2 363.653 229.969 362.6C227.333 361.377 225.784 359.894 225.196 357.764C223.938 358.263 222.639 358.745 221.251 359.213L221.08 357.4C222.244 357.125 223.722 356.67 225.042 356.197L226.361 356.749ZM228.043 341.903L229.548 341.555C230.424 342.995 231.259 344.99 231.472 346.248L229.814 346.675C229.671 345.422 228.865 343.416 228.043 341.903ZM233.658 349.286L235.093 349.505C235.296 350.329 235.337 351.372 235.233 352.02L233.679 351.799C233.824 351.168 233.812 350.113 233.658 349.286ZM234.128 344.688L244.701 349.114L244.225 350.25L233.652 345.825L234.128 344.688ZM230.401 353.193L241.4 357.797L240.925 358.933L229.925 354.329L230.401 353.193ZM230.683 350.354L243.265 355.62L242.781 356.777L230.199 351.511L230.683 350.354ZM231.655 346.778L244.968 352.35L244.475 353.527L231.162 347.955L231.655 346.778ZM228.273 355.427L241.221 360.846L240.728 362.023L227.781 356.604L228.273 355.427ZM239.206 344.978L240.728 345.615L238.647 350.587L237.125 349.95L239.206 344.978ZM235.799 353.115L237.322 353.753L234.077 361.505L232.555 360.868L235.799 353.115ZM240.322 351.598L241.634 352.624C240.876 353.237 240.09 353.862 239.495 354.257L238.451 353.391C239.039 352.897 239.864 352.122 240.322 351.598Z" fill="#00A0E8"/>
<path d="M256.169 357.816C257.985 359.436 261.826 361.717 263.85 362.586L262.91 364.1C260.771 363.082 257.145 360.831 255.247 359.342L256.169 357.816ZM252.163 365.895C251.577 366.463 251.159 366.928 250.845 367.433C250.311 368.293 250.387 369.505 252.948 371.095C254.611 372.128 256.162 372.883 257.878 373.457L256.94 375.05C255.631 374.573 253.968 373.748 252.024 372.541C248.903 370.603 248.151 368.686 249.242 366.929C249.625 366.313 250.136 365.698 250.898 364.928L252.163 365.895ZM253.511 354.172C253.202 354.42 252.681 354.926 252.397 355.216C250.963 356.733 248.318 359.7 247.006 361.812C246.449 362.71 246.018 363.529 245.562 364.515C246.402 363.871 247.528 363.017 248.321 362.448L248.723 363.552C247.432 364.589 245.522 366.122 244.797 366.914C244.578 367.141 244.32 367.473 244.181 367.697C244.084 367.896 243.94 368.169 243.831 368.386L242.446 367.656C242.896 366.097 243.913 363.75 245.491 361.208C247.197 358.461 249.798 355.648 250.986 354.236C251.309 353.841 251.655 353.408 251.929 353.009L253.511 354.172Z" fill="#00A0E8"/>
<path d="M274.3 373.086L282.09 379.819L281.04 381.034L273.25 374.301L274.3 373.086ZM268.139 365.58L275.879 372.27L274.872 373.435L267.132 366.745L268.139 365.58ZM282.328 373.016L283.577 374.095L271.795 387.728C271.076 388.56 270.543 388.739 269.842 388.541C269.156 388.325 268.278 387.625 266.846 386.388C267.099 385.995 267.419 385.254 267.567 384.713C268.587 385.653 269.519 386.459 269.816 386.686C270.113 386.914 270.302 386.932 270.561 386.632L282.328 373.016ZM271.52 376.673L272.969 377.083C272.776 378.922 272.251 381.144 271.64 382.389L270.081 381.972C270.695 380.758 271.312 378.529 271.52 376.673ZM265.591 369.572L267.094 369.649C267.283 373.535 267.079 378.447 266.39 381.196L264.658 381.182C265.409 378.429 265.735 373.476 265.591 369.572ZM273.677 365.598L274.876 366.634L271.927 370.046L270.728 369.01L273.677 365.598ZM271.878 371.516L272.951 372.763C267.772 377.04 263.085 379.066 257.876 378.431C257.925 378.038 257.907 377.15 257.842 376.687C262.709 377.549 267.163 375.525 271.878 371.516Z" fill="#00A0E8"/>
<path d="M286.568 390.309L287.619 391.552L281.083 397.077C280.495 397.574 280.525 397.78 281.079 398.435C281.334 398.737 282.613 400.249 282.953 400.653C283.522 401.325 284.044 401.056 286.584 399.052C286.591 399.537 286.815 400.211 286.998 400.633C284.112 402.842 283.072 403.145 281.865 401.717C281.609 401.414 280.047 399.566 279.792 399.264C278.527 397.768 278.621 397.027 280.049 395.82L286.568 390.309ZM283.177 389.229L283.891 390.584C281.875 391.914 279.302 393.369 277.219 393.631L276.786 392.096C278.776 391.826 281.226 390.533 283.177 389.229ZM288.794 388.888L290.342 389.049C290.806 390.961 291.213 393.555 291.179 395.082L289.471 394.97C289.548 393.494 289.222 390.859 288.794 388.888ZM289.783 397.213L291.188 397.955C290.409 400.544 289.036 403.52 287.779 405.1L286.238 404.3C287.506 402.767 288.973 399.799 289.783 397.213ZM294.302 385.759L295.395 387.052L292.539 389.467L291.446 388.173L294.302 385.759ZM287.391 381.979L298.682 395.336L297.472 396.359L286.181 383.002L287.391 381.979ZM286.879 381.374L287.945 382.634L283.593 386.313C281.006 388.5 277.01 391.475 273.235 392.189C273.268 391.786 273.153 390.933 273.031 390.517C276.615 389.85 280.109 387.098 282.528 385.053L286.879 381.374Z" fill="#00A0E8"/>
<path d="M121.548 503H118.796V487.032C118.796 486.413 118.796 485.891 118.796 485.464C118.817 485.037 118.838 484.643 118.86 484.28C118.881 483.896 118.902 483.501 118.924 483.096C118.582 483.437 118.273 483.725 117.996 483.96C117.718 484.195 117.366 484.493 116.94 484.856L114.508 486.84L113.036 484.952L119.212 480.152H121.548V503ZM137.3 488.984C138.857 488.984 140.212 489.251 141.364 489.784C142.516 490.317 143.401 491.085 144.02 492.088C144.66 493.069 144.98 494.275 144.98 495.704C144.98 497.283 144.639 498.648 143.956 499.8C143.273 500.931 142.292 501.805 141.012 502.424C139.753 503.021 138.228 503.32 136.436 503.32C135.263 503.32 134.153 503.213 133.108 503C132.084 502.787 131.22 502.477 130.516 502.072V499.416C131.284 499.885 132.212 500.259 133.3 500.536C134.409 500.792 135.465 500.92 136.468 500.92C137.599 500.92 138.58 500.749 139.412 500.408C140.265 500.045 140.927 499.501 141.396 498.776C141.865 498.029 142.1 497.101 142.1 495.992C142.1 494.499 141.641 493.357 140.724 492.568C139.807 491.757 138.356 491.352 136.372 491.352C135.775 491.352 135.092 491.405 134.324 491.512C133.556 491.619 132.937 491.725 132.468 491.832L131.06 490.936L131.924 480.152H143.38V482.712H134.324L133.78 489.336C134.143 489.272 134.633 489.197 135.252 489.112C135.871 489.027 136.553 488.984 137.3 488.984ZM154.253 491.456V494.24H163.541V491.456H154.253ZM152.573 490.064H165.293V495.632H152.573V490.064ZM157.637 494.96L159.653 495.152C159.221 496.352 158.717 497.6 158.309 498.464L156.749 498.176C157.085 497.264 157.469 495.896 157.637 494.96ZM150.869 497.552H167.213V504.92H165.413V499.16H152.597V504.944H150.869V497.552ZM151.781 502.448H166.205V504.032H151.781V502.448ZM149.021 486.656H168.893V491.384H167.141V488.216H150.677V491.384H149.021V486.656ZM165.581 483.056L167.453 483.704C166.469 485.024 165.317 486.488 164.381 487.448L162.941 486.824C163.829 485.816 164.957 484.208 165.581 483.056ZM150.437 483.848L151.973 483.176C152.837 484.136 153.821 485.456 154.229 486.344L152.621 487.088C152.213 486.2 151.301 484.832 150.437 483.848ZM156.437 483.368L157.997 482.816C158.741 483.824 159.581 485.264 159.893 486.2L158.261 486.824C157.949 485.888 157.157 484.424 156.437 483.368ZM172.325 497.672H193.349V499.184H172.325V497.672ZM172.421 487.136H193.253V488.672H172.421V487.136ZM173.381 491.24H192.389V492.728H173.381V491.24ZM174.605 494.48H191.213V495.872H174.605V494.48ZM181.877 491.936H183.653V504.944H181.877V491.936ZM179.669 482.84H181.373V487.856H179.669V482.84ZM184.205 482.84H185.933V487.784H184.205V482.84ZM181.301 498.272L182.741 498.944C180.509 501.44 176.453 503.528 172.877 504.536C172.613 504.08 172.085 503.384 171.701 503C175.253 502.208 179.261 500.36 181.301 498.272ZM184.229 498.224C186.269 500.384 190.301 502.232 193.949 503C193.541 503.384 192.989 504.104 192.725 504.608C189.077 503.6 185.069 501.416 182.812 498.824L184.229 498.224ZM189.773 483.128L191.621 483.632C190.925 484.952 190.061 486.368 189.389 487.304L187.925 486.824C188.573 485.816 189.365 484.232 189.773 483.128ZM186.557 488.216L188.429 488.672C187.829 489.752 187.205 490.856 186.677 491.624L185.165 491.168C185.645 490.328 186.269 489.08 186.557 488.216ZM174.365 483.632L175.901 483.08C176.717 484.16 177.605 485.672 177.941 486.656L176.333 487.256C175.997 486.296 175.133 484.76 174.365 483.632ZM177.485 488.84L179.189 488.504C179.741 489.296 180.293 490.376 180.509 491.096L178.733 491.48C178.541 490.76 178.013 489.632 177.485 488.84ZM199.037 484.472H214.757V504.56H212.861V486.296H200.885V504.656H199.037V484.472ZM200.261 492.8H213.653V494.576H200.261V492.8ZM200.237 501.296H213.701V503.096H200.237V501.296ZM220.685 487.208C221.597 487.184 222.365 487.136 222.845 487.088C224.381 486.92 228.917 486.488 233.333 486.104C235.973 485.888 238.205 485.744 239.813 485.696L239.837 487.616C238.445 487.592 236.357 487.64 235.133 487.976C231.701 489.08 229.613 492.752 229.613 495.584C229.613 500.264 234.005 501.776 237.893 501.92L237.197 503.888C232.757 503.72 227.717 501.368 227.717 495.992C227.717 492.272 229.997 489.2 232.181 487.904C229.613 488.168 223.493 488.768 220.901 489.32L220.685 487.208ZM236.357 490.544C236.909 491.336 237.821 492.824 238.349 493.904L237.101 494.456C236.549 493.304 235.877 492.08 235.157 491.072L236.357 490.544ZM238.973 489.536C239.573 490.328 240.509 491.792 241.061 492.848L239.837 493.448C239.261 492.296 238.541 491.096 237.797 490.088L238.973 489.536Z" fill="black"/>
<path d="M158 440.784V442.488H170.048V440.784H158ZM158 437.904V439.56H170.048V437.904H158ZM156.248 436.608H171.824V443.76H156.248V436.608ZM153.392 445.104H174.536V446.592H153.392V445.104ZM164.048 448.104H172.592V449.568H164.048V448.104ZM156.512 448.248H162.44V449.592H156.512V448.248ZM156.512 451.272H162.44V452.616H156.512V451.272ZM166.568 449.448C167.96 452.88 171.032 455.496 175.112 456.504C174.728 456.84 174.248 457.488 174.008 457.92C169.784 456.672 166.688 453.816 165.104 449.88L166.568 449.448ZM172.04 448.104H172.376L172.688 448.032L173.792 448.488C172.208 453.36 168.344 456.36 164.168 457.8C163.976 457.368 163.52 456.72 163.184 456.384C167.024 455.232 170.72 452.424 172.04 448.392V448.104ZM153.176 454.944C155.528 454.752 159.008 454.368 162.392 453.984V455.472C159.152 455.856 155.816 456.264 153.344 456.552L153.176 454.944ZM161.48 445.584H163.208V457.92H161.48V445.584ZM155.456 445.608H157.136V455.376H155.456V445.608ZM186.56 436.896H198.8V438.576H186.56V436.896ZM185.504 455.736H199.016V457.416H185.504V455.736ZM188.24 450L189.8 449.64C190.4 451.248 190.952 453.36 191.12 454.728L189.464 455.16C189.344 453.768 188.816 451.632 188.24 450ZM195.224 449.496L197.048 449.904C196.424 451.728 195.704 453.96 195.08 455.304L193.568 454.896C194.168 453.504 194.888 451.128 195.224 449.496ZM189.224 442.824V447.048H196.04V442.824H189.224ZM187.52 441.216H197.792V448.656H187.52V441.216ZM181.448 439.92H183.176V444.648C183.176 448.632 182.456 454.2 178.112 457.848C177.896 457.464 177.224 456.792 176.888 456.576C180.968 453.144 181.448 448.296 181.448 444.624V439.92ZM179.264 438.984H186.344V440.64H179.264V438.984ZM177.032 445.488H186.632V447.168H177.032V445.488ZM182.648 448.608C183.416 449.328 186.152 452.472 186.776 453.24L185.6 454.728C184.784 453.432 182.504 450.624 181.568 449.592L182.648 448.608ZM179.456 435.96L181.184 436.272C180.608 439.392 179.624 442.416 178.328 444.408C177.992 444.144 177.2 443.712 176.768 443.544C178.088 441.696 178.976 438.84 179.456 435.96Z" fill="black"/>
<path d="M129.56 526.144H150.416V527.704H129.56V526.144ZM138.944 523.84H140.792V526.888H138.944V523.84ZM130.616 535.528H148.448V537.064H132.368V545.944H130.616V535.528ZM147.704 535.528H149.504V543.784C149.504 544.768 149.288 545.296 148.52 545.608C147.752 545.872 146.456 545.896 144.464 545.896C144.392 545.392 144.128 544.672 143.864 544.192C145.448 544.24 146.792 544.24 147.2 544.192C147.608 544.192 147.704 544.072 147.704 543.736V535.528ZM135.416 538.624H137.024V544.912H135.416V538.624ZM136.28 538.624H144.584V543.688H136.28V542.392H142.952V539.92H136.28V538.624ZM135.272 530.368V532.696H144.656V530.368H135.272ZM133.544 529.048H146.48V534.016H133.544V529.048ZM158.264 533.32V541.816H156.512V535H153.152V533.32H158.264ZM158.264 541.024C159.392 542.8 161.528 543.616 164.288 543.736C166.904 543.832 172.304 543.76 175.136 543.568C174.944 544 174.632 544.864 174.56 545.416C171.92 545.512 166.952 545.56 164.288 545.464C161.168 545.344 159.008 544.504 157.472 542.608C156.32 543.64 155.096 544.672 153.8 545.728L152.84 543.88C153.992 543.112 155.408 542.056 156.632 541.024H158.264ZM153.416 525.52L154.736 524.44C156.32 525.448 158.12 527.008 158.96 528.184L157.544 529.36C156.776 528.208 154.976 526.576 153.416 525.52ZM162.296 531.352V534.4H171.824V531.352H162.296ZM160.616 529.888H173.576V535.864H160.616V529.888ZM159.632 526.36H174.656V527.92H159.632V526.36ZM166.088 523.888H167.816V542.824H166.088V523.888ZM165.488 535.288L166.808 535.792C165.392 538.36 162.776 540.856 160.352 542.128C160.088 541.696 159.56 541.072 159.176 540.76C161.552 539.728 164.168 537.496 165.488 535.288ZM168.248 535.288C169.688 537.4 172.424 539.608 174.8 540.64C174.392 541 173.84 541.6 173.576 542.056C171.224 540.784 168.488 538.24 166.976 535.864L168.248 535.288ZM191.336 533.008L192.584 532C194.096 534.232 195.896 537.136 196.76 539.008L195.416 540.136C194.576 538.264 192.824 535.24 191.336 533.008ZM186.2 528.352H197.504V530.032H187.808V545.92H186.2V528.352ZM196.784 528.352H198.416V543.88C198.416 544.84 198.248 545.368 197.6 545.632C196.976 545.92 195.944 545.944 194.432 545.944C194.36 545.488 194.12 544.72 193.88 544.264C194.984 544.312 196.064 544.288 196.352 544.288C196.664 544.288 196.784 544.192 196.784 543.856V528.352ZM191.672 523.84H193.376C193.232 530.896 192.824 537.016 188.84 540.352C188.6 540.016 188.048 539.464 187.664 539.224C191.312 536.176 191.576 530.416 191.672 523.84ZM180.68 523.864L182.264 524.488C181.352 526.24 180.224 528.376 179.288 529.696L178.04 529.12C178.952 527.752 180.056 525.448 180.68 523.864ZM183.368 526.6L184.88 527.272C183.248 530.032 180.944 533.512 179.168 535.624L178.064 535C179.84 532.84 182.096 529.192 183.368 526.6ZM176.888 528.904L177.8 527.728C179.144 528.856 180.656 530.416 181.304 531.496L180.344 532.864C179.696 531.736 178.184 530.056 176.888 528.904ZM182.528 532.168L183.776 531.664C184.76 533.2 185.72 535.264 186.056 536.584L184.712 537.208C184.376 535.864 183.488 533.752 182.528 532.168ZM176.816 534.616C178.904 534.544 181.904 534.424 184.952 534.256L184.928 535.744C182.048 535.936 179.144 536.104 176.96 536.248L176.816 534.616ZM183.152 537.832L184.448 537.424C185.12 538.768 185.768 540.592 186.008 541.792L184.616 542.272C184.4 541.072 183.752 539.224 183.152 537.832ZM178.16 537.568L179.72 537.856C179.384 540.112 178.784 542.44 178.016 543.976C177.704 543.784 176.984 543.448 176.6 543.28C177.392 541.816 177.872 539.68 178.16 537.568ZM180.752 535.288H182.36V545.992H180.752V535.288ZM207.224 526.6V531.16H216.824V526.6H207.224ZM205.472 524.872H218.648V532.888H205.472V524.872ZM201.992 535.432H210.536V545.728H208.736V537.16H203.696V545.92H201.992V535.432ZM213.152 535.432H222.176V545.776H220.376V537.16H214.88V545.92H213.152V535.432ZM202.76 542.896H209.456V544.624H202.76V542.896ZM214.04 542.896H221.168V544.624H214.04V542.896Z" fill="black"/>
<path d="M11.0405 357.522L1.55776 384.185C0.613515 386.432 0 390.074 0 391.807C0 393.54 0 402.322 0 402.322C0 405.174 2.33472 407.517 5.19549 407.517H11.415C12.0405 413.964 17.4711 419 24.0811 419C30.691 419 36.1255 413.964 36.7512 407.517H48.2537V352.957H18.7142C15.8575 352.957 12.4031 355.013 11.0405 357.522ZM24.0811 412.633C20.567 412.633 17.7142 409.78 17.7142 406.266C17.7142 402.752 20.567 399.907 24.0811 399.907C27.5992 399.907 30.448 402.752 30.448 406.266C30.448 409.78 27.599 412.633 24.0811 412.633ZM42.2772 359.73V380.006H11.9528L17.9133 361.746C18.4353 360.782 20.2082 359.73 21.2999 359.73L42.2772 359.73Z" fill="#4B4B4B"/>
<path d="M55.5366 346.199V407.517H93.0485C93.6661 413.964 99.1005 419 105.71 419C112.324 419 117.751 413.964 118.384 407.517H130.557V346.199H55.5366ZM105.711 412.633C102.197 412.633 99.3438 409.78 99.3438 406.266C99.3438 402.752 102.197 399.907 105.711 399.907C109.229 399.907 112.078 402.752 112.078 406.266C112.078 409.78 109.229 412.633 105.711 412.633Z" fill="#4B4B4B"/>
<ellipse cx="120.765" cy="346.199" rx="27.1993" ry="27.1993" fill="white"/>
<path d="M112.813 342.943L119.7 348.256L119.796 348.311L119.839 348.335C120.435 348.667 121.223 348.491 121.749 347.912L121.795 347.868L130.236 337.881C130.717 337.342 130.725 336.567 130.257 336.151C129.789 335.734 129.02 335.834 128.542 336.373L120.651 344.802L114.559 340.56C113.989 340.14 113.135 340.335 112.652 340.994C112.17 341.65 112.241 342.524 112.813 342.943Z" fill="#4B4B4B"/>
<path d="M104.237 346.198C104.237 345.833 104.245 345.469 104.283 345.111H99.9597C99.9333 345.469 99.9263 345.833 99.9263 346.198C99.9263 346.57 99.9333 346.929 99.9597 347.287H104.283C104.245 346.929 104.237 346.565 104.237 346.198Z" fill="#4B4B4B"/>
<path d="M111.884 332.259C112.293 332 112.71 331.757 113.134 331.54L113.299 331.46L111.144 327.718C110.605 327.99 110.08 328.292 109.57 328.623L111.726 332.366L111.884 332.259Z" fill="#4B4B4B"/>
<path d="M102.285 336.577L106.028 338.732L106.934 337.16L103.189 335.004C102.858 335.514 102.557 336.038 102.285 336.577Z" fill="#4B4B4B"/>
<path d="M135.425 353.829C135.201 354.254 134.964 354.67 134.698 355.072L134.59 355.23L138.334 357.386C138.666 356.876 138.968 356.36 139.246 355.821L135.512 353.658L135.425 353.829Z" fill="#4B4B4B"/>
<path d="M106.107 353.822L106.02 353.658L102.285 355.813C102.55 356.352 102.858 356.876 103.189 357.386L106.934 355.23L106.825 355.072C106.566 354.67 106.323 354.254 106.107 353.822Z" fill="#4B4B4B"/>
<path d="M111.884 360.131L111.726 360.023L109.57 363.768C110.08 364.099 110.605 364.408 111.144 364.68L113.299 360.937L113.134 360.857C112.71 360.641 112.293 360.397 111.884 360.131Z" fill="#4B4B4B"/>
<path d="M128.225 331.454L129.798 332.366L131.953 328.623C131.444 328.292 130.925 327.99 130.388 327.718L128.225 331.454Z" fill="#4B4B4B"/>
<path d="M119.678 362.681V366.999C120.037 367.031 120.4 367.038 120.765 367.038C121.13 367.038 121.495 367.031 121.852 366.999V362.681V362.636H119.678V362.681Z" fill="#4B4B4B"/>
<path d="M121.852 329.718V325.4C121.495 325.368 121.13 325.361 120.765 325.361C120.4 325.361 120.037 325.368 119.678 325.4V329.718V329.763H121.852V329.718Z" fill="#4B4B4B"/>
<path d="M128.225 360.944L130.388 364.68C130.925 364.4 131.444 364.099 131.953 363.768L129.798 360.023L128.225 360.944Z" fill="#4B4B4B"/>
<path d="M139.246 336.577C138.973 336.038 138.666 335.514 138.334 335.004L134.59 337.16L135.504 338.732L139.246 336.577Z" fill="#4B4B4B"/>
<path d="M141.571 345.111H137.248H137.203V347.287H137.248H141.571C141.598 346.929 141.604 346.565 141.604 346.198C141.604 345.833 141.598 345.469 141.571 345.111Z" fill="#4B4B4B"/>
<path d="M120.764 319C105.741 319.001 93.5664 331.177 93.5654 346.199C93.5664 361.222 105.741 373.398 120.764 373.399C135.787 373.398 147.962 361.222 147.963 346.199C147.962 331.177 135.787 319.001 120.764 319ZM120.764 369.889C114.217 369.888 108.305 367.241 104.013 362.95C99.7234 358.657 97.0756 352.746 97.0751 346.199C97.0756 339.653 99.7234 333.74 104.013 329.449C108.305 325.158 114.217 322.511 120.764 322.51C127.311 322.511 133.223 325.158 137.515 329.449C141.805 333.74 144.453 339.652 144.453 346.199C144.453 352.746 141.805 358.657 137.515 362.95C133.223 367.241 127.311 369.888 120.764 369.889Z" fill="#4B4B4B"/>
<circle cx="535" cy="500" r="130" fill="#F5F5F5"/>
<path d="M526.879 335.21L528.648 335.536C527.842 337.386 526.84 339.56 525.957 340.974L524.561 340.618C525.397 339.164 526.365 336.838 526.879 335.21ZM522.97 340.3C525.703 339.978 530.095 339.418 534.268 338.875L534.354 340.281C530.406 340.873 526.237 341.46 523.333 341.861L522.97 340.3ZM530.908 337.37L532.193 336.586C533.658 337.841 535.336 339.565 536.114 340.784L534.724 341.642C533.993 340.463 532.352 338.648 530.908 337.37ZM523.726 353.79C526.608 353.391 531.124 352.733 535.418 352.048L535.513 353.563C531.395 354.234 527.035 354.924 524.049 355.398L523.726 353.79ZM532.391 350.274L533.703 349.554C535.136 350.966 536.721 352.918 537.378 354.279L536.027 355.068C535.372 353.728 533.849 351.728 532.391 350.274ZM525.525 345.089L525.765 348.204L533.947 347.572L533.706 344.457L525.525 345.089ZM523.903 343.803L535.177 342.931L535.635 348.853L524.36 349.725L523.903 343.803ZM521.172 346.154L522.707 346.035C522.707 346.035 522.746 346.54 522.743 346.783C522.887 352.354 522.783 354.436 522.226 355.23C521.867 355.721 521.482 355.883 520.851 355.998C520.284 356.086 519.232 356.167 518.13 356.186C518.071 355.705 517.822 355.063 517.523 354.622C518.607 354.649 519.66 354.568 520.076 354.535C520.449 354.507 520.643 354.447 520.825 354.235C521.249 353.717 521.337 351.724 521.194 346.439L521.172 346.154ZM516.555 342.098L518.025 341.984C518.021 344.213 517.956 347.087 517.852 348.882L516.364 348.754C516.495 347.023 516.585 344.192 516.555 342.098ZM517.18 346.463L521.786 346.107L521.899 347.576L517.14 347.944L517.18 346.463ZM528.498 340.733L530.077 340.611L531.065 353.399L529.493 353.609L528.498 340.733ZM516.994 342.064L520.745 341.774L520.485 338.418L515.901 338.772L515.787 337.303L521.951 336.826L522.441 343.165L517.111 343.577L516.994 342.064Z" fill="#00A0E8"/>
<path d="M539.653 339.45L556.669 340.831L556.534 342.498L539.518 341.117L539.653 339.45ZM556.033 340.78L557.744 340.919C557.744 340.919 557.672 341.531 557.628 341.792C556.387 350.829 555.662 354.059 554.608 355.077C554.03 355.67 553.489 355.803 552.651 355.801C551.876 355.827 550.476 355.669 549.124 355.471C549.141 354.987 548.981 354.245 548.713 353.738C550.193 353.991 551.595 354.126 552.143 354.171C552.625 354.21 552.894 354.166 553.2 353.926C554.099 353.182 554.859 349.8 556.005 341.131L556.033 340.78ZM547.21 335.274L548.942 335.414L548.632 339.23C548.226 344.229 547.062 350.955 539.012 354.959C538.803 354.545 538.239 353.881 537.867 353.564C545.5 349.813 546.532 343.628 546.9 339.089L547.21 335.274Z" fill="#00A0E8"/>
<path d="M562.566 341.439C563.336 341.716 564.245 341.982 565.164 342.205C567.473 342.766 570.235 343.141 572.89 342.926L572.549 344.518C570.314 344.587 567.399 344.378 564.796 343.723C564.005 343.531 563.091 343.287 562.305 343.074L562.566 341.439ZM571.001 339.796C570.469 340.776 569.532 342.677 568.651 344.07C566.878 346.9 563.967 350.314 561.611 352.278L560.172 351.023C562.615 349.261 565.526 345.938 567.015 343.628C567.812 342.395 568.739 340.628 569.166 339.147L571.001 339.796ZM574.444 347.626C574.167 348.487 574.011 349.129 573.846 349.904C573.551 351.304 572.955 354.6 572.613 356.011C572.198 357.721 570.77 358.847 568.119 358.203C565.767 357.633 564.093 356.23 564.612 354.092C565.089 352.125 567.25 351.337 569.644 351.918C573.236 352.789 575.558 355.254 576.943 357.198L575.692 358.434C574.409 356.538 572.412 354.038 569.27 353.276C567.687 352.892 566.442 353.359 566.204 354.343C565.965 355.326 566.633 356.213 568.3 356.617C570.075 357.048 570.902 356.252 571.182 355.098C571.576 353.473 572.269 349.589 572.755 347.217L574.444 347.626ZM578.585 349.22C577.669 347.956 575.655 346.087 574.405 345.081L575.571 344.006C576.971 345.048 579.05 347.023 579.889 348.042L578.585 349.22Z" fill="#00A0E8"/>
<path d="M593.69 354.129L595.232 354.774L590.331 366.484L588.788 365.838L593.69 354.129ZM586.515 354.631L599.686 360.144L599.1 361.545L585.929 356.032L586.515 354.631ZM594.18 358.484C594.378 361.429 595.725 364.878 597.427 367.022C596.984 367.17 596.267 367.514 595.851 367.769C594.233 365.422 593.026 361.697 592.816 358.437L594.18 358.484ZM591.909 357.414L592.919 358.362C590.388 360.593 586.733 362.259 583.732 362.648C583.621 362.173 583.375 361.45 583.178 361.009C586.045 360.826 589.594 359.355 591.909 357.414ZM592.672 348.241L591.117 351.955L598.687 355.123L600.241 351.41L592.672 348.241ZM591.8 346.278L602.312 350.678L599.611 357.132L589.099 352.732L591.8 346.278ZM590.072 344.482L591.326 345.531C588.51 348.383 584.952 350.901 581.797 352.227C581.779 351.815 581.685 350.845 581.553 350.36C584.39 349.282 587.604 347.074 590.072 344.482ZM585.77 348.834L587.814 347.996L587.825 348.025L581.65 362.779L580.189 362.167L585.77 348.834Z" fill="#00A0E8"/>
<path d="M614.002 357.64L623.571 363.582L622.736 364.928L613.166 358.986L614.002 357.64ZM604.635 371.35L615.12 377.86L614.296 379.187L603.811 372.677L604.635 371.35ZM615.103 367.336L619.421 370.017L618.585 371.362L614.268 368.682L615.103 367.336ZM618.032 360.868L619.415 361.726L610.526 376.043L609.142 375.185L618.032 360.868ZM611.874 362.819L613.201 363.643L606.992 373.642L605.665 372.818L611.874 362.819ZM604.582 358.214L609.853 361.487L609.168 362.589L603.898 359.317L604.582 358.214ZM607.862 353.181L613.002 356.372L612.306 357.494L607.166 354.303L607.862 353.181ZM603.004 360.756L608.275 364.028L607.578 365.15L602.308 361.877L603.004 360.756ZM605.317 355.071L612.12 359.295L611.401 360.454L604.597 356.229L605.317 355.071ZM602.087 363.734L606.76 366.635L603.371 372.093L598.698 369.192L599.418 368.033L602.857 370.168L604.795 367.047L601.356 364.912L602.087 363.734ZM601.395 363.305L602.61 364.059L598.688 370.376L597.473 369.622L601.395 363.305Z" fill="#00A0E8"/>
<path d="M630.715 367.689L631.595 369.06C628.198 371.039 624.238 372.559 620.981 373.03C621.093 372.632 621.287 371.667 621.313 371.166C624.204 370.815 627.727 369.497 630.715 367.689ZM625.506 370.689L627.692 370.514L627.694 370.545L617.236 382.646L616.054 381.625L625.506 370.689ZM636.208 372.436L637.423 373.486L624.318 388.65L623.103 387.6L636.208 372.436ZM628.666 371.675L639.568 381.098L638.532 382.296L627.63 372.874L628.666 371.675ZM623.938 381.082L630.596 386.836L629.618 387.968L622.96 382.213L623.938 381.082ZM634.642 377.916C633.015 381.715 632.171 386.394 632.766 389.641C632.279 389.599 631.489 389.672 630.968 389.803C630.56 386.339 631.642 381.488 633.465 377.393L634.642 377.916ZM632.369 375.835L633.04 376.909C629.131 379.347 624.468 381.074 620.872 381.165C620.962 380.69 620.92 379.898 620.809 379.453C624.123 379.555 628.754 378.033 632.369 375.835Z" fill="#00A0E8"/>
<path d="M652.415 392.176L653.409 393.352L644.101 401.221L643.107 400.045L652.415 392.176ZM656.304 394.016L657.34 395.243L643.816 406.676C642.975 407.386 642.435 407.497 641.76 407.175C641.115 406.856 640.301 405.96 639.25 404.717C639.562 404.337 639.977 403.669 640.239 403.16C641.043 404.18 641.838 405.121 642.094 405.423C642.338 405.678 642.476 405.705 642.762 405.464L656.304 394.016ZM648.397 384.424L649.405 385.617L634.015 398.627L633.007 397.434L648.397 384.424ZM643.231 394.841L644.211 396L639.59 399.906C639.019 400.389 638.629 400.575 638.072 400.325C637.53 400.092 636.973 399.468 636.195 398.513C636.485 398.21 636.811 397.675 636.988 397.237C637.582 397.974 638.037 398.511 638.224 398.699C638.366 398.867 638.459 398.874 638.627 398.732L643.231 394.841ZM637.422 387.969L643.628 395.311L642.486 396.277L637.245 390.077L632.524 394.068L631.558 392.926L637.422 387.969ZM639.625 384.782L647.578 394.19L646.419 395.17L638.465 385.762L639.625 384.782ZM643.926 383.94L649.933 391.047L648.774 392.027L642.567 384.685L643.926 383.94ZM645.973 382.239L646.732 383.613C644.644 384.687 642.309 385.538 640.57 385.798C640.491 385.432 640.241 384.693 640.086 384.305C641.868 384.096 644.045 383.263 645.973 382.239Z" fill="#00A0E8"/>
<path d="M393.576 342.194C392.333 340.95 390.318 340.95 389.075 342.194L381.931 349.336C380.69 350.58 380.69 352.593 381.931 353.837L386.562 358.468L398.207 346.824L393.576 342.194Z" fill="#4B4B4B"/>
<path d="M445.315 405.576L441.345 389.96L429.7 401.606L445.315 405.576Z" fill="#4B4B4B"/>
<path d="M438.963 387.58L400.324 348.94L388.679 360.586L427.317 399.225L438.963 387.58ZM400.64 353.917L434.304 387.581L431.658 390.226L397.994 356.564L400.64 353.917Z" fill="#4B4B4B"/>
<path d="M431.526 346.267H424.935V352.558H431.526V346.267Z" fill="#4B4B4B"/>
<path d="M431.526 361.581H424.935V367.87H431.526V361.581Z" fill="#4B4B4B"/>
<path d="M477.497 346.267H438.639V352.558H477.497V346.267Z" fill="#4B4B4B"/>
<path d="M477.497 361.581H438.639V367.87H477.497V361.581Z" fill="#4B4B4B"/>
<path d="M477.497 376.896H445.803V383.185H477.497V376.896Z" fill="#4B4B4B"/>
<path d="M477.513 319H424.917C414.741 319 406.463 327.276 406.463 337.453V344.801L413.296 351.635V337.453C413.296 331.034 418.5 325.832 424.917 325.832H477.513C483.934 325.832 489.135 331.034 489.135 337.453V394.497H471.149C465.8 394.497 461.466 398.834 461.466 404.182V422.168H424.917C418.5 422.168 413.296 416.966 413.296 410.547V402.223L411.896 401.867L413.296 400.466V395.481L406.463 388.649V410.547C406.463 420.722 414.741 429 424.917 429H461.466H464.295L466.297 426.999L493.966 399.329L495.967 397.328V394.497V337.453C495.967 327.276 487.69 319 477.513 319Z" fill="#4B4B4B"/>
<path d="M456.832 468V466.728C462.376 462.288 466.336 458.544 466.336 455.496C466.336 453.432 464.968 451.92 462.616 451.92C460.744 451.92 459.328 452.928 457.936 454.512L456.544 453.24C458.2 451.344 460.216 450.096 462.712 450.096C466.192 450.096 468.52 452.112 468.52 455.424C468.52 459 464.896 462.6 460.384 466.272C461.344 466.2 462.256 466.152 463.168 466.152H469.36V468H456.832ZM490.36 449.664H492.088V468.816H490.36V449.664ZM484.384 452.088H497.68V453.552H484.384V452.088ZM483.736 467.952H498.136V469.44H483.736V467.952ZM485.104 464.592H497.32V466.056H485.104V464.592ZM496.552 448.152L497.632 449.496C494.44 450.216 489.352 450.6 485.224 450.696C485.2 450.312 484.984 449.688 484.816 449.304C488.824 449.16 493.816 448.776 496.552 448.152ZM487 459.6V461.544H495.544V459.6H487ZM487 456.528V458.424H495.544V456.528H487ZM485.392 455.184H497.224V462.888H485.392V455.184ZM480.088 449.832H481.84V469.872H480.088V449.832ZM476.152 454.608H484.864V456.312H476.152V454.608ZM480.184 455.256L481.312 455.736C480.352 459.12 478.432 463.32 476.584 465.552C476.416 465.048 475.984 464.304 475.672 463.896C477.4 461.976 479.32 458.232 480.184 455.256ZM483.64 448.2L484.912 449.592C482.704 450.48 479.344 451.152 476.56 451.536C476.464 451.128 476.224 450.552 476.008 450.144C478.72 449.688 481.888 449.016 483.64 448.2ZM481.768 457.704C482.368 458.232 484.624 460.512 485.104 461.112L484.048 462.528C483.472 461.544 481.672 459.264 480.928 458.424L481.768 457.704ZM512.512 451.632C512.2 454.128 511.72 456.936 510.976 459.504C509.512 464.424 507.592 466.968 505.384 466.968C503.224 466.968 501.088 464.52 501.088 460.536C501.088 455.328 505.72 450.792 511.6 450.792C517.216 450.792 520.792 454.752 520.792 459.624C520.792 464.64 517.48 468 511.768 468.744L510.664 466.968C511.432 466.896 512.152 466.8 512.728 466.68C515.8 465.984 518.824 463.68 518.824 459.528C518.824 455.688 516.16 452.52 511.552 452.52C506.272 452.52 502.984 456.864 502.984 460.392C502.984 463.416 504.352 464.76 505.432 464.76C506.56 464.76 507.856 463.128 509.08 459.072C509.776 456.792 510.28 454.08 510.52 451.584L512.512 451.632ZM535.432 450.024V452.52H542.656V450.024H535.432ZM533.776 448.704H544.408V453.864H533.776V448.704ZM540.208 466.824L541.576 465.84C543.28 466.8 545.152 468.072 546.232 469.008L544.456 469.944C543.52 469.032 541.792 467.784 540.208 466.824ZM535.816 465.768L537.448 466.8C536.056 468 533.728 469.224 531.832 469.968C531.544 469.584 531.016 469.008 530.608 468.672C532.48 468.024 534.76 466.8 535.816 465.768ZM534.832 459.552V461.352H543.208V459.552H534.832ZM534.832 462.648V464.448H543.208V462.648H534.832ZM534.832 456.528V458.28H543.208V456.528H534.832ZM533.128 455.16H545.008V465.816H533.128V455.16ZM523.672 460.584C525.784 460.032 528.976 459.12 532.072 458.208L532.288 459.864C529.456 460.752 526.456 461.664 524.176 462.312L523.672 460.584ZM524.032 452.688H532V454.392H524.032V452.688ZM527.464 447.864H529.24V467.808C529.24 468.816 529 469.32 528.376 469.584C527.752 469.872 526.768 469.92 525.16 469.896C525.112 469.464 524.848 468.72 524.608 468.264C525.712 468.288 526.72 468.288 527.008 468.264C527.344 468.264 527.464 468.168 527.464 467.808V447.864ZM558.016 452.112H559.84V460.776H558.016V452.112ZM551.656 453.84H566.416V455.28H551.656V453.84ZM550.792 456.888H567.376V458.328H550.792V456.888ZM552.496 467.664H565.6V469.152H552.496V467.664ZM548.416 460.104H569.632V461.616H548.416V460.104ZM551.8 463.056H566.44V469.848H564.616V464.544H553.552V469.944H551.8V463.056ZM558.016 447.84H559.864V451.104H558.016V447.84ZM549.064 450.24H568.984V454.512H567.16V451.872H550.84V454.512H549.064V450.24ZM585.328 456.096H587.152V469.944H585.328V456.096ZM578.32 459.624H593.896V461.28H578.32V459.624ZM587.656 460.272C589.096 463.152 591.904 466.056 594.52 467.496C594.136 467.832 593.56 468.48 593.248 468.912C590.632 467.232 587.848 463.992 586.264 460.8L587.656 460.272ZM584.92 460.152L586.336 460.68C584.728 463.992 581.752 467.208 578.896 468.864C578.584 468.432 578.032 467.808 577.648 467.448C580.456 466.056 583.408 463.08 584.92 460.152ZM581.824 450.6V454.992H590.776V450.6H581.824ZM580.12 448.992H592.552V456.624H580.12V448.992ZM577.624 447.912L579.328 448.44C577.696 452.496 575.176 456.528 572.56 459.192C572.368 458.784 571.864 457.848 571.528 457.416C573.928 455.136 576.232 451.56 577.624 447.912ZM575.128 454.104L576.832 452.4L576.856 452.424V469.872H575.128V454.104ZM596.92 448.896H602.752V450.528H598.552V469.944H596.92V448.896ZM602.224 448.896H602.536L602.824 448.824L604.024 449.544C603.28 451.536 602.296 454.104 601.408 456.12C603.304 458.04 603.784 459.672 603.808 461.136C603.808 462.432 603.52 463.416 602.8 463.896C602.44 464.136 601.984 464.28 601.504 464.352C600.976 464.4 600.328 464.4 599.704 464.376C599.68 463.92 599.536 463.224 599.272 462.768C599.848 462.816 600.4 462.816 600.808 462.792C601.12 462.792 601.408 462.72 601.624 462.576C602.032 462.312 602.176 461.688 602.176 460.944C602.152 459.672 601.6 458.16 599.776 456.336C600.712 454.08 601.696 451.08 602.224 449.376V448.896ZM606.04 453.624H615.52V455.136H606.04V453.624ZM610.672 449.448C609.28 451.44 606.688 453.696 603.928 455.088C603.736 454.656 603.352 454.032 603.04 453.648C605.776 452.352 608.464 450.024 609.76 447.864H611.416C613.168 450.192 615.928 452.328 618.448 453.36C618.136 453.768 617.752 454.44 617.512 454.92C615.016 453.696 612.256 451.536 610.672 449.448ZM606.208 458.688V461.928H615.304V458.688H606.208ZM604.624 457.248H616.96V463.392H604.624V457.248ZM609.832 454.44H611.488V460.8C611.488 464.28 610.384 467.952 603.808 470.04C603.616 469.656 603.136 468.984 602.824 468.696C609.04 466.752 609.832 463.752 609.832 460.752V454.44ZM611.776 462.552C613.168 466.176 615.232 467.496 618.328 468.528C617.92 468.912 617.464 469.512 617.272 470.04C613.936 468.792 611.704 467.064 610.216 462.888L611.776 462.552Z" fill="black"/>
<path d="M510.04 531.04C509.824 531.976 509.56 533.296 508.936 534.904C508.336 536.368 507.448 537.976 506.488 539.224C507.424 538.672 508.792 538.336 509.848 538.336C511.696 538.336 513.136 539.44 513.136 541.384C513.136 542.632 513.184 545.392 513.208 546.88H511.36C511.456 545.608 511.48 543.136 511.456 541.888C511.432 540.496 510.472 539.848 509.224 539.848C507.688 539.848 506.176 540.616 505.072 541.6C504.376 542.272 503.704 543.136 502.912 544.12L501.256 542.896C504.712 539.584 506.32 536.8 507.136 534.76C507.664 533.44 508 532 508.072 530.872L510.04 531.04ZM501.808 533.632C503.104 533.8 504.76 533.872 505.864 533.872C509.104 533.872 513.256 533.68 516.64 533.08V534.856C513.28 535.36 508.816 535.576 505.768 535.576C504.736 535.576 503.152 535.528 501.808 535.432V533.632ZM520.144 539.416C519.544 539.608 518.68 539.944 518.032 540.184C516.328 540.856 514.048 541.768 511.72 542.968C509.344 544.216 507.664 545.512 507.664 547.168C507.664 549.04 509.512 549.328 511.984 549.328C513.856 549.328 516.448 549.112 518.56 548.728L518.488 550.672C516.664 550.888 514 551.08 511.912 551.08C508.504 551.08 505.744 550.336 505.744 547.432C505.744 544.504 508.72 542.704 511.576 541.24C513.856 540.064 515.8 539.32 517.384 538.576C518.104 538.24 518.704 537.976 519.376 537.64L520.144 539.416ZM531.256 535.192H545.896V537.016H531.256V535.192ZM541.024 530.128H542.848V549.472C542.848 550.84 542.464 551.392 541.552 551.656C540.616 551.968 538.984 551.992 536.368 551.968C536.272 551.488 535.936 550.672 535.648 550.168C537.688 550.24 539.68 550.24 540.232 550.216C540.808 550.168 541.024 550.024 541.024 549.472V530.128ZM532.768 540.28L534.328 539.536C535.576 541.408 537.184 543.904 537.952 545.368L536.272 546.28C535.552 544.792 533.992 542.2 532.768 540.28ZM527.44 536.392L529.24 534.568L529.264 534.616V551.872H527.44V536.392ZM530.056 530.008L531.808 530.536C530.2 534.712 527.68 538.84 525.016 541.552C524.8 541.12 524.224 540.208 523.888 539.776C526.36 537.424 528.664 533.752 530.056 530.008ZM553.24 538.576H564.712V540.256H553.24V538.576ZM554.416 533.272H567.232V535H554.416V533.272ZM548.272 543.76H569.752V545.488H548.272V543.76ZM564.064 538.576H565.912C565.912 538.576 565.888 539.176 565.84 539.44C565.144 546.952 564.472 549.952 563.344 551.056C562.744 551.68 562.168 551.824 561.184 551.896C560.32 551.968 558.616 551.92 556.864 551.824C556.84 551.296 556.6 550.528 556.24 550.024C558.088 550.192 559.864 550.216 560.56 550.216C561.16 550.216 561.472 550.168 561.808 549.904C562.768 549.088 563.416 546.064 564.064 538.912V538.576ZM554.248 529.816L556.12 529.984C555.424 533.704 554.344 538.624 553.6 541.504L551.728 541.312C552.568 538.408 553.648 533.416 554.248 529.816Z" fill="black"/>
<path d="M451.739 509H449.675V497.024C449.675 496.56 449.675 496.168 449.675 495.848C449.691 495.528 449.707 495.232 449.723 494.96C449.739 494.672 449.755 494.376 449.771 494.072C449.515 494.328 449.283 494.544 449.075 494.72C448.867 494.896 448.603 495.12 448.283 495.392L446.459 496.88L445.355 495.464L449.987 491.864H451.739V509ZM461.561 506.48C461.417 507.04 461.233 507.648 461.009 508.304C460.785 508.96 460.537 509.608 460.265 510.248C460.009 510.904 459.753 511.52 459.497 512.096H457.937C458.097 511.488 458.249 510.832 458.393 510.128C458.553 509.44 458.697 508.76 458.825 508.088C458.953 507.4 459.057 506.776 459.137 506.216H461.393L461.561 506.48ZM475.927 500.408C475.927 501.8 475.823 503.04 475.615 504.128C475.407 505.216 475.071 506.144 474.607 506.912C474.159 507.664 473.567 508.24 472.831 508.64C472.111 509.04 471.239 509.24 470.215 509.24C468.935 509.24 467.871 508.888 467.023 508.184C466.191 507.48 465.567 506.472 465.151 505.16C464.751 503.832 464.551 502.248 464.551 500.408C464.551 498.552 464.735 496.968 465.103 495.656C465.487 494.344 466.095 493.344 466.927 492.656C467.759 491.952 468.855 491.6 470.215 491.6C471.495 491.6 472.559 491.952 473.407 492.656C474.255 493.344 474.887 494.344 475.303 495.656C475.719 496.968 475.927 498.552 475.927 500.408ZM466.663 500.408C466.663 501.976 466.775 503.28 466.999 504.32C467.239 505.36 467.615 506.144 468.127 506.672C468.655 507.184 469.351 507.44 470.215 507.44C471.079 507.44 471.767 507.184 472.279 506.672C472.807 506.16 473.191 505.384 473.431 504.344C473.671 503.288 473.791 501.976 473.791 500.408C473.791 498.84 473.671 497.544 473.431 496.52C473.191 495.48 472.807 494.704 472.279 494.192C471.767 493.664 471.079 493.4 470.215 493.4C469.351 493.4 468.655 493.664 468.127 494.192C467.615 494.704 467.239 495.48 466.999 496.52C466.775 497.544 466.663 498.84 466.663 500.408ZM489.661 500.408C489.661 501.8 489.557 503.04 489.349 504.128C489.141 505.216 488.805 506.144 488.341 506.912C487.893 507.664 487.301 508.24 486.565 508.64C485.845 509.04 484.973 509.24 483.949 509.24C482.669 509.24 481.605 508.888 480.757 508.184C479.925 507.48 479.301 506.472 478.885 505.16C478.485 503.832 478.285 502.248 478.285 500.408C478.285 498.552 478.469 496.968 478.837 495.656C479.221 494.344 479.829 493.344 480.661 492.656C481.493 491.952 482.589 491.6 483.949 491.6C485.229 491.6 486.293 491.952 487.141 492.656C487.989 493.344 488.621 494.344 489.037 495.656C489.453 496.968 489.661 498.552 489.661 500.408ZM480.397 500.408C480.397 501.976 480.509 503.28 480.733 504.32C480.973 505.36 481.349 506.144 481.861 506.672C482.389 507.184 483.085 507.44 483.949 507.44C484.813 507.44 485.501 507.184 486.013 506.672C486.541 506.16 486.925 505.384 487.165 504.344C487.405 503.288 487.525 501.976 487.525 500.408C487.525 498.84 487.405 497.544 487.165 496.52C486.925 495.48 486.541 494.704 486.013 494.192C485.501 493.664 484.813 493.4 483.949 493.4C483.085 493.4 482.389 493.664 481.861 494.192C481.349 494.704 480.973 495.48 480.733 496.52C480.509 497.544 480.397 498.84 480.397 500.408ZM503.396 500.408C503.396 501.8 503.292 503.04 503.084 504.128C502.876 505.216 502.54 506.144 502.076 506.912C501.628 507.664 501.036 508.24 500.3 508.64C499.58 509.04 498.708 509.24 497.684 509.24C496.404 509.24 495.34 508.888 494.492 508.184C493.66 507.48 493.036 506.472 492.62 505.16C492.22 503.832 492.02 502.248 492.02 500.408C492.02 498.552 492.204 496.968 492.572 495.656C492.956 494.344 493.564 493.344 494.396 492.656C495.228 491.952 496.324 491.6 497.684 491.6C498.964 491.6 500.028 491.952 500.876 492.656C501.724 493.344 502.356 494.344 502.772 495.656C503.188 496.968 503.396 498.552 503.396 500.408ZM494.132 500.408C494.132 501.976 494.244 503.28 494.468 504.32C494.708 505.36 495.084 506.144 495.596 506.672C496.124 507.184 496.82 507.44 497.684 507.44C498.548 507.44 499.236 507.184 499.748 506.672C500.276 506.16 500.66 505.384 500.9 504.344C501.14 503.288 501.26 501.976 501.26 500.408C501.26 498.84 501.14 497.544 500.9 496.52C500.66 495.48 500.276 494.704 499.748 494.192C499.236 493.664 498.548 493.4 497.684 493.4C496.82 493.4 496.124 493.664 495.596 494.192C495.084 494.704 494.708 495.48 494.468 496.52C494.244 497.544 494.132 498.84 494.132 500.408ZM506.066 490.664H527.09V492.416H506.066V490.664ZM513.554 497.336H523.658V499.088H513.554V497.336ZM523.034 497.336H524.906C524.906 497.336 524.882 497.96 524.858 498.224C524.45 505.976 524.042 508.88 523.106 509.888C522.554 510.512 521.954 510.68 521.018 510.752C520.13 510.824 518.426 510.776 516.794 510.68C516.746 510.152 516.506 509.408 516.146 508.904C517.946 509.096 519.698 509.096 520.346 509.096C520.898 509.096 521.21 509.048 521.474 508.784C522.266 508.088 522.674 505.088 523.034 497.648V497.336ZM512.57 492.08H514.418C514.226 498.896 513.794 507.032 506.69 510.968C506.402 510.512 505.85 509.936 505.37 509.576C512.186 505.976 512.402 498.32 512.57 492.08ZM546.117 500.576C544.845 499.352 543.789 498.584 542.037 498.584C540.165 498.584 538.509 499.88 537.501 501.776L535.797 500.864C537.333 498.104 539.541 496.664 542.061 496.664C544.245 496.664 545.805 497.552 547.484 499.208C548.757 500.456 549.812 501.2 551.565 501.2C553.437 501.2 555.093 499.904 556.101 498.008L557.805 498.92C556.269 501.68 554.061 503.12 551.541 503.12C549.357 503.12 547.797 502.232 546.117 500.576ZM573.567 509H571.503V497.024C571.503 496.56 571.503 496.168 571.503 495.848C571.519 495.528 571.535 495.232 571.551 494.96C571.567 494.672 571.583 494.376 571.599 494.072C571.343 494.328 571.111 494.544 570.903 494.72C570.695 494.896 570.431 495.12 570.111 495.392L568.287 496.88L567.183 495.464L571.815 491.864H573.567V509ZM592.821 489.008H594.621V491.624H592.821V489.008ZM586.917 490.904H601.077V492.296H586.917V490.904ZM585.813 494.936H601.869V496.424H585.813V494.936ZM589.077 492.656L590.589 492.32C591.069 493.064 591.573 494.072 591.765 494.768L590.157 495.176C589.989 494.504 589.533 493.424 589.077 492.656ZM596.877 492.08L598.677 492.536C598.149 493.52 597.573 494.576 597.093 495.272L595.701 494.864C596.109 494.072 596.637 492.872 596.877 492.08ZM589.557 501.536V503.12H598.149V501.536H589.557ZM589.557 498.92V500.432H598.149V498.92H589.557ZM587.829 497.672H599.949V504.32H587.829V497.672ZM587.661 505.616L589.077 506.192C588.501 507.608 587.685 509.264 586.485 510.32L585.141 509.36C586.269 508.472 587.157 506.912 587.661 505.616ZM590.157 505.568H591.813V508.784C591.813 509.312 591.957 509.384 592.821 509.384C593.181 509.384 595.197 509.384 595.725 509.384C596.397 509.384 596.541 509.192 596.589 507.584C596.949 507.848 597.597 508.088 598.077 508.184C597.885 510.32 597.405 510.848 595.941 510.848C595.509 510.848 593.037 510.848 592.629 510.848C590.637 510.848 590.157 510.416 590.157 508.808V505.568ZM591.813 504.8L592.941 503.912C594.093 504.536 595.461 505.52 596.109 506.312L594.933 507.296C594.309 506.552 592.965 505.496 591.813 504.8ZM597.381 506.168L598.749 505.4C600.045 506.576 601.509 508.28 602.133 509.432L600.669 510.32C600.093 509.144 598.677 507.416 597.381 506.168ZM585.237 488.912L586.917 489.44C585.309 493.448 582.789 497.456 580.197 500.072C580.005 499.664 579.501 498.728 579.165 498.296C581.589 496.04 583.869 492.512 585.237 488.912ZM582.645 495.128L584.325 493.424L584.373 493.448V510.896H582.645V495.128ZM604.941 490.472H623.757V492.272H606.741V510.944H604.941V490.472ZM622.941 490.472H624.765V508.544C624.765 509.696 624.477 510.272 623.661 510.584C622.869 510.872 621.501 510.92 619.341 510.92C619.245 510.416 618.933 509.6 618.645 509.096C620.301 509.168 621.861 509.144 622.341 509.12C622.797 509.12 622.941 508.976 622.941 508.544V490.472ZM605.925 499.352H623.781V501.128H605.925V499.352ZM613.797 491.384H615.597V500.216H613.797V491.384Z" fill="black"/>
</svg>
