<svg width="750" height="594" viewBox="0 0 750 594" fill="none" xmlns="http://www.w3.org/2000/svg">
<rect y="5" width="750" height="589" fill="white"/>
<rect width="64.7928" height="3.72582" rx="1.86291" transform="matrix(1 0 -0.614838 0.788654 685.207 0)" fill="#00A0E8"/>
<rect width="64.7928" height="3.72582" rx="1.86291" transform="matrix(1 0 -0.614838 0.788654 279.604 0)" fill="#E5007F"/>
<rect width="64.7928" height="3.72582" rx="1.86291" transform="matrix(1 0 -0.614838 0.788654 71.6191 0)" fill="#E6CD92"/>
<rect width="64.7928" height="4.60952" rx="2" transform="matrix(1 0 -0.496966 0.86777 477.222 0)" fill="#E6CD92"/>
<rect width="64.7928" height="4.60952" rx="2" transform="matrix(1 0 -0.496966 0.86777 348.933 0)" fill="#E6CD92"/>
<rect width="64.7928" height="3.72582" rx="1.86291" transform="matrix(1 0 -0.614838 0.788654 210.276 0)" fill="#E6CD92"/>
<rect width="64.7928" height="4.60952" rx="2" transform="matrix(1 0 -0.496966 0.86777 615.879 0)" fill="#E6CD92"/>
<rect width="64.7928" height="3.72582" rx="1.86291" transform="matrix(1 0 -0.614838 0.788654 140.948 0)" fill="black"/>
<rect width="64.7928" height="4.60952" rx="2" transform="matrix(1 0 -0.496966 0.86777 546.551 0)" fill="black"/>
<rect width="64.7928" height="4.60952" rx="2" transform="matrix(1 0 -0.496966 0.86777 418.261 0)" fill="black"/>
<rect width="64.7928" height="3.72582" rx="1.86291" transform="matrix(1 0 -0.614838 0.788654 2.29102 0)" fill="black"/>
</svg>
