<svg width="1920" height="352" viewBox="0 0 1920 352" fill="none" xmlns="http://www.w3.org/2000/svg">
<rect y="5" width="1920" height="347" fill="white"/>
<rect width="82.8109" height="4.14803" rx="2" transform="matrix(1 0 -0.705831 0.70838 875.755 0)" fill="#00A0E8"/>
<rect width="82.8109" height="4.14803" rx="2" transform="matrix(1 0 -0.705831 0.70838 357.358 0)" fill="#E5007F"/>
<rect width="82.8109" height="4.14803" rx="2" transform="matrix(1 0 -0.705831 0.70838 91.5356 0)" fill="#E6CD92"/>
<rect width="82.8109" height="4.95702" rx="2" transform="matrix(1 0 -0.590638 0.806936 609.932 0)" fill="#E6CD92"/>
<rect width="82.8109" height="4.95702" rx="2" transform="matrix(1 0 -0.590638 0.806936 445.966 0)" fill="#E6CD92"/>
<rect width="82.8109" height="4.14803" rx="2" transform="matrix(1 0 -0.705831 0.70838 268.751 0)" fill="#E6CD92"/>
<rect width="82.8109" height="4.95702" rx="2" transform="matrix(1 0 -0.590638 0.806936 787.147 0)" fill="#E6CD92"/>
<rect width="82.8109" height="4.14803" rx="2" transform="matrix(1 0 -0.705831 0.70838 180.144 0)" fill="black"/>
<rect width="82.8109" height="4.95702" rx="2" transform="matrix(1 0 -0.590638 0.806936 698.539 0)" fill="black"/>
<rect width="82.8109" height="4.95702" rx="2" transform="matrix(1 0 -0.590638 0.806936 534.574 0)" fill="black"/>
<rect width="82.8109" height="4.14803" rx="2" transform="matrix(1 0 -0.705831 0.70838 2.92773 0)" fill="black"/>
<rect width="82.8109" height="4.14803" rx="2" transform="matrix(1 0 -0.705831 0.70838 1837.19 0)" fill="#00A0E8"/>
<rect width="82.8109" height="4.14803" rx="2" transform="matrix(1 0 -0.705831 0.70838 1318.79 0)" fill="#E5007F"/>
<rect width="82.8109" height="4.14803" rx="2" transform="matrix(1 0 -0.705831 0.70838 1052.97 0)" fill="#E6CD92"/>
<rect width="82.8109" height="4.95702" rx="2" transform="matrix(1 0 -0.590638 0.806936 1571.37 0)" fill="#E6CD92"/>
<rect width="82.8109" height="4.95702" rx="2" transform="matrix(1 0 -0.590638 0.806936 1407.4 0)" fill="#E6CD92"/>
<rect width="82.8109" height="4.14803" rx="2" transform="matrix(1 0 -0.705831 0.70838 1230.19 0)" fill="#E6CD92"/>
<rect width="82.8109" height="4.95702" rx="2" transform="matrix(1 0 -0.590638 0.806936 1748.58 0)" fill="#E6CD92"/>
<rect width="82.8109" height="4.14803" rx="2" transform="matrix(1 0 -0.705831 0.70838 1141.58 0)" fill="black"/>
<rect width="82.8109" height="4.95702" rx="2" transform="matrix(1 0 -0.590638 0.806936 1659.97 0)" fill="black"/>
<rect width="82.8109" height="4.95702" rx="2" transform="matrix(1 0 -0.590638 0.806936 1496.01 0)" fill="black"/>
<rect width="82.8109" height="4.14803" rx="2" transform="matrix(1 0 -0.705831 0.70838 964.362 0)" fill="black"/>
</svg>
