<svg width="328" height="452" viewBox="0 0 328 452" fill="none" xmlns="http://www.w3.org/2000/svg">
<path d="M326.617 399.853L326.339 398.941C323.334 389.123 312.24 355.73 295.507 338.34C285.658 328.11 268.165 319.887 251.242 311.933C247.492 310.173 242.63 308.444 237.92 306.771C232.631 304.891 227.175 302.948 224.003 301.22C223.638 300.879 220.839 297.953 217.667 285.867C216.366 280.895 215.145 274.599 214.685 271.72C216.303 269.413 220.839 264.734 223.408 262.085L223.852 261.633C227.564 257.803 231.259 253.791 234.804 249.532C222.718 253.386 212.417 255.02 210.356 255.186C203.274 262.625 200.324 266.518 200.34 270.705V270.983C200.34 271.197 200.348 271.411 200.364 271.625C200.602 274.393 202.33 283.354 203.932 289.475C204.59 291.989 205.257 294.218 205.923 296.232L161.436 368.696L119.867 300.99C121.12 297.953 122.381 294.178 123.618 289.475C125.219 283.361 126.948 274.401 127.186 271.633C127.202 271.411 127.21 271.189 127.21 270.967V270.713C127.194 265.955 123.451 261.617 114.332 252.213L113.895 251.761C99.1854 236.591 88.3451 222.285 83.2383 201.802C83.0162 200.906 82.6197 200.057 82.0725 199.312C81.0734 197.956 79.757 196.806 78.0917 195.347C72.5407 190.494 63.2468 182.373 64.1271 164.832C64.246 162.398 64.5949 160.622 65.0073 159.361C66.4585 159.432 68.0841 159.448 69.908 159.4C74.3964 168.861 92.2705 183.547 91.2079 179.979C89.8439 175.395 88.8844 165.697 88.2738 157.386C138.351 147.902 198.944 97.7846 198.944 97.7846C212.227 128.894 225.954 146.712 234.471 155.768C233.868 165.372 232.956 175.712 231.687 179.979C230.696 183.301 246.112 170.804 251.877 161.43L243.875 203.451C241.909 210.755 239.205 217.273 235.842 223.34C223.242 228.676 209.237 230.643 199.484 231.341C198.175 228.637 195.408 226.749 192.212 226.749H171.499C167.05 226.749 163.418 230.389 163.418 234.83V240.389C163.418 244.838 167.058 248.47 171.499 248.47H192.212C195.011 248.47 197.485 247.026 198.936 244.854C204.321 244.528 214.907 243.085 218.301 242.451C221.703 241.816 239.752 236.955 250.767 230.833C258.72 226.123 265.841 219.874 270.964 211.595L272.162 211.667C276.42 211.833 280.155 208.867 280.956 204.68L288.83 163.302C289.623 159.115 287.236 154.975 283.216 153.572L277.253 151.605C286.578 118.276 293.66 91.3216 277.308 63.0751C257.087 28.1437 223.329 33.2426 223.329 33.2426C223.329 33.2426 204.733 0.087452 160.325 0.000222448C101.707 -0.110797 63.6354 41.355 49.4091 77.0081C35.2303 112.534 43.0175 152.565 50.6778 176.378C51.8277 182.81 54.0957 188.091 56.7284 192.397C56.7998 192.563 56.8791 192.722 56.9504 192.881C58.3699 195.981 59.8766 199.01 61.4229 201.952C50.432 209.256 21.8921 232.039 13.9146 275.82C8.21291 307.112 11.7893 345.675 14.3428 365.389C7.53094 379.354 2.995 393.183 1.23455 398.933L0.957 399.853C-1.56473 408.084 0.99665 417.076 7.4675 422.754L8.18912 423.389C19.8144 433.587 42.8351 439.891 60.0986 443.38C87.5997 448.939 122.531 452 158.478 452H169.136C205.066 452 239.998 448.939 267.499 443.38C284.762 439.891 307.783 433.587 319.408 423.389L320.13 422.762C326.577 417.084 329.138 408.092 326.617 399.853ZM49.7818 426.45C34.588 422.477 23.145 417.647 17.5385 412.723L16.8169 412.088C14.5331 410.082 13.6291 406.91 14.5172 404.008L14.7948 403.088C18.8391 389.869 25.1434 373.858 32.5817 361.376C38.0533 355.738 44.2546 349.378 50.1703 343.399L49.7818 426.45ZM72.1205 313.916C70.7406 305.343 68.774 289.856 68.774 271.363C68.774 249.548 78.1393 236.432 80.6372 233.181C80.6372 233.181 95.5376 253.212 103.705 261.641L104.142 262.093C106.711 264.742 111.247 269.421 112.873 271.736C112.421 274.615 111.199 280.919 109.891 285.883C109.161 288.675 108.448 290.974 107.781 292.869C106.743 293.377 105.839 294.138 105.173 295.13L99.8515 302.972C96.8778 304.217 93.2221 305.518 89.6457 306.787C84.9353 308.46 80.0663 310.189 76.3233 311.949C74.9197 312.591 73.5161 313.249 72.1205 313.916ZM117.432 346.373C116.949 346.373 116.465 346.428 115.989 346.532L81.3113 354.184L110.438 311.235L140.128 359.592L121.04 347.42C119.954 346.738 118.701 346.373 117.432 346.373ZM171.475 437.797C170.69 437.797 153.744 437.797 151.404 437.766L129.216 368.537L157.471 386.554C158.581 387.26 159.826 387.609 161.071 387.609C161.198 387.609 161.689 387.609 161.816 387.609C163.061 387.609 164.306 387.26 165.416 386.554L193.671 368.537L171.475 437.797ZM206.89 346.532C205.153 346.151 203.337 346.468 201.839 347.428L182.751 359.6L212.441 311.243L241.568 354.192L206.89 346.532ZM310.741 412.096L310.019 412.731C303.85 418.147 290.623 423.452 273.105 427.623L272.685 338.76C277.784 341.821 282.153 344.953 285.27 348.197C296.832 360.211 307.053 384.437 312.755 403.112L313.033 404.024C313.929 406.918 313.025 410.09 310.741 412.096Z" fill="#00A0E8"/>
</svg>
