<svg width="394" height="466" viewBox="0 0 394 466" fill="none" xmlns="http://www.w3.org/2000/svg">
<mask id="mask0_52_7253" style="mask-type:alpha" maskUnits="userSpaceOnUse" x="127" y="69" width="267" height="44">
<rect x="127.262" y="69.7266" width="266.738" height="43.1382" fill="#D9D9D9"/>
</mask>
<g mask="url(#mask0_52_7253)">
<rect width="229.276" height="229.276" transform="matrix(0.987174 -0.15965 0.987174 0.15965 33.915 91.2158)" fill="black"/>
</g>
<path d="M162.221 91.5405H167.881V98.9405C167.135 99.1939 166.355 99.3939 165.541 99.5405C164.741 99.6872 163.828 99.7605 162.801 99.7605C161.388 99.7605 160.181 99.4805 159.181 98.9205C158.195 98.3605 157.441 97.5339 156.921 96.4405C156.415 95.3472 156.161 94.0005 156.161 92.4005C156.161 90.9072 156.448 89.6139 157.021 88.5205C157.608 87.4272 158.455 86.5805 159.561 85.9805C160.668 85.3805 162.021 85.0805 163.621 85.0805C164.381 85.0805 165.128 85.1605 165.861 85.3205C166.595 85.4805 167.261 85.6939 167.861 85.9605L166.861 88.3805C166.421 88.1539 165.921 87.9672 165.361 87.8205C164.801 87.6739 164.215 87.6005 163.601 87.6005C162.721 87.6005 161.955 87.8005 161.301 88.2005C160.661 88.6005 160.161 89.1672 159.801 89.9005C159.455 90.6205 159.281 91.4739 159.281 92.4605C159.281 93.3939 159.408 94.2205 159.661 94.9405C159.915 95.6605 160.315 96.2272 160.861 96.6405C161.408 97.0405 162.121 97.2405 163.001 97.2405C163.295 97.2405 163.548 97.2339 163.761 97.2205C163.988 97.1939 164.195 97.1672 164.381 97.1405C164.568 97.1005 164.748 97.0672 164.921 97.0405V94.0605H162.221V91.5405ZM171.274 99.5605V85.2805H174.294V97.0605H180.094V99.5605H171.274ZM191.503 91.3805C191.503 92.1939 191.443 93.0072 191.323 93.8205C191.203 94.6205 190.989 95.3805 190.683 96.1005C190.389 96.8072 189.969 97.4405 189.423 98.0005C188.889 98.5472 188.203 98.9805 187.363 99.3005C186.536 99.6072 185.529 99.7605 184.343 99.7605C184.063 99.7605 183.736 99.7472 183.363 99.7205C182.989 99.7072 182.676 99.6739 182.423 99.6205V97.2005C182.689 97.2539 182.969 97.3005 183.263 97.3405C183.556 97.3805 183.849 97.4005 184.143 97.4005C185.036 97.4005 185.769 97.2939 186.343 97.0805C186.929 96.8672 187.389 96.5605 187.723 96.1605C188.056 95.7605 188.296 95.2872 188.443 94.7405C188.603 94.1939 188.696 93.5939 188.723 92.9405H188.603C188.416 93.2472 188.189 93.5272 187.923 93.7805C187.669 94.0339 187.343 94.2339 186.943 94.3805C186.556 94.5272 186.056 94.6005 185.443 94.6005C184.629 94.6005 183.923 94.4272 183.323 94.0805C182.723 93.7205 182.256 93.2072 181.923 92.5405C181.589 91.8605 181.423 91.0405 181.423 90.0805C181.423 89.0405 181.616 88.1539 182.003 87.4205C182.403 86.6739 182.969 86.1072 183.703 85.7205C184.436 85.3205 185.296 85.1205 186.283 85.1205C187.016 85.1205 187.696 85.2472 188.323 85.5005C188.963 85.7539 189.516 86.1405 189.983 86.6605C190.463 87.1672 190.836 87.8139 191.103 88.6005C191.369 89.3872 191.503 90.3139 191.503 91.3805ZM186.343 87.5405C185.756 87.5405 185.276 87.7405 184.903 88.1405C184.529 88.5405 184.343 89.1739 184.343 90.0405C184.343 90.7339 184.503 91.2805 184.823 91.6805C185.143 92.0805 185.629 92.2805 186.283 92.2805C186.736 92.2805 187.123 92.1805 187.443 91.9805C187.776 91.7805 188.036 91.5339 188.223 91.2405C188.409 90.9339 188.503 90.6205 188.503 90.3005C188.503 89.9672 188.456 89.6405 188.363 89.3205C188.269 88.9872 188.129 88.6872 187.943 88.4205C187.769 88.1539 187.549 87.9405 187.283 87.7805C187.016 87.6205 186.703 87.5405 186.343 87.5405ZM197.948 85.1005C198.775 85.1005 199.528 85.2272 200.208 85.4805C200.901 85.7339 201.455 86.1139 201.868 86.6205C202.295 87.1272 202.508 87.7672 202.508 88.5405C202.508 89.1139 202.395 89.6205 202.168 90.0605C201.941 90.4872 201.635 90.8605 201.248 91.1805C200.875 91.5005 200.441 91.7805 199.948 92.0205C200.455 92.2872 200.935 92.6005 201.388 92.9605C201.855 93.3072 202.228 93.7205 202.508 94.2005C202.801 94.6672 202.948 95.2205 202.948 95.8605C202.948 96.6472 202.735 97.3339 202.308 97.9205C201.895 98.5072 201.308 98.9605 200.548 99.2805C199.801 99.6005 198.935 99.7605 197.948 99.7605C196.881 99.7605 195.975 99.6072 195.228 99.3005C194.481 98.9939 193.908 98.5539 193.508 97.9805C193.121 97.4072 192.928 96.7272 192.928 95.9405C192.928 95.2872 193.048 94.7205 193.288 94.2405C193.541 93.7605 193.875 93.3472 194.288 93.0005C194.701 92.6405 195.161 92.3405 195.668 92.1005C195.241 91.8339 194.855 91.5339 194.508 91.2005C194.161 90.8539 193.881 90.4672 193.668 90.0405C193.468 89.6005 193.368 89.0939 193.368 88.5205C193.368 87.7605 193.581 87.1272 194.008 86.6205C194.435 86.1139 194.995 85.7339 195.688 85.4805C196.395 85.2272 197.148 85.1005 197.948 85.1005ZM195.728 95.7605C195.728 96.2805 195.908 96.7072 196.268 97.0405C196.641 97.3739 197.188 97.5405 197.908 97.5405C198.415 97.5405 198.828 97.4672 199.148 97.3205C199.481 97.1739 199.728 96.9672 199.888 96.7005C200.061 96.4339 200.148 96.1272 200.148 95.7805C200.148 95.4205 200.041 95.1072 199.828 94.8405C199.615 94.5605 199.348 94.3139 199.028 94.1005C198.721 93.8739 198.401 93.6672 198.068 93.4805L197.808 93.3405C197.395 93.5272 197.028 93.7405 196.708 93.9805C196.401 94.2205 196.161 94.4872 195.988 94.7805C195.815 95.0605 195.728 95.3872 195.728 95.7605ZM197.928 87.3005C197.435 87.3005 197.021 87.4272 196.688 87.6805C196.368 87.9339 196.208 88.2939 196.208 88.7605C196.208 89.0805 196.288 89.3672 196.448 89.6205C196.608 89.8605 196.821 90.0739 197.088 90.2605C197.355 90.4339 197.641 90.6005 197.948 90.7605C198.255 90.6139 198.535 90.4539 198.788 90.2805C199.055 90.1072 199.268 89.9005 199.428 89.6605C199.588 89.4072 199.668 89.1072 199.668 88.7605C199.668 88.2939 199.501 87.9339 199.168 87.6805C198.848 87.4272 198.435 87.3005 197.928 87.3005ZM205.373 84.1005H222.053V86.0405H205.373V84.1005ZM206.113 98.8405H221.413V100.801H206.113V98.8405ZM209.553 86.9005H217.713V88.5805H209.553V86.9005ZM209.553 89.4605H217.713V91.1405H209.553V89.4605ZM204.313 92.0205H223.013V93.9805H204.313V92.0205ZM208.853 95.6605H218.513V97.5405H208.853V95.6605ZM208.133 82.5805H210.553V93.1005H208.133V82.5805ZM216.853 82.6005H219.293V93.1005H216.853V82.6005ZM212.393 94.4005H214.853V99.9805H212.393V94.4005ZM209.373 92.5805L211.373 93.3205C210.093 95.4405 207.933 97.3205 205.653 98.3405C205.313 97.7805 204.633 96.9405 204.133 96.5005C206.213 95.7405 208.313 94.2005 209.373 92.5805ZM218.053 92.5805C219.113 94.1205 221.173 95.5605 223.233 96.3005C222.713 96.7405 222.013 97.6005 221.653 98.1605C219.493 97.2005 217.413 95.3005 216.153 93.3005L218.053 92.5805ZM226.733 84.0405H231.853V85.6405H226.733V84.0405ZM228.633 82.5605L230.733 82.8205C230.333 83.6605 229.993 84.4205 229.693 84.9805L227.913 84.7005C228.173 84.0605 228.473 83.2005 228.633 82.5605ZM225.873 84.0405H227.753V87.7605C227.753 89.9405 227.413 92.9405 225.573 94.8605C225.273 94.5005 224.493 93.8405 224.073 93.6205C225.693 91.9205 225.873 89.5605 225.873 87.7205V84.0405ZM235.553 83.2805H239.433V84.9405H235.553V83.2805ZM233.993 88.2205H240.153V89.8405H233.993V88.2205ZM234.713 83.2805H236.573V84.6605C236.573 86.0205 236.173 87.5605 234.453 88.6005C234.213 88.2005 233.493 87.4005 233.133 87.1405C234.513 86.3805 234.713 85.4805 234.713 84.6205V83.2805ZM230.873 84.0405H232.813V92.2405C232.813 93.1405 232.673 93.6605 232.113 93.9605C231.553 94.2605 230.793 94.2805 229.753 94.2805C229.693 93.7605 229.473 92.9805 229.213 92.4805C229.813 92.5005 230.413 92.5005 230.613 92.5005C230.813 92.5005 230.873 92.4205 230.873 92.2205V84.0405ZM224.373 88.3005C226.713 88.2405 230.253 88.0805 233.633 87.9405L233.593 89.6605C230.313 89.8405 226.893 90.0005 224.473 90.1205L224.373 88.3005ZM228.093 86.2605L229.473 85.8005C229.833 86.3605 230.173 87.1205 230.333 87.6005L228.893 88.1405C228.753 87.6405 228.413 86.8405 228.093 86.2605ZM228.413 90.2605H229.893V93.0405H228.413V90.2605ZM238.393 83.2805H240.293V85.7405C240.293 86.1605 240.313 86.2005 240.533 86.2005C240.613 86.2005 240.873 86.2005 240.973 86.2005C241.213 86.2005 241.293 86.0405 241.333 84.8805C241.673 85.1605 242.453 85.4205 242.933 85.5405C242.773 87.3405 242.293 87.8405 241.233 87.8405C240.933 87.8405 240.453 87.8405 240.173 87.8405C238.773 87.8405 238.393 87.3405 238.393 85.7605V83.2805ZM239.613 88.2205H240.053L240.413 88.1805L241.613 88.6805C240.453 92.0605 237.693 93.6405 234.213 94.4005C233.993 93.9005 233.453 93.0205 233.113 92.6605C236.293 92.1605 238.733 90.9605 239.613 88.4805V88.2205ZM236.313 89.7005C237.453 91.3605 239.873 92.3405 243.033 92.6405C242.573 93.0805 242.013 93.9005 241.753 94.4605C238.273 93.9205 235.833 92.5405 234.433 90.2005L236.313 89.7005ZM224.493 98.9005H242.813V100.781H224.493V98.9005ZM226.733 94.6405H240.553V99.8205H238.193V96.4605H236.553V99.8205H234.373V96.4605H232.753V99.8205H230.553V96.4605H228.973V99.8205H226.733V94.6405ZM275.155 92.4205C275.155 93.5672 275.061 94.5939 274.875 95.5005C274.701 96.4072 274.415 97.1805 274.015 97.8205C273.628 98.4472 273.115 98.9272 272.475 99.2605C271.848 99.5939 271.075 99.7605 270.155 99.7605C269.008 99.7605 268.068 99.4672 267.335 98.8805C266.601 98.2939 266.055 97.4539 265.695 96.3605C265.348 95.2672 265.175 93.9539 265.175 92.4205C265.175 90.8739 265.335 89.5539 265.655 88.4605C265.975 87.3672 266.501 86.5272 267.235 85.9405C267.968 85.3539 268.941 85.0605 270.155 85.0605C271.301 85.0605 272.241 85.3539 272.975 85.9405C273.708 86.5139 274.255 87.3539 274.615 88.4605C274.975 89.5539 275.155 90.8739 275.155 92.4205ZM268.175 92.4205C268.175 93.5005 268.235 94.4072 268.355 95.1405C268.475 95.8605 268.675 96.4072 268.955 96.7805C269.248 97.1405 269.648 97.3205 270.155 97.3205C270.661 97.3205 271.055 97.1405 271.335 96.7805C271.628 96.4205 271.835 95.8805 271.955 95.1605C272.088 94.4272 272.155 93.5139 272.155 92.4205C272.155 91.3272 272.088 90.4205 271.955 89.7005C271.835 88.9672 271.628 88.4205 271.335 88.0605C271.055 87.6872 270.661 87.5005 270.155 87.5005C269.648 87.5005 269.248 87.6872 268.955 88.0605C268.675 88.4205 268.475 88.9672 268.355 89.7005C268.235 90.4205 268.175 91.3272 268.175 92.4205ZM277.04 98.1605C277.04 97.5472 277.207 97.1205 277.54 96.8805C277.873 96.6272 278.28 96.5005 278.76 96.5005C279.227 96.5005 279.627 96.6272 279.96 96.8805C280.293 97.1205 280.46 97.5472 280.46 98.1605C280.46 98.7472 280.293 99.1739 279.96 99.4405C279.627 99.6939 279.227 99.8205 278.76 99.8205C278.28 99.8205 277.873 99.6939 277.54 99.4405C277.207 99.1739 277.04 98.7472 277.04 98.1605ZM292.703 96.6005H290.983V99.5605H288.043V96.6005H281.943V94.5005L288.203 85.2805H290.983V94.2605H292.703V96.6005ZM288.043 91.8405C288.043 91.6139 288.043 91.3472 288.043 91.0405C288.056 90.7205 288.07 90.4072 288.083 90.1005C288.096 89.7805 288.11 89.5005 288.123 89.2605C288.136 89.0072 288.15 88.8339 288.163 88.7405H288.083C287.963 89.0072 287.836 89.2672 287.703 89.5205C287.57 89.7739 287.41 90.0339 287.223 90.3005L284.603 94.2605H288.043V91.8405ZM298.768 85.1005C299.595 85.1005 300.348 85.2272 301.028 85.4805C301.722 85.7339 302.275 86.1139 302.688 86.6205C303.115 87.1272 303.328 87.7672 303.328 88.5405C303.328 89.1139 303.215 89.6205 302.988 90.0605C302.762 90.4872 302.455 90.8605 302.068 91.1805C301.695 91.5005 301.262 91.7805 300.768 92.0205C301.275 92.2872 301.755 92.6005 302.208 92.9605C302.675 93.3072 303.048 93.7205 303.328 94.2005C303.622 94.6672 303.768 95.2205 303.768 95.8605C303.768 96.6472 303.555 97.3339 303.128 97.9205C302.715 98.5072 302.128 98.9605 301.368 99.2805C300.622 99.6005 299.755 99.7605 298.768 99.7605C297.702 99.7605 296.795 99.6072 296.048 99.3005C295.302 98.9939 294.728 98.5539 294.328 97.9805C293.942 97.4072 293.748 96.7272 293.748 95.9405C293.748 95.2872 293.868 94.7205 294.108 94.2405C294.362 93.7605 294.695 93.3472 295.108 93.0005C295.522 92.6405 295.982 92.3405 296.488 92.1005C296.062 91.8339 295.675 91.5339 295.328 91.2005C294.982 90.8539 294.702 90.4672 294.488 90.0405C294.288 89.6005 294.188 89.0939 294.188 88.5205C294.188 87.7605 294.402 87.1272 294.828 86.6205C295.255 86.1139 295.815 85.7339 296.508 85.4805C297.215 85.2272 297.968 85.1005 298.768 85.1005ZM296.548 95.7605C296.548 96.2805 296.728 96.7072 297.088 97.0405C297.462 97.3739 298.008 97.5405 298.728 97.5405C299.235 97.5405 299.648 97.4672 299.968 97.3205C300.302 97.1739 300.548 96.9672 300.708 96.7005C300.882 96.4339 300.968 96.1272 300.968 95.7805C300.968 95.4205 300.862 95.1072 300.648 94.8405C300.435 94.5605 300.168 94.3139 299.848 94.1005C299.542 93.8739 299.222 93.6672 298.888 93.4805L298.628 93.3405C298.215 93.5272 297.848 93.7405 297.528 93.9805C297.222 94.2205 296.982 94.4872 296.808 94.7805C296.635 95.0605 296.548 95.3872 296.548 95.7605ZM298.748 87.3005C298.255 87.3005 297.842 87.4272 297.508 87.6805C297.188 87.9339 297.028 88.2939 297.028 88.7605C297.028 89.0805 297.108 89.3672 297.268 89.6205C297.428 89.8605 297.642 90.0739 297.908 90.2605C298.175 90.4339 298.462 90.6005 298.768 90.7605C299.075 90.6139 299.355 90.4539 299.608 90.2805C299.875 90.1072 300.088 89.9005 300.248 89.6605C300.408 89.4072 300.488 89.1072 300.488 88.7605C300.488 88.2939 300.322 87.9339 299.988 87.6805C299.668 87.4272 299.255 87.3005 298.748 87.3005ZM306.054 104.361V88.6405H309.034V95.0205C309.034 95.7939 309.174 96.3805 309.454 96.7805C309.747 97.1805 310.2 97.3805 310.814 97.3805C311.374 97.3805 311.814 97.2405 312.134 96.9605C312.467 96.6805 312.7 96.2739 312.834 95.7405C312.98 95.2072 313.054 94.5539 313.054 93.7805V88.6405H316.034V96.1005C316.034 96.5539 316.114 96.8605 316.274 97.0205C316.447 97.1805 316.64 97.2605 316.854 97.2605C316.947 97.2605 317.054 97.2472 317.174 97.2205C317.294 97.1939 317.38 97.1739 317.434 97.1605V99.5005C317.367 99.5405 317.254 99.5805 317.094 99.6205C316.934 99.6605 316.76 99.6939 316.574 99.7205C316.4 99.7472 316.24 99.7605 316.094 99.7605C315.427 99.7605 314.874 99.6405 314.434 99.4005C314.007 99.1472 313.68 98.7139 313.454 98.1005H313.314C313.14 98.4605 312.927 98.7672 312.674 99.0205C312.42 99.2605 312.14 99.4405 311.834 99.5605C311.54 99.6939 311.22 99.7605 310.874 99.7605C310.607 99.7605 310.354 99.7272 310.114 99.6605C309.887 99.5939 309.68 99.4939 309.494 99.3605C309.307 99.2272 309.14 99.0672 308.994 98.8805H308.934C308.96 99.0139 308.98 99.2272 308.994 99.5205C309.007 99.8005 309.014 100.094 309.014 100.401C309.027 100.721 309.034 101.001 309.034 101.241V104.361H306.054ZM332.448 88.4405C333.688 88.4405 334.621 88.7605 335.248 89.4005C335.888 90.0272 336.208 91.0405 336.208 92.4405V99.5605H333.228V93.1805C333.228 92.3939 333.095 91.8072 332.828 91.4205C332.561 91.0205 332.148 90.8205 331.588 90.8205C330.801 90.8205 330.241 91.1005 329.908 91.6605C329.575 92.2205 329.408 93.0272 329.408 94.0805V99.5605H326.428V93.1805C326.428 92.6605 326.368 92.2272 326.248 91.8805C326.128 91.5339 325.948 91.2739 325.708 91.1005C325.468 90.9139 325.161 90.8205 324.788 90.8205C324.241 90.8205 323.808 90.9605 323.488 91.2405C323.168 91.5205 322.941 91.9272 322.808 92.4605C322.675 92.9939 322.608 93.6472 322.608 94.4205V99.5605H319.628V88.6405H321.908L322.308 90.0405H322.468C322.695 89.6672 322.975 89.3672 323.308 89.1405C323.641 88.9005 324.008 88.7272 324.408 88.6205C324.821 88.5005 325.235 88.4405 325.648 88.4405C326.448 88.4405 327.128 88.5739 327.688 88.8405C328.248 89.0939 328.675 89.4939 328.968 90.0405H329.228C329.561 89.4805 330.021 89.0739 330.608 88.8205C331.208 88.5672 331.821 88.4405 332.448 88.4405Z" fill="#E6CD92"/>
<mask id="mask1_52_7253" style="mask-type:alpha" maskUnits="userSpaceOnUse" x="127" y="161" width="267" height="44">
<rect x="127.246" y="161.734" width="266.738" height="43.1382" fill="#D9D9D9"/>
</mask>
<g mask="url(#mask1_52_7253)">
<rect width="229.276" height="229.276" transform="matrix(0.987174 -0.15965 0.987174 0.15965 33.8735 183.224)" fill="black"/>
</g>
<path d="M162.208 183.52H167.868V190.92C167.122 191.173 166.342 191.373 165.528 191.52C164.728 191.667 163.815 191.74 162.788 191.74C161.375 191.74 160.168 191.46 159.168 190.9C158.182 190.34 157.428 189.513 156.908 188.42C156.402 187.327 156.148 185.98 156.148 184.38C156.148 182.887 156.435 181.593 157.008 180.5C157.595 179.407 158.442 178.56 159.548 177.96C160.655 177.36 162.008 177.06 163.608 177.06C164.368 177.06 165.115 177.14 165.848 177.3C166.582 177.46 167.248 177.673 167.848 177.94L166.848 180.36C166.408 180.133 165.908 179.947 165.348 179.8C164.788 179.653 164.202 179.58 163.588 179.58C162.708 179.58 161.942 179.78 161.288 180.18C160.648 180.58 160.148 181.147 159.788 181.88C159.442 182.6 159.268 183.453 159.268 184.44C159.268 185.373 159.395 186.2 159.648 186.92C159.902 187.64 160.302 188.207 160.848 188.62C161.395 189.02 162.108 189.22 162.988 189.22C163.282 189.22 163.535 189.213 163.748 189.2C163.975 189.173 164.182 189.147 164.368 189.12C164.555 189.08 164.735 189.047 164.908 189.02V186.04H162.208V183.52ZM171.261 191.54V177.26H174.281V189.04H180.081V191.54H171.261ZM191.49 183.36C191.49 184.173 191.43 184.987 191.31 185.8C191.19 186.6 190.976 187.36 190.67 188.08C190.376 188.787 189.956 189.42 189.41 189.98C188.876 190.527 188.19 190.96 187.35 191.28C186.523 191.587 185.516 191.74 184.33 191.74C184.05 191.74 183.723 191.727 183.35 191.7C182.976 191.687 182.663 191.653 182.41 191.6V189.18C182.676 189.233 182.956 189.28 183.25 189.32C183.543 189.36 183.836 189.38 184.13 189.38C185.023 189.38 185.756 189.273 186.33 189.06C186.916 188.847 187.376 188.54 187.71 188.14C188.043 187.74 188.283 187.267 188.43 186.72C188.59 186.173 188.683 185.573 188.71 184.92H188.59C188.403 185.227 188.176 185.507 187.91 185.76C187.656 186.013 187.33 186.213 186.93 186.36C186.543 186.507 186.043 186.58 185.43 186.58C184.616 186.58 183.91 186.407 183.31 186.06C182.71 185.7 182.243 185.187 181.91 184.52C181.576 183.84 181.41 183.02 181.41 182.06C181.41 181.02 181.603 180.133 181.99 179.4C182.39 178.653 182.956 178.087 183.69 177.7C184.423 177.3 185.283 177.1 186.27 177.1C187.003 177.1 187.683 177.227 188.31 177.48C188.95 177.733 189.503 178.12 189.97 178.64C190.45 179.147 190.823 179.793 191.09 180.58C191.356 181.367 191.49 182.293 191.49 183.36ZM186.33 179.52C185.743 179.52 185.263 179.72 184.89 180.12C184.516 180.52 184.33 181.153 184.33 182.02C184.33 182.713 184.49 183.26 184.81 183.66C185.13 184.06 185.616 184.26 186.27 184.26C186.723 184.26 187.11 184.16 187.43 183.96C187.763 183.76 188.023 183.513 188.21 183.22C188.396 182.913 188.49 182.6 188.49 182.28C188.49 181.947 188.443 181.62 188.35 181.3C188.256 180.967 188.116 180.667 187.93 180.4C187.756 180.133 187.536 179.92 187.27 179.76C187.003 179.6 186.69 179.52 186.33 179.52ZM202.915 184.4C202.915 185.547 202.822 186.573 202.635 187.48C202.462 188.387 202.175 189.16 201.775 189.8C201.388 190.427 200.875 190.907 200.235 191.24C199.608 191.573 198.835 191.74 197.915 191.74C196.768 191.74 195.828 191.447 195.095 190.86C194.362 190.273 193.815 189.433 193.455 188.34C193.108 187.247 192.935 185.933 192.935 184.4C192.935 182.853 193.095 181.533 193.415 180.44C193.735 179.347 194.262 178.507 194.995 177.92C195.728 177.333 196.702 177.04 197.915 177.04C199.062 177.04 200.002 177.333 200.735 177.92C201.468 178.493 202.015 179.333 202.375 180.44C202.735 181.533 202.915 182.853 202.915 184.4ZM195.935 184.4C195.935 185.48 195.995 186.387 196.115 187.12C196.235 187.84 196.435 188.387 196.715 188.76C197.008 189.12 197.408 189.3 197.915 189.3C198.422 189.3 198.815 189.12 199.095 188.76C199.388 188.4 199.595 187.86 199.715 187.14C199.848 186.407 199.915 185.493 199.915 184.4C199.915 183.307 199.848 182.4 199.715 181.68C199.595 180.947 199.388 180.4 199.095 180.04C198.815 179.667 198.422 179.48 197.915 179.48C197.408 179.48 197.008 179.667 196.715 180.04C196.435 180.4 196.235 180.947 196.115 181.68C195.995 182.4 195.935 183.307 195.935 184.4ZM205.36 176.08H222.04V178.02H205.36V176.08ZM206.1 190.82H221.4V192.78H206.1V190.82ZM209.54 178.88H217.7V180.56H209.54V178.88ZM209.54 181.44H217.7V183.12H209.54V181.44ZM204.3 184H223V185.96H204.3V184ZM208.84 187.64H218.5V189.52H208.84V187.64ZM208.12 174.56H210.54V185.08H208.12V174.56ZM216.84 174.58H219.28V185.08H216.84V174.58ZM212.38 186.38H214.84V191.96H212.38V186.38ZM209.36 184.56L211.36 185.3C210.08 187.42 207.92 189.3 205.64 190.32C205.3 189.76 204.62 188.92 204.12 188.48C206.2 187.72 208.3 186.18 209.36 184.56ZM218.04 184.56C219.1 186.1 221.16 187.54 223.22 188.28C222.7 188.72 222 189.58 221.64 190.14C219.48 189.18 217.4 187.28 216.14 185.28L218.04 184.56ZM226.72 176.02H231.84V177.62H226.72V176.02ZM228.62 174.54L230.72 174.8C230.32 175.64 229.98 176.4 229.68 176.96L227.9 176.68C228.16 176.04 228.46 175.18 228.62 174.54ZM225.86 176.02H227.74V179.74C227.74 181.92 227.4 184.92 225.56 186.84C225.26 186.48 224.48 185.82 224.06 185.6C225.68 183.9 225.86 181.54 225.86 179.7V176.02ZM235.54 175.26H239.42V176.92H235.54V175.26ZM233.98 180.2H240.14V181.82H233.98V180.2ZM234.7 175.26H236.56V176.64C236.56 178 236.16 179.54 234.44 180.58C234.2 180.18 233.48 179.38 233.12 179.12C234.5 178.36 234.7 177.46 234.7 176.6V175.26ZM230.86 176.02H232.8V184.22C232.8 185.12 232.66 185.64 232.1 185.94C231.54 186.24 230.78 186.26 229.74 186.26C229.68 185.74 229.46 184.96 229.2 184.46C229.8 184.48 230.4 184.48 230.6 184.48C230.8 184.48 230.86 184.4 230.86 184.2V176.02ZM224.36 180.28C226.7 180.22 230.24 180.06 233.62 179.92L233.58 181.64C230.3 181.82 226.88 181.98 224.46 182.1L224.36 180.28ZM228.08 178.24L229.46 177.78C229.82 178.34 230.16 179.1 230.32 179.58L228.88 180.12C228.74 179.62 228.4 178.82 228.08 178.24ZM228.4 182.24H229.88V185.02H228.4V182.24ZM238.38 175.26H240.28V177.72C240.28 178.14 240.3 178.18 240.52 178.18C240.6 178.18 240.86 178.18 240.96 178.18C241.2 178.18 241.28 178.02 241.32 176.86C241.66 177.14 242.44 177.4 242.92 177.52C242.76 179.32 242.28 179.82 241.22 179.82C240.92 179.82 240.44 179.82 240.16 179.82C238.76 179.82 238.38 179.32 238.38 177.74V175.26ZM239.6 180.2H240.04L240.4 180.16L241.6 180.66C240.44 184.04 237.68 185.62 234.2 186.38C233.98 185.88 233.44 185 233.1 184.64C236.28 184.14 238.72 182.94 239.6 180.46V180.2ZM236.3 181.68C237.44 183.34 239.86 184.32 243.02 184.62C242.56 185.06 242 185.88 241.74 186.44C238.26 185.9 235.82 184.52 234.42 182.18L236.3 181.68ZM224.48 190.88H242.8V192.76H224.48V190.88ZM226.72 186.62H240.54V191.8H238.18V188.44H236.54V191.8H234.36V188.44H232.74V191.8H230.54V188.44H228.96V191.8H226.72V186.62ZM272.701 191.54H269.681V183.28C269.681 183.053 269.681 182.773 269.681 182.44C269.695 182.107 269.708 181.76 269.721 181.4C269.735 181.04 269.748 180.72 269.761 180.44C269.695 180.52 269.548 180.667 269.321 180.88C269.108 181.08 268.908 181.26 268.721 181.42L267.081 182.74L265.621 180.92L270.221 177.26H272.701V191.54ZM277.027 190.14C277.027 189.527 277.193 189.1 277.527 188.86C277.86 188.607 278.267 188.48 278.747 188.48C279.213 188.48 279.613 188.607 279.947 188.86C280.28 189.1 280.447 189.527 280.447 190.14C280.447 190.727 280.28 191.153 279.947 191.42C279.613 191.673 279.213 191.8 278.747 191.8C278.267 191.8 277.86 191.673 277.527 191.42C277.193 191.153 277.027 190.727 277.027 190.14ZM292.69 188.58H290.97V191.54H288.03V188.58H281.93V186.48L288.19 177.26H290.97V186.24H292.69V188.58ZM288.03 183.82C288.03 183.593 288.03 183.327 288.03 183.02C288.043 182.7 288.057 182.387 288.07 182.08C288.083 181.76 288.097 181.48 288.11 181.24C288.123 180.987 288.137 180.813 288.15 180.72H288.07C287.95 180.987 287.823 181.247 287.69 181.5C287.557 181.753 287.397 182.013 287.21 182.28L284.59 186.24H288.03V183.82ZM295.255 191.54L300.615 179.8H293.575V177.26H303.815V179.16L298.415 191.54H295.255ZM306.04 196.34V180.62H309.02V187C309.02 187.773 309.16 188.36 309.44 188.76C309.734 189.16 310.187 189.36 310.8 189.36C311.36 189.36 311.8 189.22 312.12 188.94C312.454 188.66 312.687 188.253 312.82 187.72C312.967 187.187 313.04 186.533 313.04 185.76V180.62H316.02V188.08C316.02 188.533 316.1 188.84 316.26 189C316.434 189.16 316.627 189.24 316.84 189.24C316.934 189.24 317.04 189.227 317.16 189.2C317.28 189.173 317.367 189.153 317.42 189.14V191.48C317.354 191.52 317.24 191.56 317.08 191.6C316.92 191.64 316.747 191.673 316.56 191.7C316.387 191.727 316.227 191.74 316.08 191.74C315.414 191.74 314.86 191.62 314.42 191.38C313.994 191.127 313.667 190.693 313.44 190.08H313.3C313.127 190.44 312.914 190.747 312.66 191C312.407 191.24 312.127 191.42 311.82 191.54C311.527 191.673 311.207 191.74 310.86 191.74C310.594 191.74 310.34 191.707 310.1 191.64C309.874 191.573 309.667 191.473 309.48 191.34C309.294 191.207 309.127 191.047 308.98 190.86H308.92C308.947 190.993 308.967 191.207 308.98 191.5C308.994 191.78 309 192.073 309 192.38C309.014 192.7 309.02 192.98 309.02 193.22V196.34H306.04ZM332.435 180.42C333.675 180.42 334.608 180.74 335.235 181.38C335.875 182.007 336.195 183.02 336.195 184.42V191.54H333.215V185.16C333.215 184.373 333.081 183.787 332.815 183.4C332.548 183 332.135 182.8 331.575 182.8C330.788 182.8 330.228 183.08 329.895 183.64C329.561 184.2 329.395 185.007 329.395 186.06V191.54H326.415V185.16C326.415 184.64 326.355 184.207 326.235 183.86C326.115 183.513 325.935 183.253 325.695 183.08C325.455 182.893 325.148 182.8 324.775 182.8C324.228 182.8 323.795 182.94 323.475 183.22C323.155 183.5 322.928 183.907 322.795 184.44C322.661 184.973 322.595 185.627 322.595 186.4V191.54H319.615V180.62H321.895L322.295 182.02H322.455C322.681 181.647 322.961 181.347 323.295 181.12C323.628 180.88 323.995 180.707 324.395 180.6C324.808 180.48 325.221 180.42 325.635 180.42C326.435 180.42 327.115 180.553 327.675 180.82C328.235 181.073 328.661 181.473 328.955 182.02H329.215C329.548 181.46 330.008 181.053 330.595 180.8C331.195 180.547 331.808 180.42 332.435 180.42Z" fill="#E6CD92"/>
<mask id="mask2_52_7253" style="mask-type:alpha" maskUnits="userSpaceOnUse" x="127" y="212" width="267" height="44">
<rect x="127.262" y="212.085" width="266.738" height="43.1382" fill="#D9D9D9"/>
</mask>
<g mask="url(#mask2_52_7253)">
<rect width="229.276" height="229.276" transform="matrix(0.987174 -0.15965 0.987174 0.15965 33.9189 233.574)" fill="black"/>
</g>
<path d="M165.221 237.957C165.221 238.797 165.015 239.53 164.601 240.157C164.188 240.784 163.588 241.27 162.801 241.617C162.028 241.95 161.081 242.117 159.961 242.117C159.468 242.117 158.981 242.084 158.501 242.017C158.035 241.95 157.581 241.857 157.141 241.737C156.715 241.604 156.308 241.444 155.921 241.257V238.437C156.601 238.73 157.301 239.004 158.021 239.257C158.755 239.497 159.481 239.617 160.201 239.617C160.695 239.617 161.088 239.55 161.381 239.417C161.688 239.284 161.908 239.104 162.041 238.877C162.188 238.65 162.261 238.39 162.261 238.097C162.261 237.737 162.135 237.43 161.881 237.177C161.641 236.924 161.315 236.69 160.901 236.477C160.488 236.25 160.015 236.01 159.481 235.757C159.148 235.597 158.788 235.41 158.401 235.197C158.015 234.97 157.641 234.697 157.281 234.377C156.935 234.044 156.648 233.644 156.421 233.177C156.195 232.71 156.081 232.15 156.081 231.497C156.081 230.644 156.275 229.917 156.661 229.317C157.061 228.704 157.621 228.237 158.341 227.917C159.075 227.597 159.935 227.437 160.921 227.437C161.668 227.437 162.375 227.524 163.041 227.697C163.721 227.87 164.428 228.117 165.161 228.437L164.181 230.797C163.528 230.53 162.941 230.324 162.421 230.177C161.901 230.03 161.368 229.957 160.821 229.957C160.448 229.957 160.128 230.017 159.861 230.137C159.595 230.257 159.388 230.424 159.241 230.637C159.108 230.85 159.041 231.104 159.041 231.397C159.041 231.73 159.141 232.017 159.341 232.257C159.541 232.484 159.841 232.704 160.241 232.917C160.641 233.13 161.141 233.384 161.741 233.677C162.475 234.024 163.095 234.384 163.601 234.757C164.121 235.13 164.521 235.57 164.801 236.077C165.081 236.584 165.221 237.21 165.221 237.957ZM167.817 241.917V227.637H170.837V239.417H176.637V241.917H167.817ZM190.666 241.917H187.206L183.886 236.517L180.566 241.917H177.326L182.066 234.557L177.626 227.637H180.966L184.046 232.777L187.066 227.637H190.326L185.846 234.717L190.666 241.917ZM192.886 241.917L198.246 230.177H191.206V227.637H201.446V229.537L196.046 241.917H192.886ZM207.831 227.457C208.658 227.457 209.411 227.584 210.091 227.837C210.784 228.09 211.338 228.47 211.751 228.977C212.178 229.484 212.391 230.124 212.391 230.897C212.391 231.47 212.278 231.977 212.051 232.417C211.824 232.844 211.518 233.217 211.131 233.537C210.758 233.857 210.324 234.137 209.831 234.377C210.338 234.644 210.818 234.957 211.271 235.317C211.738 235.664 212.111 236.077 212.391 236.557C212.684 237.024 212.831 237.577 212.831 238.217C212.831 239.004 212.618 239.69 212.191 240.277C211.778 240.864 211.191 241.317 210.431 241.637C209.684 241.957 208.818 242.117 207.831 242.117C206.764 242.117 205.858 241.964 205.111 241.657C204.364 241.35 203.791 240.91 203.391 240.337C203.004 239.764 202.811 239.084 202.811 238.297C202.811 237.644 202.931 237.077 203.171 236.597C203.424 236.117 203.758 235.704 204.171 235.357C204.584 234.997 205.044 234.697 205.551 234.457C205.124 234.19 204.738 233.89 204.391 233.557C204.044 233.21 203.764 232.824 203.551 232.397C203.351 231.957 203.251 231.45 203.251 230.877C203.251 230.117 203.464 229.484 203.891 228.977C204.318 228.47 204.878 228.09 205.571 227.837C206.278 227.584 207.031 227.457 207.831 227.457ZM205.611 238.117C205.611 238.637 205.791 239.064 206.151 239.397C206.524 239.73 207.071 239.897 207.791 239.897C208.298 239.897 208.711 239.824 209.031 239.677C209.364 239.53 209.611 239.324 209.771 239.057C209.944 238.79 210.031 238.484 210.031 238.137C210.031 237.777 209.924 237.464 209.711 237.197C209.498 236.917 209.231 236.67 208.911 236.457C208.604 236.23 208.284 236.024 207.951 235.837L207.691 235.697C207.278 235.884 206.911 236.097 206.591 236.337C206.284 236.577 206.044 236.844 205.871 237.137C205.698 237.417 205.611 237.744 205.611 238.117ZM207.811 229.657C207.318 229.657 206.904 229.784 206.571 230.037C206.251 230.29 206.091 230.65 206.091 231.117C206.091 231.437 206.171 231.724 206.331 231.977C206.491 232.217 206.704 232.43 206.971 232.617C207.238 232.79 207.524 232.957 207.831 233.117C208.138 232.97 208.418 232.81 208.671 232.637C208.938 232.464 209.151 232.257 209.311 232.017C209.471 231.764 209.551 231.464 209.551 231.117C209.551 230.65 209.384 230.29 209.051 230.037C208.731 229.784 208.318 229.657 207.811 229.657ZM220.856 241.917H217.836V230.157H213.956V227.637H224.736V230.157H220.856V241.917ZM232.829 241.917H229.809V230.157H225.929V227.637H236.709V230.157H232.829V241.917ZM248.306 232.797C249.173 232.797 249.946 232.964 250.626 233.297C251.306 233.63 251.839 234.117 252.226 234.757C252.626 235.397 252.826 236.19 252.826 237.137C252.826 238.164 252.613 239.05 252.186 239.797C251.759 240.544 251.119 241.117 250.266 241.517C249.426 241.917 248.379 242.117 247.126 242.117C246.379 242.117 245.673 242.05 245.006 241.917C244.353 241.784 243.779 241.59 243.286 241.337V238.737C243.779 238.99 244.373 239.21 245.066 239.397C245.759 239.57 246.413 239.657 247.026 239.657C247.626 239.657 248.126 239.577 248.526 239.417C248.939 239.257 249.253 239.01 249.466 238.677C249.679 238.344 249.786 237.917 249.786 237.397C249.786 236.69 249.553 236.157 249.086 235.797C248.619 235.424 247.899 235.237 246.926 235.237C246.553 235.237 246.166 235.277 245.766 235.357C245.366 235.424 245.033 235.49 244.766 235.557L243.566 234.917L244.106 227.637H251.846V230.197H246.746L246.486 232.997C246.713 232.957 246.953 232.917 247.206 232.877C247.473 232.824 247.839 232.797 248.306 232.797ZM254.891 240.517C254.891 239.904 255.058 239.477 255.391 239.237C255.725 238.984 256.131 238.857 256.611 238.857C257.078 238.857 257.478 238.984 257.811 239.237C258.145 239.477 258.311 239.904 258.311 240.517C258.311 241.104 258.145 241.53 257.811 241.797C257.478 242.05 257.078 242.177 256.611 242.177C256.131 242.177 255.725 242.05 255.391 241.797C255.058 241.53 254.891 241.104 254.891 240.517ZM265.455 232.797C266.321 232.797 267.095 232.964 267.775 233.297C268.455 233.63 268.988 234.117 269.375 234.757C269.775 235.397 269.975 236.19 269.975 237.137C269.975 238.164 269.761 239.05 269.335 239.797C268.908 240.544 268.268 241.117 267.415 241.517C266.575 241.917 265.528 242.117 264.275 242.117C263.528 242.117 262.821 242.05 262.155 241.917C261.501 241.784 260.928 241.59 260.435 241.337V238.737C260.928 238.99 261.521 239.21 262.215 239.397C262.908 239.57 263.561 239.657 264.175 239.657C264.775 239.657 265.275 239.577 265.675 239.417C266.088 239.257 266.401 239.01 266.615 238.677C266.828 238.344 266.935 237.917 266.935 237.397C266.935 236.69 266.701 236.157 266.235 235.797C265.768 235.424 265.048 235.237 264.075 235.237C263.701 235.237 263.315 235.277 262.915 235.357C262.515 235.424 262.181 235.49 261.915 235.557L260.715 234.917L261.255 227.637H268.995V230.197H263.895L263.635 232.997C263.861 232.957 264.101 232.917 264.355 232.877C264.621 232.824 264.988 232.797 265.455 232.797ZM279.16 241.917H276.14V233.657C276.14 233.43 276.14 233.15 276.14 232.817C276.153 232.484 276.167 232.137 276.18 231.777C276.193 231.417 276.207 231.097 276.22 230.817C276.153 230.897 276.007 231.044 275.78 231.257C275.567 231.457 275.367 231.637 275.18 231.797L273.54 233.117L272.08 231.297L276.68 227.637H279.16V241.917ZM283.905 246.717V230.997H286.885V237.377C286.885 238.15 287.025 238.737 287.305 239.137C287.599 239.537 288.052 239.737 288.665 239.737C289.225 239.737 289.665 239.597 289.985 239.317C290.319 239.037 290.552 238.63 290.685 238.097C290.832 237.564 290.905 236.91 290.905 236.137V230.997H293.885V238.457C293.885 238.91 293.965 239.217 294.125 239.377C294.299 239.537 294.492 239.617 294.705 239.617C294.799 239.617 294.905 239.604 295.025 239.577C295.145 239.55 295.232 239.53 295.285 239.517V241.857C295.219 241.897 295.105 241.937 294.945 241.977C294.785 242.017 294.612 242.05 294.425 242.077C294.252 242.104 294.092 242.117 293.945 242.117C293.279 242.117 292.725 241.997 292.285 241.757C291.859 241.504 291.532 241.07 291.305 240.457H291.165C290.992 240.817 290.779 241.124 290.525 241.377C290.272 241.617 289.992 241.797 289.685 241.917C289.392 242.05 289.072 242.117 288.725 242.117C288.459 242.117 288.205 242.084 287.965 242.017C287.739 241.95 287.532 241.85 287.345 241.717C287.159 241.584 286.992 241.424 286.845 241.237H286.785C286.812 241.37 286.832 241.584 286.845 241.877C286.859 242.157 286.865 242.45 286.865 242.757C286.879 243.077 286.885 243.357 286.885 243.597V246.717H283.905ZM310.299 230.797C311.539 230.797 312.473 231.117 313.099 231.757C313.739 232.384 314.059 233.397 314.059 234.797V241.917H311.079V235.537C311.079 234.75 310.946 234.164 310.679 233.777C310.413 233.377 309.999 233.177 309.439 233.177C308.653 233.177 308.093 233.457 307.759 234.017C307.426 234.577 307.259 235.384 307.259 236.437V241.917H304.279V235.537C304.279 235.017 304.219 234.584 304.099 234.237C303.979 233.89 303.799 233.63 303.559 233.457C303.319 233.27 303.013 233.177 302.639 233.177C302.093 233.177 301.659 233.317 301.339 233.597C301.019 233.877 300.793 234.284 300.659 234.817C300.526 235.35 300.459 236.004 300.459 236.777V241.917H297.479V230.997H299.759L300.159 232.397H300.319C300.546 232.024 300.826 231.724 301.159 231.497C301.493 231.257 301.859 231.084 302.259 230.977C302.673 230.857 303.086 230.797 303.499 230.797C304.299 230.797 304.979 230.93 305.539 231.197C306.099 231.45 306.526 231.85 306.819 232.397H307.079C307.413 231.837 307.873 231.43 308.459 231.177C309.059 230.924 309.673 230.797 310.299 230.797Z" fill="#E6CD92"/>
<mask id="mask3_52_7253" style="mask-type:alpha" maskUnits="userSpaceOnUse" x="127" y="318" width="267" height="44">
<rect x="127.26" y="318.49" width="266.738" height="43.1382" fill="#D9D9D9"/>
</mask>
<g mask="url(#mask3_52_7253)">
<rect width="229.276" height="229.276" transform="matrix(0.987174 -0.15965 0.987174 0.15965 33.9004 339.979)" fill="black"/>
</g>
<path d="M165.465 335.593H172.245V337.613H165.465V335.593ZM163.005 347.573C164.685 347.273 167.145 346.753 169.485 346.213L169.745 348.453C167.665 348.973 165.425 349.493 163.665 349.893L163.005 347.573ZM165.525 332.073H173.505V341.153H165.525V339.053H171.205V334.193H165.525V332.073ZM169.865 340.453C170.525 343.953 171.905 346.893 174.665 348.173C174.145 348.613 173.465 349.533 173.125 350.173C170.005 348.493 168.585 345.133 167.805 340.753L169.865 340.453ZM172.685 341.673L174.305 343.313C173.265 344.133 171.985 345.013 171.045 345.553L169.725 344.133C170.625 343.533 171.925 342.473 172.685 341.673ZM164.525 332.073H166.785V347.913L164.525 348.313V332.073ZM157.005 336.293H163.225V338.293H157.005V336.293ZM156.145 339.773H163.665V341.813H156.145V339.773ZM156.305 342.953L157.865 342.553C158.225 343.653 158.545 345.073 158.645 345.993L156.985 346.453C156.925 345.493 156.625 344.073 156.305 342.953ZM155.825 347.533C157.845 347.253 160.885 346.793 163.785 346.313L163.925 348.333C161.285 348.833 158.445 349.333 156.305 349.693L155.825 347.533ZM161.945 342.373L163.765 342.813C163.365 344.013 162.965 345.333 162.645 346.173L161.205 345.753C161.485 344.833 161.825 343.373 161.945 342.373ZM158.925 337.153H161.005V347.893L158.925 348.253V337.153ZM158.925 331.333H160.225V331.773H160.905V332.433C160.085 333.953 158.785 336.033 156.685 337.813C156.365 337.313 155.685 336.533 155.225 336.213C157.025 334.773 158.245 332.893 158.925 331.333ZM159.225 331.333H160.905C162.145 332.353 163.705 333.853 164.445 334.913L162.885 336.773C162.245 335.713 160.805 333.973 159.645 333.033H159.225V331.333ZM189.225 333.333H191.745V347.093C191.745 348.533 191.405 349.253 190.445 349.633C189.445 350.053 187.985 350.093 185.925 350.093C185.785 349.373 185.305 348.193 184.925 347.533C186.365 347.633 188.105 347.613 188.585 347.613C189.065 347.593 189.225 347.453 189.225 347.033V333.333ZM177.785 337.333H180.125V346.653H177.785V337.333ZM178.785 337.333H186.325V345.113H178.785V342.833H183.945V339.613H178.785V337.333ZM175.945 332.673H194.065V335.093H175.945V332.673ZM196.125 333.053H213.905V335.273H196.125V333.053ZM203.725 331.333H206.205V333.973H203.725V331.333ZM206.405 333.953H208.745V338.873C208.745 339.913 208.585 340.473 207.865 340.813C207.185 341.153 206.265 341.173 205.065 341.173C204.965 340.533 204.685 339.673 204.405 339.053C205.105 339.073 205.865 339.073 206.105 339.073C206.345 339.073 206.405 339.033 206.405 338.813V333.953ZM202.345 333.653H204.585V335.233C204.585 337.333 204.245 340.053 201.285 341.913C200.925 341.413 200.085 340.633 199.545 340.273C202.065 338.793 202.345 336.753 202.345 335.173V333.653ZM209.305 336.933L211.165 335.853C212.305 336.973 213.705 338.553 214.345 339.633L212.345 340.833C211.785 339.753 210.445 338.113 209.305 336.933ZM198.685 335.933L200.925 336.533C200.085 338.113 198.765 339.733 197.365 340.693C196.945 340.273 196.185 339.633 195.705 339.313C196.985 338.513 198.145 337.133 198.685 335.933ZM202.005 343.153C204.045 346.153 208.405 347.553 214.505 347.853C214.005 348.413 213.405 349.433 213.105 350.113C206.685 349.573 202.485 347.773 199.865 343.833L202.005 343.153ZM202.505 340.473L205.005 340.953C203.385 343.273 201.105 345.113 197.645 346.513C197.325 345.953 196.645 345.093 196.145 344.733C199.345 343.673 201.425 342.093 202.505 340.473ZM202.465 341.933H209.545V343.833H200.785L202.465 341.933ZM208.885 341.933H209.405L209.805 341.853L211.365 342.893C208.785 347.533 203.025 349.433 196.685 350.153C196.485 349.573 195.965 348.513 195.545 348.013C201.685 347.533 206.965 345.973 208.885 342.313V341.933ZM221.525 333.093H228.585V334.993H221.525V333.093ZM221.845 336.133H228.185V338.013H221.845V336.133ZM228.585 335.673H234.365V337.813H228.585V335.673ZM223.985 331.333H226.045V337.433H223.985V331.333ZM223.945 340.353V341.833H225.985V340.353H223.945ZM222.005 338.693H228.005V343.473H222.005V338.693ZM222.045 344.233L223.845 343.753C224.185 344.653 224.545 345.833 224.625 346.573L222.685 347.113C222.625 346.373 222.345 345.153 222.045 344.233ZM228.325 339.693L230.045 339.153C230.585 340.793 231.065 342.893 231.185 344.173L229.325 344.833C229.225 343.513 228.805 341.353 228.325 339.693ZM226.025 343.653L228.185 344.173C227.725 345.433 227.245 346.733 226.865 347.593L225.065 347.113C225.425 346.173 225.825 344.713 226.025 343.653ZM220.965 347.713C222.945 347.453 225.905 347.033 228.765 346.613L228.885 348.553C226.325 348.993 223.565 349.413 221.525 349.753L220.965 347.713ZM231.045 331.393H233.245V347.613C233.245 348.693 233.045 349.313 232.445 349.673C231.825 350.033 230.945 350.133 229.685 350.133C229.625 349.533 229.305 348.553 229.005 347.933C229.745 347.973 230.465 347.973 230.705 347.973C230.965 347.953 231.045 347.873 231.045 347.613V331.393ZM215.865 335.473H221.485V337.673H215.865V335.473ZM217.845 331.333H219.925V350.113H217.845V331.333ZM217.885 336.993L219.025 337.393C218.585 340.513 217.605 344.433 216.385 346.473C216.185 345.893 215.725 345.013 215.405 344.513C216.525 342.793 217.505 339.553 217.885 336.993ZM219.825 338.053C220.185 338.613 221.625 341.153 221.925 341.733L220.845 343.413C220.485 342.253 219.465 339.873 219.025 338.933L219.825 338.053ZM237.605 332.013H241.705V334.193H237.605V332.013ZM237.705 336.593H241.485V338.753H237.705V336.593ZM237.705 341.233H241.465V343.473H237.705V341.233ZM236.665 332.013H238.765V339.313C238.765 342.513 238.585 347.173 237.305 350.153C236.885 349.813 235.945 349.293 235.405 349.093C236.585 346.313 236.665 342.273 236.665 339.333V332.013ZM240.645 332.013H242.825V347.513C242.825 348.553 242.665 349.233 242.065 349.613C241.445 349.993 240.665 350.053 239.425 350.053C239.385 349.453 239.125 348.393 238.825 347.793C239.465 347.833 240.125 347.813 240.345 347.813C240.565 347.793 240.645 347.713 240.645 347.473V332.013ZM244.145 340.793H253.445V350.013H251.105V342.773H246.385V350.093H244.145V340.793ZM251.645 332.113L253.385 333.913C251.185 334.973 248.145 335.733 245.545 336.233C245.425 335.733 245.085 334.893 244.805 334.393C247.285 333.873 250.005 333.013 251.645 332.113ZM245.045 347.373H252.325V349.353H245.045V347.373ZM245.045 344.093H252.325V345.953H245.045V344.093ZM244.005 331.533H246.285V336.753C246.285 337.453 246.465 337.553 247.605 337.553C248.105 337.553 250.325 337.553 250.985 337.553C251.925 337.553 252.085 337.273 252.205 335.373C252.685 335.733 253.665 336.073 254.305 336.213C254.005 338.973 253.345 339.673 251.185 339.673C250.585 339.673 247.945 339.673 247.385 339.673C244.685 339.673 244.005 339.013 244.005 336.773V331.533ZM266.181 339.193C267.047 339.193 267.821 339.36 268.501 339.693C269.181 340.027 269.714 340.513 270.101 341.153C270.501 341.793 270.701 342.587 270.701 343.533C270.701 344.56 270.487 345.447 270.061 346.193C269.634 346.94 268.994 347.513 268.141 347.913C267.301 348.313 266.254 348.513 265.001 348.513C264.254 348.513 263.547 348.447 262.881 348.313C262.227 348.18 261.654 347.987 261.161 347.733V345.133C261.654 345.387 262.247 345.607 262.941 345.793C263.634 345.967 264.287 346.053 264.901 346.053C265.501 346.053 266.001 345.973 266.401 345.813C266.814 345.653 267.127 345.407 267.341 345.073C267.554 344.74 267.661 344.313 267.661 343.793C267.661 343.087 267.427 342.553 266.961 342.193C266.494 341.82 265.774 341.633 264.801 341.633C264.427 341.633 264.041 341.673 263.641 341.753C263.241 341.82 262.907 341.887 262.641 341.953L261.441 341.313L261.981 334.033H269.721V336.593H264.621L264.361 339.393C264.587 339.353 264.827 339.313 265.081 339.273C265.347 339.22 265.714 339.193 266.181 339.193ZM281.846 337.233C281.846 337.887 281.706 338.453 281.426 338.933C281.159 339.413 280.793 339.807 280.326 340.113C279.873 340.42 279.353 340.647 278.766 340.793V340.853C279.913 340.987 280.779 341.333 281.366 341.893C281.966 342.453 282.266 343.207 282.266 344.153C282.266 344.98 282.059 345.727 281.646 346.393C281.246 347.047 280.619 347.567 279.766 347.953C278.926 348.327 277.839 348.513 276.506 348.513C275.719 348.513 274.986 348.447 274.306 348.313C273.626 348.18 272.986 347.987 272.386 347.733V345.173C272.999 345.48 273.639 345.713 274.306 345.873C274.986 346.033 275.613 346.113 276.186 346.113C277.266 346.113 278.019 345.927 278.446 345.553C278.886 345.18 279.106 344.653 279.106 343.973C279.106 343.573 279.006 343.24 278.806 342.973C278.606 342.693 278.253 342.487 277.746 342.353C277.253 342.207 276.559 342.133 275.666 342.133H274.586V339.813H275.686C276.566 339.813 277.233 339.733 277.686 339.573C278.153 339.4 278.466 339.173 278.626 338.893C278.799 338.6 278.886 338.267 278.886 337.893C278.886 337.387 278.726 336.993 278.406 336.713C278.099 336.42 277.579 336.273 276.846 336.273C276.393 336.273 275.979 336.333 275.606 336.453C275.233 336.56 274.893 336.693 274.586 336.853C274.293 337.013 274.033 337.167 273.806 337.313L272.406 335.233C272.779 334.967 273.193 334.727 273.646 334.513C274.113 334.3 274.626 334.133 275.186 334.013C275.746 333.893 276.373 333.833 277.066 333.833C278.533 333.833 279.693 334.133 280.546 334.733C281.413 335.32 281.846 336.153 281.846 337.233ZM293.291 337.233C293.291 337.887 293.151 338.453 292.871 338.933C292.605 339.413 292.238 339.807 291.771 340.113C291.318 340.42 290.798 340.647 290.211 340.793V340.853C291.358 340.987 292.225 341.333 292.811 341.893C293.411 342.453 293.711 343.207 293.711 344.153C293.711 344.98 293.505 345.727 293.091 346.393C292.691 347.047 292.065 347.567 291.211 347.953C290.371 348.327 289.285 348.513 287.951 348.513C287.165 348.513 286.431 348.447 285.751 348.313C285.071 348.18 284.431 347.987 283.831 347.733V345.173C284.445 345.48 285.085 345.713 285.751 345.873C286.431 346.033 287.058 346.113 287.631 346.113C288.711 346.113 289.465 345.927 289.891 345.553C290.331 345.18 290.551 344.653 290.551 343.973C290.551 343.573 290.451 343.24 290.251 342.973C290.051 342.693 289.698 342.487 289.191 342.353C288.698 342.207 288.005 342.133 287.111 342.133H286.031V339.813H287.131C288.011 339.813 288.678 339.733 289.131 339.573C289.598 339.4 289.911 339.173 290.071 338.893C290.245 338.6 290.331 338.267 290.331 337.893C290.331 337.387 290.171 336.993 289.851 336.713C289.545 336.42 289.025 336.273 288.291 336.273C287.838 336.273 287.425 336.333 287.051 336.453C286.678 336.56 286.338 336.693 286.031 336.853C285.738 337.013 285.478 337.167 285.251 337.313L283.851 335.233C284.225 334.967 284.638 334.727 285.091 334.513C285.558 334.3 286.071 334.133 286.631 334.013C287.191 333.893 287.818 333.833 288.511 333.833C289.978 333.833 291.138 334.133 291.991 334.733C292.858 335.32 293.291 336.153 293.291 337.233ZM296.077 353.113V337.393H299.057V343.773C299.057 344.547 299.197 345.133 299.477 345.533C299.77 345.933 300.223 346.133 300.837 346.133C301.397 346.133 301.837 345.993 302.157 345.713C302.49 345.433 302.723 345.027 302.857 344.493C303.003 343.96 303.077 343.307 303.077 342.533V337.393H306.057V344.853C306.057 345.307 306.137 345.613 306.297 345.773C306.47 345.933 306.663 346.013 306.877 346.013C306.97 346.013 307.077 346 307.197 345.973C307.317 345.947 307.403 345.927 307.457 345.913V348.253C307.39 348.293 307.277 348.333 307.117 348.373C306.957 348.413 306.783 348.447 306.597 348.473C306.423 348.5 306.263 348.513 306.117 348.513C305.45 348.513 304.897 348.393 304.457 348.153C304.03 347.9 303.703 347.467 303.477 346.853H303.337C303.163 347.213 302.95 347.52 302.697 347.773C302.443 348.013 302.163 348.193 301.857 348.313C301.563 348.447 301.243 348.513 300.897 348.513C300.63 348.513 300.377 348.48 300.137 348.413C299.91 348.347 299.703 348.247 299.517 348.113C299.33 347.98 299.163 347.82 299.017 347.633H298.957C298.983 347.767 299.003 347.98 299.017 348.273C299.03 348.553 299.037 348.847 299.037 349.153C299.05 349.473 299.057 349.753 299.057 349.993V353.113H296.077ZM322.471 337.193C323.711 337.193 324.644 337.513 325.271 338.153C325.911 338.78 326.231 339.793 326.231 341.193V348.313H323.251V341.933C323.251 341.147 323.117 340.56 322.851 340.173C322.584 339.773 322.171 339.573 321.611 339.573C320.824 339.573 320.264 339.853 319.931 340.413C319.597 340.973 319.431 341.78 319.431 342.833V348.313H316.451V341.933C316.451 341.413 316.391 340.98 316.271 340.633C316.151 340.287 315.971 340.027 315.731 339.853C315.491 339.667 315.184 339.573 314.811 339.573C314.264 339.573 313.831 339.713 313.511 339.993C313.191 340.273 312.964 340.68 312.831 341.213C312.697 341.747 312.631 342.4 312.631 343.173V348.313H309.651V337.393H311.931L312.331 338.793H312.491C312.717 338.42 312.997 338.12 313.331 337.893C313.664 337.653 314.031 337.48 314.431 337.373C314.844 337.253 315.257 337.193 315.671 337.193C316.471 337.193 317.151 337.327 317.711 337.593C318.271 337.847 318.697 338.247 318.991 338.793H319.251C319.584 338.233 320.044 337.827 320.631 337.573C321.231 337.32 321.844 337.193 322.471 337.193Z" fill="#E6CD92"/>
<rect width="104.251" height="465.893" rx="52.1254" fill="#F5F5F5"/>
<ellipse cx="52.1147" cy="43.5736" rx="29.8373" ry="29.8373" fill="white"/>
<path d="M38.183 30.855H66.887V34.087H38.183V30.855ZM45.191 28.967H48.999V36.007H45.191V28.967ZM55.847 28.967H59.655V36.007H55.847V28.967ZM46.279 37.063H66.535V39.687H46.279V37.063ZM45.895 50.343H66.951V53.255H45.895V50.343ZM54.503 35.303H57.991V48.039H54.503V35.303ZM38.855 38.023L40.999 35.495C42.823 36.231 45.223 37.511 46.471 38.503L44.199 41.351C43.079 40.327 40.679 38.919 38.855 38.023ZM37.447 44.007L39.559 41.415C41.415 42.183 43.879 43.527 45.127 44.519L42.887 47.399C41.735 46.375 39.335 44.903 37.447 44.007ZM47.911 54.311L50.311 52.231C51.687 53.159 53.415 54.535 54.247 55.527L51.687 57.831C50.951 56.807 49.287 55.303 47.911 54.311ZM38.151 56.519C39.495 54.631 41.415 51.623 42.951 48.775L45.607 51.015C44.295 53.575 42.695 56.391 41.223 58.823L38.151 56.519ZM60.391 35.623L62.055 33.671C63.399 34.183 64.967 35.111 65.831 35.783L64.103 37.991C63.239 37.223 61.639 36.199 60.391 35.623ZM51.015 45.895V47.207H61.479V45.895H51.015ZM51.015 42.823V44.103H61.479V42.823H51.015ZM47.687 40.839H64.935V49.191H47.687V40.839ZM57.959 48.487H61.575V55.623C61.575 57.223 61.319 58.055 60.199 58.567C59.111 59.047 57.671 59.047 55.719 59.047C55.591 58.087 55.143 56.839 54.727 55.911C55.847 55.943 57.095 55.975 57.479 55.943C57.831 55.943 57.959 55.847 57.959 55.527V48.487Z" fill="#666666"/>
<ellipse cx="52.1147" cy="422.398" rx="29.8373" ry="29.8373" fill="white"/>
<path d="M43.591 429.452H67.175V432.396H43.591V429.452ZM45.799 424.3H61.319V426.86H45.799V424.3ZM49.671 419.5V420.812H60.391V419.5H49.671ZM49.671 416.044V417.324H60.391V416.044H49.671ZM46.055 413.708H64.167V423.148H46.055V413.708ZM53.287 427.884H57.063V434.412C57.063 436.14 56.647 436.972 55.271 437.42C53.895 437.868 52.007 437.9 49.479 437.868C49.255 436.94 48.679 435.628 48.199 434.764C49.895 434.86 52.039 434.86 52.551 434.828C53.095 434.828 53.287 434.7 53.287 434.284V427.884ZM60.743 424.3H61.671L62.471 424.108L64.679 426.124C62.343 427.692 59.303 429.292 56.455 430.38C56.071 429.772 55.207 428.844 54.759 428.364C56.903 427.532 59.495 426.028 60.743 424.94V424.3ZM42.279 409.068H66.919V412.556H42.279V409.068ZM40.039 409.068H43.847V418.924C43.847 424.428 43.399 432.62 40.487 437.868C39.751 437.26 38.087 436.332 37.127 435.98C39.847 431.116 40.039 423.98 40.039 418.924V409.068Z" fill="#666666"/>
<path d="M33.7468 382.902H30.7268V374.642C30.7268 374.416 30.7268 374.136 30.7268 373.802C30.7402 373.469 30.7535 373.122 30.7668 372.762C30.7801 372.402 30.7935 372.082 30.8068 371.802C30.7401 371.882 30.5935 372.029 30.3668 372.242C30.1535 372.442 29.9535 372.622 29.7668 372.782L28.1268 374.102L26.6668 372.282L31.2668 368.622H33.7468V382.902ZM51.3121 371.782C52.5521 371.782 53.4855 372.102 54.1121 372.742C54.7521 373.369 55.0721 374.382 55.0721 375.782V382.902H52.0921V376.522C52.0921 375.736 51.9588 375.149 51.6921 374.762C51.4255 374.362 51.0121 374.162 50.4521 374.162C49.6655 374.162 49.1055 374.442 48.7721 375.002C48.4388 375.562 48.2721 376.369 48.2721 377.422V382.902H45.2921V376.522C45.2921 376.002 45.2321 375.569 45.1121 375.222C44.9921 374.876 44.8121 374.616 44.5721 374.442C44.3321 374.256 44.0255 374.162 43.6521 374.162C43.1055 374.162 42.6721 374.302 42.3521 374.582C42.0321 374.862 41.8055 375.269 41.6721 375.802C41.5388 376.336 41.4721 376.989 41.4721 377.762V382.902H38.4921V371.982H40.7721L41.1721 373.382H41.3321C41.5588 373.009 41.8388 372.709 42.1721 372.482C42.5055 372.242 42.8721 372.069 43.2721 371.962C43.6855 371.842 44.0988 371.782 44.5121 371.782C45.3121 371.782 45.9921 371.916 46.5521 372.182C47.1121 372.436 47.5388 372.836 47.8321 373.382H48.0921C48.4255 372.822 48.8855 372.416 49.4721 372.162C50.0721 371.909 50.6855 371.782 51.3121 371.782ZM70.9606 371.782C72.2006 371.782 73.1339 372.102 73.7606 372.742C74.4006 373.369 74.7206 374.382 74.7206 375.782V382.902H71.7406V376.522C71.7406 375.736 71.6072 375.149 71.3406 374.762C71.0739 374.362 70.6606 374.162 70.1006 374.162C69.3139 374.162 68.7539 374.442 68.4206 375.002C68.0872 375.562 67.9206 376.369 67.9206 377.422V382.902H64.9406V376.522C64.9406 376.002 64.8806 375.569 64.7606 375.222C64.6406 374.876 64.4606 374.616 64.2206 374.442C63.9806 374.256 63.6739 374.162 63.3006 374.162C62.7539 374.162 62.3206 374.302 62.0006 374.582C61.6806 374.862 61.4539 375.269 61.3206 375.802C61.1872 376.336 61.1206 376.989 61.1206 377.762V382.902H58.1406V371.982H60.4206L60.8206 373.382H60.9806C61.2072 373.009 61.4872 372.709 61.8206 372.482C62.1539 372.242 62.5206 372.069 62.9206 371.962C63.3339 371.842 63.7472 371.782 64.1606 371.782C64.9606 371.782 65.6406 371.916 66.2006 372.182C66.7606 372.436 67.1872 372.836 67.4806 373.382H67.7406C68.0739 372.822 68.5339 372.416 69.1206 372.162C69.7206 371.909 70.3339 371.782 70.9606 371.782Z" fill="#666666"/>
<path d="M30.0215 316.978C30.8882 316.978 31.6615 317.144 32.3415 317.478C33.0215 317.811 33.5548 318.298 33.9415 318.938C34.3415 319.578 34.5415 320.371 34.5415 321.318C34.5415 322.344 34.3282 323.231 33.9015 323.978C33.4748 324.724 32.8348 325.298 31.9815 325.698C31.1415 326.098 30.0948 326.298 28.8415 326.298C28.0948 326.298 27.3882 326.231 26.7215 326.098C26.0682 325.964 25.4948 325.771 25.0015 325.518V322.918C25.4948 323.171 26.0882 323.391 26.7815 323.578C27.4748 323.751 28.1282 323.838 28.7415 323.838C29.3415 323.838 29.8415 323.758 30.2415 323.598C30.6548 323.438 30.9682 323.191 31.1815 322.858C31.3948 322.524 31.5015 322.098 31.5015 321.578C31.5015 320.871 31.2682 320.338 30.8015 319.978C30.3348 319.604 29.6148 319.418 28.6415 319.418C28.2682 319.418 27.8815 319.458 27.4815 319.538C27.0815 319.604 26.7482 319.671 26.4815 319.738L25.2815 319.098L25.8215 311.818H33.5615V314.378H28.4615L28.2015 317.178C28.4282 317.138 28.6682 317.098 28.9215 317.058C29.1882 317.004 29.5548 316.978 30.0215 316.978ZM46.1668 318.958C46.1668 320.104 46.0735 321.131 45.8868 322.038C45.7135 322.944 45.4268 323.718 45.0268 324.358C44.6401 324.984 44.1268 325.464 43.4868 325.798C42.8601 326.131 42.0868 326.298 41.1668 326.298C40.0201 326.298 39.0801 326.004 38.3468 325.418C37.6135 324.831 37.0668 323.991 36.7068 322.898C36.3601 321.804 36.1868 320.491 36.1868 318.958C36.1868 317.411 36.3468 316.091 36.6668 314.998C36.9868 313.904 37.5135 313.064 38.2468 312.478C38.9801 311.891 39.9535 311.598 41.1668 311.598C42.3135 311.598 43.2535 311.891 43.9868 312.478C44.7201 313.051 45.2668 313.891 45.6268 314.998C45.9868 316.091 46.1668 317.411 46.1668 318.958ZM39.1868 318.958C39.1868 320.038 39.2468 320.944 39.3668 321.678C39.4868 322.398 39.6868 322.944 39.9668 323.318C40.2601 323.678 40.6601 323.858 41.1668 323.858C41.6735 323.858 42.0668 323.678 42.3468 323.318C42.6401 322.958 42.8468 322.418 42.9668 321.698C43.1001 320.964 43.1668 320.051 43.1668 318.958C43.1668 317.864 43.1001 316.958 42.9668 316.238C42.8468 315.504 42.6401 314.958 42.3468 314.598C42.0668 314.224 41.6735 314.038 41.1668 314.038C40.6601 314.038 40.2601 314.224 39.9668 314.598C39.6868 314.958 39.4868 315.504 39.3668 316.238C39.2468 316.958 39.1868 317.864 39.1868 318.958ZM57.6121 318.958C57.6121 320.104 57.5188 321.131 57.3321 322.038C57.1588 322.944 56.8721 323.718 56.4721 324.358C56.0854 324.984 55.5721 325.464 54.9321 325.798C54.3054 326.131 53.5321 326.298 52.6121 326.298C51.4654 326.298 50.5254 326.004 49.7921 325.418C49.0588 324.831 48.5121 323.991 48.1521 322.898C47.8054 321.804 47.6321 320.491 47.6321 318.958C47.6321 317.411 47.7921 316.091 48.1121 314.998C48.4321 313.904 48.9588 313.064 49.6921 312.478C50.4254 311.891 51.3988 311.598 52.6121 311.598C53.7588 311.598 54.6988 311.891 55.4321 312.478C56.1654 313.051 56.7121 313.891 57.0721 314.998C57.4321 316.091 57.6121 317.411 57.6121 318.958ZM50.6321 318.958C50.6321 320.038 50.6921 320.944 50.8121 321.678C50.9321 322.398 51.1321 322.944 51.4121 323.318C51.7054 323.678 52.1054 323.858 52.6121 323.858C53.1188 323.858 53.5121 323.678 53.7921 323.318C54.0854 322.958 54.2921 322.418 54.4121 321.698C54.5454 320.964 54.6121 320.051 54.6121 318.958C54.6121 317.864 54.5454 316.958 54.4121 316.238C54.2921 315.504 54.0854 314.958 53.7921 314.598C53.5121 314.224 53.1188 314.038 52.6121 314.038C52.1054 314.038 51.7054 314.224 51.4121 314.598C51.1321 314.958 50.9321 315.504 50.8121 316.238C50.6921 316.958 50.6321 317.864 50.6321 318.958ZM59.9174 330.898V315.178H62.8974V321.558C62.8974 322.331 63.0374 322.918 63.3174 323.318C63.6108 323.718 64.0641 323.918 64.6774 323.918C65.2374 323.918 65.6774 323.778 65.9974 323.498C66.3308 323.218 66.5641 322.811 66.6974 322.278C66.8441 321.744 66.9174 321.091 66.9174 320.318V315.178H69.8974V322.638C69.8974 323.091 69.9774 323.398 70.1374 323.558C70.3108 323.718 70.5041 323.798 70.7174 323.798C70.8108 323.798 70.9174 323.784 71.0374 323.758C71.1574 323.731 71.2441 323.711 71.2974 323.698V326.038C71.2308 326.078 71.1174 326.118 70.9574 326.158C70.7974 326.198 70.6241 326.231 70.4374 326.258C70.2641 326.284 70.1041 326.298 69.9574 326.298C69.2908 326.298 68.7374 326.178 68.2974 325.938C67.8708 325.684 67.5441 325.251 67.3174 324.638H67.1774C67.0041 324.998 66.7908 325.304 66.5374 325.558C66.2841 325.798 66.0041 325.978 65.6974 326.098C65.4041 326.231 65.0841 326.298 64.7374 326.298C64.4708 326.298 64.2174 326.264 63.9774 326.198C63.7508 326.131 63.5441 326.031 63.3574 325.898C63.1708 325.764 63.0041 325.604 62.8574 325.418H62.7974C62.8241 325.551 62.8441 325.764 62.8574 326.058C62.8708 326.338 62.8774 326.631 62.8774 326.938C62.8908 327.258 62.8974 327.538 62.8974 327.778V330.898H59.9174ZM86.3116 314.978C87.5516 314.978 88.485 315.298 89.1116 315.938C89.7516 316.564 90.0716 317.578 90.0716 318.978V326.098H87.0916V319.718C87.0916 318.931 86.9583 318.344 86.6916 317.958C86.425 317.558 86.0116 317.358 85.4516 317.358C84.665 317.358 84.105 317.638 83.7716 318.198C83.4383 318.758 83.2716 319.564 83.2716 320.618V326.098H80.2916V319.718C80.2916 319.198 80.2316 318.764 80.1116 318.418C79.9916 318.071 79.8116 317.811 79.5716 317.638C79.3316 317.451 79.025 317.358 78.6516 317.358C78.105 317.358 77.6716 317.498 77.3516 317.778C77.0316 318.058 76.805 318.464 76.6716 318.998C76.5383 319.531 76.4716 320.184 76.4716 320.958V326.098H73.4916V315.178H75.7716L76.1716 316.578H76.3316C76.5583 316.204 76.8383 315.904 77.1716 315.678C77.505 315.438 77.8716 315.264 78.2716 315.158C78.685 315.038 79.0983 314.978 79.5116 314.978C80.3116 314.978 80.9916 315.111 81.5516 315.378C82.1116 315.631 82.5383 316.031 82.8316 316.578H83.0916C83.425 316.018 83.885 315.611 84.4716 315.358C85.0716 315.104 85.685 314.978 86.3116 314.978Z" fill="#666666"/>
<path d="M32.2815 269.271H29.2615V261.011C29.2615 260.784 29.2615 260.504 29.2615 260.171C29.2748 259.837 29.2882 259.491 29.3015 259.131C29.3148 258.771 29.3282 258.451 29.3415 258.171C29.2748 258.251 29.1282 258.397 28.9015 258.611C28.6882 258.811 28.4882 258.991 28.3015 259.151L26.6615 260.471L25.2015 258.651L29.8015 254.991H32.2815V269.271ZM46.1668 262.131C46.1668 263.277 46.0735 264.304 45.8868 265.211C45.7135 266.117 45.4268 266.891 45.0268 267.531C44.6401 268.157 44.1268 268.637 43.4868 268.971C42.8601 269.304 42.0868 269.471 41.1668 269.471C40.0201 269.471 39.0801 269.177 38.3468 268.591C37.6135 268.004 37.0668 267.164 36.7068 266.071C36.3601 264.977 36.1868 263.664 36.1868 262.131C36.1868 260.584 36.3468 259.264 36.6668 258.171C36.9868 257.077 37.5135 256.237 38.2468 255.651C38.9801 255.064 39.9535 254.771 41.1668 254.771C42.3135 254.771 43.2535 255.064 43.9868 255.651C44.7201 256.224 45.2668 257.064 45.6268 258.171C45.9868 259.264 46.1668 260.584 46.1668 262.131ZM39.1868 262.131C39.1868 263.211 39.2468 264.117 39.3668 264.851C39.4868 265.571 39.6868 266.117 39.9668 266.491C40.2601 266.851 40.6601 267.031 41.1668 267.031C41.6735 267.031 42.0668 266.851 42.3468 266.491C42.6401 266.131 42.8468 265.591 42.9668 264.871C43.1001 264.137 43.1668 263.224 43.1668 262.131C43.1668 261.037 43.1001 260.131 42.9668 259.411C42.8468 258.677 42.6401 258.131 42.3468 257.771C42.0668 257.397 41.6735 257.211 41.1668 257.211C40.6601 257.211 40.2601 257.397 39.9668 257.771C39.6868 258.131 39.4868 258.677 39.3668 259.411C39.2468 260.131 39.1868 261.037 39.1868 262.131ZM57.6121 262.131C57.6121 263.277 57.5188 264.304 57.3321 265.211C57.1588 266.117 56.8721 266.891 56.4721 267.531C56.0854 268.157 55.5721 268.637 54.9321 268.971C54.3054 269.304 53.5321 269.471 52.6121 269.471C51.4654 269.471 50.5254 269.177 49.7921 268.591C49.0588 268.004 48.5121 267.164 48.1521 266.071C47.8054 264.977 47.6321 263.664 47.6321 262.131C47.6321 260.584 47.7921 259.264 48.1121 258.171C48.4321 257.077 48.9588 256.237 49.6921 255.651C50.4254 255.064 51.3988 254.771 52.6121 254.771C53.7588 254.771 54.6988 255.064 55.4321 255.651C56.1654 256.224 56.7121 257.064 57.0721 258.171C57.4321 259.264 57.6121 260.584 57.6121 262.131ZM50.6321 262.131C50.6321 263.211 50.6921 264.117 50.8121 264.851C50.9321 265.571 51.1321 266.117 51.4121 266.491C51.7054 266.851 52.1054 267.031 52.6121 267.031C53.1188 267.031 53.5121 266.851 53.7921 266.491C54.0854 266.131 54.2921 265.591 54.4121 264.871C54.5454 264.137 54.6121 263.224 54.6121 262.131C54.6121 261.037 54.5454 260.131 54.4121 259.411C54.2921 258.677 54.0854 258.131 53.7921 257.771C53.5121 257.397 53.1188 257.211 52.6121 257.211C52.1054 257.211 51.7054 257.397 51.4121 257.771C51.1321 258.131 50.9321 258.677 50.8121 259.411C50.6921 260.131 50.6321 261.037 50.6321 262.131ZM59.9174 274.071V258.351H62.8974V264.731C62.8974 265.504 63.0374 266.091 63.3174 266.491C63.6108 266.891 64.0641 267.091 64.6774 267.091C65.2374 267.091 65.6774 266.951 65.9974 266.671C66.3308 266.391 66.5641 265.984 66.6974 265.451C66.8441 264.917 66.9174 264.264 66.9174 263.491V258.351H69.8974V265.811C69.8974 266.264 69.9774 266.571 70.1374 266.731C70.3108 266.891 70.5041 266.971 70.7174 266.971C70.8108 266.971 70.9174 266.957 71.0374 266.931C71.1574 266.904 71.2441 266.884 71.2974 266.871V269.211C71.2308 269.251 71.1174 269.291 70.9574 269.331C70.7974 269.371 70.6241 269.404 70.4374 269.431C70.2641 269.457 70.1041 269.471 69.9574 269.471C69.2908 269.471 68.7374 269.351 68.2974 269.111C67.8708 268.857 67.5441 268.424 67.3174 267.811H67.1774C67.0041 268.171 66.7908 268.477 66.5374 268.731C66.2841 268.971 66.0041 269.151 65.6974 269.271C65.4041 269.404 65.0841 269.471 64.7374 269.471C64.4708 269.471 64.2174 269.437 63.9774 269.371C63.7508 269.304 63.5441 269.204 63.3574 269.071C63.1708 268.937 63.0041 268.777 62.8574 268.591H62.7974C62.8241 268.724 62.8441 268.937 62.8574 269.231C62.8708 269.511 62.8774 269.804 62.8774 270.111C62.8908 270.431 62.8974 270.711 62.8974 270.951V274.071H59.9174ZM86.3116 258.151C87.5516 258.151 88.485 258.471 89.1116 259.111C89.7516 259.737 90.0716 260.751 90.0716 262.151V269.271H87.0916V262.891C87.0916 262.104 86.9583 261.517 86.6916 261.131C86.425 260.731 86.0116 260.531 85.4516 260.531C84.665 260.531 84.105 260.811 83.7716 261.371C83.4383 261.931 83.2716 262.737 83.2716 263.791V269.271H80.2916V262.891C80.2916 262.371 80.2316 261.937 80.1116 261.591C79.9916 261.244 79.8116 260.984 79.5716 260.811C79.3316 260.624 79.025 260.531 78.6516 260.531C78.105 260.531 77.6716 260.671 77.3516 260.951C77.0316 261.231 76.805 261.637 76.6716 262.171C76.5383 262.704 76.4716 263.357 76.4716 264.131V269.271H73.4916V258.351H75.7716L76.1716 259.751H76.3316C76.5583 259.377 76.8383 259.077 77.1716 258.851C77.505 258.611 77.8716 258.437 78.2716 258.331C78.685 258.211 79.0983 258.151 79.5116 258.151C80.3116 258.151 80.9916 258.284 81.5516 258.551C82.1116 258.804 82.5383 259.204 82.8316 259.751H83.0916C83.425 259.191 83.885 258.784 84.4716 258.531C85.0716 258.277 85.685 258.151 86.3116 258.151Z" fill="#666666"/>
<path d="M31.501 203.408C32.3676 203.408 33.141 203.575 33.821 203.908C34.501 204.242 35.0343 204.728 35.421 205.368C35.821 206.008 36.021 206.802 36.021 207.748C36.021 208.775 35.8076 209.662 35.381 210.408C34.9543 211.155 34.3143 211.728 33.461 212.128C32.621 212.528 31.5743 212.728 30.321 212.728C29.5743 212.728 28.8676 212.662 28.201 212.528C27.5476 212.395 26.9743 212.202 26.481 211.948V209.348C26.9743 209.602 27.5676 209.822 28.261 210.008C28.9543 210.182 29.6076 210.268 30.221 210.268C30.821 210.268 31.321 210.188 31.721 210.028C32.1343 209.868 32.4476 209.622 32.661 209.288C32.8743 208.955 32.981 208.528 32.981 208.008C32.981 207.302 32.7476 206.768 32.281 206.408C31.8143 206.035 31.0943 205.848 30.121 205.848C29.7476 205.848 29.361 205.888 28.961 205.968C28.561 206.035 28.2276 206.102 27.961 206.168L26.761 205.528L27.301 198.248H35.041V200.808H29.941L29.681 203.608C29.9076 203.568 30.1476 203.528 30.401 203.488C30.6676 203.435 31.0343 203.408 31.501 203.408ZM47.6463 205.388C47.6463 206.535 47.553 207.562 47.3663 208.468C47.193 209.375 46.9063 210.148 46.5063 210.788C46.1196 211.415 45.6063 211.895 44.9663 212.228C44.3396 212.562 43.5663 212.728 42.6463 212.728C41.4996 212.728 40.5596 212.435 39.8263 211.848C39.093 211.262 38.5463 210.422 38.1863 209.328C37.8396 208.235 37.6663 206.922 37.6663 205.388C37.6663 203.842 37.8263 202.522 38.1463 201.428C38.4663 200.335 38.993 199.495 39.7263 198.908C40.4596 198.322 41.433 198.028 42.6463 198.028C43.793 198.028 44.733 198.322 45.4663 198.908C46.1996 199.482 46.7463 200.322 47.1063 201.428C47.4663 202.522 47.6463 203.842 47.6463 205.388ZM40.6663 205.388C40.6663 206.468 40.7263 207.375 40.8463 208.108C40.9663 208.828 41.1663 209.375 41.4463 209.748C41.7396 210.108 42.1396 210.288 42.6463 210.288C43.153 210.288 43.5463 210.108 43.8263 209.748C44.1196 209.388 44.3263 208.848 44.4463 208.128C44.5796 207.395 44.6463 206.482 44.6463 205.388C44.6463 204.295 44.5796 203.388 44.4463 202.668C44.3263 201.935 44.1196 201.388 43.8263 201.028C43.5463 200.655 43.153 200.468 42.6463 200.468C42.1396 200.468 41.7396 200.655 41.4463 201.028C41.1663 201.388 40.9663 201.935 40.8463 202.668C40.7263 203.388 40.6663 204.295 40.6663 205.388ZM49.9516 217.328V201.608H52.9316V207.988C52.9316 208.762 53.0716 209.348 53.3516 209.748C53.6449 210.148 54.0983 210.348 54.7116 210.348C55.2716 210.348 55.7116 210.208 56.0316 209.928C56.3649 209.648 56.5983 209.242 56.7316 208.708C56.8783 208.175 56.9516 207.522 56.9516 206.748V201.608H59.9316V209.068C59.9316 209.522 60.0116 209.828 60.1716 209.988C60.3449 210.148 60.5383 210.228 60.7516 210.228C60.8449 210.228 60.9516 210.215 61.0716 210.188C61.1916 210.162 61.2783 210.142 61.3316 210.128V212.468C61.2649 212.508 61.1516 212.548 60.9916 212.588C60.8316 212.628 60.6583 212.662 60.4716 212.688C60.2983 212.715 60.1383 212.728 59.9916 212.728C59.3249 212.728 58.7716 212.608 58.3316 212.368C57.9049 212.115 57.5783 211.682 57.3516 211.068H57.2116C57.0383 211.428 56.8249 211.735 56.5716 211.988C56.3183 212.228 56.0383 212.408 55.7316 212.528C55.4383 212.662 55.1183 212.728 54.7716 212.728C54.5049 212.728 54.2516 212.695 54.0116 212.628C53.7849 212.562 53.5783 212.462 53.3916 212.328C53.2049 212.195 53.0383 212.035 52.8916 211.848H52.8316C52.8583 211.982 52.8783 212.195 52.8916 212.488C52.9049 212.768 52.9116 213.062 52.9116 213.368C52.9249 213.688 52.9316 213.968 52.9316 214.208V217.328H49.9516ZM76.3458 201.408C77.5858 201.408 78.5192 201.728 79.1458 202.368C79.7858 202.995 80.1058 204.008 80.1058 205.408V212.528H77.1258V206.148C77.1258 205.362 76.9925 204.775 76.7258 204.388C76.4592 203.988 76.0458 203.788 75.4858 203.788C74.6992 203.788 74.1392 204.068 73.8058 204.628C73.4725 205.188 73.3058 205.995 73.3058 207.048V212.528H70.3258V206.148C70.3258 205.628 70.2658 205.195 70.1458 204.848C70.0258 204.502 69.8458 204.242 69.6058 204.068C69.3658 203.882 69.0592 203.788 68.6858 203.788C68.1392 203.788 67.7058 203.928 67.3858 204.208C67.0658 204.488 66.8392 204.895 66.7058 205.428C66.5725 205.962 66.5058 206.615 66.5058 207.388V212.528H63.5258V201.608H65.8058L66.2058 203.008H66.3658C66.5925 202.635 66.8725 202.335 67.2058 202.108C67.5392 201.868 67.9058 201.695 68.3058 201.588C68.7192 201.468 69.1325 201.408 69.5458 201.408C70.3458 201.408 71.0258 201.542 71.5858 201.808C72.1458 202.062 72.5725 202.462 72.8658 203.008H73.1258C73.4592 202.448 73.9192 202.042 74.5058 201.788C75.1058 201.535 75.7192 201.408 76.3458 201.408Z" fill="#666666"/>
<path d="M33.761 155.648H30.741V147.388C30.741 147.162 30.741 146.882 30.741 146.548C30.7543 146.215 30.7676 145.868 30.781 145.508C30.7943 145.148 30.8076 144.828 30.821 144.548C30.7543 144.628 30.6076 144.775 30.381 144.988C30.1676 145.188 29.9676 145.368 29.781 145.528L28.141 146.848L26.681 145.028L31.281 141.368H33.761V155.648ZM47.6463 148.508C47.6463 149.655 47.553 150.682 47.3663 151.588C47.193 152.495 46.9063 153.268 46.5063 153.908C46.1196 154.535 45.6063 155.015 44.9663 155.348C44.3396 155.682 43.5663 155.848 42.6463 155.848C41.4996 155.848 40.5596 155.555 39.8263 154.968C39.093 154.382 38.5463 153.542 38.1863 152.448C37.8396 151.355 37.6663 150.042 37.6663 148.508C37.6663 146.962 37.8263 145.642 38.1463 144.548C38.4663 143.455 38.993 142.615 39.7263 142.028C40.4596 141.442 41.433 141.148 42.6463 141.148C43.793 141.148 44.733 141.442 45.4663 142.028C46.1996 142.602 46.7463 143.442 47.1063 144.548C47.4663 145.642 47.6463 146.962 47.6463 148.508ZM40.6663 148.508C40.6663 149.588 40.7263 150.495 40.8463 151.228C40.9663 151.948 41.1663 152.495 41.4463 152.868C41.7396 153.228 42.1396 153.408 42.6463 153.408C43.153 153.408 43.5463 153.228 43.8263 152.868C44.1196 152.508 44.3263 151.968 44.4463 151.248C44.5796 150.515 44.6463 149.602 44.6463 148.508C44.6463 147.415 44.5796 146.508 44.4463 145.788C44.3263 145.055 44.1196 144.508 43.8263 144.148C43.5463 143.775 43.153 143.588 42.6463 143.588C42.1396 143.588 41.7396 143.775 41.4463 144.148C41.1663 144.508 40.9663 145.055 40.8463 145.788C40.7263 146.508 40.6663 147.415 40.6663 148.508ZM49.9516 160.448V144.728H52.9316V151.108C52.9316 151.882 53.0716 152.468 53.3516 152.868C53.6449 153.268 54.0983 153.468 54.7116 153.468C55.2716 153.468 55.7116 153.328 56.0316 153.048C56.3649 152.768 56.5983 152.362 56.7316 151.828C56.8783 151.295 56.9516 150.642 56.9516 149.868V144.728H59.9316V152.188C59.9316 152.642 60.0116 152.948 60.1716 153.108C60.3449 153.268 60.5383 153.348 60.7516 153.348C60.8449 153.348 60.9516 153.335 61.0716 153.308C61.1916 153.282 61.2783 153.262 61.3316 153.248V155.588C61.2649 155.628 61.1516 155.668 60.9916 155.708C60.8316 155.748 60.6583 155.782 60.4716 155.808C60.2983 155.835 60.1383 155.848 59.9916 155.848C59.3249 155.848 58.7716 155.728 58.3316 155.488C57.9049 155.235 57.5783 154.802 57.3516 154.188H57.2116C57.0383 154.548 56.8249 154.855 56.5716 155.108C56.3183 155.348 56.0383 155.528 55.7316 155.648C55.4383 155.782 55.1183 155.848 54.7716 155.848C54.5049 155.848 54.2516 155.815 54.0116 155.748C53.7849 155.682 53.5783 155.582 53.3916 155.448C53.2049 155.315 53.0383 155.155 52.8916 154.968H52.8316C52.8583 155.102 52.8783 155.315 52.8916 155.608C52.9049 155.888 52.9116 156.182 52.9116 156.488C52.9249 156.808 52.9316 157.088 52.9316 157.328V160.448H49.9516ZM76.3458 144.528C77.5858 144.528 78.5192 144.848 79.1458 145.488C79.7858 146.115 80.1058 147.128 80.1058 148.528V155.648H77.1258V149.268C77.1258 148.482 76.9925 147.895 76.7258 147.508C76.4592 147.108 76.0458 146.908 75.4858 146.908C74.6992 146.908 74.1392 147.188 73.8058 147.748C73.4725 148.308 73.3058 149.115 73.3058 150.168V155.648H70.3258V149.268C70.3258 148.748 70.2658 148.315 70.1458 147.968C70.0258 147.622 69.8458 147.362 69.6058 147.188C69.3658 147.002 69.0592 146.908 68.6858 146.908C68.1392 146.908 67.7058 147.048 67.3858 147.328C67.0658 147.608 66.8392 148.015 66.7058 148.548C66.5725 149.082 66.5058 149.735 66.5058 150.508V155.648H63.5258V144.728H65.8058L66.2058 146.128H66.3658C66.5925 145.755 66.8725 145.455 67.2058 145.228C67.5392 144.988 67.9058 144.815 68.3058 144.708C68.7192 144.588 69.1325 144.528 69.5458 144.528C70.3458 144.528 71.0258 144.662 71.5858 144.928C72.1458 145.182 72.5725 145.582 72.8658 146.128H73.1258C73.4592 145.568 73.9192 145.162 74.5058 144.908C75.1058 144.655 75.7192 144.528 76.3458 144.528Z" fill="#666666"/>
<path d="M32.5239 89.7736C33.3906 89.7736 34.1639 89.9402 34.8439 90.2736C35.5239 90.6069 36.0573 91.0936 36.4439 91.7336C36.8439 92.3736 37.0439 93.1669 37.0439 94.1136C37.0439 95.1402 36.8306 96.0269 36.4039 96.7736C35.9773 97.5202 35.3373 98.0936 34.4839 98.4936C33.6439 98.8936 32.5973 99.0936 31.3439 99.0936C30.5973 99.0936 29.8906 99.0269 29.2239 98.8936C28.5706 98.7602 27.9973 98.5669 27.5039 98.3136V95.7136C27.9973 95.9669 28.5906 96.1869 29.2839 96.3736C29.9773 96.5469 30.6306 96.6336 31.2439 96.6336C31.8439 96.6336 32.3439 96.5536 32.7439 96.3936C33.1573 96.2336 33.4706 95.9869 33.6839 95.6536C33.8973 95.3202 34.0039 94.8936 34.0039 94.3736C34.0039 93.6669 33.7706 93.1336 33.3039 92.7736C32.8373 92.4002 32.1173 92.2136 31.1439 92.2136C30.7706 92.2136 30.3839 92.2536 29.9839 92.3336C29.5839 92.4002 29.2506 92.4669 28.9839 92.5336L27.7839 91.8936L28.3239 84.6136H36.0639V87.1736H30.9639L30.7039 89.9736C30.9306 89.9336 31.1706 89.8936 31.4239 89.8536C31.6906 89.8002 32.0573 89.7736 32.5239 89.7736ZM39.5292 103.694V87.9736H42.5092V94.3536C42.5092 95.1269 42.6492 95.7136 42.9292 96.1136C43.2226 96.5136 43.6759 96.7136 44.2892 96.7136C44.8492 96.7136 45.2892 96.5736 45.6092 96.2936C45.9426 96.0136 46.1759 95.6069 46.3092 95.0736C46.4559 94.5402 46.5292 93.8869 46.5292 93.1136V87.9736H49.5092V95.4336C49.5092 95.8869 49.5892 96.1936 49.7492 96.3536C49.9226 96.5136 50.1159 96.5936 50.3292 96.5936C50.4226 96.5936 50.5292 96.5802 50.6492 96.5536C50.7692 96.5269 50.8559 96.5069 50.9092 96.4936V98.8336C50.8426 98.8736 50.7292 98.9136 50.5692 98.9536C50.4092 98.9936 50.2359 99.0269 50.0492 99.0536C49.8759 99.0802 49.7159 99.0936 49.5692 99.0936C48.9026 99.0936 48.3492 98.9736 47.9092 98.7336C47.4826 98.4802 47.1559 98.0469 46.9292 97.4336H46.7892C46.6159 97.7936 46.4026 98.1002 46.1492 98.3536C45.8959 98.5936 45.6159 98.7736 45.3092 98.8936C45.0159 99.0269 44.6959 99.0936 44.3492 99.0936C44.0826 99.0936 43.8292 99.0602 43.5892 98.9936C43.3626 98.9269 43.1559 98.8269 42.9692 98.6936C42.7826 98.5602 42.6159 98.4002 42.4692 98.2136H42.4092C42.4359 98.3469 42.4559 98.5602 42.4692 98.8536C42.4826 99.1336 42.4892 99.4269 42.4892 99.7336C42.5026 100.054 42.5092 100.334 42.5092 100.574V103.694H39.5292ZM65.9235 87.7736C67.1635 87.7736 68.0968 88.0936 68.7235 88.7336C69.3635 89.3602 69.6835 90.3736 69.6835 91.7736V98.8936H66.7035V92.5136C66.7035 91.7269 66.5701 91.1402 66.3035 90.7536C66.0368 90.3536 65.6235 90.1536 65.0635 90.1536C64.2768 90.1536 63.7168 90.4336 63.3835 90.9936C63.0501 91.5536 62.8835 92.3602 62.8835 93.4136V98.8936H59.9035V92.5136C59.9035 91.9936 59.8435 91.5602 59.7235 91.2136C59.6035 90.8669 59.4235 90.6069 59.1835 90.4336C58.9435 90.2469 58.6368 90.1536 58.2635 90.1536C57.7168 90.1536 57.2835 90.2936 56.9635 90.5736C56.6435 90.8536 56.4168 91.2602 56.2835 91.7936C56.1501 92.3269 56.0835 92.9802 56.0835 93.7536V98.8936H53.1035V87.9736H55.3835L55.7835 89.3736H55.9435C56.1701 89.0002 56.4501 88.7002 56.7835 88.4736C57.1168 88.2336 57.4835 88.0602 57.8835 87.9536C58.2968 87.8336 58.7101 87.7736 59.1235 87.7736C59.9235 87.7736 60.6035 87.9069 61.1635 88.1736C61.7235 88.4269 62.1501 88.8269 62.4435 89.3736H62.7035C63.0368 88.8136 63.4968 88.4069 64.0835 88.1536C64.6835 87.9002 65.2968 87.7736 65.9235 87.7736Z" fill="#666666"/>
</svg>
