<svg width="548" height="648" viewBox="0 0 548 648" fill="none" xmlns="http://www.w3.org/2000/svg">
<mask id="mask0_52_7212" style="mask-type:alpha" maskUnits="userSpaceOnUse" x="177" y="97" width="371" height="60">
<rect x="177" y="97" width="371" height="60" fill="#D9D9D9"/>
</mask>
<g mask="url(#mask0_52_7212)">
<rect width="318.894" height="318.894" transform="matrix(0.987174 -0.159651 0.987174 0.159651 47.1499 126.911)" fill="black"/>
</g>
<path d="M224.248 126.376H231.04V135.256C230.144 135.56 229.208 135.8 228.232 135.976C227.272 136.152 226.176 136.24 224.944 136.24C223.248 136.24 221.8 135.904 220.6 135.232C219.416 134.56 218.512 133.568 217.888 132.256C217.28 130.944 216.976 129.328 216.976 127.408C216.976 125.616 217.32 124.064 218.008 122.752C218.712 121.44 219.728 120.424 221.056 119.704C222.384 118.984 224.008 118.624 225.928 118.624C226.84 118.624 227.736 118.72 228.616 118.912C229.496 119.104 230.296 119.36 231.016 119.68L229.816 122.584C229.288 122.312 228.688 122.088 228.016 121.912C227.344 121.736 226.64 121.648 225.904 121.648C224.848 121.648 223.928 121.888 223.144 122.368C222.376 122.848 221.776 123.528 221.344 124.408C220.928 125.272 220.72 126.296 220.72 127.48C220.72 128.6 220.872 129.592 221.176 130.456C221.48 131.32 221.96 132 222.616 132.496C223.272 132.976 224.128 133.216 225.184 133.216C225.536 133.216 225.84 133.208 226.096 133.192C226.368 133.16 226.616 133.128 226.84 133.096C227.064 133.048 227.28 133.008 227.488 132.976V129.4H224.248V126.376ZM235.111 136V118.864H238.735V133H245.695V136H235.111ZM259.385 126.184C259.385 127.16 259.313 128.136 259.169 129.112C259.025 130.072 258.769 130.984 258.401 131.848C258.049 132.696 257.545 133.456 256.889 134.128C256.249 134.784 255.425 135.304 254.417 135.688C253.425 136.056 252.217 136.24 250.793 136.24C250.457 136.24 250.065 136.224 249.617 136.192C249.169 136.176 248.793 136.136 248.489 136.072V133.168C248.809 133.232 249.145 133.288 249.497 133.336C249.849 133.384 250.201 133.408 250.553 133.408C251.625 133.408 252.505 133.28 253.193 133.024C253.897 132.768 254.449 132.4 254.849 131.92C255.249 131.44 255.537 130.872 255.713 130.216C255.905 129.56 256.017 128.84 256.049 128.056H255.905C255.681 128.424 255.409 128.76 255.089 129.064C254.785 129.368 254.393 129.608 253.913 129.784C253.449 129.96 252.849 130.048 252.113 130.048C251.137 130.048 250.289 129.84 249.569 129.424C248.849 128.992 248.289 128.376 247.889 127.576C247.489 126.76 247.289 125.776 247.289 124.624C247.289 123.376 247.521 122.312 247.985 121.432C248.465 120.536 249.145 119.856 250.025 119.392C250.905 118.912 251.937 118.672 253.121 118.672C254.001 118.672 254.817 118.824 255.569 119.128C256.337 119.432 257.001 119.896 257.561 120.52C258.137 121.128 258.585 121.904 258.905 122.848C259.225 123.792 259.385 124.904 259.385 126.184ZM253.193 121.576C252.489 121.576 251.913 121.816 251.465 122.296C251.017 122.776 250.793 123.536 250.793 124.576C250.793 125.408 250.985 126.064 251.369 126.544C251.753 127.024 252.337 127.264 253.121 127.264C253.665 127.264 254.129 127.144 254.513 126.904C254.913 126.664 255.225 126.368 255.449 126.016C255.673 125.648 255.785 125.272 255.785 124.888C255.785 124.488 255.729 124.096 255.617 123.712C255.505 123.312 255.337 122.952 255.113 122.632C254.905 122.312 254.641 122.056 254.321 121.864C254.001 121.672 253.625 121.576 253.193 121.576ZM267.12 118.648C268.112 118.648 269.016 118.8 269.832 119.104C270.664 119.408 271.328 119.864 271.824 120.472C272.336 121.08 272.592 121.848 272.592 122.776C272.592 123.464 272.456 124.072 272.184 124.6C271.912 125.112 271.544 125.56 271.08 125.944C270.632 126.328 270.112 126.664 269.52 126.952C270.128 127.272 270.704 127.648 271.248 128.08C271.808 128.496 272.256 128.992 272.592 129.568C272.944 130.128 273.12 130.792 273.12 131.56C273.12 132.504 272.864 133.328 272.352 134.032C271.856 134.736 271.152 135.28 270.24 135.664C269.344 136.048 268.304 136.24 267.12 136.24C265.84 136.24 264.752 136.056 263.856 135.688C262.96 135.32 262.272 134.792 261.792 134.104C261.328 133.416 261.096 132.6 261.096 131.656C261.096 130.872 261.24 130.192 261.528 129.616C261.832 129.04 262.232 128.544 262.728 128.128C263.224 127.696 263.776 127.336 264.384 127.048C263.872 126.728 263.408 126.368 262.992 125.968C262.576 125.552 262.24 125.088 261.984 124.576C261.744 124.048 261.624 123.44 261.624 122.752C261.624 121.84 261.88 121.08 262.392 120.472C262.904 119.864 263.576 119.408 264.408 119.104C265.256 118.8 266.16 118.648 267.12 118.648ZM264.456 131.44C264.456 132.064 264.672 132.576 265.104 132.976C265.552 133.376 266.208 133.576 267.072 133.576C267.68 133.576 268.176 133.488 268.56 133.312C268.96 133.136 269.256 132.888 269.448 132.568C269.656 132.248 269.76 131.88 269.76 131.464C269.76 131.032 269.632 130.656 269.376 130.336C269.12 130 268.8 129.704 268.416 129.448C268.048 129.176 267.664 128.928 267.264 128.704L266.952 128.536C266.456 128.76 266.016 129.016 265.632 129.304C265.264 129.592 264.976 129.912 264.768 130.264C264.56 130.6 264.456 130.992 264.456 131.44ZM267.096 121.288C266.504 121.288 266.008 121.44 265.608 121.744C265.224 122.048 265.032 122.48 265.032 123.04C265.032 123.424 265.128 123.768 265.32 124.072C265.512 124.36 265.768 124.616 266.088 124.84C266.408 125.048 266.752 125.248 267.12 125.44C267.488 125.264 267.824 125.072 268.128 124.864C268.448 124.656 268.704 124.408 268.896 124.12C269.088 123.816 269.184 123.456 269.184 123.04C269.184 122.48 268.984 122.048 268.584 121.744C268.2 121.44 267.704 121.288 267.096 121.288ZM276.03 117.448H296.046V119.776H276.03V117.448ZM276.918 135.136H295.278V137.488H276.918V135.136ZM281.046 120.808H290.838V122.824H281.046V120.808ZM281.046 123.88H290.838V125.896H281.046V123.88ZM274.758 126.952H297.198V129.304H274.758V126.952ZM280.206 131.32H291.798V133.576H280.206V131.32ZM279.342 115.624H282.246V128.248H279.342V115.624ZM289.806 115.648H292.734V128.248H289.806V115.648ZM284.454 129.808H287.406V136.504H284.454V129.808ZM280.83 127.624L283.23 128.512C281.694 131.056 279.102 133.312 276.366 134.536C275.958 133.864 275.142 132.856 274.542 132.328C277.038 131.416 279.558 129.568 280.83 127.624ZM291.246 127.624C292.518 129.472 294.99 131.2 297.462 132.088C296.838 132.616 295.998 133.648 295.566 134.32C292.974 133.168 290.478 130.888 288.966 128.488L291.246 127.624ZM301.662 117.376H307.806V119.296H301.662V117.376ZM303.942 115.6L306.462 115.912C305.982 116.92 305.574 117.832 305.214 118.504L303.078 118.168C303.39 117.4 303.75 116.368 303.942 115.6ZM300.63 117.376H302.886V121.84C302.886 124.456 302.478 128.056 300.27 130.36C299.91 129.928 298.974 129.136 298.47 128.872C300.414 126.832 300.63 124 300.63 121.792V117.376ZM312.246 116.464H316.902V118.456H312.246V116.464ZM310.374 122.392H317.766V124.336H310.374V122.392ZM311.238 116.464H313.47V118.12C313.47 119.752 312.99 121.6 310.926 122.848C310.638 122.368 309.774 121.408 309.342 121.096C310.998 120.184 311.238 119.104 311.238 118.072V116.464ZM306.63 117.376H308.958V127.216C308.958 128.296 308.79 128.92 308.118 129.28C307.446 129.64 306.534 129.664 305.286 129.664C305.214 129.04 304.95 128.104 304.638 127.504C305.358 127.528 306.078 127.528 306.318 127.528C306.558 127.528 306.63 127.432 306.63 127.192V117.376ZM298.83 122.488C301.638 122.416 305.886 122.224 309.942 122.056L309.894 124.12C305.958 124.336 301.854 124.528 298.95 124.672L298.83 122.488ZM303.294 120.04L304.95 119.488C305.382 120.16 305.79 121.072 305.982 121.648L304.254 122.296C304.086 121.696 303.678 120.736 303.294 120.04ZM303.678 124.84H305.454V128.176H303.678V124.84ZM315.654 116.464H317.934V119.416C317.934 119.92 317.958 119.968 318.222 119.968C318.318 119.968 318.63 119.968 318.75 119.968C319.038 119.968 319.134 119.776 319.182 118.384C319.59 118.72 320.526 119.032 321.102 119.176C320.91 121.336 320.334 121.936 319.062 121.936C318.702 121.936 318.126 121.936 317.79 121.936C316.11 121.936 315.654 121.336 315.654 119.44V116.464ZM317.118 122.392H317.646L318.078 122.344L319.518 122.944C318.126 127 314.814 128.896 310.638 129.808C310.374 129.208 309.726 128.152 309.318 127.72C313.134 127.12 316.062 125.68 317.118 122.704V122.392ZM313.158 124.168C314.526 126.16 317.43 127.336 321.222 127.696C320.67 128.224 319.998 129.208 319.686 129.88C315.51 129.232 312.582 127.576 310.902 124.768L313.158 124.168ZM298.974 135.208H320.958V137.464H298.974V135.208ZM301.662 130.096H318.246V136.312H315.414V132.28H313.446V136.312H310.83V132.28H308.886V136.312H306.246V132.28H304.35V136.312H301.662V130.096ZM359.768 127.432C359.768 128.808 359.656 130.04 359.432 131.128C359.224 132.216 358.88 133.144 358.4 133.912C357.936 134.664 357.32 135.24 356.552 135.64C355.8 136.04 354.872 136.24 353.768 136.24C352.392 136.24 351.264 135.888 350.384 135.184C349.504 134.48 348.848 133.472 348.416 132.16C348 130.848 347.792 129.272 347.792 127.432C347.792 125.576 347.984 123.992 348.368 122.68C348.752 121.368 349.384 120.36 350.264 119.656C351.144 118.952 352.312 118.6 353.768 118.6C355.144 118.6 356.272 118.952 357.152 119.656C358.032 120.344 358.688 121.352 359.12 122.68C359.552 123.992 359.768 125.576 359.768 127.432ZM351.392 127.432C351.392 128.728 351.464 129.816 351.608 130.696C351.752 131.56 351.992 132.216 352.328 132.664C352.68 133.096 353.16 133.312 353.768 133.312C354.376 133.312 354.848 133.096 355.184 132.664C355.536 132.232 355.784 131.584 355.928 130.72C356.088 129.84 356.168 128.744 356.168 127.432C356.168 126.12 356.088 125.032 355.928 124.168C355.784 123.288 355.536 122.632 355.184 122.2C354.848 121.752 354.376 121.528 353.768 121.528C353.16 121.528 352.68 121.752 352.328 122.2C351.992 122.632 351.752 123.288 351.608 124.168C351.464 125.032 351.392 126.12 351.392 127.432ZM362.03 134.32C362.03 133.584 362.23 133.072 362.63 132.784C363.03 132.48 363.518 132.328 364.094 132.328C364.654 132.328 365.134 132.48 365.534 132.784C365.934 133.072 366.134 133.584 366.134 134.32C366.134 135.024 365.934 135.536 365.534 135.856C365.134 136.16 364.654 136.312 364.094 136.312C363.518 136.312 363.03 136.16 362.63 135.856C362.23 135.536 362.03 135.024 362.03 134.32ZM380.826 132.448H378.762V136H375.234V132.448H367.914V129.928L375.426 118.864H378.762V129.64H380.826V132.448ZM375.234 126.736C375.234 126.464 375.234 126.144 375.234 125.776C375.25 125.392 375.266 125.016 375.282 124.648C375.298 124.264 375.314 123.928 375.33 123.64C375.346 123.336 375.362 123.128 375.378 123.016H375.282C375.138 123.336 374.986 123.648 374.826 123.952C374.666 124.256 374.474 124.568 374.25 124.888L371.106 129.64H375.234V126.736ZM388.104 118.648C389.096 118.648 390 118.8 390.816 119.104C391.648 119.408 392.312 119.864 392.808 120.472C393.32 121.08 393.576 121.848 393.576 122.776C393.576 123.464 393.44 124.072 393.168 124.6C392.896 125.112 392.528 125.56 392.064 125.944C391.616 126.328 391.096 126.664 390.504 126.952C391.112 127.272 391.688 127.648 392.232 128.08C392.792 128.496 393.24 128.992 393.576 129.568C393.928 130.128 394.104 130.792 394.104 131.56C394.104 132.504 393.848 133.328 393.336 134.032C392.84 134.736 392.136 135.28 391.224 135.664C390.328 136.048 389.288 136.24 388.104 136.24C386.824 136.24 385.736 136.056 384.84 135.688C383.944 135.32 383.256 134.792 382.776 134.104C382.312 133.416 382.08 132.6 382.08 131.656C382.08 130.872 382.224 130.192 382.512 129.616C382.816 129.04 383.216 128.544 383.712 128.128C384.208 127.696 384.76 127.336 385.368 127.048C384.856 126.728 384.392 126.368 383.976 125.968C383.56 125.552 383.224 125.088 382.968 124.576C382.728 124.048 382.608 123.44 382.608 122.752C382.608 121.84 382.864 121.08 383.376 120.472C383.888 119.864 384.56 119.408 385.392 119.104C386.24 118.8 387.144 118.648 388.104 118.648ZM385.44 131.44C385.44 132.064 385.656 132.576 386.088 132.976C386.536 133.376 387.192 133.576 388.056 133.576C388.664 133.576 389.16 133.488 389.544 133.312C389.944 133.136 390.24 132.888 390.432 132.568C390.64 132.248 390.744 131.88 390.744 131.464C390.744 131.032 390.616 130.656 390.36 130.336C390.104 130 389.784 129.704 389.4 129.448C389.032 129.176 388.648 128.928 388.248 128.704L387.936 128.536C387.44 128.76 387 129.016 386.616 129.304C386.248 129.592 385.96 129.912 385.752 130.264C385.544 130.6 385.44 130.992 385.44 131.44ZM388.08 121.288C387.488 121.288 386.992 121.44 386.592 121.744C386.208 122.048 386.016 122.48 386.016 123.04C386.016 123.424 386.112 123.768 386.304 124.072C386.496 124.36 386.752 124.616 387.072 124.84C387.392 125.048 387.736 125.248 388.104 125.44C388.472 125.264 388.808 125.072 389.112 124.864C389.432 124.656 389.688 124.408 389.88 124.12C390.072 123.816 390.168 123.456 390.168 123.04C390.168 122.48 389.968 122.048 389.568 121.744C389.184 121.44 388.688 121.288 388.08 121.288ZM396.847 141.76V122.896H400.423V130.552C400.423 131.48 400.591 132.184 400.927 132.664C401.279 133.144 401.823 133.384 402.559 133.384C403.231 133.384 403.759 133.216 404.143 132.88C404.543 132.544 404.823 132.056 404.983 131.416C405.159 130.776 405.247 129.992 405.247 129.064V122.896H408.823V131.848C408.823 132.392 408.919 132.76 409.111 132.952C409.319 133.144 409.551 133.24 409.807 133.24C409.919 133.24 410.047 133.224 410.191 133.192C410.335 133.16 410.439 133.136 410.503 133.12V135.928C410.423 135.976 410.287 136.024 410.095 136.072C409.903 136.12 409.695 136.16 409.471 136.192C409.263 136.224 409.071 136.24 408.895 136.24C408.095 136.24 407.431 136.096 406.903 135.808C406.391 135.504 405.999 134.984 405.727 134.248H405.559C405.351 134.68 405.095 135.048 404.791 135.352C404.487 135.64 404.151 135.856 403.783 136C403.431 136.16 403.047 136.24 402.631 136.24C402.311 136.24 402.007 136.2 401.719 136.12C401.447 136.04 401.199 135.92 400.975 135.76C400.751 135.6 400.551 135.408 400.375 135.184H400.303C400.335 135.344 400.359 135.6 400.375 135.952C400.391 136.288 400.399 136.64 400.399 137.008C400.415 137.392 400.423 137.728 400.423 138.016V141.76H396.847ZM428.52 122.656C430.008 122.656 431.128 123.04 431.88 123.808C432.648 124.56 433.032 125.776 433.032 127.456V136H429.456V128.344C429.456 127.4 429.296 126.696 428.976 126.232C428.656 125.752 428.16 125.512 427.488 125.512C426.544 125.512 425.872 125.848 425.472 126.52C425.072 127.192 424.872 128.16 424.872 129.424V136H421.296V128.344C421.296 127.72 421.224 127.2 421.08 126.784C420.936 126.368 420.72 126.056 420.432 125.848C420.144 125.624 419.776 125.512 419.328 125.512C418.672 125.512 418.152 125.68 417.768 126.016C417.384 126.352 417.112 126.84 416.952 127.48C416.792 128.12 416.712 128.904 416.712 129.832V136H413.136V122.896H415.872L416.352 124.576H416.544C416.816 124.128 417.152 123.768 417.552 123.496C417.952 123.208 418.392 123 418.872 122.872C419.368 122.728 419.864 122.656 420.36 122.656C421.32 122.656 422.136 122.816 422.808 123.136C423.48 123.44 423.992 123.92 424.344 124.576H424.656C425.056 123.904 425.608 123.416 426.312 123.112C427.032 122.808 427.768 122.656 428.52 122.656Z" fill="#E6CD92"/>
<mask id="mask1_52_7212" style="mask-type:alpha" maskUnits="userSpaceOnUse" x="177" y="225" width="371" height="60">
<rect x="177" y="225" width="371" height="60" fill="#D9D9D9"/>
</mask>
<g mask="url(#mask1_52_7212)">
<rect width="318.894" height="318.894" transform="matrix(0.987174 -0.159651 0.987174 0.159651 47.1499 254.911)" fill="black"/>
</g>
<path d="M224.248 254.376H231.04V263.256C230.144 263.56 229.208 263.8 228.232 263.976C227.272 264.152 226.176 264.24 224.944 264.24C223.248 264.24 221.8 263.904 220.6 263.232C219.416 262.56 218.512 261.568 217.888 260.256C217.28 258.944 216.976 257.328 216.976 255.408C216.976 253.616 217.32 252.064 218.008 250.752C218.712 249.44 219.728 248.424 221.056 247.704C222.384 246.984 224.008 246.624 225.928 246.624C226.84 246.624 227.736 246.72 228.616 246.912C229.496 247.104 230.296 247.36 231.016 247.68L229.816 250.584C229.288 250.312 228.688 250.088 228.016 249.912C227.344 249.736 226.64 249.648 225.904 249.648C224.848 249.648 223.928 249.888 223.144 250.368C222.376 250.848 221.776 251.528 221.344 252.408C220.928 253.272 220.72 254.296 220.72 255.48C220.72 256.6 220.872 257.592 221.176 258.456C221.48 259.32 221.96 260 222.616 260.496C223.272 260.976 224.128 261.216 225.184 261.216C225.536 261.216 225.84 261.208 226.096 261.192C226.368 261.16 226.616 261.128 226.84 261.096C227.064 261.048 227.28 261.008 227.488 260.976V257.4H224.248V254.376ZM235.111 264V246.864H238.735V261H245.695V264H235.111ZM259.385 254.184C259.385 255.16 259.313 256.136 259.169 257.112C259.025 258.072 258.769 258.984 258.401 259.848C258.049 260.696 257.545 261.456 256.889 262.128C256.249 262.784 255.425 263.304 254.417 263.688C253.425 264.056 252.217 264.24 250.793 264.24C250.457 264.24 250.065 264.224 249.617 264.192C249.169 264.176 248.793 264.136 248.489 264.072V261.168C248.809 261.232 249.145 261.288 249.497 261.336C249.849 261.384 250.201 261.408 250.553 261.408C251.625 261.408 252.505 261.28 253.193 261.024C253.897 260.768 254.449 260.4 254.849 259.92C255.249 259.44 255.537 258.872 255.713 258.216C255.905 257.56 256.017 256.84 256.049 256.056H255.905C255.681 256.424 255.409 256.76 255.089 257.064C254.785 257.368 254.393 257.608 253.913 257.784C253.449 257.96 252.849 258.048 252.113 258.048C251.137 258.048 250.289 257.84 249.569 257.424C248.849 256.992 248.289 256.376 247.889 255.576C247.489 254.76 247.289 253.776 247.289 252.624C247.289 251.376 247.521 250.312 247.985 249.432C248.465 248.536 249.145 247.856 250.025 247.392C250.905 246.912 251.937 246.672 253.121 246.672C254.001 246.672 254.817 246.824 255.569 247.128C256.337 247.432 257.001 247.896 257.561 248.52C258.137 249.128 258.585 249.904 258.905 250.848C259.225 251.792 259.385 252.904 259.385 254.184ZM253.193 249.576C252.489 249.576 251.913 249.816 251.465 250.296C251.017 250.776 250.793 251.536 250.793 252.576C250.793 253.408 250.985 254.064 251.369 254.544C251.753 255.024 252.337 255.264 253.121 255.264C253.665 255.264 254.129 255.144 254.513 254.904C254.913 254.664 255.225 254.368 255.449 254.016C255.673 253.648 255.785 253.272 255.785 252.888C255.785 252.488 255.729 252.096 255.617 251.712C255.505 251.312 255.337 250.952 255.113 250.632C254.905 250.312 254.641 250.056 254.321 249.864C254.001 249.672 253.625 249.576 253.193 249.576ZM273.096 255.432C273.096 256.808 272.984 258.04 272.76 259.128C272.552 260.216 272.208 261.144 271.728 261.912C271.264 262.664 270.648 263.24 269.88 263.64C269.128 264.04 268.2 264.24 267.096 264.24C265.72 264.24 264.592 263.888 263.712 263.184C262.832 262.48 262.176 261.472 261.744 260.16C261.328 258.848 261.12 257.272 261.12 255.432C261.12 253.576 261.312 251.992 261.696 250.68C262.08 249.368 262.712 248.36 263.592 247.656C264.472 246.952 265.64 246.6 267.096 246.6C268.472 246.6 269.6 246.952 270.48 247.656C271.36 248.344 272.016 249.352 272.448 250.68C272.88 251.992 273.096 253.576 273.096 255.432ZM264.72 255.432C264.72 256.728 264.792 257.816 264.936 258.696C265.08 259.56 265.32 260.216 265.656 260.664C266.008 261.096 266.488 261.312 267.096 261.312C267.704 261.312 268.176 261.096 268.512 260.664C268.864 260.232 269.112 259.584 269.256 258.72C269.416 257.84 269.496 256.744 269.496 255.432C269.496 254.12 269.416 253.032 269.256 252.168C269.112 251.288 268.864 250.632 268.512 250.2C268.176 249.752 267.704 249.528 267.096 249.528C266.488 249.528 266.008 249.752 265.656 250.2C265.32 250.632 265.08 251.288 264.936 252.168C264.792 253.032 264.72 254.12 264.72 255.432ZM276.03 245.448H296.046V247.776H276.03V245.448ZM276.918 263.136H295.278V265.488H276.918V263.136ZM281.046 248.808H290.838V250.824H281.046V248.808ZM281.046 251.88H290.838V253.896H281.046V251.88ZM274.758 254.952H297.198V257.304H274.758V254.952ZM280.206 259.32H291.798V261.576H280.206V259.32ZM279.342 243.624H282.246V256.248H279.342V243.624ZM289.806 243.648H292.734V256.248H289.806V243.648ZM284.454 257.808H287.406V264.504H284.454V257.808ZM280.83 255.624L283.23 256.512C281.694 259.056 279.102 261.312 276.366 262.536C275.958 261.864 275.142 260.856 274.542 260.328C277.038 259.416 279.558 257.568 280.83 255.624ZM291.246 255.624C292.518 257.472 294.99 259.2 297.462 260.088C296.838 260.616 295.998 261.648 295.566 262.32C292.974 261.168 290.478 258.888 288.966 256.488L291.246 255.624ZM301.662 245.376H307.806V247.296H301.662V245.376ZM303.942 243.6L306.462 243.912C305.982 244.92 305.574 245.832 305.214 246.504L303.078 246.168C303.39 245.4 303.75 244.368 303.942 243.6ZM300.63 245.376H302.886V249.84C302.886 252.456 302.478 256.056 300.27 258.36C299.91 257.928 298.974 257.136 298.47 256.872C300.414 254.832 300.63 252 300.63 249.792V245.376ZM312.246 244.464H316.902V246.456H312.246V244.464ZM310.374 250.392H317.766V252.336H310.374V250.392ZM311.238 244.464H313.47V246.12C313.47 247.752 312.99 249.6 310.926 250.848C310.638 250.368 309.774 249.408 309.342 249.096C310.998 248.184 311.238 247.104 311.238 246.072V244.464ZM306.63 245.376H308.958V255.216C308.958 256.296 308.79 256.92 308.118 257.28C307.446 257.64 306.534 257.664 305.286 257.664C305.214 257.04 304.95 256.104 304.638 255.504C305.358 255.528 306.078 255.528 306.318 255.528C306.558 255.528 306.63 255.432 306.63 255.192V245.376ZM298.83 250.488C301.638 250.416 305.886 250.224 309.942 250.056L309.894 252.12C305.958 252.336 301.854 252.528 298.95 252.672L298.83 250.488ZM303.294 248.04L304.95 247.488C305.382 248.16 305.79 249.072 305.982 249.648L304.254 250.296C304.086 249.696 303.678 248.736 303.294 248.04ZM303.678 252.84H305.454V256.176H303.678V252.84ZM315.654 244.464H317.934V247.416C317.934 247.92 317.958 247.968 318.222 247.968C318.318 247.968 318.63 247.968 318.75 247.968C319.038 247.968 319.134 247.776 319.182 246.384C319.59 246.72 320.526 247.032 321.102 247.176C320.91 249.336 320.334 249.936 319.062 249.936C318.702 249.936 318.126 249.936 317.79 249.936C316.11 249.936 315.654 249.336 315.654 247.44V244.464ZM317.118 250.392H317.646L318.078 250.344L319.518 250.944C318.126 255 314.814 256.896 310.638 257.808C310.374 257.208 309.726 256.152 309.318 255.72C313.134 255.12 316.062 253.68 317.118 250.704V250.392ZM313.158 252.168C314.526 254.16 317.43 255.336 321.222 255.696C320.67 256.224 319.998 257.208 319.686 257.88C315.51 257.232 312.582 255.576 310.902 252.768L313.158 252.168ZM298.974 263.208H320.958V265.464H298.974V263.208ZM301.662 258.096H318.246V264.312H315.414V260.28H313.446V264.312H310.83V260.28H308.886V264.312H306.246V260.28H304.35V264.312H301.662V258.096ZM356.84 264H353.216V254.088C353.216 253.816 353.216 253.48 353.216 253.08C353.232 252.68 353.248 252.264 353.264 251.832C353.28 251.4 353.296 251.016 353.312 250.68C353.232 250.776 353.056 250.952 352.784 251.208C352.528 251.448 352.288 251.664 352.064 251.856L350.096 253.44L348.344 251.256L353.864 246.864H356.84V264ZM362.03 262.32C362.03 261.584 362.23 261.072 362.63 260.784C363.03 260.48 363.518 260.328 364.094 260.328C364.654 260.328 365.134 260.48 365.534 260.784C365.934 261.072 366.134 261.584 366.134 262.32C366.134 263.024 365.934 263.536 365.534 263.856C365.134 264.16 364.654 264.312 364.094 264.312C363.518 264.312 363.03 264.16 362.63 263.856C362.23 263.536 362.03 263.024 362.03 262.32ZM380.826 260.448H378.762V264H375.234V260.448H367.914V257.928L375.426 246.864H378.762V257.64H380.826V260.448ZM375.234 254.736C375.234 254.464 375.234 254.144 375.234 253.776C375.25 253.392 375.266 253.016 375.282 252.648C375.298 252.264 375.314 251.928 375.33 251.64C375.346 251.336 375.362 251.128 375.378 251.016H375.282C375.138 251.336 374.986 251.648 374.826 251.952C374.666 252.256 374.474 252.568 374.25 252.888L371.106 257.64H375.234V254.736ZM383.904 264L390.336 249.912H381.888V246.864H394.176V249.144L387.696 264H383.904ZM396.847 269.76V250.896H400.423V258.552C400.423 259.48 400.591 260.184 400.927 260.664C401.279 261.144 401.823 261.384 402.559 261.384C403.231 261.384 403.759 261.216 404.143 260.88C404.543 260.544 404.823 260.056 404.983 259.416C405.159 258.776 405.247 257.992 405.247 257.064V250.896H408.823V259.848C408.823 260.392 408.919 260.76 409.111 260.952C409.319 261.144 409.551 261.24 409.807 261.24C409.919 261.24 410.047 261.224 410.191 261.192C410.335 261.16 410.439 261.136 410.503 261.12V263.928C410.423 263.976 410.287 264.024 410.095 264.072C409.903 264.12 409.695 264.16 409.471 264.192C409.263 264.224 409.071 264.24 408.895 264.24C408.095 264.24 407.431 264.096 406.903 263.808C406.391 263.504 405.999 262.984 405.727 262.248H405.559C405.351 262.68 405.095 263.048 404.791 263.352C404.487 263.64 404.151 263.856 403.783 264C403.431 264.16 403.047 264.24 402.631 264.24C402.311 264.24 402.007 264.2 401.719 264.12C401.447 264.04 401.199 263.92 400.975 263.76C400.751 263.6 400.551 263.408 400.375 263.184H400.303C400.335 263.344 400.359 263.6 400.375 263.952C400.391 264.288 400.399 264.64 400.399 265.008C400.415 265.392 400.423 265.728 400.423 266.016V269.76H396.847ZM428.52 250.656C430.008 250.656 431.128 251.04 431.88 251.808C432.648 252.56 433.032 253.776 433.032 255.456V264H429.456V256.344C429.456 255.4 429.296 254.696 428.976 254.232C428.656 253.752 428.16 253.512 427.488 253.512C426.544 253.512 425.872 253.848 425.472 254.52C425.072 255.192 424.872 256.16 424.872 257.424V264H421.296V256.344C421.296 255.72 421.224 255.2 421.08 254.784C420.936 254.368 420.72 254.056 420.432 253.848C420.144 253.624 419.776 253.512 419.328 253.512C418.672 253.512 418.152 253.68 417.768 254.016C417.384 254.352 417.112 254.84 416.952 255.48C416.792 256.12 416.712 256.904 416.712 257.832V264H413.136V250.896H415.872L416.352 252.576H416.544C416.816 252.128 417.152 251.768 417.552 251.496C417.952 251.208 418.392 251 418.872 250.872C419.368 250.728 419.864 250.656 420.36 250.656C421.32 250.656 422.136 250.816 422.808 251.136C423.48 251.44 423.992 251.92 424.344 252.576H424.656C425.056 251.904 425.608 251.416 426.312 251.112C427.032 250.808 427.768 250.656 428.52 250.656Z" fill="#E6CD92"/>
<mask id="mask2_52_7212" style="mask-type:alpha" maskUnits="userSpaceOnUse" x="177" y="295" width="371" height="60">
<rect x="177" y="295" width="371" height="60" fill="#D9D9D9"/>
</mask>
<g mask="url(#mask2_52_7212)">
<rect width="318.894" height="318.894" transform="matrix(0.987174 -0.159651 0.987174 0.159651 47.1499 324.911)" fill="black"/>
</g>
<path d="M227.848 329.248C227.848 330.256 227.6 331.136 227.104 331.888C226.608 332.64 225.888 333.224 224.944 333.64C224.016 334.04 222.88 334.24 221.536 334.24C220.944 334.24 220.36 334.2 219.784 334.12C219.224 334.04 218.68 333.928 218.152 333.784C217.64 333.624 217.152 333.432 216.688 333.208V329.824C217.504 330.176 218.344 330.504 219.208 330.808C220.088 331.096 220.96 331.24 221.824 331.24C222.416 331.24 222.888 331.16 223.24 331C223.608 330.84 223.872 330.624 224.032 330.352C224.208 330.08 224.296 329.768 224.296 329.416C224.296 328.984 224.144 328.616 223.84 328.312C223.552 328.008 223.16 327.728 222.664 327.472C222.168 327.2 221.6 326.912 220.96 326.608C220.56 326.416 220.128 326.192 219.664 325.936C219.2 325.664 218.752 325.336 218.32 324.952C217.904 324.552 217.56 324.072 217.288 323.512C217.016 322.952 216.88 322.28 216.88 321.496C216.88 320.472 217.112 319.6 217.576 318.88C218.056 318.144 218.728 317.584 219.592 317.2C220.472 316.816 221.504 316.624 222.688 316.624C223.584 316.624 224.432 316.728 225.232 316.936C226.048 317.144 226.896 317.44 227.776 317.824L226.6 320.656C225.816 320.336 225.112 320.088 224.488 319.912C223.864 319.736 223.224 319.648 222.568 319.648C222.12 319.648 221.736 319.72 221.416 319.864C221.096 320.008 220.848 320.208 220.672 320.464C220.512 320.72 220.432 321.024 220.432 321.376C220.432 321.776 220.552 322.12 220.792 322.408C221.032 322.68 221.392 322.944 221.872 323.2C222.352 323.456 222.952 323.76 223.672 324.112C224.552 324.528 225.296 324.96 225.904 325.408C226.528 325.856 227.008 326.384 227.344 326.992C227.68 327.6 227.848 328.352 227.848 329.248ZM230.963 334V316.864H234.587V331H241.547V334H230.963ZM258.381 334H254.229L250.245 327.52L246.261 334H242.373L248.061 325.168L242.733 316.864H246.741L250.437 323.032L254.061 316.864H257.973L252.597 325.36L258.381 334ZM261.045 334L267.477 319.912H259.029V316.864H271.317V319.144L264.837 334H261.045ZM278.979 316.648C279.971 316.648 280.875 316.8 281.691 317.104C282.523 317.408 283.187 317.864 283.683 318.472C284.195 319.08 284.451 319.848 284.451 320.776C284.451 321.464 284.315 322.072 284.043 322.6C283.771 323.112 283.403 323.56 282.939 323.944C282.491 324.328 281.971 324.664 281.379 324.952C281.987 325.272 282.563 325.648 283.107 326.08C283.667 326.496 284.115 326.992 284.451 327.568C284.803 328.128 284.979 328.792 284.979 329.56C284.979 330.504 284.723 331.328 284.211 332.032C283.715 332.736 283.011 333.28 282.099 333.664C281.203 334.048 280.163 334.24 278.979 334.24C277.699 334.24 276.611 334.056 275.715 333.688C274.819 333.32 274.131 332.792 273.651 332.104C273.187 331.416 272.955 330.6 272.955 329.656C272.955 328.872 273.099 328.192 273.387 327.616C273.691 327.04 274.091 326.544 274.587 326.128C275.083 325.696 275.635 325.336 276.243 325.048C275.731 324.728 275.267 324.368 274.851 323.968C274.435 323.552 274.099 323.088 273.843 322.576C273.603 322.048 273.483 321.44 273.483 320.752C273.483 319.84 273.739 319.08 274.251 318.472C274.763 317.864 275.435 317.408 276.267 317.104C277.115 316.8 278.019 316.648 278.979 316.648ZM276.315 329.44C276.315 330.064 276.531 330.576 276.963 330.976C277.411 331.376 278.067 331.576 278.931 331.576C279.539 331.576 280.035 331.488 280.419 331.312C280.819 331.136 281.115 330.888 281.307 330.568C281.515 330.248 281.619 329.88 281.619 329.464C281.619 329.032 281.491 328.656 281.235 328.336C280.979 328 280.659 327.704 280.275 327.448C279.907 327.176 279.523 326.928 279.123 326.704L278.811 326.536C278.315 326.76 277.875 327.016 277.491 327.304C277.123 327.592 276.835 327.912 276.627 328.264C276.419 328.6 276.315 328.992 276.315 329.44ZM278.955 319.288C278.363 319.288 277.867 319.44 277.467 319.744C277.083 320.048 276.891 320.48 276.891 321.04C276.891 321.424 276.987 321.768 277.179 322.072C277.371 322.36 277.627 322.616 277.947 322.84C278.267 323.048 278.611 323.248 278.979 323.44C279.347 323.264 279.683 323.072 279.987 322.864C280.307 322.656 280.563 322.408 280.755 322.12C280.947 321.816 281.043 321.456 281.043 321.04C281.043 320.48 280.843 320.048 280.443 319.744C280.059 319.44 279.563 319.288 278.955 319.288ZM294.61 334H290.986V319.888H286.33V316.864H299.266V319.888H294.61V334ZM308.977 334H305.353V319.888H300.697V316.864H313.633V319.888H308.977V334ZM327.55 323.056C328.59 323.056 329.518 323.256 330.334 323.656C331.15 324.056 331.79 324.64 332.254 325.408C332.734 326.176 332.974 327.128 332.974 328.264C332.974 329.496 332.718 330.56 332.206 331.456C331.694 332.352 330.926 333.04 329.902 333.52C328.894 334 327.638 334.24 326.134 334.24C325.238 334.24 324.39 334.16 323.59 334C322.806 333.84 322.118 333.608 321.526 333.304V330.184C322.118 330.488 322.83 330.752 323.662 330.976C324.494 331.184 325.278 331.288 326.014 331.288C326.734 331.288 327.334 331.192 327.814 331C328.31 330.808 328.686 330.512 328.942 330.112C329.198 329.712 329.326 329.2 329.326 328.576C329.326 327.728 329.046 327.088 328.486 326.656C327.926 326.208 327.062 325.984 325.894 325.984C325.446 325.984 324.982 326.032 324.502 326.128C324.022 326.208 323.622 326.288 323.302 326.368L321.862 325.6L322.51 316.864H331.798V319.936H325.678L325.366 323.296C325.638 323.248 325.926 323.2 326.23 323.152C326.55 323.088 326.99 323.056 327.55 323.056ZM335.452 332.32C335.452 331.584 335.652 331.072 336.052 330.784C336.452 330.48 336.94 330.328 337.516 330.328C338.076 330.328 338.556 330.48 338.956 330.784C339.356 331.072 339.556 331.584 339.556 332.32C339.556 333.024 339.356 333.536 338.956 333.856C338.556 334.16 338.076 334.312 337.516 334.312C336.94 334.312 336.452 334.16 336.052 333.856C335.652 333.536 335.452 333.024 335.452 332.32ZM348.128 323.056C349.168 323.056 350.096 323.256 350.912 323.656C351.728 324.056 352.368 324.64 352.832 325.408C353.312 326.176 353.552 327.128 353.552 328.264C353.552 329.496 353.296 330.56 352.784 331.456C352.272 332.352 351.504 333.04 350.48 333.52C349.472 334 348.216 334.24 346.712 334.24C345.816 334.24 344.968 334.16 344.168 334C343.384 333.84 342.696 333.608 342.104 333.304V330.184C342.696 330.488 343.408 330.752 344.24 330.976C345.072 331.184 345.856 331.288 346.592 331.288C347.312 331.288 347.912 331.192 348.392 331C348.888 330.808 349.264 330.512 349.52 330.112C349.776 329.712 349.904 329.2 349.904 328.576C349.904 327.728 349.624 327.088 349.064 326.656C348.504 326.208 347.64 325.984 346.472 325.984C346.024 325.984 345.56 326.032 345.08 326.128C344.6 326.208 344.2 326.288 343.88 326.368L342.44 325.6L343.088 316.864H352.376V319.936H346.256L345.944 323.296C346.216 323.248 346.504 323.2 346.808 323.152C347.128 323.088 347.568 323.056 348.128 323.056ZM364.574 334H360.95V324.088C360.95 323.816 360.95 323.48 360.95 323.08C360.966 322.68 360.982 322.264 360.998 321.832C361.014 321.4 361.03 321.016 361.046 320.68C360.966 320.776 360.79 320.952 360.518 321.208C360.262 321.448 360.022 321.664 359.798 321.856L357.83 323.44L356.078 321.256L361.598 316.864H364.574V334ZM370.268 339.76V320.896H373.844V328.552C373.844 329.48 374.012 330.184 374.348 330.664C374.7 331.144 375.244 331.384 375.98 331.384C376.652 331.384 377.18 331.216 377.564 330.88C377.964 330.544 378.244 330.056 378.404 329.416C378.58 328.776 378.668 327.992 378.668 327.064V320.896H382.244V329.848C382.244 330.392 382.34 330.76 382.532 330.952C382.74 331.144 382.972 331.24 383.228 331.24C383.34 331.24 383.468 331.224 383.612 331.192C383.756 331.16 383.86 331.136 383.924 331.12V333.928C383.844 333.976 383.708 334.024 383.516 334.072C383.324 334.12 383.116 334.16 382.892 334.192C382.684 334.224 382.492 334.24 382.316 334.24C381.516 334.24 380.852 334.096 380.324 333.808C379.812 333.504 379.42 332.984 379.148 332.248H378.98C378.772 332.68 378.516 333.048 378.212 333.352C377.908 333.64 377.572 333.856 377.204 334C376.852 334.16 376.468 334.24 376.052 334.24C375.732 334.24 375.428 334.2 375.14 334.12C374.868 334.04 374.62 333.92 374.396 333.76C374.172 333.6 373.972 333.408 373.796 333.184H373.724C373.756 333.344 373.78 333.6 373.796 333.952C373.812 334.288 373.82 334.64 373.82 335.008C373.836 335.392 373.844 335.728 373.844 336.016V339.76H370.268ZM401.942 320.656C403.43 320.656 404.55 321.04 405.302 321.808C406.07 322.56 406.454 323.776 406.454 325.456V334H402.878V326.344C402.878 325.4 402.718 324.696 402.398 324.232C402.078 323.752 401.582 323.512 400.91 323.512C399.966 323.512 399.294 323.848 398.894 324.52C398.494 325.192 398.294 326.16 398.294 327.424V334H394.718V326.344C394.718 325.72 394.646 325.2 394.502 324.784C394.358 324.368 394.142 324.056 393.854 323.848C393.566 323.624 393.198 323.512 392.75 323.512C392.094 323.512 391.574 323.68 391.19 324.016C390.806 324.352 390.534 324.84 390.374 325.48C390.214 326.12 390.134 326.904 390.134 327.832V334H386.558V320.896H389.294L389.774 322.576H389.966C390.238 322.128 390.574 321.768 390.974 321.496C391.374 321.208 391.814 321 392.294 320.872C392.79 320.728 393.286 320.656 393.782 320.656C394.742 320.656 395.558 320.816 396.23 321.136C396.902 321.44 397.414 321.92 397.766 322.576H398.078C398.478 321.904 399.03 321.416 399.734 321.112C400.454 320.808 401.19 320.656 401.942 320.656Z" fill="#E6CD92"/>
<mask id="mask3_52_7212" style="mask-type:alpha" maskUnits="userSpaceOnUse" x="177" y="443" width="371" height="60">
<rect x="177" y="443" width="371" height="60" fill="#D9D9D9"/>
</mask>
<g mask="url(#mask3_52_7212)">
<rect width="318.894" height="318.894" transform="matrix(0.987174 -0.159651 0.987174 0.159651 47.1499 472.911)" fill="black"/>
</g>
<path d="M228.16 466.736H236.296V469.16H228.16V466.736ZM225.208 481.112C227.224 480.752 230.176 480.128 232.984 479.48L233.296 482.168C230.8 482.792 228.112 483.416 226 483.896L225.208 481.112ZM228.232 462.512H237.808V473.408H228.232V470.888H235.048V465.056H228.232V462.512ZM233.44 472.568C234.232 476.768 235.888 480.296 239.2 481.832C238.576 482.36 237.76 483.464 237.352 484.232C233.608 482.216 231.904 478.184 230.968 472.928L233.44 472.568ZM236.824 474.032L238.768 476C237.52 476.984 235.984 478.04 234.856 478.688L233.272 476.984C234.352 476.264 235.912 474.992 236.824 474.032ZM227.032 462.512H229.744V481.52L227.032 482V462.512ZM218.008 467.576H225.472V469.976H218.008V467.576ZM216.976 471.752H226V474.2H216.976V471.752ZM217.168 475.568L219.04 475.088C219.472 476.408 219.856 478.112 219.976 479.216L217.984 479.768C217.912 478.616 217.552 476.912 217.168 475.568ZM216.592 481.064C219.016 480.728 222.664 480.176 226.144 479.6L226.312 482.024C223.144 482.624 219.736 483.224 217.168 483.656L216.592 481.064ZM223.936 474.872L226.12 475.4C225.64 476.84 225.16 478.424 224.776 479.432L223.048 478.928C223.384 477.824 223.792 476.072 223.936 474.872ZM220.312 468.608H222.808V481.496L220.312 481.928V468.608ZM220.312 461.624H221.872V462.152H222.688V462.944C221.704 464.768 220.144 467.264 217.624 469.4C217.24 468.8 216.424 467.864 215.872 467.48C218.032 465.752 219.496 463.496 220.312 461.624ZM220.672 461.624H222.688C224.176 462.848 226.048 464.648 226.936 465.92L225.064 468.152C224.296 466.88 222.568 464.792 221.176 463.664H220.672V461.624ZM256.672 464.024H259.696V480.536C259.696 482.264 259.288 483.128 258.136 483.584C256.936 484.088 255.184 484.136 252.712 484.136C252.544 483.272 251.968 481.856 251.512 481.064C253.24 481.184 255.328 481.16 255.904 481.16C256.48 481.136 256.672 480.968 256.672 480.464V464.024ZM242.944 468.824H245.752V480.008H242.944V468.824ZM244.144 468.824H253.192V478.16H244.144V475.424H250.336V471.56H244.144V468.824ZM240.736 463.232H262.48V466.136H240.736V463.232ZM264.952 463.688H286.288V466.352H264.952V463.688ZM274.072 461.624H277.048V464.792H274.072V461.624ZM277.288 464.768H280.096V470.672C280.096 471.92 279.904 472.592 279.04 473C278.224 473.408 277.12 473.432 275.68 473.432C275.56 472.664 275.224 471.632 274.888 470.888C275.728 470.912 276.64 470.912 276.928 470.912C277.216 470.912 277.288 470.864 277.288 470.6V464.768ZM272.416 464.408H275.104V466.304C275.104 468.824 274.696 472.088 271.144 474.32C270.712 473.72 269.704 472.784 269.056 472.352C272.08 470.576 272.416 468.128 272.416 466.232V464.408ZM280.768 468.344L283 467.048C284.368 468.392 286.048 470.288 286.816 471.584L284.416 473.024C283.744 471.728 282.136 469.76 280.768 468.344ZM268.024 467.144L270.712 467.864C269.704 469.76 268.12 471.704 266.44 472.856C265.936 472.352 265.024 471.584 264.448 471.2C265.984 470.24 267.376 468.584 268.024 467.144ZM272.008 475.808C274.456 479.408 279.688 481.088 287.008 481.448C286.408 482.12 285.688 483.344 285.328 484.16C277.624 483.512 272.584 481.352 269.44 476.624L272.008 475.808ZM272.608 472.592L275.608 473.168C273.664 475.952 270.928 478.16 266.776 479.84C266.392 479.168 265.576 478.136 264.976 477.704C268.816 476.432 271.312 474.536 272.608 472.592ZM272.56 474.344H281.056V476.624H270.544L272.56 474.344ZM280.264 474.344H280.888L281.368 474.248L283.24 475.496C280.144 481.064 273.232 483.344 265.624 484.208C265.384 483.512 264.76 482.24 264.256 481.64C271.624 481.064 277.96 479.192 280.264 474.8V474.344ZM295.432 463.736H303.904V466.016H295.432V463.736ZM295.816 467.384H303.424V469.64H295.816V467.384ZM303.904 466.832H310.84V469.4H303.904V466.832ZM298.384 461.624H300.856V468.944H298.384V461.624ZM298.336 472.448V474.224H300.784V472.448H298.336ZM296.008 470.456H303.208V476.192H296.008V470.456ZM296.056 477.104L298.216 476.528C298.624 477.608 299.056 479.024 299.152 479.912L296.824 480.56C296.752 479.672 296.416 478.208 296.056 477.104ZM303.592 471.656L305.656 471.008C306.304 472.976 306.88 475.496 307.024 477.032L304.792 477.824C304.672 476.24 304.168 473.648 303.592 471.656ZM300.832 476.408L303.424 477.032C302.872 478.544 302.296 480.104 301.84 481.136L299.68 480.56C300.112 479.432 300.592 477.68 300.832 476.408ZM294.76 481.28C297.136 480.968 300.688 480.464 304.12 479.96L304.264 482.288C301.192 482.816 297.88 483.32 295.432 483.728L294.76 481.28ZM306.856 461.696H309.496V481.16C309.496 482.456 309.256 483.2 308.536 483.632C307.792 484.064 306.736 484.184 305.224 484.184C305.152 483.464 304.768 482.288 304.408 481.544C305.296 481.592 306.16 481.592 306.448 481.592C306.76 481.568 306.856 481.472 306.856 481.16V461.696ZM288.64 466.592H295.384V469.232H288.64V466.592ZM291.016 461.624H293.512V484.16H291.016V461.624ZM291.064 468.416L292.432 468.896C291.904 472.64 290.728 477.344 289.264 479.792C289.024 479.096 288.472 478.04 288.088 477.44C289.432 475.376 290.608 471.488 291.064 468.416ZM293.392 469.688C293.824 470.36 295.552 473.408 295.912 474.104L294.616 476.12C294.184 474.728 292.96 471.872 292.432 470.744L293.392 469.688ZM314.728 462.44H319.648V465.056H314.728V462.44ZM314.848 467.936H319.384V470.528H314.848V467.936ZM314.848 473.504H319.36V476.192H314.848V473.504ZM313.6 462.44H316.12V471.2C316.12 475.04 315.904 480.632 314.368 484.208C313.864 483.8 312.736 483.176 312.088 482.936C313.504 479.6 313.6 474.752 313.6 471.224V462.44ZM318.376 462.44H320.992V481.04C320.992 482.288 320.8 483.104 320.08 483.56C319.336 484.016 318.4 484.088 316.912 484.088C316.864 483.368 316.552 482.096 316.192 481.376C316.96 481.424 317.752 481.4 318.016 481.4C318.28 481.376 318.376 481.28 318.376 480.992V462.44ZM322.576 472.976H333.736V484.04H330.928V475.352H325.264V484.136H322.576V472.976ZM331.576 462.56L333.664 464.72C331.024 465.992 327.376 466.904 324.256 467.504C324.112 466.904 323.704 465.896 323.368 465.296C326.344 464.672 329.608 463.64 331.576 462.56ZM323.656 480.872H332.392V483.248H323.656V480.872ZM323.656 476.936H332.392V479.168H323.656V476.936ZM322.408 461.864H325.144V468.128C325.144 468.968 325.36 469.088 326.728 469.088C327.328 469.088 329.992 469.088 330.784 469.088C331.912 469.088 332.104 468.752 332.248 466.472C332.824 466.904 334 467.312 334.768 467.48C334.408 470.792 333.616 471.632 331.024 471.632C330.304 471.632 327.136 471.632 326.464 471.632C323.224 471.632 322.408 470.84 322.408 468.152V461.864ZM349.018 471.056C350.058 471.056 350.986 471.256 351.802 471.656C352.618 472.056 353.258 472.64 353.722 473.408C354.202 474.176 354.442 475.128 354.442 476.264C354.442 477.496 354.186 478.56 353.674 479.456C353.162 480.352 352.394 481.04 351.37 481.52C350.362 482 349.106 482.24 347.602 482.24C346.706 482.24 345.858 482.16 345.058 482C344.274 481.84 343.586 481.608 342.994 481.304V478.184C343.586 478.488 344.298 478.752 345.13 478.976C345.962 479.184 346.746 479.288 347.482 479.288C348.202 479.288 348.802 479.192 349.282 479C349.778 478.808 350.154 478.512 350.41 478.112C350.666 477.712 350.794 477.2 350.794 476.576C350.794 475.728 350.514 475.088 349.954 474.656C349.394 474.208 348.53 473.984 347.362 473.984C346.914 473.984 346.45 474.032 345.97 474.128C345.49 474.208 345.09 474.288 344.77 474.368L343.33 473.6L343.978 464.864H353.266V467.936H347.146L346.834 471.296C347.106 471.248 347.394 471.2 347.698 471.152C348.018 471.088 348.458 471.056 349.018 471.056ZM367.817 468.704C367.817 469.488 367.649 470.168 367.313 470.744C366.993 471.32 366.553 471.792 365.993 472.16C365.449 472.528 364.825 472.8 364.121 472.976V473.048C365.497 473.208 366.537 473.624 367.241 474.296C367.961 474.968 368.321 475.872 368.321 477.008C368.321 478 368.073 478.896 367.577 479.696C367.097 480.48 366.345 481.104 365.321 481.568C364.313 482.016 363.009 482.24 361.409 482.24C360.465 482.24 359.585 482.16 358.769 482C357.953 481.84 357.185 481.608 356.465 481.304V478.232C357.201 478.6 357.969 478.88 358.769 479.072C359.585 479.264 360.337 479.36 361.025 479.36C362.321 479.36 363.225 479.136 363.737 478.688C364.265 478.24 364.529 477.608 364.529 476.792C364.529 476.312 364.409 475.912 364.169 475.592C363.929 475.256 363.505 475.008 362.897 474.848C362.305 474.672 361.473 474.584 360.401 474.584H359.105V471.8H360.425C361.481 471.8 362.281 471.704 362.825 471.512C363.385 471.304 363.761 471.032 363.953 470.696C364.161 470.344 364.265 469.944 364.265 469.496C364.265 468.888 364.073 468.416 363.689 468.08C363.321 467.728 362.697 467.552 361.817 467.552C361.273 467.552 360.777 467.624 360.329 467.768C359.881 467.896 359.473 468.056 359.105 468.248C358.753 468.44 358.441 468.624 358.169 468.8L356.489 466.304C356.937 465.984 357.433 465.696 357.977 465.44C358.537 465.184 359.153 464.984 359.825 464.84C360.497 464.696 361.249 464.624 362.081 464.624C363.841 464.624 365.233 464.984 366.257 465.704C367.297 466.408 367.817 467.408 367.817 468.704ZM381.551 468.704C381.551 469.488 381.383 470.168 381.047 470.744C380.727 471.32 380.287 471.792 379.727 472.16C379.183 472.528 378.559 472.8 377.855 472.976V473.048C379.231 473.208 380.271 473.624 380.975 474.296C381.695 474.968 382.055 475.872 382.055 477.008C382.055 478 381.807 478.896 381.311 479.696C380.831 480.48 380.079 481.104 379.055 481.568C378.047 482.016 376.743 482.24 375.143 482.24C374.199 482.24 373.319 482.16 372.503 482C371.687 481.84 370.919 481.608 370.199 481.304V478.232C370.935 478.6 371.703 478.88 372.503 479.072C373.319 479.264 374.071 479.36 374.759 479.36C376.055 479.36 376.959 479.136 377.471 478.688C377.999 478.24 378.263 477.608 378.263 476.792C378.263 476.312 378.143 475.912 377.903 475.592C377.663 475.256 377.239 475.008 376.631 474.848C376.039 474.672 375.207 474.584 374.135 474.584H372.839V471.8H374.159C375.215 471.8 376.015 471.704 376.559 471.512C377.119 471.304 377.495 471.032 377.687 470.696C377.895 470.344 377.999 469.944 377.999 469.496C377.999 468.888 377.807 468.416 377.423 468.08C377.055 467.728 376.431 467.552 375.551 467.552C375.007 467.552 374.511 467.624 374.063 467.768C373.615 467.896 373.207 468.056 372.839 468.248C372.487 468.44 372.175 468.624 371.903 468.8L370.223 466.304C370.671 465.984 371.167 465.696 371.711 465.44C372.271 465.184 372.887 464.984 373.559 464.84C374.231 464.696 374.983 464.624 375.815 464.624C377.575 464.624 378.967 464.984 379.991 465.704C381.031 466.408 381.551 467.408 381.551 468.704ZM384.893 487.76V468.896H388.469V476.552C388.469 477.48 388.637 478.184 388.973 478.664C389.325 479.144 389.869 479.384 390.605 479.384C391.277 479.384 391.805 479.216 392.189 478.88C392.589 478.544 392.869 478.056 393.029 477.416C393.205 476.776 393.293 475.992 393.293 475.064V468.896H396.869V477.848C396.869 478.392 396.965 478.76 397.157 478.952C397.365 479.144 397.597 479.24 397.853 479.24C397.965 479.24 398.093 479.224 398.237 479.192C398.381 479.16 398.485 479.136 398.549 479.12V481.928C398.469 481.976 398.333 482.024 398.141 482.072C397.949 482.12 397.741 482.16 397.517 482.192C397.309 482.224 397.117 482.24 396.941 482.24C396.141 482.24 395.477 482.096 394.949 481.808C394.437 481.504 394.045 480.984 393.773 480.248H393.605C393.397 480.68 393.141 481.048 392.837 481.352C392.533 481.64 392.197 481.856 391.829 482C391.477 482.16 391.093 482.24 390.677 482.24C390.357 482.24 390.053 482.2 389.765 482.12C389.493 482.04 389.245 481.92 389.021 481.76C388.797 481.6 388.597 481.408 388.421 481.184H388.349C388.381 481.344 388.405 481.6 388.421 481.952C388.437 482.288 388.445 482.64 388.445 483.008C388.461 483.392 388.469 483.728 388.469 484.016V487.76H384.893ZM416.567 468.656C418.055 468.656 419.175 469.04 419.927 469.808C420.695 470.56 421.079 471.776 421.079 473.456V482H417.503V474.344C417.503 473.4 417.343 472.696 417.023 472.232C416.703 471.752 416.207 471.512 415.535 471.512C414.591 471.512 413.919 471.848 413.519 472.52C413.119 473.192 412.919 474.16 412.919 475.424V482H409.343V474.344C409.343 473.72 409.271 473.2 409.127 472.784C408.983 472.368 408.767 472.056 408.479 471.848C408.191 471.624 407.823 471.512 407.375 471.512C406.719 471.512 406.199 471.68 405.815 472.016C405.431 472.352 405.159 472.84 404.999 473.48C404.839 474.12 404.759 474.904 404.759 475.832V482H401.183V468.896H403.919L404.399 470.576H404.591C404.863 470.128 405.199 469.768 405.599 469.496C405.999 469.208 406.439 469 406.919 468.872C407.415 468.728 407.911 468.656 408.407 468.656C409.367 468.656 410.183 468.816 410.855 469.136C411.527 469.44 412.039 469.92 412.391 470.576H412.703C413.103 469.904 413.655 469.416 414.359 469.112C415.079 468.808 415.815 468.656 416.567 468.656Z" fill="#E6CD92"/>
<rect width="145" height="648" rx="72.5" fill="#F5F5F5"/>
<circle cx="72.5" cy="60.5" r="41.5" fill="white"/>
<path d="M55.12 43.36H91V47.4H55.12V43.36ZM63.88 41H68.64V49.8H63.88V41ZM77.2 41H81.96V49.8H77.2V41ZM65.24 51.12H90.56V54.4H65.24V51.12ZM64.76 67.72H91.08V71.36H64.76V67.72ZM75.52 48.92H79.88V64.84H75.52V48.92ZM55.96 52.32L58.64 49.16C60.92 50.08 63.92 51.68 65.48 52.92L62.64 56.48C61.24 55.2 58.24 53.44 55.96 52.32ZM54.2 59.8L56.84 56.56C59.16 57.52 62.24 59.2 63.8 60.44L61 64.04C59.56 62.76 56.56 60.92 54.2 59.8ZM67.28 72.68L70.28 70.08C72 71.24 74.16 72.96 75.2 74.2L72 77.08C71.08 75.8 69 73.92 67.28 72.68ZM55.08 75.44C56.76 73.08 59.16 69.32 61.08 65.76L64.4 68.56C62.76 71.76 60.76 75.28 58.92 78.32L55.08 75.44ZM82.88 49.32L84.96 46.88C86.64 47.52 88.6 48.68 89.68 49.52L87.52 52.28C86.44 51.32 84.44 50.04 82.88 49.32ZM71.16 62.16V63.8H84.24V62.16H71.16ZM71.16 58.32V59.92H84.24V58.32H71.16ZM67 55.84H88.56V66.28H67V55.84ZM79.84 65.4H84.36V74.32C84.36 76.32 84.04 77.36 82.64 78C81.28 78.6 79.48 78.6 77.04 78.6C76.88 77.4 76.32 75.84 75.8 74.68C77.2 74.72 78.76 74.76 79.24 74.72C79.68 74.72 79.84 74.6 79.84 74.2V65.4Z" fill="#666666"/>
<circle cx="72.5" cy="587.5" r="41.5" fill="white"/>
<path d="M61.88 595.08H91.36V598.76H61.88V595.08ZM64.64 588.64H84.04V591.84H64.64V588.64ZM69.48 582.64V584.28H82.88V582.64H69.48ZM69.48 578.32V579.92H82.88V578.32H69.48ZM64.96 575.4H87.6V587.2H64.96V575.4ZM74 593.12H78.72V601.28C78.72 603.44 78.2 604.48 76.48 605.04C74.76 605.6 72.4 605.64 69.24 605.6C68.96 604.44 68.24 602.8 67.64 601.72C69.76 601.84 72.44 601.84 73.08 601.8C73.76 601.8 74 601.64 74 601.12V593.12ZM83.32 588.64H84.48L85.48 588.4L88.24 590.92C85.32 592.88 81.52 594.88 77.96 596.24C77.48 595.48 76.4 594.32 75.84 593.72C78.52 592.68 81.76 590.8 83.32 589.44V588.64ZM60.24 569.6H91.04V573.96H60.24V569.6ZM57.44 569.6H62.2V581.92C62.2 588.8 61.64 599.04 58 605.6C57.08 604.84 55 603.68 53.8 603.24C57.2 597.16 57.44 588.24 57.44 581.92V569.6Z" fill="#666666"/>
<path d="M49.9667 530H46.3427V520.088C46.3427 519.816 46.3427 519.48 46.3427 519.08C46.3587 518.68 46.3747 518.264 46.3907 517.832C46.4067 517.4 46.4227 517.016 46.4387 516.68C46.3587 516.776 46.1827 516.952 45.9107 517.208C45.6547 517.448 45.4147 517.664 45.1907 517.856L43.2227 519.44L41.4707 517.256L46.9907 512.864H49.9667V530ZM71.0451 516.656C72.5331 516.656 73.6531 517.04 74.4051 517.808C75.1731 518.56 75.5571 519.776 75.5571 521.456V530H71.9811V522.344C71.9811 521.4 71.8211 520.696 71.5011 520.232C71.1811 519.752 70.6851 519.512 70.0131 519.512C69.0691 519.512 68.3971 519.848 67.9971 520.52C67.5971 521.192 67.3971 522.16 67.3971 523.424V530H63.8211V522.344C63.8211 521.72 63.7491 521.2 63.6051 520.784C63.4611 520.368 63.2451 520.056 62.9571 519.848C62.6691 519.624 62.3011 519.512 61.8531 519.512C61.1971 519.512 60.6771 519.68 60.2931 520.016C59.9091 520.352 59.6371 520.84 59.4771 521.48C59.3171 522.12 59.2371 522.904 59.2371 523.832V530H55.6611V516.896H58.3971L58.8771 518.576H59.0691C59.3411 518.128 59.6771 517.768 60.0771 517.496C60.4771 517.208 60.9171 517 61.3971 516.872C61.8931 516.728 62.3891 516.656 62.8851 516.656C63.8451 516.656 64.6611 516.816 65.3331 517.136C66.0051 517.44 66.5171 517.92 66.8691 518.576H67.1811C67.5811 517.904 68.1331 517.416 68.8371 517.112C69.5571 516.808 70.2931 516.656 71.0451 516.656ZM94.6232 516.656C96.1112 516.656 97.2312 517.04 97.9832 517.808C98.7512 518.56 99.1352 519.776 99.1352 521.456V530H95.5592V522.344C95.5592 521.4 95.3992 520.696 95.0792 520.232C94.7592 519.752 94.2632 519.512 93.5912 519.512C92.6472 519.512 91.9752 519.848 91.5752 520.52C91.1752 521.192 90.9752 522.16 90.9752 523.424V530H87.3992V522.344C87.3992 521.72 87.3272 521.2 87.1832 520.784C87.0392 520.368 86.8232 520.056 86.5352 519.848C86.2472 519.624 85.8792 519.512 85.4312 519.512C84.7752 519.512 84.2552 519.68 83.8712 520.016C83.4872 520.352 83.2152 520.84 83.0552 521.48C82.8952 522.12 82.8152 522.904 82.8152 523.832V530H79.2392V516.896H81.9752L82.4552 518.576H82.6472C82.9192 518.128 83.2552 517.768 83.6552 517.496C84.0552 517.208 84.4952 517 84.9752 516.872C85.4712 516.728 85.9672 516.656 86.4632 516.656C87.4232 516.656 88.2392 516.816 88.9112 517.136C89.5832 517.44 90.0952 517.92 90.4472 518.576H90.7592C91.1592 517.904 91.7112 517.416 92.4152 517.112C93.1352 516.808 93.8712 516.656 94.6232 516.656Z" fill="#666666"/>
<path d="M47.6648 440.056C48.7048 440.056 49.6328 440.256 50.4488 440.656C51.2648 441.056 51.9048 441.64 52.3688 442.408C52.8488 443.176 53.0888 444.128 53.0888 445.264C53.0888 446.496 52.8328 447.56 52.3208 448.456C51.8088 449.352 51.0408 450.04 50.0168 450.52C49.0088 451 47.7528 451.24 46.2488 451.24C45.3528 451.24 44.5048 451.16 43.7048 451C42.9208 450.84 42.2328 450.608 41.6408 450.304V447.184C42.2328 447.488 42.9448 447.752 43.7768 447.976C44.6088 448.184 45.3928 448.288 46.1288 448.288C46.8488 448.288 47.4488 448.192 47.9288 448C48.4248 447.808 48.8008 447.512 49.0568 447.112C49.3128 446.712 49.4408 446.2 49.4408 445.576C49.4408 444.728 49.1608 444.088 48.6008 443.656C48.0408 443.208 47.1768 442.984 46.0088 442.984C45.5608 442.984 45.0968 443.032 44.6168 443.128C44.1368 443.208 43.7368 443.288 43.4168 443.368L41.9768 442.6L42.6248 433.864H51.9128V436.936H45.7928L45.4808 440.296C45.7528 440.248 46.0408 440.2 46.3448 440.152C46.6648 440.088 47.1048 440.056 47.6648 440.056ZM67.0392 442.432C67.0392 443.808 66.9272 445.04 66.7032 446.128C66.4952 447.216 66.1512 448.144 65.6712 448.912C65.2072 449.664 64.5912 450.24 63.8232 450.64C63.0712 451.04 62.1432 451.24 61.0392 451.24C59.6632 451.24 58.5352 450.888 57.6552 450.184C56.7752 449.48 56.1192 448.472 55.6872 447.16C55.2712 445.848 55.0632 444.272 55.0632 442.432C55.0632 440.576 55.2552 438.992 55.6392 437.68C56.0232 436.368 56.6552 435.36 57.5352 434.656C58.4152 433.952 59.5832 433.6 61.0392 433.6C62.4152 433.6 63.5432 433.952 64.4232 434.656C65.3032 435.344 65.9592 436.352 66.3912 437.68C66.8232 438.992 67.0392 440.576 67.0392 442.432ZM58.6632 442.432C58.6632 443.728 58.7352 444.816 58.8792 445.696C59.0232 446.56 59.2632 447.216 59.5992 447.664C59.9512 448.096 60.4312 448.312 61.0392 448.312C61.6472 448.312 62.1192 448.096 62.4552 447.664C62.8072 447.232 63.0552 446.584 63.1992 445.72C63.3592 444.84 63.4392 443.744 63.4392 442.432C63.4392 441.12 63.3592 440.032 63.1992 439.168C63.0552 438.288 62.8072 437.632 62.4552 437.2C62.1192 436.752 61.6472 436.528 61.0392 436.528C60.4312 436.528 59.9512 436.752 59.5992 437.2C59.2632 437.632 59.0232 438.288 58.8792 439.168C58.7352 440.032 58.6632 441.12 58.6632 442.432ZM80.7736 442.432C80.7736 443.808 80.6616 445.04 80.4376 446.128C80.2296 447.216 79.8856 448.144 79.4056 448.912C78.9416 449.664 78.3256 450.24 77.5576 450.64C76.8056 451.04 75.8776 451.24 74.7736 451.24C73.3976 451.24 72.2696 450.888 71.3896 450.184C70.5096 449.48 69.8536 448.472 69.4216 447.16C69.0056 445.848 68.7976 444.272 68.7976 442.432C68.7976 440.576 68.9896 438.992 69.3736 437.68C69.7576 436.368 70.3896 435.36 71.2696 434.656C72.1496 433.952 73.3176 433.6 74.7736 433.6C76.1496 433.6 77.2776 433.952 78.1576 434.656C79.0376 435.344 79.6936 436.352 80.1256 437.68C80.5576 438.992 80.7736 440.576 80.7736 442.432ZM72.3976 442.432C72.3976 443.728 72.4696 444.816 72.6136 445.696C72.7576 446.56 72.9976 447.216 73.3336 447.664C73.6856 448.096 74.1656 448.312 74.7736 448.312C75.3816 448.312 75.8536 448.096 76.1896 447.664C76.5416 447.232 76.7896 446.584 76.9336 445.72C77.0936 444.84 77.1736 443.744 77.1736 442.432C77.1736 441.12 77.0936 440.032 76.9336 439.168C76.7896 438.288 76.5416 437.632 76.1896 437.2C75.8536 436.752 75.3816 436.528 74.7736 436.528C74.1656 436.528 73.6856 436.752 73.3336 437.2C72.9976 437.632 72.7576 438.288 72.6136 439.168C72.4696 440.032 72.3976 441.12 72.3976 442.432ZM83.54 456.76V437.896H87.116V445.552C87.116 446.48 87.284 447.184 87.62 447.664C87.972 448.144 88.516 448.384 89.252 448.384C89.924 448.384 90.452 448.216 90.836 447.88C91.236 447.544 91.516 447.056 91.676 446.416C91.852 445.776 91.94 444.992 91.94 444.064V437.896H95.516V446.848C95.516 447.392 95.612 447.76 95.804 447.952C96.012 448.144 96.244 448.24 96.5 448.24C96.612 448.24 96.74 448.224 96.884 448.192C97.028 448.16 97.132 448.136 97.196 448.12V450.928C97.116 450.976 96.98 451.024 96.788 451.072C96.596 451.12 96.388 451.16 96.164 451.192C95.956 451.224 95.764 451.24 95.588 451.24C94.788 451.24 94.124 451.096 93.596 450.808C93.084 450.504 92.692 449.984 92.42 449.248H92.252C92.044 449.68 91.788 450.048 91.484 450.352C91.18 450.64 90.844 450.856 90.476 451C90.124 451.16 89.74 451.24 89.324 451.24C89.004 451.24 88.7 451.2 88.412 451.12C88.14 451.04 87.892 450.92 87.668 450.76C87.444 450.6 87.244 450.408 87.068 450.184H86.996C87.028 450.344 87.052 450.6 87.068 450.952C87.084 451.288 87.092 451.64 87.092 452.008C87.108 452.392 87.116 452.728 87.116 453.016V456.76H83.54ZM115.213 437.656C116.701 437.656 117.821 438.04 118.573 438.808C119.341 439.56 119.725 440.776 119.725 442.456V451H116.149V443.344C116.149 442.4 115.989 441.696 115.669 441.232C115.349 440.752 114.853 440.512 114.181 440.512C113.237 440.512 112.565 440.848 112.165 441.52C111.765 442.192 111.565 443.16 111.565 444.424V451H107.989V443.344C107.989 442.72 107.917 442.2 107.773 441.784C107.629 441.368 107.413 441.056 107.125 440.848C106.837 440.624 106.469 440.512 106.021 440.512C105.365 440.512 104.845 440.68 104.461 441.016C104.077 441.352 103.805 441.84 103.645 442.48C103.485 443.12 103.405 443.904 103.405 444.832V451H99.829V437.896H102.565L103.045 439.576H103.237C103.509 439.128 103.845 438.768 104.245 438.496C104.645 438.208 105.085 438 105.565 437.872C106.061 437.728 106.557 437.656 107.053 437.656C108.013 437.656 108.829 437.816 109.501 438.136C110.173 438.44 110.685 438.92 111.037 439.576H111.349C111.749 438.904 112.301 438.416 113.005 438.112C113.725 437.808 114.461 437.656 115.213 437.656Z" fill="#666666"/>
<path d="M50.3768 372H46.7528V362.088C46.7528 361.816 46.7528 361.48 46.7528 361.08C46.7688 360.68 46.7848 360.264 46.8008 359.832C46.8168 359.4 46.8328 359.016 46.8488 358.68C46.7688 358.776 46.5928 358.952 46.3208 359.208C46.0648 359.448 45.8248 359.664 45.6008 359.856L43.6328 361.44L41.8808 359.256L47.4008 354.864H50.3768V372ZM67.0392 363.432C67.0392 364.808 66.9272 366.04 66.7032 367.128C66.4952 368.216 66.1512 369.144 65.6712 369.912C65.2072 370.664 64.5912 371.24 63.8232 371.64C63.0712 372.04 62.1432 372.24 61.0392 372.24C59.6632 372.24 58.5352 371.888 57.6552 371.184C56.7752 370.48 56.1192 369.472 55.6872 368.16C55.2712 366.848 55.0632 365.272 55.0632 363.432C55.0632 361.576 55.2552 359.992 55.6392 358.68C56.0232 357.368 56.6552 356.36 57.5352 355.656C58.4152 354.952 59.5832 354.6 61.0392 354.6C62.4152 354.6 63.5432 354.952 64.4232 355.656C65.3032 356.344 65.9592 357.352 66.3912 358.68C66.8232 359.992 67.0392 361.576 67.0392 363.432ZM58.6632 363.432C58.6632 364.728 58.7352 365.816 58.8792 366.696C59.0232 367.56 59.2632 368.216 59.5992 368.664C59.9512 369.096 60.4312 369.312 61.0392 369.312C61.6472 369.312 62.1192 369.096 62.4552 368.664C62.8072 368.232 63.0552 367.584 63.1992 366.72C63.3592 365.84 63.4392 364.744 63.4392 363.432C63.4392 362.12 63.3592 361.032 63.1992 360.168C63.0552 359.288 62.8072 358.632 62.4552 358.2C62.1192 357.752 61.6472 357.528 61.0392 357.528C60.4312 357.528 59.9512 357.752 59.5992 358.2C59.2632 358.632 59.0232 359.288 58.8792 360.168C58.7352 361.032 58.6632 362.12 58.6632 363.432ZM80.7736 363.432C80.7736 364.808 80.6616 366.04 80.4376 367.128C80.2296 368.216 79.8856 369.144 79.4056 369.912C78.9416 370.664 78.3256 371.24 77.5576 371.64C76.8056 372.04 75.8776 372.24 74.7736 372.24C73.3976 372.24 72.2696 371.888 71.3896 371.184C70.5096 370.48 69.8536 369.472 69.4216 368.16C69.0056 366.848 68.7976 365.272 68.7976 363.432C68.7976 361.576 68.9896 359.992 69.3736 358.68C69.7576 357.368 70.3896 356.36 71.2696 355.656C72.1496 354.952 73.3176 354.6 74.7736 354.6C76.1496 354.6 77.2776 354.952 78.1576 355.656C79.0376 356.344 79.6936 357.352 80.1256 358.68C80.5576 359.992 80.7736 361.576 80.7736 363.432ZM72.3976 363.432C72.3976 364.728 72.4696 365.816 72.6136 366.696C72.7576 367.56 72.9976 368.216 73.3336 368.664C73.6856 369.096 74.1656 369.312 74.7736 369.312C75.3816 369.312 75.8536 369.096 76.1896 368.664C76.5416 368.232 76.7896 367.584 76.9336 366.72C77.0936 365.84 77.1736 364.744 77.1736 363.432C77.1736 362.12 77.0936 361.032 76.9336 360.168C76.7896 359.288 76.5416 358.632 76.1896 358.2C75.8536 357.752 75.3816 357.528 74.7736 357.528C74.1656 357.528 73.6856 357.752 73.3336 358.2C72.9976 358.632 72.7576 359.288 72.6136 360.168C72.4696 361.032 72.3976 362.12 72.3976 363.432ZM83.54 377.76V358.896H87.116V366.552C87.116 367.48 87.284 368.184 87.62 368.664C87.972 369.144 88.516 369.384 89.252 369.384C89.924 369.384 90.452 369.216 90.836 368.88C91.236 368.544 91.516 368.056 91.676 367.416C91.852 366.776 91.94 365.992 91.94 365.064V358.896H95.516V367.848C95.516 368.392 95.612 368.76 95.804 368.952C96.012 369.144 96.244 369.24 96.5 369.24C96.612 369.24 96.74 369.224 96.884 369.192C97.028 369.16 97.132 369.136 97.196 369.12V371.928C97.116 371.976 96.98 372.024 96.788 372.072C96.596 372.12 96.388 372.16 96.164 372.192C95.956 372.224 95.764 372.24 95.588 372.24C94.788 372.24 94.124 372.096 93.596 371.808C93.084 371.504 92.692 370.984 92.42 370.248H92.252C92.044 370.68 91.788 371.048 91.484 371.352C91.18 371.64 90.844 371.856 90.476 372C90.124 372.16 89.74 372.24 89.324 372.24C89.004 372.24 88.7 372.2 88.412 372.12C88.14 372.04 87.892 371.92 87.668 371.76C87.444 371.6 87.244 371.408 87.068 371.184H86.996C87.028 371.344 87.052 371.6 87.068 371.952C87.084 372.288 87.092 372.64 87.092 373.008C87.108 373.392 87.116 373.728 87.116 374.016V377.76H83.54ZM115.213 358.656C116.701 358.656 117.821 359.04 118.573 359.808C119.341 360.56 119.725 361.776 119.725 363.456V372H116.149V364.344C116.149 363.4 115.989 362.696 115.669 362.232C115.349 361.752 114.853 361.512 114.181 361.512C113.237 361.512 112.565 361.848 112.165 362.52C111.765 363.192 111.565 364.16 111.565 365.424V372H107.989V364.344C107.989 363.72 107.917 363.2 107.773 362.784C107.629 362.368 107.413 362.056 107.125 361.848C106.837 361.624 106.469 361.512 106.021 361.512C105.365 361.512 104.845 361.68 104.461 362.016C104.077 362.352 103.805 362.84 103.645 363.48C103.485 364.12 103.405 364.904 103.405 365.832V372H99.829V358.896H102.565L103.045 360.576H103.237C103.509 360.128 103.845 359.768 104.245 359.496C104.645 359.208 105.085 359 105.565 358.872C106.061 358.728 106.557 358.656 107.053 358.656C108.013 358.656 108.829 358.816 109.501 359.136C110.173 359.44 110.685 359.92 111.037 360.576H111.349C111.749 359.904 112.301 359.416 113.005 359.112C113.725 358.808 114.461 358.656 115.213 358.656Z" fill="#666666"/>
<path d="M47.532 282.056C48.572 282.056 49.5 282.256 50.316 282.656C51.132 283.056 51.772 283.64 52.236 284.408C52.716 285.176 52.956 286.128 52.956 287.264C52.956 288.496 52.7 289.56 52.188 290.456C51.676 291.352 50.908 292.04 49.884 292.52C48.876 293 47.62 293.24 46.116 293.24C45.22 293.24 44.372 293.16 43.572 293C42.788 292.84 42.1 292.608 41.508 292.304V289.184C42.1 289.488 42.812 289.752 43.644 289.976C44.476 290.184 45.26 290.288 45.996 290.288C46.716 290.288 47.316 290.192 47.796 290C48.292 289.808 48.668 289.512 48.924 289.112C49.18 288.712 49.308 288.2 49.308 287.576C49.308 286.728 49.028 286.088 48.468 285.656C47.908 285.208 47.044 284.984 45.876 284.984C45.428 284.984 44.964 285.032 44.484 285.128C44.004 285.208 43.604 285.288 43.284 285.368L41.844 284.6L42.492 275.864H51.78V278.936H45.66L45.348 282.296C45.62 282.248 45.908 282.2 46.212 282.152C46.532 282.088 46.972 282.056 47.532 282.056ZM66.9064 284.432C66.9064 285.808 66.7944 287.04 66.5704 288.128C66.3624 289.216 66.0184 290.144 65.5384 290.912C65.0744 291.664 64.4584 292.24 63.6904 292.64C62.9384 293.04 62.0104 293.24 60.9064 293.24C59.5304 293.24 58.4024 292.888 57.5224 292.184C56.6424 291.48 55.9864 290.472 55.5544 289.16C55.1384 287.848 54.9304 286.272 54.9304 284.432C54.9304 282.576 55.1224 280.992 55.5064 279.68C55.8904 278.368 56.5224 277.36 57.4024 276.656C58.2824 275.952 59.4504 275.6 60.9064 275.6C62.2824 275.6 63.4104 275.952 64.2904 276.656C65.1704 277.344 65.8264 278.352 66.2584 279.68C66.6904 280.992 66.9064 282.576 66.9064 284.432ZM58.5304 284.432C58.5304 285.728 58.6024 286.816 58.7464 287.696C58.8904 288.56 59.1304 289.216 59.4664 289.664C59.8184 290.096 60.2984 290.312 60.9064 290.312C61.5144 290.312 61.9864 290.096 62.3224 289.664C62.6744 289.232 62.9224 288.584 63.0664 287.72C63.2264 286.84 63.3064 285.744 63.3064 284.432C63.3064 283.12 63.2264 282.032 63.0664 281.168C62.9224 280.288 62.6744 279.632 62.3224 279.2C61.9864 278.752 61.5144 278.528 60.9064 278.528C60.2984 278.528 59.8184 278.752 59.4664 279.2C59.1304 279.632 58.8904 280.288 58.7464 281.168C58.6024 282.032 58.5304 283.12 58.5304 284.432ZM69.6728 298.76V279.896H73.2488V287.552C73.2488 288.48 73.4168 289.184 73.7528 289.664C74.1048 290.144 74.6488 290.384 75.3848 290.384C76.0568 290.384 76.5848 290.216 76.9688 289.88C77.3688 289.544 77.6488 289.056 77.8088 288.416C77.9848 287.776 78.0728 286.992 78.0728 286.064V279.896H81.6488V288.848C81.6488 289.392 81.7448 289.76 81.9368 289.952C82.1448 290.144 82.3768 290.24 82.6328 290.24C82.7448 290.24 82.8728 290.224 83.0168 290.192C83.1608 290.16 83.2648 290.136 83.3288 290.12V292.928C83.2488 292.976 83.1128 293.024 82.9208 293.072C82.7288 293.12 82.5208 293.16 82.2968 293.192C82.0888 293.224 81.8968 293.24 81.7208 293.24C80.9208 293.24 80.2568 293.096 79.7288 292.808C79.2168 292.504 78.8248 291.984 78.5528 291.248H78.3848C78.1768 291.68 77.9208 292.048 77.6168 292.352C77.3128 292.64 76.9768 292.856 76.6088 293C76.2568 293.16 75.8728 293.24 75.4568 293.24C75.1368 293.24 74.8328 293.2 74.5448 293.12C74.2728 293.04 74.0248 292.92 73.8008 292.76C73.5768 292.6 73.3768 292.408 73.2008 292.184H73.1288C73.1608 292.344 73.1848 292.6 73.2008 292.952C73.2168 293.288 73.2248 293.64 73.2248 294.008C73.2408 294.392 73.2488 294.728 73.2488 295.016V298.76H69.6728ZM101.346 279.656C102.834 279.656 103.954 280.04 104.706 280.808C105.474 281.56 105.858 282.776 105.858 284.456V293H102.282V285.344C102.282 284.4 102.122 283.696 101.802 283.232C101.482 282.752 100.986 282.512 100.314 282.512C99.3698 282.512 98.6978 282.848 98.2978 283.52C97.8978 284.192 97.6978 285.16 97.6978 286.424V293H94.1218V285.344C94.1218 284.72 94.0498 284.2 93.9058 283.784C93.7618 283.368 93.5458 283.056 93.2578 282.848C92.9698 282.624 92.6018 282.512 92.1538 282.512C91.4978 282.512 90.9778 282.68 90.5938 283.016C90.2098 283.352 89.9378 283.84 89.7778 284.48C89.6178 285.12 89.5378 285.904 89.5378 286.832V293H85.9618V279.896H88.6978L89.1778 281.576H89.3698C89.6418 281.128 89.9778 280.768 90.3778 280.496C90.7778 280.208 91.2178 280 91.6978 279.872C92.1938 279.728 92.6898 279.656 93.1858 279.656C94.1458 279.656 94.9618 279.816 95.6338 280.136C96.3058 280.44 96.8178 280.92 97.1698 281.576H97.4818C97.8818 280.904 98.4338 280.416 99.1378 280.112C99.8578 279.808 100.594 279.656 101.346 279.656Z" fill="#666666"/>
<path d="M50.244 214H46.62V204.088C46.62 203.816 46.62 203.48 46.62 203.08C46.636 202.68 46.652 202.264 46.668 201.832C46.684 201.4 46.7 201.016 46.716 200.68C46.636 200.776 46.46 200.952 46.188 201.208C45.932 201.448 45.692 201.664 45.468 201.856L43.5 203.44L41.748 201.256L47.268 196.864H50.244V214ZM66.9064 205.432C66.9064 206.808 66.7944 208.04 66.5704 209.128C66.3624 210.216 66.0184 211.144 65.5384 211.912C65.0744 212.664 64.4584 213.24 63.6904 213.64C62.9384 214.04 62.0104 214.24 60.9064 214.24C59.5304 214.24 58.4024 213.888 57.5224 213.184C56.6424 212.48 55.9864 211.472 55.5544 210.16C55.1384 208.848 54.9304 207.272 54.9304 205.432C54.9304 203.576 55.1224 201.992 55.5064 200.68C55.8904 199.368 56.5224 198.36 57.4024 197.656C58.2824 196.952 59.4504 196.6 60.9064 196.6C62.2824 196.6 63.4104 196.952 64.2904 197.656C65.1704 198.344 65.8264 199.352 66.2584 200.68C66.6904 201.992 66.9064 203.576 66.9064 205.432ZM58.5304 205.432C58.5304 206.728 58.6024 207.816 58.7464 208.696C58.8904 209.56 59.1304 210.216 59.4664 210.664C59.8184 211.096 60.2984 211.312 60.9064 211.312C61.5144 211.312 61.9864 211.096 62.3224 210.664C62.6744 210.232 62.9224 209.584 63.0664 208.72C63.2264 207.84 63.3064 206.744 63.3064 205.432C63.3064 204.12 63.2264 203.032 63.0664 202.168C62.9224 201.288 62.6744 200.632 62.3224 200.2C61.9864 199.752 61.5144 199.528 60.9064 199.528C60.2984 199.528 59.8184 199.752 59.4664 200.2C59.1304 200.632 58.8904 201.288 58.7464 202.168C58.6024 203.032 58.5304 204.12 58.5304 205.432ZM69.6728 219.76V200.896H73.2488V208.552C73.2488 209.48 73.4168 210.184 73.7528 210.664C74.1048 211.144 74.6488 211.384 75.3848 211.384C76.0568 211.384 76.5848 211.216 76.9688 210.88C77.3688 210.544 77.6488 210.056 77.8088 209.416C77.9848 208.776 78.0728 207.992 78.0728 207.064V200.896H81.6488V209.848C81.6488 210.392 81.7448 210.76 81.9368 210.952C82.1448 211.144 82.3768 211.24 82.6328 211.24C82.7448 211.24 82.8728 211.224 83.0168 211.192C83.1608 211.16 83.2648 211.136 83.3288 211.12V213.928C83.2488 213.976 83.1128 214.024 82.9208 214.072C82.7288 214.12 82.5208 214.16 82.2968 214.192C82.0888 214.224 81.8968 214.24 81.7208 214.24C80.9208 214.24 80.2568 214.096 79.7288 213.808C79.2168 213.504 78.8248 212.984 78.5528 212.248H78.3848C78.1768 212.68 77.9208 213.048 77.6168 213.352C77.3128 213.64 76.9768 213.856 76.6088 214C76.2568 214.16 75.8728 214.24 75.4568 214.24C75.1368 214.24 74.8328 214.2 74.5448 214.12C74.2728 214.04 74.0248 213.92 73.8008 213.76C73.5768 213.6 73.3768 213.408 73.2008 213.184H73.1288C73.1608 213.344 73.1848 213.6 73.2008 213.952C73.2168 214.288 73.2248 214.64 73.2248 215.008C73.2408 215.392 73.2488 215.728 73.2488 216.016V219.76H69.6728ZM101.346 200.656C102.834 200.656 103.954 201.04 104.706 201.808C105.474 202.56 105.858 203.776 105.858 205.456V214H102.282V206.344C102.282 205.4 102.122 204.696 101.802 204.232C101.482 203.752 100.986 203.512 100.314 203.512C99.3698 203.512 98.6978 203.848 98.2978 204.52C97.8978 205.192 97.6978 206.16 97.6978 207.424V214H94.1218V206.344C94.1218 205.72 94.0498 205.2 93.9058 204.784C93.7618 204.368 93.5458 204.056 93.2578 203.848C92.9698 203.624 92.6018 203.512 92.1538 203.512C91.4978 203.512 90.9778 203.68 90.5938 204.016C90.2098 204.352 89.9378 204.84 89.7778 205.48C89.6178 206.12 89.5378 206.904 89.5378 207.832V214H85.9618V200.896H88.6978L89.1778 202.576H89.3698C89.6418 202.128 89.9778 201.768 90.3778 201.496C90.7778 201.208 91.2178 201 91.6978 200.872C92.1938 200.728 92.6898 200.656 93.1858 200.656C94.1458 200.656 94.9618 200.816 95.6338 201.136C96.3058 201.44 96.8178 201.92 97.1698 202.576H97.4818C97.8818 201.904 98.4338 201.416 99.1378 201.112C99.8578 200.808 100.594 200.656 101.346 200.656Z" fill="#666666"/>
<path d="M47.3992 124.056C48.4392 124.056 49.3672 124.256 50.1832 124.656C50.9992 125.056 51.6392 125.64 52.1032 126.408C52.5832 127.176 52.8232 128.128 52.8232 129.264C52.8232 130.496 52.5672 131.56 52.0552 132.456C51.5432 133.352 50.7752 134.04 49.7512 134.52C48.7432 135 47.4872 135.24 45.9832 135.24C45.0872 135.24 44.2392 135.16 43.4392 135C42.6552 134.84 41.9672 134.608 41.3752 134.304V131.184C41.9672 131.488 42.6792 131.752 43.5112 131.976C44.3432 132.184 45.1272 132.288 45.8632 132.288C46.5832 132.288 47.1832 132.192 47.6632 132C48.1592 131.808 48.5352 131.512 48.7912 131.112C49.0472 130.712 49.1752 130.2 49.1752 129.576C49.1752 128.728 48.8952 128.088 48.3352 127.656C47.7752 127.208 46.9112 126.984 45.7432 126.984C45.2952 126.984 44.8312 127.032 44.3512 127.128C43.8712 127.208 43.4712 127.288 43.1512 127.368L41.7112 126.6L42.3592 117.864H51.6472V120.936H45.5272L45.2152 124.296C45.4872 124.248 45.7752 124.2 46.0792 124.152C46.3992 124.088 46.8392 124.056 47.3992 124.056ZM55.8056 140.76V121.896H59.3816V129.552C59.3816 130.48 59.5496 131.184 59.8856 131.664C60.2376 132.144 60.7816 132.384 61.5176 132.384C62.1896 132.384 62.7176 132.216 63.1016 131.88C63.5016 131.544 63.7816 131.056 63.9416 130.416C64.1176 129.776 64.2056 128.992 64.2056 128.064V121.896H67.7816V130.848C67.7816 131.392 67.8776 131.76 68.0696 131.952C68.2776 132.144 68.5096 132.24 68.7656 132.24C68.8776 132.24 69.0056 132.224 69.1496 132.192C69.2936 132.16 69.3976 132.136 69.4616 132.12V134.928C69.3816 134.976 69.2456 135.024 69.0536 135.072C68.8616 135.12 68.6536 135.16 68.4296 135.192C68.2216 135.224 68.0296 135.24 67.8536 135.24C67.0536 135.24 66.3896 135.096 65.8616 134.808C65.3496 134.504 64.9576 133.984 64.6856 133.248H64.5176C64.3096 133.68 64.0536 134.048 63.7496 134.352C63.4456 134.64 63.1096 134.856 62.7416 135C62.3896 135.16 62.0056 135.24 61.5896 135.24C61.2696 135.24 60.9656 135.2 60.6776 135.12C60.4056 135.04 60.1576 134.92 59.9336 134.76C59.7096 134.6 59.5096 134.408 59.3336 134.184H59.2616C59.2936 134.344 59.3176 134.6 59.3336 134.952C59.3496 135.288 59.3576 135.64 59.3576 136.008C59.3736 136.392 59.3816 136.728 59.3816 137.016V140.76H55.8056ZM87.4787 121.656C88.9667 121.656 90.0867 122.04 90.8387 122.808C91.6067 123.56 91.9907 124.776 91.9907 126.456V135H88.4147V127.344C88.4147 126.4 88.2547 125.696 87.9347 125.232C87.6147 124.752 87.1187 124.512 86.4467 124.512C85.5027 124.512 84.8307 124.848 84.4307 125.52C84.0307 126.192 83.8307 127.16 83.8307 128.424V135H80.2547V127.344C80.2547 126.72 80.1827 126.2 80.0387 125.784C79.8947 125.368 79.6787 125.056 79.3907 124.848C79.1027 124.624 78.7347 124.512 78.2867 124.512C77.6307 124.512 77.1107 124.68 76.7267 125.016C76.3427 125.352 76.0707 125.84 75.9107 126.48C75.7507 127.12 75.6707 127.904 75.6707 128.832V135H72.0947V121.896H74.8307L75.3107 123.576H75.5027C75.7747 123.128 76.1107 122.768 76.5107 122.496C76.9107 122.208 77.3507 122 77.8307 121.872C78.3267 121.728 78.8227 121.656 79.3187 121.656C80.2787 121.656 81.0947 121.816 81.7667 122.136C82.4387 122.44 82.9507 122.92 83.3027 123.576H83.6147C84.0147 122.904 84.5667 122.416 85.2707 122.112C85.9907 121.808 86.7267 121.656 87.4787 121.656Z" fill="#666666"/>
</svg>
